<?xml version="1.0" encoding="UTF-8"?>
<svg id="Layer_1" xmlns="http://www.w3.org/2000/svg" version="1.1" viewBox="0 0 396 260">
  <!-- Generator: Adobe Illustrator 29.1.0, SVG Export Plug-In . SVG Version: 2.1.0 Build 142)  -->
  <polygon points="149.05 87.86 150.1 87.7 144.13 88.63 149.05 87.86" fill="none"/>
  <path d="M190.02,244.79s-.02.02-.02.03l1.01.52.06-.02-1.05-.54Z" fill="none"/>
  <path d="M206.29,234.61s-.01.04-.02.07c.28,1.4-.04,2.81-.73,4.14.71-1.35,1.04-2.79.75-4.21Z" fill="none"/>
  <path d="M182.98,234.88c-.21-.65-.38-1.3-.52-1.94-.5-2.19-.67-4.3-.61-6.25.02-.91.09-1.79.2-2.63.1-.81.23-1.57.38-2.3.17-.79.35-1.5.55-2.18,0,0,0-.01,0-.02-.2.69-.39,1.42-.56,2.22-.15.73-.28,1.5-.38,2.3-.11.84-.17,1.72-.2,2.63-.05,1.96.11,4.06.61,6.25.14.64.32,1.28.52,1.94.48,1.49,1.11,3.02,1.97,4.54h0c.48.88,1,1.66,1.54,2.35-.02-.04-.03-.09-.05-.13-.51-.67-1.01-1.41-1.47-2.24-.85-1.53-1.48-3.05-1.97-4.54Z" fill="none"/>
  <path d="M185.46,238.72c.04.15.09.29.14.44,1.74,3.41,13.72,7.42,18.88-.29-5.38,7.98-18.09,3.33-19.02-.15Z" fill="none"/>
  <path d="M180.51,225.98c-1.68.35-3.31,1.24-4.87,1.9h.05c1.56-.66,3.19-1.54,4.87-1.89.16-.16.33-.31.48-.48.08-1.17.22-2.28.41-3.31-.02,0-.03,0-.05.01-.18,1.03-.34,2.13-.41,3.28-.15.17-.32.34-.48.48Z" fill="none"/>
  <path d="M190.05,245.63h-.03c1,3.32,10.76,11.74,15.87,4.33-5.1,7.32-14.79-1-15.84-4.33Z" fill="none"/>
  <path d="M172.77,222.43s.04,0,.06,0c3-1.38,6.1-3.43,9.44-3.58.05-.16.1-.29.15-.45,0-.02-.02-.04-.03-.06-.05.17-.11.32-.16.49-3.34.15-6.44,2.2-9.45,3.59Z" fill="none"/>
  <path d="M308.28,183.81l-37.29-49.16s-.01,0-.02,0l37.29,49.16h.01Z" fill="none"/>
  <polygon points="344.39 125.88 329.2 122.74 329.19 122.75 344.35 125.89 344.39 125.88" fill="none"/>
  <path d="M208.97,236.48c0,.09,0,.17,0,.25.25,4.26.83,9.34-1.96,14.11,2.86-4.86,2.21-10.04,1.97-14.35Z" fill="none"/>
  <rect x="210.45" y="187.56" width="68.98" height="0" transform="translate(-42.5 299.59) rotate(-58.74)" fill="none"/>
  <path d="M193.36,73.5h0s0,.02,0,.02h0s0-.01,0-.02Z" fill="none"/>
  <path d="M209.99,253.52c-1.66.45-3.4.7-5.21.69-.11-.04-.22-.07-.34-.11-.01.01-.02.02-.03.03.12.05.23.07.35.11,1.82.01,3.56-.23,5.21-.69.86-.6,1.59-1.42,2.2-2.38-.61.94-1.33,1.76-2.18,2.34Z" fill="none"/>
  <path d="M215.8,245.28c-.19-4.77-.17-6.28-.24-5.95.05.08.05,1.73.22,5.99-.31,3.15-.29,4.94-.09,5.73.44-.27.88-.55,1.31-.84,0,0,0-.02.01-.03-.42.29-.86.57-1.3.83-.21-.78-.21-2.58.09-5.73Z" fill="none"/>
  <path d="M225.62,227.36c.32-.2,2.68,9.17,1.58,13.02.03-.04.05-.08.08-.13-.02.03-.03.06-.05.09,1.13-3.96-1.39-13.73-1.61-12.99Z" fill="none"/>
  <polygon points="162.5 165.63 161.34 173.4 161.34 173.39 162.5 165.63 162.5 165.63" fill="none"/>
  <rect x="105.98" y="182.99" width="31.44" height="0" transform="translate(-64.51 299.7) rotate(-88.45)" fill="none"/>
  <polygon points="96.4 163.43 65.62 197.88 65.64 197.87 96.42 163.43 96.4 163.43" fill="none"/>
  <path d="M174.7,215.16c1.3-1.21,2.86-2.54,4.54-3.19,0,0,0-.01,0-.02-1.74.66-3.36,2.07-4.71,3.31.06-.04.12-.07.17-.11Z" fill="none"/>
  <polygon points="335.87 62.2 335.9 62.18 318.6 68.3 318.6 68.32 335.87 62.2" fill="none"/>
  <path d="M258.76,89.5s0,0,0-.01l-6.99,2.47v.02s6.99-2.48,6.99-2.48Z" fill="none"/>
  <path d="M251.55,69.89c8.65-7.03,16.88-15.27,25.79-21.67.02-.02.05-.04.07-.06-8.93,6.41-17.18,14.67-25.84,21.71,0,0,0,.02-.01.03Z" fill="none"/>
  <path d="M221.82,211.2c.59-.72.8-1.76.41-3.2l-.22-.13c.47,1.49.33,2.58-.19,3.34Z" fill="none"/>
  <path d="M180.88,227.5c0,1.87.21,3.86.7,5.91-7.03,3.74-14.97,1.42-18.25.56h-.03c-.07-.01-.13-.04-.2-.05-.03-.01-.05-.01-.08-.01h-.08c-.09-.02-.17-.04-.25-.06-.32-.07-.57-.12-.72-.12h-.02s-.09-.01-.15-.02c-.1-.02-.23-.04-.37-.09.16.05.3.08.41.1.05.02.11.02.15.02h.02c.15,0,.4.05.72.12.08.01.16.04.25.06h.08s.05.01.08.01c.05.01.13.04.2.05h.07c3.29.87,11.22,3.2,18.25-.55-.49-2.08-.7-4.09-.7-5.98-.02.02-.05.03-.07.05Z" fill="none"/>
  <polygon points="160.69 177.75 160.69 177.74 160.68 177.79 160.68 177.79 160.69 177.75" fill="none"/>
  <path d="M98.75,71.43h.01c-7.09-4.29-12.32-7.11-12.75-6.34h0c.46-.74,5.66,2.07,12.73,6.34Z" fill="none"/>
  <polygon points="168.68 61.33 168.7 61.33 125.11 31.58 125.12 31.6 168.68 61.33" fill="none"/>
  <path d="M32.4,148.64c.08-.47.47-.16,1.32-.4,13.9-3.99,28.28-6.92,42.58-10.04,0,0,0,0,0,0-14.3,3.12-28.69,6.04-42.59,10.03-.85.24-1.24-.07-1.32.41Z" fill="none"/>
  <path d="M31.65,87.06l46.1,10.63s0,0,0-.01l-46.13-10.64.03.02Z" fill="none"/>
  <path d="M221.14,245.76s-.09-9.07-.74-14.98c.03.3.05.62.07.95.57,5.89.65,14.07.65,14.07,0,0,1.26-.88,2.51-2.92-1.24,2.01-2.49,2.89-2.49,2.89Z" fill="none"/>
  <path d="M229.78,237.62c.11-.27.21-.55.31-.84,0,0,0,0,0,0-.09.29-.19.57-.31.84Z" fill="none"/>
  <path d="M4,75.43v.82c.56-.27.56-.55,0-.82Z" fill="#fa0400"/>
  <g>
    <path d="M112.78,77.94l-.02.37,4.06-1.2,6.26-1.86c-.14,1.83-.27,3.64-.4,5.43-.13,1.88-.26,3.74-.39,5.58,0,0,0,0,0,.01-.09,1.36-.18,2.71-.26,4.04-.31,4.88-.57,9.62-.79,14.21-.04.71-.08,1.43-.12,2.14h-.01c-3.49.39-6.84.76-10.06,1.12-.1,2.36-.23,5.34-.38,8.96-.39-1.16-.87-2.68-1.45-4.57-.58-1.89-1.17-3.91-1.78-6.11-.15-.56-.31-1.1-.46-1.64,0,0,0,0,0-.01-.45-1.61-.9-3.2-1.35-4.75-.6-2.08-1.12-3.91-1.56-5.48-.38-1.44-.77-2.92-1.16-4.42,0,0,0-.01,0-.02-.23-.87-.46-1.74-.69-2.62-.64-2.41-1.33-4.86-2.07-7.33l-3.5.79h0s-.78.18-.78.18c-.78.18-1.56.38-2.37.57-.8.19-1.57.38-2.33.56-.01,0-.02,0-.03,0-.83.19-1.69.4-2.59.61-.9.21-1.82.41-2.77.63,0,.12,0,.25,0,.38.76-.17,1.53-.34,2.25-.51.9-.21,1.76-.41,2.59-.61.25-.06.52-.12.78-.19.53-.13,1.05-.25,1.59-.38.81-.19,1.59-.38,2.37-.57l1.52-.34h0s2.76-.63,2.76-.63c.74,2.47,1.43,4.91,2.07,7.33.05.2.1.39.16.59,0,0,0,.01,0,.02.58,2.2,1.14,4.35,1.69,6.45.44,1.56.96,3.39,1.56,5.48.38,1.34.77,2.71,1.16,4.09,0,0,0,0,0,.01.22.76.43,1.53.65,2.3.15.55.31,1.09.46,1.61-8.72.95-16.19,1.75-22,2.32-.03,1.01-.06,2.01-.1,3.03-.07,1.97-.14,3.92-.21,5.87,0,0,0,0,0,.01-.12,3.47-.25,6.93-.37,10.34-.1,2.2-.21,4.42-.32,6.64h0c-.12,2.42-.24,4.85-.37,7.3-.22,4.5-.45,9.08-.69,13.73,0,0,0,0,0,.01,0,.19-.02.38-.03.57l1.01-.43h.02s11.71-5,11.71-5c.16-2.62.28-5.2.36-7.76s.17-5.05.31-7.45c.08-1.3.14-2.63.2-3.96,0,0,0,0,0,0,.1-2.19.18-4.4.23-6.67,0,0,0,0,0-.01,0-.13,0-.26.01-.4.08-3.78.16-7.69.27-11.73.24.91.6,2.3,1.08,4.17s.98,3.94,1.52,6.2c.32,1.39.64,2.74.96,4.08,0,0,0,0,0,.01.2.84.4,1.69.6,2.51.05.19.09.37.13.56,0,0,0,0,0,.01.45,1.89.82,3.53,1.11,4.91l3.3,15.21,14.22-6.08c-.07-5.37.03-11.65.29-18.87.25-7.22.62-14.98,1.11-23.29.22-4.59.48-9.33.79-14.21.07-1.06.14-2.15.21-3.22,0,0,0,0,0-.01.12-1.85.25-3.71.38-5.6.15-2.06.29-4.13.45-6.24l-7.19,2.13-3.63,1.08Z" fill="#fc8800"/>
    <path d="M83.3,158.06s0-.03,0-.04h-.01s.01.04.01.04Z" fill="#fc8800"/>
    <path d="M187.37,72.96l-.05,1.08h0s-.17,3.75-.17,3.75c-.08,1.65-.17,2.96-.27,3.97.17-.08.33-.15.5-.23.11-1.04.21-2.45.29-4.23l.13-2.92h0s.09-1.91.09-1.91l.32-5.56c-1.07.31-4.53.98-8.76,1.75,0,0,0,0-.01,0-.4.07-.8.14-1.2.22-.14.03-.29.05-.43.08-.27.05-.55.1-.83.15-.14.03-.29.05-.44.08-.27.05-.54.1-.81.14-.23.04-.47.08-.71.12-.19.03-.38.07-.57.1-.21.04-.41.07-.62.11-.24.04-.47.08-.71.12-.11.02-.22.04-.33.06-.32.06-.64.11-.96.17-.3.05-.6.1-.9.16-.09.02-.19.03-.28.05-.27.05-.54.09-.8.14-.19.03-.37.06-.56.1-.17.03-.33.06-.49.08-.24.04-.47.08-.71.12-.29.05-.57.1-.85.15-.11.02-.22.04-.33.06-.27.05-.53.09-.79.13-.13.02-.26.04-.38.07-.26.04-.51.09-.76.13-.13.02-.27.05-.4.07-.29.05-.57.1-.84.14-.04,0-.08.01-.12.02-.33.06-.64.11-.95.16-.02,0-.03,0-.05,0-.3.05-.58.1-.85.14-.03,0-.06.01-.1.02-.27.05-.53.09-.79.13-.01,0-.03,0-.04,0l-.14.42c4.67-.79,12.96-2.2,19.19-3.34,0,0,0,0,.01,0,3.78-.69,6.8-1.28,7.79-1.57l-.32,5.56Z" fill="#fc8800"/>
    <path d="M178.42,97.93c-.02.74-.04,1.47-.07,2.19-4.66.54-9.27,1.07-13.81,1.6-.17,6.93-.44,14.05-.83,21.35-.15,3.63-.35,7.32-.59,11.06-.24,3.74-.45,7.51-.66,11.28l15.9-5.32c-.09-7.06-.05-14.04.13-20.94.11-4.03.17-7.73.22-11.11.03-3.37.11-6.9.23-10.6.12-3.62.31-7.91.58-12.85-.17.06-.34.12-.51.18-.28,5.08-.48,9.46-.6,13.15Z" fill="#fc8800"/>
    <path d="M152.37,102.37c-.55.08-1.17.18-1.9.29l-4.24.65c-.84.13-1.7.27-2.58.4s-1.79.31-2.74.53l.19-6.07h0s.09-3.11.09-3.11h0s.26-8.68.26-8.68l-.51.08-.21,6.8h0s-.14,4.61-.14,4.61h0s-.2,6.61-.2,6.61l.02.02c-4.85.55-9.55,1.09-14.06,1.59-.06,2.37-.16,5.3-.28,8.8-.14,3.77-.28,7.84-.44,12.21-.15,4.38-.37,8.69-.63,12.91-.26,4.23-.62,8.01-1.06,11.34,1.45-.63,3.14-1.33,5.07-2.11,1.92-.78,3.71-1.45,5.35-2.06.99-.42,1.97-.81,2.94-1.16.97-.35,1.95-.71,2.95-1.07l.44-30.17c2.65-.34,5.17-.65,7.57-.92s4.21-.5,5.48-.69l.13-5.54c0-.96,0-1.89.01-2.81,0-.92-.02-1.85-.08-2.8-.41.13-.88.24-1.43.33ZM143.62,104.12c.7-.11,1.41-.22,2.1-.33l4.24-.65c.73-.11,1.35-.21,1.9-.29.55-.08,1.02-.19,1.43-.33.01.16.02.33.02.48-3.28.38-6.51.75-9.68,1.11Z" fill="#fc8800"/>
    <path d="M136.34,75.88l-9.03,1.47-.6.1c0,.14,0,.28,0,.43l.69-.11,9.04-1.47h0s17.74-2.89,17.74-2.89l.13-.45-17.97,2.92h0Z" fill="#fc8800"/>
    <path d="M312.2,88.4c.35-2.3.59-4.65.72-7.03,0,0,0,0,0-.01.19-3.58.13-7.24-.18-10.96,0,0,0,0,0-.01-.1-1.17-.21-2.34-.36-3.51-.12-.92-.26-1.82-.42-2.72-.5-2.68-1.23-5.26-2.18-7.73-1.38-3.55-3.4-6.38-6.02-8.44-2.13-1.67-4.75-2.52-7.78-2.52-.92,0-1.89.07-2.89.23-2.14.33-4.2,1.01-6.17,2.01-2.79,1.41-5.41,3.47-7.82,6.19-3.92,4.42-7.23,9.91-9.83,16.29-1.62,3.92-2.95,8.16-3.97,12.62-.36,1.56-.66,3.14-.93,4.71,0,0,0,0,0,.01-.51,2.91-.88,5.84-1.09,8.74-.33,4.53-.24,8.87.26,12.88.95,7.56,3.17,13.15,6.58,16.64,2.96,3.03,6.41,4.55,10.25,4.55l.02-.02c.76,0,1.55-.06,2.35-.18,4.02-.62,8.08-2.71,12.06-6.21,2.2-1.94,4.28-4.29,6.23-7,0,0,0,0,0-.01,1.46-2.03,2.84-4.25,4.13-6.68.23-.43.45-.87.68-1.31,2.69-5.27,4.72-11.43,6.01-18.34.14-.72.25-1.46.36-2.19ZM309.98,83.81s0,0,0,.01c-.19,2.08-.46,4.14-.84,6.16-.06.32-.13.63-.19.94-1.31,6.64-3.3,12.44-5.98,17.41-.06.11-.11.23-.17.34-1.52,2.85-3.13,5.38-4.85,7.61,0,0,0,0,0,.01-1.55,2.01-3.17,3.77-4.88,5.27-3.61,3.19-7.21,5.04-10.75,5.6h.01c-3.97.62-7.43-.58-10.38-3.6-2.95-3.02-4.87-7.96-5.73-14.83-.48-3.8-.57-7.87-.25-12.21.17-2.28.43-4.56.78-6.84-.15.02-.29.04-.44.05.17-1.03.36-2.07.56-3.1,0,0,0,0,0-.01.17-.85.34-1.7.54-2.55.4-1.74.86-3.43,1.35-5.08.46-1.53.94-3.04,1.48-4.5.31-.86.64-1.71.98-2.54,2.48-6.1,5.58-11.24,9.28-15.42.54-.61,1.09-1.17,1.64-1.7.28-.28.56-.54.84-.81,3.19-2.96,6.67-4.75,10.45-5.33,3.61-.56,6.52.02,8.73,1.76,2.21,1.73,3.91,4.13,5.09,7.17.92,2.38,1.6,4.86,2.07,7.44.13.74.25,1.48.35,2.24.17,1.36.3,2.7.4,4.04,0,0,0,0,0,.01.33,4.27.31,8.42-.06,12.46Z" fill="#fc8800"/>
    <path d="M297.64,78.15c-.1-.72-.25-1.48-.43-2.26,0,0,0,0,0-.01-.09-.38-.17-.75-.28-1.15-.34-1.21-.86-2.23-1.58-3.08-.59-.69-1.38-1.01-2.34-1-.2,0-.41,0-.63.03-1.43.23-2.75.74-3.96,1.54-.43.28-.84.61-1.24.96-.46.46-.9.96-1.33,1.52-1.41,1.87-2.58,4.02-3.53,6.44,0,0,0,0,0,.01-.36.92-.7,1.87-.99,2.87-1.07,3.71-1.76,7.28-2.05,10.73-.31,3.45-.28,6.54.07,9.28.16,1.32.75,2.62,1.72,3.89,0,0,0,0,0,0,.06.08.11.16.17.24,1.09,1.36,2.39,1.93,3.9,1.7h-.01c2.61-.41,4.8-1.7,6.59-3.88.07-.08.14-.16.21-.24.77-.98,1.45-2.06,2.08-3.22.87-1.59,1.62-3.33,2.23-5.26.27-.87.52-1.74.74-2.62,0,0,0-.01,0-.01.63-2.49,1.06-5.03,1.28-7.63.03-.39.05-.75.07-1.13-.17.02-.34.04-.51.06.16-2.88.12-5.5-.17-7.81ZM295.55,86.75c-.27,3.26-.91,6.47-1.88,9.55-.17.55-.37,1.07-.57,1.6,0,0,0,.01,0,.02-.86,2.26-1.94,4.24-3.22,5.89-1.39,1.77-3.07,2.79-5.12,3.1-.1.02-.19.02-.27.02-.31,0-.7-.08-1.21-.73-.01-.02-.02-.03-.04-.05,0,0,0,0,0,0-.7-.87-1.1-1.71-1.2-2.5-.32-2.48-.34-5.37-.05-8.56.28-3.22.94-6.61,1.93-10.08.55-1.87,1.24-3.56,2.04-5.11,0,0,0,0,0-.02.6-1.15,1.25-2.24,1.98-3.21,1.52-2.01,3.26-3.14,5.36-3.46.11-.02.22-.02.31-.02v-.02c.25,0,.29.06.32.08.44.51.75,1.13.96,1.89.14.5.26.99.36,1.46,0,0,0,0,0,.01.11.51.19,1.01.25,1.47.32,2.5.34,5.41.07,8.69Z" fill="#fc8800"/>
    <path d="M194.64,129.65c-1.06-.84-2.51-1.11-4.37-.82-1.51.23-2.61.94-3.33,2.12-.72,1.17-.98,2.48-.81,3.9.1.79.35,1.54.75,2.25.4.73.95,1.28,1.64,1.71.69.41,1.52.55,2.48.4h-.01c1.99-.3,3.44-1.1,4.36-2.39.92-1.28,1.28-2.64,1.1-4.06-.15-1.24-.76-2.28-1.81-3.11Z" fill="#fc8800"/>
    <path d="M259.69,119.34c-1.06-.84-2.51-1.11-4.37-.82-1.51.23-2.61.94-3.33,2.12-.72,1.17-.98,2.48-.81,3.9.1.79.35,1.54.75,2.25.4.73.95,1.28,1.64,1.71.69.41,1.52.55,2.48.4h-.01c1.99-.3,3.44-1.1,4.36-2.39.92-1.28,1.28-2.64,1.1-4.06-.15-1.24-.76-2.28-1.81-3.11Z" fill="#fc8800"/>
    <path d="M320.81,112.95c-.04-.34-.13-.66-.24-.97-.29-.82-.82-1.54-1.58-2.14-1.06-.84-2.51-1.11-4.37-.82-1.06.16-1.9.58-2.57,1.21-.28.27-.54.56-.76.91-.72,1.17-.98,2.48-.81,3.9.1.79.35,1.54.75,2.25.4.73.95,1.28,1.64,1.71.69.41,1.52.55,2.48.4h-.01c1.99-.3,3.44-1.1,4.36-2.39.92-1.28,1.28-2.64,1.1-4.06Z" fill="#fc8800"/>
    <path d="M248.68,128.02c-.6-1.35-1.18-2.72-1.77-4.08-.75-1.72-1.51-3.44-2.24-5.16-1.31-3.06-2.61-6.1-3.91-9.11-1.27-2.94-2.51-6-3.68-9.08-1.03-2.71-2.03-5.51-2.98-8.31.66-1.6,1.45-3.48,2.38-5.6,1.15-2.6,2.38-5.33,3.68-8.1.14-.29.27-.56.4-.85,0,0,0-.01,0-.02,1.15-2.44,2.22-4.73,3.23-6.84.8-1.72,1.63-3.44,2.46-5.15.26-.54.53-1.09.79-1.63l6.57-13.36-6.4,2.18c-2.86.98-5.79,1.87-8.7,2.65-1.32.36-2.66.71-4,1.06-1.62.42-3.24.83-4.86,1.23l-1.35.34-.56,1.42c-.15.39-.31.79-.47,1.19,0,0,0,0,0,0-1.24,3.15-2.58,6.45-3.99,9.87.07-1.5.12-2.99.19-4.47.08-1.6.13-2.64.17-3.11l.37-3.85-3.46.53c-.9.15-1.78.27-2.62.36-.87.1-1.76.18-2.61.25l-2.42.17-2.54.18-7.37.67.14,2.93c.35,7.03.4,14.57.19,22.42-.23,8.14-.48,16.26-.73,24.08-.22,4.4-.47,9.02-.74,13.77-.09,1.57-.19,3.13-.29,4.7-.15,2.4-.3,4.77-.45,7.14-.05.78-.1,1.58-.15,2.35v-.06s-.29,4.35-.29,4.35l19.93-6.5.1-2.14c.08-1.77.16-3.49.26-5.16.1-1.71.16-3.4.21-5.04.07-1.34.15-2.74.24-4.19.02-.31.03-.64.05-.97.03.16.08.31.12.47.6,2.37,1.2,4.68,1.79,6.94.57,2.19,1.12,4.37,1.64,6.48l.64,2.66,2.45-.47c1.71-.33,3.38-.64,4.99-.92,1.58-.28,3.26-.56,5-.82,1.36-.21,2.76-.41,4.19-.59s2.83-.35,4.2-.5l3.91-.41-.24-.53-1.49-3.38ZM242,129.86c-1.45.19-2.86.39-4.25.61-1.75.27-3.43.55-5.04.84s-3.3.59-5.03.93c-.51-2.1-1.06-4.28-1.65-6.53-.59-2.25-1.19-4.57-1.79-6.92-.6-2.29-1.19-4.57-1.78-6.82-.59-2.25-1.17-4.42-1.74-6.52l-1.36,2.35c-.17,2-.32,4.54-.43,7.62-.05,1.5-.13,2.99-.22,4.47s-.17,2.91-.24,4.28c-.04,1.64-.11,3.29-.2,4.98-.1,1.68-.19,3.42-.26,5.2l-14.31,4.66v.02c.31-4.81.6-9.56.87-14.22.27-4.66.52-9.27.75-13.8.15-4.74.3-9.44.44-14.11-.18.02-.35.04-.53.06.1-3.21.2-6.42.28-9.61v.02c.24-7.97.17-15.53-.17-22.69l.54-.05c0-.16-.01-.32-.02-.47l4.73-.42c.85-.06,1.68-.12,2.51-.18.82-.06,1.63-.11,2.41-.17.91-.07,1.82-.16,2.73-.27s1.81-.23,2.72-.38c-.05.56-.11,1.65-.19,3.29-.07,1.65-.14,3.31-.21,4.98-.07,1.68-.12,2.82-.16,3.44l-.38,10.16.17-.06c1.33-3.18,2.85-6.82,4.57-10.95,1.38-3.3,2.68-6.48,3.9-9.56,0,0,0,0,0,0,.37-.92.73-1.84,1.08-2.74.12-.03.24-.06.35-.09.06-.14.11-.29.17-.43,1.78-.43,3.55-.89,5.33-1.36,1.19-.31,2.38-.63,3.58-.95,2.97-.8,5.92-1.7,8.86-2.7-1.12,2.29-2.25,4.57-3.37,6.86-1.09,2.21-2.14,4.41-3.16,6.6-.04.08-.08.16-.11.24-1.11,2.35-2.33,4.92-3.64,7.7-.44.93-.85,1.84-1.27,2.75,0,0,0,.01,0,.02-.84,1.83-1.66,3.63-2.43,5.41-1.17,2.66-2.13,4.94-2.87,6.82,1.08,3.23,2.22,6.43,3.42,9.58,1.19,3.15,2.43,6.23,3.73,9.22,1.3,3,2.6,6.03,3.9,9.1,1.31,3.06,2.64,6.15,4.02,9.28-1.4.15-2.82.31-4.26.51Z" fill="#fc8800"/>
  </g>
  <path d="M153.28,102.52c-.41.13-.88.24-1.43.33-.55.08-1.17.18-1.9.29l-4.24.65c-.69.11-1.4.22-2.1.33,3.18-.36,6.41-.74,9.68-1.11,0-.16-.01-.33-.02-.48Z" fill="#f2f2f2"/>
  <path d="M111.16,105.39l-.49-.11s0,0,0,.01l.49.11s0,0,0-.01Z" fill="#f2f2f2"/>
  <path d="M112.64,80.08c-.16-.1-.31-.2-.47-.3h0c.16.11.31.21.47.31h0Z" fill="#f2f2f2"/>
  <path d="M111.32,102.07l-.46-.68c-.07,1.27-.13,2.57-.19,3.88l.49.11c.05-1.12.1-2.23.16-3.32Z" fill="#f2f2f2"/>
  <path d="M112.75,78.31l-.5.15-.08,1.32c.16.1.31.2.47.3l.11-1.77Z" fill="#f2f2f2"/>
  <path d="M111.16,105.4l-.49-.11c-.04.85-.08,1.7-.11,2.56.16-.02.34-.04.5-.06,0,0,0-.02,0-.03.03-.8.07-1.58.11-2.36Z" fill="#f2f2f2"/>
  <path d="M111.38,100.87c.12-2.23.26-4.86.44-7.87l.82-12.9c-.16-.1-.31-.2-.47-.3l-.88,13.72c-.17,3.01-.32,5.64-.44,7.86l.46.68c.02-.39.04-.8.06-1.19Z" fill="#f2f2f2"/>
  <polygon points="111.32 102.06 110.86 101.38 110.86 101.39 110.86 101.39 111.32 102.07 111.32 102.06" fill="#f2f2f2"/>
  <path d="M111.16,105.4l2.9.67h0s-2.89-.68-2.89-.68c0,0,0,0,0,.01Z" fill="#f2f2f2"/>
  <path d="M116.81,77.11l5.86,3.57c.13-1.79.26-3.6.4-5.43l-6.26,1.86Z" fill="#f2f2f2"/>
  <path d="M112.64,80.08h0c3.25,2.08,6.52,4.18,9.65,6.2,0,0,0,0,0-.01-3.12-2.01-6.4-4.11-9.65-6.18Z" fill="#f2f2f2"/>
  <path d="M122.29,86.27c.12-1.84.25-3.7.39-5.58l-5.86-3.57-4.06,1.2-.11,1.77c3.25,2.07,6.52,4.17,9.65,6.18Z" fill="#f2f2f2"/>
  <path d="M111.16,105.39l2.89.67-2.73-3.98c-.06,1.09-.11,2.2-.16,3.32Z" fill="#f2f2f2"/>
  <path d="M121.12,106.67c.04-.71.08-1.43.12-2.14.22-4.59.48-9.33.79-14.21.08-1.34.17-2.68.26-4.04-3.12-2.01-6.4-4.11-9.65-6.18l-.82,12.9c-.17,3.02-.32,5.64-.44,7.87-.02.39-.04.79-.06,1.19l2.73,4h0s0,.01,0,.01l-2.9-.67c-.04.78-.07,1.57-.11,2.36,0,0,0,.02,0,.03,3.21-.36,6.57-.73,10.06-1.12h.01Z" fill="#f2f2f2"/>
  <polygon points="114.04 106.05 114.05 106.06 111.32 102.06 111.32 102.07 114.04 106.05" fill="#f2f2f2"/>
  <g>
    <path d="M309.51,71.54s0,0,0-.01c-.1-1.23-.22-2.47-.38-3.72-.11-.86-.24-1.71-.4-2.55-.46-2.47-1.13-4.85-2.02-7.13-1.18-3.05-2.88-5.44-5.09-7.17-2.22-1.73-5.12-2.33-8.73-1.76-3.6.55-6.93,2.21-9.99,4.92-.26.23-.52.47-.78.71-.56.53-1.1,1.09-1.64,1.7-3.7,4.18-6.8,9.31-9.28,15.42-.34.83-.66,1.68-.98,2.54-.53,1.46-1.02,2.96-1.48,4.5-.49,1.66-.95,3.34-1.35,5.08-.2.85-.37,1.7-.54,2.55,0,0,0,0,0,.01-.2,1.03-.39,2.07-.56,3.1.15-.02.29-.04.44-.05,4.52-.54,8.91-1.07,13.15-1.57h0c.26-1.19.56-2.37.91-3.59.33-1.13.73-2.2,1.15-3.23,0,0,0,0,0-.01.93-2.27,2.04-4.31,3.38-6.08.58-.77,1.2-1.44,1.86-2.01.4-.35.81-.68,1.24-.96,1.21-.8,2.53-1.32,3.96-1.54.22-.03.42-.03.63-.03.96,0,1.75.31,2.34,1,.72.85,1.24,1.87,1.58,3.08.11.39.19.77.28,1.15,0,0,0,0,0,.01.18.78.33,1.54.43,2.26.29,2.31.34,4.93.17,7.81.17-.02.34-.04.51-.06,3.78-.45,7.36-.89,10.68-1.28,0,0,.01,0,.02,0,.14-.02.29-.03.42-.05.01-.11.02-.22.03-.33,0,0,0,0,0-.01.37-4.12.39-8.35.04-12.69Z" fill="#e6e6e6"/>
    <path d="M235.75,59.76c-1.88.49-3.75.99-5.63,1.45-.12.03-.24.06-.35.09-.35.9-.72,1.82-1.08,2.74,0,0,0,0,0,0-1.22,3.08-2.53,6.26-3.9,9.56-1.72,4.13-3.24,7.77-4.57,10.95-.05.13-.11.27-.17.4l-.52.18.38-10.16c.04-.62.1-1.77.16-3.44.07-1.67.13-3.34.21-4.98.07-1.65.13-2.74.19-3.29-.91.15-1.8.27-2.72.38-.91.11-1.81.19-2.73.27-.79.06-1.59.11-2.41.17-.82.06-1.66.12-2.51.18l-4.18.38-.54.05c.35,7.16.41,14.72.19,22.69v-.02c-.1,3.19-.2,6.4-.29,9.61.18-.02.35-.04.53-.06,8.49-1,16.98-2.01,25.31-2.99-.14-.4-.28-.8-.41-1.21.74-1.89,1.7-4.15,2.87-6.82.82-1.88,1.69-3.8,2.58-5.74,0,0,0-.01,0-.02.37-.81.74-1.61,1.12-2.42,1.31-2.79,2.51-5.35,3.64-7.7.07-.15.14-.29.21-.44.99-2.13,2.01-4.26,3.06-6.39,1.12-2.28,2.25-4.57,3.37-6.86-2.94,1.01-5.9,1.9-8.86,2.7-.98.26-1.95.5-2.93.76Z" fill="#e6e6e6"/>
    <path d="M179.88,68.98c-6.24,1.14-14.52,2.55-19.19,3.34l-4.52,13.68-.24.72c.12,0,.3-.02.51-.03,0,0,0,0,0,0,0,0,0,0,0,0,.14,0,.3-.02.48-.03.17-.01.36-.02.56-.04.01,0,.02,0,.03,0,.07,0,.14,0,.21-.01.07,0,.15,0,.22-.01.23-.01.47-.03.72-.05.39-.03.78-.05,1.16-.08.19-.01.37-.02.54-.04.04,0,.08,0,.11,0,.08,0,.17-.01.25-.02.05,0,.11,0,.16-.01.06,0,.11,0,.17-.01.07,0,.14,0,.21-.01.05,0,.1,0,.15-.01.06,0,.12,0,.17-.01.03,0,.07,0,.1,0,.06,0,.12,0,.17-.01.02,0,.04,0,.06,0,.06,0,.12-.01.16-.01.73-.07,1.43-.1,2.11-.07,0,5.06-.05,10.25-.17,15.54.17-.02.34-.04.51-.06,4.54-.53,9.15-1.06,13.81-1.6.02-.73.04-1.45.07-2.19.12-3.69.32-8.08.6-13.15.17-.06.34-.12.51-.18.49-.18.97-.35,1.47-.53.68-.24,1.34-.45,2-.62.66-.17,1.3-.38,1.94-.61s1.29-.51,1.92-.81c0-.08.02-.17.02-.26.1-1.01.19-2.32.27-3.97l.17-3.74h0s.05-1.09.05-1.09l.32-5.56c-.98.29-4.01.88-7.79,1.57,0,0,0,0-.01,0Z" fill="#e6e6e6"/>
    <path d="M136.44,76.29l-9.04,1.47-.69.11-.12.02-.28,5-.14,2.44c0,1.14-.01,2.28-.03,3.41,0,0,0,0,0,.01-.01,1.15-.02,2.31-.04,3.45-.05,4.68-.13,9.29-.23,13.87v.08c.16-.02.33-.04.5-.06,4.51-.5,9.21-1.04,14.06-1.59l-.02-.02.2-6.6h0s.14-4.61.14-4.61h0s.21-6.81.21-6.81l.51-.08,9.43-1.46.12-.41,2.15-7.52,1.03-3.6-17.74,2.89h0Z" fill="#e6e6e6"/>
    <path d="M106.28,104.27s0,0,0-.01c-.39-1.38-.78-2.75-1.16-4.09-.6-2.08-1.12-3.91-1.56-5.48-.55-2.09-1.11-4.24-1.69-6.45,0,0,0-.01,0-.02-.05-.2-.1-.39-.16-.59-.64-2.42-1.33-4.86-2.07-7.33l-2.76.62h0s-1.52.34-1.52.34c-.78.19-1.56.38-2.37.57-.54.13-1.07.26-1.59.38-.26.06-.52.13-.78.19-.83.19-1.69.4-2.59.61-.73.17-1.49.34-2.25.51-.18.04-.34.08-.52.12.08,2.88.1,5.94.08,9.15-.01,1.71-.03,3.44-.07,5.24h0c0,.46-.02.92-.03,1.36,0,0,0,0,0,.01-.08,3.65-.19,7.36-.32,11.15.16-.02.33-.03.49-.05,5.81-.58,13.27-1.37,22-2.32-.15-.52-.31-1.07-.46-1.61-.22-.77-.43-1.54-.65-2.3Z" fill="#e6e6e6"/>
  </g>
  <path d="M229.41,238.4c.14-.25.26-.51.37-.78.11-.27.21-.55.31-.84-.21.54-.43,1.09-.68,1.62Z" fill="none"/>
  <g>
    <path d="M197.78,169.81c.35.05.68.08.98.08.44,0,.81-.06,1.11-.17,0,.02,0,.05,0,.07,0,0,0,0,.01,0,0-.02,0-.05,0-.07.38-.13.67-.35.83-.65.01-.04.02-.07.03-.11.29-.69-.01-1.71-.81-2.91-1.56-2.36-4.97-5.45-9.37-8.26-1.14-.73-2.25-1.37-3.32-1.95-3.48-1.87-6.54-2.92-8.49-2.97-.6-.13-1.47-.21-2.69-.21-.78,0-1.6.38-2.45,1.04-3.46,2.79-7.3,10.07-9.79,15.37-.98,2.11-1.76,3.92-2.22,5.04-.21.51-.36.87-.44,1.06v.96s.04.08.07.12c.17.33.37.65.58.97.51.8,1.11,1.57,1.75,2.28.72.81,1.46,1.55,2.13,2.17.02.02.04.04.07.06,1.01.92,1.82,1.55,2.04,1.72-.04-.23-.08-.46-.12-.68,0,0-.02-.01-.02-.02-1.66-9.42,4.53-19.24,8.4-23.81.6-.7,1.14-1.33,1.63-1.9.01.02.03.04.05.06.04-.05.09-.11.14-.16,1.64,2.33,4.92,5.27,9.09,7.97,4.23,2.74,8.19,4.48,10.82,4.9ZM177.87,156.86c-.71-.98-1.09-1.84-1.09-2.48,0-.21.02-.4.11-.56.07-.13.19-.24.33-.34.08-.08.18-.14.29-.2.31-.16.71-.24,1.22-.24.29,0,.62.04.97.08,1.34.21,3.08.79,5.01,1.66,1.83.82,3.83,1.9,5.86,3.22,5.57,3.61,9.76,7.91,10.11,10.15v.04c.04.31.01.59-.11.81-.13.24-.35.41-.64.52-.87.33-2.42.13-4.35-.51-2.44-.78-5.52-2.26-8.65-4.26h.02c-4.09-2.62-7.43-5.61-9.08-7.9Z" fill="#fff"/>
    <path d="M222.01,207.86c-.05-.16-.1-.31-.16-.48h.01c-1-2.63-3.14-4.71-5.44-6.27-1.73.05-4.49.19-8.53.9l1.32,1.32c-.15-.09-.3-.16-.45-.24l.36.36c-.9-.56-1.86-.92-2.79-1.15-1.55.31-3.27.7-5.16,1.18,0,0,0,0,0,0-1.73.45-3.61.98-5.65,1.61-.15.06-.32.1-.47.16-.28.1-.57.18-.86.28,0,0-.01,0-.02,0-2.42,1.72-4.37,3.66-5.92,5.52,0,0,0,0,0,0-1.23,1.47-2.22,2.89-2.97,4.12-.53.88-.96,1.66-1.28,2.29-.31.63-.52,1.1-.64,1.39-.01.03-.02.05-.03.08l1.99-1.36,4.58-3.14h0s4.85-3.32,4.85-3.32l.8-.55,2.71-1.85h.01s5.38-3.69,5.38-3.69l1.23-.85,5.72,4.76,1.49,1.24c1.98,2.21,7.85,3.32,9.76.99.52-.76.66-1.85.19-3.34Z" fill="#fff"/>
    <path d="M183.29,218.54c-.04.11-.07.2-.11.3-.03.08-.05.17-.07.25h.02c.03-.1.05-.19.08-.27.05-.14.09-.26.14-.4-.02.04-.04.08-.05.12Z" fill="#fff"/>
  </g>
  <g>
    <path d="M183.98,139.16c.75,1.34,1.77,2.41,3.07,3.2,1.3.79,2.85,1.04,4.65.76h.01c3.73-.59,6.45-2.08,8.18-4.49.51-.71.91-1.44,1.24-2.17.15-2.37.3-4.75.45-7.14-.54-1.6-1.54-2.99-3.02-4.16-1.98-1.56-4.72-2.08-8.2-1.54-2.84.45-4.92,1.77-6.27,3.99-1.34,2.22-1.86,4.66-1.52,7.33.19,1.48.65,2.88,1.41,4.23ZM186.95,130.95c.72-1.17,1.82-1.89,3.33-2.12,1.86-.29,3.31-.01,4.37.82,1.05.84,1.66,1.88,1.81,3.11.17,1.42-.19,2.77-1.1,4.06-.92,1.28-2.37,2.08-4.36,2.39h.01c-.96.15-1.79.01-2.48-.4-.69-.42-1.23-.98-1.64-1.71-.4-.71-.66-1.47-.75-2.25-.17-1.42.09-2.73.81-3.9Z" fill="#be0d00"/>
    <path d="M262.98,115.19c-1.98-1.56-4.72-2.08-8.2-1.54-2.84.45-4.92,1.77-6.27,3.99-1.17,1.93-1.71,4.03-1.6,6.3.59,1.36,1.17,2.73,1.77,4.08l1.49,3.38c.4.36.83.7,1.31.99,1.3.79,2.85,1.04,4.65.76h.01c3.73-.59,6.45-2.08,8.18-4.49,1.71-2.41,2.41-4.95,2.07-7.62-.29-2.34-1.43-4.29-3.41-5.85ZM260.4,126.51c-.92,1.28-2.37,2.08-4.36,2.39h.01c-.96.15-1.79.01-2.48-.4-.69-.42-1.23-.98-1.64-1.71-.4-.71-.66-1.47-.75-2.25-.17-1.42.09-2.73.81-3.9.72-1.17,1.82-1.89,3.33-2.12,1.86-.29,3.31-.01,4.37.82,1.05.84,1.66,1.88,1.81,3.11.17,1.42-.19,2.77-1.1,4.06Z" fill="#be0d00"/>
    <path d="M309.14,89.98c.38-2.02.65-4.08.84-6.16,0,0,0,0,0-.01.37-4.04.39-8.19.06-12.46,0,0,0,0,0-.01-.1-1.34-.23-2.68-.4-4.04-.09-.76-.21-1.5-.35-2.24-.46-2.59-1.15-5.07-2.07-7.44-1.18-3.04-2.88-5.44-5.09-7.17-2.22-1.73-5.12-2.31-8.73-1.76-3.77.58-7.26,2.37-10.45,5.33-.28.26-.56.53-.84.81.26-.25.52-.48.78-.71,3.06-2.71,6.39-4.36,9.99-4.92,3.61-.57,6.52.02,8.73,1.76,2.21,1.73,3.91,4.12,5.09,7.17.88,2.28,1.55,4.65,2.02,7.13.16.84.29,1.69.4,2.55.16,1.25.28,2.49.38,3.72,0,0,0,0,0,.01.35,4.35.33,8.58-.04,12.69,0,0,0,0,0,.01,0,.11-.02.22-.03.33-.14.02-.29.03-.42.05,0,0-.01,0-.02,0-3.32.39-6.9.83-10.68,1.28-.02.38-.04.74-.07,1.13-.22,2.59-.65,5.13-1.28,7.63,0,0,0,.01,0,.01-.22.88-.47,1.75-.74,2.62-.61,1.93-1.36,3.67-2.23,5.26-.63,1.15-1.31,2.24-2.08,3.22-.07.09-.14.16-.21.24-1.8,2.17-3.99,3.47-6.59,3.88h.01c-1.51.23-2.81-.34-3.9-1.7-.06-.08-.11-.16-.17-.24,0,0,0,0,0,0-.97-1.28-1.56-2.57-1.72-3.89-.35-2.74-.37-5.83-.07-9.28.29-3.45.98-7.03,2.05-10.73.29-1,.63-1.95.99-2.87,0,0,0,0,0-.01.95-2.42,2.13-4.58,3.53-6.44.42-.56.87-1.06,1.33-1.52-.66.58-1.28,1.24-1.86,2.01-1.33,1.77-2.45,3.81-3.38,6.08,0,0,0,0,0,.01-.42,1.03-.81,2.1-1.15,3.23-.35,1.21-.64,2.4-.91,3.57h0c-4.24.52-8.63,1.04-13.15,1.58-.35,2.27-.61,4.55-.78,6.84-.32,4.34-.23,8.41.25,12.21.86,6.87,2.78,11.81,5.73,14.83,2.95,3.02,6.41,4.22,10.38,3.6h-.01c3.55-.56,7.14-2.41,10.75-5.6,1.71-1.5,3.33-3.27,4.88-5.27,0,0,0,0,0-.01,1.72-2.23,3.33-4.76,4.85-7.61.06-.11.11-.23.17-.34,2.67-4.97,4.67-10.78,5.98-17.41.06-.32.13-.62.19-.94Z" fill="#be0d00"/>
    <path d="M325.4,111.91c-.29-2.34-1.43-4.29-3.41-5.85-1.98-1.56-4.72-2.08-8.2-1.54-2.84.45-4.92,1.77-6.27,3.99-.14.23-.27.46-.39.7-1.06,2.03-1.43,4.24-1.13,6.63.1.76.27,1.5.51,2.22,0,0,0,0,0,.01.23.68.53,1.34.89,1.99.75,1.34,1.77,2.41,3.07,3.2,1.3.79,2.85,1.04,4.65.76h.01c2.76-.44,4.97-1.37,6.63-2.8,0,0,0,0,.01,0,.58-.5,1.09-1.06,1.54-1.68,1.48-2.08,2.2-4.26,2.15-6.53,0-.36-.03-.72-.08-1.09ZM314.63,109.01c1.86-.29,3.31-.01,4.37.82.76.61,1.28,1.32,1.58,2.14.11.31.19.63.24.97.17,1.42-.19,2.77-1.1,4.06-.92,1.28-2.37,2.08-4.36,2.39h.01c-.96.15-1.79.01-2.48-.4-.69-.42-1.23-.98-1.64-1.71-.4-.71-.66-1.47-.75-2.25-.17-1.42.09-2.73.81-3.9.21-.35.47-.65.76-.91.67-.63,1.51-1.04,2.57-1.21Z" fill="#be0d00"/>
    <path d="M238.34,110.97c-1.3-2.99-2.54-6.07-3.73-9.22-1.2-3.15-2.34-6.35-3.42-9.58.74-1.88,1.7-4.15,2.87-6.82.78-1.77,1.59-3.58,2.43-5.41,0,0,0-.01,0-.02.42-.91.84-1.83,1.27-2.75,1.31-2.79,2.52-5.35,3.64-7.7.04-.08.08-.16.11-.24,1.02-2.19,2.08-4.39,3.16-6.6,1.12-2.29,2.25-4.57,3.37-6.86-2.95,1.01-5.9,1.9-8.86,2.7-1.19.32-2.38.63-3.58.95-1.78.46-3.55.92-5.33,1.36-.06.14-.11.29-.17.43,1.88-.47,3.75-.96,5.63-1.45.98-.26,1.95-.49,2.93-.76,2.97-.8,5.93-1.7,8.86-2.7-1.12,2.29-2.25,4.58-3.37,6.86-1.05,2.13-2.07,4.26-3.06,6.39-.07.15-.14.29-.21.44-1.12,2.35-2.33,4.92-3.64,7.7-.38.82-.75,1.62-1.12,2.42,0,0,0,.01,0,.02-.89,1.94-1.76,3.86-2.58,5.74-1.17,2.66-2.13,4.93-2.87,6.82.13.41.27.81.41,1.21-8.33.98-16.82,1.99-25.31,2.99-.14,4.68-.29,9.37-.44,14.11-.23,4.53-.48,9.13-.75,13.8-.27,4.66-.57,9.41-.88,14.22v-.02s14.32-4.66,14.32-4.66c.08-1.78.16-3.51.26-5.2.09-1.68.15-3.34.2-4.98.07-1.37.15-2.8.24-4.28s.16-2.97.22-4.47c.11-3.08.25-5.62.43-7.62l1.36-2.35c.57,2.1,1.15,4.26,1.74,6.52.59,2.25,1.18,4.53,1.78,6.82.6,2.35,1.2,4.66,1.79,6.92.59,2.25,1.14,4.43,1.65,6.53,1.74-.34,3.42-.64,5.03-.93s3.3-.57,5.04-.84c1.39-.22,2.79-.41,4.25-.61,1.44-.19,2.86-.36,4.26-.51-1.38-3.13-2.71-6.21-4.02-9.28-1.3-3.06-2.6-6.09-3.9-9.1Z" fill="#be0d00"/>
    <path d="M210.08,64.27c.85-.06,1.69-.12,2.51-.18.82-.06,1.63-.11,2.41-.17.92-.07,1.82-.16,2.73-.27.92-.11,1.81-.23,2.72-.38-.05.56-.12,1.65-.19,3.29-.08,1.64-.14,3.31-.21,4.98-.07,1.67-.12,2.82-.16,3.44l-.38,10.16.52-.18c.05-.13.11-.27.17-.4l-.17.06.38-10.16c.04-.62.1-1.76.16-3.44.07-1.67.14-3.33.21-4.98.08-1.65.13-2.74.19-3.29-.91.15-1.81.27-2.72.38s-1.82.19-2.73.27c-.79.06-1.59.11-2.41.17-.83.06-1.66.12-2.51.18l-4.73.42c0,.16.01.32.02.47l4.18-.38Z" fill="#be0d00"/>
    <path d="M185.94,191.57c-.8-.07-1.79-.18-2.93-.36,1.17.81,2.29,1.62,3.36,2.42-.21-.72-.35-1.41-.41-2.06h-.01Z" fill="#be0d00"/>
    <path d="M209.52,185.24c.43.07,4.93.7,6.75-4.64l.48-1.42c-.37-.34-.81-.65-1.31-.93.33.59.5,1.17.51,1.73,0,.19-.01.37-.05.56-.59,3.06-5.97,4.6-6.38,4.7Z" fill="#be0d00"/>
    <path d="M167.68,182.77s0,0,0,0c.02.02.05.03.07.05.24.19.49.37.74.55,0,0,0,0,0,0,.11.08.22.17.33.24.05.04.12.08.17.12.05.05.12.08.19.13,1.19.81,2.42,1.5,3.66,2.1.38.18.75.35,1.13.52.83.36,1.66.69,2.47.98.15.05.29.11.44.16,0,0,0,0,0,0,.39.13.77.25,1.15.37,3.26.98,6.18,1.4,8.04,1.57.03-.11.05-.22.09-.31,1.23-3.44,6.66-8.64,12.82-11.88.07-.17.11-.34.16-.51.13-.4.24-.77.33-1.1-.73.25-1.41.38-2.04.41-4.42.27-6.46-3.97-6.47-4.03l-1.92-4.15.02.02v-.02s3.28,2.91,3.28,2.91c1.03.91,4.18,3.2,5.98,2.75.12-.03.23-.08.34-.13.99-.52,1.2-2.29,1.22-3.72,0-.02,0-.05,0-.07-.31.11-.68.17-1.11.17-.3,0-.63-.03-.98-.08-2.63-.37-6.67-2.09-10.96-4.85-4.15-2.65-7.42-5.56-9.09-7.86-.01-.02-.03-.04-.05-.06-.49.57-1.03,1.2-1.63,1.9-3.86,4.58-10.05,14.39-8.4,23.81,0,0,.02.01.02.02Z" fill="#be0d00"/>
    <path d="M177.25,228.25l-1.57-.36s0,0,0,0h-.05c1.56-.68,3.19-1.56,4.87-1.91.16-.15.33-.31.48-.48.08-1.15.23-2.25.41-3.28-2.74.85-5.84.41-8.59.23,0,0,.01,0,.02,0-.02,0-.04,0-.06,0,3.01-1.38,6.11-3.44,9.45-3.59.05-.17.11-.33.16-.49.48-1.48.98-2.64,1.33-3.37-.25-.78-.64-1.45-1.18-1.85-.16-.09-.32-.17-.48-.23-.78-.29-1.59-.29-2.41-.12-1.77.37-3.57,1.57-5.08,2.5.04-.04.09-.08.13-.12-.06.04-.12.07-.17.11,1.34-1.24,2.96-2.65,4.71-3.31.88-.33,1.79-.48,2.72-.31.4.07.8.19,1.2.39.06.04.11.1.17.15.14.1.27.22.4.34.17.17.33.35.48.54,0,0,.01.02.02.02.1.13.21.26.3.4.49-.81,1.48-2.34,2.92-4.06,0,0,0,0,0,0,1.29-1.54,2.94-3.24,4.92-4.72-.45-.62-1.29-1.79-2.21-3.26-.79-1.26-1.64-2.73-2.38-4.24-2.07-1.72-4.48-3.5-7.3-5.37-.58-.39-1.18-.78-1.8-1.16h-.01c-.14-.09-.28-.17-.42-.26,0,0,0,0,0,0-.18-.11-.36-.23-.55-.34-.01,0-.02-.01-.04-.02-.05-.04-.1-.06-.15-.1-.72-.22-1.46-.47-2.2-.74-.03-.01-.05-.02-.08-.03-.79-.29-1.59-.62-2.39-.99-.4-.18-.81-.38-1.21-.58-1.38-.7-2.75-1.52-4.07-2.48,0,0,0,0,0,0-1.62-1.17-3.16-2.55-4.55-4.18-.56-.65-1.09-1.36-1.6-2.1-.19-.27-.36-.53-.53-.81-.05-.08-.11-.17-.16-.26,0,0,0,0,0,0-.12-.18-.24-.37-.35-.56-2.68,1.84-6.12,4.77-8.99,8.97-3.11,4.56-5.54,10.63-5.54,18.49,0,.34.02.64.02.97.01.18.01.38.01.56.01.18.01.38.01.56,0,.12.02.23.02.35v.1c.03.5.05.98.1,1.47.01.11.03.22.03.33.02.16.04.31.05.47.01.18.03.36.05.53.01.18.03.36.05.55v.06c.07.48.14.94.22,1.41.02.12.04.24.07.36.03.18.08.36.11.55.02.1.03.18.05.27.07.35.13.69.21,1.03.04.21.1.41.14.61.15.63.32,1.26.5,1.85.01.04.02.08.03.12.11.38.23.74.36,1.1.04.13.09.27.13.39.09.27.19.51.28.76.1.24.19.48.28.71.04.12.1.24.15.36,3.64,8.45,9.67,12.31,12.24,13.31.05.02.1.03.15.05.11.04.22.08.32.11.14.04.27.07.37.09.07.01.11.02.15.02h.02c.15,0,.4.05.72.12.08.02.16.04.25.06h.08s.04,0,.08.01c.07.01.13.04.2.05h.03c3.29.86,11.22,3.19,18.25-.56-.49-2.06-.69-4.04-.7-5.91-1.06.68-2.3,1.06-3.63.75Z" fill="#be0d00"/>
    <path d="M228.29,212.87s-.22-.61-.67-1.53c-1.13-2.33-3.78-6.88-8.68-10.6-.39.13-.96.16-1.88.19-.17,0-.36.01-.56.02,2.3,1.55,4.45,3.62,5.47,6.24.11.28.19.54.26.79.39,1.44.18,2.49-.41,3.2-1.91,2.33-7.78,1.21-9.76-.99l-1.49-1.24-5.72-4.76-1.23.85-5.42,3.75h-.01s-2.54,1.77-2.54,1.77l-.79.55-4.95,3.43h0s-4.45,3.09-4.45,3.09l-2.26,1.56s.04-.09.1-.24c.01-.03.02-.04.03-.08.12-.29.34-.76.64-1.39.32-.63.74-1.41,1.28-2.29.75-1.23,1.75-2.65,2.97-4.12,0,0,0,0,0,0,1.56-1.86,3.5-3.8,5.92-5.52-.04.01-.07.02-.1.03-.08.02-.15.05-.23.07-.09.04-.17.05-.26.05-.22,0-.4-.1-.55-.22-2.07,1.54-3.79,3.34-5.1,4.93,0,0,0,0,0,0-.34.41-.66.82-.94,1.19-1.07,1.42-1.73,2.53-1.93,2.89-.04.07-.07.12-.08.12-.02.04-.41.74-.93,1.95-.22.52-.45,1.16-.69,1.86-.05.14-.09.26-.14.4-.03.08-.05.18-.08.26-.05.16-.1.33-.15.5-.2.68-.38,1.39-.55,2.18-.15.73-.28,1.49-.38,2.3-.11.84-.17,1.72-.2,2.63-.05,1.95.11,4.06.61,6.25.14.64.32,1.28.52,1.94.48,1.49,1.11,3.02,1.97,4.54.46.83.96,1.57,1.47,2.24-.34-.92-.68-1.88-.98-2.91.04.13.09.27.16.41-.05-.15-.1-.29-.14-.44.94,3.47,13.64,8.12,19.02.15.76-1.14,1.38-2.53,1.79-4.22,0,0,0,.02,0,.03,0-.02.01-.04.02-.07.29,1.42-.04,2.86-.75,4.21-2.1,4.02-7.65,7.28-10.75,7.1-3.03-1.68-4.46-1.8-4.78-1.13l1.05.54-.06.02.04.02-.99.26c1.04,3.33,10.74,11.65,15.84,4.33,1.7-2.47,2.89-6.69,3.06-13.44,0,.07,0,.14.01.21,0-.08,0-.16,0-.25.24,4.32.89,9.5-1.97,14.35-.65,1.11-1.49,2.21-2.55,3.27.12.04.23.07.34.11,1.81.01,3.55-.24,5.21-.69.85-.59,1.57-1.4,2.18-2.34,2.91-4.54,3.27-12.02,3.39-11.85.08-.32.06,1.19.24,5.95-.29,3.15-.29,4.95-.09,5.73.44-.26.88-.54,1.3-.83,1.64-3.62,3.98-13.77,3.36-19.37.03.29.06.6.09.91-.02-.33-.04-.64-.07-.95.66,5.91.74,14.98.74,14.98,0,0,1.24-.87,2.49-2.89,1.6-2.61,3.18-7.1,2.1-14.07-.15-.96-.17-1.39-.1-1.43.22-.75,2.73,9.03,1.61,12.99.02-.03.03-.06.05-.09,2.56-3.89,3.42-8.47,3.47-12.77-.16-2.79-.5-5.5-.65-7.55-.72-4.11-1.78-6.99-1.81-7.07Z" fill="#be0d00"/>
    <path d="M207.81,201.93c-.45.08-.92.18-1.4.28h-.01c.79.18,1.59.47,2.36.88.15.08.3.16.45.24l-1.32-1.32-.08-.08Z" fill="#be0d00"/>
    <path d="M212.47,177.69s-.02-.01-.03-.02c-.14-.12-.29-.22-.44-.32-.16-.1-.32-.19-.49-.27-.86-.42-1.84-.59-2.86-.59-.75,0-1.51.1-2.24.23-.63.12-1.24.27-1.8.44-1.36.41-2.77.99-4.15,1.7-.91.46-1.81.97-2.69,1.5-4.65,2.87-8.64,6.71-9.77,9.35l-.03-.02c-.04.1-.1.21-.13.3-.16.45-.16,1.04-.07,1.7.17,1.21.73,2.7,1.44,4.23.88,1.88,2.01,3.79,2.97,5.29.02.04.04.07.07.1.62.96,1.18,1.76,1.55,2.24.1-.03.2-.06.3-.09l.23-.07c.37-.12.73-.24,1.09-.35.61-.19,1.19-.38,1.77-.55,1.72-.51,3.33-.96,4.83-1.33.18-.04.34-.08.52-.12,0,0,0,0,0,0,2.16-.53,4.08-.93,5.76-1.22,1.99-.35,3.66-.56,5.03-.68,1.17-.1,2.13-.16,2.9-.18.26-.01.51-.02.73-.02h.17c.31-.01.6-.02.83-.04h.1c.13-.46.24-.9.34-1.35,0,0,0,0,0-.01.92-4.04.71-7.68.05-10.57-.33-1.49-.8-2.78-1.27-3.83-2.78,5.12-7.97,4.13-8.03,4.12l-8.26-1.71h.04s-.07-.02-.07-.02l8.18-2.2c1.97-.53,4.85-2,5.08-3.19.08-.4-.32-1.27-1.66-2.42Z" fill="#be0d00"/>
  </g>
  <path d="M199.04,60.77h0s-5.67,12.74-5.67,12.74c0,0,0,0,0,.01l5.67-12.75Z" fill="none"/>
  <g>
    <polygon points="198.19 208.8 203.61 205.05 198.23 208.73 198.19 208.8"/>
    <path d="M185.29,217.59l-1.99,1.36c-.06.14-.1.24-.1.24l2.26-1.56,4.45-3.08-.04-.09-4.58,3.14Z"/>
    <path d="M283.22,106.13s0,0,0,0c.01.02.02.03.04.05.51.64.91.73,1.21.73.09,0,.17,0,.27-.02,2.05-.31,3.73-1.33,5.12-3.1,1.28-1.64,2.36-3.62,3.22-5.89,0,0,0-.01,0-.02.2-.52.4-1.04.57-1.6.97-3.08,1.6-6.29,1.88-9.55.27-3.27.25-6.19-.07-8.69-.06-.47-.14-.96-.25-1.47,0,0,0,0,0-.01-.1-.47-.22-.96-.36-1.46-.21-.76-.52-1.38-.96-1.89-.02-.02-.07-.08-.32-.08v.02c-.09,0-.2,0-.31.02-2.1.33-3.84,1.45-5.36,3.46-.73.97-1.38,2.05-1.98,3.21,0,0,0,0,0,.02-.8,1.55-1.49,3.25-2.04,5.11-.99,3.46-1.65,6.86-1.93,10.08-.28,3.2-.26,6.08.05,8.56.1.78.5,1.62,1.2,2.5Z"/>
    <path d="M190.45,158.02c-2.03-1.31-4.04-2.37-5.87-3.19-1.94-.86-3.68-1.43-5.02-1.62-.35-.05-.69-.08-.97-.08-.51,0-.91.08-1.21.25-.05.03-.1.07-.15.1-.14.09-.26.2-.33.34-.09.16-.11.35-.11.56,0,.64.38,1.5,1.09,2.48,1.65,2.29,4.99,5.28,9.08,7.9h-.02c3.13,2,6.21,3.48,8.65,4.26,1.91.61,3.43.79,4.28.46.29-.11.51-.29.64-.52.12-.23.15-.5.1-.81v-.04c-.36-2.24-4.57-6.52-10.15-10.09Z"/>
    <polygon points="154.19 73.4 153.16 77 154.31 72.95 154.19 73.4"/>
  </g>
  <g>
    <path d="M227.29,60.8c-1.24,3.15-2.58,6.45-3.99,9.87.07-1.5.12-2.99.19-4.47.08-1.6.13-2.64.17-3.11l.37-3.85-3.46.53c-.9.15-1.78.27-2.62.36-.87.1-1.76.18-2.61.25l-2.42.17-2.54.18-7.37.67.14,2.93c.35,7.03.4,14.57.19,22.42-.23,8.14-.48,16.26-.73,24.08-.22,4.4-.47,9.02-.74,13.77-.09,1.57-.19,3.13-.29,4.7-.54-1.6-1.54-2.99-3.02-4.16-1.98-1.56-4.72-2.08-8.2-1.54-2.84.45-4.92,1.77-6.27,3.99-1.34,2.22-1.86,4.66-1.52,7.33.19,1.48.65,2.88,1.41,4.23s1.77,2.41,3.07,3.2c1.3.79,2.85,1.04,4.65.76h.01c3.73-.59,6.45-2.08,8.18-4.49.51-.71.91-1.44,1.24-2.17-.05.78-.1,1.58-.15,2.35v-.06s-.29,4.35-.29,4.35l19.93-6.5.1-2.14c.08-1.77.16-3.49.26-5.16.1-1.71.16-3.4.21-5.04.07-1.34.15-2.74.24-4.19.02-.31.03-.64.05-.97.03.16.08.31.12.47.6,2.37,1.2,4.68,1.79,6.94.57,2.19,1.12,4.37,1.64,6.48l.64,2.66,2.45-.47c1.71-.33,3.38-.64,4.99-.92,1.58-.28,3.26-.56,5-.82,1.36-.21,2.76-.41,4.19-.59s2.83-.35,4.2-.5l3.91-.41-.24-.53c.4.36.83.7,1.31.99,1.3.79,2.85,1.04,4.65.76h.01c3.73-.59,6.45-2.08,8.18-4.49,1.71-2.41,2.41-4.95,2.07-7.62-.29-2.34-1.43-4.29-3.41-5.85-1.98-1.56-4.72-2.08-8.2-1.54-2.84.45-4.92,1.77-6.27,3.99-1.17,1.93-1.71,4.03-1.6,6.3-.75-1.72-1.51-3.44-2.24-5.16-1.31-3.06-2.61-6.1-3.91-9.11-1.27-2.94-2.51-6-3.68-9.08-1.03-2.71-2.03-5.51-2.98-8.31.66-1.6,1.45-3.48,2.38-5.6,1.15-2.6,2.38-5.33,3.68-8.1.14-.29.27-.56.4-.85,0,0,0-.01,0-.02,1.15-2.44,2.22-4.73,3.23-6.84.8-1.72,1.63-3.44,2.46-5.15.26-.54.53-1.09.79-1.63l6.57-13.36-6.4,2.18c-2.86.98-5.79,1.87-8.7,2.65-1.32.36-2.66.71-4,1.06-1.62.42-3.24.83-4.86,1.23l-1.35.34-.56,1.42c-.15.39-.31.79-.47,1.19,0,0,0,0,0,0Z" fill="none"/>
    <path d="M149.05,87.86l1.05-.16,2.22-.62,5.12-17.98-2.09.24-19.76,3.54h0s-8.8,1.58-8.8,1.58l-.19,3.43-.28,5-.14,2.44-3.98,70.04,2.77-1.21c1.4-.61,3.03-1.3,5-2.08,1.91-.76,3.69-1.45,5.27-2.02l.13-.05c.97-.41,1.91-.79,2.81-1.11.96-.35,1.94-.7,2.94-1.07l1.86-.67.43-29.69c1.79-.22,3.52-.42,5.15-.61,2.41-.27,4.29-.51,5.58-.71l2.28-.35.2-8.16c0-.94,0-1.88.01-2.8,0-.99-.02-2.01-.08-3.02l-.23-3.74-3.25,1.05c-.27.08-.63.17-1.05.23l-8.23,1.27.37-12.02,4.92-.76Z" fill="none"/>
    <path d="M265.29,82.8c-.36,1.56-.66,3.14-.93,4.71,0,0,0,0,0,.01-.51,2.91-.88,5.84-1.09,8.74-.33,4.53-.24,8.87.26,12.88.95,7.56,3.17,13.15,6.58,16.64,2.96,3.03,6.41,4.55,10.25,4.55l.02-.02c.76,0,1.55-.06,2.35-.18,4.02-.62,8.08-2.71,12.06-6.21,2.2-1.94,4.28-4.29,6.23-7,0,0,0,0,0-.01,1.46-2.03,2.84-4.25,4.13-6.68.23-.43.45-.87.68-1.31,2.69-5.27,4.72-11.43,6.01-18.34.14-.72.25-1.46.36-2.19.35-2.3.59-4.65.72-7.03,0,0,0,0,0-.01.19-3.58.13-7.24-.18-10.96,0,0,0,0,0-.01-.1-1.17-.21-2.34-.36-3.51-.12-.92-.26-1.82-.42-2.72-.5-2.68-1.23-5.26-2.18-7.73-1.38-3.55-3.4-6.38-6.02-8.44-2.13-1.67-4.75-2.52-7.78-2.52-.92,0-1.89.07-2.89.23-2.14.33-4.2,1.01-6.17,2.01-2.79,1.41-5.41,3.47-7.82,6.19-3.92,4.42-7.23,9.91-9.83,16.29-1.62,3.92-2.95,8.16-3.97,12.62Z" fill="none"/>
    <path d="M159,68.5l-5.12,19.75,7.12-.25s.61,23.14-.01,34.93c-.15,3.55-.35,7.24-.58,11-.23,3.72-.45,7.52-.66,11.31l-.23,4.32,21.59-7.23-.03-2.28c-.09-6.99-.04-13.99.13-20.81.11-4.07.17-7.83.22-11.16.03-3.39.11-6.93.23-10.53.1-3.13.26-6.83.48-11.03.07-.02.13-.05.21-.07.6-.22,1.2-.4,1.78-.55.73-.19,1.46-.41,2.18-.68.71-.25,1.43-.56,2.14-.9l1.44-.69.19-1.73c.12-1.11.23-2.57.32-4.45l.06-1.27h0s.16-3.52.16-3.52l.55-9.75-15.95,2.86h-.01s-11.36,2.04-11.36,2.04l-4.84.68Z" fill="none"/>
    <path d="M307.52,108.5c-.14.23-.27.46-.39.7-1.06,2.03-1.43,4.24-1.13,6.63.1.76.27,1.5.51,2.22,0,0,0,0,0,.01.23.68.53,1.34.89,1.99.75,1.34,1.77,2.41,3.07,3.2,1.3.79,2.85,1.04,4.65.76h.01c2.76-.44,4.97-1.37,6.63-2.8,0,0,0,0,.01,0,.58-.5,1.09-1.06,1.54-1.68,1.48-2.08,2.2-4.26,2.15-6.53,0-.36-.03-.72-.08-1.09-.29-2.34-1.43-4.29-3.41-5.85-1.98-1.56-4.72-2.08-8.2-1.54-2.84.45-4.92,1.77-6.27,3.99Z" fill="none"/>
    <path d="M186.09,118.37h0s7.88-2.57,10.41,0l2.53-57.61h0s0-.01,0-.01h0s-5.67,12.76-5.67,12.76h0s0,0,0,0h0s-.75,12.54-.75,12.54l-6.43,3.96-.09,28.37Z" fill="none"/>
    <path d="M251.55,69.89c-.75,1.55-1.5,3.11-2.24,4.69-1.14,2.39-2.34,4.94-3.64,7.72-1.28,2.74-2.49,5.41-3.6,7.96-.48,1.08-.92,2.1-1.32,3.05.67,1.89,1.35,3.77,2.05,5.62,1.14,3,2.34,5.96,3.56,8.79.46,1.07.92,2.12,1.38,3.19,1.66-1.26,3.83-2.31,6.66-2.75,1.16-.18,2.27-.27,3.33-.27h.24c-.28-3.62-.28-7.43,0-11.35.17-2.34.43-4.69.78-7.04,0,0,0,0,0-.01l-6.99,2.47,9.92-15.67s0-.01,0-.02c.82-2.74,1.73-5.39,2.77-7.92,2.87-7.05,6.56-13.15,10.95-18.11.63-.71,1.27-1.38,1.92-2.02.02-.02.05-.04.07-.06-8.93,6.41-17.18,14.67-25.84,21.71,0,0,0,.02-.01.03Z" fill="none"/>
    <path d="M325.24,127.37l19.15-1.47h-.04s.04-.01.04-.01l-15.19-3.14s0,0,0,.01c-.3.51-.62,1.01-.97,1.5-.85,1.19-1.85,2.21-2.96,3.11,0,0-.01,0-.02.01Z" fill="none"/>
    <path d="M319.13,76.17s0,0,0,.01l16.77-13.99h-.03s.03-.01.03-.01l-17.29,6.12s0,0,0,.01c.29,2.64.47,5.27.52,7.86Z" fill="none"/>
    <path d="M32.4,148.64c-.04.22,0,.6.07,1.27l42.92,6.35h0s.62-12.32.62-12.32c.09-1.92.19-3.83.28-5.74,0,0,0,0,0,0-14.3,3.12-28.69,6.04-42.59,10.03-.85.24-1.24-.07-1.32.41Z" fill="none"/>
    <path d="M303.41,124.87c-1.4,1.65-2.85,3.15-4.35,4.5,0,0,0,0-.01.01l7.95-.61s-.01,0-.02-.01c-1.41-1.07-2.61-2.36-3.57-3.89Z" fill="none"/>
    <path d="M31.65,87.06h-.03s45.63,27.62,45.63,27.62c0,0,0,0,0-.01,0-.25.02-.49.03-.74.2-5.39.36-10.72.47-15.84,0-.13,0-.26,0-.39,0,0,0,0,0-.01l-46.13-10.64.03.02Z" fill="none"/>
    <path d="M180.88,227.5c-1.06.68-2.3,1.06-3.63.75l-1.57-.36s0,0,0,0c1.56-.67,3.19-1.55,4.87-1.9.16-.16.33-.31.48-.48.08-1.17.22-2.28.41-3.31-.02,0-.03,0-.05.01-2.74.85-5.84.41-8.59.23,0,0,.01,0,.02,0,3-1.38,6.1-3.43,9.44-3.58.05-.16.1-.29.15-.45,0-.02-.02-.04-.03-.06.48-1.48.98-2.64,1.33-3.37-.25-.78-.64-1.45-1.18-1.85-.16-.09-.32-.17-.48-.23-.78-.29-1.59-.29-2.41-.12-1.77.37-3.57,1.57-5.08,2.5.04-.04.09-.08.13-.12,1.3-1.21,2.86-2.54,4.54-3.19,0,0,0-.01,0-.02.88-.33,1.79-.48,2.72-.31.4.07.8.19,1.2.39.06.04.11.1.17.15.14.1.27.22.4.34.17.17.33.35.48.54,0,0,.01.02.02.02.1.13.21.26.3.4.49-.81,1.48-2.34,2.92-4.06l.02.04s0,0,0,0c1.29-1.55,2.95-3.26,4.95-4.75-.46-.62-1.29-1.79-2.21-3.26-.8-1.26-1.65-2.73-2.38-4.24-2.07-1.72-4.48-3.5-7.3-5.37-.58-.39-1.18-.78-1.8-1.16h-.01c-.15-.09-.31-.19-.47-.29,0,0,0,0,0,0v.02c-.17-.11-.35-.23-.54-.34-.01,0-.02-.01-.04-.02-.05-.04-.1-.06-.15-.1-.72-.22-1.46-.47-2.2-.74-.03-.01-.05-.02-.08-.03-.79-.29-1.59-.62-2.39-.99-.4-.18-.81-.38-1.21-.58-1.38-.7-2.75-1.52-4.07-2.48h0s0-.02,0-.02c-1.6-1.17-3.13-2.53-4.52-4.15-.57-.65-1.1-1.36-1.6-2.1-.19-.27-.36-.53-.53-.81-.07-.1-.13-.21-.2-.31,0,0,0,0,0,0v.04c-.12-.18-.24-.37-.35-.56-2.68,1.84-6.12,4.77-8.99,8.97-3.11,4.56-5.54,10.63-5.54,18.49,0,.34.02.64.02.97.01.18.01.38.01.56.01.18.01.38.01.56,0,.12.02.23.02.35v.1c.03.5.05.98.1,1.47.01.11.03.22.03.33.02.16.04.31.05.47.01.18.03.36.05.53.01.18.03.36.05.55v.06c.07.48.14.94.22,1.41.02.12.04.24.07.36.03.18.08.36.11.55.02.1.03.18.05.27.07.35.13.69.21,1.03.04.21.1.41.14.61.15.63.32,1.26.5,1.85.01.04.02.08.03.12.11.38.23.74.36,1.1.04.13.09.27.13.39.09.27.19.51.28.76.1.24.19.48.28.71.04.12.1.24.15.36,3.64,8.45,9.67,12.31,12.24,13.31.05.02.1.03.15.05.11.04.22.08.32.11.16.05.3.08.41.1.05.02.11.02.15.02h.02c.15,0,.4.05.72.12.08.01.16.04.25.06h.08s.05.01.08.01c.05.01.13.04.2.05h.07c3.29.87,11.22,3.2,18.25-.55-.49-2.08-.7-4.09-.7-5.98-.02.02-.05.03-.07.05Z" fill="none"/>
    <path d="M185.94,191.57c-.8-.07-1.79-.18-2.93-.36,0,0,0,0-.01,0,1.19.82,2.3,1.62,3.37,2.43,0,0,0,0,0,0-.21-.72-.35-1.41-.41-2.06h-.01Z" fill="none"/>
    <path d="M214.13,180.11c.08-.4-.32-1.27-1.66-2.42,0,0,0,0,0,0,0,0-.02-.01-.03-.02-.14-.12-.29-.22-.44-.32-.17-.11-.35-.2-.52-.29-.86-.42-1.84-.59-2.86-.59-.74,0-1.51.1-2.24.23l-.03-.02c-.63.11-1.24.27-1.8.44-1.36.42-2.76,1.01-4.15,1.7-.91.45-1.81.96-2.69,1.5-4.65,2.87-8.64,6.71-9.77,9.35-.04.1-.1.21-.13.3-.16.45-.16,1.04-.07,1.7.17,1.21.72,2.7,1.44,4.23.88,1.88,2,3.79,2.97,5.29.02.02.04.06.07.1.64.99,1.2,1.79,1.57,2.27,0,0,0,0,.01,0,.1-.03.2-.06.3-.09l.23-.07c.37-.12.73-.24,1.09-.35.61-.19,1.19-.38,1.77-.55,1.72-.51,3.33-.96,4.83-1.33.18-.04.34-.08.52-.12,0,0,0,0,0,0,2.16-.53,4.08-.93,5.76-1.22,1.99-.35,3.66-.56,5.03-.68,1.17-.1,2.13-.16,2.9-.18.26-.01.51-.02.73-.02h.17c.31-.01.6-.02.83-.04h.1c.13-.46.24-.9.34-1.35,0,0,0,0,0-.01.92-4.04.71-7.68.05-10.57-.33-1.49-.8-2.78-1.27-3.83,0-.01-.01-.03-.02-.05-2.77,5.15-7.99,4.14-8.05,4.14l-8.19-1.69h-.07s8.18-2.22,8.18-2.22c1.97-.53,4.85-2,5.08-3.19Z" fill="none"/>
    <path d="M90.05,158.42l8.6-3.67.12-1.93c.16-2.63.28-5.27.36-7.87.08-2.51.17-4.99.29-7.34.05-.86.11-1.73.15-2.62.23,1.02.44,1.94.61,2.77l4.02,18.56,17.79-8.32,3.97-77.08-.13.04-12.87,3.81-2.77.82-.18,2.83h0s-.92,14.4-.92,14.4c-.12,2.03-.22,3.87-.31,5.55,0,0,0,0,0,.01-.04.7-.07,1.39-.11,2.03-.15-.55-.32-1.09-.47-1.64-.22-.74-.42-1.44-.61-2.12,0,0,0-.01,0-.02-.34-1.2-.65-2.3-.92-3.25-.6-2.29-1.21-4.65-1.86-7.07s-1.35-4.92-2.1-7.43l-.76-2.54-6.7,1.51c-.14.03-.29.07-.44.11,0,0,0,0,0,0-.63.15-1.26.31-1.92.46l-2.36.57c-.41.1-.85.2-1.28.3-.43.1-.85.2-1.3.31-.88.21-1.81.41-2.75.63l-2.25.51.08,2.54c.08,2.83.11,5.88.08,9.07-.01,1.68-.03,3.39-.07,5.15-.01.46-.02.94-.03,1.4,0,0,0,0,0,.01-.11,4.75-.26,9.62-.43,14.53-.05,1.47-.1,2.91-.16,4.37,0,0,0,0,0,.01-.1,2.85-.2,5.67-.3,8.47-.01.42-.03.84-.04,1.26-.02.69-.05,1.39-.07,2.07-.12,2.45-.24,4.93-.36,7.41,0,0,0,0,0,0-.11,2.16-.22,4.33-.33,6.51l-.68,13.48h0s-.28,5.53-.28,5.53l9.67-4.13h.02Z" fill="none"/>
    <path d="M190.57,157.79c-1.14-.73-2.25-1.37-3.32-1.95-3.48-1.87-6.54-2.92-8.49-2.97-.6-.13-1.47-.21-2.69-.21-.78,0-1.6.38-2.45,1.04-3.45,2.68-7.29,9.99-9.79,15.37-.98,2.11-1.76,3.92-2.22,5.04-.21.51-.36.87-.44,1.06-.04.09-.07.16-.07.16v1.02s.05.08.08.12c.17.33.37.65.58.97.52.8,1.12,1.56,1.76,2.27.73.82,1.47,1.55,2.14,2.16.02.02.04.04.07.06,1.2,1.08,2.12,1.76,2.12,1.76-.02-.08-.03-.15-.05-.23-.04-.23-.08-.46-.12-.68,0,0,0,0,0,0,.02.02.05.03.07.05.24.19.49.37.74.55,0,0,0,0,0,0,.11.08.22.17.33.24.05.04.12.08.17.12.05.05.12.08.19.13,1.19.81,2.42,1.5,3.66,2.1.38.18.75.35,1.13.52.83.36,1.66.69,2.47.98.15.05.29.11.44.16,0,0,0,0,0,0,.39.13.77.25,1.15.37,3.26.98,6.18,1.4,8.04,1.57,0,0,0,0,.01,0,.02-.11.05-.22.09-.31,1.24-3.44,6.67-8.64,12.82-11.88.05-.18.11-.34.16-.51.12-.39.24-.78.33-1.1,0,0,0,0-.01,0-.73.25-1.41.38-2.04.41-4.41.26-6.43-3.97-6.46-4.03l-1.91-4.14v-.02s3.28,2.91,3.28,2.91c1.03.91,4.18,3.2,5.98,2.75.12-.03.24-.07.35-.13.99-.52,1.21-2.29,1.22-3.72,0-.02,0-.05,0-.07.38-.13.67-.35.83-.65.01-.04.02-.07.03-.11.29-.69-.01-1.71-.81-2.91-1.56-2.36-4.97-5.45-9.37-8.26Z" fill="none"/>
    <path d="M229.41,238.4c.14-.25.26-.51.37-.78.11-.27.21-.55.31-.84,0,0,0,0,0,0-.21.54-.43,1.09-.68,1.62Z" fill="none"/>
    <polygon points="125.11 31.6 133.11 63.13 133.11 63.13 133.45 63.03 133.37 64.15 133.37 64.16 134.22 67.52 134.22 67.52 168.68 61.33 168.7 61.33 125.11 31.58 125.12 31.6 125.11 31.6" fill="none"/>
    <path d="M227.62,211.34c-1.13-2.33-3.78-6.88-8.68-10.6-.39.13-.96.16-1.88.19-.17,0-.36.01-.56.02,2.3,1.55,4.45,3.62,5.47,6.24.11.28.19.54.26.79l-.22-.13c-.05-.16-.1-.31-.16-.48h.01c-1-2.63-3.14-4.71-5.44-6.27-1.73.05-4.49.19-8.53.9l-.08-.08c-.45.08-.92.18-1.4.28h-.01c.79.18,1.59.47,2.36.88l.36.36c-.9-.56-1.86-.92-2.79-1.15-1.55.31-3.27.7-5.16,1.18l.03-.06s0,0,0,0c-1.73.46-3.61,1-5.65,1.66-.01,0-.02,0-.03.01-.15.06-.32.1-.47.16-.28.1-.57.18-.86.28,0,0-.01,0-.02,0-.04.01-.07.02-.1.03-.08.02-.15.05-.23.07-.09.04-.17.05-.26.05-.22,0-.4-.1-.55-.22-2.07,1.54-3.79,3.34-5.1,4.93,0,0,0,0,0,0-.34.41-.66.82-.94,1.19-1.07,1.42-1.73,2.53-1.93,2.89-.04.07-.07.12-.08.12-.02.04-.41.74-.93,1.95-.22.52-.45,1.16-.69,1.86-.02.04-.04.08-.05.12-.04.11-.07.2-.11.3-.03.08-.05.17-.07.25h.02c-.05.15-.1.32-.15.49,0,0,0-.01,0-.02-.2.69-.39,1.42-.56,2.22-.15.73-.28,1.5-.38,2.3-.11.84-.17,1.72-.2,2.63-.05,1.96.11,4.06.61,6.25.14.64.32,1.28.52,1.94.48,1.49,1.11,3.02,1.97,4.54h0c.48.88,1,1.66,1.54,2.35-.02-.04-.03-.09-.05-.13-.34-.92-.68-1.88-.98-2.91.04.13.09.27.16.41,1.74,3.41,13.72,7.42,18.88-.29.76-1.14,1.38-2.53,1.79-4.22,0,0,0,.02,0,.03.28,1.4-.04,2.81-.73,4.14-2.1,4.02-7.65,7.28-10.75,7.1-3.03-1.68-4.46-1.8-4.78-1.13,0,.01-.02.02-.02.03l1.01.52.04.02-.99.26h-.03c1,3.32,10.76,11.74,15.87,4.33,1.7-2.47,2.89-6.69,3.06-13.44,0,.07,0,.14.01.21.25,4.26.83,9.34-1.96,14.11-.65,1.11-1.49,2.21-2.55,3.27-.01.01-.02.02-.03.03.12.05.23.07.35.11,1.82.01,3.56-.23,5.21-.69.86-.6,1.59-1.42,2.2-2.38,2.91-4.54,3.27-12.02,3.39-11.85.05.08.05,1.73.22,5.99-.31,3.15-.29,4.94-.09,5.73.44-.27.88-.55,1.31-.84,0,0,0-.02.01-.03,1.64-3.62,3.98-13.77,3.36-19.37.03.29.06.6.09.91.57,5.89.65,14.07.65,14.07,0,0,1.26-.88,2.51-2.92,1.6-2.61,3.18-7.1,2.1-14.07-.15-.96-.17-1.39-.1-1.43.32-.2,2.68,9.17,1.58,13.02.03-.04.05-.08.08-.13,2.56-3.89,3.42-8.47,3.47-12.77-.16-2.79-.5-5.5-.65-7.55-.72-4.11-1.78-6.99-1.81-7.07,0-.03-.22-.61-.67-1.53Z" fill="none"/>
    <path d="M308.28,183.81l-37.29-49.16s-.01,0-.02,0c-.62-.38-1.23-.77-1.82-1.22-2.66,3.69-6.64,5.97-11.82,6.77-.73.11-1.45.17-2.15.17-1.86,0-3.59-.39-5.17-1.17l-2.51.27c-1.33.15-2.7.3-4.08.48-1.38.18-2.73.38-4.06.58-1.66.27-3.31.53-4.89.81-1.58.28-3.22.58-4.91.91l-7.4,1.43-27.34,8.92.19-2.82c-.67.17-1.36.31-2.09.42-.73.11-1.45.17-2.15.17-2.19,0-4.22-.56-6.03-1.65-.02-.02-.07-.05-.07-.05l-30.91,10.34.71-13.4c.2-3.78.41-7.61.66-11.37.23-3.72.43-7.38.58-10.87.01-.08.01-.16.01-.23l-.39.06c-1.38.22-3.33.46-5.8.74h-.1l-.41,28.61-5.74,2.06c-.98.35-1.95.7-2.9,1.05-.81.29-1.67.63-2.54,1.01l-.41.17c-1.54.56-3.26,1.22-5.11,1.96-1.92.78-3.5,1.44-4.85,2.02l-13.55,5.91.95-7.22-14.27,6.1-.79-3.63-3.38,1.44h-.02s-30.78,34.46-30.78,34.46h.02s-.02.01-.02.01l56.52-30.62-.85,31.43h0s0,.01,0,.01l41.22-33.09-1.16,7.77s0,0,0,0c2.3-6.07,7.75-18.97,13.04-20.65,4.78-1.51,15.57,2.11,21.78,7.3,3.6,3.02,5.51,6.36,5.51,9.65,0,1.16-.11,2.17-.35,3l.61-.34-.27,1.9c-.01.12-.13.87-.43,2.01.95-.41,1.91-.78,2.87-1.07,2.85-.85,6.8-1.39,9.48.91.85.73,1.46,1.44,1.86,2.14.33.59.5,1.16.51,1.72,0,.19-.01.37-.05.56-.59,3.06-5.97,4.6-6.38,4.7,0,0-.02,0-.03,0,.29.05,4.92.8,6.78-4.64l.48-1.42.11-.34.98,1.53c1.86,2.9,4.28,9.83,2.22,18.12,0,0,0,0,0,.01l35.93,21.73v-.02s0,0,0,0l-22.08-65.35,74.37,28.94v-.02s0,0,0,0Z" fill="none"/>
    <path d="M91.5,73.12h0s3.03-.73,3.03-.73l4.21-.95h.01c-7.09-4.29-12.32-7.11-12.75-6.34h0s0,.01,0,.01l5.48,8.01Z" fill="none"/>
    <polygon points="201.15 56.01 201.16 56.01 201.15 56.01 201.15 56.01" fill="none"/>
    <polygon points="224.26 53.64 224.26 53.64 224.26 53.64 224.26 53.64" fill="none"/>
    <path d="M285.86,136.79c.22-.05.44-.13.66-.19l105.48-9.85-60.41-12.5c.01-.81-.01-1.62-.12-2.44h0c-.33-2.56-1.24-4.91-2.71-6.94-.57-1.36-1.5-2.54-2.79-3.57-1.05-.82-2.31-1.36-3.78-1.59-1.66-.62-3.47-.94-5.46-.94h-.26c.51-1.97.97-4.01,1.36-6.1.58-3.12.97-6.32,1.16-9.57l49.2-38.28-50.57,17.37c-.56-2.57-1.28-5.08-2.21-7.49-.74-1.91-1.65-3.67-2.69-5.27-1.3-2.53-2.97-4.62-5.01-6.21-1.46-1.15-3.17-1.9-5.07-2.27-1.94-.69-4.05-1.05-6.3-1.05-1.18,0-2.42.1-3.68.29-.43.07-.86.17-1.28.26l9.65-15.5-43.21,32.14,7.98-16.21-19.81,6.75c-2.75.93-5.57,1.79-8.37,2.56-1.68.46-3.37.9-5.07,1.33l-18.22-47.25v-.02c-1.4-1.41-3.17,3.65-3.54,4.41-7.86,15.98-14.54,32.67-21.68,49.01l-7.13,1.28L113.22,15.84l11.4,49.81-17.92,5.31-.16-.1-.33-1.12-1.09.25-39.94-24.34,20.62,28.8c-.43.1-.85.2-1.3.3l-6.99,1.57.22,7.9c.06,2.22.09,4.58.09,7.03L5.27,76.26l71.68,46.66c-.07,2.08-.15,4.14-.22,6.19l-65.51,19.15,63.64,18.66-.3,5.84,6.31-2.7-36.08,45.19,70.13-34.73-.84,33.93,34.73-27.67c-2.78,4.63-4.83,10.55-4.83,17.93,0,22.57,14.97,31.01,18,31.01.17.01.91.21,1.38.34,1.9.5,5.43,1.43,9.39,1.43,3.5,0,6.64-.74,9.41-2.14.49,1.53,1.15,3.08,2.01,4.64.81,1.47,1.71,2.7,2.67,3.68.23.23.47.46.7.67.15.34.32.67.48.99-.09.24-.12.59.01,1.09.4,1.53,2.02,3.8,4.97,5.63,11.03,9.84,27.98-.33,37.71-12.85.12-.52.24-1.04.36-1.56.43-1.83.92-3.57,1.45-5.26-.23-4.45-.37-10.33-1.43-12.02l.02-.02c-.73-4.47-1.9-7.67-1.97-7.84-.01-.03-.05-.14-.11-.29l42.27,26.24-26.76-71.18,98.17,38.9-56.85-69.38ZM335.9,62.18l-.03.02h.03s-16.77,13.98-16.77,13.98c0,0,0,0,0-.01-.06-2.59-.24-5.21-.52-7.86,0,0,0,0,0-.01l17.29-6.12ZM76.3,138.21c-.09,1.91-.19,3.81-.28,5.74l-.62,12.31h0s-42.92-6.34-42.92-6.34c-.08-.68-.11-1.06-.07-1.27.08-.48.47-.17,1.32-.41,13.9-3.99,28.28-6.91,42.59-10.03,0,0,0,0,0,0ZM77.75,97.69c0,.13,0,.26,0,.39-.11,5.12-.27,10.45-.47,15.84,0,.25-.02.49-.03.74,0,0,0,0,0,.01l-45.63-27.63h.03s-.03-.01-.03-.01l46.13,10.64s0,0,0,.01ZM299.04,129.38s0,0,.01-.01c1.5-1.36,2.96-2.85,4.35-4.5.96,1.53,2.16,2.83,3.57,3.89,0,0,.01,0,.02.01l-7.95.61ZM328.22,124.25c.35-.49.67-.99.97-1.5,0,0,0,0,0-.01l15.19,3.14h-.04s.04.01.04.01l-19.15,1.47s.01,0,.02-.01c1.12-.89,2.12-1.92,2.96-3.11ZM321.99,106.06c1.98,1.56,3.11,3.51,3.41,5.85.05.36.07.73.08,1.09.05,2.27-.67,4.45-2.15,6.53-.44.62-.96,1.18-1.54,1.68,0,0,0,0-.01,0-1.66,1.43-3.87,2.36-6.63,2.79h-.01c-1.8.29-3.35.04-4.65-.75-1.3-.79-2.31-1.85-3.07-3.2-.36-.65-.66-1.31-.89-1.99,0,0,0,0,0-.01-.25-.72-.42-1.46-.51-2.22-.3-2.39.07-4.6,1.13-6.63.12-.23.25-.47.39-.7,1.34-2.22,3.43-3.54,6.27-3.99,3.48-.55,6.22-.02,8.2,1.54ZM286.9,47.69c1.97-1,4.03-1.68,6.17-2.01,1-.16,1.98-.23,2.89-.23,3.03,0,5.65.85,7.78,2.52,2.62,2.06,4.64,4.89,6.02,8.44.96,2.47,1.69,5.06,2.18,7.73.17.9.31,1.81.42,2.72.15,1.18.26,2.35.36,3.51,0,0,0,0,0,.01.31,3.72.37,7.38.18,10.96,0,0,0,0,0,.01-.13,2.38-.37,4.73-.72,7.03-.11.73-.23,1.47-.36,2.19-1.29,6.91-3.32,13.07-6.01,18.34-.22.44-.44.88-.68,1.31-1.29,2.43-2.67,4.65-4.13,6.68,0,0,0,0,0,.01-1.95,2.71-4.03,5.06-6.23,7-3.98,3.5-8.05,5.6-12.06,6.21-.8.12-1.58.18-2.35.18l-.02.02c-3.84,0-7.29-1.53-10.25-4.55-3.42-3.49-5.63-9.08-6.58-16.64-.5-4.01-.59-8.35-.26-12.88.21-2.91.59-5.83,1.09-8.74,0,0,0,0,0-.01.27-1.58.58-3.15.93-4.71,1.03-4.46,2.36-8.7,3.97-12.62,2.6-6.38,5.91-11.87,9.83-16.29,2.41-2.72,5.03-4.78,7.82-6.19ZM277.41,48.16s-.05.04-.07.06c-.65.64-1.29,1.31-1.92,2.02-4.39,4.95-8.08,11.06-10.95,18.11-1.04,2.53-1.95,5.18-2.77,7.92,0,0,0,.01,0,.02l-9.92,15.67,6.99-2.47s0,0,0,.01c-.35,2.35-.61,4.7-.78,7.04-.28,3.92-.28,7.73,0,11.35h-.24c-1.06,0-2.17.08-3.33.27-2.83.44-5,1.49-6.66,2.75-.46-1.07-.92-2.12-1.38-3.19-1.22-2.83-2.42-5.79-3.56-8.79-.7-1.85-1.39-3.73-2.05-5.62.4-.96.84-1.97,1.32-3.05,1.11-2.54,2.33-5.22,3.6-7.96,1.3-2.77,2.5-5.33,3.64-7.72.74-1.58,1.49-3.15,2.24-4.69,0,0,0-.02.01-.03,8.67-7.04,16.91-15.3,25.84-21.71ZM228.32,58.18l1.35-.34c1.61-.4,3.24-.81,4.86-1.23,1.34-.35,2.67-.7,4-1.06,2.91-.79,5.84-1.67,8.7-2.65l6.4-2.18-6.57,13.36c-.27.54-.53,1.09-.79,1.63-.83,1.71-1.66,3.43-2.46,5.15-1.01,2.11-2.08,4.4-3.23,6.84,0,0,0,.01,0,.02-.13.28-.26.56-.4.85-1.3,2.77-2.53,5.5-3.68,8.1-.93,2.12-1.72,4-2.38,5.6.95,2.8,1.95,5.6,2.98,8.31,1.17,3.09,2.41,6.14,3.68,9.08,1.3,3,2.6,6.04,3.91,9.11.73,1.72,1.49,3.44,2.24,5.16-.1-2.27.44-4.37,1.6-6.3,1.34-2.22,3.43-3.54,6.27-3.99,3.48-.55,6.22-.02,8.2,1.54,1.98,1.56,3.11,3.51,3.41,5.85.34,2.66-.36,5.21-2.07,7.62-1.72,2.41-4.44,3.9-8.18,4.48h-.01c-1.8.29-3.35.04-4.65-.75-.48-.29-.9-.63-1.31-.99l.24.53-3.91.41c-1.38.15-2.77.31-4.2.5s-2.83.39-4.19.59c-1.74.27-3.42.55-5,.82-1.6.28-3.28.59-4.99.92l-2.45.47-.64-2.66c-.51-2.11-1.07-4.29-1.64-6.48-.59-2.27-1.19-4.57-1.79-6.94-.04-.16-.09-.31-.12-.47-.02.33-.03.65-.05.97-.09,1.45-.17,2.85-.24,4.19-.04,1.64-.11,3.33-.21,5.04-.1,1.67-.19,3.39-.26,5.16l-.1,2.14-19.93,6.5.28-4.35v.06c.06-.78.11-1.57.16-2.35-.33.74-.74,1.46-1.24,2.17-1.72,2.41-4.44,3.9-8.18,4.48h-.01c-1.8.29-3.35.04-4.65-.75-1.3-.79-2.31-1.85-3.07-3.2s-1.22-2.75-1.41-4.23c-.34-2.66.17-5.11,1.52-7.33,1.34-2.22,3.43-3.54,6.27-3.99,3.48-.55,6.22-.02,8.2,1.54,1.48,1.17,2.48,2.55,3.02,4.16.1-1.57.19-3.14.29-4.7.27-4.75.52-9.38.74-13.77.25-7.83.5-15.94.73-24.08.22-7.85.16-15.4-.19-22.42l-.14-2.93,7.37-.67,2.54-.18,2.42-.17c.85-.07,1.74-.16,2.61-.25.84-.1,1.72-.22,2.62-.36l3.46-.53-.37,3.85c-.04.47-.1,1.51-.17,3.11-.07,1.48-.12,2.97-.19,4.47,1.41-3.42,2.75-6.72,3.99-9.87,0,0,0,0,0,0,.16-.4.32-.8.47-1.19l.56-1.42ZM193.36,73.52h0s0-.02,0-.02v-11.31s20.06-49.21,20.06-49.21l14.09,37.74-3.26,2.91h0s0,0,0,0l-4.04.62c-.83.13-1.65.24-2.43.33-.81.1-1.64.18-2.38.23l-2.43.17-2.54.18-9.27.84h0s0,0,0,0h-2.15s.04,4.75.04,4.75h0s0,.01,0,.01l-2.53,57.61c-2.53-2.57-10.41,0-10.41,0h0s.09-28.37.09-28.37l6.43-3.96.75-12.52ZM175.21,65.78l15.95-2.86-.55,9.75-.16,3.51h0s-.06,1.29-.06,1.29c-.09,1.88-.2,3.33-.32,4.45l-.19,1.73-1.44.69c-.71.34-1.43.64-2.14.9-.72.27-1.45.48-2.18.68-.58.15-1.18.33-1.78.55-.08.02-.14.05-.21.07-.22,4.2-.38,7.91-.48,11.03-.12,3.6-.2,7.13-.23,10.53-.04,3.33-.11,7.09-.22,11.16-.17,6.82-.22,13.82-.13,20.81l.03,2.28-21.59,7.23.23-4.32c.21-3.79.43-7.59.66-11.31.23-3.76.43-7.45.58-11,.62-11.79.01-34.93.01-34.93l-7.12.25,5.12-19.75,4.84-.68,11.36-2.04h.01ZM151.99,99.37c.41-.06.78-.15,1.05-.23l3.25-1.05.23,3.74c.05,1.01.08,2.02.08,3.02-.01.92-.01,1.85-.01,2.8l-.2,8.16-2.28.35c-1.29.21-3.17.45-5.58.71-1.64.18-3.36.39-5.15.61l-.43,29.69-1.86.67c-.99.36-1.98.71-2.94,1.07-.9.33-1.83.7-2.81,1.11l-.13.05c-1.58.57-3.36,1.26-5.27,2.02-1.97.79-3.6,1.48-5,2.08l-2.77,1.21,3.98-70.04.14-2.44.28-5,.19-3.43,8.8-1.58h0s19.76-3.54,19.76-3.54l2.09-.24-5.12,17.98-2.22.62-1.05.16-4.92.76-.37,12.02,8.23-1.27ZM168.7,61.33h-.01s-34.46,6.18-34.46,6.18h0s-.85-3.35-.85-3.35h0s.09-1.13.09-1.13l-.34.1h0s-7.99-31.54-7.99-31.54h0s0-.01,0-.01l43.58,29.75ZM86.02,65.09c.43-.77,5.66,2.05,12.75,6.34h-.01s-4.21.96-4.21.96l-3.03.73h0s-5.48-8.01-5.48-8.01c0,0,0,0,0,0h0ZM80.35,162.56l.28-5.52h0s.68-13.5.68-13.5c.11-2.18.22-4.35.33-6.51,0,0,0,0,0,0,.12-2.48.24-4.96.36-7.41.02-.68.05-1.38.07-2.07.01-.42.03-.84.04-1.26.1-2.8.2-5.62.3-8.47,0,0,0,0,0-.01.05-1.46.1-2.9.16-4.37.18-4.9.32-9.78.43-14.53,0,0,0,0,0-.01.01-.47.02-.94.03-1.4.04-1.76.06-3.47.07-5.15.02-3.19,0-6.24-.08-9.07l-.08-2.54,2.25-.51c.94-.22,1.87-.42,2.75-.63.45-.1.87-.2,1.3-.31.43-.1.87-.2,1.28-.3l2.36-.57c.66-.16,1.29-.31,1.92-.46,0,0,0,0,0,0,.14-.03.29-.07.44-.11l6.7-1.51.76,2.54c.74,2.51,1.45,5,2.1,7.43s1.26,4.78,1.86,7.07c.27.95.58,2.05.92,3.25,0,0,0,.01,0,.02.19.68.39,1.38.61,2.12.15.55.32,1.09.47,1.64.03-.64.07-1.32.11-2.03,0,0,0,0,0-.01.09-1.68.19-3.52.31-5.55l.92-14.39h0s.18-2.84.18-2.84l2.77-.82,12.87-3.81.13-.04-3.97,77.08-17.79,8.32-4.02-18.56c-.17-.84-.38-1.76-.61-2.77-.04.88-.1,1.76-.15,2.62-.12,2.35-.22,4.83-.29,7.34-.08,2.6-.2,5.24-.36,7.87l-.12,1.93-8.6,3.67h-.02s-9.67,4.14-9.67,4.14ZM163.4,233.99h-.03s-.02-.01-.03-.01c-.07-.01-.14-.04-.2-.05-.02,0-.04,0-.08-.01h-.08c-.09-.02-.17-.05-.25-.06-.32-.07-.57-.12-.72-.12h-.02s-.1,0-.15-.02c-.11-.02-.25-.05-.41-.1-.1-.03-.21-.07-.32-.11-.05-.02-.09-.03-.15-.05-2.57-1-8.61-4.86-12.24-13.31-.05-.12-.11-.24-.15-.36-.1-.23-.19-.47-.28-.71-.1-.25-.2-.5-.28-.76-.04-.12-.09-.25-.13-.39-.13-.36-.25-.73-.36-1.1-.01-.04-.02-.08-.03-.12-.19-.59-.35-1.22-.5-1.85-.04-.19-.1-.4-.14-.61-.08-.34-.14-.68-.21-1.03-.02-.08-.03-.17-.05-.27-.03-.18-.08-.36-.11-.55-.02-.12-.04-.24-.07-.36-.08-.46-.15-.92-.22-1.41v-.06c-.02-.18-.04-.36-.05-.55-.02-.17-.04-.35-.05-.53-.01-.16-.03-.31-.05-.47,0-.11-.02-.22-.03-.33-.04-.48-.07-.97-.1-1.47v-.1c0-.12-.02-.23-.02-.35,0-.18,0-.38-.01-.56,0-.18,0-.38-.01-.56,0-.33-.02-.63-.02-.97,0-7.87,2.43-13.93,5.54-18.49,2.86-4.2,6.31-7.13,8.99-8.97.11.19.23.37.35.56v-.04s0,0,0,0c.07.1.13.2.2.31.17.28.35.55.53.81.5.74,1.04,1.44,1.6,2.1,1.38,1.62,2.91,2.99,4.52,4.15,0,0,0,0,0,0h0c1.32.97,2.69,1.8,4.07,2.49.4.21.81.4,1.21.58.8.37,1.6.69,2.39.99.03.01.05.02.08.03.75.27,1.48.52,2.2.74.05.04.1.06.15.1.02.01.03.02.04.02.18.12.36.23.55.34v-.02s0,0,0,0c.16.1.32.2.47.29h.01c.62.39,1.22.78,1.8,1.16,2.83,1.87,5.23,3.65,7.3,5.37.73,1.51,1.58,2.98,2.38,4.24.92,1.47,1.75,2.64,2.21,3.26-1.99,1.49-3.65,3.2-4.95,4.75,0,0,0,0,0,0l-.02-.04c-1.44,1.72-2.43,3.24-2.92,4.06-.09-.14-.2-.27-.3-.4,0,0-.01-.02-.02-.02-.15-.19-.31-.37-.48-.54-.13-.12-.26-.24-.4-.34-.06-.05-.11-.11-.17-.15-.4-.19-.8-.32-1.2-.39-.93-.17-1.84-.02-2.72.31,0,0,0,.01,0,.02-1.68.65-3.24,1.98-4.54,3.19-.04.04-.09.08-.13.12,1.51-.93,3.3-2.13,5.08-2.5.82-.17,1.63-.17,2.41.12.16.06.32.14.48.23.53.4.93,1.08,1.18,1.85-.35.73-.85,1.89-1.33,3.37,0,.02.02.04.03.06-.05.15-.1.29-.15.45-3.33.15-6.44,2.2-9.44,3.58,0,0-.01,0-.02,0,2.75.18,5.85.62,8.59-.23.02,0,.03,0,.05-.01-.2,1.03-.34,2.13-.41,3.31-.15.17-.32.33-.48.48-1.68.35-3.31,1.23-4.87,1.9,0,0,0,0,0,0l1.57.36c1.32.31,2.56-.07,3.63-.75.02-.02.05-.03.07-.05,0,1.89.21,3.9.7,5.98-7.03,3.74-14.97,1.42-18.25.56ZM200.95,185.52l8.19,1.69c.05,0,5.27,1.01,8.05-4.14,0,.01.01.03.02.05.47,1.05.93,2.34,1.27,3.83.66,2.89.86,6.53-.05,10.57,0,0,0,0,0,.01-.1.45-.21.9-.34,1.35h-.1c-.23.01-.52.02-.83.04h-.17c-.22,0-.47.01-.73.02-.78.02-1.74.08-2.9.18-1.38.12-3.05.33-5.03.68-1.69.29-3.61.69-5.76,1.22,0,0,0,0,0,0-.17.04-.34.08-.52.12-1.5.38-3.1.82-4.83,1.33-.58.17-1.16.35-1.77.55-.36.11-.72.23-1.09.35l-.23.07c-.11.03-.2.06-.3.09,0,0,0,0-.01,0-.37-.47-.93-1.27-1.57-2.27-.02-.04-.04-.07-.07-.1-.97-1.5-2.09-3.42-2.97-5.29-.72-1.53-1.27-3.02-1.44-4.23-.1-.65-.1-1.25.07-1.7.03-.1.09-.21.13-.3,1.14-2.64,5.12-6.48,9.77-9.35.87-.55,1.78-1.05,2.69-1.5,1.39-.69,2.78-1.27,4.15-1.7.56-.17,1.17-.33,1.8-.44l.03.02c.73-.13,1.5-.23,2.24-.23,1.02,0,2,.17,2.86.59.18.09.35.18.52.29.15.1.3.2.44.32,0,0,.02.01.03.02,0,0,0,0,0,0,1.34,1.15,1.73,2.02,1.66,2.42-.23,1.19-3.11,2.65-5.08,3.19l-8.18,2.2h.07ZM200.75,168.96s-.02.07-.03.11c-.16.3-.45.52-.83.65,0,.02,0,.05,0,.07,0,1.43-.23,3.2-1.22,3.72-.11.06-.23.1-.35.13-1.8.45-4.95-1.84-5.98-2.75l-3.29-2.91v.02s1.92,4.14,1.92,4.14c.03.05,2.05,4.29,6.46,4.03.63-.04,1.31-.17,2.04-.41,0,0,0,0,.01,0-.09.33-.21.71-.33,1.1-.05.17-.11.33-.16.51-6.15,3.25-11.57,8.44-12.82,11.88-.03.1-.07.21-.09.31,0,0,0,0-.01,0-1.86-.17-4.78-.59-8.04-1.57-.38-.11-.76-.24-1.15-.37,0,0,0,0,0,0-.15-.05-.29-.1-.44-.16-.81-.29-1.64-.61-2.47-.98-.38-.17-.75-.34-1.13-.52-1.23-.59-2.47-1.28-3.66-2.1-.07-.05-.13-.08-.19-.13-.05-.04-.12-.08-.17-.12-.11-.08-.22-.16-.33-.24,0,0,0,0,0,0-.25-.18-.5-.36-.74-.55-.02-.02-.05-.03-.07-.05,0,0,0,0,0,0,.04.22.07.46.12.68.01.08.03.16.05.23,0,0-.92-.68-2.12-1.76-.02-.02-.04-.04-.07-.06-.67-.61-1.41-1.33-2.14-2.16-.63-.7-1.23-1.47-1.76-2.27-.21-.31-.4-.64-.58-.97-.02-.04-.05-.08-.08-.12v-1.02s.03-.07.07-.16c.08-.19.22-.55.44-1.06.47-1.12,1.24-2.93,2.22-5.04,2.5-5.38,6.34-12.69,9.79-15.37.85-.66,1.68-1.04,2.45-1.04,1.21,0,2.09.07,2.69.21,1.95.05,5.01,1.1,8.49,2.97,1.07.58,2.18,1.22,3.32,1.95,4.4,2.81,7.81,5.9,9.37,8.26.8,1.2,1.1,2.22.81,2.91ZM186.37,193.65c-1.07-.81-2.18-1.61-3.37-2.43,0,0,0,0,.01,0,1.14.18,2.13.29,2.93.36h.01c.07.65.21,1.34.41,2.06,0,0,0,0,0,0ZM229.78,237.62c-.11.27-.23.53-.37.78.25-.53.47-1.08.68-1.62,0,0,0,0,0,0-.09.29-.19.57-.31.84ZM230.1,219.94c.15,2.05.49,4.76.65,7.55-.05,4.3-.92,8.89-3.47,12.77-.03.04-.05.08-.08.13,1.1-3.85-1.26-13.22-1.58-13.02-.07.04-.05.47.1,1.43,1.08,6.97-.5,11.47-2.1,14.07-1.25,2.04-2.51,2.92-2.51,2.92,0,0-.08-8.19-.65-14.07-.03-.31-.06-.62-.09-.91.62,5.61-1.72,15.75-3.36,19.37,0,0,0,.02-.01.03-.43.29-.87.57-1.31.84-.21-.79-.22-2.58.09-5.73-.17-4.26-.17-5.91-.22-5.99-.12-.17-.48,7.3-3.39,11.85-.61.96-1.34,1.78-2.2,2.38-1.65.46-3.38.7-5.21.69-.12-.04-.23-.06-.35-.11.01-.01.02-.02.03-.03,1.07-1.06,1.9-2.16,2.55-3.27,2.79-4.77,2.21-9.84,1.96-14.11,0-.07,0-.14-.01-.21-.17,6.75-1.36,10.98-3.06,13.44-5.11,7.41-14.87-1.01-15.87-4.32h.03s.99-.27.99-.27l-.04-.02-1.01-.52s.02-.02.02-.03c.32-.67,1.75-.55,4.78,1.13,3.1.18,8.65-3.08,10.75-7.1.69-1.33,1.01-2.74.73-4.14,0,0,0-.02,0-.03-.41,1.69-1.02,3.08-1.79,4.22-5.16,7.71-17.14,3.71-18.88.29-.07-.14-.13-.27-.16-.41.3,1.03.64,1.99.98,2.91.02.04.03.09.05.13-.53-.69-1.06-1.47-1.54-2.34h0c-.85-1.54-1.48-3.06-1.97-4.55-.21-.65-.38-1.3-.52-1.94-.5-2.19-.67-4.29-.61-6.25.02-.91.09-1.79.2-2.63.1-.8.23-1.57.38-2.3.17-.8.36-1.53.56-2.22,0,0,0,.01,0,.02.05-.17.1-.34.15-.5h-.02c.02-.07.05-.16.07-.24.04-.11.07-.2.11-.3.02-.04.04-.08.05-.12.24-.7.47-1.34.69-1.86.51-1.21.91-1.91.93-1.95.01,0,.03-.05.08-.12.2-.36.87-1.47,1.93-2.89.28-.38.6-.78.94-1.19,0,0,0,0,0,0,1.31-1.59,3.03-3.39,5.1-4.93.14.12.33.22.55.22.09,0,.17-.01.26-.05.08-.02.15-.05.23-.07.03-.01.07-.02.1-.03,0,0,.01,0,.02,0,.29-.1.58-.18.86-.28.15-.06.32-.1.47-.16.01,0,.02,0,.03-.01,2.04-.65,3.92-1.2,5.65-1.66,0,0,0,0,0,0l-.03.06c1.89-.49,3.61-.88,5.16-1.18.94.23,1.9.59,2.79,1.15l-.36-.36c-.77-.41-1.57-.7-2.36-.88h.01c.48-.1.95-.19,1.4-.28l.08.08c4.04-.71,6.8-.86,8.53-.9,2.29,1.56,4.43,3.65,5.44,6.27h-.01c.06.16.11.32.16.48l.22.13c-.07-.25-.15-.51-.26-.79-1.02-2.62-3.17-4.69-5.47-6.24.2-.01.38-.02.56-.02.92-.04,1.49-.06,1.88-.19,4.91,3.72,7.56,8.27,8.68,10.6.44.92.66,1.5.67,1.53.03.08,1.09,2.97,1.81,7.07ZM233.91,154.89l22.08,65.35h0s0,.01,0,.01l-35.93-21.73s0,0,0-.01c2.06-8.3-.35-15.22-2.22-18.12l-.98-1.53-.11.34-.48,1.42c-1.86,5.44-6.48,4.69-6.78,4.64,0,0,.02,0,.03,0,.41-.11,5.79-1.64,6.38-4.7.04-.18.05-.37.05-.56,0-.56-.18-1.13-.51-1.72-.39-.7-1-1.42-1.86-2.14-2.67-2.3-6.63-1.76-9.48-.91-.96.29-1.92.65-2.87,1.07.29-1.14.41-1.89.43-2.01l.27-1.9-.61.34c.24-.84.35-1.84.35-3,0-3.29-1.91-6.64-5.51-9.65-6.21-5.2-17-8.82-21.78-7.3-5.29,1.67-10.74,14.57-13.04,20.65,0,0,0,0,0,0l1.16-7.77-41.22,33.09h0s0-.01,0-.01l.85-31.43-56.52,30.62.02-.02h-.02s30.78-34.44,30.78-34.44h.02s3.38-1.45,3.38-1.45l.79,3.63,14.27-6.1-.95,7.22,13.55-5.91c1.34-.58,2.93-1.25,4.85-2.02,1.84-.74,3.57-1.41,5.11-1.96l.41-.17c.87-.38,1.74-.71,2.54-1.01.95-.35,1.92-.7,2.9-1.05l5.74-2.06.41-28.61h.1c2.47-.28,4.42-.52,5.8-.74l.39-.06c0,.07,0,.15-.01.23-.15,3.49-.35,7.15-.58,10.87-.24,3.77-.46,7.59-.66,11.37l-.71,13.4,30.91-10.34s.04.02.07.05c1.8,1.09,3.83,1.65,6.03,1.65.7,0,1.42-.06,2.15-.17.72-.11,1.42-.25,2.09-.42l-.19,2.82,27.34-8.92,7.4-1.43c1.69-.33,3.33-.63,4.91-.91,1.58-.28,3.23-.55,4.89-.81,1.33-.21,2.69-.4,4.06-.58,1.39-.18,2.75-.34,4.08-.48l2.51-.27c1.58.79,3.32,1.17,5.17,1.17.7,0,1.42-.06,2.15-.17,5.19-.8,9.16-3.08,11.82-6.77.59.45,1.2.85,1.82,1.22,0,0,.01,0,.02,0l37.29,49.16h-.01s.01.01.01.01l-74.37-28.94Z"/>
    <g>
      <path d="M96.4,144.82c.08-2.57.17-5.05.31-7.45.08-1.3.14-2.63.2-3.96,0,0,0,0,0,0,.1-2.19.18-4.4.23-6.67,0,0,0,0,0-.01,0-.13,0-.26.01-.4.08-3.78.16-7.69.27-11.73.24.91.6,2.3,1.08,4.17s.98,3.94,1.52,6.2c.32,1.39.64,2.74.96,4.08,0,0,0,0,0,.01.2.84.4,1.69.6,2.51.05.19.09.37.13.56,0,0,0,0,0,.01.45,1.89.82,3.53,1.11,4.91l3.3,15.21,14.22-6.08c-.07-5.37.03-11.65.29-18.87.25-7.22.62-14.98,1.11-23.29.22-4.59.48-9.33.79-14.21.07-1.06.14-2.15.21-3.22,0,0,0,0,0-.01.12-1.85.25-3.71.38-5.6.15-2.06.29-4.13.45-6.24l-7.19,2.13-3.63,1.08-.02.37-.5.15-.08,1.32h0s-.88,13.74-.88,13.74c-.17,3.01-.32,5.64-.44,7.86,0,0,0,0,0,0,0,0,0,0,0,0-.07,1.27-.13,2.57-.19,3.88,0,0,0,0,0,.01-.04.85-.08,1.7-.11,2.56.16-.02.34-.04.5-.06-.1,2.36-.23,5.34-.38,8.96-.39-1.16-.87-2.68-1.45-4.57-.58-1.89-1.17-3.91-1.78-6.11-.15-.56-.31-1.1-.46-1.64,0,0,0,0,0-.01-.45-1.61-.9-3.2-1.35-4.75-.6-2.08-1.12-3.91-1.56-5.48-.38-1.44-.77-2.92-1.16-4.42,0,0,0-.01,0-.02-.23-.87-.46-1.74-.69-2.62-.64-2.41-1.33-4.86-2.07-7.33l-3.5.79h0s-.78.18-.78.18c-.78.18-1.56.38-2.37.57-.8.19-1.57.38-2.33.56-.01,0-.02,0-.03,0-.83.19-1.69.4-2.59.61-.9.21-1.82.41-2.77.63,0,.12,0,.25,0,.38-.18.04-.34.08-.52.12.08,2.88.1,5.94.08,9.15-.01,1.71-.03,3.44-.07,5.24h0c0,.46-.02.92-.03,1.36,0,0,0,0,0,.01-.08,3.65-.19,7.36-.32,11.15.16-.02.33-.03.49-.05-.03,1.01-.06,2.01-.1,3.03-.07,1.97-.14,3.92-.21,5.87,0,0,0,0,0,.01-.12,3.47-.25,6.93-.37,10.34-.1,2.2-.21,4.42-.32,6.64h0c-.12,2.42-.24,4.85-.37,7.3-.22,4.5-.45,9.08-.69,13.73,0,0,0,0,0,.01,0,.19-.02.38-.03.57l1.01-.43h.02s11.71-5,11.71-5c.16-2.62.28-5.2.36-7.76Z" fill="none"/>
      <path d="M163.61,71.43c-.33.06-.64.11-.95.16-.02,0-.03,0-.05,0-.3.05-.58.1-.85.14-.03,0-.06.01-.1.02-.27.05-.53.09-.79.13-.01,0-.03,0-.04,0l-.14.42-4.52,13.68-.24.72c.12,0,.3-.02.51-.03,0,0,0,0,0,0,0,0,0,0,0,0,.14,0,.3-.02.48-.03.17-.01.36-.02.56-.04.01,0,.02,0,.03,0,.07,0,.14,0,.21-.01.07,0,.15,0,.22-.01.23-.01.47-.03.72-.05.39-.03.78-.05,1.16-.08.19-.01.37-.02.54-.04.04,0,.08,0,.11,0,.08,0,.17-.01.25-.02.05,0,.11,0,.16-.01.06,0,.11,0,.17-.01.07,0,.14,0,.21-.01.05,0,.1,0,.15-.01.06,0,.12,0,.17-.01.03,0,.07,0,.1,0,.06,0,.12,0,.17-.01.02,0,.04,0,.06,0,.06,0,.12-.01.16-.01.73-.07,1.43-.1,2.11-.07,0,5.06-.05,10.25-.17,15.54.17-.02.34-.04.51-.06-.17,6.93-.44,14.05-.83,21.35-.15,3.63-.35,7.32-.59,11.06-.24,3.74-.45,7.51-.66,11.28l15.9-5.32c-.09-7.06-.05-14.04.13-20.94.11-4.03.17-7.73.22-11.11.03-3.37.11-6.9.23-10.6.12-3.62.31-7.91.58-12.85.49-.18.97-.35,1.47-.53.68-.24,1.34-.45,2-.62.66-.17,1.3-.38,1.94-.61s1.29-.51,1.92-.81c0-.08.02-.17.02-.26.17-.08.33-.15.5-.23.11-1.04.21-2.45.29-4.23l.13-2.92h0s.09-1.91.09-1.91l.32-5.56c-1.07.31-4.53.98-8.76,1.75,0,0,0,0-.01,0-.4.07-.8.14-1.2.22-.14.03-.29.05-.43.08-.27.05-.55.1-.83.15-.14.03-.29.05-.44.08-.27.05-.54.1-.81.14-.23.04-.47.08-.71.12-.19.03-.38.07-.57.1-.21.04-.41.07-.62.11-.24.04-.47.08-.71.12-.11.02-.22.04-.33.06-.32.06-.64.11-.96.17-.3.05-.6.1-.9.16-.09.02-.19.03-.28.05-.27.05-.54.09-.8.14-.19.03-.37.06-.56.1-.17.03-.33.06-.49.08-.24.04-.47.08-.71.12-.29.05-.57.1-.85.15-.11.02-.22.04-.33.06-.27.05-.53.09-.79.13-.13.02-.26.04-.38.07-.26.04-.51.09-.76.13-.13.02-.27.05-.4.07-.29.05-.57.1-.84.14-.04,0-.08.01-.12.02Z" fill="none"/>
      <path d="M83.3,158.06s0-.03,0-.04h-.01s.01.04.01.04Z" fill="none"/>
      <g>
        <path d="M165.76,181.74s-.04-.04-.07-.06c-.67-.62-1.41-1.36-2.13-2.17-.63-.7-1.23-1.48-1.75-2.28-.21-.32-.4-.64-.58-.97-.02-.04-.04-.07-.07-.12v-.96c-.04.09-.07.16-.07.16v1.02s.05.08.08.12c.17.33.37.65.58.97.52.8,1.12,1.56,1.76,2.27.73.82,1.47,1.55,2.14,2.16.02.02.04.04.07.06,1.2,1.08,2.12,1.76,2.12,1.76-.02-.08-.03-.15-.05-.23-.22-.17-1.03-.79-2.04-1.72Z" fill="#ffe805"/>
        <path d="M187.97,189.68l.03.02c1.14-2.64,5.12-6.48,9.77-9.35.87-.53,1.78-1.04,2.69-1.5,1.38-.7,2.78-1.28,4.15-1.7.56-.17,1.17-.31,1.8-.44.73-.13,1.48-.23,2.24-.23,1.02,0,2,.17,2.86.59.17.08.33.17.49.27-.17-.11-.35-.2-.52-.29-.86-.42-1.84-.59-2.86-.59-.74,0-1.51.1-2.24.23l-.03-.02c-.63.11-1.24.27-1.8.44-1.36.42-2.76,1.01-4.15,1.7-.91.45-1.81.96-2.69,1.5-4.65,2.87-8.64,6.71-9.77,9.35-.04.1-.1.21-.13.3-.16.45-.16,1.04-.07,1.7.17,1.21.72,2.7,1.44,4.23.88,1.88,2,3.79,2.97,5.29.02.02.04.06.07.1.64.99,1.2,1.79,1.57,2.27,0,0,0,0,.01,0-.37-.48-.93-1.27-1.55-2.24-.02-.02-.04-.06-.07-.1-.96-1.5-2.09-3.42-2.97-5.29-.71-1.53-1.27-3.02-1.44-4.23-.1-.65-.1-1.25.07-1.7.03-.1.09-.21.13-.3Z" fill="#ffe805"/>
        <path d="M182.99,191.21c1.19.82,2.3,1.62,3.37,2.43,0,0,0,0,0,0-1.07-.81-2.18-1.62-3.36-2.42,0,0,0,0-.01,0Z" fill="#ffe805"/>
        <path d="M179.56,153.21c1.34.19,3.08.76,5.02,1.62,1.83.81,3.84,1.88,5.87,3.19,5.58,3.57,9.79,7.85,10.15,10.09v.04c.05.31.02.58-.1.81-.13.23-.35.41-.64.52-.85.33-2.37.15-4.28-.46,1.94.64,3.49.84,4.35.51.29-.11.51-.28.64-.52.12-.22.15-.5.11-.81v-.04c-.35-2.24-4.54-6.54-10.11-10.15-2.03-1.32-4.03-2.4-5.86-3.22-1.93-.87-3.67-1.45-5.01-1.66-.35-.05-.68-.08-.97-.08-.51,0-.92.08-1.22.24-.11.06-.21.12-.29.2.05-.03.09-.07.15-.1.31-.17.7-.25,1.21-.25.28,0,.62.04.97.08Z" fill="#ffe805"/>
        <path d="M186.82,164.96c4.3,2.76,8.33,4.48,10.96,4.85-2.63-.42-6.6-2.16-10.82-4.9-4.17-2.7-7.46-5.64-9.09-7.97-.04.05-.09.11-.14.16,1.67,2.3,4.94,5.21,9.09,7.86Z" fill="#ffe805"/>
        <polygon points="195.52 210.59 194.72 211.14 189.87 214.45 189.87 214.46 189.91 214.55 189.91 214.54 194.86 211.11 195.65 210.57 198.18 208.81 198.19 208.8 198.23 208.73 198.22 208.74 195.52 210.59" fill="#ffe805"/>
        <path d="M195.54,205.09s-.02,0-.03.01c2.04-.63,3.91-1.16,5.65-1.61,0,0,0,0,0,0l.03-.06s0,0,0,0c-1.73.46-3.61,1-5.65,1.66Z" fill="#ffe805"/>
        <path d="M212.44,177.67s.02.01.03.02c0,0,0,0,0,0,0,0-.02-.01-.03-.02Z" fill="#ffe805"/>
        <path d="M163.83,169.08c2.49-5.3,6.33-12.58,9.79-15.37-3.45,2.68-7.29,9.99-9.79,15.37Z" fill="#ffe805"/>
        <path d="M190.2,201.46c-.8-1.26-1.65-2.73-2.38-4.24-2.07-1.72-4.48-3.5-7.3-5.37-.58-.39-1.18-.78-1.8-1.16h-.01c-.15-.09-.31-.19-.47-.29,0,0,0,0,0,0v.02s.02,0,.02,0c.14.09.28.17.42.26h.01c.62.39,1.22.78,1.8,1.16,2.83,1.87,5.23,3.65,7.3,5.37.74,1.51,1.59,2.98,2.38,4.24.92,1.47,1.76,2.64,2.21,3.26-1.98,1.48-3.63,3.18-4.92,4.72,0,0,0,0,0,0l.02.04s0,0,0,0c1.29-1.55,2.95-3.26,4.95-4.75-.46-.62-1.29-1.79-2.21-3.26Z" fill="#ffe805"/>
        <path d="M246.37,107.73c.46,1.07.92,2.12,1.38,3.19,1.66-1.26,3.83-2.31,6.66-2.75,1.16-.18,2.27-.27,3.33-.27h.24c-.28-3.62-.28-7.43,0-11.35.17-2.34.43-4.69.78-7.04l-7,2.48v-.02s9.93-15.67,9.93-15.67c0,0,0-.01,0-.02.82-2.74,1.73-5.39,2.77-7.92,2.87-7.05,6.56-13.15,10.95-18.11.63-.71,1.27-1.38,1.92-2.02-8.91,6.4-17.14,14.64-25.79,21.67-.75,1.55-1.5,3.11-2.24,4.69-1.14,2.39-2.34,4.94-3.64,7.72-1.28,2.74-2.49,5.41-3.6,7.96-.48,1.08-.92,2.1-1.32,3.05.67,1.89,1.35,3.77,2.05,5.62,1.14,3,2.34,5.96,3.56,8.79Z" fill="#ffe805"/>
        <path d="M163.03,180.96c-.57-.65-1.1-1.36-1.6-2.1-.19-.27-.36-.53-.53-.81-.07-.1-.13-.21-.2-.31v.04c.05.08.1.17.15.26.17.28.35.55.53.81.51.74,1.05,1.44,1.6,2.1,1.39,1.63,2.94,3.01,4.55,4.18,0,0,0,0,0,0h0s0-.02,0-.02c-1.6-1.17-3.13-2.53-4.52-4.15Z" fill="#ffe805"/>
        <path d="M199.88,169.79s0,0-.01,0c-.02,1.43-.23,3.2-1.22,3.72-.11.06-.22.1-.34.13.12-.03.24-.07.35-.13.99-.52,1.21-2.29,1.22-3.72Z" fill="#ffe805"/>
        <path d="M197.43,176.17c-4.41.26-6.43-3.97-6.46-4.03l-1.91-4.14-.02-.02,1.92,4.15c.02.05,2.05,4.3,6.47,4.03Z" fill="#ffe805"/>
        <path d="M198.99,177.37c.05-.18.11-.34.16-.51.12-.39.24-.78.33-1.1,0,0,0,0-.01,0-.09.33-.2.7-.33,1.1-.05.17-.1.34-.16.51-6.16,3.25-11.58,8.44-12.82,11.88-.03.1-.05.21-.09.31,0,0,0,0,.01,0,.02-.11.05-.22.09-.31,1.24-3.44,6.67-8.64,12.82-11.88Z" fill="#ffe805"/>
        <path d="M209.14,187.21l-8.19-1.69h-.04s8.26,1.72,8.26,1.72c.07.01,5.26,1,8.03-4.12,0-.01-.01-.03-.02-.05-2.77,5.15-7.99,4.14-8.05,4.14Z" fill="#ffe805"/>
        <path d="M77.25,114.67c0-.25.02-.49.03-.74.2-5.39.36-10.72.47-15.84,0-.13,0-.26,0-.39l-46.1-10.63h-.03s45.63,27.62,45.63,27.62c0,0,0,0,0-.01Z" fill="#ffe805"/>
        <path d="M335.87,62.2l-17.27,6.11c.29,2.64.47,5.27.52,7.86,0,0,0,0,0,.01l16.77-13.99h-.03Z" fill="#ffe805"/>
        <path d="M308.28,183.82v-.02s-37.31-49.16-37.31-49.16c-.62-.38-1.23-.77-1.82-1.22-2.66,3.69-6.64,5.97-11.82,6.77-.73.11-1.45.17-2.15.17-1.86,0-3.59-.39-5.17-1.17l-2.51.27c-1.33.15-2.7.3-4.08.48-1.38.18-2.73.38-4.06.58-1.66.27-3.31.53-4.89.81-1.58.28-3.22.58-4.91.91l-7.4,1.43-27.34,8.92.19-2.82c-.67.17-1.36.31-2.09.42-.73.11-1.45.17-2.15.17-2.19,0-4.22-.56-6.03-1.65-.02-.02-.07-.05-.07-.05l-30.91,10.34.71-13.4c.2-3.78.41-7.61.66-11.37.23-3.72.43-7.38.58-10.87.01-.08.01-.16.01-.23l-.39.06c-1.38.22-3.33.46-5.8.74h-.1l-.41,28.61-5.74,2.06c-.98.35-1.95.7-2.9,1.05-.81.29-1.67.63-2.54,1.01l-.41.17c-1.54.56-3.26,1.22-5.11,1.96-1.92.78-3.5,1.44-4.85,2.02l-13.55,5.91.95-7.22-14.27,6.1-.79-3.63-3.38,1.44-30.78,34.45-.02.02,56.52-30.62h0s-.85,31.43-.85,31.43h0s41.22-33.08,41.22-33.08h0s-1.16,7.76-1.16,7.76c2.3-6.07,7.75-18.97,13.04-20.65,4.78-1.51,15.57,2.11,21.78,7.3,3.6,3.02,5.51,6.36,5.51,9.65,0,1.16-.11,2.17-.35,3l.61-.34-.27,1.9c-.01.12-.13.87-.43,2.01.95-.41,1.91-.78,2.87-1.07,2.85-.85,6.8-1.39,9.48.91.85.73,1.46,1.44,1.86,2.14.33.59.5,1.16.51,1.72,0-.56-.18-1.14-.51-1.73.5.28.94.59,1.31.93l-.48,1.42c-1.82,5.35-6.32,4.71-6.75,4.64,0,0-.02,0-.03,0,.29.05,4.92.8,6.78-4.64l.48-1.42.11-.34.98,1.53c1.86,2.9,4.28,9.83,2.22,18.12,0,0,0,0,0,.01l35.93,21.73v-.02s-22.09-65.35-22.09-65.35h0s74.37,28.94,74.37,28.94Z" fill="#ffe805"/>
        <path d="M75.39,156.26l.62-12.31c.09-1.92.19-3.83.28-5.74-14.3,3.12-28.69,6.04-42.58,10.04-.85.24-1.24-.07-1.32.4-.04.22,0,.6.07,1.27l42.92,6.35h0Z" fill="#ffe805"/>
        <path d="M344.35,125.89l-15.16-3.14c-.3.51-.62,1.01-.97,1.5-.85,1.19-1.85,2.21-2.96,3.11,0,0-.01,0-.02.01l19.15-1.47h-.04Z" fill="#ffe805"/>
        <path d="M306.98,128.76c-1.41-1.07-2.61-2.36-3.57-3.89-1.4,1.65-2.85,3.15-4.35,4.5,0,0,0,0-.01.01l7.95-.61s-.01,0-.02-.01Z" fill="#ffe805"/>
        <polygon points="133.11 63.13 133.45 63.03 133.37 64.15 133.37 64.16 134.22 67.52 134.22 67.52 168.68 61.33 125.12 31.6 125.11 31.6 133.11 63.13 133.11 63.13" fill="#ffe805"/>
        <path d="M91.51,73.11l3.03-.73,4.21-.95c-7.07-4.27-12.27-7.08-12.73-6.33,0,0,0,0,0,0l5.48,8.01h0Z" fill="#ffe805"/>
        <path d="M126.1,92.21c.02-1.14.02-2.3.04-3.45,0,0,0,0,0-.01.01-1.13.02-2.27.03-3.41l-3.98,70.04,2.77-1.21c1.4-.61,3.03-1.3,5-2.08,1.91-.76,3.69-1.45,5.27-2.02l.13-.05c.97-.41,1.91-.79,2.81-1.11.96-.35,1.94-.7,2.94-1.07l1.86-.67.43-29.69c1.79-.22,3.52-.42,5.15-.61,2.41-.27,4.29-.51,5.58-.71l2.28-.35.2-8.16c0-.94,0-1.88.01-2.8,0-.99-.02-2.01-.08-3.02l-.23-3.74-3.25,1.05c-.27.08-.63.17-1.05.23l-8.23,1.27.37-12.02,5.97-.92,2.22-.62,5.12-17.98-2.09.24-19.76,3.54h0s-8.8,1.58-8.8,1.58l-.19,3.43.12-.02c0-.14,0-.28,0-.43l.6-.1,9.03-1.47h0s17.97-2.92,17.97-2.92l-1.16,4.05-2.15,7.52-.12.41-9.43,1.46-.26,8.67h0s-.09,3.1-.09,3.1h0s-.19,6.09-.19,6.09c.95-.22,1.87-.4,2.74-.53s1.74-.27,2.58-.4l4.24-.65c.73-.11,1.35-.21,1.9-.29.55-.08,1.02-.19,1.43-.33.05.94.08,1.88.08,2.8-.01.92-.01,1.85-.01,2.81l-.13,5.54c-1.27.19-3.09.42-5.48.69s-4.91.58-7.57.92l-.44,30.17c-.99.35-1.98.71-2.95,1.07-.97.35-1.94.74-2.94,1.16-1.64.61-3.43,1.28-5.35,2.06-1.92.78-3.61,1.48-5.07,2.11.44-3.33.8-7.11,1.06-11.34.26-4.23.48-8.53.63-12.91.15-4.37.29-8.44.44-12.21.12-3.5.22-6.43.28-8.8-.17.02-.34.04-.5.06v-.08c.1-4.58.17-9.19.23-13.87Z" fill="#ffe805"/>
        <path d="M90.05,158.42l8.6-3.67.12-1.93c.16-2.63.28-5.27.36-7.87.08-2.51.17-4.99.29-7.34.05-.86.11-1.73.15-2.62.23,1.02.44,1.94.61,2.77l4.02,18.56,17.79-8.32,3.97-77.08-.13.04-12.87,3.81-2.77.82-.18,2.83h0s-.92,14.4-.92,14.4c-.12,2.03-.22,3.87-.31,5.55,0,0,0,0,0,.01-.04.7-.07,1.39-.11,2.03-.15-.55-.32-1.09-.47-1.64-.22-.74-.42-1.44-.61-2.12,0,0,0-.01,0-.02-.34-1.2-.65-2.3-.92-3.25-.6-2.29-1.21-4.65-1.86-7.07s-1.35-4.92-2.1-7.43l-.76-2.54-6.7,1.51c-.14.03-.29.07-.44.11,0,0,0,0,0,0-.63.15-1.26.31-1.92.46l-2.36.57c-.41.1-.85.2-1.28.3-.43.1-.85.2-1.3.31-.88.21-1.81.41-2.75.63l-2.25.51.08,2.54c.08,2.83.11,5.88.08,9.07-.01,1.68-.03,3.39-.07,5.15-.01.46-.02.94-.03,1.4,0,0,0,0,0,.01-.11,4.75-.26,9.62-.43,14.53-.05,1.47-.1,2.91-.16,4.37,0,0,0,0,0,.01-.1,2.85-.2,5.67-.3,8.47-.01.42-.03.84-.04,1.26-.02.69-.05,1.39-.07,2.07-.12,2.45-.24,4.93-.36,7.41,0,0,0,0,0,0-.11,2.16-.22,4.33-.33,6.51l-.68,13.48h0s-.28,5.53-.28,5.53l9.67-4.13h.02ZM84.31,157.59l-1.01.43s0,.03,0,.04v-.04s0,0,0,0c0-.19.02-.38.03-.57,0,0,0,0,0-.01.24-4.65.47-9.23.69-13.73.12-2.45.25-4.87.37-7.29h0c.11-2.23.22-4.45.32-6.65.12-3.41.24-6.87.37-10.34,0,0,0,0,0-.01.07-1.95.14-3.9.21-5.87.04-1.02.07-2.02.1-3.03-.16.02-.33.03-.49.05.13-3.78.23-7.5.32-11.15,0,0,0,0,0-.01.01-.45.02-.91.03-1.35h0c.04-1.81.06-3.55.07-5.25.02-3.21,0-6.27-.08-9.15.18-.04.34-.08.52-.12,0-.12,0-.25,0-.38.95-.22,1.88-.42,2.77-.63.9-.21,1.76-.41,2.59-.61.01,0,.02,0,.03,0,.76-.18,1.54-.37,2.33-.56.81-.19,1.59-.39,2.37-.57l.78-.18h0s3.5-.79,3.5-.79c.74,2.47,1.43,4.92,2.07,7.33.24.89.46,1.75.69,2.62,0,0,0,.01,0,.02.39,1.5.78,2.97,1.16,4.42.44,1.56.96,3.39,1.56,5.48.45,1.55.9,3.14,1.35,4.75,0,0,0,0,0,.01.15.55.31,1.09.46,1.64.61,2.19,1.2,4.22,1.78,6.11.58,1.89,1.06,3.4,1.45,4.57.15-3.62.28-6.6.38-8.96-.17.02-.34.04-.5.06.03-.86.07-1.71.11-2.56,0,0,0,0,0-.01.06-1.31.13-2.61.19-3.88,0,0,0,0,0,0,0,0,0,0,0,0,.12-2.23.26-4.85.44-7.86l.88-13.72h0s.08-1.33.08-1.33l.5-.15.02-.37,3.63-1.08,7.19-2.13c-.16,2.11-.31,4.18-.45,6.24-.13,1.89-.26,3.75-.38,5.6,0,0,0,0,0,.01-.07,1.07-.15,2.16-.21,3.22-.31,4.88-.57,9.62-.79,14.21-.49,8.31-.86,16.07-1.11,23.29-.26,7.22-.36,13.51-.29,18.87l-14.22,6.08-3.3-15.21c-.29-1.37-.66-3.02-1.11-4.91,0,0,0,0,0-.01-.04-.19-.09-.36-.13-.56-.2-.82-.4-1.66-.6-2.51,0,0,0,0,0-.01-.32-1.34-.64-2.69-.96-4.08-.53-2.27-1.04-4.34-1.52-6.2s-.84-3.26-1.08-4.17c-.11,4.03-.2,7.95-.27,11.73,0,.13,0,.26-.01.4,0,0,0,0,0,.01-.05,2.26-.13,4.48-.23,6.67,0,0,0,0,0,0-.06,1.33-.12,2.66-.2,3.96-.13,2.4-.23,4.88-.31,7.45s-.2,5.15-.36,7.76l-11.71,5h-.02Z" fill="#ffe805"/>
        <path d="M159,68.5l-5.12,19.75,7.12-.25s.61,23.14-.01,34.93c-.15,3.55-.35,7.24-.58,11-.23,3.72-.45,7.52-.66,11.31l-.23,4.32,21.59-7.23-.03-2.28c-.09-6.99-.04-13.99.13-20.81.11-4.07.17-7.83.22-11.16.03-3.39.11-6.93.23-10.53.1-3.13.26-6.83.48-11.03.07-.02.13-.05.21-.07.6-.22,1.2-.4,1.78-.55.73-.19,1.46-.41,2.18-.68.71-.25,1.43-.56,2.14-.9l1.44-.69.19-1.73c.12-1.11.23-2.57.32-4.45l.06-1.27h0s.16-3.52.16-3.52l.55-9.75-15.95,2.86h-.01s-11.36,2.04-11.36,2.04l-4.84.68ZM164.97,71.2c.25-.04.5-.09.76-.13.13-.02.26-.04.38-.07.26-.04.52-.09.79-.13.11-.02.22-.04.33-.06.28-.05.56-.1.85-.15.23-.04.47-.08.71-.12.16-.03.33-.06.49-.08.19-.03.37-.06.56-.1.27-.05.53-.09.8-.14.09-.02.19-.03.28-.05.3-.05.6-.1.9-.16.32-.06.64-.11.96-.17.11-.02.22-.04.33-.06.24-.04.47-.08.71-.12.21-.04.42-.07.62-.11.19-.03.38-.07.57-.1.24-.04.47-.08.71-.12.27-.05.54-.1.81-.14.15-.03.29-.05.44-.08.28-.05.55-.1.83-.15.14-.03.29-.05.43-.08.41-.07.81-.15,1.2-.22,0,0,0,0,.01,0,4.23-.77,7.7-1.44,8.76-1.75l-.32,5.56-.09,1.9h0s-.13,2.93-.13,2.93c-.09,1.78-.19,3.19-.29,4.23-.17.08-.33.15-.5.23,0,.08-.02.18-.02.26-.63.3-1.28.58-1.92.81s-1.29.44-1.94.61c-.66.17-1.32.38-2,.62-.49.18-.98.36-1.47.53-.27,4.95-.47,9.23-.58,12.85-.12,3.69-.2,7.23-.23,10.6-.04,3.38-.11,7.07-.22,11.11-.19,6.9-.22,13.88-.13,20.94l-15.9,5.32c.21-3.77.41-7.53.66-11.28.24-3.74.44-7.43.59-11.06.39-7.31.67-14.42.83-21.35-.17.02-.34.04-.51.06.12-5.29.17-10.48.17-15.54-.68-.02-1.38,0-2.11.07-.04,0-.09,0-.16.01-.02,0-.04,0-.06,0-.05,0-.11,0-.17.01-.03,0-.07,0-.1,0-.06,0-.11,0-.17.01-.05,0-.1,0-.15.01-.07,0-.14,0-.21.01-.06,0-.11,0-.17.01-.05,0-.11,0-.16.01-.08,0-.16.01-.25.02-.04,0-.07,0-.11,0-.17.01-.35.02-.54.04-.38.02-.77.05-1.16.08-.24.02-.48.03-.72.05-.07,0-.15,0-.22.01-.07,0-.14,0-.21.01-.01,0-.02,0-.03,0-.2.01-.38.02-.56.04-.17.01-.33.02-.48.03,0,0,0,0,0,0,0,0,0,0,0,0-.21.01-.39.02-.51.03l.24-.72,4.52-13.68.14-.42s.03,0,.04,0c.25-.04.51-.09.79-.13.03,0,.06-.01.1-.02.28-.05.56-.09.85-.14.02,0,.03,0,.05,0,.31-.05.63-.11.95-.16.04,0,.08-.01.12-.02.28-.05.55-.09.84-.14.13-.02.27-.05.4-.07Z" fill="#ffe805"/>
        <path d="M186.09,118.37h0s7.88-2.57,10.41,0l2.53-57.61-5.67,12.75h0s-.75,12.53-.75,12.53l-6.43,3.96-.09,28.37Z" fill="#ffe805"/>
        <path d="M199.04,60.75l-.04-4.75h2.15s0,0,0,0l9.27-.84,2.54-.18,2.43-.17c.74-.05,1.57-.13,2.38-.23.79-.08,1.6-.19,2.43-.33l4.04-.62h0s3.26-2.92,3.26-2.92l-14.09-37.74-20.06,49.21v11.31s0,.01,0,.01l5.67-12.75h0Z" fill="#ffe805"/>
      </g>
    </g>
  </g>
</svg>