<svg version="1.1" xmlns="http://www.w3.org/2000/svg" style="display: block;" viewBox="0 0 2048 2048" width="1024" height="1024">
<defs>
	<linearGradient id="Gradient1" gradientUnits="userSpaceOnUse" x1="1323.59" y1="1632.82" x2="1298.37" y2="1617.02">
		<stop class="stop0" offset="0" stop-opacity="1" stop-color="rgb(9,11,9)"/>
		<stop class="stop1" offset="1" stop-opacity="1" stop-color="rgb(44,42,44)"/>
	</linearGradient>
	<linearGradient id="Gradient2" gradientUnits="userSpaceOnUse" x1="1182.67" y1="1646.09" x2="1155.01" y2="1697.35">
		<stop class="stop0" offset="0" stop-opacity="1" stop-color="rgb(23,18,13)"/>
		<stop class="stop1" offset="1" stop-opacity="1" stop-color="rgb(42,45,50)"/>
	</linearGradient>
	<linearGradient id="Gradient3" gradientUnits="userSpaceOnUse" x1="1328.15" y1="1475.61" x2="1429.95" y2="1851.45">
		<stop class="stop0" offset="0" stop-opacity="1" stop-color="rgb(75,148,140)"/>
		<stop class="stop1" offset="1" stop-opacity="1" stop-color="rgb(130,178,169)"/>
	</linearGradient>
</defs>
<path transform="translate(0,0)" fill="rgb(26,29,34)" d="M 0 0 L 863.836 0 L 872.82 0 L 2048 0 L 2048 1140.46 L 2048 1151.55 L 2048 2048 L 0 2048 L 0 1257.27 L 0 1246.62 L 0 0 z"/>
<path transform="translate(0,0)" fill="rgb(223,214,188)" d="M 1834 453.258 C 1835.62 455.731 1824.02 569.638 1821.86 583.88 C 1816.3 578.892 1810.75 574.253 1804.63 569.953 C 1800 567.214 1795.25 564.925 1790.38 562.636 C 1791.56 532.001 1793.39 500.799 1797.17 470.372 C 1809.69 465.247 1822.16 459.82 1834 453.258 z"/>
<path transform="translate(0,0)" fill="rgb(252,248,226)" d="M 1216.57 313.412 C 1224.24 312.941 1238.02 312.864 1244.83 316.69 C 1246.45 317.599 1245.87 317.042 1246.43 319.097 C 1244.59 321.352 1242.68 322.388 1240.07 323.627 C 1232.72 327.109 1224.69 329.27 1217.21 332.503 C 1174.7 350.879 1131.61 367.909 1089.25 386.63 C 1083.94 389.142 1078.37 391.271 1072.95 393.538 C 1068.81 389.298 1065.73 385.194 1062.63 380.191 C 1063.87 377.858 1065.21 375.64 1066.89 373.588 C 1084.92 351.541 1185.02 316.281 1216.57 313.412 z"/>
<path transform="translate(0,0)" fill="rgb(220,122,109)" d="M 1562.31 573.006 C 1562.79 573.493 1563.49 573.834 1563.75 574.467 C 1564.45 576.199 1563.33 601.434 1563.37 605.533 C 1563.66 637.663 1565.02 669.763 1565.06 701.904 C 1550.45 696.853 1524.73 682.44 1510.76 682.265 C 1503.54 683.106 1498.44 685.41 1492.26 688.967 A 1281.75 1281.75 0 0 1 1490.9 605.998 C 1514.29 594.329 1538.65 584.197 1562.31 573.006 z"/>
<path transform="translate(0,0)" fill="rgb(220,122,109)" d="M 1790.88 473.05 C 1791.61 475.134 1785.48 550.525 1784.89 560.578 C 1773.75 556.072 1751.56 548.009 1739.69 552.361 C 1735.22 553.998 1731.89 557.588 1729.96 561.876 C 1713.61 598.196 1760.68 590.365 1771.06 620.237 L 1771.48 621.491 C 1763.96 630.307 1755.9 635.336 1746.01 641.326 A 301.434 301.434 0 0 1 1708.96 659.428 C 1708.84 638.037 1710.37 616.468 1711.25 595.091 C 1712.46 565.408 1713.35 535.577 1716.11 505.99 C 1740.79 494.521 1765.99 484.057 1790.88 473.05 z"/>
<path transform="translate(0,0)" fill="rgb(223,214,188)" d="M 1226.62 268.423 C 1257.36 267.554 1286.77 275.145 1312.59 291.916 C 1295.89 299.705 1278.43 306.214 1261.49 313.504 A 80.1581 80.1581 0 0 0 1259.21 311.711 C 1245.5 301.404 1224.18 300.332 1207.78 302.614 C 1174.88 307.191 1097.97 337.045 1070.82 354.809 C 1064.82 358.742 1060.19 362.723 1055.8 368.448 C 1053.97 371.645 1052.45 375.32 1052.25 379.04 C 1051.84 386.893 1056.54 392.355 1061.29 397.977 A 764.915 764.915 0 0 1 1030.39 411.932 C 1021.77 404.861 1011.83 396.514 1010.7 384.642 C 1009.74 374.552 1015.33 365.589 1021.74 358.312 C 1061 313.749 1168.25 272.022 1226.62 268.423 z"/>
<path transform="translate(0,0)" fill="rgb(223,214,188)" d="M 1813.89 662.928 L 1814.69 663.702 C 1816.18 673.565 1812.8 687.585 1811.77 697.644 A 3349.58 3349.58 0 0 0 1806.73 752.328 L 1786.24 984.547 A 4964.34 4964.34 0 0 0 1781.13 1046.3 C 1780 1060.53 1779.57 1075.3 1776.42 1089.24 C 1768.58 1093.74 1760.43 1097.62 1752.32 1101.59 C 1751.93 1100.9 1751.24 1100.32 1751.14 1099.53 C 1750.62 1095.39 1752.23 1088.98 1752.48 1084.58 A 4597.37 4597.37 0 0 1 1755.91 1024.03 A 16591.8 16591.8 0 0 1 1773.75 779.341 A 2686.62 2686.62 0 0 0 1777.69 724.413 C 1778.54 710.996 1778.82 697.19 1781.32 683.971 C 1792.76 677.944 1803.4 670.445 1813.89 662.928 z"/>
<path transform="translate(0,0)" fill="rgb(220,122,109)" d="M 912.021 803.05 C 932.859 802.291 953.766 797.923 974.657 796.693 C 975.137 802.679 976.376 808.643 977.377 814.561 C 947.745 820.591 916.296 822.316 886.16 824.355 A 2355.06 2355.06 0 0 1 643.966 826.533 A 8608.16 8608.16 0 0 0 547.155 822.762 C 467.124 819.771 414.115 821.732 337.753 850.159 C 307.441 861.443 278.359 874.927 251.285 892.691 C 251.141 886.552 250.31 880.482 249.576 874.392 A 458.869 458.869 0 0 1 522.581 802.998 C 625.64 808.15 727.753 814.867 831.008 809.426 C 857.9 808.009 885.315 806.548 912.021 803.05 z"/>
<path transform="translate(0,0)" fill="rgb(223,214,188)" d="M 1743.72 562.029 C 1756.95 564.101 1770.17 568.108 1782.51 573.257 C 1799.24 580.234 1817.4 591.045 1824.21 608.795 C 1827.45 617.239 1826.7 625.864 1822.82 633.949 C 1803.73 673.683 1670.92 722.615 1630.3 736.559 C 1594.59 748.817 1557.33 760.847 1521.33 743.222 C 1512.97 738.358 1505.74 732.132 1501.18 723.43 C 1498.02 717.398 1495.99 709.814 1498.36 703.166 C 1500.64 696.745 1505.11 694.225 1510.98 691.458 C 1519.84 694.374 1528.28 699.029 1536.74 702.978 C 1564.35 715.862 1584.43 716.595 1613.86 708.997 C 1644.98 700.959 1766.5 653.17 1780.31 628.116 C 1783.25 622.782 1782.97 617.595 1781.09 611.91 C 1775.21 594.083 1753.08 586.558 1738 578.588 C 1739.11 572.592 1740.65 567.338 1743.72 562.029 z"/>
<path transform="translate(0,0)" fill="rgb(220,122,109)" d="M 993.385 972.325 C 995.924 971.959 996.247 971.685 998.443 972.92 C 1001.24 978.775 1001.29 986.157 1002.12 992.58 C 924.841 1011.49 838.263 1019.84 758.74 1023.48 C 603.197 1030.59 437.102 1020.78 296.657 1100.09 L 295.056 1100.57 C 291.518 1097.68 289.416 1084.67 288.162 1079.98 C 308.09 1068.46 335.33 1059.24 357.111 1051.27 C 385.896 1040.73 415.332 1029.67 445.296 1023.09 C 503.402 1010.33 563.532 1009.47 622.742 1007.49 C 665.109 1006.07 707.792 1003.61 750.112 1001.07 A 2217.84 2217.84 0 0 0 993.385 972.325 z"/>
<path transform="translate(0,0)" fill="rgb(223,214,188)" d="M 1709.9 508.991 C 1711.72 518.155 1708.06 546.942 1707.4 558.019 C 1705.37 592.353 1703.05 626.93 1703.02 661.325 C 1661.51 679.231 1617.39 702.777 1571.2 702.056 C 1571.1 658.048 1569.86 614.022 1569.39 570.013 C 1587.78 562.893 1605.82 553.966 1623.88 545.983 A 4671.87 4671.87 0 0 1 1709.9 508.991 z"/>
<path transform="translate(0,0)" fill="rgb(220,122,109)" d="M 1773.87 688.137 C 1775.33 690.633 1768.88 754.856 1768.16 764.356 L 1751.1 1001.64 C 1748.85 1036.06 1746.16 1070.53 1744.67 1104.99 L 1690.2 1129.96 L 1689.53 1129.3 C 1687.44 1120.21 1692.03 1068.04 1692.54 1054.85 C 1696.11 963.583 1701.75 872.409 1704.78 781.123 C 1705.47 760.411 1706.76 739.686 1707 718.967 C 1729.7 709.805 1752.31 699.735 1773.87 688.137 z"/>
<path transform="translate(0,0)" fill="rgb(252,248,226)" d="M 393.575 840.117 L 395.715 840.296 C 398.625 844.977 402.558 891.06 404.049 900.972 C 410.177 941.698 418.465 980.671 429.807 1020.2 C 382.115 1032.25 332.148 1053.25 287.517 1073.73 L 287.003 1073.7 C 283.552 1070.38 281.914 1058.93 280.65 1054.02 C 267.465 1002.81 258.767 951.045 252.218 898.594 A 562.289 562.289 0 0 1 393.575 840.117 z"/>
<path transform="translate(0,0)" fill="rgb(26,29,34)" d="M 280.245 894.745 C 283.937 900.214 297.477 976.25 300.344 989.439 C 299.956 989.135 299.529 988.875 299.18 988.526 C 286.999 976.338 279.386 911.653 280.245 894.745 z"/>
<path transform="translate(0,0)" fill="rgb(26,29,34)" d="M 350.053 876.549 C 350.542 876.892 351.079 877.174 351.52 877.578 C 354.859 880.637 371.972 976.81 372.036 987.325 C 360.958 976.982 350.99 895.514 350.053 876.549 z"/>
<path transform="translate(0,0)" fill="rgb(26,29,34)" d="M 314.851 888.606 C 315.205 888.919 315.615 889.178 315.913 889.545 C 319.246 893.643 338.153 992.415 337.748 1001.13 C 327.119 986.733 312.664 906.154 314.851 888.606 z"/>
<path transform="translate(0,0)" fill="rgb(220,122,109)" d="M 1492.83 732.51 C 1495.69 736.144 1498.6 739.817 1501.99 742.98 C 1521.82 761.5 1545.33 763.881 1571.17 763.11 A 16269.3 16269.3 0 0 1 1572.14 1034.83 C 1572.06 1084.49 1573.54 1134.27 1572.56 1183.91 C 1565.47 1187.18 1558.44 1190.64 1551.39 1194.01 L 1504.21 1216.21 L 1495.95 884.341 L 1493.04 784.725 C 1492.64 767.376 1491.67 749.835 1492.83 732.51 z"/>
<path transform="translate(0,0)" fill="rgb(223,214,188)" d="M 1699.89 722.238 C 1700.2 722.824 1700.62 723.367 1700.83 723.997 C 1702.34 728.54 1690.49 953.282 1689.33 978.608 C 1686.99 1029.98 1686.76 1082.01 1682.26 1133.22 C 1648.8 1150.72 1613.51 1165.36 1579.18 1181.13 A 40853.9 40853.9 0 0 0 1577 762.44 C 1608.85 759.385 1669.43 735.779 1699.89 722.238 z"/>
<path transform="translate(0,0)" fill="rgb(220,122,109)" d="M 1158.12 592.435 C 1186.51 603.535 1215.7 613.056 1243.74 624.887 C 1249.2 744.912 1252.22 865.136 1256.12 985.222 A 14257.9 14257.9 0 0 1 1264.34 1236.99 A 5525.15 5525.15 0 0 1 1195.02 1206.25 C 1191.84 1187.03 1192.34 1166.06 1191.41 1146.55 A 8897.67 8897.67 0 0 0 1185.77 1051.06 L 1167.36 744.601 A 9132.65 9132.65 0 0 0 1158.12 592.435 z"/>
<path transform="translate(0,0)" fill="rgb(223,214,188)" d="M 1250.32 627.282 C 1275.36 638.199 1305.19 650.311 1331.84 655.778 C 1332.49 717.113 1347.02 1264.8 1345.19 1268.5 C 1344.89 1269.1 1344.34 1269.54 1343.92 1270.06 C 1319.54 1260.42 1295.88 1249.05 1271.38 1239.72 L 1260.68 916.873 C 1257.28 820.385 1252.44 723.795 1250.32 627.282 z"/>
<path transform="translate(0,0)" fill="rgb(252,248,226)" d="M 473.752 403.409 C 475.976 406.617 477.91 410.03 479.921 413.375 A 436.046 436.046 0 0 0 470.024 423.527 C 387.823 512.021 390.084 693.055 394.327 806.06 C 373.834 811.912 353.011 817.586 333.139 825.329 C 316.507 831.81 300.666 840.029 284.166 846.775 C 282.514 845.307 282.792 843.185 282.509 841.039 L 278.533 842.31 C 279.156 844.462 279.469 846.261 279.554 848.5 C 270.533 855.354 258.923 860.552 249.213 866.662 A 873.053 873.053 0 0 1 245.298 807.719 C 241.797 707.389 250.973 596.95 296.517 505.783 C 304.89 489.023 314.441 471.617 327.244 457.857 C 329.618 464.064 331.119 470.639 333.355 476.924 C 297.862 541.437 269.397 640.743 278.984 714.345 C 287.706 628.885 296.856 553.659 341.121 477.866 C 350.381 462.009 359.73 446.375 373.002 433.495 C 374.615 439.555 375.825 446.016 379.161 451.399 C 368.18 468.754 357.827 486.085 349.362 504.844 C 317.334 575.819 308.992 664.312 309.237 741.337 C 309.308 763.518 308.978 790.171 316.818 810.999 C 315.553 794.887 315.877 778.537 315.823 762.374 C 315.706 727.573 316.423 693.217 319.548 658.517 C 326.258 584.014 346.267 504.264 393.062 444.377 C 400.273 435.149 407.745 425.317 416.748 417.798 C 420.152 425.723 422.024 433.969 423.754 442.385 C 391.064 484.755 372.065 537.31 360.402 589.091 C 346.119 652.504 338.842 727.238 343.482 792.171 C 343.818 796.873 343.037 807.418 345.282 810.965 C 347.861 808.48 348.177 799.879 348.414 796.16 C 349.68 776.366 348.75 756.326 349.44 736.473 A 993.435 993.435 0 0 1 359.282 631.969 C 371.954 547.998 402.758 455.824 473.752 403.409 z"/>
<path transform="translate(0,0)" fill="rgb(26,29,34)" d="M 273.545 726.884 C 275.497 741.77 275.738 756.965 276.591 771.948 C 277.907 795.084 279.573 818.047 282.509 841.039 L 278.533 842.31 C 270.939 805.385 268.164 764.211 273.545 726.884 z"/>
<path transform="translate(0,0)" fill="rgb(220,122,109)" d="M 946.13 512.328 C 978.593 527.873 1014.33 538.36 1047.86 551.613 C 1049.93 568.039 1050.86 584.787 1052.33 601.287 L 1063.16 729.492 A 32353.9 32353.9 0 0 0 1101.93 1167.18 C 1081.87 1159.07 1056.2 1148.62 1038.16 1137.29 C 1033.85 1129.96 1032.1 1121.48 1030.6 1113.21 C 1023.59 1074.7 1021.05 1035.13 1015.32 996.365 L 973.24 698.481 A 6309.39 6309.39 0 0 0 946.13 512.328 z"/>
<path transform="translate(0,0)" fill="rgb(223,214,188)" d="M 1054.58 554.065 C 1068.41 558.397 1082.05 564.229 1095.63 569.333 C 1114.3 576.354 1133.2 582.962 1151.66 590.527 C 1156.1 615.575 1155.4 642.657 1156.84 668.111 L 1165.43 817.494 L 1178.71 1039.57 C 1182.1 1093.87 1186.16 1148.58 1187.2 1202.97 C 1161.4 1192.01 1135.53 1180.75 1109.27 1170.95 C 1102.13 1125.77 1099.63 1078.79 1095.98 1033.15 L 1081.8 868.345 L 1063.05 653.602 C 1060.21 620.523 1055.98 587.221 1054.58 554.065 z"/>
<path transform="translate(0,0)" fill="rgb(223,214,188)" d="M 1482.74 609.981 C 1484.12 610.1 1483.35 609.903 1484.94 610.914 A 9597.55 9597.55 0 0 0 1490.37 906.898 L 1497.66 1218.88 L 1435.7 1248.16 C 1419.86 1255.73 1403.46 1265.04 1386.58 1269.85 C 1376.98 1272.58 1368.39 1273.14 1358.43 1272.94 C 1355.88 1254.14 1357.08 1233.03 1356.81 1214.03 C 1356.31 1178.85 1355.74 1143.53 1354.65 1108.36 L 1343.63 657.222 C 1354.04 657.927 1364.09 657.996 1374.35 655.806 C 1395.31 651.333 1415.27 640.218 1434.62 631.267 A 2638.46 2638.46 0 0 1 1482.74 609.981 z"/>
<path transform="translate(0,0)" fill="rgb(26,29,34)" d="M 1437.71 732.984 A 20.3027 20.3027 0 0 1 1445.4 734.262 C 1451.99 736.727 1456.71 742.375 1459.34 748.741 C 1464.47 761.148 1463.96 776.053 1458.53 788.252 C 1454.3 797.741 1448.7 803.484 1439.09 807.261 C 1435.73 807.262 1432.46 807.282 1429.29 806.028 C 1422.13 803.2 1417.12 796.553 1414.53 789.519 C 1409.99 777.198 1411.13 762.762 1417 751.084 C 1421.65 741.81 1427.93 736.234 1437.71 732.984 z"/>
<path transform="translate(0,0)" fill="rgb(252,248,226)" d="M 1435.68 742.037 C 1437.19 741.914 1439 741.67 1440.49 741.913 C 1444.71 742.597 1448.55 746.027 1450.71 749.59 C 1455.92 758.194 1455.54 771.037 1452.72 780.344 C 1450.23 788.563 1446.62 794.297 1438.99 798.353 C 1437.73 798.375 1436.26 798.475 1435 798.257 C 1430.51 797.478 1426.61 794.372 1424.06 790.677 C 1419.14 783.549 1418.72 772.94 1420.52 764.736 C 1422.72 754.741 1427.13 747.589 1435.68 742.037 z"/>
<path transform="translate(0,0)" fill="rgb(252,248,226)" d="M 973.478 822.414 C 974.448 822.162 976 822.153 977.015 822.065 C 979.421 824.832 995.784 949.39 997.464 963.642 C 964.645 970.827 931.838 975.252 898.564 979.538 A 2960.99 2960.99 0 0 1 652.366 998.89 C 610.898 1000.73 569.581 1001.87 528.167 1004.97 C 498.535 1007.18 468.736 1009.61 439.961 1017.44 L 436.478 1005.97 C 419.47 955.147 412.497 889.961 406.666 836.604 C 457.61 826.694 506.158 827.796 557.735 829.753 L 657.06 833.378 C 762.683 836.621 868.557 836.383 973.478 822.414 z"/>
<path transform="translate(0,0)" fill="rgb(26,29,34)" d="M 871.514 857.368 C 886.087 856.756 904.133 855.181 917.008 863.23 C 923.619 867.363 928.366 873.873 929.861 881.559 C 931.146 888.165 930.082 895.437 926.043 900.939 C 919.412 909.974 909.782 911.231 899.499 912.49 L 902.483 923.727 A 944.974 944.974 0 0 1 905.2 942.53 C 896.149 943.796 887.146 945.018 878.219 947.013 C 875.779 919.499 871.088 891.814 869.541 864.284 C 869.358 861.014 869.26 859.777 871.514 857.368 z"/>
<path transform="translate(0,0)" fill="rgb(220,122,109)" d="M 875.763 863.306 C 885.827 863.31 898.323 862.115 907.846 865.385 C 914.456 867.655 920.069 872.446 922.983 878.847 C 925.158 883.627 925.724 889.299 923.769 894.252 C 918.534 907.519 905.019 903.894 894.694 908.369 L 894.399 910.322 C 895.446 919.519 897.437 928.629 898.549 937.849 L 883.224 940.574 C 879.519 918.384 877.456 886.343 875.763 863.306 z"/>
<path transform="translate(0,0)" fill="rgb(26,29,34)" d="M 896.985 873.338 C 898.244 873.489 899.784 873.587 901.013 873.98 C 904.438 875.075 907.086 877.676 908.543 880.935 C 909.926 884.029 909.97 888.186 908.323 891.213 C 906.719 894.16 904.372 894.975 901.442 896.142 C 898.456 896.445 895.993 896.613 893 896.041 C 890.08 894.002 887.989 891.229 886.835 887.819 C 885.358 883.459 886.711 879.645 888.602 875.692 C 891.487 873.627 893.505 873.765 896.985 873.338 z"/>
<path transform="translate(0,0)" fill="rgb(252,248,226)" d="M 895.042 878.572 C 896.136 878.745 898.346 878.919 899.405 879.463 C 901.866 880.725 902.273 881.977 903.315 884.338 C 903.198 887.638 902.608 888.799 900.768 891.543 L 896.91 891.081 C 895.122 890.104 893.716 888.388 893.368 886.327 C 892.822 883.094 893.36 881.225 895.042 878.572 z"/>
<path transform="translate(0,0)" fill="rgb(26,29,34)" d="M 727.887 872.99 C 736.583 873.383 745.309 874.248 753.994 874.891 C 755.841 890.186 756.02 907.64 752.4 922.712 C 749.756 933.725 744.167 946.352 734.042 952.261 C 727.497 956.08 719.332 956.464 712.183 954.206 C 700.845 950.624 693.874 940.445 688.942 930.28 C 681.697 912.38 680.982 894.003 680.957 874.973 A 107.255 107.255 0 0 0 703.684 873.975 C 706.271 888.166 704.569 905.012 712.138 917.761 C 713.723 920.431 715.067 921.627 718.04 922.442 C 719.245 921.965 719.486 921.953 720.629 921.051 C 730.174 913.519 728.137 884.137 727.887 872.99 z"/>
<path transform="translate(0,0)" fill="rgb(220,122,109)" d="M 732.987 879.198 C 738.268 879.146 743.576 879.463 748.855 879.654 C 749.833 896.627 750.712 915.652 742.746 931.256 C 738.979 938.634 732.84 946.232 724.614 948.734 C 719.434 950.31 714.253 949.468 709.598 946.805 C 697.45 939.855 692.53 925.536 689.167 912.8 C 687.077 902.334 686.319 891.715 685.827 881.073 L 699.925 880.649 C 700.612 894.597 699.826 913.857 710.207 924.522 C 712.352 926.726 715.331 928.676 718.544 928.408 C 721.335 928.174 723.75 926.529 725.568 924.499 C 735.859 913.003 733.46 893.545 732.987 879.198 z"/>
<path transform="translate(0,0)" fill="rgb(26,29,34)" d="M 509.903 869.298 C 522.439 870.581 535.929 869.195 548.53 868.856 A 916.855 916.855 0 0 1 588.796 869.026 C 589.08 879.192 589.254 889.281 588.942 899.452 C 581.056 898.288 573.273 897.791 565.312 897.439 A 1571.71 1571.71 0 0 1 571.309 948.902 C 572.256 954.533 572.6 960.413 573.216 966.1 C 562.003 964.443 552.287 966.323 541.297 968.248 C 539.481 944.78 537.276 921.269 536.497 897.741 C 528.19 899.161 519.708 899.84 511.329 900.746 C 510.666 890.302 509.671 879.765 509.903 869.298 z"/>
<path transform="translate(0,0)" fill="rgb(220,122,109)" d="M 565.705 874.471 C 571.537 874.255 577.388 874.505 583.221 874.636 L 583.666 892.177 L 559.117 891.708 C 561.409 914.122 563.5 936.804 566.977 959.061 C 561.221 959.213 551.4 962.281 546.081 960.823 L 545.522 958.243 A 3651.95 3651.95 0 0 0 541.52 891.513 C 533.154 892.228 524.666 894.146 516.366 895.497 L 514.931 875.945 C 531.831 875.111 548.789 874.904 565.705 874.471 z"/>
<path transform="translate(0,0)" fill="rgb(26,29,34)" d="M 609.307 870.535 C 620.023 869.844 631.211 868.835 641.743 871.522 C 649.79 873.575 658.253 878.03 662.304 885.613 C 664.818 890.32 665.321 895.71 663.538 900.766 C 660.618 909.045 654.379 912.516 646.91 915.985 C 658.283 927.72 667.714 943.383 676.549 957.136 C 670.788 957.843 664.96 957.912 659.163 958.126 C 656.718 958.509 654.462 958.658 651.998 958.698 C 643.463 954.661 637.717 941.939 631.509 934.742 C 631.523 943.639 631.96 952.416 632.617 961.288 C 625.883 961.751 619.15 962.585 612.436 963.289 C 611.326 951.721 604.113 878.474 606.667 871.324 L 609.307 870.535 z"/>
<path transform="translate(0,0)" fill="rgb(220,122,109)" d="M 610.946 875.085 C 622.834 874.66 635.477 873.261 646.628 878.285 C 651.272 880.378 656.117 883.804 657.889 888.803 C 659.257 892.661 659.023 896.598 657.219 900.267 C 653.242 908.357 645.907 910.343 637.997 912.954 C 647.574 925.873 657.255 938.643 666.602 951.743 C 662.561 952.11 658.64 952.915 654.664 953.695 C 649.926 954.459 637.94 929.955 629.542 928.048 C 624.305 931.681 626.816 947.75 624.11 954.208 C 621.783 956.326 621.408 956.367 618.278 956.872 L 616.824 955.727 C 612.74 929.393 612.624 901.7 610.946 875.085 z"/>
<path transform="translate(0,0)" fill="rgb(26,29,34)" d="M 622.033 884.521 C 622.411 884.554 622.79 884.582 623.167 884.62 C 627.732 885.081 634.125 885.233 636.91 889.515 C 639.491 893.483 637.392 899.367 636.159 903.441 C 634.221 904.09 631.387 905.266 629.351 905.28 C 627.708 905.291 626.293 905.057 625.122 903.882 C 621.214 899.959 622.235 889.771 622.033 884.521 z"/>
<path transform="translate(0,0)" fill="rgb(26,29,34)" d="M 832.179 855.203 C 834.689 854.919 836.259 854.777 838.741 855.482 C 842.574 865.469 844.171 876.845 846.734 887.25 A 1695.01 1695.01 0 0 0 860.605 939.48 C 851.469 940.601 842.361 940.476 833.325 942.536 C 830.896 930.356 828.779 918.195 825.184 906.286 C 822.064 912.059 819.841 919.438 814.326 923.302 C 803.513 924.71 802.197 912.338 794.333 908.58 C 794.066 911.813 794.754 914.967 795.262 918.149 C 796.327 926.593 797.524 934.905 799.248 943.242 L 774.421 947.105 C 771.932 920.508 769.208 893.766 767.759 867.096 L 786.152 865.979 C 793.821 871.924 800.428 878.944 807.252 885.817 A 206.606 206.606 0 0 1 822.282 857.579 L 832.179 855.203 z"/>
<path transform="translate(0,0)" fill="rgb(220,122,109)" d="M 829.245 861.467 L 832.836 862.281 C 838.326 868.902 849.928 922.915 852.797 934.369 L 836.514 935.106 C 835.443 926.499 832.598 902.489 825.923 897.067 C 824.614 896.004 824.067 896.444 822.532 896.6 C 817.937 900.418 814.826 911.677 811.434 917.376 C 805.411 911.831 798.861 900.824 791.476 897.646 C 789.519 896.804 790.345 896.947 788.201 897.766 L 787.171 902.908 C 787.43 914.604 790.083 927.003 791.758 938.617 L 779.812 940.477 A 1803.93 1803.93 0 0 0 776.001 899.999 C 774.981 890.944 773.03 881.505 773.234 872.403 C 774.873 871.617 775.588 871.031 777.46 871.074 C 788.617 871.326 802.73 889.383 809.762 897.246 C 815.588 885.942 818.192 868.824 829.245 861.467 z"/>
<path transform="translate(0,0)" fill="rgb(252,248,226)" d="M 998.58 1001.12 L 1002.05 1000.92 C 1005.26 1005.97 1016.77 1104.58 1019.97 1120.05 C 966.207 1152.2 908.164 1178.58 851.053 1204.19 L 728.207 1259.26 L 622.68 1306.91 C 601.655 1316.44 580.541 1326.92 558.888 1334.9 C 547.68 1339.04 537.294 1341.76 525.404 1342.84 A 194.235 194.235 0 0 0 529.216 1339.75 C 546.428 1325.38 550.915 1308.22 552.831 1286.76 C 552.031 1277.56 550.764 1268.98 547.967 1260.15 C 542.245 1242.09 532.383 1225.34 523.128 1208.9 C 511.054 1187.46 498.344 1166.2 487.105 1144.3 C 471.701 1114.3 458.814 1084.01 447.081 1052.4 C 499.304 1037.86 582.879 1036.94 638.511 1034.88 C 724.045 1031.71 808.901 1028.7 894.001 1018.41 C 929.071 1014.17 964.24 1009.61 998.58 1001.12 z"/>
<path transform="translate(0,0)" fill="rgb(26,29,34)" d="M 781.81 1066.41 C 784.162 1066.11 785.825 1065.92 788.18 1066.42 C 756.782 1076.86 723.628 1082.68 691.578 1090.78 A 920.219 920.219 0 0 0 576.738 1128.04 L 573.178 1129.09 L 572.347 1128.61 C 597.344 1102.57 742.139 1070.54 781.81 1066.41 z"/>
<path transform="translate(0,0)" fill="rgb(26,29,34)" d="M 972.644 1064.14 L 973.178 1064.39 C 971.094 1069.17 942.823 1085.59 937.162 1088.77 C 897.356 1111.12 855.481 1130.2 814.891 1151.11 C 779.131 1169.53 743.898 1190.46 707.208 1206.88 L 706.579 1206.32 C 716.323 1187.76 938.051 1081.66 972.644 1064.14 z"/>
<path transform="translate(0,0)" fill="rgb(223,214,188)" d="M 1446.63 250.268 C 1450.5 249.761 1454.83 249.693 1458.73 249.822 C 1466.53 250.077 1474.15 251.741 1481.48 254.354 C 1506.16 263.148 1530.2 274.582 1554.57 284.269 A 14477.5 14477.5 0 0 0 1747.53 359.745 A 1477.83 1477.83 0 0 0 1791.95 375.693 C 1801.54 378.902 1811.79 381.486 1820.96 385.697 C 1824.82 387.468 1828.29 389.494 1831.15 392.682 C 1840.9 403.552 1837.32 421.57 1836.45 434.911 C 1833.87 437.84 1831.17 440.402 1828.06 442.771 C 1815.64 452.23 1770.68 468.795 1753.15 476.308 L 1601.9 542.249 L 1457.91 607.372 C 1433.36 618.633 1408.62 632.597 1383.09 641.138 C 1366.56 646.67 1350.8 646.703 1333.73 644.201 C 1305.81 637.29 1279.21 625.317 1252.45 614.925 C 1220.89 602.67 1188.95 591.113 1157.19 579.359 L 1025.7 530.444 C 1005.92 523.16 968.98 511.911 952.978 501.905 C 946.707 497.983 941.1 491.768 939.754 484.288 C 938.76 478.767 940.348 473.507 943.564 468.99 C 948.059 462.676 955.138 458.037 962.031 454.684 C 986.507 442.781 1012.48 433.083 1037.47 422.215 L 1251.84 331.089 A 9023.49 9023.49 0 0 1 1394.73 270.118 C 1411.23 263.319 1429.1 253.039 1446.63 250.268 z"/>
<path transform="translate(0,0)" fill="rgb(26,29,34)" d="M 1444.8 280.329 C 1455.33 278.963 1466.77 279.51 1476.99 282.487 C 1487.9 285.665 1498.58 290.965 1509.08 295.311 C 1521.11 300.287 1533.37 304.765 1545.53 309.414 L 1698.17 368.262 C 1717.04 375.424 1771.08 393.367 1785.34 403.219 C 1789.71 406.243 1793.62 409.707 1794.68 415.099 C 1793.75 420.496 1791.05 425.802 1786.54 429.134 C 1776.43 436.613 1727.4 455.007 1711.78 461.674 L 1542.09 535.767 A 5977.58 5977.58 0 0 0 1443.82 581.261 C 1424.63 590.344 1405.32 600.882 1385.25 607.784 C 1367.82 613.781 1350.19 614.453 1332.01 612.368 C 1311.23 608.045 1292.07 598.806 1272.49 590.938 C 1256.73 584.609 1240.68 578.909 1224.78 572.946 L 996.72 488.725 C 991.904 486.975 981.395 483.918 979.153 479.186 C 979.623 478.132 979.587 478.065 980.439 477.012 C 982.982 473.865 988.133 471.441 991.743 469.787 C 1050.21 443.002 1110.95 420.574 1169.97 394.931 L 1352.73 315.572 C 1379.22 304.307 1417.34 284.846 1444.8 280.329 z"/>
<path transform="translate(0,0)" fill="rgb(252,248,226)" d="M 1464.46 406.627 C 1473.86 408.09 1488.74 414.341 1498.52 417.226 C 1525.19 425.089 1552.11 432.117 1578.65 440.385 C 1560.23 458.514 1542.95 478.132 1522.8 494.376 C 1506.36 490.244 1491.78 482.859 1474.62 487.523 C 1466.7 491.401 1459.19 496.161 1451.31 500.183 C 1421.29 495.125 1391.85 488.451 1361.59 484.507 C 1373.41 473.695 1387.43 464.75 1400.34 455.236 A 2691.14 2691.14 0 0 0 1464.46 406.627 z"/>
<path transform="translate(0,0)" fill="rgb(252,248,226)" d="M 1227.15 416.967 C 1230.66 419.285 1245.21 466.412 1248.3 474.241 A 352.851 352.851 0 0 0 1270.2 520.407 C 1248.94 531.973 1225.69 542.919 1203.44 552.509 L 1183.04 544.964 C 1175.28 542.269 1167.66 539.513 1160.15 536.192 C 1148.53 512.198 1135.29 485.786 1129.9 459.64 C 1163.3 447.48 1195.15 432.347 1227.15 416.967 z"/>
<path transform="translate(0,0)" fill="rgb(223,214,188)" d="M 1446.99 292.344 C 1450.61 292.057 1454.28 291.728 1457.91 291.798 C 1464.92 291.934 1472.08 293.876 1478.67 296.166 C 1495.3 301.949 1511.62 309.115 1528.01 315.581 L 1615.44 349.645 L 1717.54 388.756 C 1734.12 395.02 1750.97 400.702 1767.41 407.335 C 1772.2 409.268 1778.21 411.457 1781.86 415.16 L 1781.58 416.594 C 1769.91 426.352 1731.31 439.621 1715.43 446.734 C 1634.15 483.151 1551.08 516.089 1471.22 555.581 C 1471.41 543.054 1469.03 515.416 1471.73 505.018 C 1472.6 501.656 1474.28 498.969 1477.44 497.376 C 1488.32 491.903 1512.86 502.101 1523.49 505.65 C 1537.27 494.189 1585.9 450.241 1591.72 436.101 C 1590.22 433.886 1588.41 433.406 1585.94 432.592 C 1572.47 428.153 1557.92 425.437 1544.21 421.683 A 3526.95 3526.95 0 0 1 1468.87 399.71 C 1468.64 387.523 1471.36 332.29 1465.69 325.557 C 1463.83 325.728 1464.04 325.324 1462.98 326.513 C 1461.65 327.995 1460.93 329.767 1460.7 331.732 C 1459.93 338.348 1460.91 346.11 1460.96 352.87 L 1461.08 399.003 C 1451.11 407.621 1439.99 415.257 1429.39 423.109 L 1376.93 461.772 C 1367.82 468.414 1358.01 474.773 1349.47 482.107 C 1347.3 483.972 1344.82 485.908 1344.15 488.805 C 1349.47 492.451 1416.61 502.27 1429.63 504.744 L 1454.44 509.139 L 1464.11 503.566 C 1462.7 521.873 1463.41 540.689 1463.01 559.069 C 1444.69 567.507 1426.55 576.342 1408.32 584.977 C 1360.56 607.604 1338.19 606.479 1289.88 585.456 C 1266.05 575.091 1240.84 564.042 1215.83 556.998 L 1214.04 556.503 C 1236.16 544.755 1259.9 536.227 1281.9 524.458 C 1275.83 508.71 1266.11 493.891 1259.39 478.206 C 1253.83 465.218 1248.34 451.978 1243.87 438.572 C 1240.98 429.898 1238.86 420.368 1235.24 411.991 C 1234.13 409.406 1233.09 407.504 1231 405.616 C 1228.34 405.794 1161.23 437.791 1152.11 441.643 C 1144.82 444.721 1126.2 450.162 1121.31 455.034 C 1119.57 471.304 1139.66 514.021 1146.57 531.094 C 1098.15 516.534 1051 494.08 1002.9 477.865 C 1028.8 468.629 1054.13 456.152 1079.63 445.696 C 1162.1 411.872 1243.48 375.862 1325.33 340.592 L 1393.35 311.455 C 1410.28 304.346 1428.73 294.912 1446.99 292.344 z"/>
<path transform="translate(0,0)" fill="rgb(252,248,226)" d="M 404.381 803.653 C 399.486 688.18 397.519 515.702 481.101 425.309 C 484.085 422.082 486.851 419.719 490.897 417.925 C 503.251 412.446 518.998 411.056 532.245 408.447 A 1248.56 1248.56 0 0 1 738.83 384.433 C 782.828 383.058 862.155 380.393 895.978 411.884 C 907.197 422.329 914.213 434.789 919.209 449.161 C 932.73 488.061 936.903 531.387 942.96 571.973 L 973.409 788.299 A 1049.13 1049.13 0 0 1 935.509 793.685 C 926.772 794.733 917.559 795.265 908.949 797.032 L 916.325 798.569 L 916.555 799.76 C 915.111 801.003 913.621 802.016 912.021 803.05 C 885.315 806.548 857.9 808.009 831.008 809.426 C 727.753 814.867 625.64 808.15 522.581 802.998 C 520.826 801.033 519.771 798.802 518.582 796.478 C 495.491 790.461 429.054 799.095 404.381 803.653 z"/>
<path transform="translate(0,0)" fill="rgb(26,29,34)" d="M 890.296 602.453 L 891.358 602.8 C 887.615 606.671 810.794 632.125 796.918 637.974 A 705.072 705.072 0 0 0 704.471 684.787 L 703.356 684.672 C 703.703 683.853 703.725 683.68 704.363 682.879 C 708.665 677.479 716.769 672.501 722.447 668.625 C 763.145 640.847 841.18 606.55 890.296 602.453 z"/>
<path transform="translate(0,0)" fill="rgb(26,29,34)" d="M 820.17 473.369 C 822.024 473.088 822.064 472.905 823.93 473.633 C 819.283 478.716 792.623 483.784 785.081 486.082 C 692.529 514.29 588.66 557.203 536.834 644.066 L 535.442 645.327 C 534.902 635.496 546.256 618.881 552.117 611.126 C 605.815 540.083 733.458 485.859 820.17 473.369 z"/>
<path transform="translate(0,0)" fill="rgb(26,29,34)" d="M 777.543 437.478 C 779.015 437.328 779.717 437.553 781.115 437.952 C 778.144 440.422 759.437 442.613 754.321 443.708 C 740.813 446.598 727.179 450.349 713.971 454.425 C 624.193 482.136 541.989 536.094 497.07 620.605 L 495.888 621.314 L 495.527 619.751 C 502.399 595.735 517.826 573.362 534.361 554.91 C 592.853 489.637 689.867 442.087 777.543 437.478 z"/>
<path transform="translate(0,0)" fill="rgb(26,29,34)" d="M 518.582 796.478 C 538.914 794.806 561.021 797.829 581.412 799.026 A 2917.19 2917.19 0 0 0 684.797 803.504 A 2142.27 2142.27 0 0 0 834.693 802.128 C 859.463 800.973 884.22 797.873 908.949 797.032 L 916.325 798.569 L 916.555 799.76 C 915.111 801.003 913.621 802.016 912.021 803.05 C 885.315 806.548 857.9 808.009 831.008 809.426 C 727.753 814.867 625.64 808.15 522.581 802.998 C 520.826 801.033 519.771 798.802 518.582 796.478 z"/>
<path transform="translate(0,0)" fill="rgb(252,248,226)" d="M 872.82 0 L 2048 0 L 2048 1140.46 L 1879.14 1066.16 C 1851.38 1053.78 1821.56 1042.76 1795.33 1027.55 C 1797.03 1017.34 1797.15 1006.4 1798.04 996.042 L 1803.94 926.942 A 15226.1 15226.1 0 0 1 1820.36 748.413 L 1826.11 684.023 C 1826.98 673.642 1826.68 662.768 1828.76 652.566 C 1830.31 644.958 1834.65 638.385 1836.93 631.015 C 1840.06 620.93 1838.31 608.706 1833.6 599.329 C 1837.43 572.836 1838.2 545.086 1840.68 518.345 C 1843.8 484.835 1848.86 450.359 1849.38 416.728 C 1849.49 409.541 1849.24 400.333 1846.43 393.643 C 1843.56 386.825 1835.57 379.625 1829.09 376.383 C 1816.95 370.3 1802.66 366.482 1789.82 361.924 A 3836.62 3836.62 0 0 1 1721.76 336.813 A 13492.8 13492.8 0 0 1 1500.6 248.784 C 1485.63 242.746 1472.24 237.834 1455.81 237.965 A 84.5791 84.5791 0 0 0 1432.7 241.436 C 1419.01 245.401 1405.57 252.074 1392.45 257.664 L 1324.18 286.763 C 1299.53 267.354 1271.73 257.866 1240.49 256.632 C 1175.09 254.049 1067.87 298.397 1019.76 343.597 C 1009.63 353.12 998.507 366.422 998.369 381.027 C 998.23 395.822 1008.34 407.433 1018.04 417.401 C 991.43 429.382 955.67 440.465 934.964 460.601 C 933.061 453.705 930.804 446.794 928.086 440.174 C 916.952 413.057 898.937 396.135 872.266 384.826 C 871.528 324.946 872.399 264.927 872.672 205.038 L 872.82 0 z"/>
<path transform="translate(0,0)" fill="rgb(252,248,226)" d="M 0 0 L 863.836 0 L 863.643 238.459 C 863.743 286.449 864.929 334.706 863.713 382.668 C 764.949 360.85 587.087 382.903 488.415 407.741 C 485.669 402.727 482.528 395.233 476.532 393.52 C 472.399 392.338 466.797 396.487 463.688 398.778 C 451.494 407.762 441.075 419.152 430.961 430.358 C 429.082 423.57 427.113 410.642 419.927 407.533 C 417.582 406.518 415.341 407.069 413.123 408.091 C 404.286 412.163 390.713 432.205 384.811 440.411 C 382.62 434.782 380.46 425.072 374.678 422.506 C 367.228 423.458 361.557 431.467 357.238 437.077 C 350.462 445.881 344.5 455.38 338.708 464.853 C 336.706 459.07 334.758 449.726 329.397 446.214 C 324.967 446.413 322.585 448.826 319.66 451.995 C 302.453 470.635 289.231 496.202 279.251 519.295 C 238.815 612.85 230.075 718.353 234.929 819.228 A 1184.27 1184.27 0 0 0 269.949 1054.14 C 275.038 1073.88 280.234 1094.51 287.241 1113.67 C 266.752 1124.66 245.324 1133.99 224.202 1143.69 L 145.994 1179.83 C 97.4454 1202.06 49.2618 1226.08 0 1246.62 L 0 0 z"/>
<path transform="translate(0,0)" fill="rgb(223,214,188)" d="M 1794.28 1038.36 C 1843.05 1062.63 1893.88 1083.86 1943.91 1105.41 A 10837.3 10837.3 0 0 1 2048 1151.55 L 2048 2048 L 0 2048 L 0 1257.27 A 26079.5 26079.5 0 0 0 290.432 1123.92 C 313.524 1191.69 340.067 1258.97 377.953 1319.98 C 387.571 1335.47 400.196 1357.1 417.365 1365.06 C 420.806 1366.66 423.563 1367.34 427.303 1366.2 C 431.442 1363.03 432.247 1358.93 432.927 1354 C 433.112 1352.66 433.246 1351.33 433.371 1349.98 L 434.728 1350.55 C 443.854 1354.51 460.972 1370.56 471.013 1366.59 C 473.304 1365.69 476.522 1363.03 478.707 1362.62 C 490.311 1360.46 496.727 1368.9 503.312 1352 C 504.796 1348.19 505.649 1344.87 504.183 1340.93 C 502.252 1339.62 502.057 1339.19 499.661 1339.78 C 498.088 1340.17 496.761 1340.98 495.32 1341.69 C 492.164 1343.24 490.511 1343.51 487.096 1343.03 C 486.571 1342.96 486.043 1342.9 485.52 1342.82 C 485.197 1342.77 484.878 1342.69 484.557 1342.62 C 448.927 1312.35 406.751 1226.31 388.439 1182.16 C 384.46 1172.56 362.152 1106.59 359.319 1104.1 C 357.251 1113.43 362.41 1126.83 365.105 1135.7 C 381.933 1191.13 407.989 1245.2 439.095 1294.02 C 449.963 1311.08 470.75 1346.53 490.637 1351.04 A 79.9572 79.9572 0 0 0 493.131 1351.55 L 493.647 1352.38 C 492.432 1354.75 492.006 1354.58 489.486 1355.59 C 484.843 1355.54 479.486 1351.93 475.357 1349.85 L 470.158 1358.38 A 113.435 113.435 0 0 1 467.232 1357.58 C 428.752 1346.44 372.088 1229.42 356.237 1193.33 C 348.648 1176.06 343.408 1156.54 334.286 1140.14 C 334.087 1139.79 333.878 1139.43 333.675 1139.08 C 340.709 1187.33 382.096 1265.41 409.944 1306.44 C 418.996 1319.78 429.096 1332.04 439.414 1344.41 L 425.17 1341.04 C 425.275 1345.94 426.174 1352.2 423.524 1356.52 C 421.072 1356.83 422.024 1357.08 419.925 1356 C 388.247 1339.76 335.867 1217.93 322.25 1183.04 A 1158.85 1158.85 0 0 1 295.92 1106.68 C 339.425 1083.43 388.248 1066.23 436.136 1054.73 C 441.141 1066.5 445.37 1078.6 450.38 1090.38 C 457.94 1108.15 466.565 1125.65 475.244 1142.9 C 493.474 1179.15 536.22 1240.59 541.401 1277.37 C 544.191 1297.18 539.991 1312.18 528.063 1328.13 C 520.685 1322.25 517.038 1325.24 509.632 1322.06 C 502.181 1318.87 496.159 1309.47 491.289 1303.25 C 448.653 1248.84 422.607 1182.21 398.761 1118 C 397.136 1113.63 393.568 1103.37 389.361 1101.42 L 390.323 1105.71 L 388.658 1106.77 L 390.346 1106.81 C 398.968 1146.67 420.145 1193.07 438.826 1229.43 C 452.465 1255.97 480.542 1308.67 503.688 1326.01 C 509.041 1330.02 514.305 1331.83 520.576 1333.85 C 518.177 1336.15 515.745 1338.58 514.39 1341.68 C 513.345 1344.07 513.383 1345.96 514.263 1348.4 C 515.937 1350.36 517.283 1351.35 519.72 1352.11 C 529.38 1355.1 542.362 1351.47 551.704 1348.38 C 570.331 1342.23 588.427 1332.86 606.307 1324.81 L 702.832 1281.52 C 810.027 1233.93 918.291 1188.76 1021.5 1132.78 A 111.544 111.544 0 0 0 1024.37 1137.71 C 1027.47 1142.72 1030.53 1146.81 1035.71 1149.8 C 1054.32 1160.53 1075.75 1168.53 1095.44 1177.1 L 1212.84 1227.41 L 1294.09 1262.53 C 1310.71 1269.74 1328.87 1279.53 1346.59 1283.42 C 1363.63 1287.16 1380.03 1284.71 1396.33 1279.23 C 1408.59 1275.11 1420.47 1269.02 1432.21 1263.61 L 1492.35 1235.54 L 1665.43 1155.19 L 1746.94 1118.11 C 1758.69 1112.76 1774.75 1107.45 1784.93 1099.72 C 1792.97 1093.62 1793.57 1048.75 1794.28 1038.36 z"/>
<path transform="translate(0,0)" fill="rgb(26,29,34)" d="M 415.947 1081.55 C 420.194 1083.38 421.183 1088.22 422.617 1092.3 C 441.139 1145.06 460.72 1196.45 488.309 1245.28 C 495.468 1257.95 502.754 1270.68 510.798 1282.82 C 516.578 1291.54 524.059 1300.27 528.791 1309.56 C 529.078 1310.13 529.353 1310.7 529.634 1311.26 C 526.059 1310.7 524.44 1309.75 521.914 1307.2 C 512.403 1297.62 505.221 1285.67 498.065 1274.29 A 730.75 730.75 0 0 1 426.708 1123.22 C 422.474 1110.96 415.971 1094.42 415.947 1081.55 z"/>
<path transform="translate(0,0)" fill="rgb(26,29,34)" d="M 1731.52 1322.3 C 1741.91 1321.93 1751.9 1322.72 1761.6 1326.75 C 1767.62 1329.25 1776.23 1334.43 1778.08 1341.21 C 1778.77 1343.72 1778.06 1345.76 1776.58 1347.79 C 1772.19 1353.86 1762 1355.68 1755.11 1356.93 C 1743.62 1357.12 1732.8 1356.07 1722.02 1351.8 C 1716.67 1349.68 1707.31 1344.73 1705.57 1338.61 C 1704.85 1336.05 1705 1334.57 1706.37 1332.29 C 1710.04 1326.23 1724.89 1323.16 1731.52 1322.3 z"/>
<path transform="translate(0,0)" fill="rgb(220,122,109)" d="M 1726.63 1329.2 C 1731.22 1328.84 1736.09 1328.47 1740.67 1328.85 C 1748.53 1329.5 1764.29 1332.64 1769.5 1339.3 C 1770.7 1340.84 1770.31 1340.99 1770.16 1342.79 C 1766.71 1346.64 1761.02 1347.62 1756.21 1348.72 C 1745.64 1349.54 1733.76 1348.23 1723.77 1344.6 C 1719.39 1343.01 1715.71 1341.73 1713.68 1337.35 L 1714.69 1334.78 C 1718.07 1331.63 1722.34 1330.63 1726.63 1329.2 z"/>
<path transform="translate(0,0)" fill="rgb(26,29,34)" d="M 1785.37 1251.34 C 1814.5 1248.24 1845.82 1257.15 1870.51 1272.5 C 1880.55 1278.75 1891.42 1287.38 1893.91 1299.57 C 1894.93 1304.6 1894.19 1309.57 1891.08 1313.73 C 1883.13 1324.37 1865.68 1328.13 1853.24 1329.8 C 1823.02 1332.14 1790.47 1326.29 1764.51 1309.95 C 1754.7 1303.78 1744.59 1295.13 1742.22 1283.22 C 1741.22 1278.16 1742.09 1273.36 1745.16 1269.18 C 1753.59 1257.71 1772.02 1253.26 1785.37 1251.34 z"/>
<path transform="translate(0,0)" fill="rgb(220,122,109)" d="M 1787.74 1259.39 C 1814.82 1256.53 1846.84 1266.14 1869.04 1281.56 C 1875.89 1286.32 1884.55 1293.78 1885.75 1302.48 C 1886.14 1305.33 1885.38 1308.03 1883.55 1310.24 C 1876.71 1318.52 1859.37 1320.78 1849.25 1321.45 C 1822.65 1323.89 1789.34 1315.77 1766.95 1301.14 C 1760.49 1296.92 1751.27 1289.1 1750.35 1280.87 C 1750 1277.69 1750.68 1275.14 1752.79 1272.7 C 1760.07 1264.26 1777.05 1260.63 1787.74 1259.39 z"/>
<path transform="translate(0,0)" fill="rgb(26,29,34)" d="M 144.78 1298.32 C 165.313 1298.92 249.977 1318.16 265.004 1328.27 C 275.522 1335.34 283.782 1346.06 285.927 1358.74 C 288.24 1372.41 283.137 1386.55 275.012 1397.45 C 267.341 1407.75 257.161 1415.36 244.297 1417.33 C 236.374 1417.83 229.315 1417.22 221.535 1415.61 C 204.743 1412.14 126.186 1388.75 115.092 1381.54 C 107.8 1376.8 102.888 1366.93 101.425 1358.57 C 99.0385 1344.94 103.255 1330.3 111.35 1319.27 C 119.579 1308.04 130.964 1300.44 144.78 1298.32 z"/>
<path transform="translate(0,0)" fill="rgb(220,122,109)" d="M 212.506 1321.92 C 215.993 1321.82 219.264 1322.05 222.728 1322.43 C 221.074 1325.65 203.209 1330.91 194.677 1349.15 C 187.571 1364.35 188.392 1379.37 193.877 1394.77 C 194.457 1395.71 194.104 1395.02 194.421 1397.04 L 192.765 1397.37 C 190.475 1396.27 189.257 1395.1 187.864 1393.03 C 181.484 1383.55 181.671 1370.35 183.763 1359.44 C 187.069 1342.21 198.775 1331.35 212.506 1321.92 z"/>
<path transform="translate(0,0)" fill="rgb(252,248,226)" d="M 144.818 1307.15 C 164.236 1308.18 187.167 1315.35 206.13 1320.26 C 202.998 1322.29 199.793 1324.32 196.961 1326.76 C 184.2 1337.77 178.022 1351.9 176.622 1368.46 C 175.925 1376.71 181.367 1387.19 180.22 1393.61 L 177.77 1393.3 C 163.334 1388.48 135.564 1382.53 123.583 1375.74 C 117.42 1372.25 112.75 1366.7 110.947 1359.79 C 108.213 1349.32 111.493 1337.04 116.821 1327.91 C 123.317 1316.77 132.449 1310.24 144.818 1307.15 z"/>
<path transform="translate(0,0)" fill="rgb(220,122,109)" d="M 228.903 1328.1 C 236.809 1327.67 243.351 1327.99 250.873 1330.93 C 261.418 1335.06 270.836 1343.09 274.99 1353.8 C 278.773 1363.55 277.784 1374.15 273.318 1383.5 C 267.422 1395.84 258.075 1403.73 245.431 1408.36 C 233.654 1409.57 220.029 1408.83 209.48 1402.95 C 202.488 1399.05 198.375 1392.8 196.351 1385.16 A 48.1838 48.1838 0 0 1 201.265 1348.52 C 207.8 1337.31 216.728 1331.54 228.903 1328.1 z"/>
<path transform="translate(0,0)" fill="rgb(26,29,34)" d="M 1076.86 1206.8 C 1086.37 1209.4 1096.47 1214.86 1105.73 1218.62 A 6225.9 6225.9 0 0 0 1174.24 1246.16 C 1278.62 1287.22 1381.63 1332.15 1486.68 1371.39 A 4698.47 4698.47 0 0 0 1609.78 1415.39 C 1619.63 1418.7 1691.92 1441.15 1694.3 1442.77 C 1695.66 1443.69 1695.25 1443.5 1695.46 1445.26 C 1694.64 1446.15 1693.99 1446.89 1692.95 1447.52 C 1682.31 1453.98 1669.38 1458.82 1658.12 1464.47 C 1630.14 1478.52 1602.22 1492.89 1575.39 1509.05 C 1603.28 1524.21 1632.32 1537.74 1660.66 1552.08 A 7225.72 7225.72 0 0 0 1877.47 1659.09 L 1928.06 1683.42 C 1934.03 1686.23 1940.38 1688.51 1946.25 1691.47 C 1948.72 1692.72 1950.21 1693.48 1951.3 1696.04 C 1950.96 1697.12 1950.79 1697.89 1950.11 1698.88 C 1945.39 1705.71 1852.78 1747.06 1837.45 1754.5 L 1545.8 1893.37 A 7451.95 7451.95 0 0 0 1476.31 1926.75 C 1464.28 1932.58 1451.62 1940 1438.9 1944.04 C 1388.79 1917.11 1336.75 1893.01 1285.8 1867.6 C 1240.49 1845 1195.57 1820.39 1149.18 1800.13 C 1134.07 1804.34 1118.47 1813.68 1104.25 1820.49 C 989.325 1872.68 875.801 1927.81 761.281 1980.85 C 740.87 1971.37 720.808 1961.01 700.515 1951.26 L 447.857 1827.6 L 271.892 1741.6 C 244.253 1728.21 215.832 1715.71 188.515 1701.78 C 185.058 1700.01 182.097 1698.22 179.683 1695.14 L 179.946 1693.38 C 184.954 1688.71 263.733 1655.63 277.753 1649.43 L 396.275 1596.9 C 441.821 1576.35 487.41 1555.26 533.975 1537.1 C 522.552 1532.83 488.239 1522.9 480.616 1517.16 C 478.706 1515.72 479.182 1516.52 478.904 1514.38 C 496.903 1501.21 522.876 1490.5 543.154 1480.39 L 639.375 1431.53 A 26487.8 26487.8 0 0 0 991.772 1251.52 C 1020.12 1236.59 1048.79 1222.25 1076.86 1206.8 z"/>
<path transform="translate(0,0)" fill="rgb(220,122,109)" d="M 1052.42 1751.99 C 1063.8 1755.04 1075.73 1762.67 1086.16 1768.26 C 1066.15 1779.95 761.9 1924.05 756.552 1924.45 C 744.051 1918.1 731.102 1912.45 718.393 1906.52 C 787.582 1871.88 858.698 1840.06 928.896 1807.49 C 969.624 1788.59 1009.75 1766.12 1052.42 1751.99 z"/>
<path transform="translate(0,0)" fill="rgb(220,122,109)" d="M 1079.31 1258.03 C 1091.34 1260.78 1104.14 1267.49 1115.19 1273 C 1064.5 1303.3 1009.82 1329.47 957.502 1356.95 A 13987.7 13987.7 0 0 1 693.013 1495.08 C 684.134 1499.61 634.631 1527.64 629.949 1528.71 C 629.23 1528.87 628.492 1528.48 627.763 1528.37 C 614.576 1522.66 601.586 1516.41 588.54 1510.38 L 1079.31 1258.03 z"/>
<path transform="translate(0,0)" fill="rgb(252,248,226)" d="M 814.992 1439.9 C 826.661 1448.77 846.855 1455.45 860.62 1461.31 L 932.185 1491.47 L 821.339 1543.43 C 798.737 1553.91 775.025 1563.6 753.471 1576.08 L 744.079 1581.81 C 731.787 1577.39 719.762 1571.05 707.912 1565.53 L 637.507 1532.24 C 658.151 1518.76 682.131 1508.12 704.081 1496.81 C 741.034 1477.78 777.817 1458.51 814.992 1439.9 z"/>
<path transform="translate(0,0)" fill="rgb(252,248,226)" d="M 772.544 1644.17 C 782.495 1646.85 792.518 1652.22 801.992 1656.39 L 858.474 1681.33 L 1026.65 1753.69 C 982.637 1776.95 936.369 1797.12 891.188 1818.03 L 879.501 1823.73 L 714.419 1739.11 C 690.442 1727.01 666.869 1712.64 642.005 1702.54 A 3751.06 3751.06 0 0 1 726.931 1663.85 C 742.085 1657.2 757.621 1651.31 772.544 1644.17 z"/>
<path transform="translate(0,0)" fill="rgb(252,248,226)" d="M 634.965 1705.97 C 642.95 1710.72 651.776 1714.56 660.066 1718.78 L 713.331 1746.02 L 871.605 1827.41 C 850.291 1836.76 829.482 1847.27 808.421 1857.18 L 715.751 1900.55 C 711.574 1902.55 710.815 1901.78 706.71 1900.3 C 687.33 1891.39 668.47 1881.2 649.375 1871.68 L 529.358 1811.73 C 508.225 1801.16 487.207 1789.88 465.563 1780.41 A 8674.69 8674.69 0 0 1 634.965 1705.97 z"/>
<path transform="translate(0,0)" fill="rgb(220,122,109)" d="M 593.25 1563.11 C 613.553 1573.31 635.32 1580.59 655.121 1591.89 C 674.311 1599.98 693.022 1609.31 712.105 1617.68 C 729.399 1625.26 747.863 1631.95 764.397 1641.04 C 721.908 1657.9 680.467 1677.88 638.827 1696.73 A 7718.44 7718.44 0 0 1 458.199 1776.46 A 4182.21 4182.21 0 0 1 403.683 1749.94 A 2758.28 2758.28 0 0 0 295.221 1697.38 C 321.775 1684.84 348.98 1673.65 375.753 1661.58 L 593.25 1563.11 z"/>
<path transform="translate(0,0)" fill="rgb(252,248,226)" d="M 399.546 1679.12 C 408.499 1681.55 417.387 1686.03 425.974 1689.59 L 448.842 1680.46 C 447.408 1686.89 445.085 1693.05 442.925 1699.26 C 449.724 1704.22 456.568 1709.13 463.103 1714.45 L 439.75 1714.23 C 438.671 1714.2 438.106 1714.15 436.981 1714.25 C 430.695 1714.81 424.083 1725.8 420.206 1730.52 C 416.852 1724.98 413.403 1719.57 411.02 1713.52 A 1857.41 1857.41 0 0 0 382.853 1711.01 C 389.03 1705.83 395.643 1701.59 402.445 1697.28 L 399.546 1679.12 z"/>
<path transform="translate(0,0)" fill="rgb(252,248,226)" d="M 506.003 1633.63 C 513.943 1637.96 522.002 1641.94 530.141 1645.88 C 539.622 1644.53 549.112 1641.85 558.451 1639.69 C 555.163 1645.23 552.119 1650.7 549.467 1656.57 C 554.105 1661.8 559.852 1666.35 565.086 1671 C 556.122 1671.07 547.271 1671.2 538.333 1671.99 L 522.253 1688.34 A 487.032 487.032 0 0 1 515.083 1669.27 C 504.746 1668.67 494.182 1667 483.928 1665.58 L 507.527 1653.19 C 506.418 1646.65 506.179 1640.25 506.003 1633.63 z"/>
<path transform="translate(0,0)" fill="rgb(252,248,226)" d="M 598.299 1588.99 L 621.205 1600.6 C 632.795 1598.32 643.784 1595.08 655.121 1591.89 C 653.024 1599.32 648.352 1606.92 644.844 1613.82 C 649.541 1619.27 655.3 1624.17 660.515 1629.15 C 649.799 1628.63 639.065 1628.23 628.386 1627.18 C 622.737 1631.32 617.488 1636.35 612.178 1640.94 C 610.248 1636.68 608.814 1632.07 606.793 1627.91 C 605.319 1624.87 604.402 1624.5 601.243 1623.56 C 593.131 1621.96 585.232 1620.13 577.294 1617.81 C 585.22 1614.1 593.111 1610.46 600.653 1606 C 599.553 1600.38 598.97 1594.67 598.299 1588.99 z"/>
<path transform="translate(0,0)" fill="rgb(252,248,226)" d="M 541.496 1540.89 C 551.958 1543.29 574.513 1554.7 584.753 1559.92 C 562.677 1572.47 535.809 1582.31 512.421 1592.93 L 360.113 1661.41 C 338.861 1670.76 299.551 1685.54 282.051 1697.54 C 300.409 1708.23 320.955 1716.83 340.049 1726.21 L 456.365 1783.4 C 557.124 1833.05 656.968 1884.44 758.102 1933.35 C 772.827 1924.53 789.153 1917.69 804.698 1910.38 L 880.661 1874.73 A 15767.5 15767.5 0 0 1 1096.44 1773.12 C 1110.28 1779.38 1123.6 1787.16 1137.26 1793.88 C 1123.84 1801.3 1109.79 1807.59 1095.89 1814.06 A 12981.9 12981.9 0 0 0 874.155 1917.2 C 836.479 1934.92 798.538 1952.05 761.324 1970.74 C 712.876 1945.58 663.116 1922.93 614.136 1898.82 L 196.67 1695.04 C 282.844 1655.55 370.006 1618 456.474 1579.13 C 484.785 1566.4 513.503 1554.29 541.496 1540.89 z"/>
<path transform="translate(0,0)" fill="rgb(252,248,226)" d="M 1122.92 1276.13 C 1131.83 1277.19 1172.28 1295.86 1183.51 1300.54 C 1253.97 1329.89 1324.75 1359.71 1396.47 1385.86 A 7637.4 7637.4 0 0 0 1516.26 1428.4 C 1535.18 1435.11 1554.45 1441.21 1573.02 1448.81 C 1554.43 1459.6 1535.18 1468.91 1516.72 1480.1 C 1484.55 1468.32 1453.66 1451.57 1422.67 1436.97 A 7673.94 7673.94 0 0 0 1256.25 1360.4 C 1250.84 1357.94 1245.6 1355.3 1240.36 1352.5 A 10527.4 10527.4 0 0 0 1050.7 1437 C 1013.76 1453.81 977.135 1471.51 939.809 1487.45 C 900.033 1471.54 861.034 1453.67 821.527 1437.09 C 830.082 1430.76 840.414 1425.86 849.789 1420.83 A 3366.28 3366.28 0 0 1 901.864 1393.51 L 1033.13 1324.38 A 3390.5 3390.5 0 0 0 1091.01 1293.81 C 1101.66 1288.09 1112.76 1282.68 1122.92 1276.13 z"/>
<path transform="translate(0,0)" fill="rgb(252,248,226)" d="M 1076.83 1217.01 C 1098.77 1223.93 1120.25 1234.22 1141.61 1242.82 L 1270.8 1294.63 C 1337.48 1321.18 1403.75 1349.07 1470.89 1374.42 C 1539.01 1400.14 1607.68 1423.19 1676.65 1446.41 C 1638.94 1464.57 1600.86 1482.88 1564.8 1504.16 L 1525.13 1483.46 C 1534.07 1478.86 1586.27 1454.29 1589.05 1448.4 C 1583.96 1442.27 1484.26 1409.38 1470.74 1404.54 A 5730.56 5730.56 0 0 1 1228.3 1311.45 L 1132.41 1271.85 C 1114.79 1264.61 1096.98 1256.28 1078.81 1250.6 A 36960.9 36960.9 0 0 0 664.971 1463.1 C 647.014 1472.98 588.806 1499.76 577.867 1511.37 C 579.948 1514.98 649.519 1546.01 659.91 1551.05 C 741.368 1590.55 821.061 1633.01 901.42 1674.69 L 983.814 1716.95 C 999.366 1724.84 1015.37 1732.3 1030.55 1740.88 C 1033.86 1742.75 1037.82 1744.86 1039.83 1748.11 C 1030.31 1747.85 984.318 1724.89 972.131 1719.7 A 13375.7 13375.7 0 0 1 710.372 1606.26 C 639.94 1574.52 570.071 1539.66 497.288 1513.62 C 517.67 1501.8 539.355 1492.05 560.329 1481.33 L 712.827 1404.33 L 1076.83 1217.01 z"/>
<path transform="translate(0,0)" fill="rgb(252,248,226)" d="M 1238.61 1360.96 C 1250.35 1362.03 1297.99 1387.41 1311.22 1393.51 A 9847.56 9847.56 0 0 1 1465.01 1464.92 C 1484.67 1474.11 1504.67 1482.67 1524.15 1492.22 C 1601.9 1530.37 1678.17 1571.53 1755.73 1610.07 A 11480.5 11480.5 0 0 0 1858.95 1660.69 C 1884.48 1672.89 1910.24 1684.4 1935.6 1697 C 1919.28 1706.93 1900.4 1714.57 1883.11 1722.77 L 1776.78 1772.73 L 1616.28 1850.17 C 1559.29 1877.31 1501.75 1903.51 1445.27 1931.67 L 1439.34 1934.3 L 750.036 1586.14 C 766.468 1576.74 784.274 1569.18 801.418 1561.17 L 881.228 1523.71 A 15850.9 15850.9 0 0 1 1238.61 1360.96 z"/>
<path transform="translate(0,0)" fill="rgb(26,29,34)" d="M 1243.31 1394.95 C 1250.79 1396.89 1265.97 1405.79 1274.05 1409.61 L 1351.23 1445.45 L 1482.52 1506.07 C 1507.89 1517.74 1533.54 1528.87 1558.69 1540.98 A 5372.28 5372.28 0 0 1 1731.26 1628.47 L 1807.21 1667.26 C 1819.44 1673.53 1832.7 1679.43 1844.24 1686.89 C 1847.03 1688.69 1851.6 1691.48 1852.31 1694.93 C 1840.06 1705.05 1804.59 1719.92 1788.72 1727.33 L 1692.85 1772.22 C 1606.61 1812.63 1521.63 1855.93 1434.77 1894.99 C 1421.33 1890.97 1407.13 1882.71 1394.42 1876.65 C 1357.01 1858.79 1320.2 1839.66 1282.9 1821.55 A 9649.08 9649.08 0 0 1 943.919 1651.61 L 865.515 1611.51 C 851.612 1604.4 837.161 1597.67 823.863 1589.51 C 840.244 1579.55 858.438 1571.85 875.833 1563.85 A 4605.51 4605.51 0 0 0 949.462 1529.51 C 974.883 1517.38 1000.05 1504.71 1025.67 1493 C 1053.02 1480.5 1080.81 1468.96 1108.08 1456.27 L 1185.31 1421.14 C 1204.55 1412.3 1223.62 1402.74 1243.31 1394.95 z"/>
<path transform="translate(0,0)" fill="rgb(112,144,143)" d="M 1501.41 1710.74 C 1503.45 1708.89 1504.44 1707.22 1505.77 1704.85 C 1511.5 1712.42 1532.76 1713.05 1540.4 1720.15 C 1527.36 1717.71 1514.29 1713.95 1501.41 1710.74 z"/>
<path transform="translate(0,0)" fill="rgb(252,248,226)" d="M 1125.04 1692.78 C 1122.96 1693.95 1120.92 1694.84 1118.57 1695.29 C 1114.31 1696.11 1109.61 1696.44 1106.05 1693.46 C 1103.93 1691.69 1103.45 1689.92 1103.2 1687.3 C 1104.44 1684.73 1104.44 1684.83 1107.07 1683.68 C 1112.53 1684.11 1120.41 1688.61 1124.77 1691.93 L 1125.04 1692.78 z"/>
<path transform="translate(0,0)" fill="rgb(149,185,175)" d="M 1198.1 1713.94 L 1202.03 1717.9 C 1202.51 1720.55 1202.77 1723.36 1204.05 1725.76 C 1205.02 1728.99 1205.14 1731.58 1208.31 1733.35 C 1217.15 1738.29 1230.23 1737.42 1239.98 1739.74 C 1246.7 1741.34 1253.22 1744.41 1259.26 1747.71 C 1263.39 1749.96 1267.43 1752.25 1269.88 1756.41 C 1268.17 1757.59 1267.02 1757.12 1264.98 1756.79 C 1258.13 1755.69 1251.33 1750.66 1244.39 1750.72 C 1244.67 1752.31 1245.09 1753.74 1245.57 1755.28 C 1245.36 1755.72 1245.15 1756.16 1244.96 1756.61 C 1244.12 1758.51 1244.38 1757.73 1244 1759.77 C 1250.49 1766.53 1261.93 1772.37 1269.81 1777.59 C 1256.93 1774.42 1241.25 1771.4 1229.77 1764.64 L 1238.48 1766.56 L 1238.9 1766 L 1239.98 1766.58 C 1234.62 1765.76 1204.78 1750.9 1198.35 1747.54 C 1186.24 1741.23 1157.27 1728.21 1153.14 1715.04 C 1163.84 1716.66 1174.28 1718.4 1185.15 1718.29 L 1186.14 1718.03 L 1186.22 1716.17 C 1188.88 1713.85 1194.53 1714.21 1198.1 1713.94 z"/>
<path transform="translate(0,0)" fill="rgb(26,29,34)" d="M 1198.1 1713.94 L 1202.03 1717.9 C 1196.57 1719.1 1191.62 1718.95 1186.14 1718.03 L 1186.22 1716.17 C 1188.88 1713.85 1194.53 1714.21 1198.1 1713.94 z"/>
<path transform="translate(0,0)" fill="rgb(252,248,226)" d="M 1436.41 1658.48 C 1445.95 1664.8 1456.96 1669.52 1467.18 1674.66 L 1456.02 1674.35 C 1453.24 1674.4 1451.34 1674.3 1448.94 1675.96 C 1448.42 1678.35 1448.87 1678.99 1449.71 1681.33 C 1447.63 1682.36 1446.27 1681.99 1444.03 1681.8 C 1440.88 1681.52 1438.72 1681.2 1436.13 1683.37 C 1432.9 1686.07 1430.05 1689.95 1429.45 1694.16 C 1430.37 1697.02 1431.29 1698.56 1434.04 1699.99 C 1438.81 1702.46 1461.38 1705.82 1466.39 1703.55 C 1466.81 1703.36 1467.17 1703.04 1467.56 1702.79 L 1469.19 1701.79 L 1470.46 1704.26 C 1468.64 1709.15 1466.63 1713.17 1462.6 1716.64 C 1455.34 1722.92 1445.58 1727.03 1436.1 1728.36 C 1421.65 1730.4 1405.48 1727.38 1390.94 1726.47 C 1377.17 1725.61 1363.28 1725.57 1349.55 1724.47 C 1392.03 1708.94 1410.89 1695.69 1436.41 1658.48 z"/>
<path transform="translate(0,0)" fill="rgb(252,248,226)" d="M 1507.23 1610.5 C 1534.51 1610.31 1561.39 1613.46 1588.46 1616.43 C 1555.16 1631.46 1541.31 1655.28 1512.04 1671.14 C 1484.29 1683.63 1463.99 1664.19 1439.06 1655.13 C 1440.61 1651.8 1441.98 1648.43 1442.99 1644.89 C 1446.2 1633.56 1442.49 1625.44 1437.15 1615.7 C 1460 1611.46 1484.03 1610.59 1507.23 1610.5 z"/>
<path transform="translate(0,0)" fill="rgb(220,122,109)" d="M 1804.41 1675.09 C 1816.38 1681.78 1829.27 1686.69 1841.26 1693.4 C 1810.71 1708.81 1779.52 1722.9 1748.63 1737.6 A 12743.8 12743.8 0 0 1 1605.7 1805.64 C 1548.68 1832.46 1492.27 1860.5 1435.09 1887.01 A 1714.8 1714.8 0 0 1 1398.32 1869.82 C 1437.91 1849.18 1478.94 1830.88 1519.21 1811.58 L 1804.41 1675.09 z"/>
<path transform="translate(0,0)" fill="rgb(252,248,226)" d="M 1165.52 1592.85 C 1175.38 1577.13 1186.55 1575.84 1200.11 1565.54 L 1200.37 1564.11 L 1200.75 1562.19 C 1201.52 1558.13 1202.6 1555.92 1205.98 1553.41 C 1219.51 1543.36 1242.1 1541 1258.3 1543.82 C 1273.29 1546.42 1284.94 1552.51 1293.72 1565.17 C 1267.87 1566.64 1235.43 1566.03 1213.47 1581.87 C 1209.96 1584.41 1208.01 1589.02 1205.34 1592.38 C 1201.59 1597.09 1188.57 1603.36 1182.68 1604.55 L 1180.99 1600.25 L 1179.32 1599.65 C 1172.89 1604.34 1168.7 1612.86 1162.66 1618.4 L 1161.94 1619.05 L 1161.88 1627.25 C 1174.46 1611.43 1193.81 1609.49 1209.67 1598.33 C 1214.84 1594.69 1215.87 1587.94 1221.28 1584.57 C 1226.05 1581.59 1232.49 1579.83 1237.85 1578.24 C 1258.45 1572.1 1297.92 1568.41 1319.3 1571.33 C 1325.16 1572.14 1330.32 1577.15 1336.1 1578.76 C 1344.22 1581.01 1352.93 1582.13 1361.17 1583.96 A 191.585 191.585 0 0 1 1411.48 1602.8 C 1421.17 1608.16 1430.08 1613.98 1433.31 1625.1 C 1429.86 1622.33 1426.58 1618.85 1422.32 1617.46 C 1419.27 1619.77 1418.1 1624.94 1417.57 1628.68 C 1417.25 1630.85 1417.34 1632.48 1417.95 1634.61 L 1419.83 1635.93 L 1422.33 1635.31 C 1423.73 1632.17 1422.46 1628.76 1424.54 1626.2 C 1425.6 1626.63 1426.77 1627.02 1427.78 1627.54 C 1427.96 1631.37 1427.86 1634.44 1429.95 1637.74 L 1432.04 1639.07 C 1433.9 1637.88 1434.12 1637.75 1434.55 1635.61 C 1435.02 1633.28 1434.26 1630.48 1433.83 1628.16 L 1435.16 1628.21 C 1437.74 1632.5 1438.57 1637.19 1437.35 1642.09 C 1436.07 1647.21 1432.69 1651.99 1429.87 1656.4 C 1417.55 1675.58 1402.35 1691.65 1382.44 1703 C 1359.61 1716.01 1331.83 1724.89 1305.71 1727.73 C 1300.68 1723.57 1293.47 1715.82 1286.84 1715.42 L 1285.18 1716.53 C 1285.18 1718.3 1285.36 1719.85 1285.69 1721.58 C 1281.81 1721.15 1277.91 1713.13 1273.93 1714.41 C 1272.49 1716.91 1272.66 1719.73 1273.27 1722.49 C 1273.9 1725.35 1275.6 1728.04 1277.13 1730.48 C 1266.28 1732.17 1223.32 1734.65 1215.2 1727.97 C 1213.88 1726.88 1213.95 1725.54 1213.94 1723.9 C 1213.92 1721.2 1215.06 1717.84 1217.02 1715.99 C 1221.14 1712.09 1227.83 1712.62 1233 1713.28 A 201.699 201.699 0 0 1 1239.85 1714.3 C 1241.73 1712.77 1241.36 1712.93 1241.89 1710.78 C 1240.55 1708.4 1239.61 1707.51 1236.94 1706.65 C 1230.43 1704.56 1221.98 1706.34 1216.19 1709.67 C 1209.35 1713.6 1206.62 1718.53 1204.05 1725.76 C 1202.77 1723.36 1202.51 1720.55 1202.03 1717.9 L 1198.1 1713.94 C 1194.53 1714.21 1188.88 1713.85 1186.22 1716.17 L 1186.14 1718.03 L 1185.15 1718.29 L 1181.8 1714.37 C 1167.05 1710.51 1149.9 1709.66 1136.26 1702.49 C 1132.16 1700.33 1130.28 1695.27 1126.27 1693.32 C 1125.86 1693.13 1125.45 1692.96 1125.04 1692.78 L 1124.77 1691.93 C 1129.43 1692.66 1133.27 1693.45 1137.74 1691.41 L 1137.64 1689.72 C 1127.85 1681.94 1113.16 1680.66 1104.02 1672.05 C 1098.13 1666.5 1094.65 1657.59 1094.65 1649.58 C 1094.66 1636.8 1101.72 1624.29 1110.55 1615.39 C 1125.26 1600.54 1144.87 1593.06 1165.52 1592.85 z"/>
<path transform="translate(0,0)" fill="rgb(26,29,34)" d="M 1154.1 1618.11 A 224.097 224.097 0 0 1 1156.32 1613.64 C 1157.96 1610.45 1159.82 1606.68 1163.36 1605.54 C 1164.94 1609.86 1163.02 1614.68 1161.94 1619.05 L 1161.88 1627.25 C 1160.51 1628.79 1161.39 1628.26 1159.13 1628.63 C 1156.49 1626.05 1155.39 1621.53 1154.1 1618.11 z"/>
<path transform="translate(0,0)" fill="url(#Gradient1)" d="M 1300.99 1618.24 C 1305.53 1617.82 1309.15 1617.15 1313.3 1619.41 C 1324.8 1625.69 1322.8 1618.01 1331.95 1618.11 C 1333.44 1618.13 1333.57 1618.9 1334.43 1619.94 L 1333.76 1621.97 C 1330.32 1625.18 1325.55 1626.88 1321.31 1628.85 L 1317.33 1631.44 C 1311.86 1635.03 1307.62 1637.14 1300.89 1636.46 C 1297.49 1636.11 1293.63 1634.56 1291.76 1631.52 C 1290.58 1629.61 1290.52 1627.53 1291.4 1625.49 C 1293.25 1621.24 1296.95 1619.82 1300.99 1618.24 z"/>
<path transform="translate(0,0)" fill="rgb(26,29,34)" d="M 1377.13 1635.26 C 1383.71 1634.62 1391.09 1633.78 1397.55 1635.53 C 1400.26 1636.27 1404.07 1637.18 1405.6 1639.72 C 1402.42 1641.29 1398.35 1640.48 1394.86 1640.39 C 1378.81 1639.96 1358.3 1644.85 1346.73 1656.62 C 1344.86 1658.51 1343.57 1659.66 1343.62 1662.42 C 1350.18 1663.88 1358.5 1662.55 1365.26 1662.2 C 1371.26 1661.91 1378.19 1661.08 1383.87 1663.3 L 1383.23 1664.51 C 1375.57 1668.15 1346.78 1671.07 1339.08 1667.8 C 1336.34 1666.63 1336.16 1666.14 1334.96 1663.59 C 1335.17 1661.45 1335.65 1659.98 1336.81 1658.18 C 1345.47 1644.78 1362.37 1638.8 1377.13 1635.26 z"/>
<path transform="translate(0,0)" fill="rgb(26,29,34)" d="M 1230.66 1645.11 C 1235.95 1644.5 1241.62 1644.1 1246.55 1646.44 C 1250.87 1648.5 1256 1652.37 1257.34 1657.23 C 1258.03 1659.74 1258.04 1662.09 1256.45 1664.29 C 1253.77 1667.97 1248.75 1669.31 1244.47 1669.77 L 1236.7 1670.6 L 1235.71 1671.9 L 1237.33 1673.66 C 1238.18 1674.2 1239.49 1674.99 1240.22 1675.63 C 1242.29 1677.46 1242.53 1678.07 1242.64 1680.62 C 1241.62 1680.98 1240.21 1681.12 1239.16 1680.97 C 1233.53 1680.12 1226.92 1674.11 1223.82 1669.58 C 1221.47 1666.16 1219.69 1662.28 1220.6 1658.06 C 1221.82 1652.39 1225.89 1648.05 1230.66 1645.11 z"/>
<path transform="translate(0,0)" fill="rgb(252,248,226)" d="M 1232.87 1651.08 C 1237.39 1650.71 1240.87 1650.95 1245.09 1652.86 C 1248.14 1654.23 1249.45 1655.41 1250.62 1658.53 C 1249.25 1661.5 1248.36 1661.84 1245.72 1663.64 L 1244.73 1663.74 L 1243.07 1663.9 C 1238.41 1664.38 1233.28 1665.3 1229.36 1662.04 C 1228.03 1660.93 1228.3 1659.87 1228.07 1658.28 C 1229.25 1655.12 1230.5 1653.46 1232.87 1651.08 z"/>
<path transform="translate(0,0)" fill="url(#Gradient2)" d="M 1181.8 1714.37 C 1166.13 1695.81 1145.61 1658.94 1147.21 1634.07 C 1147.43 1630.78 1147.93 1627.97 1150.41 1625.64 C 1152.32 1626.22 1151.75 1625.67 1152.67 1627.54 C 1157.08 1636.58 1154.61 1648.91 1158.93 1658.58 C 1161.5 1664.32 1175.53 1673.56 1175.03 1678.39 C 1172.75 1678.01 1166.72 1675.15 1165.15 1675.97 C 1168.11 1687.95 1194.87 1699.87 1193.15 1703.91 C 1187.76 1704.07 1181.9 1700.77 1177.1 1698.53 C 1183.25 1705.33 1188.96 1711.27 1198.1 1713.94 C 1194.53 1714.21 1188.88 1713.85 1186.22 1716.17 L 1186.14 1718.03 L 1185.15 1718.29 L 1181.8 1714.37 z"/>
<path transform="translate(0,0)" fill="rgb(26,29,34)" d="M 1307.34 1579.19 C 1313.57 1578.63 1320.01 1577.77 1325.13 1582.05 C 1327.65 1584.15 1328.6 1586.15 1328.88 1589.45 C 1325.54 1600.12 1312.94 1596.34 1304.71 1599.41 C 1301.45 1600.63 1298.94 1604.05 1295.86 1604.93 C 1293.16 1605.7 1288.35 1604.79 1285.51 1604.63 C 1275.26 1604.08 1259.92 1603.84 1251.48 1610.45 C 1250.25 1613.02 1250.1 1613.24 1250.55 1616.03 C 1260.04 1620.23 1272.29 1607.08 1281.92 1611.89 C 1282.4 1612.13 1282.87 1612.4 1283.34 1612.66 C 1285.46 1615.39 1287.99 1617.85 1288.25 1621.44 L 1286.87 1622.44 C 1282.67 1622.11 1279.38 1619.99 1275.73 1618.05 A 167.97 167.97 0 0 1 1271.14 1619.78 C 1263.95 1622.34 1254.37 1624.71 1247.19 1620.79 C 1244.25 1619.18 1243.87 1617.36 1243.12 1614.38 C 1244.01 1609.68 1246.05 1607.03 1250.1 1604.41 C 1262.43 1596.44 1278.96 1597.19 1292.69 1599.8 C 1291.58 1597.62 1290.1 1595.13 1289.38 1592.81 C 1288.66 1590.5 1289.08 1588.09 1290.44 1586.09 C 1293.47 1581.64 1302.37 1580.4 1307.34 1579.19 z"/>
<path transform="translate(0,0)" fill="rgb(252,248,226)" d="M 1313.95 1584.34 C 1316.78 1584.66 1319.81 1585.16 1321.88 1587.16 L 1321.2 1588.92 C 1315.46 1592.67 1309.87 1593.12 1303.24 1593.44 C 1300.3 1593.75 1299.7 1593.57 1296.96 1592.42 L 1298.87 1593.7 L 1297.23 1591.17 L 1297.74 1589.44 C 1303.2 1585.12 1307.3 1584.9 1313.95 1584.34 z"/>
<path transform="translate(0,0)" fill="rgb(220,122,109)" d="M 1241.1 1402.91 C 1246.22 1402.01 1348.47 1451.84 1362.27 1458.6 C 1346.95 1467.89 1328.48 1474.8 1312.17 1482.37 L 1185.72 1539.58 A 8373.72 8373.72 0 0 0 1070.88 1593.17 C 1032.67 1611.68 994.808 1630.9 955.988 1648.12 C 954.296 1648.7 953.118 1648.38 951.494 1647.74 C 940.928 1643.54 930.683 1637.29 920.565 1632.08 C 892.659 1617.71 864.647 1601.99 835.897 1589.46 C 874.343 1570.4 913.733 1552.7 952.69 1534.68 L 1091.37 1470.65 C 1141.25 1448.1 1190.62 1424.11 1241.1 1402.91 z"/>
<path transform="translate(0,0)" fill="rgb(252,248,226)" d="M 1234.21 1446.13 L 1245.4 1435.14 L 1251.06 1448.49 C 1258.25 1450.3 1265.62 1451.39 1272.92 1452.62 C 1267.87 1455.88 1262.98 1459.31 1258.1 1462.8 C 1259.82 1467.79 1263 1472.56 1263.49 1477.85 L 1261.75 1478.85 C 1254.35 1476.96 1247.02 1474.32 1239.73 1472.03 C 1233.29 1474.62 1226.99 1477.67 1220.67 1480.53 C 1221.14 1475.01 1221.83 1469.49 1222.42 1463.99 C 1214.26 1461.51 1205.71 1459.94 1197.36 1458.22 C 1204.18 1455.1 1211.46 1452.94 1218.57 1450.58 C 1217.2 1445.74 1215.62 1441.04 1215.54 1435.97 A 1366.49 1366.49 0 0 1 1234.21 1446.13 z"/>
<path transform="translate(0,0)" fill="rgb(252,248,226)" d="M 931.536 1567.55 C 939.544 1570.14 947.203 1574.11 954.832 1577.64 L 980.072 1567.37 A 1192.26 1192.26 0 0 0 978.493 1585.11 C 986.668 1589 994.594 1593.05 1002.41 1597.62 C 993.46 1597.97 984.672 1598.34 975.801 1599.7 C 972.224 1604.74 970.038 1610.58 967.583 1616.23 C 962.443 1610.71 957.201 1605.44 951.671 1600.31 C 941.612 1598.6 931.026 1598.46 920.838 1597.78 C 926.786 1592.83 933.826 1589 940.418 1584.96 A 424.154 424.154 0 0 1 931.536 1567.55 z"/>
<path transform="translate(0,0)" fill="rgb(252,248,226)" d="M 1069.79 1522.05 C 1072.14 1525.09 1072.18 1534.81 1072.65 1538.99 C 1079.31 1543.99 1087.73 1547.34 1095.24 1550.86 C 1084.34 1553.91 1073.47 1555.29 1062.22 1556.23 L 1051.81 1569.47 L 1038.89 1554.44 C 1030.23 1552.06 1020.33 1551.89 1011.37 1550.94 A 817.358 817.358 0 0 1 1032.18 1538.37 C 1029.04 1533.87 1026.64 1529.14 1024.16 1524.25 C 1031.89 1527.18 1039.46 1529.86 1047.49 1531.85 L 1069.79 1522.05 z"/>
<path transform="translate(0,0)" fill="rgb(252,248,226)" d="M 1140.38 1473.45 C 1145.75 1477.85 1148.68 1485.66 1153.71 1490.81 C 1161.34 1489.38 1168.7 1488.17 1176.45 1487.63 C 1173.44 1492.16 1170.21 1496.57 1167.06 1501.01 C 1172.89 1506.25 1179.45 1510.73 1185.77 1515.37 C 1176.57 1514.56 1167.43 1513.7 1158.29 1512.37 L 1149.53 1526.51 C 1145.01 1522.88 1141.05 1516.76 1137 1512.39 L 1108.19 1509.72 C 1113.11 1505.52 1118.5 1501.72 1123.65 1497.8 C 1120.21 1494.77 1114.5 1490.79 1113.66 1486.15 L 1115.25 1485.15 C 1120.76 1485.24 1125.93 1487.54 1131.07 1489.35 L 1140.38 1473.45 z"/>
<path transform="translate(0,0)" fill="url(#Gradient3)" d="M 1371.54 1461.99 A 5900.15 5900.15 0 0 1 1628.93 1584.17 C 1657.52 1598.71 1687.94 1611.92 1715.43 1628.39 C 1686.89 1622.13 1657.9 1620.21 1629.03 1616.45 C 1616.83 1614.85 1604.9 1611.5 1592.66 1609.84 C 1544.92 1603.36 1479.69 1600.56 1432.55 1609.84 C 1401.01 1584.45 1378.72 1582.55 1341.71 1573.2 C 1322.41 1568.32 1321.02 1563.21 1298.49 1564.64 C 1295.34 1554.65 1289.93 1548.52 1280.61 1543.59 C 1262.25 1533.87 1236.22 1533.73 1216.83 1540.26 C 1208.75 1542.99 1199.06 1547.09 1195.21 1555.22 C 1194.69 1556.32 1194.28 1557.48 1193.81 1558.61 C 1189.28 1569.41 1171.41 1570.9 1162.58 1586.69 C 1141.02 1587.46 1118.86 1597.01 1103.97 1612.82 C 1094.03 1623.38 1087.92 1637.25 1088.44 1651.92 C 1088.82 1662.59 1092.82 1670.48 1099.3 1678.68 C 1096.41 1682.72 1093.54 1687.01 1094.88 1692.23 C 1095.83 1695.95 1098.83 1698.23 1102.17 1699.67 C 1108.64 1702.45 1116.07 1702.51 1122.99 1702.02 C 1129.32 1706.84 1135.22 1709.89 1142.56 1712.92 C 1143.09 1713.13 1147.66 1714.79 1147.82 1715.06 C 1148.12 1715.56 1148.04 1716.22 1148.15 1716.8 C 1148.7 1719.6 1149.1 1721.68 1151.09 1723.84 C 1156.68 1731.03 1166.1 1737.65 1173.93 1742.17 C 1179.19 1745.75 1184.74 1748.99 1190.27 1752.12 C 1207.4 1761.8 1261.81 1789 1278.25 1783.2 C 1279.73 1782.67 1279.58 1782.03 1280.13 1780.71 C 1276.74 1771.19 1257.54 1762.46 1249 1757.45 C 1256.24 1759.44 1265.64 1762.99 1273.18 1761.68 C 1275.69 1761.24 1276.65 1760.61 1277.95 1758.49 C 1277.83 1757.29 1277.89 1757.25 1277.41 1755.93 C 1274.47 1747.73 1261.75 1742.29 1254.55 1738.33 C 1266.67 1737.99 1278.68 1736.77 1290.71 1735.31 C 1301.58 1733.99 1321.66 1728.48 1331.79 1730.83 C 1352.02 1731.44 1372.29 1731.76 1392.5 1732.71 C 1407.08 1733.39 1422.21 1735.38 1436.78 1734.47 C 1453.16 1730.88 1466.5 1725.04 1476.32 1711.07 C 1497.75 1716.65 1520.68 1719.01 1541.64 1725.82 L 1550.21 1726.35 C 1550.34 1726.41 1550.45 1726.49 1550.58 1726.53 C 1554.76 1727.84 1559.91 1728.44 1564.01 1726.8 L 1563.86 1725.29 C 1562.33 1723.98 1560.84 1722.86 1559.06 1721.9 C 1550.99 1717.54 1513.46 1702.37 1505.77 1704.85 C 1504.44 1707.22 1503.45 1708.89 1501.41 1710.74 C 1493.37 1708.71 1477.76 1700.93 1470.46 1704.26 L 1469.19 1701.79 C 1469.48 1699.94 1469.78 1698.17 1469.61 1696.29 C 1468.64 1685.48 1460.01 1687.07 1453.89 1681.26 C 1453.56 1680.94 1453.24 1680.6 1452.92 1680.28 C 1490.11 1678.02 1487.38 1690.15 1525.77 1672.06 C 1536.38 1674.98 1590.95 1678.74 1598.68 1673.74 C 1600.11 1672.81 1599.71 1673.03 1600.15 1671.29 C 1597.33 1667.27 1587.48 1666.09 1582.73 1665.24 C 1569.43 1662.88 1555.99 1661.36 1542.81 1658.36 C 1568.69 1634.4 1581.98 1621.09 1619.44 1622.72 C 1639.82 1623.6 1712.02 1631 1728.31 1636.72 C 1736.95 1639.75 1745.49 1644.89 1753.67 1649.06 L 1796.59 1670.8 L 1507.43 1808.39 C 1468.53 1827.19 1427.95 1843.9 1390.45 1865.35 L 961.139 1653.08 A 17699 17699 0 0 1 1210.92 1535.28 A 5358.22 5358.22 0 0 0 1324.8 1483.47 C 1340.28 1476.31 1356.43 1469.86 1371.54 1461.99 z"/>
<path transform="translate(0,0)" fill="rgb(26,29,34)" d="M 1605.95 1695.72 C 1606.55 1693.96 1607.32 1693.04 1608.58 1691.68 C 1619.13 1687.14 1653.56 1689.7 1664.11 1693.58 C 1656.57 1699.17 1632.6 1693.84 1622.66 1693.61 C 1617.68 1693.49 1613.26 1694.35 1608.39 1695 C 1606.68 1695.22 1607.41 1695.01 1605.95 1695.72 z"/>
<path transform="translate(0,0)" fill="rgb(26,29,34)" d="M 1664.11 1693.58 L 1666.04 1694.3 L 1667.52 1697.51 C 1665.13 1700.87 1661.59 1701.48 1657.77 1702.17 C 1647.14 1704.09 1617.24 1703.74 1608.16 1697.7 C 1607.18 1697.05 1606.73 1696.52 1605.95 1695.72 C 1607.41 1695.01 1606.68 1695.22 1608.39 1695 C 1613.26 1694.35 1617.68 1693.49 1622.66 1693.61 C 1632.6 1693.84 1656.57 1699.17 1664.11 1693.58 z"/>
<path transform="translate(0,0)" fill="rgb(26,29,34)" d="M 1339.23 1736.33 C 1353.2 1738.68 1368.54 1743.09 1381.79 1748.14 C 1384.59 1751.03 1387.04 1752.62 1390.84 1753.96 C 1393.67 1751.98 1394.9 1752.5 1398.28 1752.62 C 1402.53 1753.93 1407.59 1755.2 1411.41 1757.47 C 1413.78 1758.88 1414.36 1759.95 1415.05 1762.54 L 1413.83 1764.2 C 1411.15 1765.13 1408.96 1765.26 1406.13 1765 C 1392.17 1763.75 1338.83 1751.56 1330.72 1741.53 L 1330.95 1739.62 L 1333.96 1737.94 L 1339.23 1736.33 z"/>
<path transform="translate(0,0)" fill="rgb(112,144,143)" d="M 1339.23 1736.33 C 1353.2 1738.68 1368.54 1743.09 1381.79 1748.14 C 1384.59 1751.03 1387.04 1752.62 1390.84 1753.96 C 1394.15 1755.33 1397.58 1756.45 1400.96 1757.65 C 1392.32 1760.2 1343.06 1742.88 1333.96 1737.94 L 1339.23 1736.33 z"/>
<path transform="translate(0,0)" fill="rgb(26,29,34)" d="M 1439.55 1738.28 C 1454.97 1737.66 1469.8 1739.92 1485.06 1741.55 C 1488.59 1741.79 1493.22 1742.26 1496.1 1740.14 C 1503.81 1742.71 1511.35 1745.09 1519.37 1746.53 C 1526.35 1747.78 1535.03 1747.41 1541.43 1749.97 L 1546.11 1750.04 C 1545.85 1751.72 1546.17 1753.08 1544.64 1754.11 C 1533.56 1761.56 1481.39 1747.44 1467.56 1749.89 C 1470.45 1750.44 1471.16 1751.58 1472.94 1753.9 C 1472.79 1755.2 1473.05 1755.99 1471.94 1756.88 C 1464.42 1762.86 1438.61 1757.22 1429.16 1755.73 C 1431.08 1753.65 1435.09 1753.69 1437.91 1753.25 L 1436.58 1753.04 C 1438.69 1752.98 1440.62 1752.9 1442.68 1752.42 L 1444.26 1752.03 C 1438.97 1750.67 1433.19 1750.12 1427.77 1749.28 C 1427.21 1748.49 1426.78 1747.49 1426.32 1746.62 C 1429.43 1744.5 1438.81 1745.46 1442.92 1745.4 C 1440.17 1744.33 1436.6 1744.2 1433.65 1743.8 L 1433.58 1742.68 C 1435.58 1742.26 1437.37 1741.72 1439.27 1741 L 1439.55 1738.28 z"/>
<path transform="translate(0,0)" fill="rgb(112,144,143)" d="M 1439.55 1738.28 C 1454.97 1737.66 1469.8 1739.92 1485.06 1741.55 C 1488.59 1741.79 1493.22 1742.26 1496.1 1740.14 C 1503.81 1742.71 1511.35 1745.09 1519.37 1746.53 C 1526.35 1747.78 1535.03 1747.41 1541.43 1749.97 C 1519.85 1752.13 1488.89 1746.37 1466.91 1744.18 C 1460.31 1743.97 1454.94 1743.92 1448.6 1746.05 L 1449.07 1746.15 C 1444.74 1746.87 1440.62 1747.38 1436.23 1747.43 C 1443.02 1748.53 1459.81 1749.31 1464.64 1753.56 L 1462.64 1753.19 L 1462.67 1753.55 C 1456.67 1753.16 1450.2 1752.03 1444.26 1752.03 C 1438.97 1750.67 1433.19 1750.12 1427.77 1749.28 C 1427.21 1748.49 1426.78 1747.49 1426.32 1746.62 C 1429.43 1744.5 1438.81 1745.46 1442.92 1745.4 C 1440.17 1744.33 1436.6 1744.2 1433.65 1743.8 L 1433.58 1742.68 C 1435.58 1742.26 1437.37 1741.72 1439.27 1741 L 1439.55 1738.28 z"/>
<path transform="translate(0,0)" fill="rgb(149,185,175)" d="M 1331.79 1730.83 C 1352.02 1731.44 1372.29 1731.76 1392.5 1732.71 C 1407.08 1733.39 1422.21 1735.38 1436.78 1734.47 L 1439.55 1738.28 L 1439.27 1741 C 1437.37 1741.72 1435.58 1742.26 1433.58 1742.68 L 1433.65 1743.8 C 1436.6 1744.2 1440.17 1744.33 1442.92 1745.4 C 1438.81 1745.46 1429.43 1744.5 1426.32 1746.62 C 1426.78 1747.49 1427.21 1748.49 1427.77 1749.28 C 1433.19 1750.12 1438.97 1750.67 1444.26 1752.03 L 1442.68 1752.42 C 1440.62 1752.9 1438.69 1752.98 1436.58 1753.04 L 1437.91 1753.25 C 1435.09 1753.69 1431.08 1753.65 1429.16 1755.73 C 1419.59 1754.3 1407.9 1751.42 1398.28 1752.62 C 1394.9 1752.5 1393.67 1751.98 1390.84 1753.96 C 1387.04 1752.62 1384.59 1751.03 1381.79 1748.14 C 1368.54 1743.09 1353.2 1738.68 1339.23 1736.33 C 1335.18 1735.5 1333.99 1734.09 1331.79 1730.83 z"/>
<path transform="translate(0,0)" fill="rgb(26,29,34)" d="M 1381.79 1748.14 C 1389.67 1742.01 1408.24 1746.61 1418.18 1747.87 A 203.776 203.776 0 0 1 1427.77 1749.28 C 1433.19 1750.12 1438.97 1750.67 1444.26 1752.03 L 1442.68 1752.42 C 1440.62 1752.9 1438.69 1752.98 1436.58 1753.04 L 1437.91 1753.25 C 1435.09 1753.69 1431.08 1753.65 1429.16 1755.73 C 1419.59 1754.3 1407.9 1751.42 1398.28 1752.62 C 1394.9 1752.5 1393.67 1751.98 1390.84 1753.96 C 1387.04 1752.62 1384.59 1751.03 1381.79 1748.14 z"/>
<path transform="translate(0,0)" fill="rgb(252,248,226)" d="M 1379.38 1511.42 C 1388.31 1514.96 1396.99 1520.5 1405.47 1525.06 C 1414.87 1522.58 1424.27 1520.79 1433.89 1519.37 C 1430.46 1524.57 1426.86 1529.32 1422.81 1534.05 C 1430.36 1536.29 1437.77 1538.82 1445.19 1541.45 C 1438.29 1542.91 1431.3 1543.96 1424.39 1545.48 C 1425.92 1549.03 1428.11 1552.92 1428.18 1556.83 C 1425.73 1557.91 1424.33 1556.71 1421.9 1555.82 C 1417.19 1553.33 1412.75 1550.39 1408.26 1547.53 C 1402.83 1550.41 1389.49 1559.09 1383.46 1557.52 C 1381.95 1557.13 1382.02 1556.16 1381.45 1554.87 C 1381.96 1550.48 1383.84 1546.99 1385.74 1543.07 C 1374.52 1541.26 1363.48 1539.25 1352.53 1536.19 C 1362.75 1533.36 1373.38 1531.7 1383.8 1529.78 C 1381.84 1523.63 1380.05 1517.86 1379.38 1511.42 z"/>
<path transform="translate(0,0)" fill="rgb(223,214,188)" d="M 1476.32 1711.07 C 1497.75 1716.65 1520.68 1719.01 1541.64 1725.82 L 1540.14 1726.78 C 1535.62 1726.25 1527.37 1723.09 1523.37 1723.89 C 1521.46 1725.72 1520.77 1726.08 1520.17 1728.62 C 1525.06 1732.68 1532.63 1730.66 1538.58 1732.46 L 1536.28 1733.44 C 1544.12 1735.12 1555.38 1736.44 1561.59 1741.71 L 1562.32 1743.86 C 1561.14 1746.1 1559.5 1747.67 1556.99 1748.34 C 1553.65 1749.23 1549.22 1748.59 1546.11 1750.04 L 1541.43 1749.97 C 1535.03 1747.41 1526.35 1747.78 1519.37 1746.53 C 1511.35 1745.09 1503.81 1742.71 1496.1 1740.14 C 1493.22 1742.26 1488.59 1741.79 1485.06 1741.55 C 1469.8 1739.92 1454.97 1737.66 1439.55 1738.28 L 1436.78 1734.47 C 1453.16 1730.88 1466.5 1725.04 1476.32 1711.07 z"/>
<path transform="translate(0,0)" fill="rgb(26,29,34)" d="M 1489.66 1736.62 C 1488.05 1734.92 1487.83 1735.23 1487.6 1732.73 C 1497.21 1726.88 1525.03 1732.27 1536.28 1733.44 C 1544.12 1735.12 1555.38 1736.44 1561.59 1741.71 L 1562.32 1743.86 C 1561.14 1746.1 1559.5 1747.67 1556.99 1748.34 C 1553.65 1749.23 1549.22 1748.59 1546.11 1750.04 L 1541.43 1749.97 C 1535.03 1747.41 1526.35 1747.78 1519.37 1746.53 C 1511.35 1745.09 1503.81 1742.71 1496.1 1740.14 L 1495.01 1739.8 C 1492.63 1739.38 1491.46 1738.13 1489.66 1736.62 z"/>
<path transform="translate(0,0)" fill="rgb(112,144,143)" d="M 1489.66 1736.62 C 1499.52 1735.11 1541.14 1738.44 1549.85 1742.41 L 1550.05 1743.69 C 1535.75 1751.06 1506.15 1737.09 1495.01 1739.8 C 1492.63 1739.38 1491.46 1738.13 1489.66 1736.62 z"/>
</svg>