<svg version="1.1" xmlns="http://www.w3.org/2000/svg" style="display: block;" viewBox="0 0 2048 2048" width="1024" height="1024">
<defs>
	<linearGradient id="Gradient1" gradientUnits="userSpaceOnUse" x1="134.542" y1="586.895" x2="116.305" y2="631.881">
		<stop class="stop0" offset="0" stop-opacity="1" stop-color="rgb(69,66,61)"/>
		<stop class="stop1" offset="1" stop-opacity="1" stop-color="rgb(99,86,78)"/>
	</linearGradient>
	<linearGradient id="Gradient2" gradientUnits="userSpaceOnUse" x1="227.983" y1="696.841" x2="282.436" y2="742.717">
		<stop class="stop0" offset="0" stop-opacity="1" stop-color="rgb(35,31,33)"/>
		<stop class="stop1" offset="1" stop-opacity="1" stop-color="rgb(64,62,57)"/>
	</linearGradient>
	<linearGradient id="Gradient3" gradientUnits="userSpaceOnUse" x1="1059.33" y1="1210.13" x2="1071.66" y2="1195.71">
		<stop class="stop0" offset="0" stop-opacity="1" stop-color="rgb(144,130,119)"/>
		<stop class="stop1" offset="1" stop-opacity="1" stop-color="rgb(163,152,134)"/>
	</linearGradient>
</defs>
<path transform="translate(0,0)" fill="rgb(229,226,214)" d="M 0 0 L 2048 0 L 2048 2048 L 0 2048 L 0 0 z"/>
<path transform="translate(0,0)" fill="rgb(47,44,41)" d="M 1276.35 21.2129 C 1285.95 20.3283 1295.76 20.8865 1304.97 23.8699 C 1324.63 30.242 1340.1 45.4752 1349.18 63.7652 C 1359.9 85.3654 1358.93 108.953 1351.07 131.337 C 1327.63 198.184 1239.45 259.093 1178.03 288.987 C 1188.22 293.117 1198.48 297.183 1208.42 301.908 C 1272.02 332.15 1324.03 390.92 1352.46 454.748 C 1366.66 486.625 1376.35 520.188 1387.95 553.052 C 1400.63 552.357 1414.88 551.469 1426.74 556.822 C 1434.23 560.203 1439.81 565.776 1443.88 572.86 C 1449.03 581.842 1452.18 592.568 1456.14 602.149 C 1461.37 614.795 1467.51 627.773 1473.85 639.871 C 1482.68 656.73 1491.86 673.57 1501.88 689.755 C 1512.03 706.147 1524.92 721.699 1531.52 739.965 C 1535.87 751.989 1537.56 766.257 1531.56 778.025 C 1527.3 786.368 1520.33 790.385 1511.77 793.322 C 1493.15 799.716 1487.44 810.596 1464.87 805.418 C 1453.42 802.789 1428.93 791.689 1423.12 781.284 C 1416.42 769.286 1425.35 750.658 1428.85 738.636 C 1434.97 717.643 1423 693.633 1413.09 675.664 C 1405.64 662.156 1394.32 640.141 1379.47 634.177 C 1378.99 633.986 1378.51 633.809 1378.02 633.644 C 1363.59 628.749 1337.56 631.015 1321.7 630.347 C 1295.82 629.258 1270.23 627.332 1244.94 621.403 C 1221.89 616.002 1200.81 608.035 1180.33 596.069 C 1169.13 589.527 1157.26 577.646 1144.61 574.584 C 1120.81 568.82 1093.15 572.2 1072.05 584.662 C 1075.8 608.871 1086.54 633.147 1109.82 644.015 C 1117.76 647.722 1127.43 650.759 1134.07 656.629 C 1137.91 660.029 1141.38 664.752 1141.62 670.028 C 1141.82 674.425 1139.76 679.485 1137.62 683.217 C 1128.62 698.976 1115.86 713.59 1105.57 728.649 C 1095.44 743.486 1087.05 762.392 1074.64 775.162 C 1058.35 791.93 1034.84 789.598 1013.9 789.55 C 1006.72 789.533 999.533 790.443 992.36 790.293 C 983.819 790.115 970.597 788.141 964.739 781.468 C 962.892 779.364 962.35 777.239 962.716 774.461 C 963.842 765.907 973.016 762.321 977.865 756.563 C 982.698 750.823 983.851 745.841 990.288 740.782 C 1001.35 732.089 1019.07 720.638 1033.61 722.606 C 1034 722.659 1034.39 722.72 1034.77 722.776 A 966.901 966.901 0 0 0 1065.27 687.761 C 1055.02 684.404 1044.33 682.367 1034.07 678.963 C 1020.54 674.474 1008.26 667.737 995.86 660.825 C 963.946 729.898 926.094 805.533 864.861 853.401 C 850.282 864.798 833.529 873.38 817.691 882.885 C 822.521 895.681 829.423 905.505 828.516 919.989 C 827.693 933.134 821.949 946.369 816.016 957.935 C 785.694 1017.04 724.98 1068.61 672.463 1108.35 A 872.358 872.358 0 0 1 640.561 1131.38 C 633.217 1136.46 625.167 1141.26 618.532 1147.25 C 618.294 1147.46 618.061 1147.68 617.826 1147.9 C 602.31 1202.1 637.101 1262.22 607.511 1313.71 C 593.727 1337.69 573.529 1358.25 546.224 1365.33 C 535.426 1368.13 522.383 1371.07 512.293 1364.89 C 493.787 1353.56 482.736 1328.69 477.494 1308.56 C 482.949 1292.73 491.514 1277.78 498.432 1262.54 C 504.676 1248.78 509.536 1233.9 513.618 1219.35 C 521.155 1192.47 518.787 1171.46 521.191 1144.85 C 522.842 1126.56 566.476 1070.07 578.842 1052.5 C 596.26 1026.11 612.339 999.648 627.311 971.807 C 632.087 962.926 638.149 953.374 640.766 943.616 C 619.697 937.518 598.744 939.493 577.128 938.579 C 558.582 937.795 540.714 935.274 522.574 931.368 C 488.513 968.78 455.347 1006.41 409.302 1029.47 C 384.103 1042.08 357.411 1051.31 332.587 1064.81 C 307.525 1078.45 279.076 1098.96 267.399 1125.97 C 264.022 1133.78 263.106 1142.28 260.112 1150.1 C 257.521 1156.87 240.312 1151.08 233.272 1156.63 C 218.824 1168.03 210.091 1188.09 193.436 1196.44 C 161.789 1212.32 81.484 1205.16 48.8806 1191.68 C 46.4284 1190.66 45.7559 1189.82 44.8163 1187.43 C 44.8541 1185.66 44.9517 1184.35 45.8288 1182.77 C 52.9276 1169.95 84.6318 1140.73 97.309 1131.68 C 103.26 1127.43 110.037 1123.47 117.149 1121.61 C 126.623 1119.14 135.344 1123.2 143.378 1127.81 C 198.437 1106.21 241.475 1041.66 275.886 995.97 C 299.58 964.513 323.518 933.599 343.425 899.467 C 353.829 881.628 361.641 863.337 370.258 844.651 A 610.237 610.237 0 0 1 325.855 787.1 C 310.895 789.52 295.915 792.154 281.529 797.034 C 246.081 809.057 222.874 824.931 183.155 815.951 C 156.515 809.928 147.06 796.229 133.544 773.998 C 129.208 766.866 124.425 759.997 119.96 752.941 C 126.678 736.636 143.146 725.151 154.303 711.711 C 152.214 710.685 150.088 709.722 148.011 708.676 C 141.545 705.418 135.319 705.983 128.515 704.275 C 107.76 699.064 112.805 688.209 104.921 677.169 C 100.437 670.89 90.6357 669.13 86.4058 661.699 C 77.0005 645.174 71.9342 624.165 77.6617 605.632 C 80.5069 596.426 85.8926 588.72 90.8318 580.567 C 93.3023 576.489 94.8978 571.098 98.0712 567.59 C 111.714 552.507 148.441 553.749 166.851 549.383 C 174.215 547.637 180.341 544.927 186.957 541.3 C 185.747 539.322 184.597 537.599 184.169 535.273 C 182.915 528.453 194.72 518.533 196.968 511.555 C 199.545 503.555 194.838 489.562 199.559 483.376 C 203.898 477.689 213.178 475.8 219.264 472.384 C 252.351 453.811 270.449 439.819 309.918 434.054 C 319.012 422.054 332.761 409.141 346.919 403.412 C 361.05 397.695 410.112 390.537 423.201 397.769 C 425.605 399.098 425.901 399.64 426.825 402.043 C 414.005 416.633 395.787 420.948 384.379 440.197 L 383.712 441.343 C 388.035 443.795 392.474 446.034 396.889 448.315 C 434.363 444.542 465.051 446.941 501.545 456.088 C 533.337 446.293 570.764 440.244 603.826 443.712 C 614.871 444.871 625.525 447.88 636.467 449.561 C 651.013 451.796 665.609 447.689 679.475 443.643 C 750.313 422.973 809.362 379.418 872.403 342.714 C 897.23 328.259 923.172 314.801 949.638 303.595 A 501.593 501.593 0 0 1 1029.9 276.95 C 1047.87 272.713 1066.19 270.003 1084.07 265.327 C 1139.37 250.858 1195.09 224.544 1240.98 190.33 C 1269.27 169.237 1305.78 137.577 1310.81 100.453 C 1312.66 86.8148 1309.83 73.2015 1301.15 62.278 C 1287.75 45.425 1265.93 37.9848 1245.25 35.8727 C 1254.62 26.9576 1264.01 23.6664 1276.35 21.2129 z"/>
<path transform="translate(0,0)" fill="rgb(106,93,83)" d="M 142.019 602.479 C 143.315 602.623 144.089 602.67 145.293 602.913 C 149.407 603.744 151.196 606.585 153.388 609.836 C 150.115 610.025 146.279 610.691 143.258 609.294 C 141.677 606.631 141.975 605.518 142.019 602.479 z"/>
<path transform="translate(0,0)" fill="rgb(229,226,214)" d="M 285.01 754.004 C 285.856 754.374 286.513 755.225 287.171 755.868 L 286.831 758.158 C 284.01 760.911 280.926 762.089 277.331 763.607 C 275.666 762.233 275.281 761.473 274.697 759.403 C 276.679 756.752 281.874 755.364 285.01 754.004 z"/>
<path transform="translate(0,0)" fill="rgb(229,226,214)" d="M 156.316 769.09 C 160.185 768.477 166.168 771.888 169.338 774.247 C 170.158 774.858 170.927 775.643 171.658 776.338 L 171.724 778.278 C 169.083 779.381 168.419 779.051 165.553 778.539 C 160.37 776.203 158.533 774.332 156.316 769.09 z"/>
<path transform="translate(0,0)" fill="rgb(229,226,214)" d="M 180.294 773.168 C 182.723 775.316 183.675 776.644 186.905 777.265 C 188.681 776.445 190.395 775.662 192.042 774.602 C 193.209 776.823 193.072 777.652 193.028 780.202 C 191.407 782.126 189.735 782.59 187.345 783.057 C 183.97 783.717 182.199 782.8 179.485 780.905 C 178.186 777.656 179.232 776.424 180.294 773.168 z"/>
<path transform="translate(0,0)" fill="rgb(229,226,214)" d="M 213.615 774.117 C 218.285 775.033 221.3 774.188 225.535 772.209 C 226.857 775.049 228.076 776.313 227.342 779.421 C 225.521 781.241 224.813 782.287 222.059 782.466 C 219.845 782.61 216.948 781.407 215.321 780.007 L 213.615 774.117 z"/>
<path transform="translate(0,0)" fill="rgb(66,60,56)" d="M 103.832 583.067 C 105.9 583.539 108.471 583.961 109.714 585.819 C 112.667 590.237 110.818 597.398 110.193 602.385 L 108.286 601.844 C 104.692 595.631 103.983 590.115 103.832 583.067 z"/>
<path transform="translate(0,0)" fill="rgb(229,226,214)" d="M 197.585 527.777 C 203.415 535.1 194.882 537.187 208.23 537.562 C 210.107 537.615 210.832 537.719 212.375 538.75 L 212.336 540.235 L 209.839 541.773 C 205.24 542.732 201.948 542.915 197.829 540.203 C 195.775 538.851 194.103 537.072 193.863 534.49 C 193.544 531.062 195.451 529.991 197.585 527.777 z"/>
<path transform="translate(0,0)" fill="rgb(229,226,214)" d="M 255.255 761.031 C 257.302 760.814 259.96 760.484 261.979 760.912 C 264.766 761.504 266.211 762.461 267.795 764.695 C 266.928 767.574 266.413 767.62 263.936 769.419 C 261.467 770.41 258.918 771.761 256.198 771.38 C 254.63 771.161 254.344 770.262 253.414 769.145 C 253.235 765.89 254.015 763.936 255.255 761.031 z"/>
<path transform="translate(0,0)" fill="rgb(229,226,214)" d="M 243.147 761.395 L 246.692 762.476 C 249.157 765.664 249.367 769.864 250.012 773.735 C 246.936 775.079 243.612 776.072 240.445 777.196 C 238.432 777.739 237.403 778.065 235.402 777.357 L 234.821 775.174 C 236.452 769.992 240.009 765.765 243.147 761.395 z"/>
<path transform="translate(0,0)" fill="rgb(66,60,56)" d="M 139.081 760.394 C 143.186 763.612 148.235 763.54 151.978 767.532 C 153.447 768.581 152.521 768.205 154.919 768.107 L 156.316 769.09 C 158.533 774.332 160.37 776.203 165.553 778.539 L 161.66 780.608 C 154.963 779.67 149.396 774.534 142.43 773.403 C 141.309 772.718 140.602 771.651 139.887 770.569 C 137.6 767.105 138.227 764.18 139.081 760.394 z"/>
<path transform="translate(0,0)" fill="rgb(106,93,83)" d="M 458.662 486.699 C 474.751 491.433 493.151 501.065 507.24 510.083 C 495.324 510.02 479.253 505.642 470.096 497.952 C 466.1 494.595 462.46 490.35 458.662 486.699 z"/>
<path transform="translate(0,0)" fill="rgb(66,60,56)" d="M 112.881 670.28 C 109.964 670.345 109.35 670.566 106.93 669.027 L 106.987 667.548 L 107.748 666.856 C 109.392 665.341 110.347 664.748 111.059 662.561 C 107.288 662.89 104.774 664.562 100.969 663.279 L 100.436 661.964 C 102.769 658.901 104.562 656.456 108.606 655.707 C 111.05 655.255 113.868 655.523 116.345 655.612 C 120.891 660.256 125.387 666.299 128.181 672.185 L 128.128 673.442 L 125.373 673.166 C 126.36 674.787 127.285 676.119 128.606 677.485 L 127.73 680.833 C 122.155 677.403 119.648 670.74 112.881 670.28 z"/>
<path transform="translate(0,0)" fill="rgb(66,60,56)" d="M 223.172 760.991 L 224.592 762.055 L 224.211 762.668 L 225.043 764.641 C 228.236 765.676 232.24 766.442 234.872 768.526 C 231.794 769.268 230.195 766.667 226.694 767.525 C 226.118 769.19 225.679 770.439 225.535 772.209 C 221.3 774.188 218.285 775.033 213.615 774.117 L 212.51 772.59 C 208.838 771.213 204.575 771.897 200.719 772.101 L 200.602 771.461 L 209.177 769.485 C 191.157 763.66 201.355 770.1 185.224 772.656 L 184.696 773.736 C 187.521 775.15 188.933 774.772 192.042 774.602 C 190.395 775.662 188.681 776.445 186.905 777.265 C 183.675 776.644 182.723 775.316 180.294 773.168 C 182.411 770.251 182.636 770.086 186.186 769.246 C 188.229 769.287 190.124 769.057 192.146 768.777 C 197.273 764.382 200.179 764.307 206.65 764.116 C 212.797 763.935 217.385 762.876 223.172 760.991 z"/>
<path transform="translate(0,0)" fill="rgb(229,226,214)" d="M 353.905 738.607 C 357.381 738.179 361.547 737.179 364.961 738.082 C 367.491 740.041 368.946 741.39 370.385 744.27 L 369.456 745.21 C 365.485 744.184 361.608 743.338 357.545 742.768 C 355.158 743.663 355.755 743.326 354.764 745.319 C 349.948 746.282 344.529 745.438 339.637 745.21 C 328.532 744.691 319.524 745.54 308.775 748.452 L 295.609 753.694 C 293.273 752.831 293.328 752.391 292.041 750.205 L 292.606 748.498 C 310.063 746.88 319.614 742.727 335.703 739.909 C 341.587 738.879 347.909 739.062 353.905 738.607 z"/>
<path transform="translate(0,0)" fill="rgb(229,226,214)" d="M 112.881 670.28 C 119.648 670.74 122.155 677.403 127.73 680.833 C 130.279 683.455 134.241 683.607 135.824 686.981 C 133.748 690.815 133.453 694.908 131.696 698.861 L 129.655 698.838 C 123.054 695.068 115.412 686.978 112.236 680.008 C 112.97 677.333 113.774 674.831 113.254 672.037 C 113.144 671.448 113.006 670.865 112.881 670.28 z"/>
<path transform="translate(0,0)" fill="rgb(246,149,148)" d="M 307.438 715.191 L 315.791 714.312 C 323.49 715.448 331.635 716.277 336.895 722.739 C 338.113 725.267 339.464 727.803 340.558 730.384 C 336.427 730.825 332.017 730.995 328.003 732.068 C 326.777 731.791 325.722 731.462 324.615 730.855 C 319.048 727.8 312.928 725.467 306.932 723.377 C 304.458 722.514 304.757 722.037 303.502 719.863 L 307.438 715.191 z"/>
<path transform="translate(0,0)" fill="url(#Gradient1)" d="M 116.301 577.75 C 122.414 580.343 128.414 585.852 134.611 587.455 C 131.278 588.402 127.985 589.368 124.576 590 C 122.898 600.901 121.239 614.97 128.234 624.439 C 130.023 626.86 132.02 628.516 135.097 628.98 C 136.132 629.136 137.623 629.141 138.665 629.168 L 137.596 632.465 C 133.395 632.903 128.621 636.158 124.811 638.079 C 120.884 634.579 118.025 631.255 115.129 626.841 C 115.333 611.589 122.605 591.785 116.301 577.75 z"/>
<path transform="translate(0,0)" fill="rgb(238,127,132)" d="M 195 741.939 C 200.29 742.133 212.291 742.634 216.161 746.692 C 216.399 746.942 216.563 747.252 216.765 747.532 C 216.562 748.605 216.457 749.631 215.982 750.62 C 214.061 752.796 212.942 753.791 212.617 756.796 C 214.461 759.298 216.326 760.041 219.388 760.531 C 220.641 760.731 221.911 760.859 223.172 760.991 C 217.385 762.876 212.797 763.935 206.65 764.116 C 200.179 764.307 197.273 764.382 192.146 768.777 C 190.124 769.057 188.229 769.287 186.186 769.246 C 184.75 763.917 184.626 758.907 186.097 753.535 C 187.544 748.247 190.195 744.528 195 741.939 z"/>
<path transform="translate(0,0)" fill="rgb(106,93,83)" d="M 101.306 575.485 C 110.92 570.058 118.347 567.374 129.583 570.322 C 143.121 573.874 158.142 584.972 165.1 597.2 C 166.666 599.953 168.641 603.621 167.851 606.726 C 165.596 608.434 165.337 608.415 162.491 608.544 C 158.337 606.694 157.139 604.115 155.063 600.224 C 151.882 594.261 146.816 590.025 140.277 588.121 C 138.387 587.571 136.565 587.513 134.611 587.455 C 128.414 585.852 122.414 580.343 116.301 577.75 C 111.183 576.373 106.566 575.796 101.306 575.485 z"/>
<path transform="translate(0,0)" fill="rgb(106,93,83)" d="M 541.788 779.091 C 542.989 780.928 540.919 783.862 540.159 785.91 C 534.718 800.591 533.218 815.476 533.002 831.028 A 1002.07 1002.07 0 0 0 515.379 817.227 C 509.921 812.943 503.886 809.185 498.149 805.271 C 514.175 798.626 527.975 789.474 541.788 779.091 z"/>
<path transform="translate(0,0)" fill="rgb(229,226,214)" d="M 121.397 1135.08 C 124.608 1135.43 128.057 1135.37 130.784 1137.26 C 128.985 1140.27 116.419 1148.12 112.435 1152.39 C 103.339 1162.12 97.3948 1173.8 89.4214 1184.36 C 86.4094 1185.37 84.8604 1184.78 81.7729 1184.23 L 67.5096 1181.07 C 80.7475 1166.5 102.393 1140.34 121.397 1135.08 z"/>
<path transform="translate(0,0)" fill="rgb(106,93,83)" d="M 375.705 409.396 C 382.847 408.505 390.481 408.863 397.696 408.71 C 392.201 411.859 385.875 414.989 381.113 419.162 C 374.712 424.773 372.482 431.474 371.772 439.745 L 356.78 437.065 C 347.82 435.259 338.41 434.508 329.335 433.31 A 71.3186 71.3186 0 0 1 333.168 428.023 C 343.917 414.759 359.651 411.143 375.705 409.396 z"/>
<path transform="translate(0,0)" fill="rgb(106,93,83)" d="M 92.6969 587.744 C 94.7344 593.887 94.9011 602.759 99.7701 607.387 C 102.653 610.127 106.312 612.01 108.962 615.01 C 109.119 624.496 102.463 622.261 100.498 629.026 L 101.761 631.1 C 104.4 632.14 106.543 633.108 108.919 634.704 C 109.976 636.465 110.329 637.18 110.303 639.315 C 110.249 643.948 103.781 648.776 100.618 651.794 C 97.9984 654.233 96.0911 657.525 94.0902 660.488 C 90.3771 652.288 86.5644 644.2 84.3892 635.428 C 79.9249 617.425 83.2166 603.394 92.6969 587.744 z"/>
<path transform="translate(0,0)" fill="rgb(106,93,83)" d="M 340.352 784.254 C 360.385 787.785 380.867 796.271 400.153 802.752 C 395.637 821.132 396.57 836.473 404.393 853.715 L 404.599 854.566 L 403.156 854.756 C 380.15 839.341 357.931 806.02 340.352 784.254 z"/>
<path transform="translate(0,0)" fill="rgb(238,127,132)" d="M 278.14 714.4 C 283.556 714.421 289.215 714.916 294.548 715.896 C 298.097 716.548 301.353 716.856 303.502 719.863 C 304.757 722.037 304.458 722.514 306.932 723.377 C 312.928 725.467 319.048 727.8 324.615 730.855 C 325.722 731.462 326.777 731.791 328.003 732.068 C 323.112 733.942 317.441 736.648 312.184 736.931 C 305.775 737.276 299.804 734.777 293.433 736.263 C 285.132 738.2 278.716 744.545 270.705 747.248 C 255.891 752.248 240.278 753.734 225.104 756.937 C 225.719 753.449 225.914 749.831 226.259 746.306 C 235.092 738.184 249.086 733.914 259.422 727.675 C 266.039 723.681 271.506 718.366 278.14 714.4 z"/>
<path transform="translate(0,0)" fill="rgb(229,226,214)" d="M 433.302 460.375 C 447.163 458.876 463.42 461.17 477.022 463.944 C 489.722 466.534 501.469 471.343 512.915 477.345 C 543.07 493.156 558.224 510.659 576.776 538.508 C 554.342 532.322 535.447 510.261 515.959 497.981 C 490.094 481.682 461.555 473.599 434.209 460.807 L 433.302 460.375 z"/>
<path transform="translate(0,0)" fill="rgb(106,93,83)" d="M 170.567 707.805 C 180.011 712.442 190.82 712.461 201.142 713.302 C 184.851 730.148 178.683 744.066 174.366 767.01 C 168.988 766.087 163.251 765.488 158.057 763.82 C 155.886 766.425 155.098 766.494 151.978 767.532 C 148.235 763.54 143.186 763.612 139.081 760.394 C 137.395 757.439 135.378 754.613 133.513 751.765 C 133.237 746.596 137.337 742.053 140.688 738.374 C 150.29 727.83 161.091 718.492 170.567 707.805 z"/>
<path transform="translate(0,0)" fill="rgb(39,37,36)" d="M 133.513 751.765 C 139.204 750.999 153.05 760.09 158.057 763.82 C 155.886 766.425 155.098 766.494 151.978 767.532 C 148.235 763.54 143.186 763.612 139.081 760.394 C 137.395 757.439 135.378 754.613 133.513 751.765 z"/>
<path transform="translate(0,0)" fill="url(#Gradient2)" d="M 280.729 694.812 C 285.66 692.762 292.182 689.631 297.548 691.754 C 300.514 692.928 301.627 694.967 302.588 697.814 C 303.884 703.7 311.256 705.215 313.211 710.817 C 312.514 711.865 311.947 712.651 311.046 713.546 C 312.524 713.709 314.463 713.666 315.791 714.312 L 307.438 715.191 L 303.502 719.863 C 301.353 716.856 298.097 716.548 294.548 715.896 C 289.215 714.916 283.556 714.421 278.14 714.4 C 271.506 718.366 266.039 723.681 259.422 727.675 C 249.086 733.914 235.092 738.184 226.259 746.306 C 225.914 749.831 225.719 753.449 225.104 756.937 C 222.841 755.949 221.871 754.535 220.43 752.631 C 219.367 751.225 217.635 751.143 215.982 750.62 C 216.457 749.631 216.562 748.605 216.765 747.532 C 216.563 747.252 216.399 746.942 216.161 746.692 C 212.291 742.634 200.29 742.133 195 741.939 L 195.772 739.579 L 199.172 738.42 C 196.068 737.995 192.788 738.558 189.68 738.836 C 194.711 734.438 203.343 722.927 209.19 720.995 C 210.325 718.982 211.814 717.097 213.141 715.201 C 220.273 706.768 232.816 707.313 243.022 705.808 C 254.245 703.571 265.47 700.753 276.018 696.257 L 280.729 694.812 z"/>
<path transform="translate(0,0)" fill="rgb(229,226,214)" d="M 276.018 696.257 C 276.723 698.834 276.706 699.31 276.039 701.901 C 272.108 705.684 251.006 709.037 244.375 709.722 L 244.25 709.619 C 244.239 707.738 246.347 708.783 247.628 707.331 L 243.022 705.808 C 254.245 703.571 265.47 700.753 276.018 696.257 z"/>
<path transform="translate(0,0)" fill="rgb(66,60,56)" d="M 254.42 717.83 C 257.287 717.945 259.188 717.552 261.634 719.179 C 261.179 727.523 236.904 732.968 230.626 739.053 C 228.809 740.541 229.079 740.918 226.597 740.794 L 226.819 738.879 C 232.833 729.755 245.49 723.938 254.42 717.83 z"/>
<path transform="translate(0,0)" fill="rgb(229,226,214)" d="M 280.729 694.812 C 285.66 692.762 292.182 689.631 297.548 691.754 C 300.514 692.928 301.627 694.967 302.588 697.814 C 298.845 701.026 293.322 707.021 288.513 708.242 C 286.98 708.632 285.773 708.557 284.528 707.609 C 280.804 704.772 281.096 699.081 280.729 694.812 z"/>
<path transform="translate(0,0)" fill="rgb(147,127,115)" d="M 189.68 738.836 C 194.711 734.438 203.343 722.927 209.19 720.995 A 698.666 698.666 0 0 0 219.015 741.638 C 212.415 740.553 205.799 739.304 199.172 738.42 C 196.068 737.995 192.788 738.558 189.68 738.836 z"/>
<path transform="translate(0,0)" fill="rgb(229,226,214)" d="M 213.141 715.201 C 220.273 706.768 232.816 707.313 243.022 705.808 L 247.628 707.331 C 246.347 708.783 244.239 707.738 244.25 709.619 L 244.375 709.722 C 238.506 718.624 230.691 726.198 223.406 733.941 C 219.236 728.014 215.847 721.942 213.141 715.201 z"/>
<path transform="translate(0,0)" fill="rgb(229,226,214)" d="M 155.795 1139.84 C 172.73 1142.41 185.851 1159.84 199.015 1169.57 L 200.255 1170.48 C 196.864 1174.88 193.429 1178.99 189.573 1183 C 176.207 1186.91 161.648 1188.13 147.825 1189.29 A 152.41 152.41 0 0 1 104.617 1188.23 C 114.987 1164.34 132.107 1150.24 155.795 1139.84 z"/>
<path transform="translate(0,0)" fill="rgb(106,93,83)" d="M 493.671 539.403 C 517.966 536.798 540.121 541.053 563.153 548.395 C 546.679 556.073 533.777 568.801 520.397 580.789 A 141.734 141.734 0 0 1 518.1 582.707 C 509.244 589.916 498.489 595.555 486.725 594.086 C 479.323 593.161 472.779 589.398 468.41 583.332 C 460.291 572.056 461.608 557.434 463.512 544.497 C 473.363 541.794 483.525 540.421 493.671 539.403 z"/>
<path transform="translate(0,0)" fill="rgb(229,226,214)" d="M 580.868 553.92 L 581.646 554.071 C 589.755 561.332 596.471 599.912 597.574 611.714 C 602.325 662.521 587.839 707.754 555.018 746.836 C 531.425 774.929 493.514 799.383 456.393 802.733 L 455.705 801.838 C 469.473 793.785 483.68 788.667 497.035 779.408 C 534.842 753.194 564.115 713.707 572.342 667.987 C 578.197 635.45 577.113 593.445 557.439 565.386 C 565.153 561.191 572.744 557.279 580.868 553.92 z"/>
<path transform="translate(0,0)" fill="rgb(229,226,214)" d="M 565.773 1257.42 C 578.759 1256.06 591.379 1258.14 604.062 1260.74 C 604.354 1263.31 604.683 1265.93 604.727 1268.51 C 605.115 1290.91 591.726 1314.73 576.551 1330.37 C 569.097 1317.4 565.74 1300.78 566.181 1285.91 C 566.39 1278.87 567.246 1271.69 566.303 1264.7 C 564.094 1263.63 563.774 1263.95 561.431 1264.2 C 558.419 1266.19 557.24 1268.5 556.204 1271.88 C 548.928 1295.63 555.164 1318.72 565.999 1339.89 C 553.992 1346.27 541.392 1350.63 527.944 1352.7 L 525.571 1352.65 C 524.321 1351.51 523.872 1351.32 523.253 1349.65 C 515.42 1328.6 529.369 1286.09 538.045 1266.2 C 534.236 1267.74 529.652 1269.3 526.663 1272.21 C 510.883 1287.55 507.419 1318.5 507.788 1339.28 C 502.214 1329.83 497.151 1321.05 494.244 1310.41 C 499.511 1295.35 507.287 1282.02 515.9 1268.64 C 532.492 1261.85 547.98 1259.15 565.773 1257.42 z"/>
<path transform="translate(0,0)" fill="rgb(229,226,214)" d="M 411.124 810.735 C 423.132 816.21 427.066 835.777 435.199 846.197 C 438.256 850.113 442.585 853.037 446.542 855.98 C 442.618 841.443 436.219 826.957 430.33 813.097 C 450.401 818.771 466.146 817.856 485.953 811.799 C 502.088 822.052 516.993 835.04 533.465 844.429 C 536.154 857.098 539.921 868.537 545.464 880.257 C 512.458 868.166 494.76 855.532 466.035 836.942 C 468.243 844.819 470.93 851.233 475.626 857.939 C 494.585 878.991 529.285 890.184 556.175 895.523 C 566.323 905.876 576.548 915.341 588.174 924.028 A 422.211 422.211 0 0 1 557.595 921.696 C 511.648 916.106 448.793 890.545 420.079 852.91 C 410.277 840.062 409.108 826.127 411.124 810.735 z"/>
<path transform="translate(0,0)" fill="rgb(106,93,83)" d="M 1055.96 594.007 C 1060.1 598.289 1061.86 607.577 1063.76 613.333 C 1070.37 633.374 1081.74 648.64 1101.21 657.709 C 1109.85 661.734 1119.08 664.87 1127.2 669.898 C 1127.53 670.105 1127.86 670.321 1128.19 670.532 C 1108.97 695.268 1093.55 721.758 1076.16 747.676 C 1066.27 762.429 1058.02 768.668 1040.4 772.02 C 1033.77 773.281 1020.77 775.081 1015.05 771.177 C 1014.68 770.029 1014.57 769.878 1014.45 768.527 C 1013.5 757.783 1029.31 748.412 1035.14 740.788 C 1035.37 740.486 1035.59 740.177 1035.82 739.872 C 1025.77 746.485 1012.63 750.836 1004.87 760.081 C 1002.55 764.787 1001.38 768.849 1000.42 773.955 C 994.485 774.088 984.746 775.389 979.475 772.563 C 979.91 769.613 995.8 753.461 998.856 750.375 C 1004.66 744.515 1017.77 737.479 1026.06 736.287 C 1030.87 735.596 1036.09 735.863 1040.96 735.845 C 1041.31 735.59 1041.68 735.339 1042.03 735.079 C 1050.43 728.895 1076.16 701.623 1082.09 692.959 C 1084.28 689.757 1085.49 687.221 1086.04 683.384 C 1080.01 674.67 1045.7 666.814 1034.15 662.504 C 1024.22 658.798 1014.19 654.848 1005.26 649.073 L 1003.98 648.236 C 1015.97 626.932 1036.15 608.141 1055.96 594.007 z"/>
<path transform="translate(0,0)" fill="rgb(106,93,83)" d="M 375.217 849.52 C 414.198 889.255 451.151 909.992 504.032 926.193 C 483.802 953.498 450.266 986.809 422.021 1004.6 C 366.779 1039.41 279.467 1054.73 252.602 1121.75 L 248.066 1135.22 C 229.297 1139.88 216.725 1149.24 205.223 1164.7 C 193.219 1152.46 180.828 1143.18 166.922 1133.26 C 176.894 1127.44 186.159 1121.11 194.969 1113.63 C 213.744 1097.68 232.444 1079.03 247.652 1059.64 C 260.087 1043.78 271.121 1026.88 283.428 1010.92 C 310.553 975.767 342.949 936.832 362.357 896.918 A 133.835 133.835 0 0 0 375.217 849.52 z"/>
<path transform="translate(0,0)" fill="rgb(47,44,41)" d="M 417.645 935.103 C 416.832 949.82 365.936 977.763 353.017 986.241 C 343.723 992.339 334.491 998.779 326.26 1006.27 C 304.402 1026.18 302.809 1041.28 287.429 1062.66 C 287.229 1062.93 287.022 1063.21 286.818 1063.48 C 286.163 1061.5 286.168 1062.05 286.154 1060.05 C 286.091 1051.37 290.802 1040.23 294.438 1032.46 C 311.944 995.059 347.357 976.892 382.037 958.336 C 394.013 951.929 406.585 945.411 416.589 936.095 L 417.645 935.103 z"/>
<path transform="translate(0,0)" fill="rgb(106,93,83)" d="M 206.516 488.699 C 227.903 481.762 245.204 469.445 265.184 459.917 C 319.998 433.779 375.946 450.933 427.166 477.064 C 443.41 485.351 457.089 494.965 469.239 508.608 C 492.886 514.477 514.628 520.195 536.695 530.94 C 518.746 528.615 471.543 526.165 456.989 537.037 C 452 540.764 450.559 548.028 449.914 553.815 C 448.375 567.611 451.649 582.345 460.581 593.19 C 467.607 601.721 477.406 606.555 488.417 607.192 C 505.596 608.186 520.317 599.219 532.42 587.95 C 537.456 583.262 542.281 578.309 547.112 573.411 C 562.241 616.291 564.032 660.435 544 702.26 C 524.444 743.089 483.666 778.086 440.96 792.845 C 436.596 794.353 432.133 795.648 427.68 796.87 C 407.263 786.999 384.601 776.826 361.86 774.756 C 372.697 771.178 388.377 767.784 394.133 756.947 C 399.16 747.483 395.693 734.555 392.348 725.003 C 384.989 703.988 372.434 692.945 358.113 676.874 C 347.784 665.281 338.756 652.758 327.725 641.753 C 294.707 608.809 252.633 589.953 211.09 570.25 A 106.077 106.077 0 0 0 203.16 566.844 C 203.48 567.156 203.797 567.473 204.121 567.782 C 220.147 583.062 241.552 592.888 260.541 603.894 C 303.308 628.682 327.461 654.172 357.859 692.349 C 369.069 706.426 382.946 722.866 383.301 741.859 C 383.384 746.291 383.175 750.079 379.947 753.367 C 367.182 766.369 306.859 776.489 287.197 782.541 C 260.764 790.677 235.846 807.163 207.492 806.719 C 188.505 806.422 165.45 801.542 151.942 787.165 C 148.125 783.102 145.212 778.205 142.43 773.403 C 149.396 774.534 154.963 779.67 161.66 780.608 C 201.938 797.098 242.933 784.263 280.955 768.072 C 294.654 762.238 307.516 755.584 322.216 752.508 C 340.228 748.738 358.499 755.266 376.431 752.208 C 378.204 750.173 379.445 748.592 380.014 745.898 C 381.425 739.208 377.195 732.057 373.703 726.646 C 364.399 712.23 352.304 702.125 337.792 693.163 C 274.883 654.314 243.932 713.091 180.187 698.539 C 159.501 693.817 147.179 682.815 133.318 667.308 C 128.386 661.789 122.913 655.977 119.158 649.552 C 117.892 647.386 116.96 645.974 117.652 643.471 C 120.888 643.669 123.414 645.944 126.126 647.682 C 131.013 643.185 134.913 638.59 137.596 632.465 L 138.665 629.168 C 138.944 628.903 139.191 628.6 139.502 628.373 C 148.1 622.109 175.041 625.615 182.457 609.426 C 182.843 600.352 173.779 591.27 167.955 584.996 C 160.308 576.757 151.78 570.165 142.355 564.096 C 154.547 563.052 166.84 562.237 179.081 562.151 C 191.697 562.062 208.966 565.104 220.925 561.361 C 229.614 558.642 236.565 552.739 242.31 545.855 C 250.068 536.56 255.978 525.811 263.755 516.534 C 286.995 488.807 322.241 476.744 357.346 473.384 C 362.956 472.847 368.591 472.693 374.222 472.573 C 340.976 465.933 308.635 472.894 280.343 491.794 A 104.762 104.762 0 0 0 257.184 513.059 C 247.129 525.427 234.512 553.5 218.451 557.474 C 206.183 560.509 191.751 557.041 179.449 555.123 C 182.792 553.749 186.454 552.001 190.02 551.366 C 200.154 549.564 214.427 553.996 219.913 542.127 C 224.533 532.133 222.062 514.864 217.991 505.097 C 216.133 500.639 213.75 496.47 211.326 492.302 C 214.208 506.042 218.532 519.248 217.788 533.387 C 205.868 516.082 210.243 507.768 206.516 488.699 z"/>
<path transform="translate(0,0)" fill="rgb(47,44,41)" d="M 516.798 624.224 C 517.103 624.387 517.422 624.525 517.712 624.713 C 519.886 626.119 521.013 628.201 521.561 630.675 C 526.28 651.958 511.519 691.803 500.134 709.981 C 480.832 740.798 453.415 759.272 418.267 767.278 C 445.622 732.422 462.907 724.125 480.251 678.166 C 483.58 666.001 486.479 640.408 491.877 630.811 L 493.568 631.382 L 492.659 630.383 C 494.527 632.97 494.479 636.196 494.767 639.3 C 498.534 679.94 477.007 713.815 452.458 743.701 C 452.997 743.412 453.538 743.127 454.073 742.832 C 483.681 726.485 500.181 692.187 508.464 660.847 C 511.666 648.734 513.493 636.317 516.798 624.224 z"/>
<path transform="translate(0,0)" fill="rgb(47,44,41)" d="M 319 514.756 C 321.065 514.911 319.998 514.685 322.176 515.553 C 320.508 520.491 312.299 526.005 309.147 531 C 300.802 544.224 298.005 560.811 287.477 572.572 C 311.314 557.835 316.903 560.552 342.919 564.816 C 371.647 569.524 409.095 540.913 431.844 524.639 C 420.334 541.336 406.45 552.57 389.415 563.347 C 378.506 569.611 366.612 573.644 355.763 579.766 C 349.084 583.533 343.708 589.305 336.841 592.867 C 333.774 594.458 330.929 595.583 327.46 595.809 C 321.87 596.173 316.15 595.108 310.806 593.526 C 302.146 590.962 293.724 587.019 285.313 583.715 A 361.175 361.175 0 0 0 244.651 570.153 C 240.418 569.033 233.619 567.771 230.371 564.802 C 241.217 561.437 266.631 570.02 277.674 572.783 C 288.579 552.103 297.5 526.388 319 514.756 z"/>
<path transform="translate(0,0)" fill="rgb(229,226,214)" d="M 312.77 573.273 C 323.411 572.321 334.006 573.341 344.59 574.45 C 339.672 578.19 334.905 580.989 329.208 583.374 C 322.911 584.874 317.721 585.042 311.388 583.727 C 307.709 582.963 302.853 582.07 300.71 578.688 L 301.312 576.922 C 304.944 574.537 308.596 574.026 312.77 573.273 z"/>
<path transform="translate(0,0)" fill="rgb(106,93,83)" d="M 1293.38 35.9444 C 1295.12 36.2018 1296.65 36.5665 1298.32 37.1445 C 1314.38 42.7179 1327.87 56.4975 1335.29 71.5791 C 1343.37 88.0287 1343.24 107.716 1337.38 124.82 C 1315.87 187.505 1235.64 241.078 1178.58 270.323 C 1162.34 278.647 1145.38 284.887 1129.12 292.914 L 1128.11 293.424 C 1150.82 297.821 1173.61 302.923 1194.69 312.695 C 1262.46 344.112 1313.33 403.088 1342.04 471.294 C 1351.89 494.692 1358.4 519.253 1367.29 542.984 C 1378.6 573.15 1394.8 590.291 1424.14 603.751 C 1413.34 592.873 1402.49 582.238 1395.23 568.594 C 1402.38 568.104 1413.73 567.971 1420.17 571.234 C 1423.98 573.163 1426.79 576.366 1429.03 579.944 C 1434.48 588.624 1437.64 599.648 1441.73 609.067 C 1446.97 621.138 1453.08 632.867 1459.08 644.578 C 1467.63 661.27 1475.93 678.549 1485.65 694.574 C 1496.48 712.42 1510.88 727.819 1517.81 747.948 C 1520.25 755.054 1521.78 764.027 1518.01 770.958 C 1515.73 775.14 1512.67 776.821 1508.23 778.044 L 1506.25 776.806 C 1501.11 766.799 1500.35 751.341 1498.33 740.119 C 1496.73 731.28 1496.18 725.553 1488.36 720.199 L 1487.27 719.464 C 1486.52 731.145 1485.27 744.358 1487.48 755.915 C 1488.89 763.35 1494.08 774.889 1492.84 782.129 C 1492.39 784.781 1490.74 786.418 1488.48 787.728 C 1481.74 791.631 1469.95 791.959 1462.61 789.8 C 1459.14 788.779 1455.96 786.488 1454.4 783.153 C 1448.84 771.239 1460.85 753.384 1464.55 742.194 C 1468 731.75 1462.63 722.257 1458.05 713.094 C 1455.94 722.231 1455.95 731.909 1452.81 740.821 C 1450.34 747.814 1445.3 754.105 1443.4 761.26 C 1442.07 766.242 1442.95 771.579 1440.73 776.299 L 1438.95 776.659 C 1437.25 775.929 1435.96 775.723 1434.81 774.184 C 1426.17 762.631 1444.3 739.049 1445.07 725.529 C 1446.39 702.409 1419.39 650.835 1404.06 633.835 C 1382.21 609.602 1345.81 615.966 1316.31 614.447 C 1270.54 612.089 1220.08 605.24 1181.4 578.671 C 1159.23 563.438 1138.89 540.334 1122.3 519.227 C 1106.61 499.248 1092.81 478.413 1075.67 459.523 C 1044.28 424.917 1008.2 407.005 961.686 404.688 C 1001.94 428.403 1025.15 474.695 1032.76 519.428 C 1034.14 527.508 1033.7 544.453 1037.01 551.064 L 1038.24 550.328 C 1041.03 544.53 1041.59 536.666 1042.24 530.289 C 1046.58 487.431 1022.94 451.586 996.957 420.038 C 1043.89 440.012 1066.25 469.21 1095.75 508.454 A 1669.66 1669.66 0 0 0 1135.49 559.338 C 1120.57 557.658 1105.54 556.948 1090.78 560.265 C 1048.48 569.768 1007.44 610.589 985.943 646.705 C 970.188 673.172 958.577 702.69 943.955 729.927 C 931.433 753.252 916.072 776.287 899.707 797.055 C 872.282 831.859 848.95 843.951 814.686 868.26 C 808.799 848.269 804.849 827.528 799.455 807.367 C 797.237 799.076 786.1 762.299 780.055 758.806 C 777.176 762.354 787.076 806.482 787.918 815.31 C 791.25 850.222 776.469 878.835 760.718 908.756 C 766.354 903.571 771.647 898.191 776.874 892.595 C 785.555 881.674 791.169 869.216 796.99 856.635 C 798.762 867.774 800.484 878.987 803.32 889.914 C 805.88 899.78 811.378 910.865 811.74 921.001 C 812.155 932.578 802.874 947.242 797.609 957.141 C 764.097 1020.14 704.569 1065.37 648.515 1107.41 C 635.152 1117.43 616.42 1126.82 605.528 1139 C 592.155 1153.97 601.137 1223.48 603.215 1245.92 C 574.666 1239.32 546.429 1244.48 518.866 1252.83 C 526.278 1232.61 532.365 1211.43 534.89 1190.03 C 536.592 1175.59 532.873 1150.89 537.979 1138.89 C 546.883 1117.97 575.52 1085.03 589.449 1064.2 A 1538.92 1538.92 0 0 0 661.274 942.908 A 139.423 139.423 0 0 0 736.565 921.382 C 712.383 925.619 688.187 931.59 663.501 931.637 C 631.419 931.698 601.342 920.281 578.612 897.438 A 105.345 105.345 0 0 1 559.809 774.655 C 568.594 757.377 581.54 742.691 590.346 725.453 C 606.005 694.803 615.319 666.325 615.32 631.735 C 615.32 573.329 596.607 527.98 555.46 486.985 C 598.618 471.489 646.913 478.7 691.794 475.744 C 720.825 473.831 749.226 468.834 776.706 459.121 C 835.824 438.224 891.03 395.574 932.043 348.737 C 906.659 362.205 884.873 382.38 861.439 398.88 C 800.332 441.904 748.625 461.814 673.359 465.474 C 656.443 466.296 639.508 465.444 622.596 466.15 C 606.372 466.826 564.922 470.578 554.479 482.847 C 554.091 483.303 553.726 483.777 553.35 484.241 C 544.075 483.419 527.235 470.108 519.904 464.359 C 545.269 456.901 574.505 454.728 600.874 456.544 C 642.702 459.425 658.135 466.135 700.439 451.821 C 780.639 424.683 847.621 370.184 922.808 332.623 C 953.979 317.05 989.226 303.345 1023.02 294.812 C 1040.48 290.404 1058.26 287.654 1075.87 283.936 C 1154.48 267.331 1267.84 208.9 1312 140.113 C 1323.69 121.914 1331.59 98.5618 1326.58 76.8837 C 1322.27 58.2132 1309.07 45.611 1293.38 35.9444 z"/>
<path transform="translate(0,0)" fill="rgb(47,44,41)" d="M 617.244 757.654 C 617.345 757.902 617.477 758.14 617.546 758.399 C 619.172 764.488 613.133 783.338 612.13 790.64 C 609.747 807.995 609.519 826.284 611.282 843.704 C 611.933 850.142 617.76 873.126 615.811 877.514 C 612.979 876.744 611.859 874.949 609.838 872.869 C 606.481 867.413 603.558 861.794 601.625 855.675 C 591.033 822.153 601.776 787.74 617.244 757.654 z"/>
<path transform="translate(0,0)" fill="rgb(47,44,41)" d="M 972.966 481.635 C 973.306 481.76 973.658 481.856 973.986 482.01 C 987.73 488.421 998.547 510.342 1003.16 523.852 C 1014.09 555.855 1008.77 589.084 994.044 618.677 C 992.26 622.195 990.017 625.537 987.954 628.9 C 998.431 588.133 1003.71 551.529 987.202 511.08 C 983.091 501.006 977.287 491.65 972.966 481.635 z"/>
<path transform="translate(0,0)" fill="rgb(47,44,41)" d="M 955.476 575.628 C 955.762 575.887 956.101 576.098 956.334 576.406 C 960.13 581.442 958.939 599.889 958.702 606.116 C 957.014 650.482 933.993 694.132 901.599 723.925 L 900.464 724.499 C 901.927 717.07 915.392 697.916 919.827 689.312 C 924.597 680.059 928.785 670.419 932.811 660.821 C 939.567 644.718 944.562 628.569 947.947 611.451 C 950.216 599.972 951.654 587.967 955.103 576.788 C 955.223 576.4 955.352 576.014 955.476 575.628 z"/>
<path transform="translate(0,0)" fill="rgb(47,44,41)" d="M 785.298 910.591 C 787.266 915.654 785.442 922.621 784.339 927.808 C 781.36 941.806 777.56 955.683 770.924 968.426 C 742.212 1023.56 671.467 1069.47 619.956 1102.97 C 619.564 1101.92 620.039 1101.41 620.854 1100.58 C 625.401 1095.96 631.334 1091.85 636.378 1087.75 L 675.187 1056.7 C 710.884 1027.93 749.454 995.126 769.696 953.162 C 776.275 939.522 780.627 924.959 785.298 910.591 z"/>
<path transform="translate(0,0)" fill="rgb(47,44,41)" d="M 907.135 536.446 C 907.644 536.77 908.199 537.03 908.661 537.417 C 918.129 545.366 919.056 596.168 918.088 608.3 C 913.701 663.283 887.643 717.071 845.642 752.996 C 843.293 755.203 840.495 757.134 837.959 759.132 C 876.378 705.486 902.694 655.151 906.976 587.624 C 908.052 570.645 907.137 553.461 907.135 536.446 z"/>
<path transform="translate(0,0)" fill="rgb(47,44,41)" d="M 695.115 501.199 A 49.4577 49.4577 0 0 1 701.012 502.434 C 713.827 505.846 724.05 516.411 730.6 527.602 C 735.675 536.274 738.438 546.03 742.989 554.939 C 749.55 567.783 756.774 579.9 762.49 593.197 C 779.965 633.853 791.703 686.758 779.882 730.319 C 766.902 778.155 732.508 818.043 690.031 842.575 C 709.467 822.341 727.576 802.02 741.819 777.639 C 749.63 764.711 756.734 751.318 761.889 737.088 C 779.734 687.823 765.74 630.815 744.046 585.07 C 741.889 596.386 738.254 607.811 733.258 618.198 C 722.75 640.047 703.84 661.071 680.594 669.365 C 703.971 640.443 728.188 616.14 728.777 576.324 C 729.075 556.203 722.355 532.237 710.137 516.057 C 706.23 510.883 700.755 507.173 696.326 502.493 L 695.115 501.199 z"/>
<path transform="translate(0,0)" fill="rgb(47,44,41)" d="M 1568.52 540.788 C 1571.54 545.197 1571.98 560.723 1573.19 566.812 C 1575.5 578.342 1582.02 591.109 1587.81 601.292 C 1602.68 627.426 1624.32 646.801 1645.27 667.885 C 1661.14 683.853 1676.86 700.214 1691.76 717.09 C 1750.99 784.184 1786.03 863.648 1780.44 954.335 C 1821.83 971.592 1859.53 1000.39 1889.26 1033.88 C 1934.81 1085.18 1960.23 1150.4 1956.93 1219.3 C 1955.66 1245.89 1950.26 1272.48 1945 1298.5 C 1938.34 1331.4 1929.8 1365.12 1927.71 1398.68 C 1937.7 1410.42 1954.25 1427.46 1957.32 1442.57 C 1959.54 1453.48 1951.61 1475.79 1950.2 1488.59 C 1948.38 1505.21 1948.28 1522.83 1949.59 1539.5 A 279.675 279.675 0 0 0 1960.58 1598.88 C 1964.89 1613.76 1973.21 1631.08 1973.79 1646.56 C 1974.22 1657.85 1967.47 1670 1959.92 1677.98 C 1946.35 1692.32 1921.96 1700.32 1902.59 1700.87 C 1885.46 1701.36 1856.16 1690.7 1844.21 1678.8 C 1836.94 1671.55 1832.4 1661.36 1834.47 1651.01 C 1836.52 1640.8 1852.19 1625.87 1857.91 1612.82 C 1875.41 1572.84 1878.68 1508.49 1879.03 1464.95 C 1869.89 1450.76 1857.77 1437.88 1847.68 1424.24 C 1821.06 1388.21 1795.17 1349.54 1776.6 1308.75 L 1775.18 1308.66 C 1769.62 1318.65 1767.42 1348.7 1764.15 1362.21 C 1751.35 1415.06 1716.62 1474.17 1680.24 1514.4 C 1697.28 1539.91 1700.17 1561.01 1708.35 1589.56 C 1718.36 1624.5 1731.41 1658.05 1737.17 1694.16 C 1742.49 1727.56 1741.91 1761.43 1746.68 1794.86 C 1749.34 1813.5 1754.65 1831.95 1760.33 1849.88 C 1767.5 1872.53 1775.44 1895.3 1784.94 1917.08 C 1791.25 1931.57 1800.2 1945.94 1804.5 1961.16 C 1806.11 1966.82 1806.52 1972.51 1805.48 1978.32 C 1803.1 1991.65 1791.85 2002.15 1781.11 2009.46 C 1754.79 2027.38 1739.12 2029.7 1708.08 2023.61 C 1689.43 2019.95 1662.78 2008.62 1652.26 1991.92 C 1640.67 1973.56 1655.68 1951.79 1663.58 1934.97 C 1668.02 1925.5 1671.88 1916.06 1673.9 1905.77 C 1677.21 1888.82 1677.07 1872.23 1675.33 1855.13 C 1667.39 1776.68 1612.29 1735.5 1570.8 1674.16 C 1546.57 1684.16 1524.31 1690.75 1497.93 1692.66 C 1470.8 1694.62 1446.47 1691.56 1421.34 1681.05 C 1415.76 1678.72 1409.43 1676.29 1404.93 1672.14 C 1403.02 1670.38 1401.7 1668.08 1401.75 1665.46 C 1401.98 1650.88 1424.38 1630.31 1434.45 1620.65 C 1418.45 1619.21 1403.1 1614.71 1387.22 1613 C 1362.91 1610.37 1338.87 1610.34 1314.58 1606.55 C 1300.05 1618.35 1283.63 1627.43 1270.06 1640.51 C 1257.75 1652.38 1247.55 1666.25 1236.35 1679.15 C 1208.51 1711.22 1179.56 1729.42 1141.16 1746 C 1092.9 1765.8 1046.23 1789.84 1017.31 1835.3 C 1008.56 1849.05 1002.21 1864.24 994.215 1878.44 C 987.204 1879.31 979.922 1879.24 973.178 1881.52 C 947.378 1890.22 939.89 1921.27 914.976 1932.07 C 887.16 1944.13 824.114 1935.21 794.811 1928.28 C 782.685 1925.41 771.149 1921.45 759.563 1916.93 C 760.336 1915.4 761.083 1913.98 762.013 1912.53 C 776.959 1889.27 823.659 1836.73 850.766 1834.71 C 863.162 1833.79 874.845 1841.84 886.851 1838.99 C 939.449 1826.51 1045.4 1655.3 1074.93 1608.67 C 1085.1 1592.6 1095.98 1576.93 1105.88 1560.7 C 1098.5 1544.53 1092.53 1527.65 1090.12 1509.98 C 1084.11 1465.93 1099.69 1416.34 1117.48 1376.25 C 1123 1363.82 1131.48 1352.39 1136.35 1339.85 C 1140.18 1329.98 1141.39 1318.95 1143.18 1308.55 C 1135.65 1289.11 1117.23 1273.82 1101.16 1261.48 C 1079.32 1266.64 1057.15 1270.33 1035.33 1275.62 C 1012.53 1281.15 988.884 1289.83 965.483 1291.69 C 954.27 1292.59 943.5 1291.4 932.834 1287.79 C 915.445 1281.9 893.076 1269.24 884.914 1251.9 C 880.305 1242.1 882.33 1234.65 885.856 1225.12 C 883.793 1219.54 882.941 1213.66 882.886 1207.72 C 882.754 1193.49 887.096 1181.31 897.02 1171.13 C 900.935 1184.86 907.038 1196.15 914.775 1208.1 C 923.42 1198.14 932.327 1188.11 942.062 1179.19 C 957.219 1165.31 983.213 1151.83 985.632 1129.3 C 987.628 1110.71 973.917 1092.74 962.62 1079.41 C 955.809 1077.73 948.917 1076.29 942.074 1074.73 C 939.617 1081.75 935.888 1095.42 931.408 1100.96 L 929.919 1100.63 C 921.04 1091.31 918.928 1077.4 918.81 1065 C 909.065 1059.39 900.136 1052.88 891.068 1046.26 C 889.542 1051.62 887.078 1065.31 882.536 1067.96 C 881.102 1067.52 880.421 1067 879.316 1065.92 C 862.866 1049.9 853.394 1003.84 853.977 981.403 C 854.144 974.973 857.368 969.273 857.507 962.987 C 857.694 954.542 857.83 945.904 860.475 937.797 C 862.725 930.901 866.856 924.978 873.495 921.739 C 894.09 911.69 920.785 926.021 940.14 932.509 C 954.581 937.35 969.176 941.39 983.538 946.553 C 995.624 938.124 1008.71 936.137 1022.37 931.474 C 1037.16 926.426 1051.07 919.746 1066.48 916.459 C 1125.96 903.778 1192.15 918.403 1242.55 951.32 C 1293.01 948.208 1311.09 950.163 1325.15 1003.68 C 1327.3 1011.88 1328.83 1022.03 1333.71 1029.06 C 1338.85 1036.47 1346.2 1043.1 1352.47 1049.62 A 672.424 672.424 0 0 0 1432.39 1121.49 C 1442.12 1117.48 1453.4 1113.84 1462.1 1107.88 C 1479.87 1095.72 1499.55 1061.31 1512.97 1043.27 A 253.217 253.217 0 0 1 1542.43 1009.8 C 1590.63 963.454 1647.66 939.929 1714.63 941.119 C 1716.41 923.127 1718.06 905.284 1716.82 887.181 C 1712.34 821.764 1676.17 765.675 1633.59 718.061 C 1615.38 697.71 1595.66 678.803 1578.7 657.348 C 1561.66 635.796 1542.15 605.13 1546.13 576.15 C 1548.15 561.418 1557.01 549.578 1568.52 540.788 z"/>
<path transform="translate(0,0)" fill="rgb(39,37,36)" d="M 933.221 1214.39 C 933.077 1214.22 932.882 1214.08 932.79 1213.88 C 931.717 1211.53 931.11 1208.37 932.463 1206.06 C 934.154 1203.17 936.9 1202.05 939.854 1200.87 L 940.187 1202.38 C 939.711 1204.77 939.361 1209.59 937.033 1210.9 C 936.58 1211.16 936.069 1211.29 935.587 1211.49 L 933.221 1214.39 z"/>
<path transform="translate(0,0)" fill="rgb(229,226,214)" d="M 1056.86 1181.68 C 1058.21 1181.97 1057.47 1181.67 1058.87 1182.99 C 1059.16 1187.76 1057.86 1192.23 1055.02 1196.09 C 1053.48 1193.45 1052.09 1190.93 1050.96 1188.09 C 1052.18 1184.79 1054.15 1183.85 1056.86 1181.68 z"/>
<path transform="translate(0,0)" fill="rgb(229,226,214)" d="M 1021.52 1196.42 C 1022.41 1196.46 1023.15 1196.46 1024.03 1196.7 C 1026.45 1197.34 1027.46 1198.54 1028.78 1200.54 C 1028.83 1204.02 1028.71 1204.08 1026.61 1206.88 C 1025.75 1206.94 1024.3 1207.08 1023.47 1206.99 C 1020.95 1206.72 1020.59 1206.05 1019.17 1204.18 C 1019.14 1200.88 1019.9 1199.26 1021.52 1196.42 z"/>
<path transform="translate(0,0)" fill="rgb(229,226,214)" d="M 982.668 1209.68 C 983.156 1210.11 983.681 1210.49 984.131 1210.96 C 986.078 1212.98 986.671 1214.81 986.771 1217.49 C 984.771 1220.48 983.475 1220.89 980.343 1222.52 C 979.807 1222.24 979.19 1222.07 978.735 1221.67 C 976.86 1220 976.506 1218.31 976.352 1216.02 C 978.264 1212.35 979.302 1211.87 982.668 1209.68 z"/>
<path transform="translate(0,0)" fill="rgb(229,226,214)" d="M 967.619 1218.16 L 975.205 1225.81 C 971.589 1227.4 967.874 1228.8 964.215 1230.29 C 963.308 1229.88 962.939 1229.74 962.022 1229.15 C 959.906 1227.8 958.963 1226.99 958.48 1224.54 C 960.369 1221.49 964.536 1219.86 967.619 1218.16 z"/>
<path transform="translate(0,0)" fill="rgb(229,226,214)" d="M 924.866 1067.8 C 928.274 1069.11 931.619 1070.81 934.953 1072.31 C 934.063 1077.21 932.752 1081.93 931.404 1086.72 L 930.685 1088.12 L 929.438 1088.1 C 926.417 1082.05 925.581 1074.46 924.866 1067.8 z"/>
<path transform="translate(0,0)" fill="rgb(229,226,214)" d="M 1008.47 1198.47 L 1011.48 1199.1 C 1012.46 1199.9 1013.15 1200.62 1013.7 1201.77 C 1015.1 1204.71 1015.24 1207.17 1014.11 1210.28 C 1013.4 1212.26 1011.82 1212.43 1010.03 1213.34 C 1008.22 1213.64 1007.09 1213.58 1005.31 1213.16 C 1004.42 1211.82 1003.6 1211.1 1003.54 1209.43 C 1003.36 1204.75 1005.38 1201.73 1008.47 1198.47 z"/>
<path transform="translate(0,0)" fill="rgb(192,80,83)" d="M 1001.05 1086.59 C 1005.3 1088.26 1011.83 1092.03 1014.74 1095.55 C 1020.12 1102.09 1019.26 1108.57 1018.82 1116.47 C 1012.56 1111.61 1006.72 1094.13 1001.05 1086.59 z"/>
<path transform="translate(0,0)" fill="rgb(229,226,214)" d="M 867.533 1018.67 C 868.531 1019.55 868.241 1019.19 868.939 1020.16 C 874.052 1027.3 878.878 1033.63 885.365 1039.6 L 882.277 1050.72 L 881.056 1052 C 874.449 1045.93 870.491 1027.31 867.533 1018.67 z"/>
<path transform="translate(0,0)" fill="rgb(192,80,83)" d="M 983.016 1083.37 C 984.779 1083.57 986.514 1083.75 988.164 1084.47 C 996.542 1088.09 1002.15 1104.54 1005.85 1112.5 A 202.574 202.574 0 0 1 999.763 1113.64 C 996.964 1111.89 985.848 1088.1 983.016 1083.37 z"/>
<path transform="translate(0,0)" fill="url(#Gradient3)" d="M 1055.09 1210.02 C 1060.76 1203.75 1065.02 1197.47 1068.74 1189.9 C 1071.32 1191.62 1073.23 1193.05 1076.52 1192.63 C 1073.11 1202.52 1068.25 1208.95 1060.47 1215.98 C 1058.4 1214.15 1056.79 1212.18 1055.09 1210.02 z"/>
<path transform="translate(0,0)" fill="rgb(229,226,214)" d="M 894.457 1190.6 C 898.674 1194.38 909.214 1214.27 909.606 1220.06 C 905.405 1220.23 900.985 1219.28 896.82 1218.71 C 893.323 1208.33 892.461 1201.29 894.457 1190.6 z"/>
<path transform="translate(0,0)" fill="rgb(229,226,214)" d="M 935.587 1211.49 C 942.046 1219.07 948.431 1226.94 953.367 1235.62 L 940.73 1238.14 L 932.843 1231.47 C 933.282 1226.02 934.495 1219.73 933.221 1214.39 L 935.587 1211.49 z"/>
<path transform="translate(0,0)" fill="rgb(66,60,56)" d="M 878.882 949.297 C 884.599 953.443 889.567 962.024 893.886 967.721 C 890.423 969.849 887.065 972.184 883.672 974.423 L 873.164 981.737 A 1188.64 1188.64 0 0 1 878.882 949.297 z"/>
<path transform="translate(0,0)" fill="rgb(229,226,214)" d="M 1452.61 1620.63 C 1454.81 1621.55 1455.43 1621.67 1456.83 1623.56 C 1451.39 1631.57 1446.09 1639.82 1441.23 1648.2 C 1437.74 1654.2 1434.67 1661.44 1430.13 1666.67 L 1427.53 1666.31 C 1426.12 1665.66 1423.98 1664.9 1422.84 1663.88 C 1421.13 1662.35 1420.8 1661.02 1420.89 1658.82 C 1421.41 1646.14 1443.64 1628.24 1452.61 1620.63 z"/>
<path transform="translate(0,0)" fill="rgb(106,93,83)" d="M 1092.9 977.266 L 1093.83 977.394 C 1096.24 980.53 1093.68 983.651 1095.45 987.271 L 1097.54 987.896 L 1099.4 986.818 C 1099.87 985.561 1100.35 983.944 1101.03 982.757 C 1101.79 981.419 1102.44 980.031 1104.01 979.64 C 1109.71 978.217 1118.13 985.32 1122.76 988.515 C 1115.98 991.679 1108.94 993.844 1101.82 996.104 C 1083.49 999.35 1079 995.528 1063.72 986.678 C 1073.59 983.895 1082.91 979.742 1092.9 977.266 z"/>
<path transform="translate(0,0)" fill="rgb(106,93,83)" d="M 1055.09 1210.02 C 1056.79 1212.18 1058.4 1214.15 1060.47 1215.98 C 1055.53 1219.56 1048.97 1221.95 1043.16 1223.76 C 1030.01 1227.88 1016.35 1229.86 1003.02 1233.23 C 982.44 1238.44 961.558 1246.54 940.309 1248.06 C 925.17 1249.13 907.647 1246.09 895.871 1235.9 L 896.081 1234.94 C 911.573 1236.92 925 1244.6 941.257 1243.71 C 962.052 1242.58 982.023 1231.24 1001.79 1225.5 C 1013.46 1222.11 1047.52 1220.1 1054.54 1211 C 1054.77 1210.71 1054.91 1210.35 1055.09 1210.02 z"/>
<path transform="translate(0,0)" fill="rgb(180,170,154)" d="M 1259.15 997.143 C 1262.27 997.325 1266.01 997.212 1268.29 999.652 C 1271.09 1002.66 1285.84 1038.67 1285.5 1042.3 C 1281.99 1043.2 1278.78 1042.79 1275.2 1042.49 A 115.183 115.183 0 0 1 1268.46 1040.42 C 1260.12 1037.49 1252.23 1029.24 1248.72 1021.24 C 1246.66 1016.54 1245.4 1011.24 1247.68 1006.37 C 1249.96 1001.5 1254.19 998.752 1259.15 997.143 z"/>
<path transform="translate(0,0)" fill="rgb(66,60,56)" d="M 878.932 927.139 C 894.47 927.751 908.941 930.831 920.824 941.447 C 916.899 951.426 911.987 956.396 903.249 962.203 C 897.077 958.506 892.517 953.074 888.033 947.562 C 886.497 945.877 884.562 943.59 882.444 942.703 C 880.46 941.873 878.377 942.224 876.648 943.443 C 869.07 948.786 866.441 968.346 864.381 977.254 C 863.932 964.262 863.934 948.711 869.339 936.626 C 871.654 931.451 873.616 929.117 878.932 927.139 z"/>
<path transform="translate(0,0)" fill="rgb(180,170,154)" d="M 996.472 1074.48 C 1015.7 1077.46 1034.5 1079.36 1046.85 1096.42 C 1061.91 1117.2 1080.94 1166.3 1076.69 1191.66 L 1076.52 1192.63 C 1073.23 1193.05 1071.32 1191.62 1068.74 1189.9 C 1072.57 1162.53 1057.45 1128.31 1041.44 1106.84 C 1030.21 1091.78 1013.75 1081.34 996.472 1074.48 z"/>
<path transform="translate(0,0)" fill="rgb(229,226,214)" d="M 1490.05 1622.55 L 1490.88 1623.97 C 1483.54 1639.94 1479.24 1660.26 1478.79 1677.83 C 1469.52 1677.83 1460.32 1676.63 1451.21 1674.99 C 1450.62 1674.74 1450 1674.55 1449.44 1674.25 C 1448.21 1673.57 1447.49 1672.92 1447.34 1671.53 C 1446.13 1660.7 1466.94 1631.8 1473.95 1623.1 L 1490.05 1622.55 z"/>
<path transform="translate(0,0)" fill="rgb(229,226,214)" d="M 1539.08 1612.17 C 1539.89 1613.06 1559.77 1654.45 1562.59 1659.76 C 1547.01 1667.52 1531.86 1671.6 1514.79 1674.68 C 1506.76 1675.78 1498.7 1676.37 1490.62 1676.99 C 1494.01 1659.02 1497.27 1641.02 1502.62 1623.5 C 1514.54 1619.11 1527.02 1616.24 1539.08 1612.17 z"/>
<path transform="translate(0,0)" fill="rgb(229,226,214)" d="M 1156.01 1249.28 C 1157.6 1249.35 1156.71 1249.16 1158.67 1250.33 C 1185.57 1266.24 1210.19 1279.67 1236.1 1297.69 C 1223.75 1302.57 1212.48 1304.86 1199.2 1305.02 C 1154.86 1304.67 1147.7 1282.21 1117.99 1256.71 C 1130.69 1254.79 1143.4 1251.79 1156.01 1249.28 z"/>
<path transform="translate(0,0)" fill="rgb(229,226,214)" d="M 1051.12 1234.67 C 1062.67 1240.06 1068.59 1241.99 1081.15 1239.33 C 1084.71 1241.8 1086.94 1245.54 1088.91 1249.34 C 1064.87 1252.97 1040.17 1259.39 1016.55 1265.23 C 996.324 1270.23 975.616 1278.38 954.503 1276.9 C 932.335 1275.34 909.838 1264.64 895.24 1247.91 C 939.618 1269.92 963.291 1254.34 1006.53 1243.28 C 1021.3 1239.5 1036.36 1239.09 1051.12 1234.67 z"/>
<path transform="translate(0,0)" fill="rgb(192,80,83)" d="M 1032.46 1109.37 C 1044.22 1129.68 1052.86 1148.36 1057.46 1171.57 C 1052.4 1175.97 1047.5 1180.99 1041.13 1183.32 C 1040.64 1183.5 1040.16 1183.69 1039.67 1183.87 C 1028.79 1187.84 1016.29 1189.26 1005.01 1192.3 C 984.517 1197.82 971.893 1207.04 953.904 1217.49 C 948.692 1212.86 943.304 1208.76 940.187 1202.38 L 939.854 1200.87 C 940.044 1200.64 940.23 1200.41 940.423 1200.19 C 962.839 1173.94 994.816 1164.67 1000.82 1126.42 C 1006.76 1130.27 1013.34 1134.59 1014.94 1142 C 1015.96 1146.79 1015.55 1152.66 1017.93 1156.97 C 1020.21 1156.52 1020.19 1156.38 1021.37 1154.46 C 1028.23 1143.31 1031.42 1123.78 1032.35 1110.84 L 1032.46 1109.37 z"/>
<path transform="translate(0,0)" fill="rgb(229,226,214)" d="M 1888.08 1560.21 C 1906.49 1569.83 1915.12 1570.77 1935.44 1568.62 C 1939.07 1585.81 1959.31 1641.07 1956.33 1653.47 C 1953.6 1664.84 1941.92 1672.35 1932.49 1677.91 C 1929.77 1659.1 1930.38 1626.98 1924.43 1610.71 C 1923.54 1608.29 1922.6 1607.59 1920.3 1606.68 C 1917.77 1607.72 1916.68 1608.47 1915.26 1610.87 C 1913.1 1614.52 1913.26 1620.4 1912.96 1624.52 C 1911.48 1644.7 1913.36 1662.55 1918.15 1682.15 L 1908.77 1685.05 C 1899.8 1685.55 1892.16 1684.79 1883.45 1682.54 C 1884.63 1673.32 1886.06 1664.23 1888.33 1655.21 C 1890.86 1645.14 1904.49 1612.85 1902.07 1605.4 C 1899.84 1604.74 1899.16 1604.54 1896.97 1605.87 C 1894.37 1607.44 1891.72 1611.43 1889.81 1613.9 C 1875.7 1632.11 1871 1653.14 1866.95 1675.31 C 1862.15 1672.14 1856.37 1668.66 1852.95 1664 C 1850.85 1661.14 1849.97 1658.37 1851.12 1654.87 C 1854.46 1644.77 1865.31 1635.45 1870.75 1626.14 C 1881.13 1608.36 1884.64 1580.5 1888.08 1560.21 z"/>
<path transform="translate(0,0)" fill="rgb(180,170,154)" d="M 1562.18 584.802 C 1566.3 588.867 1570.97 604.002 1574.23 610.12 C 1578.4 617.97 1583.43 625.683 1589.2 632.451 C 1606.46 652.669 1626.52 670.118 1644.97 689.17 C 1701.39 747.443 1754.07 818.109 1761.74 901.443 C 1762.58 910.601 1765.71 943.363 1760.79 949.277 A 283.651 283.651 0 0 0 1730.42 942.318 A 215.796 215.796 0 0 0 1721.48 827.613 A 291.378 291.378 0 0 0 1681.19 751.865 C 1665.16 730.245 1647.53 710.209 1629.41 690.353 C 1610.07 669.162 1587.41 646.726 1573.32 621.616 C 1566.87 610.114 1562.94 597.985 1562.18 584.802 z"/>
<path transform="translate(0,0)" fill="rgb(229,226,214)" d="M 1752.83 1882.92 C 1753.08 1883.12 1753.37 1883.27 1753.57 1883.52 C 1758.02 1889.22 1762.73 1905.75 1765.73 1913.14 C 1772.17 1928.99 1781.29 1944.01 1787.08 1960 C 1788.65 1964.32 1791.21 1971.32 1790.36 1975.79 C 1788.22 1986.93 1771.02 1996.92 1762.23 2002.53 C 1760.42 1985.83 1751.42 1924.06 1740.48 1914.41 L 1739.42 1915.4 C 1734.54 1935.51 1746.76 1983.46 1746.12 2009.11 C 1730.37 2012.31 1717.39 2009.44 1702.2 2004.99 C 1697.38 1997.88 1707.37 1960.29 1708.76 1950.7 C 1710.07 1941.64 1710.99 1931.84 1710.45 1922.69 C 1710.24 1919.08 1709.63 1914.97 1706.85 1912.43 L 1705.09 1913 C 1704.56 1913.9 1689.24 1975.01 1688 1981.02 C 1686.77 1986.96 1686.24 1992.97 1685.79 1999.02 C 1679.55 1995.58 1671.95 1991.61 1667.58 1985.86 C 1665.01 1982.47 1663.61 1978.58 1664.4 1974.33 C 1666.94 1960.68 1677.31 1946.17 1682.64 1933.03 C 1688.42 1918.75 1690.74 1902.8 1693.13 1887.66 C 1695.6 1888.73 1698.08 1889.8 1700.62 1890.67 C 1719.7 1897.19 1735.76 1891.2 1752.83 1882.92 z"/>
<path transform="translate(0,0)" fill="rgb(229,226,214)" d="M 947.811 1812.89 C 949.759 1815.38 948.97 1821.42 949.291 1824.73 C 950.805 1840.36 964.138 1851.33 978.9 1854.55 C 982.001 1855.23 986.367 1854.6 988.838 1856.65 C 982.694 1863.19 959.575 1870.33 950.026 1878.19 C 937.407 1888.58 929.618 1904.16 916.767 1914.23 C 898.356 1928.67 851.317 1922.42 828.388 1919.56 C 833.395 1905.8 845.772 1885.17 856.456 1874.94 C 861.72 1869.9 868.266 1866.24 872.366 1860.12 C 867.938 1859.38 863.403 1859.23 859.011 1860.31 C 838.01 1865.48 822.677 1898.67 812.274 1915.81 C 802.43 1914.36 793.075 1911.97 783.71 1908.63 C 798.693 1888.07 828.239 1855.75 852.802 1848.99 C 860.629 1851.37 868.192 1853.55 876.435 1853.84 C 904.493 1854.82 928.406 1830.75 947.811 1812.89 z"/>
<path transform="translate(0,0)" fill="rgb(106,93,83)" d="M 1402.43 1116.64 C 1411.17 1123.63 1420.33 1129.65 1430.05 1135.18 C 1430.26 1143.27 1430.6 1151.42 1429.7 1159.49 C 1424.43 1206.84 1387.16 1253.81 1351.13 1282.57 C 1302.72 1321.21 1255.37 1346.62 1191.22 1339.53 C 1176.76 1335.88 1171.83 1322.96 1164.51 1311.15 C 1171.73 1312.17 1178.95 1313.19 1186.22 1313.65 C 1237.74 1316.95 1296.94 1282.66 1334.22 1249.62 C 1362.81 1224.29 1389.61 1189.49 1398.38 1151.61 C 1401.03 1140.15 1401.71 1128.35 1402.43 1116.64 z"/>
<path transform="translate(0,0)" fill="rgb(229,226,214)" d="M 1272.18 1340.2 C 1277.46 1342.48 1283.93 1348.5 1288.78 1351.93 C 1280.32 1370.52 1279.46 1392.51 1280.32 1412.63 C 1280.7 1421.65 1281.5 1440.18 1288.46 1446.54 C 1289.92 1444.82 1289.93 1444.19 1290.14 1442 C 1290.74 1435.92 1290.15 1429.43 1290.19 1423.3 C 1290.26 1411.62 1290.89 1399.5 1292.65 1387.97 C 1294.11 1378.37 1296.47 1370.46 1300.52 1361.65 C 1332.38 1384.66 1367.97 1407.02 1405.32 1419.85 C 1403.86 1448.01 1405.98 1475.3 1412.77 1502.76 C 1421.38 1537.62 1440.45 1573.47 1471.07 1593.6 C 1479.05 1598.85 1487.84 1601.4 1495.85 1606.25 L 1494.95 1607.63 C 1475.51 1612.38 1424.8 1607.16 1404.94 1602.28 C 1353.2 1589.58 1308.06 1554.27 1280.87 1508.98 C 1271.96 1492.78 1265.84 1476.49 1259.84 1459.09 C 1259.55 1467.9 1260.76 1476.6 1262.9 1485.15 C 1275.84 1536.87 1315.23 1571.21 1359.16 1597.29 C 1315.4 1596.49 1262.28 1585.32 1230.79 1552.66 C 1189.55 1509.88 1196.49 1440.62 1197.27 1385.87 C 1207.87 1401.24 1220.22 1421.6 1235.59 1432.59 C 1237.89 1434.24 1240.98 1436.18 1243.9 1435.62 L 1244.34 1433.74 C 1238.11 1421.39 1227.26 1409.6 1219.65 1397.85 C 1209.13 1381.6 1200.66 1364.27 1189.74 1348.25 C 1216.42 1353.77 1246.91 1350 1272.18 1340.2 z"/>
<path transform="translate(0,0)" fill="rgb(180,170,154)" d="M 1155.33 1320.68 C 1163.57 1329.65 1179.83 1354.58 1185.4 1365.65 C 1181.65 1382.93 1182.5 1400.42 1182.49 1418.01 C 1182.46 1460.47 1181.5 1505.08 1205.48 1542.13 C 1227.6 1576.32 1258.82 1594.36 1298.2 1602.64 C 1281.54 1612.54 1266.2 1623.57 1252.52 1637.37 C 1229.35 1660.74 1217.49 1680.88 1189.36 1702.7 C 1170.58 1717.26 1149.69 1725.79 1128.1 1735.14 C 1060.77 1764.27 1023.96 1788.81 989.114 1855.1 C 971.333 1839.35 959.573 1830.38 954.037 1806.1 C 962.548 1795.08 972.397 1784.78 981.228 1773.94 C 1000.24 1750.45 1016.82 1724.86 1033.44 1699.65 A 5285.17 5285.17 0 0 0 1080.86 1627.2 C 1091.79 1610.19 1102.05 1592.47 1114.09 1576.23 A 152.233 152.233 0 0 0 1170.63 1609.37 C 1196.41 1617.99 1223.31 1618.82 1247.92 1606.57 C 1223 1603.55 1199.53 1604.81 1175.34 1596.23 C 1151.46 1587.76 1128.37 1575.53 1117.27 1551.69 C 1089.56 1492.15 1110.23 1436.49 1130.93 1378.81 C 1130.54 1404.01 1129.84 1430.43 1145.14 1451.78 C 1141.14 1406.59 1147.66 1365.14 1155.33 1320.68 z"/>
<path transform="translate(0,0)" fill="rgb(47,44,41)" d="M 1118.79 1451.41 C 1122.11 1453.95 1121.47 1461.49 1121.79 1465.4 C 1123.84 1490.38 1128.09 1511.29 1139.61 1533.7 C 1143.89 1542.03 1149.76 1549.98 1153.15 1558.69 L 1151.11 1559.26 C 1137.65 1550.9 1129.03 1537.97 1123.19 1523.5 C 1114.61 1502.25 1109.43 1473.29 1118.79 1451.41 z"/>
<path transform="translate(0,0)" fill="rgb(47,44,41)" d="M 1163.86 1643.02 C 1164.58 1643.69 1164.11 1643.17 1164.75 1644.93 C 1158.52 1653.5 1135.94 1665.89 1126.67 1671.83 C 1075.58 1704.53 1050.4 1733.17 1020.9 1786.25 L 1019.96 1785.96 C 1019.17 1779.7 1022.61 1771.29 1024.74 1765.44 C 1041.02 1720.72 1080.04 1685.93 1120.82 1663.43 C 1134.63 1655.81 1149.53 1649.62 1163.86 1643.02 z"/>
<path transform="translate(0,0)" fill="rgb(180,170,154)" d="M 990.836 949.651 C 1004.46 944.392 1018.71 942.166 1032.88 938.903 C 1047.96 935.428 1062.82 931.272 1078.18 929.11 C 1115.79 923.814 1161.36 927.044 1196.4 942.439 C 1206.29 946.784 1215.9 951.745 1225.68 956.321 L 1224.29 956.619 C 1217.83 957.965 1203.2 957.554 1198.33 960.035 C 1198.72 962.498 1198.99 962.508 1200.93 963.948 C 1220.73 978.617 1283.17 950.307 1299.47 975.635 C 1315.96 1001.28 1314.04 1041.18 1334.4 1072.1 C 1318.7 1062.04 1307.44 1050.38 1298.56 1033.87 C 1287.74 1013.77 1286.19 976.616 1254.55 983.747 C 1247.72 985.287 1241.48 989.149 1237.78 995.182 C 1232.77 1003.33 1233.64 1013.32 1236.07 1022.18 C 1239.45 1034.56 1246.15 1044.31 1257.59 1050.49 C 1268.75 1056.51 1281.85 1059.11 1294.45 1058.98 C 1306.56 1071.91 1316.65 1085.25 1336.09 1085.51 C 1340.06 1085.57 1344.69 1084.97 1347.64 1082.05 C 1349.43 1080.27 1349.93 1078.41 1349.79 1075.88 C 1349.54 1071.75 1346.24 1067.28 1344.01 1063.98 C 1361.65 1078.3 1376.64 1096.11 1394.2 1110.76 C 1393.38 1122.06 1393.02 1133.55 1390.72 1144.67 C 1382.6 1184.02 1356 1218.61 1326.23 1244.44 C 1302.78 1264.8 1276.69 1280.17 1248.37 1292.69 C 1223.51 1273.11 1198.22 1256.28 1168.55 1244.7 C 1214.37 1227.91 1256.74 1203.05 1278.14 1157.17 C 1287.47 1137.18 1291.73 1110.67 1284.04 1089.45 C 1281.04 1081.16 1276.46 1075.28 1269.61 1069.9 C 1273.56 1111.28 1276.76 1144.25 1248.27 1178.57 C 1207.82 1227.31 1147.99 1239.01 1088.91 1249.34 C 1086.94 1245.54 1084.71 1241.8 1081.15 1239.33 C 1096.37 1237.17 1110.34 1232.97 1120.27 1220.27 C 1123.87 1215.68 1128.48 1207.15 1126.9 1201.03 C 1126.23 1198.49 1125.83 1198.24 1123.7 1197.03 C 1120.36 1197.85 1118.91 1200.17 1117.23 1202.94 A 54.5449 54.5449 0 0 1 1084.04 1227.88 C 1073.1 1230.77 1063.33 1231.82 1052.22 1232.9 C 1069.61 1223.31 1082.89 1214.1 1088.65 1193.87 C 1096.08 1167.79 1082.41 1141.14 1072.01 1117.86 C 1068.69 1110.43 1066.07 1102.61 1062.08 1095.5 C 1054.83 1082.6 1044.06 1074.32 1029.97 1070.16 C 1029.52 1070.03 1029.08 1069.88 1028.63 1069.75 C 1015.31 1065.91 1000.29 1071.46 986.799 1071.19 C 976.325 1070.97 965.83 1067.95 955.798 1065.19 C 913.965 1053.68 888.146 1033.68 865.974 995.679 C 864.751 993.582 863.922 991.594 863.214 989.271 L 863.766 987.368 C 865.442 986.838 865.428 986.655 867.241 987.087 C 869.332 987.584 872.382 988.631 874.521 988.157 C 883.197 986.233 897.469 977.584 905.168 972.781 C 911.189 969.024 918.112 964.422 922.021 958.387 C 923.972 955.376 926.444 945.779 929.196 944.349 C 931.276 943.269 934.162 943.927 936.317 944.402 C 955.233 948.573 993.053 961.518 1008.99 971.984 A 42.0531 42.0531 0 0 1 1021.49 984.564 C 1028.65 995.938 1032.01 1009.8 1037.96 1021.84 C 1045.01 1036.11 1086.37 1098.57 1097.58 1106.65 L 1098.69 1106.49 C 1096.95 1083.47 1061.92 1038.95 1048.72 1016.93 C 1040.59 1003.37 1033.55 988.806 1027.5 974.19 C 1032.14 975.6 1037.8 976.799 1042.02 979.141 C 1057.46 987.711 1069.79 1009.14 1089.2 1008.62 C 1099.54 1008.34 1109.62 1004.61 1119.4 1001.59 C 1125.36 999.751 1137.58 999.007 1141.81 996.814 C 1142.11 996.659 1142.37 996.442 1142.65 996.256 C 1142.49 992.245 1140.82 990.203 1137.93 987.504 C 1128.95 979.098 1111.65 966.452 1098.58 966.593 C 1086.16 966.727 1070.71 975.243 1059.39 980.054 C 1046.97 967.151 1035.59 970.171 1020.59 964.632 C 1010.43 960.88 1000.47 954.694 990.836 949.651 z"/>
<path transform="translate(0,0)" fill="rgb(39,37,36)" d="M 1092.68 939.173 C 1095.23 939.054 1097.79 939.197 1100.34 939.266 L 1100.69 940.33 C 1087.23 948.602 1077.13 959.349 1065.08 969.278 C 1064.85 969.366 1064.64 969.482 1064.41 969.54 C 1062.34 970.057 1060.54 970.501 1058.8 969.27 C 1058.56 966.982 1058.53 966.288 1059.7 964.182 C 1065.79 953.142 1080.94 942.466 1092.68 939.173 z"/>
<path transform="translate(0,0)" fill="rgb(39,37,36)" d="M 1235.98 1106.72 C 1237.7 1108.38 1237.16 1107.59 1238.22 1109.63 C 1245.94 1124.58 1247.94 1140.9 1242.44 1157 C 1236.86 1173.31 1224.04 1190.09 1208.27 1197.6 C 1196.76 1203.08 1186.79 1202.68 1175.13 1198.47 C 1170.08 1195.81 1166.08 1192.29 1161.8 1188.58 C 1170.48 1191.05 1177.47 1193.3 1186.65 1192.29 C 1200.24 1190.78 1212.1 1182.42 1220.54 1172.01 C 1236.63 1152.17 1238.59 1131.27 1235.98 1106.72 z"/>
<path transform="translate(0,0)" fill="rgb(180,170,154)" d="M 1438.39 1142.78 C 1476.97 1165.65 1502.84 1200.65 1516.91 1242.98 C 1520.16 1252.78 1521.1 1263.09 1524.32 1272.73 C 1525.12 1275.11 1525.68 1276.42 1528.03 1277.45 L 1528.77 1276.85 C 1535.88 1261.93 1529.07 1237.22 1524.23 1222.53 C 1551.5 1251.39 1572.95 1274.93 1586.29 1313.38 C 1598.97 1349.92 1597.94 1387.33 1580.07 1422.07 C 1574.53 1432.83 1567.06 1442.47 1561.83 1453.39 C 1561.64 1453.79 1561.46 1454.19 1561.27 1454.6 C 1566.67 1451.94 1571.46 1448.92 1575.99 1444.96 C 1598.29 1425.42 1610.32 1393.85 1612.34 1364.86 C 1626.39 1384.01 1635.16 1408.54 1638.41 1431.96 C 1641.92 1457.15 1640.25 1484.62 1627.73 1507.29 C 1624.48 1513.17 1619.73 1518.62 1615.7 1524.01 C 1613.51 1526.93 1610.2 1530.21 1610.73 1533.92 C 1613.02 1534.67 1612.1 1534.72 1614.28 1534.18 C 1629.98 1530.29 1640.97 1514.35 1648.93 1501.56 L 1652.98 1512.07 C 1651.16 1520.35 1649.7 1528.8 1649.79 1537.3 C 1650.05 1563.53 1663.59 1581.38 1681.53 1598.95 C 1679.65 1592.23 1676.27 1586.03 1673.35 1579.72 C 1663.96 1559.48 1659.72 1543.71 1663.98 1521.51 C 1683.39 1542.58 1685.4 1567.09 1692.55 1593.56 C 1700.91 1624.58 1713.85 1654.61 1719.17 1686.41 C 1725.3 1723.06 1725 1760.08 1730.29 1796.69 C 1733.25 1817.24 1739.01 1836.98 1745.29 1856.71 C 1746.62 1862.16 1748.29 1867.56 1749.83 1872.96 C 1742.72 1876.49 1735.65 1880.16 1727.91 1882.08 C 1714.9 1885.32 1705.06 1881.52 1693.99 1875.07 C 1692.89 1800.7 1658.26 1763.28 1615.76 1708.8 C 1591.67 1677.9 1569.07 1645.14 1555.23 1608.25 C 1565.01 1605.17 1575.12 1601.62 1584.02 1596.45 C 1590.69 1592.58 1604.8 1583.64 1606.78 1575.98 L 1605.8 1574.62 C 1597.38 1572.58 1570.54 1586.03 1560.8 1589.01 C 1534.46 1597.07 1507.64 1599.78 1482.64 1586.19 C 1455.29 1571.32 1437.33 1540.45 1428.69 1511.45 C 1416.83 1471.63 1413.11 1421.39 1426.37 1381.76 C 1430.28 1370.07 1436.18 1359.87 1441.96 1349.07 C 1422.24 1362.26 1413.16 1385.32 1406.81 1407.17 C 1387.48 1398.01 1367.91 1389.09 1349.46 1378.23 C 1327.43 1365.26 1306.82 1349.95 1285.92 1335.27 C 1317.5 1318.92 1346.35 1300.9 1372.1 1276.01 C 1400.13 1248.91 1427.8 1213.31 1435.84 1174.42 C 1438.02 1163.92 1438.19 1153.46 1438.39 1142.78 z"/>
<path transform="translate(0,0)" fill="rgb(47,44,41)" d="M 1604.27 1619.56 C 1605.83 1620.71 1605.47 1620.25 1606.57 1621.84 C 1610.2 1627.08 1612.15 1637.86 1614.29 1644.15 C 1617.48 1653.49 1621.14 1662.93 1625.89 1671.61 C 1640.94 1699.13 1658.45 1725.39 1675.31 1751.82 C 1682.9 1763.7 1690.97 1775.54 1697.64 1787.95 C 1700.85 1793.91 1707.25 1803.37 1706.2 1810.3 C 1694.52 1800.24 1684.03 1781.49 1675.05 1768.73 C 1659.83 1747.1 1643.71 1725.5 1629.86 1702.99 A 265.101 265.101 0 0 1 1613.28 1671.92 C 1606.76 1657.22 1598.22 1635.48 1604.27 1619.56 z"/>
<path transform="translate(0,0)" fill="rgb(180,170,154)" d="M 1691.77 958.416 C 1739.55 952.352 1789.73 972.596 1827.82 999.979 C 1862.2 1024.69 1891.1 1058.89 1911.14 1095.99 C 1965.34 1196.29 1929.79 1263.99 1915.22 1365.55 C 1911.45 1391.81 1909.22 1417.33 1913.68 1443.71 C 1914.5 1448.56 1915.09 1458.3 1919.07 1461.13 C 1921.01 1460.37 1921.22 1460.44 1922.72 1458.74 C 1929.57 1450.94 1926.34 1432.08 1925.85 1422.4 C 1931.36 1429.55 1937.04 1436.62 1941.82 1444.3 C 1940.74 1458.42 1936.17 1471.94 1934.22 1485.94 C 1930.87 1509.89 1932.48 1534.29 1934.12 1558.31 A 156.004 156.004 0 0 1 1927.99 1559.68 C 1912.23 1562.8 1902.47 1558.1 1889.72 1549.63 C 1891.85 1528.69 1898.5 1483.1 1894.93 1463.84 C 1892.74 1452.01 1865.01 1420.04 1856.17 1407.84 A 819.351 819.351 0 0 1 1819.76 1353.51 C 1806.22 1331.9 1793.44 1312.65 1786.79 1287.66 C 1782.22 1270.46 1787.26 1255.94 1789.96 1239.03 C 1791.38 1230.07 1792.02 1220.86 1792.74 1211.81 C 1794.66 1187.64 1795.08 1162.83 1792.23 1138.73 C 1787.03 1094.73 1771.66 1055.92 1736.17 1028.03 C 1747.25 1047.18 1758.56 1064.21 1765.77 1085.54 C 1779.2 1125.24 1781.19 1170.31 1777.84 1211.9 C 1777.44 1216.95 1778.1 1225.09 1775.87 1229.58 L 1775.16 1228.44 C 1764.81 1204.96 1750.19 1180.72 1726.18 1169.36 C 1731.29 1178.52 1738.35 1186.87 1744.19 1195.62 C 1755.92 1213.17 1770.87 1239.66 1771.2 1261.28 C 1771.3 1267.48 1769.47 1274.35 1768.28 1280.44 C 1764.73 1267 1760.96 1253.79 1755.42 1241 C 1753.48 1262.62 1756.48 1284.69 1755.17 1306.51 C 1751.69 1364.44 1732.42 1409.35 1702.3 1457.91 C 1691.89 1474.69 1681.49 1491.55 1666.55 1504.71 A 738.467 738.467 0 0 1 1654.07 1486.37 C 1655.88 1477.48 1656.88 1468.04 1657.05 1458.97 C 1657.96 1410.6 1643.29 1375.69 1610.29 1341.41 A 188.935 188.935 0 0 0 1608 1328.35 C 1598.62 1284.52 1573.34 1246.55 1540.61 1216.43 C 1531.38 1207.93 1520.95 1200.8 1511.77 1192.29 C 1504.68 1185.71 1499.47 1176.02 1493.12 1168.59 C 1479.17 1152.25 1463.62 1144.47 1446.01 1133.1 A 619.069 619.069 0 0 0 1493.53 1110.83 C 1532.99 1089.99 1578.12 1058.77 1591.9 1014.14 C 1562.64 1048 1535.23 1070.71 1496.76 1093.89 C 1510.15 1077.68 1521.03 1059.54 1534.71 1043.45 C 1574.79 996.292 1629.29 963.647 1691.77 958.416 z"/>
</svg>