<svg version="1.1" xmlns="http://www.w3.org/2000/svg" style="display: block;" viewBox="0 0 2048 2048" width="1024" height="1024">
<defs>
	<linearGradient id="Gradient1" gradientUnits="userSpaceOnUse" x1="233.159" y1="1892.89" x2="227.429" y2="1896.99">
		<stop class="stop0" offset="0" stop-opacity="1" stop-color="rgb(8,3,6)"/>
		<stop class="stop1" offset="1" stop-opacity="1" stop-color="rgb(30,16,30)"/>
	</linearGradient>
	<linearGradient id="Gradient2" gradientUnits="userSpaceOnUse" x1="180.134" y1="1834.81" x2="170.467" y2="1839.18">
		<stop class="stop0" offset="0" stop-opacity="1" stop-color="rgb(1,0,0)"/>
		<stop class="stop1" offset="1" stop-opacity="1" stop-color="rgb(33,17,33)"/>
	</linearGradient>
	<linearGradient id="Gradient3" gradientUnits="userSpaceOnUse" x1="530.319" y1="1895.29" x2="1423.3" y2="313.298">
		<stop class="stop0" offset="0" stop-opacity="1" stop-color="rgb(20,6,21)"/>
		<stop class="stop1" offset="1" stop-opacity="1" stop-color="rgb(51,32,49)"/>
	</linearGradient>
	<linearGradient id="Gradient4" gradientUnits="userSpaceOnUse" x1="693.903" y1="685.877" x2="683.759" y2="693.373">
		<stop class="stop0" offset="0" stop-opacity="1" stop-color="rgb(3,0,0)"/>
		<stop class="stop1" offset="1" stop-opacity="1" stop-color="rgb(13,0,25)"/>
	</linearGradient>
	<linearGradient id="Gradient5" gradientUnits="userSpaceOnUse" x1="608.487" y1="581.457" x2="596.963" y2="581.581">
		<stop class="stop0" offset="0" stop-opacity="1" stop-color="rgb(8,0,9)"/>
		<stop class="stop1" offset="1" stop-opacity="1" stop-color="rgb(23,12,38)"/>
	</linearGradient>
	<linearGradient id="Gradient6" gradientUnits="userSpaceOnUse" x1="668.955" y1="665.611" x2="654.52" y2="673.826">
		<stop class="stop0" offset="0" stop-opacity="1" stop-color="rgb(7,0,8)"/>
		<stop class="stop1" offset="1" stop-opacity="1" stop-color="rgb(19,7,33)"/>
	</linearGradient>
	<linearGradient id="Gradient7" gradientUnits="userSpaceOnUse" x1="644.352" y1="618.413" x2="618.039" y2="632.923">
		<stop class="stop0" offset="0" stop-opacity="1" stop-color="rgb(11,0,1)"/>
		<stop class="stop1" offset="1" stop-opacity="1" stop-color="rgb(25,12,46)"/>
	</linearGradient>
	<linearGradient id="Gradient8" gradientUnits="userSpaceOnUse" x1="1462.14" y1="834.15" x2="1458.32" y2="823.603">
		<stop class="stop0" offset="0" stop-opacity="1" stop-color="rgb(9,3,13)"/>
		<stop class="stop1" offset="1" stop-opacity="1" stop-color="rgb(29,13,31)"/>
	</linearGradient>
	<linearGradient id="Gradient9" gradientUnits="userSpaceOnUse" x1="482.246" y1="1292" x2="474.912" y2="1291.97">
		<stop class="stop0" offset="0" stop-opacity="1" stop-color="rgb(1,0,0)"/>
		<stop class="stop1" offset="1" stop-opacity="1" stop-color="rgb(21,12,23)"/>
	</linearGradient>
	<linearGradient id="Gradient10" gradientUnits="userSpaceOnUse" x1="465.334" y1="1229.97" x2="455.352" y2="1227.06">
		<stop class="stop0" offset="0" stop-opacity="1" stop-color="rgb(1,1,0)"/>
		<stop class="stop1" offset="1" stop-opacity="1" stop-color="rgb(24,12,23)"/>
	</linearGradient>
	<linearGradient id="Gradient11" gradientUnits="userSpaceOnUse" x1="350.589" y1="1324.59" x2="338.032" y2="1322.54">
		<stop class="stop0" offset="0" stop-opacity="1" stop-color="rgb(0,0,0)"/>
		<stop class="stop1" offset="1" stop-opacity="1" stop-color="rgb(28,13,29)"/>
	</linearGradient>
</defs>
<path transform="translate(0,0)" fill="rgb(252,252,247)" d="M 0 0 L 2048 0 L 2048 2048 L 0 2048 L 0 1535.96 L 0 1507.26 L 0 0 z"/>
<path transform="translate(0,0)" fill="rgb(2,1,2)" d="M 268.444 1906.73 C 277.7 1913.9 285.029 1923.85 293.622 1931.87 A 489.704 489.704 0 0 0 347.888 1975.11 C 346.585 1974.99 345.514 1974.87 344.254 1974.49 C 314.206 1965.56 283.086 1933.66 268.444 1906.73 z"/>
<path transform="translate(0,0)" fill="rgb(2,1,2)" d="M 118.557 1636.77 C 120.51 1638.79 115.286 1647.09 114.2 1649.9 C 102.229 1680.92 105.389 1727.98 105.682 1760.99 L 105.009 1759.61 C 102.827 1751.83 100.902 1744.08 99.5779 1736.11 C 93.8792 1701.79 97.9916 1665.46 118.557 1636.77 z"/>
<path transform="translate(0,0)" fill="url(#Gradient1)" d="M 200.295 1841.69 C 203.013 1843.76 226.881 1884.08 232.023 1891.39 C 245.553 1910.62 261.804 1927.54 276.043 1946.14 C 273.006 1944.82 270.445 1942.62 267.815 1940.63 C 238.871 1918.8 205.445 1878.71 200.295 1841.69 z"/>
<path transform="translate(0,0)" fill="url(#Gradient2)" d="M 157.266 1774.77 C 161.698 1782.44 165.019 1802.04 168.014 1811.52 C 178.011 1843.2 192.316 1874.95 210.89 1902.48 C 207.947 1901.22 206.064 1898.77 203.923 1896.48 C 174.667 1865.21 155.951 1817.64 157.266 1774.77 z"/>
<path transform="translate(0,0)" fill="rgb(2,1,2)" d="M 131.342 1696.8 C 133.966 1699.49 133.087 1723.93 133.209 1728.99 C 133.966 1760.29 136.125 1785.44 142.516 1816.07 C 144.369 1824.95 147.887 1833.46 149.57 1842.32 L 148.603 1841.65 C 123.261 1797.77 121.281 1745.39 131.342 1696.8 z"/>
<path transform="translate(0,0)" fill="url(#Gradient3)" d="M 759.612 477.446 C 770.879 461.291 781.871 444.773 793.819 429.117 C 805.728 413.511 818.66 398.566 831.348 383.588 C 899.678 302.93 978.233 227.104 1071.46 175.848 C 1087.87 166.829 1114.18 151.755 1132.33 148.764 C 1134.3 148.44 1135.69 148.514 1137.57 149.264 C 1139.51 156.412 1110.82 207.399 1105.76 217.431 C 1098.35 232.103 1090.02 246.28 1082.67 260.964 C 1050.43 325.386 1014.96 404.886 997.211 474.409 C 992.49 492.899 989.47 511.888 986.427 530.712 C 1077.65 542.605 1187.92 564.443 1274.6 593.495 C 1292.17 599.383 1311.11 605.301 1327.36 614.292 C 1335.44 618.766 1342.99 624.386 1348.7 631.726 C 1358.54 644.394 1361.02 661.977 1367.19 676.595 C 1388.68 727.504 1433.32 761.961 1488.18 770.094 C 1524.17 775.428 1561.94 770.13 1598.1 768.542 A 784.236 784.236 0 0 1 1698.66 770.772 C 1727.57 773.042 1757.1 776.071 1785.17 783.603 A 2287.26 2287.26 0 0 1 1825.88 795.205 C 1836.02 798.249 1846.53 802.449 1857.09 803.605 C 1865.64 804.54 1874.81 802.5 1883.48 802.624 C 1911.29 803.019 1965.83 808.926 1984.01 832.906 C 1993.46 845.37 1993.21 859.372 1990.84 874.01 C 1983.62 918.543 1967.65 965.401 1943.79 1003.82 C 1935.34 1017.43 1922.81 1031.36 1915.91 1045.32 C 1910.73 1055.82 1909.99 1069.22 1906.24 1080.45 C 1892.41 1121.94 1864.81 1156.45 1829.41 1181.82 C 1814.68 1192.38 1798.81 1200.74 1782.15 1207.79 C 1774.43 1211.06 1766.02 1213.82 1758.61 1217.67 C 1753.67 1226.83 1748.75 1235.65 1742 1243.64 C 1717.41 1272.76 1676.73 1289.79 1641.05 1300.45 C 1578.73 1319.06 1510.02 1321.44 1445.63 1315.16 C 1420.94 1312.75 1396.63 1308.01 1372.04 1304.86 C 1301.31 1295.8 1245.31 1304.99 1183.66 1341.87 C 1127.68 1375.36 1087.14 1426.58 1056.48 1483.25 C 1016.31 1557.51 997.682 1644.09 986.173 1727.01 C 983.328 1747.51 981.523 1768.13 978.95 1788.66 C 994.64 1796.7 1010.79 1807.26 1016.58 1825.01 C 1019.17 1832.93 1018.63 1840.65 1015.39 1848.25 C 1010.42 1862.53 1000.5 1875.67 992.385 1888.32 C 1010.14 1893.57 1031.82 1900.54 1043.79 1915.69 C 1049.03 1919.05 1053.24 1926.46 1055.91 1932.06 C 1062.98 1946.86 1064.12 1963.35 1058.23 1978.79 C 1052.92 1992.72 1041.55 2003.77 1027.85 2009.4 C 1009.07 2017.13 986.891 2016.26 968.252 2008.62 C 947.933 2000.28 936.168 1986.46 927.837 1966.54 C 844.841 1988.63 710.37 1959.31 630.608 1932.48 C 416.25 1860.35 162.678 1686.68 59.6917 1479.28 A 3522.25 3522.25 0 0 1 0 1535.96 L 0 1507.26 C 16.5151 1492.64 32.5799 1474.38 51.2438 1462.69 C 48.059 1453.07 44.9544 1444.11 44.4027 1433.89 C 53.68 1417.27 65.4581 1401.95 75.3044 1385.6 C 87.1753 1365.87 98.9005 1338.78 113.209 1321.96 C 117.63 1316.77 121.483 1314.45 128.082 1312.63 C 136.46 1310.33 145.8 1309.88 154.422 1308.56 C 165.525 1292.27 177.609 1277.59 190.595 1262.77 C 186.564 1263.09 182.477 1263.94 178.745 1262.09 C 177.101 1259.92 176.637 1259.43 176.822 1256.55 C 178.043 1237.54 234.434 1169.84 249.941 1153.96 C 242.65 1158.1 235.293 1163.79 226.519 1162.7 C 225.437 1161.81 224.536 1161.54 224.309 1160.05 C 222.579 1148.72 255.698 1111.59 263.839 1102.12 C 280.572 1082.65 300.135 1064.61 319.52 1047.81 C 315.137 1049.79 306.802 1054.83 302.015 1053.31 C 300.536 1052.85 300.55 1051.84 299.963 1050.54 C 300.155 1047.93 300.657 1046.17 302.131 1043.97 C 314.057 1026.19 331.183 1009.97 345.457 993.861 C 384.396 949.907 475.52 850.636 489.717 795.096 C 427.812 693.011 441.19 544.028 468.224 433.424 A 719.771 719.771 0 0 1 490.061 360.483 C 511.556 301.249 564.013 186.071 620.295 153.878 C 623.216 152.207 626.302 151.094 629.615 152.303 C 636.564 154.838 644.812 180.593 647.764 188.536 C 661.161 224.586 672.888 261.311 685.662 297.592 C 707.141 358.601 730.736 419.517 759.612 477.446 z"/>
<path transform="translate(0,0)" fill="rgb(248,243,243)" d="M 652.716 1547.22 C 655.237 1551.53 657.504 1556.7 662.175 1559.03 C 660.012 1559.12 658.65 1559.12 656.792 1560.3 C 654.292 1559.83 651.671 1559.62 649.144 1559.3 L 650.231 1557.13 C 651.832 1553.88 650.758 1552.42 649.681 1549.19 L 652.716 1547.22 z"/>
<path transform="translate(0,0)" fill="rgb(219,126,125)" d="M 133.604 1321.26 C 136.941 1320.94 140.254 1320.22 143.414 1321.61 C 144.306 1325.06 139.923 1331.26 138.147 1334.56 C 137.678 1335.4 138.056 1334.97 136.662 1335.42 C 134.247 1331.28 132.513 1327.47 131.727 1322.72 L 133.604 1321.26 z"/>
<path transform="translate(0,0)" fill="rgb(252,252,247)" d="M 632.313 1535.22 C 636.708 1530.66 641.112 1526.92 646.475 1523.53 C 648.193 1531.57 650.319 1539.36 652.716 1547.22 L 649.681 1549.19 C 644.996 1543.2 638.573 1539.37 632.313 1535.22 z"/>
<path transform="translate(0,0)" fill="rgb(252,252,247)" d="M 1972.42 863.719 L 1973.32 864.633 C 1977.05 881.739 1958.8 921.895 1950.2 937.053 L 1949.97 937.038 C 1949.54 935.6 1969.45 869.508 1972.42 863.719 z"/>
<path transform="translate(0,0)" fill="rgb(219,126,125)" d="M 977.409 1800.23 C 984.028 1802.48 991.899 1806.87 996.179 1812.53 C 998.602 1815.74 999.201 1818.41 998.781 1822.33 C 997.135 1825.9 994.238 1827.57 991.116 1829.81 C 985.638 1832.98 979.902 1835.35 974.077 1837.79 A 3011.22 3011.22 0 0 1 977.409 1800.23 z"/>
<path transform="translate(0,0)" fill="rgb(2,1,2)" d="M 1005.04 1829.34 C 1006.2 1833.95 1006.8 1837.73 1006.66 1842.47 L 1006.58 1846.35 C 1008.27 1848.19 1009.27 1848.86 1009.37 1851.49 C 1009.45 1853.51 1008.99 1854.65 1009.57 1856.65 L 1011.54 1856.75 L 1010.48 1854.56 C 1011.82 1851.92 1012.42 1849.43 1015.39 1848.25 C 1010.42 1862.53 1000.5 1875.67 992.385 1888.32 C 1010.14 1893.57 1031.82 1900.54 1043.79 1915.69 L 1042.3 1916.34 C 1034.91 1912.31 1026.34 1902.99 1017.58 1898.32 C 1009.16 1893.83 998.378 1892.64 989.517 1888.58 C 985.033 1883.68 988.178 1870.19 986.701 1863.72 C 985.142 1856.9 980.987 1851.15 980.213 1844.01 C 982.151 1841.86 983.845 1841.57 986.511 1840.62 C 988.376 1839.95 988.243 1840.34 989.931 1841.14 C 995.98 1838.55 1000.46 1833.92 1005.04 1829.34 z"/>
<path transform="translate(0,0)" fill="rgb(219,126,125)" d="M 1000.12 1861.16 L 1000.76 1862.46 C 998.302 1869.67 993.531 1876.67 989.746 1883.31 C 988.321 1877.93 988.433 1871.2 987.991 1865.6 L 1000.12 1861.16 z"/>
<path transform="translate(0,0)" fill="rgb(219,126,125)" d="M 1005.04 1829.34 C 1006.2 1833.95 1006.8 1837.73 1006.66 1842.47 L 1006.58 1846.35 C 1001.01 1851.69 992.787 1852.28 985.502 1853.64 C 984.096 1851.05 982.876 1848.91 982.439 1845.94 C 984.424 1843.18 986.889 1842.57 989.931 1841.14 C 995.98 1838.55 1000.46 1833.92 1005.04 1829.34 z"/>
<path transform="translate(0,0)" fill="rgb(252,252,247)" d="M 942.218 1830.21 C 944.795 1830.43 947.465 1830.75 949.981 1831.35 C 959.88 1833.68 968.648 1843.03 973.525 1851.52 C 983.446 1868.79 980.277 1899.56 974.979 1918.09 C 971.646 1929.75 965.151 1939.33 954.301 1945.12 C 947.017 1949.01 933.848 1952.54 925.68 1950.13 C 935.939 1940.21 949.616 1937.04 956.641 1923.43 C 965.152 1906.93 970.327 1878.16 963.931 1860.34 C 960.332 1850.31 950.522 1839.99 939.647 1838.27 C 936.008 1837.7 932.249 1838.35 928.842 1836.73 L 929.016 1835.1 C 932.327 1832.6 938.221 1831.52 942.218 1830.21 z"/>
<path transform="translate(0,0)" fill="rgb(252,252,247)" d="M 1034.36 1930.08 C 1026.22 1920.55 1016.89 1911.47 1005.11 1906.58 C 1001.61 1905.12 990.942 1904.12 989.098 1901.16 C 988.73 1900.57 988.853 1899.79 988.731 1899.11 C 990.051 1897.49 990.261 1897.16 992.493 1897 C 1006.66 1896 1024.24 1908.42 1033.92 1917.47 C 1044.66 1927.51 1052.45 1941.77 1052.95 1956.63 C 1053.37 1969.12 1048.78 1982.27 1039.81 1991.13 C 1028.79 2002.03 1012.16 2005.61 997.079 2005.11 C 979.452 2004.53 961.227 1996.64 949.328 1983.46 C 944.658 1978.28 939.825 1970.35 940.24 1963.18 C 941.204 1961.15 941.314 1961.14 943.318 1960.09 L 943.91 1961.14 C 944.93 1962.89 945.945 1964.65 947.082 1966.33 C 956.393 1980.1 971.897 1989.42 988.134 1992.48 C 999.997 1994.71 1013.63 1993.37 1023.65 1986.18 A 32.688 32.688 0 0 0 1037.07 1964.54 C 1038.83 1952.76 1033.91 1944.21 1027.19 1935.18 C 1029.87 1933.88 1032.06 1931.94 1034.36 1930.08 z"/>
<path transform="translate(0,0)" fill="rgb(2,1,2)" d="M 1027.19 1935.18 C 1029.87 1933.88 1032.06 1931.94 1034.36 1930.08 C 1041.74 1941.45 1046.29 1953.98 1043.41 1967.69 C 1041.08 1978.73 1033.83 1988.65 1024.17 1994.44 C 1011.71 2001.9 994.948 2001.79 981.245 1998 C 966.475 1993.91 951.375 1983.86 943.843 1970.24 A 155.231 155.231 0 0 1 940.24 1963.18 C 941.204 1961.15 941.314 1961.14 943.318 1960.09 L 943.91 1961.14 C 944.93 1962.89 945.945 1964.65 947.082 1966.33 C 956.393 1980.1 971.897 1989.42 988.134 1992.48 C 999.997 1994.71 1013.63 1993.37 1023.65 1986.18 A 32.688 32.688 0 0 0 1037.07 1964.54 C 1038.83 1952.76 1033.91 1944.21 1027.19 1935.18 z"/>
<path transform="translate(0,0)" fill="rgb(252,252,247)" d="M 1955.83 836.431 C 1957.66 836.269 1958.62 836.349 1960.43 836.905 C 1962.55 837.556 1962.17 837.715 1963.15 839.486 C 1960.86 849.862 1933.61 870.223 1924.66 876.423 C 1895.54 896.597 1866.6 903.846 1831.73 897.381 C 1827.43 895.92 1823.22 894.141 1818.99 892.47 A 551.829 551.829 0 0 0 1874.17 872.063 C 1892.63 864.05 1939.76 837.267 1955.83 836.431 z"/>
<path transform="translate(0,0)" fill="rgb(252,252,247)" d="M 986.633 1912.43 C 1003.06 1917.14 1014.69 1923.41 1027.19 1935.18 C 1033.91 1944.21 1038.83 1952.76 1037.07 1964.54 A 32.688 32.688 0 0 1 1023.65 1986.18 C 1013.63 1993.37 999.997 1994.71 988.134 1992.48 C 971.897 1989.42 956.393 1980.1 947.082 1966.33 C 945.945 1964.65 944.93 1962.89 943.91 1961.14 C 950.557 1958.91 956.918 1956.67 962.824 1952.77 C 977.493 1943.1 983.121 1928.8 986.633 1912.43 z"/>
<path transform="translate(0,0)" fill="rgb(252,252,247)" d="M 1120.06 170.913 C 1120.96 173.901 1115.77 179.747 1113.99 182.286 C 1101.99 199.376 1092.07 217.071 1081.41 234.993 C 1028.99 323.113 980.124 426.632 966.188 529.08 C 959.553 528.957 952.892 528.29 946.274 527.792 C 945.646 526.81 945.631 526.038 945.61 524.888 C 945.361 511.818 949.382 496.056 952.045 483.196 C 974.178 376.307 1047.07 251.033 1120.06 170.913 z"/>
<path transform="translate(0,0)" fill="rgb(108,94,94)" d="M 496.14 803.825 C 503.338 809.979 512.86 828.015 519.381 836.415 C 549.495 875.201 588.752 909.364 634.512 927.758 C 625.669 944.305 619.224 961.092 613.857 979.023 C 612.077 986.299 610.663 993.568 609.384 1000.95 A 383.729 383.729 0 0 1 587.108 977.98 C 551.023 937.485 522.147 892.007 504.279 840.734 C 500.09 828.714 495.401 816.726 496.14 803.825 z"/>
<path transform="translate(0,0)" fill="rgb(219,126,125)" d="M 122.713 1325.41 C 125.001 1326.44 126.2 1327.57 127.257 1329.93 C 130.551 1337.29 132.149 1346.06 134.915 1353.72 A 378.004 378.004 0 0 0 156.088 1400.99 C 194.056 1472.85 254.077 1538.32 314.424 1592.21 A 1081.04 1081.04 0 0 0 754.156 1828.54 C 797.53 1839.83 842.557 1848.83 887.425 1851.05 C 906.11 1851.97 924.679 1849.6 943.304 1848.56 C 946.384 1851.16 949.786 1853.53 951.716 1857.14 L 951.08 1858.85 L 946.999 1859.82 C 852.479 1876.4 684.381 1826.72 597.956 1787.98 C 535.707 1760.07 474.305 1727.02 417.682 1688.89 C 398.319 1675.85 379.814 1661.35 361.466 1646.92 C 276.405 1580.06 195.817 1500.12 144.513 1403.78 C 132.837 1381.85 124.535 1358.77 115.709 1335.62 C 117.798 1331.98 120.154 1328.73 122.713 1325.41 z"/>
<path transform="translate(0,0)" fill="rgb(252,252,247)" d="M 690.118 1647.79 C 726.974 1661.26 789.381 1667.1 825.853 1650.59 C 877.312 1695.51 916.382 1772.12 923.582 1839.59 C 901.812 1841.83 879.628 1842.97 857.88 1839.87 C 860.998 1832.11 865.411 1824.56 869.197 1817.09 C 862.23 1823.81 856.338 1831.52 850.731 1839.39 C 833.256 1837.33 815.898 1833.64 798.609 1830.39 C 806.673 1805.6 822.945 1780.41 840.115 1760.87 C 831.449 1766.36 824.138 1772.24 817.033 1779.66 C 804.496 1794.63 795.446 1809.78 791.351 1829.01 A 1752.13 1752.13 0 0 0 761.585 1822.37 C 765.225 1793.29 772.277 1765.21 781.111 1737.3 C 763.733 1762.89 757.929 1790.29 753.229 1820.26 C 738.369 1816.05 723.749 1811.27 709.105 1806.37 C 698.019 1775.55 689.815 1750.31 686.747 1717.2 C 680.131 1749.13 686.309 1771.99 697.178 1802.1 A 679.969 679.969 0 0 1 676.431 1794.12 C 665.114 1746.84 675.051 1693.38 690.118 1647.79 z"/>
<path transform="translate(0,0)" fill="rgb(252,252,247)" d="M 694.79 1364.63 C 712.554 1377.79 727.492 1398.85 736.665 1418.79 C 743.014 1432.58 746.801 1454.29 759.118 1463.83 C 769.558 1471.92 788.457 1476.15 800.915 1482.27 C 823.76 1474.79 845.82 1464.06 868.408 1455.71 C 887.061 1448.82 906.476 1444.19 925.312 1437.81 L 916.585 1454.73 C 908.785 1481.95 903.86 1509.29 885.318 1531.77 C 877.112 1541.72 866.87 1549.75 859.913 1560.73 C 861.312 1591.53 864.544 1592.02 845.853 1618.2 L 839.082 1614.77 C 838.272 1617.2 838.432 1617.42 836.279 1618.72 C 838.556 1620.17 839.411 1620.19 840.517 1622.74 C 837.256 1629.68 830.494 1634.08 824.743 1638.94 C 810.308 1632.07 771.476 1607.91 756.222 1608.03 L 755.946 1609.13 C 777.239 1619.76 797.606 1629.83 817.356 1643.37 C 799.257 1651.64 778.213 1651.52 758.642 1650.94 C 719.052 1649.77 675.66 1637.34 647.994 1607.38 C 643.722 1602.75 633.755 1591.18 633.983 1584.82 L 637.821 1582.71 L 637.956 1581.3 C 635.975 1581.13 634.088 1580.86 632.137 1580.47 C 626.663 1575.37 625.384 1568.19 623.443 1561.23 C 628.851 1561.95 639.306 1565.03 644.145 1563.46 L 643.335 1561.73 C 637.872 1558.79 628.795 1558.38 622.59 1557.36 C 624.299 1550.69 626.495 1544.85 629.479 1538.65 C 636.538 1544.47 647.098 1548.41 650.231 1557.13 L 649.144 1559.3 C 651.671 1559.62 654.292 1559.83 656.792 1560.3 C 658.65 1559.12 660.012 1559.12 662.175 1559.03 C 662.712 1545.68 653.14 1534.06 656.229 1515.9 C 658.556 1502.22 664.391 1489.64 669.907 1477.03 C 687.409 1437.03 698.719 1409.6 694.79 1364.63 z"/>
<path transform="translate(0,0)" fill="rgb(2,1,2)" d="M 836.279 1618.72 C 809.9 1605.91 784.206 1596.3 754.586 1595.59 C 755.422 1594.06 754.851 1594.52 756.642 1593.88 C 777.819 1586.32 820.69 1605.32 839.082 1614.77 C 838.272 1617.2 838.432 1617.42 836.279 1618.72 z"/>
<path transform="translate(0,0)" fill="rgb(30,15,34)" d="M 698.234 1493.26 C 700.147 1494.23 699.686 1493.74 700.991 1495.42 C 703.945 1499.24 703.824 1505.57 703.144 1510.07 C 701.698 1519.65 696.745 1531.72 688.512 1537.43 C 685.193 1539.74 682.427 1539.1 678.725 1538.47 C 674.66 1535.38 672.306 1532.41 670.97 1527.4 C 669.092 1520.36 671.141 1513.34 675.026 1507.33 C 680.9 1498.26 688.262 1495.51 698.234 1493.26 z"/>
<path transform="translate(0,0)" fill="rgb(30,15,34)" d="M 779.605 1525.87 C 780.991 1526.3 781.892 1526.83 783.09 1527.71 C 787.257 1530.73 789.031 1536.43 789.387 1541.35 C 790.135 1551.67 786.159 1563.55 779.218 1571.24 C 774.969 1575.94 771.078 1577.22 764.878 1577.44 C 760.567 1575.17 757.386 1572.51 755.296 1567.99 C 752.671 1562.31 753.197 1556.1 755.333 1550.35 C 759.684 1538.64 768.598 1530.99 779.605 1525.87 z"/>
<path transform="translate(0,0)" fill="rgb(2,1,2)" d="M 690.837 1571.44 C 686.657 1567.26 683.55 1562.94 681.568 1557.32 C 680.512 1554.33 680.856 1552.87 682.24 1550.09 C 684.853 1548.18 686.846 1547.52 690.122 1547.54 C 702.976 1547.64 714.338 1555.48 722.708 1564.49 C 713.552 1569.86 705.598 1573.38 694.778 1573.08 C 693.314 1580.95 690.295 1590.78 695.167 1597.99 C 698.261 1602.57 703.675 1604.93 708.935 1605.97 C 717.92 1607.75 726.387 1605.74 733.96 1600.78 C 735.451 1599.8 734.532 1600.07 736.586 1600.22 L 737.046 1603.16 C 736.113 1605.32 735.192 1606.49 733.11 1607.69 C 725.402 1612.13 713.396 1612.27 705.048 1609.89 C 696.044 1607.33 689.84 1602.7 685.455 1594.49 C 681.271 1595.05 676.882 1595.83 672.657 1595.66 C 667.04 1595.44 662.663 1593.33 658.946 1589.13 C 652.466 1581.79 654.941 1575.51 655.121 1566.83 C 655.266 1559.86 651.156 1563.96 648.253 1561 L 649.144 1559.3 C 651.671 1559.62 654.292 1559.83 656.792 1560.3 C 658.389 1561.95 659.676 1563.27 660.765 1565.32 C 659.577 1566.53 658.256 1567.98 657.695 1569.61 C 656.775 1572.28 657.268 1575.42 658.329 1577.96 C 660.549 1583.28 665.152 1587.66 670.637 1589.46 C 674.393 1590.7 678.367 1590.62 681.847 1588.63 C 688.162 1585.02 689.223 1577.9 690.837 1571.44 z"/>
<path transform="translate(0,0)" fill="rgb(248,243,243)" d="M 687.006 1550.47 C 695.895 1552.46 704.903 1556.03 712.293 1561.39 L 712.434 1562.92 C 704.869 1563.29 695.412 1564.38 689.43 1558.73 C 686.412 1555.89 687.031 1554.42 687.006 1550.47 z"/>
<path transform="translate(0,0)" fill="rgb(2,1,2)" d="M 726.866 1448.13 C 727.659 1449.4 728.075 1450.27 728.437 1451.76 C 728.891 1453.63 728.323 1453.73 727.394 1455.29 C 723.057 1458.03 719.138 1459.14 714.02 1459.62 C 708.252 1460.17 696.646 1460.72 692.143 1457.04 C 691.79 1439.13 699.374 1422.64 701.395 1405.07 C 702.044 1399.43 700.042 1385.75 702.81 1381.57 C 703.678 1381.87 703.878 1381.87 704.709 1382.52 C 713.938 1389.72 730.138 1424.96 732.397 1437.07 C 732.992 1440.27 734.076 1445.1 732.162 1447.97 C 730.651 1448.13 731.34 1448.21 729.673 1447.63 C 729.246 1447.48 728.826 1447.31 728.402 1447.16 L 726.866 1448.13 z"/>
<path transform="translate(0,0)" fill="rgb(248,243,243)" d="M 726.866 1448.13 C 722.465 1443.67 717.512 1445.13 714.117 1438.69 C 713.964 1438.4 713.821 1438.1 713.673 1437.81 C 710.438 1438.89 709.117 1438.92 705.961 1437.96 C 704.085 1436.17 703.099 1435.48 702.961 1432.66 C 702.854 1430.49 703.626 1427.89 705.241 1426.56 C 712.049 1434.63 721.476 1439.12 728.402 1447.16 L 726.866 1448.13 z"/>
<path transform="translate(0,0)" fill="rgb(252,252,247)" d="M 708.274 1402.7 C 713.768 1407.65 723.818 1432.12 725.112 1439.85 C 719.733 1432.02 713.616 1425.13 706.711 1418.62 L 708.274 1402.7 z"/>
<path transform="translate(0,0)" fill="rgb(252,252,247)" d="M 700.429 1438.52 C 705.743 1442.75 711.549 1447.57 717.708 1450.49 C 720.325 1451.73 723.007 1452.2 725.554 1453.64 L 720.757 1454.34 C 711.914 1455.04 703.822 1454.45 695.052 1453.4 C 697.178 1448.72 698.684 1443.37 700.429 1438.52 z"/>
<path transform="translate(0,0)" fill="rgb(30,15,34)" d="M 851.867 1510.41 C 841.472 1505.87 832.052 1500.59 821.284 1496.57 L 819.973 1496.93 L 820.031 1495.19 L 817.068 1494.43 L 819.2 1493.75 L 817.704 1493.79 C 833.055 1483.54 892.843 1451.24 910.021 1451.39 C 913.235 1451.42 914.264 1452.84 916.585 1454.73 C 916.203 1454.95 915.823 1455.18 915.439 1455.39 C 906.549 1460.34 892.918 1463.01 885.85 1470.16 C 883.117 1480.45 880.722 1489.18 874.846 1498.29 C 870.937 1505.48 867.065 1510.13 860.428 1515.01 L 860.083 1515.27 C 857.48 1513.85 854.01 1512.4 851.867 1510.41 z"/>
<path transform="translate(0,0)" fill="rgb(252,252,247)" d="M 865.477 1479.09 C 867.965 1480.39 869.8 1480.86 871.351 1483.27 A 111.128 111.128 0 0 1 870.202 1487.65 C 867.312 1488.04 864.857 1485.71 862.38 1484.23 C 863.304 1487.52 866.217 1490.58 868.573 1492.98 C 869.77 1494.2 870.28 1494.79 870.889 1496.34 L 868.433 1496.9 C 864.843 1496.21 860.407 1491.32 857.23 1489.14 L 849.898 1485.37 C 855.162 1483.42 860.425 1481.56 865.477 1479.09 z"/>
<path transform="translate(0,0)" fill="rgb(2,1,2)" d="M 851.092 1490.52 L 857.23 1489.14 C 860.407 1491.32 864.843 1496.21 868.433 1496.9 L 870.889 1496.34 C 872.56 1496.89 873.415 1497.2 874.846 1498.29 C 870.937 1505.48 867.065 1510.13 860.428 1515.01 L 860.083 1515.27 C 857.48 1513.85 854.01 1512.4 851.867 1510.41 L 852.005 1508.98 C 855.832 1510.66 857.808 1512.59 862.113 1512.28 C 861.044 1508.89 855.051 1508.83 853.397 1504.49 C 854.761 1505.3 856.135 1506.18 857.557 1506.88 C 860.266 1508.21 860.368 1508.38 863.12 1507.5 C 864.786 1505.08 865.119 1504.85 865.099 1501.95 C 862.525 1497.07 855.639 1493.63 851.092 1490.52 z"/>
<path transform="translate(0,0)" fill="rgb(248,243,243)" d="M 853.397 1504.49 C 848.668 1499.64 840.903 1499.1 836.501 1493.78 L 836.708 1491.94 C 843.635 1489.77 849.421 1496.17 855.576 1498.8 C 853.054 1495.97 845.649 1491.92 844.62 1489.04 C 847.097 1488.62 848.868 1489.58 851.092 1490.52 C 855.639 1493.63 862.525 1497.07 865.099 1501.95 C 865.119 1504.85 864.786 1505.08 863.12 1507.5 C 860.368 1508.38 860.266 1508.21 857.557 1506.88 C 856.135 1506.18 854.761 1505.3 853.397 1504.49 z"/>
<path transform="translate(0,0)" fill="rgb(219,126,125)" d="M 108.352 1346.36 C 114.202 1349.81 122.687 1379.22 126.339 1387.38 C 139.135 1415.99 155.95 1443.85 174.017 1469.42 C 233.534 1553.64 310.979 1624.09 394.042 1684.46 A 1037.31 1037.31 0 0 0 767.505 1854.94 C 828.707 1869.2 894.848 1878.32 957.335 1868.45 C 957.545 1889.27 958.045 1919.7 938.291 1932.34 C 932.209 1936.23 924.537 1938.73 919.962 1944.58 C 918.294 1946.71 917.853 1948.26 918.217 1950.93 C 918.462 1952.72 918.569 1953.48 918.235 1955.23 C 915.981 1957.46 912.869 1957.36 909.872 1957.73 A 358.781 358.781 0 0 1 896.62 1959.37 C 840.925 1965.08 784.71 1957.98 730.263 1946.2 C 569.949 1911.54 408.134 1828.87 281.504 1725.13 C 202.014 1660.01 129.977 1580.71 79.6904 1490.72 C 70.3309 1473.97 58.2497 1454.44 56.339 1435.14 C 67.9714 1417.41 80.1281 1399.75 90.535 1381.28 C 96.9476 1369.89 102.211 1357.89 108.352 1346.36 z"/>
<path transform="translate(0,0)" fill="rgb(108,94,94)" d="M 623.92 165.811 C 628.963 172.176 637.619 209.508 640.979 219.82 C 652.009 253.669 662.815 287.905 674.874 321.372 C 688.273 358.557 702.911 394.726 718.569 431.007 C 735.003 469.088 752.07 506.629 774.54 541.647 C 790.051 565.82 811.203 582.813 837.808 593.626 C 891.554 615.469 960.678 611.538 1018 612.493 A 1014.25 1014.25 0 0 1 1086.94 615.989 C 1101.72 617.205 1117.36 618.082 1131.84 621.345 L 1133.19 621.658 C 1114.5 639.697 1093.3 663.089 1085.4 688.444 C 1083.4 694.852 1080.12 706.149 1083.31 712.268 L 1085.13 712.558 C 1093.66 707.182 1113.22 675.087 1120.77 665.142 C 1116.1 675.339 1111.26 685.108 1107.88 695.846 C 1120.02 687.12 1130.14 670.955 1140.04 659.483 C 1138.5 666.556 1135.27 672.887 1132.14 679.36 C 1138.87 672.677 1143.12 666.946 1146.73 658.101 C 1146.33 662.997 1145.32 667.903 1144.54 672.754 C 1161.14 661.58 1159.38 659.673 1167.23 643.108 C 1168.33 650.078 1163.87 660.396 1161.7 667.07 C 1172.87 659.072 1177.43 652.229 1183.58 639.961 L 1184.48 639.933 L 1184.41 638.637 L 1185.1 639.003 L 1183.36 640.54 L 1185.34 640.515 C 1185.66 644.551 1185.47 649.192 1184.86 653.186 C 1184.53 655.36 1184.34 657.36 1184.29 659.56 L 1185.39 659.562 C 1190.57 653.977 1192.38 649.077 1194.47 641.923 C 1236.95 665.25 1263.5 690.615 1285.6 734.213 C 1306.29 775.015 1319.64 825.564 1304.58 870.499 C 1292.84 905.516 1266.06 930.382 1233.68 946.471 C 1204.05 961.533 1172.5 972.66 1143.71 989.448 C 1125.71 999.948 1109 1012.73 1091.8 1024.47 C 1053.65 1050.5 1014.97 1070.97 970.344 1083.76 C 884.68 1108.32 811.247 1090.88 730.421 1060.23 C 692.687 1045.91 656.97 1030.25 621.646 1010.64 C 626.713 980.971 633.035 952.442 643.913 924.285 C 616.013 906.883 589.515 883.457 566.817 859.801 C 551.315 843.645 538.166 825.705 526.044 806.937 C 493.66 756.798 479.628 713.836 473.302 655.223 C 471.054 634.393 469.641 613.684 470.102 592.723 C 472.533 482.077 510.3 330.516 567.756 236.032 A 342.265 342.265 0 0 1 623.92 165.811 z"/>
<path transform="translate(0,0)" fill="rgb(30,15,34)" d="M 767.2 919.007 C 767.916 923.96 761.432 937.634 760.254 943.715 C 757.171 959.637 756.362 977.209 756.874 993.414 L 756.227 993.9 C 754.458 989.388 753.497 984.915 753.059 980.096 C 751.124 958.807 752.999 935.936 767.2 919.007 z"/>
<path transform="translate(0,0)" fill="rgb(30,15,34)" d="M 1100.32 930.118 L 1102.88 930.311 C 1100.9 933.601 1090.29 937.387 1086.4 939.261 C 1068.32 947.969 1051.11 957.922 1033.87 968.165 L 1032.18 968.737 L 1032.45 967.197 C 1051.75 947.027 1073.49 936.689 1100.32 930.118 z"/>
<path transform="translate(0,0)" fill="rgb(30,15,34)" d="M 766.124 882.947 C 767.215 886.612 758.289 900.912 756.942 905.646 C 751.398 925.137 747.334 945.287 744.215 965.305 C 741.097 957.625 741.652 945.939 742.259 937.733 C 743.7 918.259 750.809 896.05 766.124 882.947 z"/>
<path transform="translate(0,0)" fill="rgb(30,15,34)" d="M 1061.22 931.023 L 1062.03 931.251 C 1060.43 937.174 1019.85 961.827 1012.42 967.348 C 1003.25 974.16 994.72 981.768 985.504 988.535 L 984.534 988.428 A 158.665 158.665 0 0 1 1061.22 931.023 z"/>
<path transform="translate(0,0)" fill="rgb(30,15,34)" d="M 501.737 531.884 C 503.792 534.563 501.039 560.44 500.904 565.787 C 500.27 590.941 501.693 615.216 507.433 639.808 C 509.412 648.289 515.218 658.76 515.464 667.105 L 514.154 666.686 C 511.655 663.168 509.568 659.506 507.732 655.605 C 491.326 620.736 488.707 568.116 501.737 531.884 z"/>
<path transform="translate(0,0)" fill="rgb(30,15,34)" d="M 1026.3 933.958 L 1027.07 934.213 C 1025.14 938.892 1006.7 951.414 1001.76 955.28 C 977.723 974.076 955.815 994.517 934.482 1016.33 L 933.348 1016.58 C 933.398 1015.92 933.342 1015.23 933.497 1014.58 C 934.679 1009.64 940.733 1002.81 943.75 998.859 C 964.582 971.553 994.081 946.72 1026.3 933.958 z"/>
<path transform="translate(0,0)" fill="rgb(30,15,34)" d="M 519.412 547.625 C 522.189 551.401 522.485 585.909 523.323 594.836 C 526.93 633.22 534.033 669.695 551.47 704.387 L 550.879 705.794 C 547.41 701.54 544.176 696.973 541.153 692.395 C 516.726 655.393 510.503 590.552 519.412 547.625 z"/>
<path transform="translate(0,0)" fill="rgb(30,15,34)" d="M 1000.61 927.253 C 999.249 931.055 989.403 936.898 985.767 939.812 C 972.782 950.219 959.969 961.131 947.974 972.674 C 932.878 987.201 919.286 1003.37 905.767 1019.35 C 897.544 1029.07 889.543 1039.69 879.847 1047.97 L 879.58 1046.47 C 883.015 1037.46 888.761 1029.23 894.146 1021.28 C 919.718 983.555 958.621 946.128 1000.61 927.253 z"/>
<path transform="translate(0,0)" fill="rgb(30,15,34)" d="M 1171.23 735.232 C 1183.72 734.562 1194.28 735.891 1205.41 741.908 A 72.1088 72.1088 0 0 1 1239.87 784.38 C 1243.9 797.907 1245.61 816.001 1238.38 828.648 C 1229.68 843.874 1205.77 852.284 1189.83 856.773 C 1174.52 860.228 1158.22 860.606 1144.34 852.196 C 1131.39 844.352 1122.25 830.188 1118.81 815.591 C 1114.58 797.617 1117.95 779.567 1127.84 764.04 C 1138.25 747.687 1152.64 739.338 1171.23 735.232 z"/>
<path transform="translate(0,0)" fill="rgb(252,252,247)" d="M 1168.02 744.997 L 1168.9 745.111 C 1169.21 745.391 1169.73 745.546 1169.82 745.951 C 1169.96 746.538 1164.17 759.941 1163.56 761.737 C 1160.16 771.673 1160.8 783.568 1163.65 793.607 C 1170.23 816.764 1188.62 831.317 1208.7 842.696 C 1198.77 847.646 1188.44 850.282 1177.43 851.297 C 1168.93 851.207 1161.37 850.636 1153.55 846.808 C 1142.63 841.457 1134.98 831.237 1131 819.927 C 1125.55 804.433 1127.9 787.204 1135.06 772.662 C 1142.09 758.361 1153.14 750.056 1168.02 744.997 z"/>
<path transform="translate(0,0)" fill="rgb(30,15,34)" d="M 613.569 224.694 C 624.529 235.79 642.522 286.852 648.826 303.63 A 4060.01 4060.01 0 0 0 703.281 443.398 C 733.057 514.773 764.524 584.429 822.319 637.684 C 816.848 649.059 810.026 660.1 803.813 671.109 C 783.016 707.96 762.797 743.002 751.778 784.191 C 734.897 779.09 718.149 769.132 702.149 761.556 C 699.161 769.324 697.247 777.511 695.11 785.546 A 451.75 451.75 0 0 0 678.721 870.423 C 676.55 869.077 674.531 867.6 672.624 865.901 C 593.524 795.423 557.206 680.484 551.107 577.572 C 545.095 476.118 561.445 372.886 592.193 276.284 C 597.278 260.309 602.304 237.388 613.569 224.694 z"/>
<path transform="translate(0,0)" fill="rgb(219,126,125)" d="M 613.972 239.535 C 629.849 268.403 642.718 309.998 654.304 341.375 A 2704.85 2704.85 0 0 0 696.111 446.72 C 725.087 515.525 757.171 588.032 812.277 640.235 C 787.96 684.999 760.492 725.152 747.367 775.032 C 734.474 768.512 713.673 755.74 699.578 754.354 C 694.711 757.205 693.299 766.577 691.763 771.78 C 682.728 799.46 676.771 828.067 672.268 856.792 C 642.163 823.064 617.806 789.382 599.353 747.939 A 477.384 477.384 0 0 1 567.406 647.394 C 542.267 517.248 566.966 362.33 613.972 239.535 z"/>
<path transform="translate(0,0)" fill="url(#Gradient4)" d="M 672.905 650.561 C 676.736 653.168 679.047 662.042 680.787 666.411 C 690.73 691.373 701.676 714.863 719.33 735.389 C 717.075 734.513 715.382 733.327 713.459 731.888 C 688.821 713.448 676.896 679.907 672.905 650.561 z"/>
<path transform="translate(0,0)" fill="rgb(30,15,34)" d="M 591.886 472.565 C 593.827 476.823 587.294 574.851 585.525 587.183 L 584.554 586.681 C 578.029 545.844 581.188 512.15 591.886 472.565 z"/>
<path transform="translate(0,0)" fill="url(#Gradient5)" d="M 602.839 513.565 C 605.012 518.407 602.962 545.469 603.223 552.641 A 597.722 597.722 0 0 0 607.232 604.438 C 608.54 614.955 614.195 634.525 612.905 644.228 L 611.23 642.688 C 593.231 601.463 590.685 556.798 602.839 513.565 z"/>
<path transform="translate(0,0)" fill="url(#Gradient6)" d="M 640.101 600.698 C 644.397 610.865 645.517 622.874 649.229 633.418 A 540.255 540.255 0 0 0 695.697 733.344 C 691.043 730.622 686.97 726.064 683.439 722.008 C 657.684 692.422 637.395 640.074 640.101 600.698 z"/>
<path transform="translate(0,0)" fill="url(#Gradient7)" d="M 615.373 552.614 C 619.667 562.523 620.131 582.025 622.611 593.547 C 629.045 623.429 640.973 664.789 653.396 692.504 C 650.736 691.237 648.814 689.537 646.946 687.28 C 640.739 679.784 636.599 670.388 632.906 661.471 A 236.202 236.202 0 0 1 615.373 552.614 z"/>
<path transform="translate(0,0)" fill="rgb(252,252,247)" d="M 905.198 541.423 C 972.696 537.965 1039.98 552.898 1105.58 566.593 C 1171.64 580.384 1238.61 594.985 1301.4 620.281 C 1332.45 632.792 1327.86 640.265 1339.48 667.356 C 1372.09 743.402 1434.49 787.635 1518.02 790.794 C 1552.79 792.109 1587.9 787.277 1622.72 786.859 C 1691.51 786.034 1776.13 791.134 1840.59 817.047 C 1821.7 837.118 1793.37 852.969 1780.42 878.188 C 1777.07 884.697 1776 891.017 1779.58 897.652 C 1783.89 905.647 1792.52 911.848 1799.77 917.041 C 1834.47 941.899 1879.22 960.896 1892.61 1005.37 C 1901.78 1035.83 1886.77 1074.2 1872.15 1100.55 C 1843.12 1152.85 1790.75 1182.67 1734.87 1198.8 C 1625.34 1230.42 1514.66 1222.52 1405.56 1194.07 A 842.092 842.092 0 0 1 1260.97 1142.71 C 1236.56 1131.35 1212.75 1117.57 1189.16 1104.55 C 1198.48 1102.37 1208.36 1101.37 1217.83 1099.9 C 1259.05 1093.5 1290.6 1086.04 1319.81 1054.37 C 1301.72 1064.13 1281.13 1072.35 1260.97 1076.32 C 1217.7 1084.83 1181.12 1078.83 1139.3 1100.32 C 1133 1103.55 1125.97 1107 1120.4 1111.41 C 1118.11 1113.22 1117.28 1114.19 1116.9 1117.06 C 1117.54 1117.97 1117.98 1118.71 1118.92 1119.4 C 1123.04 1122.42 1139.26 1125.91 1145.05 1128.05 C 1165.52 1135.63 1185.42 1145.2 1205.61 1153.56 C 1229.21 1163.33 1252.79 1173.69 1276.73 1182.56 C 1310.73 1195.16 1345.36 1205.32 1380.32 1214.85 C 1501.98 1248.02 1613.72 1258.95 1736.56 1224.9 A 86.9426 86.9426 0 0 1 1729.92 1231.63 C 1668.38 1288.01 1547.18 1301.74 1466.57 1295.78 C 1424.23 1292.65 1382.45 1283.75 1340.08 1282.15 C 1255.73 1278.97 1179.82 1306.21 1117.81 1363.93 C 993.018 1480.07 967.708 1663.76 962.001 1825.18 C 959.386 1823.92 956.718 1822.56 953.939 1821.71 C 945.539 1819.13 938.946 1822.05 931.623 1825.82 C 925.59 1773.14 896.188 1717.17 863.22 1675.98 C 854.833 1665.5 845.426 1655.95 836.074 1646.35 C 842.355 1640.46 847.759 1634.33 852.896 1627.43 A 257.707 257.707 0 0 1 883.269 1649.59 C 887.771 1653.42 891.977 1658.92 896.958 1661.92 L 896.771 1660.49 C 887.288 1646.41 869.426 1633.92 855.49 1624.57 C 871.061 1600.27 872.846 1593.51 869.716 1565.16 C 877.508 1554.09 888.76 1545.93 896.738 1534.96 C 918.713 1504.76 923.405 1465.36 931.855 1429.75 C 921.686 1430.44 911.348 1433.27 901.439 1435.58 C 864.903 1444.08 834.446 1455.37 800.261 1470.86 C 788.968 1464.73 776.286 1461.97 765.199 1455.26 C 760.244 1447.21 756.849 1438.02 752.96 1429.41 C 743.789 1409.11 732.233 1388.05 715.903 1372.57 C 710.835 1367.77 692.965 1351.05 686.654 1351.24 C 683.88 1356.53 687.111 1372.58 687.058 1379.41 A 136.321 136.321 0 0 1 683.859 1408.45 C 675.789 1445.25 652.681 1477.2 646.086 1513.91 C 637.2 1518.44 629.956 1521.51 623.264 1529.36 C 599.096 1518.68 575.391 1511.76 549.387 1507.07 C 557.412 1510.81 566.594 1512.98 574.954 1516.05 C 589.432 1521.38 603.685 1527.49 617.961 1533.34 C 615.236 1540.24 612.915 1546.96 611.101 1554.15 C 591.433 1550.6 571.59 1549.31 551.701 1551.45 C 571.353 1555.54 591.952 1556.48 611.829 1560.35 C 612.872 1566.77 615.991 1572.5 616.921 1578.79 C 617.296 1581.32 617.267 1580.66 615.926 1582.41 L 612.24 1582.77 C 591.683 1584.35 571.401 1587.37 551.787 1593.94 C 560.45 1593.77 569.558 1591.89 578.209 1590.89 A 413.901 413.901 0 0 1 621.684 1587.94 C 636.738 1614.66 654.125 1630.14 680.647 1645.09 C 677.355 1656.03 673.38 1666.74 670.364 1677.76 C 660.434 1714.06 656.928 1752.53 663.711 1789.7 A 1025.71 1025.71 0 0 1 623.429 1774.22 C 442.435 1699.62 221.442 1540.25 144.203 1355.14 C 198.775 1273.31 266.664 1198.32 338.792 1131.6 C 326.205 1138.99 314.7 1149.1 303.248 1158.15 C 283.936 1173.4 264.845 1188.76 245.98 1204.57 C 231.464 1216.73 217.174 1229.62 201.867 1240.76 C 208.252 1229.37 216.56 1218.61 224.437 1208.21 C 265.743 1153.66 317.154 1108.29 367.327 1062.18 C 350.822 1070.97 335.283 1082.9 319.82 1093.4 A 1738.98 1738.98 0 0 1 247.802 1140.67 C 275.749 1106.23 309.477 1077.35 344.424 1050.28 C 368.715 1031.46 391.789 1015.1 413.406 992.914 C 387.996 1009.63 359.01 1028.13 329.82 1037.2 C 341.654 1021.53 356.962 1008.16 370.155 993.594 C 406.374 953.613 475.491 872.851 492.347 822.69 C 492.385 822.979 492.42 823.268 492.461 823.556 C 494.25 835.886 498.88 848.613 502.843 860.417 C 523.177 920.981 556.492 966.824 607.458 1005.27 C 597.975 1036.26 599.294 1072.62 605.892 1104 C 614.042 1142.76 633.94 1184.2 667.873 1206.4 C 666.02 1195.44 664.92 1184.6 664.623 1173.48 C 683.063 1211.19 719.233 1244.55 754.664 1266.85 C 792.138 1290.44 863.324 1312.27 907.033 1302.49 C 851.624 1296.27 798.353 1278.51 753.454 1244.68 C 700.283 1204.63 668.004 1157.19 658.588 1090.61 C 646.375 1113.56 645.791 1140.39 648.359 1165.7 C 621.918 1112.82 614.677 1077.19 621.269 1017.55 C 638.217 1026.31 654.805 1035.74 672.054 1043.92 C 732.047 1072.37 808.069 1099.22 874.852 1102.38 A 311.708 311.708 0 0 0 956.405 1094.65 A 352.147 352.147 0 0 0 1081.86 1039.44 C 1102.99 1024.89 1123.46 1009.07 1145.74 996.308 C 1197.49 966.676 1265.44 952.715 1298.49 898.992 C 1319.72 864.479 1322.41 825.095 1312.92 786.326 C 1301.13 738.193 1273.82 687.261 1233.03 657.822 C 1221.57 649.55 1208.9 644.791 1197.05 637.5 L 1195.32 636.418 C 1195.39 626.535 1195.89 614.281 1190.09 605.731 C 1187.75 602.278 1184.42 599.978 1180.29 599.232 C 1167.04 596.84 1151.24 609.058 1140.59 615.929 C 1082.98 603.044 1013.1 605.63 953.468 603.43 C 918.949 602.157 881.642 600.522 848.804 589.098 C 828.659 582.089 813.245 572.149 798.486 556.858 C 833.577 548.106 869.207 543.937 905.198 541.423 z"/>
<path transform="translate(0,0)" fill="rgb(30,15,34)" d="M 1656.04 1063.62 C 1658.3 1063.92 1659.94 1064.64 1662 1065.61 C 1663.4 1067.52 1664.4 1068.34 1663.86 1070.89 C 1663.15 1074.24 1660.3 1076.29 1657.81 1078.33 C 1655.42 1078.12 1654.12 1077.6 1652.03 1076.41 C 1650.58 1074.13 1649.75 1073.19 1650.44 1070.31 C 1651.19 1067.16 1653.57 1065.41 1656.04 1063.62 z"/>
<path transform="translate(0,0)" fill="rgb(30,15,34)" d="M 1748.18 1035.78 C 1750.82 1036.01 1752.03 1036.38 1754.22 1037.87 C 1755.04 1039.47 1755.77 1040.2 1755.58 1042.07 C 1755.11 1046.57 1752.79 1048.54 1749.41 1051.1 C 1746.68 1050.6 1745.4 1050.07 1743.24 1048.33 C 1742.2 1045.93 1741.6 1044.91 1742.43 1042.24 C 1743.4 1039.11 1745.61 1037.54 1748.18 1035.78 z"/>
<path transform="translate(0,0)" fill="rgb(30,15,34)" d="M 1533.68 1076 C 1536.32 1075.88 1539.14 1075.63 1541.51 1077.09 C 1544.05 1078.64 1544.23 1079.73 1544.89 1082.39 C 1544.33 1085.53 1543.1 1086.88 1541.05 1089.14 C 1538.75 1089.13 1536.71 1089 1534.54 1088.1 C 1531.74 1086.94 1530.66 1085.33 1529.64 1082.59 C 1530.49 1078.99 1531.15 1078.54 1533.68 1076 z"/>
<path transform="translate(0,0)" fill="rgb(2,1,2)" d="M 1567.68 1003.04 C 1570.44 1002.67 1572.98 1002.35 1575.66 1003.34 C 1578.71 1004.46 1579.83 1006.02 1581.06 1008.9 C 1580.94 1012.02 1580.12 1013.04 1578.35 1015.47 C 1575.28 1015.8 1571.4 1016.3 1568.55 1014.73 C 1566.03 1013.35 1565.72 1012.67 1564.71 1010.16 C 1564.99 1006.76 1565.71 1005.66 1567.68 1003.04 z"/>
<path transform="translate(0,0)" fill="rgb(30,15,34)" d="M 1815.04 1075.98 C 1817.04 1077.1 1819.18 1078.25 1820.02 1080.56 C 1820.73 1082.55 1820.43 1084.17 1819.58 1086.01 C 1817.8 1089.87 1814.4 1091.31 1810.67 1092.82 C 1809.76 1092.27 1808.09 1091.43 1807.33 1090.61 C 1805.38 1088.47 1805.45 1087.35 1805.29 1084.62 C 1807.27 1079.71 1810.38 1078.03 1815.04 1075.98 z"/>
<path transform="translate(0,0)" fill="rgb(30,15,34)" d="M 1601.73 1136.89 C 1604.12 1136.87 1606.58 1137.04 1608.63 1138.47 C 1610.72 1139.93 1611.73 1141.88 1611.69 1144.42 C 1611.65 1147.29 1609.39 1149.42 1607.54 1151.33 C 1603.98 1151.25 1600.28 1151.44 1597.56 1148.68 C 1596.01 1147.1 1595.62 1145.28 1596.04 1143.16 C 1596.64 1140.2 1599.46 1138.52 1601.73 1136.89 z"/>
<path transform="translate(0,0)" fill="rgb(30,15,34)" d="M 1693.21 970.754 C 1697.16 971.465 1698.86 972.189 1701.54 975.09 C 1702.33 977.573 1702.96 979.36 1701.71 981.862 C 1700.23 984.821 1697.63 985.877 1694.81 987.184 C 1691.46 986.557 1689.56 985.987 1686.85 983.876 C 1686.13 982.344 1685.53 981.77 1685.82 980.009 C 1686.54 975.563 1689.89 973.351 1693.21 970.754 z"/>
<path transform="translate(0,0)" fill="rgb(2,1,2)" d="M 1173.25 1026 L 1174.28 1026.2 C 1171.64 1030.08 1163.55 1033.22 1159.43 1035.96 C 1149.41 1042.6 1139.44 1050.14 1130.67 1058.35 L 1129.89 1058.49 L 1129.34 1057.26 C 1139.65 1040.29 1155.23 1032.41 1173.25 1026 z"/>
<path transform="translate(0,0)" fill="rgb(30,15,34)" d="M 1806.84 990.005 C 1810.05 990.466 1813.94 991.401 1815.71 994.428 C 1816.93 996.502 1816.86 998.712 1815.87 1000.86 C 1814.54 1003.77 1811.53 1005 1808.81 1006.26 C 1804.98 1005.69 1802.76 1005.25 1800 1002.29 C 1799.47 1000.63 1798.93 999.836 1799.33 998.048 C 1800.29 993.752 1803.3 992.038 1806.84 990.005 z"/>
<path transform="translate(0,0)" fill="rgb(2,1,2)" d="M 499.406 898.731 C 499.494 899.266 499.64 899.795 499.671 900.336 C 499.843 903.372 496.245 950.699 495.934 951.452 C 495.66 952.117 495.037 952.575 494.588 953.136 C 494.138 952.158 494.03 951.997 493.688 950.806 C 489.159 935.021 491.836 913.078 499.406 898.731 z"/>
<path transform="translate(0,0)" fill="rgb(30,15,34)" d="M 1713.27 1118.95 C 1717.22 1119.83 1719.28 1120.84 1721.52 1124.31 C 1721.79 1126.06 1722.02 1127.36 1721.3 1129.08 C 1719.71 1132.91 1716.39 1134.65 1712.83 1136.31 C 1711.61 1136.11 1710.45 1135.95 1709.26 1135.59 C 1706.56 1134.77 1705.5 1133.72 1704.05 1131.38 C 1703.64 1129.45 1703.62 1128.56 1704.28 1126.63 C 1705.76 1122.36 1709.47 1120.69 1713.27 1118.95 z"/>
<path transform="translate(0,0)" fill="rgb(2,1,2)" d="M 913.48 566.418 C 927.098 565.618 939.467 566.612 952.624 570.364 L 925.25 570.997 A 583.678 583.678 0 0 1 882.052 570.345 C 892.512 568.153 902.816 567.076 913.48 566.418 z"/>
<path transform="translate(0,0)" fill="rgb(2,1,2)" d="M 1164.83 1017.08 L 1165.68 1018.03 C 1160.44 1024.17 1150.48 1027.95 1143.68 1032.54 C 1134.16 1038.98 1125.58 1046.99 1117.91 1055.51 L 1117.03 1055.02 C 1117.18 1053.98 1117.18 1053.63 1117.66 1052.54 C 1126.05 1033.56 1146.76 1023.96 1164.83 1017.08 z"/>
<path transform="translate(0,0)" fill="rgb(2,1,2)" d="M 836.936 1175.98 C 842.46 1180.25 846.871 1186.37 851.423 1191.65 C 860.727 1202.46 869.353 1211.06 881.171 1219.16 C 873.787 1219.09 866.959 1214.44 861.386 1209.98 C 852.244 1202.66 838.172 1187.96 836.936 1175.98 z"/>
<path transform="translate(0,0)" fill="rgb(2,1,2)" d="M 523.665 950.602 C 532.605 959.316 547.763 995.355 557.973 1009.48 C 556.507 1008.93 555.177 1008.31 553.877 1007.43 C 537.763 996.481 527.254 968.917 523.665 950.602 z"/>
<path transform="translate(0,0)" fill="rgb(2,1,2)" d="M 1499.08 831.326 C 1510.97 830.148 1538.8 830.18 1549.69 834.735 L 1549.89 835.7 C 1544.17 837.677 1534.57 836.301 1528.36 836.171 C 1509.82 835.553 1491.19 837.364 1472.81 839.672 C 1481.66 835.166 1489.25 832.751 1499.08 831.326 z"/>
<path transform="translate(0,0)" fill="rgb(2,1,2)" d="M 786.109 1130.76 C 791.025 1136.39 798.782 1158.52 803.052 1166.69 C 807.926 1176.01 814.041 1184.74 819.87 1193.48 C 814.971 1191.59 811.336 1187.92 807.921 1184.03 C 796.232 1170.73 784.848 1148.85 786.109 1130.76 z"/>
<path transform="translate(0,0)" fill="rgb(2,1,2)" d="M 810.423 1153.43 C 814.488 1157.86 817.733 1166.11 820.994 1171.41 C 830.339 1186.59 841.227 1201.17 854.188 1213.47 C 848.388 1212.17 843.434 1208.64 839.02 1204.78 C 824.915 1192.42 811.837 1172.39 810.423 1153.43 z"/>
<path transform="translate(0,0)" fill="rgb(2,1,2)" d="M 1503.65 818.269 C 1506.3 818.831 1507.63 819.795 1509.78 821.341 L 1510.13 822.443 C 1488.98 830.793 1471.81 834.119 1450.23 844.757 C 1459.87 835.431 1468.49 830.429 1481.07 825.911 L 1478.03 823.149 C 1486.5 820.559 1494.8 818.788 1503.65 818.269 z"/>
<path transform="translate(0,0)" fill="rgb(248,243,243)" d="M 1503.65 818.269 C 1506.3 818.831 1507.63 819.795 1509.78 821.341 L 1510.13 822.443 C 1500.83 822.324 1490.03 823.332 1481.07 825.911 L 1478.03 823.149 C 1486.5 820.559 1494.8 818.788 1503.65 818.269 z"/>
<path transform="translate(0,0)" fill="rgb(2,1,2)" d="M 517.5 920.675 C 520.074 926.668 521.561 975.41 519.555 983.111 L 517.886 982.585 C 516.506 979.634 515.412 976.467 514.587 973.316 C 510.329 957.057 508.727 935.658 517.5 920.675 z"/>
<path transform="translate(0,0)" fill="rgb(2,1,2)" d="M 901.869 557.396 C 921.884 554.935 952.053 556.467 971.69 561.731 C 955.391 562.367 939.059 562.137 922.75 562.072 C 900.051 561.888 877.418 563.963 854.933 566.882 C 868.721 560.492 886.876 559.125 901.869 557.396 z"/>
<path transform="translate(0,0)" fill="url(#Gradient8)" d="M 1425.07 855.201 C 1434.11 837.89 1448.73 825.604 1467.09 818.929 C 1479.16 814.541 1491.63 812.751 1503.65 818.269 C 1494.8 818.788 1486.5 820.559 1478.03 823.149 C 1457.81 828.653 1441.27 842.606 1425.07 855.201 z"/>
<path transform="translate(0,0)" fill="rgb(2,1,2)" d="M 503.551 1307.86 C 505.649 1310.56 507.47 1344.78 508.676 1351.35 C 512.114 1370.11 517.443 1387.77 524.78 1405.36 C 527.54 1411.98 531.15 1418.38 533.603 1425.08 L 534.248 1426.89 C 531.722 1424.32 529.394 1421.66 527.297 1418.72 C 506.208 1389.17 497.614 1343.32 503.551 1307.86 z"/>
<path transform="translate(0,0)" fill="rgb(2,1,2)" d="M 481.387 1097.99 C 481.584 1103.29 470.128 1126.2 467.323 1133.49 C 456.91 1160.57 447.167 1188.52 440.452 1216.75 C 438.365 1177.21 460.582 1130.84 481.387 1097.99 z"/>
<path transform="translate(0,0)" fill="rgb(2,1,2)" d="M 384.117 1397.69 C 390.921 1424.91 398.88 1452.25 409.503 1478.25 C 413.809 1488.79 420.452 1498.42 424.217 1509.16 C 399.077 1478.96 380.577 1437.67 384.117 1397.69 z"/>
<path transform="translate(0,0)" fill="rgb(2,1,2)" d="M 366.187 1321.63 C 367.699 1325.55 363.961 1381.21 364.059 1391.63 C 364.184 1404.97 367.317 1424.63 366.504 1436.09 L 365.239 1433.81 C 353.541 1396.29 353.31 1358.91 366.187 1321.63 z"/>
<path transform="translate(0,0)" fill="url(#Gradient9)" d="M 486.424 1228.73 C 487.719 1235.86 483.418 1251.12 482.724 1259.22 C 481.196 1277.05 480.221 1294.94 481.215 1312.83 C 481.607 1319.88 487.221 1353.5 486.379 1356.63 L 484.984 1354.41 C 482.299 1347.55 479.886 1340.65 478.029 1333.51 C 470.215 1303.49 470.15 1256.09 486.424 1228.73 z"/>
<path transform="translate(0,0)" fill="url(#Gradient10)" d="M 478.309 1167.56 L 479.694 1169.09 A 547.628 547.628 0 0 0 459.146 1245.49 C 455.995 1262.26 454.048 1279.41 449.997 1295.98 L 449.653 1296 C 449.441 1295.51 449.127 1295.05 449.017 1294.53 C 447.924 1289.37 449.312 1280.89 449.529 1275.48 C 451.029 1237.97 457.336 1199.56 478.309 1167.56 z"/>
<path transform="translate(0,0)" fill="url(#Gradient11)" d="M 369.536 1254.98 C 369.643 1259.07 357.687 1281.81 355.514 1288.22 C 348.932 1307.64 344.23 1328.83 341.042 1349.09 C 339.811 1356.92 338.046 1387.4 335.344 1391.21 A 183.22 183.22 0 0 1 335.05 1388.7 C 329.591 1338.76 337.741 1294.71 369.536 1254.98 z"/>
</svg>