<svg version="1.1" xmlns="http://www.w3.org/2000/svg" style="display: block;" viewBox="0 0 2048 2048" width="1024" height="1024">
<defs>
	<linearGradient id="Gradient1" gradientUnits="userSpaceOnUse" x1="551.675" y1="120.681" x2="577.325" y2="103.319">
		<stop class="stop0" offset="0" stop-opacity="1" stop-color="rgb(225,172,107)"/>
		<stop class="stop1" offset="1" stop-opacity="1" stop-color="rgb(249,206,147)"/>
	</linearGradient>
</defs>
<path transform="translate(0,0)" fill="rgb(254,254,252)" d="M 0 0 L 2048 0 L 2048 864.572 L 2048 1765.6 L 2048 2048 L 0 2048 L 0 0 z"/>
<path transform="translate(0,0)" fill="rgb(233,221,202)" d="M 1761.45 1236.17 C 1779.01 1200.52 1793.06 1163.81 1812.24 1128.81 C 1822.1 1110.81 1834.09 1093.63 1845.42 1076.51 C 1856.7 1059.46 1867.59 1042.02 1879.71 1025.55 C 1918.35 973.044 1988.26 892.784 2048 864.572 L 2048 1765.6 C 2007.15 1771.22 1966.48 1778.48 1925.85 1785.5 A 6231.27 6231.27 0 0 0 1527.49 1868.21 C 1289.33 1923.91 1053.8 1999.3 807.745 2010.57 C 731.02 2014.08 655.07 2009.72 578.594 2004.15 C 503.93 1998.73 394.901 1985.49 328.052 1952.5 C 312.7 1944.92 293.142 1933.91 287.702 1916.46 C 284.854 1907.32 286.774 1897.89 291.466 1889.73 C 324.425 1832.42 503.148 1773.79 568.399 1754.67 C 594.538 1747.01 621.211 1741.51 647.431 1734.28 C 658.665 1792.24 685.617 1848.7 727.568 1890.72 A 238.263 238.263 0 0 0 899.895 1961.91 C 971.498 1961.84 1038.2 1931.63 1088.38 1881.08 C 1156.23 1812.72 1193.37 1709.62 1192.95 1614.15 C 1240.85 1609.94 1289.38 1606.82 1337.41 1604.49 C 1365.71 1603.12 1394.92 1603.42 1423.02 1600.09 C 1426.6 1576.16 1427.98 1551.59 1430.89 1527.53 C 1433.31 1507.49 1436.95 1487.6 1440.08 1467.67 C 1444.79 1437.63 1449.28 1407.72 1456.38 1378.12 C 1463.4 1348.87 1470.6 1319.36 1480.24 1290.85 C 1483.43 1281.43 1494.09 1257.7 1493.81 1249.22 C 1498.69 1243.17 1509.69 1236.78 1515.95 1231.32 A 306.209 306.209 0 0 0 1564.51 1177.45 C 1576.68 1159.96 1588.46 1139.07 1584.55 1117.03 C 1589.94 1109.45 1593.01 1098.61 1596.88 1090.06 C 1600.46 1082.14 1604.84 1074.53 1609.04 1066.94 C 1641.83 1007.76 1680.05 946.093 1730.13 899.849 C 1739.49 891.198 1763.04 868.41 1776.92 870.268 C 1780.96 870.809 1783.73 872.883 1786.12 876.085 C 1811.68 910.382 1781.49 1092.43 1774.41 1142.34 A 7969.89 7969.89 0 0 0 1761.45 1236.17 z"/>
<path transform="translate(0,0)" fill="rgb(0,0,0)" d="M 1256.58 1838.34 C 1257.8 1838.18 1258.59 1838.35 1259.8 1838.57 C 1255.24 1843.73 1224.78 1851.56 1216.04 1854.95 C 1178.12 1869.65 1142.5 1888.66 1106.4 1907.19 L 1104.1 1907.66 L 1104.38 1906.57 C 1140.02 1878.58 1212.34 1844.45 1256.58 1838.34 z"/>
<path transform="translate(0,0)" fill="rgb(0,0,0)" d="M 638.124 1886.29 C 658.035 1885.83 689.199 1896.59 707.887 1903.68 C 733.535 1913.41 776.469 1934.44 788.415 1961.01 C 779.065 1957.15 771.279 1946.78 763.059 1940.7 C 737.73 1921.94 710.425 1909.6 680.499 1900.11 C 672.678 1897.62 641.745 1891.39 638.124 1886.29 z"/>
<path transform="translate(0,0)" fill="rgb(0,0,0)" d="M 1655.27 1590.27 C 1663.3 1589.85 1671.78 1591.4 1679.71 1592.58 C 1705.48 1596.42 1855.16 1631.9 1865.25 1645.51 C 1851.21 1644.08 1836.41 1638.64 1822.75 1634.9 A 7856.44 7856.44 0 0 0 1727.28 1608.43 C 1712.57 1604.59 1665.3 1595.63 1655.27 1590.27 z"/>
<path transform="translate(0,0)" fill="rgb(0,0,0)" d="M 1308.7 1796.36 C 1313.37 1795.53 1318.71 1795.65 1323.48 1795.34 C 1302.01 1804.82 1274.42 1809.1 1251.62 1816.39 C 1202.03 1832.25 1157.58 1855.82 1113.57 1883.14 C 1109.75 1885.27 1105.62 1886.91 1101.63 1888.68 C 1157.09 1844.07 1237.91 1805.9 1308.7 1796.36 z"/>
<path transform="translate(0,0)" fill="rgb(0,0,0)" d="M 1528.03 1601.42 C 1629.95 1598.21 1742.37 1630.34 1839.54 1659.35 C 1863.01 1666.35 1904.14 1676.89 1923.58 1690.87 C 1905.36 1687.71 1887 1680.42 1869.35 1674.98 C 1835.31 1664.49 1801.07 1653.82 1766.61 1644.83 A 1708.49 1708.49 0 0 0 1594.35 1609.62 C 1572.31 1606.32 1550.05 1604.74 1528.03 1601.42 z"/>
<path transform="translate(0,0)" fill="rgb(0,0,0)" d="M 525.626 139.068 C 522.818 127.057 518.82 114.217 518.666 101.831 C 518.605 96.9682 519.454 90.2908 523.41 86.8753 C 526.471 84.2328 529.945 83.4601 533.927 83.6861 C 562.412 85.3032 591.494 110.786 609.756 130.756 C 619.115 132.357 628.7 132.736 638.173 133.057 C 642.637 121.152 651.108 102.686 662.082 95.6624 C 665.988 93.1627 670.641 92.2343 675.163 93.4236 C 694.411 98.4866 709.085 129.754 717.953 145.774 C 725.918 148.371 733.917 150.935 741.748 153.916 C 792.615 173.277 835.785 208.165 871.991 248.177 C 891.29 269.505 908.99 291.363 929.94 311.192 C 955.376 335.266 983.843 355.062 1011.33 376.619 C 1074.85 426.421 1116.94 481.613 1150.03 555.319 C 1184.21 631.468 1223.26 768.955 1210.1 852.102 C 1207.82 866.531 1202.12 878.984 1197.07 892.517 C 1190.26 910.768 1190.03 933.741 1188.87 953.088 C 1184.68 1023.19 1185.84 1101.1 1216.33 1166.02 C 1231.04 1197.35 1253.17 1226.8 1286.83 1238.85 C 1343.87 1259.27 1421.92 1214.78 1456.71 1170.73 C 1476.83 1145.25 1478.31 1110.39 1510.45 1095.37 C 1526.16 1088.02 1543.01 1086.67 1559.39 1092.78 C 1571.83 1097.42 1579.08 1105.29 1584.55 1117.03 C 1588.46 1139.07 1576.68 1159.96 1564.51 1177.45 A 306.209 306.209 0 0 1 1515.95 1231.32 C 1509.69 1236.78 1498.69 1243.17 1493.81 1249.22 C 1494.09 1257.7 1483.43 1281.43 1480.24 1290.85 C 1470.6 1319.36 1463.4 1348.87 1456.38 1378.12 C 1449.28 1407.72 1444.79 1437.63 1440.08 1467.67 C 1436.95 1487.6 1433.31 1507.49 1430.89 1527.53 C 1427.98 1551.59 1426.6 1576.16 1423.02 1600.09 C 1394.92 1603.42 1365.71 1603.12 1337.41 1604.49 C 1289.38 1606.82 1240.85 1609.94 1192.95 1614.15 C 1193.37 1709.62 1156.23 1812.72 1088.38 1881.08 C 1038.2 1931.63 971.498 1961.84 899.895 1961.91 A 238.263 238.263 0 0 1 727.568 1890.72 C 685.617 1848.7 658.665 1792.24 647.431 1734.28 C 645.096 1724.02 643.568 1713.43 642.258 1702.99 C 632.169 1622.57 649.568 1534.89 690.326 1464.7 C 701.419 1445.6 714.752 1428.44 728.251 1411.02 C 724.281 1406.23 720.751 1401.26 718.27 1395.52 C 709.32 1374.8 715.329 1352.89 723.063 1332.87 A 1166.53 1166.53 0 0 1 651.397 1272.39 C 607.898 1231.98 564.938 1178.38 563.088 1116.52 C 561.07 1049.07 609.61 981.193 653.89 933.776 C 636.337 928.468 619.822 921.975 602.935 914.88 C 590.357 920.889 577.553 926.458 563.658 928.514 C 537.279 932.416 506.857 926.084 484.983 910.581 C 479.28 906.539 474.871 901.161 469.317 896.979 C 466.704 899.29 464.631 901.113 461.093 901.62 C 447.255 903.604 434.376 903.211 420.68 900.405 C 397.637 895.685 363.002 884.353 349.771 863.236 A 35.3973 35.3973 0 0 1 345.425 835.607 C 348.079 825.067 355.48 816.679 363.489 809.713 C 391.041 785.748 428.003 769.433 460.627 753.391 A 2548.11 2548.11 0 0 1 562.136 705.802 C 579.09 698.342 596.639 692.163 612.785 683.001 A 1602.01 1602.01 0 0 1 641.858 556.712 C 620.07 514.272 545.321 421.167 495.18 420.599 C 486.304 420.499 478.303 423.197 469.919 425.659 C 447.067 432.37 426.262 433.309 403.77 424.385 C 376.916 413.73 359.023 392.634 347.669 366.622 C 340.905 382.627 336.78 399.711 329.642 415.404 C 330.05 396.845 338.009 377.867 345.577 361.213 C 344.269 358.724 343.714 357.042 341.269 355.482 C 328.871 358.414 318.365 380.206 309.029 388.863 C 308.753 389.119 308.468 389.366 308.187 389.618 C 315.328 375.858 325.751 357.633 340.506 351.039 C 333.872 329.381 332.269 310.109 335.192 287.64 C 336.062 280.96 336.865 273.579 339.819 267.442 C 353.693 238.625 418.385 234.659 444.281 216.039 C 453.588 209.347 459.393 201.338 464.963 191.449 C 482.615 160.11 491.708 151.045 525.626 139.068 z"/>
<path transform="translate(0,0)" fill="rgb(234,182,118)" d="M 990.424 1360.47 C 992.99 1360.7 995.111 1360.72 997.312 1362.22 C 997.442 1365.27 996.054 1366.62 994.497 1369.2 C 992.239 1369.65 991.012 1370.04 988.886 1369 C 988.145 1365.69 989.368 1363.65 990.424 1360.47 z"/>
<path transform="translate(0,0)" fill="rgb(234,182,118)" d="M 1011.4 1381.36 C 1009.79 1380.28 1007.97 1379.19 1006.53 1377.89 C 1004.26 1375.81 1002.62 1371.59 1002.84 1368.5 C 1002.95 1367.03 1003.57 1366.9 1004.57 1365.98 C 1007.88 1365.69 1010.43 1367.66 1013.2 1369.24 C 1011.96 1373.36 1011.58 1377.07 1011.4 1381.36 z"/>
<path transform="translate(0,0)" fill="rgb(246,207,145)" d="M 945.628 771.223 C 946.582 771.389 948.12 771.703 949.055 771.644 C 952.265 771.442 953.423 769.654 955.494 767.575 L 955.969 769.442 C 957.371 774.776 962.878 783.329 961.987 788.472 L 960.58 790.09 C 958.076 789.788 956.994 788.955 955.38 786.975 C 951.624 782.369 948.645 776.365 945.628 771.223 z"/>
<path transform="translate(0,0)" fill="rgb(85,66,78)" d="M 377.101 284.389 C 383.845 283.968 390.686 284.053 397.446 283.929 C 392.215 287.042 387.5 290.908 382.701 294.635 C 378.415 297.588 374.289 299.53 369.503 301.449 C 370.226 297.519 370.18 292.015 371.772 288.392 C 373.155 285.244 374.003 285.396 377.101 284.389 z"/>
<path transform="translate(0,0)" fill="rgb(85,66,78)" d="M 548.395 718.798 C 556.53 722.014 569.939 740.731 575.004 748.457 C 571.195 746.409 567.486 744.105 563.745 741.931 C 553.6 735.629 542.664 731.773 531.336 728.214 C 536.885 724.875 542.708 721.901 548.395 718.798 z"/>
<path transform="translate(0,0)" fill="rgb(85,66,78)" d="M 617.015 686.957 C 630.776 697.267 640.924 712.249 648.649 727.414 L 639.459 720.708 C 626.648 709.736 615.656 703.345 599.929 697.354 C 605.906 694.3 611.417 690.64 617.015 686.957 z"/>
<path transform="translate(0,0)" fill="rgb(85,66,78)" d="M 646.923 760.837 C 650.968 762.138 655.961 767.924 658.901 771.198 C 665.31 778.334 681.87 802.131 681.309 811.248 L 678.931 809.369 C 664.569 795.238 652.186 779.667 637.225 765.893 L 646.923 760.837 z"/>
<path transform="translate(0,0)" fill="rgb(233,221,202)" d="M 531.648 137.506 C 529.018 127.093 520.398 101.515 527.588 92.4789 C 529.485 90.0952 532.264 90.4657 535.003 90.2044 C 534.096 92.8945 532.864 94.5179 534.166 97.2365 C 540.371 110.191 554.698 118.033 560.083 131.741 C 550.471 132.971 541.021 135.09 531.648 137.506 z"/>
<path transform="translate(0,0)" fill="rgb(85,66,78)" d="M 793.094 673.178 C 801.204 674.163 808.09 677.139 814.951 681.42 C 828.742 690.025 865.343 721.592 869.028 737.199 L 867.231 736.239 C 838.591 711.399 818.494 696.863 784.881 679.05 L 793.094 673.178 z"/>
<path transform="translate(0,0)" fill="rgb(85,66,78)" d="M 1178.96 980.201 C 1180.97 982.301 1179.98 993.655 1179.93 996.918 C 1162.94 1005.27 1149.99 1008.01 1131.01 1008.08 L 1130.12 1007.3 C 1128.65 1001.6 1131.19 993.971 1132.61 988.352 C 1149.48 988.189 1163.57 987.863 1178.96 980.201 z"/>
<path transform="translate(0,0)" fill="rgb(85,66,78)" d="M 1181.22 1066.03 C 1181.28 1066.06 1181.35 1066.07 1181.39 1066.11 C 1183.89 1068.7 1184.33 1079.26 1184.9 1083.23 C 1167.64 1094.13 1154.45 1099.53 1134.06 1101.35 C 1130.54 1097.57 1130.68 1086.75 1130.1 1081.59 C 1148.81 1080.19 1164.98 1075.56 1181.22 1066.03 z"/>
<path transform="translate(0,0)" fill="rgb(85,66,78)" d="M 1205.47 1158.72 C 1209.54 1165.11 1213.02 1172.92 1215.27 1180.15 C 1198.15 1192.26 1185.85 1198.6 1164.76 1200.39 L 1162.5 1199.49 C 1159.15 1194.99 1157.47 1189.88 1155.5 1184.67 C 1176.16 1182.19 1191.64 1174.36 1205.47 1158.72 z"/>
<path transform="translate(0,0)" fill="rgb(254,254,252)" d="M 342.409 280.69 C 351.216 289.006 344.44 298.368 363.783 305.877 C 364.941 316.129 365.62 326.468 366.492 336.75 C 364.236 339.262 361.576 341.47 359.069 343.732 L 349.092 351.853 C 339.921 327.157 338.677 306.747 342.409 280.69 z"/>
<path transform="translate(0,0)" fill="url(#Gradient1)" d="M 535.003 90.2044 L 536.675 90.9219 C 541.306 92.867 546.251 94.0012 550.941 95.8257 C 570.511 103.439 585.622 114.347 599.361 130.205 C 586.371 130.133 572.983 130.083 560.083 131.741 C 554.698 118.033 540.371 110.191 534.166 97.2365 C 532.864 94.5179 534.096 92.8945 535.003 90.2044 z"/>
<path transform="translate(0,0)" fill="rgb(85,66,78)" d="M 362.062 255.031 C 372.749 256.949 386.831 262.536 393.827 271.432 C 395.908 274.078 396.379 276.231 395.941 279.596 C 394.128 280.314 394.854 280.238 392.961 280.19 C 387.736 280.06 382.494 279.688 377.296 280.522 C 373.474 281.136 369.813 282.072 367.668 285.531 C 367.328 286.08 367.019 286.648 366.694 287.206 L 364.37 301.436 C 353.53 295.798 349.005 282.739 343.818 272.27 C 348.763 264.33 354.324 259.954 362.062 255.031 z"/>
<path transform="translate(0,0)" fill="rgb(234,182,118)" d="M 680.437 878.936 C 681.542 878.914 680.742 878.881 682.772 879.544 C 681.943 883.118 666.556 893.875 662.965 898.935 C 656.756 907.684 656.066 916.939 657.99 927.196 L 628.71 916.46 L 610.967 909.357 C 632.534 896.335 656.576 886.812 680.437 878.936 z"/>
<path transform="translate(0,0)" fill="rgb(246,207,145)" d="M 1183.59 916.759 C 1182.09 936.74 1180.17 956.644 1179.61 976.683 C 1165.19 982.665 1151.07 984.775 1135.57 985.839 C 1135.06 982.206 1143.83 974.453 1146.41 971.752 C 1161.79 955.633 1173.36 936.415 1183.59 916.759 z"/>
<path transform="translate(0,0)" fill="rgb(85,66,78)" d="M 1248.98 1222.77 C 1255.05 1227.97 1261.89 1232.51 1268.35 1237.23 C 1256.25 1251.66 1245.98 1268.48 1226.21 1272.96 C 1218.84 1269.5 1212.33 1264.28 1206.3 1258.88 C 1223.65 1249.48 1238.6 1240.09 1248.98 1222.77 z"/>
<path transform="translate(0,0)" fill="rgb(85,66,78)" d="M 717.766 721.972 A 58.3404 58.3404 0 0 1 719.321 722.438 C 747.229 731.339 778.031 774.855 791.255 800.497 L 779.909 789.4 C 771.18 782.459 763.136 774.603 754.399 767.631 C 737.152 753.87 718.619 742.752 699.043 732.675 C 705.175 728.792 711.2 725.079 717.766 721.972 z"/>
<path transform="translate(0,0)" fill="rgb(85,66,78)" d="M 1419.33 1217.29 C 1433 1224.86 1445.77 1233.5 1450.74 1249.32 C 1452.39 1254.6 1452.58 1260.16 1449.96 1265.18 C 1445.51 1273.69 1428.08 1279.57 1419.3 1282.57 L 1419.18 1280.64 L 1421.36 1279.75 C 1424.44 1271.83 1420.94 1258.98 1417.52 1251.51 C 1412.14 1239.75 1402.93 1235.14 1391.44 1230.9 C 1400.7 1226.3 1409.91 1221.54 1419.33 1217.29 z"/>
<path transform="translate(0,0)" fill="rgb(85,66,78)" d="M 1351.18 1246.35 L 1352.18 1246.41 C 1354.34 1248.83 1355.63 1250.97 1356.49 1254.13 C 1360.89 1270.56 1355.93 1288.34 1347.87 1302.74 C 1334.87 1303.68 1322.22 1304.55 1309.21 1303.12 C 1307.24 1303 1306.14 1303.27 1304.49 1302.11 C 1309.66 1297.21 1315.46 1293.06 1319.64 1287.21 C 1328 1275.51 1327.57 1264.41 1325.15 1251.02 C 1333.85 1249.66 1342.52 1247.94 1351.18 1246.35 z"/>
<path transform="translate(0,0)" fill="rgb(85,66,78)" d="M 797.945 191.269 C 810.516 197.901 821.314 207.102 831.456 216.96 C 815.407 235.203 798.648 249.521 778.606 263.141 C 771.632 267.792 764.404 271.931 757.132 276.089 C 776.06 249.689 793.765 224.249 797.945 191.269 z"/>
<path transform="translate(0,0)" fill="rgb(85,66,78)" d="M 1469.59 1167.31 C 1475.76 1166.75 1482.48 1167.73 1488.49 1169.2 C 1508.85 1174.17 1520.59 1187.52 1531.15 1204.68 C 1525.38 1211.74 1519.41 1218.34 1512.57 1224.39 C 1510.54 1225.94 1510.02 1226.94 1507.35 1226.88 C 1502.35 1220.82 1501.51 1212.03 1497.05 1205.56 C 1487.15 1191.21 1469.56 1189.31 1453.87 1186.66 C 1458.97 1180.11 1464.33 1173.74 1469.59 1167.31 z"/>
<path transform="translate(0,0)" fill="rgb(85,66,78)" d="M 813.9 1243.38 C 851.064 1227.18 895.296 1225.73 934.888 1232.4 C 938.038 1240.98 941.158 1249.52 944.908 1257.87 C 903.444 1245.39 861.858 1245.2 819.044 1248.45 C 816.847 1247.6 817.705 1247.84 815.509 1247.33 L 811.203 1246.34 L 813.9 1243.38 z"/>
<path transform="translate(0,0)" fill="rgb(85,66,78)" d="M 947.931 337.805 A 1261.57 1261.57 0 0 1 974.603 358.937 C 950.732 381.076 919.782 397.029 888.217 404.571 C 880.145 407.085 871.875 408.802 863.629 410.633 C 873.164 403.595 883.78 397.764 893.559 390.999 C 915.069 376.12 931.837 358.221 947.931 337.805 z"/>
<path transform="translate(0,0)" fill="rgb(254,254,252)" d="M 686.246 1116.24 C 681.098 1096.53 680.54 1071.87 685.226 1051.98 C 698.606 995.224 745.951 951.821 793.79 922.245 L 794.903 924.575 C 793.114 929.03 774.466 943.163 769.727 947.928 C 756.317 961.41 716.924 1005.6 710.843 1022.64 C 707.91 1023.64 705.816 1023.92 703.703 1026.24 L 704.192 1027.91 C 703.687 1038.63 697.646 1049.9 695.132 1060.43 C 692.604 1071.02 690.103 1110.71 686.246 1116.24 z"/>
<path transform="translate(0,0)" fill="rgb(234,182,118)" d="M 694.685 886.172 C 700.651 885.716 705.822 886.094 711.45 888.281 C 717.119 890.484 721.675 894.581 723.865 900.332 C 726.389 906.958 725.199 914.128 722.123 920.349 C 716.992 930.724 708.101 937.669 697.208 941.081 C 690.651 941.175 684.631 940.714 678.48 938.114 C 672.984 935.792 668.514 931.805 666.367 926.16 C 663.975 919.871 665.01 912.633 667.8 906.652 C 673.1 895.291 683.393 889.965 694.685 886.172 z"/>
<path transform="translate(0,0)" fill="rgb(85,66,78)" d="M 1048.26 419.015 C 1057 426.095 1064.17 435.752 1071.3 444.413 C 1041.03 473.33 1009.35 488.233 971.247 504.456 C 965.151 507.02 958.806 508.914 952.514 510.928 C 977.089 492.031 1001.49 471.457 1022.74 448.841 C 1031.65 439.354 1038.61 427.717 1048.26 419.015 z"/>
<path transform="translate(0,0)" fill="rgb(143,117,114)" d="M 463.191 209.585 C 459.722 229.648 453.702 247.924 441.986 264.752 L 438.904 266.321 C 427.321 266.38 411.184 276.935 400.764 282.156 C 400.126 279.027 399.261 275.887 397.804 273.03 C 391.446 260.56 378.446 255.982 365.933 252.316 C 399.047 237.454 436.013 235.586 463.191 209.585 z"/>
<path transform="translate(0,0)" fill="rgb(85,66,78)" d="M 869.58 256.098 C 880.808 265.998 889.582 280.039 899.595 291.311 C 891.251 296.14 883.387 302.094 875.282 307.35 C 856.619 319.45 837.331 329.244 816.221 336.295 A 951.708 951.708 0 0 1 791.097 342.878 A 374.877 374.877 0 0 0 869.58 256.098 z"/>
<path transform="translate(0,0)" fill="rgb(246,207,145)" d="M 1388.34 1233.42 C 1396.86 1236.09 1403.76 1238.73 1409.71 1245.7 C 1417.69 1255.05 1420.27 1268.66 1419.18 1280.64 L 1419.3 1282.57 C 1411.45 1284.65 1403.57 1288.12 1395.77 1290.62 C 1381.42 1295.22 1367.04 1298.71 1352.27 1301.71 A 116.043 116.043 0 0 0 1353.39 1299.63 C 1363.32 1280.5 1363.47 1265.74 1357.03 1245.5 C 1367.65 1241.98 1377.98 1237.61 1388.34 1233.42 z"/>
<path transform="translate(0,0)" fill="rgb(246,207,145)" d="M 1216 1181.9 C 1221.01 1186.76 1225.22 1195.34 1229.24 1201.25 C 1234.2 1208.56 1239.55 1215.24 1245.3 1221.94 C 1243.99 1224.34 1242.65 1226.73 1241.04 1228.95 C 1235.4 1236.72 1214.02 1254.75 1204.65 1255.36 C 1202.98 1255.47 1201.49 1253.74 1200.22 1252.76 C 1184.78 1238.44 1174.36 1221.51 1164.22 1203.3 A 87.0615 87.0615 0 0 0 1168.26 1203.39 C 1186.95 1203.35 1203.01 1194.8 1216 1181.9 z"/>
<path transform="translate(0,0)" fill="rgb(246,207,145)" d="M 1178.17 1002.01 C 1179.74 1004.23 1181.18 1055.17 1181.6 1061.51 C 1165.16 1070.49 1151.62 1075.77 1133.01 1078.31 L 1131.35 1077.02 C 1127.51 1057.74 1129.34 1032.32 1129.92 1012.58 C 1147.15 1011.59 1162.38 1009.23 1178.17 1002.01 z"/>
<path transform="translate(0,0)" fill="rgb(246,207,145)" d="M 1451.86 1189.75 C 1462.47 1193.4 1473.54 1192.89 1483.71 1198.6 C 1496.14 1205.57 1500.39 1217.25 1504 1230.19 C 1492.83 1240.21 1480.51 1248.68 1468.03 1256.97 C 1463.81 1259.6 1459.38 1261.99 1455.07 1264.48 C 1455.34 1259.02 1455.4 1253.72 1454.1 1248.37 C 1449.9 1231.08 1436.41 1223.42 1422.22 1214.99 C 1432.67 1207.28 1442.19 1198.4 1451.86 1189.75 z"/>
<path transform="translate(0,0)" fill="rgb(85,66,78)" d="M 1172.5 651.776 L 1174.85 652.061 C 1181.49 660.794 1184.73 682.793 1186.65 693.686 C 1169.75 694.054 1152.57 696.138 1135.73 697.677 A 4401.49 4401.49 0 0 1 1054.24 704.759 C 1048.42 705.228 1042.39 704.999 1036.54 705.066 C 1081.61 686.911 1128.3 671.896 1172.5 651.776 z"/>
<path transform="translate(0,0)" fill="rgb(233,221,202)" d="M 622.465 173.259 C 626.991 166.48 631.538 159.685 635.238 152.41 C 642.613 137.911 653.371 103.33 670.99 99.4338 C 674.092 100.158 674.414 100.492 676.68 102.769 C 678.474 107.17 676.074 113.271 676.8 118.064 C 679.04 132.834 688.177 153.696 681.932 168.493 C 676.876 180.472 660.059 186.548 651.827 196.969 C 651.487 197.399 651.135 197.819 650.792 198.247 C 650.587 198.505 650.386 198.766 650.184 199.025 C 649.02 198.082 647.779 197.551 646.442 196.893 C 641.088 187.698 631.314 179.069 622.465 173.259 z"/>
<path transform="translate(0,0)" fill="rgb(246,207,145)" d="M 1270.8 1238.81 C 1286.98 1248.12 1302.2 1250.63 1320.65 1252.08 C 1322.28 1258.81 1323.56 1264.97 1321.98 1271.88 C 1318.83 1285.63 1307.76 1294.7 1296.24 1301.58 L 1284.03 1298.85 C 1264.19 1294.66 1245.76 1285.59 1228.26 1275.62 C 1248.08 1269.02 1259.66 1255.86 1270.8 1238.81 z"/>
<path transform="translate(0,0)" fill="rgb(254,254,252)" d="M 994.108 1626.74 C 1033.34 1605.72 1071.76 1584.15 1109.59 1560.68 C 1112.88 1579.2 1113.82 1598 1114.41 1616.76 C 1091.83 1618.35 1069.04 1620.72 1046.59 1623.63 C 1033.14 1625.37 1019.51 1628.1 1005.99 1628.88 C 1002.97 1629.05 997.229 1629.71 994.811 1627.5 C 994.556 1627.26 994.343 1626.99 994.108 1626.74 z"/>
<path transform="translate(0,0)" fill="rgb(246,207,145)" d="M 1184.51 1086.8 C 1185.18 1087.47 1185.4 1087.6 1185.86 1088.58 C 1188.46 1094.09 1189.63 1105.79 1191.27 1112.39 A 382.984 382.984 0 0 0 1203.96 1154.56 C 1191.1 1171.13 1174.03 1178.36 1153.92 1182.05 C 1142.76 1158.98 1137.9 1130.24 1133.49 1105.12 C 1152.96 1102.96 1168.71 1098.98 1184.51 1086.8 z"/>
<path transform="translate(0,0)" fill="rgb(254,254,252)" d="M 986.016 1105.99 C 986.061 1106.04 986.124 1106.08 986.151 1106.14 C 987.66 1109.54 981.695 1138.19 980.701 1144.57 A 4188.9 4188.9 0 0 0 963.516 1277.21 C 959.483 1270.39 956.018 1263.38 952.567 1256.25 C 943.779 1234.91 930.092 1194.79 932.273 1171.25 C 934.495 1147.26 968.199 1120.22 986.016 1105.99 z"/>
<path transform="translate(0,0)" fill="rgb(246,207,145)" d="M 916.054 1596.14 L 916.3 1596.38 C 917.894 1600.06 912.156 1625.07 911.225 1630.24 C 906.691 1634.86 903.562 1639.99 902.466 1646.46 C 901.419 1652.64 903.398 1659.09 907.061 1664.09 C 911.583 1670.26 918.294 1674.56 925.974 1675.34 C 934.611 1676.22 943.306 1672.63 949.787 1667.07 C 967.423 1651.95 967.152 1628.76 968.896 1607.56 C 979.076 1621.95 984.138 1636.6 981.877 1654.45 C 978.116 1671.09 971.513 1685.82 956.54 1695.46 C 944.211 1703.4 928.039 1706.25 913.733 1702.91 C 902.511 1700.3 892.661 1693.78 886.834 1683.72 C 878.663 1669.62 878.067 1649.89 882.361 1634.44 C 887.545 1615.78 900.063 1605.36 916.054 1596.14 z"/>
<path transform="translate(0,0)" fill="rgb(85,66,78)" d="M 807.546 1116.43 C 849.528 1114.39 893.376 1132.95 931.246 1149.43 C 925.655 1161.24 925.036 1170.87 925.075 1183.72 C 906.319 1172.86 886.589 1164.91 866.363 1157.3 C 811.177 1139.11 773.039 1134.24 715.368 1138.25 C 744.803 1123.48 774.875 1117.89 807.546 1116.43 z"/>
<path transform="translate(0,0)" fill="rgb(254,254,252)" d="M 938.639 1441 C 939.094 1441.36 939.138 1442.05 939.349 1442.59 C 930.663 1489.71 925.701 1537.21 918.386 1584.51 C 918.166 1585.93 917.732 1586.82 916.895 1587.98 C 914.937 1589.08 914.169 1589.68 911.872 1589.74 C 904.28 1580.72 898.432 1568.5 892.124 1558.42 A 1094.3 1094.3 0 0 0 856.575 1506.83 C 889.045 1492.14 913.319 1465.27 938.639 1441 z"/>
<path transform="translate(0,0)" fill="rgb(85,66,78)" d="M 1118.19 513.894 C 1124.22 517.435 1138.14 549.414 1141.52 557.172 C 1128.36 562.156 1115.75 568.364 1102.46 573.096 C 1059.1 588.537 1010.78 599.983 964.889 604.269 C 957.144 605.231 949.42 605.252 941.632 605.03 C 1004 580.116 1062.79 552.279 1118.19 513.894 z"/>
<path transform="translate(0,0)" fill="rgb(85,66,78)" d="M 1202.07 805.425 L 1203.28 806.21 C 1206.55 816.373 1201.93 850.462 1199.4 861.209 C 1153.29 838.543 1066.64 835.024 1015.93 839.831 C 1007.27 840.161 998.631 840.876 989.964 841.17 C 1035.24 821.855 1095.7 810.892 1144.76 807.468 C 1163.87 806.134 1182.96 806.36 1202.07 805.425 z"/>
<path transform="translate(0,0)" fill="rgb(254,254,252)" d="M 1536.21 1097.34 C 1546.13 1097.52 1558.82 1099.98 1566.79 1106.14 C 1572.55 1110.59 1575.51 1117.1 1576.1 1124.27 C 1578.4 1151.69 1550.79 1182.14 1533.98 1201.34 C 1531.55 1196.4 1528.98 1192.04 1525.75 1187.58 A 118.964 118.964 0 0 0 1521.04 1182.57 C 1507.83 1169.49 1490.03 1164.13 1471.85 1164.08 C 1480.9 1149.45 1485.09 1131.65 1495.44 1118.05 C 1505.58 1104.75 1520.21 1099.21 1536.21 1097.34 z"/>
<path transform="translate(0,0)" fill="rgb(254,254,252)" d="M 1001.95 1383.49 C 1024.58 1398.65 1043.71 1419.48 1059.95 1441.16 C 1047.32 1454.75 1039.09 1473.48 1029.79 1489.52 A 3622.05 3622.05 0 0 1 995.605 1546.44 C 987.954 1559.72 979.844 1572.77 971.87 1585.86 C 976.937 1562.16 980.122 1538.05 983.673 1514.08 L 1001.95 1383.49 z"/>
<path transform="translate(0,0)" fill="rgb(85,66,78)" d="M 795.482 1007.44 C 856.012 1003.9 963.916 1040.04 1013.98 1076.33 A 1116.65 1116.65 0 0 0 978.482 1102.61 A 863.793 863.793 0 0 0 955.758 1085.96 C 907.967 1053.92 847.848 1029.72 790.558 1023.28 C 767.071 1020.65 744.063 1021.38 720.513 1021.87 C 745.253 1014.12 769.53 1008.82 795.482 1007.44 z"/>
<path transform="translate(0,0)" fill="rgb(85,66,78)" d="M 965.764 917.389 C 1016.51 912.61 1111.74 923.179 1155.79 948.048 C 1147.06 960.587 1136.17 971.961 1126.11 983.443 A 3194.81 3194.81 0 0 0 1082.26 965.955 C 1033.56 944.332 968.11 934.851 915.145 933.058 C 901.134 932.584 887.132 933.351 873.119 933.365 C 903.747 924.591 933.98 919.351 965.764 917.389 z"/>
<path transform="translate(0,0)" fill="rgb(233,221,202)" d="M 1114.41 1616.76 C 1114.01 1648.07 1108.89 1677.15 1102.4 1707.69 A 2305.2 2305.2 0 0 1 988.492 1665.72 C 991.637 1652.91 990.55 1642.75 988.268 1629.98 L 994.108 1626.74 C 994.343 1626.99 994.556 1627.26 994.811 1627.5 C 997.229 1629.71 1002.97 1629.05 1005.99 1628.88 C 1019.51 1628.1 1033.14 1625.37 1046.59 1623.63 C 1069.04 1620.72 1091.83 1618.35 1114.41 1616.76 z"/>
<path transform="translate(0,0)" fill="rgb(234,182,118)" d="M 1038.9 1069.13 L 1039.37 1069.77 C 1037.76 1080.7 1034.36 1091.54 1032.67 1102.6 L 1007.68 1276.04 C 1006.48 1284.47 1002.01 1329.69 999.108 1333.19 L 997.007 1332.99 C 993.002 1329.78 990.685 1324.87 988.095 1320.51 A 751.8 751.8 0 0 1 970.241 1290.1 C 973.225 1265.51 977.066 1240.99 980.229 1216.42 C 985.331 1176.78 990.012 1136.92 997.487 1097.64 A 703.365 703.365 0 0 0 1038.9 1069.13 z"/>
<path transform="translate(0,0)" fill="rgb(254,254,252)" d="M 482.201 899.498 C 478.991 896.504 475.749 893.57 473.533 889.726 C 468.939 881.756 467.705 873.104 470.257 864.251 C 474.702 848.835 487.521 842.03 500.699 835.07 C 515.187 838.123 530.093 839.613 544.416 843.284 C 565.221 848.616 622.92 870.745 638.295 886.726 C 604.811 900.819 587.219 920.117 547.437 922.064 C 543.071 912.978 538.756 899.604 541.29 889.531 C 542.655 884.102 545.555 879.075 545.932 873.442 C 543.769 872.637 544.241 872.824 542.294 873.547 C 540.019 875.989 538.639 878.308 537.337 881.394 C 531.187 895.977 533.071 907.286 538.871 921.502 C 520.586 919.217 501.889 915.877 489.174 901.404 C 487.452 883.142 491.592 872.204 499.465 856.277 C 496.295 858.599 493.042 860.951 490.498 863.978 C 481.758 874.377 480.926 886.599 482.201 899.498 z"/>
<path transform="translate(0,0)" fill="rgb(246,207,145)" d="M 985.044 1373.51 C 988.281 1374.9 991.809 1375.9 995.141 1377.07 C 989.067 1408.18 985.597 1440.17 981.095 1471.56 A 8094.91 8094.91 0 0 1 963.447 1585.22 C 960.847 1602.04 960.399 1619.47 956.802 1636.07 C 954.436 1646.99 950.104 1657.3 940.151 1663.36 C 934 1667.11 928.79 1667.77 921.901 1666.04 C 919.096 1664.12 916.477 1662.18 914.415 1659.44 C 911.695 1655.81 910.506 1652.05 910.963 1647.52 C 911.661 1640.61 917.117 1634.1 919.552 1627.59 C 921.085 1623.49 921.462 1618.79 922.165 1614.48 A 4047.45 4047.45 0 0 0 938.584 1498.98 C 941.653 1476.5 945.382 1454.17 948.151 1431.64 C 953.619 1423.86 960.35 1416.98 965.955 1409.3 C 973.699 1398.69 979.435 1385.36 985.044 1373.51 z"/>
<path transform="translate(0,0)" fill="rgb(233,221,202)" d="M 985.839 1672.06 C 998.83 1675.78 1011.36 1680.93 1024.1 1685.42 C 1049.64 1694.41 1075.25 1703.48 1100.92 1712.06 C 1091.6 1744.11 1078.67 1771.27 1060.11 1799.08 C 1054.93 1806.27 1049.47 1813.18 1043.93 1820.1 C 1036.98 1808.54 1028.85 1797.44 1021.45 1786.14 A 4363.97 4363.97 0 0 1 965.425 1699.05 C 974.175 1690.79 980.63 1682.95 985.839 1672.06 z"/>
<path transform="translate(0,0)" fill="rgb(254,254,252)" d="M 1061.69 1444.78 C 1085.72 1471.37 1100.2 1518.15 1108.79 1552.87 C 1076.46 1576.18 1039.94 1594.4 1005.47 1614.32 L 986.062 1625.17 C 981.771 1615.05 978.225 1607.15 969.863 1599.63 C 975.19 1582.66 990.342 1566.56 999.673 1551.2 C 1020.97 1516.16 1042.19 1480.85 1061.69 1444.78 z"/>
<path transform="translate(0,0)" fill="rgb(254,254,252)" d="M 438.199 772.412 C 460.734 778.298 498.559 790.171 511.18 811.375 C 512.473 813.548 512.942 815.534 513.31 817.997 C 513.396 818.572 513.493 819.146 513.574 819.722 C 513.63 820.117 513.671 820.514 513.719 820.91 C 496.255 829.822 471.917 838.297 464.209 857.793 C 459.302 870.204 461.952 881.929 467.272 893.565 C 454.347 895.446 442.195 896.272 429.282 893.865 C 424.33 880.012 421.279 867.809 426.224 853.239 C 427.444 849.643 429.503 845.919 429.28 842.067 L 427.823 841.36 C 423.606 843.094 421.517 846.377 419.701 850.426 C 413.493 864.263 417.427 879.354 422.314 892.836 C 408.249 888.966 393.625 885.011 380.904 877.711 C 370.923 851.56 386.219 841.286 384.616 832.367 L 382.581 832.15 C 379.585 833.391 377.67 835.21 375.908 837.904 C 369.06 848.371 370.601 862.96 373.075 874.482 C 366.104 869.836 359.322 864.398 355.473 856.764 C 351.95 849.774 351.732 841.793 354.318 834.461 C 363.593 808.166 413.795 784.814 438.199 772.412 z"/>
<path transform="translate(0,0)" fill="rgb(254,254,252)" d="M 761.513 1490.44 C 766.719 1493.95 770.504 1498.57 776.277 1501.82 C 800.924 1515.71 824.728 1515.95 851.339 1508.58 C 867.954 1537.43 888.849 1563.77 905.447 1592.79 C 892.173 1600.25 885.597 1608.19 878.623 1621.38 C 854.77 1613.28 831.693 1603.19 807.979 1594.75 C 781.181 1585.2 753.715 1577.29 727.141 1567.15 C 734.363 1540.96 746.315 1512.98 761.513 1490.44 z"/>
<path transform="translate(0,0)" fill="rgb(254,254,252)" d="M 725.551 1571.72 C 747.021 1581.25 770.31 1588.15 792.547 1595.78 A 4316.01 4316.01 0 0 1 875.522 1626.05 C 871.638 1638.9 870.821 1650.75 871.388 1664.11 C 856.722 1669.97 841.25 1674.51 826.275 1679.58 C 805.165 1686.68 783.574 1692.36 762.379 1699.22 C 747.54 1704.02 733.046 1709.83 718.345 1715.03 C 709.641 1671.2 714.722 1614.76 725.551 1571.72 z"/>
<path transform="translate(0,0)" fill="rgb(233,221,202)" d="M 960.167 1702.95 C 961.595 1703.76 1032.12 1813.05 1040.29 1825.1 C 1018.69 1846.14 997.678 1865.2 971.909 1881.15 C 953.25 1891.83 933.321 1898.33 912.523 1903.36 C 919.617 1859.15 922.213 1814.07 925.727 1769.45 C 927.202 1750.72 929.623 1732.09 931.205 1713.37 C 941.795 1710.98 950.645 1708.19 960.167 1702.95 z"/>
<path transform="translate(0,0)" fill="rgb(233,221,202)" d="M 871.28 1670.04 C 873.215 1670.65 874.724 1676.98 875.527 1679.09 C 879.146 1688.63 884.602 1695.13 892.193 1701.69 C 882.089 1716.44 869.964 1730.13 858.739 1744.05 C 844.135 1762.16 830.192 1780.81 815.478 1798.83 C 801.766 1815.62 787.226 1831.75 774.295 1849.17 C 768.892 1842.72 764.354 1835.78 759.781 1828.73 A 336.351 336.351 0 0 1 718.174 1718.68 C 733.535 1714.8 748.357 1708.48 763.571 1703.96 A 2625.37 2625.37 0 0 0 833.598 1682.64 C 846.183 1678.66 859.061 1675.06 871.28 1670.04 z"/>
<path transform="translate(0,0)" fill="rgb(233,221,202)" d="M 896.988 1705.11 C 905.326 1710.57 914.595 1712.28 924.312 1713.29 C 919.426 1776.95 915.85 1841.31 907.714 1904.62 C 879.536 1908.27 842.243 1910.63 817.978 1893.3 C 803.296 1881.75 789.131 1869.09 777.274 1854.6 C 789.543 1835.89 805.752 1818.86 819.984 1801.56 C 846.044 1769.9 872.232 1737.79 896.988 1705.11 z"/>
<path transform="translate(0,0)" fill="rgb(246,207,145)" d="M 619.639 683.584 C 622.658 672.653 624.521 661.487 626.927 650.414 C 632.89 622.967 639.54 592.214 647.874 565.609 C 661.315 585.75 673.066 606.95 685.128 627.93 C 700.42 654.529 715.479 680.277 727.701 708.502 C 678.898 738.715 628.513 763.737 577.154 789.15 C 556.109 799.563 535.119 811.338 513.719 820.91 C 513.671 820.514 513.63 820.117 513.574 819.722 C 513.493 819.146 513.396 818.572 513.31 817.997 C 512.942 815.534 512.473 813.548 511.18 811.375 C 498.559 790.171 460.734 778.298 438.199 772.412 C 461.197 760.295 502.959 737.209 526.757 730.92 C 546.121 735.515 562.424 742.698 576.893 756.661 C 582.003 761.592 586.691 767.188 592.207 771.647 C 581.47 751.288 569.339 732.712 551.032 718.435 C 565.186 711.177 580.103 704.774 594.996 699.2 C 614.372 705.586 628.488 713.918 642.856 728.482 C 647.704 733.397 652.399 739.02 657.761 743.343 C 650.872 719.97 638.237 699.532 619.639 683.584 z"/>
<path transform="translate(0,0)" fill="rgb(246,207,145)" d="M 1013.2 1369.24 C 1072.8 1398.24 1121 1445.46 1142.9 1508.9 A 353.416 353.416 0 0 1 1126.41 1774.55 C 1093.86 1840.93 1043.13 1893.82 971.94 1917.84 A 174.13 174.13 0 0 1 842.726 1910.74 C 903.329 1917.81 956.735 1906.44 1005.24 1868.07 C 1073.45 1814.11 1110.59 1741.65 1120.42 1655.74 C 1129.71 1574.6 1110.22 1489.7 1058.51 1425.49 C 1044.81 1408.47 1029.18 1394.03 1011.4 1381.36 C 1011.58 1377.07 1011.96 1373.36 1013.2 1369.24 z"/>
<path transform="translate(0,0)" fill="rgb(254,254,252)" d="M 965.305 1297.25 C 973.062 1310.05 983.426 1324.12 988.439 1338.2 C 988.56 1338.54 988.689 1338.87 988.814 1339.21 C 983.143 1360.26 973.482 1381.78 961.553 1400.03 C 942.701 1428.88 896.774 1474.85 867.001 1492.19 C 859.934 1496.3 852.533 1499.58 844.616 1501.68 L 843.744 1500.53 C 835.502 1489.48 832.738 1476.79 834.662 1463.2 C 835.48 1457.42 841.088 1445.82 839.707 1441.06 C 835.64 1442.37 832.178 1447.04 830.326 1450.81 C 824.902 1461.83 824.875 1476.65 829.107 1487.93 C 831.26 1493.67 834.569 1498.43 838.221 1503.28 C 827.698 1505.89 818.852 1506.62 808.056 1505.9 C 798.384 1492.39 790.618 1478.47 793.365 1461.15 C 794.299 1455.27 799.202 1448.18 798.229 1442.46 C 796.153 1442.31 796.945 1441.99 795.336 1443.4 C 789.035 1448.91 786.31 1460.14 786.112 1468.17 C 785.803 1480.68 790.36 1494.2 798.666 1503.62 C 786.274 1499.9 773.239 1495.5 766.728 1483.29 C 761.229 1472.97 760.23 1456.38 763.737 1445.34 C 774.509 1411.4 825.549 1404.92 839.842 1361.39 C 841.933 1355.02 843.602 1348.81 840.655 1342.42 C 835.176 1330.54 813.516 1314.5 803.856 1304.24 C 807.521 1302.8 844.596 1309.55 854.097 1309.89 C 893.246 1311.28 927.173 1306.36 965.305 1297.25 z"/>
<path transform="translate(0,0)" fill="rgb(143,117,114)" d="M 827.125 1339.95 C 829.636 1341.31 832.241 1344.29 833.052 1347.04 C 834.343 1351.43 832.319 1357.32 830.787 1361.42 C 817.116 1398 770.935 1404.12 756.561 1438.87 C 750.457 1453.63 753.031 1468.11 758.928 1482.27 C 734.421 1508.24 714.139 1575.46 709.455 1610.57 C 697.983 1696.54 714.829 1787.05 768.676 1856.72 C 798.973 1895.92 840.944 1925.82 890.754 1931.88 C 947.122 1938.73 1003.18 1921.09 1047.61 1886.22 C 1114.76 1833.53 1155.7 1744.93 1165.52 1661.28 C 1174.66 1583.46 1158.27 1495.87 1108.86 1433.67 C 1086.12 1405.04 1028.77 1358.84 992.582 1354.71 A 436.947 436.947 0 0 0 996.293 1340.89 C 1016.17 1346.28 1034.95 1355.11 1052.91 1365.09 C 1092.21 1385.75 1125.41 1424.64 1147.37 1462.85 C 1189.48 1536.1 1194.72 1632.18 1172.7 1712.73 C 1148.91 1799.79 1099.8 1878.33 1019.57 1923.6 A 245.394 245.394 0 0 1 833.61 1945.5 C 769.223 1927.29 719.578 1881.05 687.611 1823.08 C 642.769 1741.76 637.347 1639.91 662.7 1551.56 C 687.662 1464.58 747.457 1384.21 827.125 1339.95 z"/>
<path transform="translate(0,0)" fill="rgb(246,207,145)" d="M 704.192 1027.91 C 729.169 1025.89 753.906 1023.78 778.973 1025.84 C 847.046 1031.41 921.849 1062.2 974.147 1106.25 C 959.406 1118.62 946.369 1130.53 934.683 1145.94 C 882.841 1125.02 834.745 1106.78 777.495 1115.37 C 761.165 1117.82 744.647 1121.9 729.407 1128.33 C 721.928 1131.48 713.359 1135.11 707.441 1140.79 L 707.168 1142.35 C 708.789 1142.94 740.51 1140.21 746.521 1140.27 C 763.269 1140.43 780.091 1141.11 796.67 1143.6 C 837.946 1149.82 889.742 1166.24 924.57 1189.34 C 926.952 1202.61 929.967 1215.5 933.998 1228.37 C 897.196 1222.54 861.462 1224.31 825.754 1235.31 C 814.311 1238.84 801.934 1243.33 792.288 1250.64 C 791.206 1251.45 790.357 1252.36 789.444 1253.36 L 790.067 1254.73 C 792.836 1254.98 794.231 1254.48 796.759 1253.51 C 801.435 1248.19 807.452 1245.83 813.9 1243.38 L 811.203 1246.34 L 815.509 1247.33 C 817.705 1247.84 816.847 1247.6 819.044 1248.45 L 823.322 1250.41 C 865.606 1247.85 905.662 1250.17 946.617 1261.8 A 1883.21 1883.21 0 0 0 965.305 1297.25 C 927.173 1306.36 893.246 1311.28 854.097 1309.89 C 844.596 1309.55 807.521 1302.8 803.856 1304.24 C 796.937 1298.86 790.364 1291.35 784.258 1285.02 C 742.566 1241.78 697.651 1175.86 686.246 1116.24 C 690.103 1110.71 692.604 1071.02 695.132 1060.43 C 697.646 1049.9 703.687 1038.63 704.192 1027.91 z"/>
<path transform="translate(0,0)" fill="rgb(63,51,64)" d="M 796.759 1253.51 C 801.435 1248.19 807.452 1245.83 813.9 1243.38 L 811.203 1246.34 L 815.509 1247.33 C 817.705 1247.84 816.847 1247.6 819.044 1248.45 L 823.322 1250.41 C 814.426 1251.26 805.597 1252.16 796.759 1253.51 z"/>
<path transform="translate(0,0)" fill="rgb(246,207,145)" d="M 965.742 847.563 C 977.366 848.522 997.642 844.007 1010.68 843.293 C 1063.64 840.394 1150.6 840.06 1198.15 864.993 C 1189.82 893.66 1174.03 919.622 1157.93 944.486 C 1080.13 908.557 949.462 902.173 869.035 931.476 A 202.188 202.188 0 0 0 860.019 935.019 L 859.637 936.408 C 863.298 938.651 896.254 935.866 903.66 935.92 A 533.895 533.895 0 0 1 966.683 940.48 C 1021.5 947.386 1071.95 964.77 1122.6 986.19 C 1105.88 1002.48 1089.41 1018.95 1071.29 1033.7 C 1054.02 1047.78 1035.58 1060.13 1017.89 1073.63 C 951.256 1029.07 839.705 992.403 760.274 1008.31 C 743.158 1011.73 727.439 1017.51 710.843 1022.64 C 716.924 1005.6 756.317 961.41 769.727 947.928 C 774.466 943.163 793.114 929.03 794.903 924.575 L 793.79 922.245 C 803.053 911.168 875.448 877.944 892.918 870.893 C 902.381 867.074 936.776 856.705 942.251 851.045 C 945.947 852.837 961.006 848.501 965.742 847.563 z"/>
<path transform="translate(0,0)" fill="rgb(254,254,252)" d="M 681.101 881.071 C 699.846 871.965 723.693 867.648 743.877 862.264 C 787.034 850.754 830.095 840.511 872.226 825.472 A 609.177 609.177 0 0 0 913.925 809.276 C 920.837 806.287 938.583 796.813 944.906 795.615 C 945.971 795.413 947.064 795.823 948.143 795.927 C 949.827 800.78 953.69 804.98 956.71 809.094 C 964.464 819.655 972.226 830.192 975.914 842.937 C 975.954 843.074 976.004 843.207 976.049 843.343 C 972.619 844.758 969.202 846.222 965.742 847.563 C 961.006 848.501 945.947 852.837 942.251 851.045 C 941.891 851.061 941.53 851.072 941.17 851.093 C 901.861 853.352 820.879 895.969 788.71 917.383 C 764.125 933.749 739.703 952.614 719.961 974.626 C 691.641 1006.2 671.511 1046.15 673.921 1089.37 C 679.149 1183.17 755.624 1273.91 822.795 1333.67 C 788.342 1352.06 759.563 1377.4 733.129 1405.91 C 729.465 1400.39 725.84 1394.34 723.661 1388.05 C 717.399 1369.99 722.793 1346.49 731.041 1329.81 C 717.246 1316.38 701.061 1305.29 686.456 1292.7 C 634.787 1248.16 576.573 1192.81 571.538 1120.58 C 566.713 1051.37 618.012 985.81 661.196 936.502 C 670.558 942.832 680.218 948.722 691.859 949.247 C 702.479 949.726 712.778 944.952 720.355 937.697 C 728.489 929.91 734.395 918.901 734.288 907.438 C 734.221 900.341 731.62 893.613 726.451 888.675 C 712.864 875.697 697.427 880.454 681.101 881.071 z"/>
<path transform="translate(0,0)" fill="rgb(254,254,252)" d="M 441.986 264.752 C 460.715 257.386 483.207 232.714 504.405 235.349 C 504.125 244.474 503.608 254.676 510.542 261.742 C 513.06 264.308 516.011 266.02 519.224 267.556 C 527.751 280.823 538.008 293.017 546.897 306.057 C 556.724 320.474 565.186 335.863 575.127 350.186 C 575.684 350.249 576.243 350.298 576.798 350.373 C 584.593 351.44 592.824 357.77 600.405 360.522 C 621.223 368.08 660.416 375.533 680.172 362.277 C 681.163 361.612 682.02 360.882 682.914 360.095 L 686.354 350.551 C 690.763 351.166 692.585 351.54 695.853 354.741 C 705.445 364.134 693.602 379.373 693.959 390.426 L 694.931 391.272 C 697.899 387.968 697.664 383.577 700.184 380.085 L 702.317 381.717 L 703.523 381.555 C 708.942 363.657 703.401 362.176 702.208 346.691 C 701.689 339.96 703.715 339.38 701.559 330.813 C 709.531 331.361 736.901 363.234 743.751 371.09 C 770.081 401.285 794.287 443.808 811.901 480.153 C 820.131 497.135 827.333 514.651 835.87 531.474 C 808.353 571.731 789.356 622.543 786.179 671.262 C 768.574 681.845 751.539 693.332 733.872 703.872 C 720.241 674.907 704.509 647.407 688.644 619.635 C 653.832 558.696 617.897 498.227 564.928 451.08 C 548.606 436.553 529.093 421.821 507.627 416.102 C 473.561 407.027 452.214 436.841 406.427 418.02 C 378.954 406.727 361.763 382.836 350.601 356.272 C 357.425 351.373 363.322 346.853 368.316 339.997 C 377.558 356.715 390.924 367.04 408.873 373.429 C 429.921 380.92 454.656 380.8 474.972 371.037 C 482.653 367.346 502.101 356.508 504.457 347.963 C 505.038 345.858 504.612 345.411 503.555 343.711 L 501.537 343.761 C 500.651 344.826 499.737 345.88 498.871 346.961 C 498.149 347.863 497.479 348.789 496.705 349.65 C 483.666 364.144 461.119 370.861 442.264 371.849 C 421.114 372.958 397.903 365.291 382.299 350.76 C 369.044 338.418 370.344 322.852 369.881 306.303 C 384.141 300.491 395.761 291.01 408.667 282.842 C 418.335 276.722 428.768 271.618 438.904 266.321 L 441.986 264.752 z"/>
<path transform="translate(0,0)" fill="rgb(0,0,0)" d="M 556.589 415.894 C 563.132 417.819 570.255 424.095 575.628 428.32 C 581.596 433.014 588.251 438.102 589.214 446.073 C 589.078 446.052 588.942 446.033 588.807 446.009 C 583.366 445.065 560.481 421.388 556.589 415.894 z"/>
<path transform="translate(0,0)" fill="rgb(0,0,0)" d="M 616.678 402.211 C 623.633 403.546 664.954 412.946 668.629 416.531 L 668.192 418.031 C 656.431 424.881 635.214 421.298 622.491 418.637 C 626.902 421.845 631.927 425.489 633.381 431.079 C 634.061 433.697 633.984 434.93 632.694 437.256 C 625.346 441.321 611.702 437.101 604.016 434.993 C 596.817 433.019 581.211 429.409 577.315 422.521 C 577.754 422.31 578.158 422.004 578.63 421.89 C 581.859 421.109 584.854 422.72 587.629 424.114 C 588.005 424.302 588.377 424.5 588.75 424.693 A 102.687 102.687 0 0 0 603.995 430.026 C 609.321 431.479 623.677 435.906 628.627 433.112 L 628.441 431.035 C 618.969 418.802 604.465 414.798 592.675 405.782 C 592.392 405.566 592.115 405.341 591.835 405.12 C 614.961 413.005 635.392 418.047 660.061 417.871 C 649.563 415.012 638.775 412.626 628.484 409.104 C 624.272 407.662 618.713 406.334 616.678 402.211 z"/>
<path transform="translate(0,0)" fill="rgb(0,0,0)" d="M 575.127 350.186 C 575.684 350.249 576.243 350.298 576.798 350.373 C 584.593 351.44 592.824 357.77 600.405 360.522 C 621.223 368.08 660.416 375.533 680.172 362.277 C 681.163 361.612 682.02 360.882 682.914 360.095 A 52.5183 52.5183 0 0 1 684.085 365.505 C 685.747 376.173 686.143 397.678 679.741 406.713 C 676.414 408.616 672.972 408.061 669.318 407.623 C 630.335 402.946 598.758 380.466 575.127 350.186 z"/>
<path transform="translate(0,0)" fill="rgb(85,66,78)" d="M 586.604 358.588 C 593.568 360.842 600.246 364.422 607.236 366.81 C 630.755 374.844 656.154 376.193 679.794 368.246 C 679.655 376.708 679.099 385.171 678.651 393.622 C 678.415 395.402 678.326 399.24 677.01 400.398 C 674.38 402.714 669.716 402.768 666.403 402.551 C 638.662 400.734 604.643 379.048 586.604 358.588 z"/>
<path transform="translate(0,0)" fill="rgb(254,254,252)" d="M 1048.31 1061.84 C 1074.32 1041.86 1100.54 1021.91 1122.26 997.16 C 1119 1077.63 1123.05 1159.23 1169.01 1228.71 A 183.915 183.915 0 0 0 1288.1 1307.01 C 1341.75 1317.47 1402.29 1302.34 1450 1276.97 C 1465.26 1268.85 1479.5 1258.87 1493.81 1249.22 C 1494.09 1257.7 1483.43 1281.43 1480.24 1290.85 C 1470.6 1319.36 1463.4 1348.87 1456.38 1378.12 C 1449.28 1407.72 1444.79 1437.63 1440.08 1467.67 C 1436.95 1487.6 1433.31 1507.49 1430.89 1527.53 C 1427.98 1551.59 1426.6 1576.16 1423.02 1600.09 C 1394.92 1603.42 1365.71 1603.12 1337.41 1604.49 C 1289.38 1606.82 1240.85 1609.94 1192.95 1614.15 A 323.393 323.393 0 0 0 1159.57 1468.94 C 1137.02 1422.52 1099.55 1380.61 1053.86 1356.03 C 1039.45 1348.28 1024.14 1342.68 1008.72 1337.36 C 1010.99 1299.89 1019.49 1260.84 1024.54 1223.55 L 1038.62 1119.07 C 1041.18 1100.41 1042.43 1079.77 1048.31 1061.84 z"/>
<path transform="translate(0,0)" fill="rgb(246,207,145)" d="M 681.191 104.337 C 700.858 125.218 721.183 157.213 719.953 187.105 C 719.58 196.178 716.556 203.663 712.359 211.579 L 714.176 212.813 C 718.899 211.098 721.101 206.287 723.125 201.897 C 730.213 186.52 726.913 170.768 721.07 155.502 L 720.732 154.635 C 742.756 161.292 777.409 174.424 794.63 189.846 C 791.771 218.631 776.642 245.151 758.714 267.399 C 752.75 274.8 745.504 281.697 740.18 289.529 C 774.487 272.604 809.599 250.139 833.456 219.806 C 845.384 230.113 857.261 240.876 866.242 253.953 A 352.046 352.046 0 0 1 802.072 329.143 C 793.888 336.476 784.667 342.831 776.75 350.393 C 822.749 339.299 864.285 323.827 901.44 293.438 C 915.872 307.031 929.343 321.58 943.834 335.161 C 918.837 375.131 885.147 391.865 847.715 416.446 C 898.841 408.647 937.33 394.679 978.212 361.934 C 997.71 376.891 1029.12 398.117 1044.3 416.191 C 1023.65 445.678 996.955 470.855 969.348 493.744 C 960.086 501.424 949.605 508.375 940.886 516.584 C 987.724 507.362 1038.15 478.349 1074.21 447.937 C 1090.06 466.757 1106.91 488.233 1117.62 510.43 C 1079.41 535.129 1040.06 558.906 998.736 578.07 A 978.727 978.727 0 0 1 958.169 595.954 C 947.936 600.072 937.062 603.504 927.273 608.576 C 940.237 608.398 953.291 608.435 966.213 607.288 C 1023.85 602.171 1090.63 584.505 1142.89 559.826 A 710.884 710.884 0 0 1 1174.16 646.984 C 1129.86 666.381 1084.08 682.264 1039.79 701.649 C 1035.21 703.656 1029.07 704.33 1025.2 707.477 C 1026.92 709.286 1028.53 709.295 1030.96 709.327 C 1051.83 709.598 1073.5 706.508 1094.35 704.778 A 5992.02 5992.02 0 0 0 1187.62 697.075 C 1195.35 731.475 1202.81 767.738 1203.61 803.091 C 1184.23 802.8 1164.9 802.403 1145.54 803.614 C 1090.14 807.082 1026.73 820.315 976.049 843.343 C 976.004 843.207 975.954 843.074 975.914 842.937 C 972.226 830.192 964.464 819.655 956.71 809.094 C 953.69 804.98 949.827 800.78 948.143 795.927 C 951.049 795.441 951.91 793.856 954.024 791.872 L 956.259 792.062 C 957.608 793.969 958.815 796.046 960.916 797.193 C 962.271 797.933 962.988 797.303 964.35 796.894 C 970.448 789.71 970.705 774.89 971.471 765.701 C 972.349 769.15 973.189 774.353 975.26 777.3 C 976.889 779.617 977.442 779.733 980.034 780.164 C 982.362 778.952 983.592 778.354 984.666 775.863 C 991.208 760.694 988.141 739.49 990.14 723.163 C 993.971 691.871 1002.45 660.773 1018.07 633.218 C 1023.55 623.558 1030.5 614.838 1035.75 605.088 L 1036.33 603.975 C 1034.27 605.352 1032.18 606.783 1030.32 608.414 C 1000.45 634.535 984.281 696.086 981.313 734.338 C 977.829 728.491 974.146 722.341 969.207 717.616 L 967.745 717.811 C 966.683 723.9 978.926 739.187 980.136 749.662 C 981.049 757.563 979.095 766.186 977.524 773.908 C 975.242 768.255 972.84 761.256 968.434 756.879 C 966.996 755.45 966.783 755.343 964.715 755.284 C 963.435 759.926 965.473 767.491 966.122 772.472 L 965.043 773.488 C 962.629 772.231 962.955 771.399 961.372 769.606 C 959.639 767.643 957.885 767.798 955.494 767.575 C 953.423 769.654 952.265 771.442 949.055 771.644 C 948.12 771.703 946.582 771.389 945.628 771.223 C 943.958 769.944 942.648 768.963 940.772 767.981 L 939.618 768.309 C 938.833 773.192 945.145 780.305 947.571 784.679 C 850.679 836.59 739.746 847.391 638.295 886.726 C 622.92 870.745 565.221 848.616 544.416 843.284 C 530.093 839.613 515.187 838.123 500.699 835.07 C 518.831 822.655 542.291 812.89 562.222 803.348 A 3627.58 3627.58 0 0 0 633.556 768.066 A 360.039 360.039 0 0 1 694.332 834.646 C 686.258 806.604 672.233 779.402 651.694 758.5 C 666.474 751.457 681.326 743.846 695.434 735.541 C 737.14 752.213 770.355 784.739 801.442 816.049 C 786.587 776.425 759.04 739.575 721.513 719.208 C 742.08 708.136 761.412 695.377 780.87 682.501 C 821.775 699.018 853.776 728.241 885.147 758.236 C 882.051 751.069 878.623 744.241 874.531 737.584 C 856.944 708.976 826.209 676.578 792.482 668.585 C 797.81 618.804 820.433 566.849 848.561 526.123 C 858.416 511.854 871.173 498.887 879.92 484.074 C 880.117 483.739 880.306 483.399 880.499 483.062 C 862.32 493.654 848.396 515.014 835.87 531.474 C 827.333 514.651 820.131 497.135 811.901 480.153 C 794.287 443.808 770.081 401.285 743.751 371.09 C 736.901 363.234 709.531 331.361 701.559 330.813 C 703.715 339.38 701.689 339.96 702.208 346.691 C 703.401 362.176 708.942 363.657 703.523 381.555 L 702.317 381.717 L 700.184 380.085 C 697.664 383.577 697.899 387.968 694.931 391.272 L 693.959 390.426 C 693.602 379.373 705.445 364.134 695.853 354.741 C 692.585 351.54 690.763 351.166 686.354 350.551 L 682.914 360.095 C 682.02 360.882 681.163 361.612 680.172 362.277 C 660.416 375.533 621.223 368.08 600.405 360.522 C 592.824 357.77 584.593 351.44 576.798 350.373 C 576.243 350.298 575.684 350.249 575.127 350.186 C 565.186 335.863 556.724 320.474 546.897 306.057 C 538.008 293.017 527.751 280.823 519.224 267.556 C 516.011 266.02 513.06 264.308 510.542 261.742 C 503.608 254.676 504.125 244.474 504.405 235.349 C 483.207 232.714 460.715 257.386 441.986 264.752 C 453.702 247.924 459.722 229.648 463.191 209.585 C 471.413 193.09 482.536 171.305 497.264 159.87 C 530.736 133.883 594.747 135.668 635.115 141.106 C 629.89 152.662 622.405 163.222 616.588 174.527 C 623.331 179.177 639.792 195.702 646.442 196.893 C 647.779 197.551 649.02 198.082 650.184 199.025 L 652.243 201.686 C 653.016 201.662 653.869 201.958 654.561 201.612 C 657.789 200 680.143 180.859 683.393 177.349 C 683.746 176.967 684.082 176.57 684.432 176.185 C 684.698 175.893 684.98 175.614 685.242 175.318 C 691.177 168.592 689.545 151.705 688.75 143.14 C 687.529 129.99 682.842 117.418 681.191 104.337 z"/>
<path transform="translate(0,0)" fill="rgb(0,0,0)" d="M 504.405 235.349 C 507.247 221.274 513.698 202.906 526.301 194.796 C 529.574 192.691 533.356 191.634 537.222 192.505 C 542.582 193.712 546.62 198.299 549.319 202.821 C 556.88 215.488 560.368 234.671 556.156 248.929 C 554.003 256.219 549.71 262.38 542.748 265.735 C 535.706 269.129 526.725 269.4 519.224 267.556 C 516.011 266.02 513.06 264.308 510.542 261.742 C 503.608 254.676 504.125 244.474 504.405 235.349 z"/>
<path transform="translate(0,0)" fill="rgb(254,254,252)" d="M 532.397 198.936 C 534.481 198.744 536.292 198.726 538.279 199.523 C 544.844 202.158 549.086 211.503 550.97 217.716 C 554.341 228.842 554.882 241.911 548.862 252.213 C 544.685 259.36 539.772 261.925 531.992 264.069 C 528.913 264.076 525.592 264.185 522.58 263.512 C 518.029 262.494 514.515 259.563 512.256 255.534 C 507.691 247.39 509.614 234.512 512.103 225.81 C 515.511 213.893 521.539 204.977 532.397 198.936 z"/>
<path transform="translate(0,0)" fill="rgb(0,0,0)" d="M 530.578 203.559 L 533.315 204.378 C 535.474 206.871 535.919 208.781 535.815 211.986 C 535.345 226.424 529.462 242.06 518.73 251.847 L 516.66 251.543 C 513.963 248.801 513.708 245.991 513.726 242.315 C 513.799 227.889 520.362 213.545 530.578 203.559 z"/>
<path transform="translate(0,0)" fill="rgb(0,0,0)" d="M 683.548 297.667 C 663.418 292.287 633.021 291.755 616.845 276.617 C 614.529 274.45 614.135 272.776 614.008 269.698 C 629.598 268.362 665.716 266.596 676.785 255.68 C 677.887 251.795 676.102 249.618 674.456 246.101 L 675.094 245.055 C 678.269 246.102 679.677 246.304 682.907 245.335 C 683.186 245.252 683.46 245.158 683.737 245.069 L 685.418 246.238 C 687.425 250.303 687.037 254.646 687.911 259.003 C 691.396 276.38 692.11 273.927 687.403 291.935 C 688.959 292.546 690.543 293.17 692.007 293.98 C 704.6 300.95 700.311 307.683 704.674 315.339 C 705.893 317.479 707.014 317.368 707.954 320.275 L 707.15 321.322 C 701.969 318.001 697.389 316.926 692.414 312.758 C 695.854 318.28 697.348 326.12 701.559 330.813 C 703.715 339.38 701.689 339.96 702.208 346.691 C 703.401 362.176 708.942 363.657 703.523 381.555 L 702.317 381.717 L 700.184 380.085 C 697.664 383.577 697.899 387.968 694.931 391.272 L 693.959 390.426 C 693.602 379.373 705.445 364.134 695.853 354.741 C 692.585 351.54 690.763 351.166 686.354 350.551 C 651.505 345.293 613.834 338.916 588.938 311.369 C 585.674 307.758 580.83 302.676 581.123 297.556 C 583.574 296.48 588.632 300.311 591.084 301.6 C 624.933 319.388 652.847 318.306 689.807 315.458 C 684.236 311.678 677.791 308.887 671.76 305.891 C 681.684 306.353 691.043 307.171 700.529 310.286 C 697.193 306.73 694.572 303.299 689.738 301.873 L 689.964 302.21 C 686.83 301.972 685.72 299.848 683.548 297.667 z"/>
<path transform="translate(0,0)" fill="rgb(85,66,78)" d="M 681.157 258.106 C 681.391 258.319 681.672 258.49 681.86 258.745 C 687.862 266.886 683.8 283.809 683.527 293.542 C 668.073 291.503 653.063 289.185 638.265 284.099 C 631.933 281.628 626.71 278.611 621.443 274.349 C 641.775 271.339 663.592 269.627 681.157 258.106 z"/>
<path transform="translate(0,0)" fill="rgb(85,66,78)" d="M 590.336 306.611 C 626.715 322.011 652.482 321.29 690.791 319.864 C 694.554 328.261 699.088 335.762 696.899 345.182 C 692.335 348.214 686.038 346.758 680.833 346.078 C 649.868 342.032 610.215 332.647 590.336 306.611 z"/>
</svg>