<svg version="1.1" xmlns="http://www.w3.org/2000/svg" style="display: block;" viewBox="0 0 2048 2048" width="1024" height="1024">
<defs>
	<linearGradient id="Gradient1" gradientUnits="userSpaceOnUse" x1="1669.34" y1="1000.71" x2="182.037" y2="1525.35">
		<stop class="stop0" offset="0" stop-opacity="1" stop-color="rgb(2,2,2)"/>
		<stop class="stop1" offset="1" stop-opacity="1" stop-color="rgb(23,5,21)"/>
	</linearGradient>
	<linearGradient id="Gradient2" gradientUnits="userSpaceOnUse" x1="1377.94" y1="1826.45" x2="1452.93" y2="1829.58">
		<stop class="stop0" offset="0" stop-opacity="1" stop-color="rgb(202,184,159)"/>
		<stop class="stop1" offset="1" stop-opacity="1" stop-color="rgb(225,216,192)"/>
	</linearGradient>
	<linearGradient id="Gradient3" gradientUnits="userSpaceOnUse" x1="822.168" y1="264.598" x2="879.562" y2="344.497">
		<stop class="stop0" offset="0" stop-opacity="1" stop-color="rgb(0,0,1)"/>
		<stop class="stop1" offset="1" stop-opacity="1" stop-color="rgb(26,10,21)"/>
	</linearGradient>
	<linearGradient id="Gradient4" gradientUnits="userSpaceOnUse" x1="1160.35" y1="1272.51" x2="1167.75" y2="1275.65">
		<stop class="stop0" offset="0" stop-opacity="1" stop-color="rgb(4,0,6)"/>
		<stop class="stop1" offset="1" stop-opacity="1" stop-color="rgb(19,1,21)"/>
	</linearGradient>
	<linearGradient id="Gradient5" gradientUnits="userSpaceOnUse" x1="1123.74" y1="1266.71" x2="1106.33" y2="1258.74">
		<stop class="stop0" offset="0" stop-opacity="1" stop-color="rgb(1,0,1)"/>
		<stop class="stop1" offset="1" stop-opacity="1" stop-color="rgb(22,2,23)"/>
	</linearGradient>
	<linearGradient id="Gradient6" gradientUnits="userSpaceOnUse" x1="888.612" y1="1128.63" x2="892.992" y2="1148.73">
		<stop class="stop0" offset="0" stop-opacity="1" stop-color="rgb(0,0,0)"/>
		<stop class="stop1" offset="1" stop-opacity="1" stop-color="rgb(19,7,19)"/>
	</linearGradient>
</defs>
<path transform="translate(0,0)" fill="rgb(254,254,254)" d="M 0 0 L 2048 0 L 2048 2048 L 0 2048 L 0 0 z"/>
<path transform="translate(0,0)" fill="url(#Gradient1)" d="M 994.21 139.387 C 995.843 131.319 998.058 123.589 1001.89 116.268 C 1014.16 92.8431 1036.07 79.9436 1059.28 69.3553 C 1065.02 66.7388 1071.11 63.437 1077.2 61.7726 C 1080.1 60.9801 1082.27 60.7408 1084.87 62.2878 C 1086.2 68.7535 1073.75 83.4252 1070.97 90.439 C 1068.26 97.2748 1067.16 103.984 1066.6 111.278 C 1084.5 95.2215 1105.52 87.08 1128.57 81.164 C 1132.72 80.0991 1138.83 78.0999 1142.75 80.4054 L 1143.25 82.4718 C 1140.91 88.9055 1132.33 95.9479 1127.57 100.887 C 1153.61 92.8588 1181.25 93.3531 1206.94 84.5556 C 1218.2 80.7025 1224.45 70.0365 1234.83 65.8071 C 1237.7 66.2391 1238.14 66.3184 1240.35 68.1763 C 1241.14 69.9691 1241.55 71.2703 1241.61 73.2649 C 1242.21 90.9464 1225.1 118.097 1213.62 130.595 C 1234.87 126.186 1256.43 121.65 1277.03 114.73 C 1283.05 112.708 1288.58 109.86 1294.47 107.717 C 1297.17 106.734 1298.25 107.289 1300.66 108.599 C 1301.19 110.063 1301.69 110.398 1301.03 111.975 C 1296.87 122.06 1258.44 144.985 1247.7 150.324 C 1248.18 150.383 1248.65 150.447 1249.13 150.499 C 1255.48 151.199 1262.59 150.242 1269.03 149.97 C 1294.7 148.887 1318.74 147.741 1343.12 138.692 C 1347.56 137.045 1358.13 131.372 1361.77 134.532 C 1363.72 142.074 1356.89 154.418 1353.04 160.95 C 1343.09 177.799 1330.31 186.341 1312.65 193.691 C 1347.3 204.223 1388.54 217.428 1406.94 251.926 C 1409.69 257.077 1411.77 262.312 1410.09 268.112 C 1407.31 272.252 1401.35 272.815 1396.8 273.846 C 1406.14 287.162 1432.3 301.883 1428.76 322.419 C 1428.6 323.36 1428.45 323.805 1428.19 324.791 C 1414.35 330.604 1371.58 321.776 1357.65 316.052 A 109.7 109.7 0 0 1 1332.17 301.48 C 1333.54 305.75 1335.19 309.706 1334.69 314.25 C 1333.9 315.286 1333.78 316.08 1332.34 316.153 C 1327.54 316.396 1320.67 309.834 1317.19 310.874 C 1316.92 328.802 1357.87 364.709 1369.16 379.728 C 1345.95 372.683 1329.92 352.907 1316.98 333.34 C 1317.31 371.625 1309.87 377.447 1291.91 409.833 C 1314.21 434.896 1338.29 460.068 1335.92 496.233 C 1335.29 506 1332.16 515.837 1324.48 522.348 C 1315.68 529.818 1303.28 530.945 1292.23 529.692 C 1287.29 529.133 1282.35 528.388 1277.54 527.113 C 1274.85 547.43 1275.78 554.619 1260.64 569.982 C 1268.44 592.242 1259 621.194 1249.23 641.526 C 1246.29 647.661 1243.1 653.084 1238.27 657.956 C 1231.03 654.549 1223.95 654.447 1216.25 652.876 C 1204.05 650.385 1165.79 642.753 1157.62 635.736 C 1157.18 635.361 1156.72 635.016 1156.27 634.648 C 1155.99 634.414 1155.72 634.17 1155.44 633.931 C 1142.51 635.839 1105.14 609.489 1091.59 603.108 C 1086.97 600.929 1080.94 601.43 1075.93 599.739 C 1098.74 638.671 1117.2 679.832 1138.87 719.352 A 641.704 641.704 0 0 0 1242.72 859.049 C 1249.48 865.991 1256.81 872.306 1263.71 879.09 C 1275.41 879.96 1288.94 879.747 1297.3 889.291 C 1309.09 902.751 1314.97 921.188 1323.59 936.715 C 1330.26 948.725 1339.05 960.484 1344.33 973.094 C 1340.87 992.905 1334.62 1013.48 1321.36 1029.06 C 1356.28 1099.05 1372.44 1178.82 1390.19 1254.56 A 5949.22 5949.22 0 0 1 1457.92 1585.57 C 1463.35 1582.88 1468.81 1579.41 1474.91 1578.76 C 1477.47 1579.95 1477.93 1580.98 1478.83 1583.66 C 1484.8 1601.33 1489.43 1633.99 1488.85 1652.5 C 1471.74 1669.47 1402.9 1691.25 1377.69 1699.07 A 424.302 424.302 0 0 1 1379.66 1724.65 C 1391.34 1721.05 1412.79 1712.83 1424.1 1719.33 C 1427.99 1721.56 1429.9 1725.77 1430.83 1729.99 C 1433.59 1742.48 1430.43 1767.75 1433.38 1776.59 C 1434.67 1780.47 1437.01 1782.44 1440.32 1784.65 C 1465.33 1801.4 1500.98 1808.77 1530.2 1814.95 C 1623.67 1834.71 1727.88 1842.1 1807.55 1900.17 C 1816.42 1906.64 1831.33 1916 1835.63 1926.16 C 1835.63 1929.71 1833.82 1931.75 1831.37 1934.12 C 1822.63 1942.55 1810.36 1948.99 1799.83 1954.91 C 1734.75 1991.49 1654.43 2006.22 1580.41 2003.04 C 1517.8 2000.34 1466.86 1978.17 1407.03 1968.46 C 1357.22 1960.38 1306.38 1962.61 1256.65 1952.12 C 1243.08 1949.26 1224.44 1945.45 1214.35 1935.29 C 1211.17 1927.93 1217.3 1914.49 1219.79 1907.2 C 1198.7 1903.16 1177.33 1899.77 1156.51 1894.46 C 1146.83 1892 1137.74 1887 1127.88 1885.37 C 1100.8 1880.89 1073.28 1880.12 1046.14 1876.18 C 993.322 1868.5 940.812 1856.29 888.346 1846.32 C 823.508 1834.01 739.935 1830.33 682.702 1796.71 C 683.605 1766.93 695.099 1742.2 707.317 1715.67 C 713.171 1702.96 718.893 1690.13 725.366 1677.72 C 731.767 1665.45 739.25 1653.39 744.061 1640.37 A 666.575 666.575 0 0 1 632.762 1708.78 C 556.233 1746.09 483.914 1764.13 398.483 1752.07 C 342.75 1744.21 283.452 1721.83 237.752 1688.81 C 231.138 1662.36 228.719 1630.45 225.93 1603.01 A 1617.96 1617.96 0 0 1 245.724 1158.14 C 238.916 1150.98 235.675 1146.24 235.961 1135.92 C 236.35 1121.91 240.455 1082.1 248.352 1070.85 C 250.681 1069.85 250.57 1070.01 252.975 1070.89 C 254.857 1073.09 256.191 1074.99 257.542 1077.54 L 258.35 1075.69 L 258.704 1075.98 C 258.786 1075.32 258.833 1074.66 258.949 1074 C 260.591 1064.82 265.32 1054.65 268.308 1045.66 A 2577.98 2577.98 0 0 1 294.738 968.716 C 331.066 868.065 380.935 755.036 457.661 678.292 A 494.529 494.529 0 0 1 501.919 639.29 C 510.516 632.592 519.898 626.509 528.046 619.292 C 538.323 610.188 546.571 598.624 556.649 589.15 C 583.111 564.274 616.159 543.033 647.743 525.353 A 497.732 497.732 0 0 1 812.041 468.906 C 814.65 459.13 818.003 451.303 827.36 446.205 C 835.002 442.042 844.895 440.115 853.249 437.693 L 864.544 423.952 C 863.06 420.559 860.714 416.534 860.344 412.853 C 856.197 402.525 856.585 391.881 856.856 380.975 C 853.635 387.696 848.848 406.504 846.505 409.717 C 845.381 411.258 845.315 410.891 843.58 411.169 C 841.478 409.635 840.519 407.865 839.492 405.531 C 831.591 387.577 836.187 366.206 842.537 348.594 C 837.825 355.498 833.782 362.702 829.713 369.993 C 826.74 376.482 824.333 386.379 818.951 391.1 L 817.201 390.811 C 813.674 384.76 814.652 372.301 815.214 365.41 C 817.343 339.287 827.016 308.936 847.366 291.221 C 854.816 284.736 863.628 280.206 871.115 273.778 C 871.429 273.508 871.738 273.232 872.049 272.959 C 856.506 273.806 840.611 276.111 825.526 270.547 C 822.401 269.394 821.194 268.216 819.924 265.193 C 824.059 260.365 852.128 254.224 859.538 246.627 C 859.762 246.397 859.935 246.122 860.134 245.87 C 863.14 237.208 866.475 229.312 872.118 222.008 C 891.849 196.466 924.395 182.304 955.603 178.39 A 256.698 256.698 0 0 1 947.851 172.597 C 938.151 164.983 918.729 144.104 917.819 131.348 C 917.681 129.409 917.729 129.307 919.104 127.877 C 920.258 127.764 944.884 140.64 951.345 142.451 C 946.679 134.037 933.715 112.498 936.081 102.508 C 936.416 101.095 937.264 101.162 938.455 100.607 C 943.856 102.382 953.247 114.119 958.709 118.441 C 969.689 127.129 981.633 133.414 994.21 139.387 z"/>
<path transform="translate(0,0)" fill="rgb(176,145,119)" d="M 910.799 1677.28 C 915.123 1674.37 919.516 1670.32 924.811 1669.75 L 926.104 1670.7 C 925.291 1673.89 922.995 1675.57 920.272 1677.19 A 252.028 252.028 0 0 1 911.922 1681.83 L 910.799 1677.28 z"/>
<path transform="translate(0,0)" fill="rgb(176,145,119)" d="M 1040.91 365.495 L 1042.18 365.268 C 1049.09 363.986 1056.25 362.144 1062.74 359.418 L 1063.06 360.773 C 1059.14 366.584 1052.52 369.63 1047.26 374.074 C 1046.01 371.739 1045.11 369.115 1044.07 366.669 L 1040.91 365.495 z"/>
<path transform="translate(0,0)" fill="rgb(176,145,119)" d="M 986.725 607.979 L 987.907 608.076 C 991.018 612.538 987.378 631.924 986.798 637.917 L 980.71 629.597 L 970.483 615.094 L 986.725 607.979 z"/>
<path transform="translate(0,0)" fill="rgb(210,195,169)" d="M 1066.86 1755.84 L 1067.89 1757.1 C 1068.16 1759.95 1067.95 1762.17 1067.01 1764.91 C 1064.71 1771.63 1058.39 1780.21 1051.72 1783.09 C 1050 1783.84 1048.81 1782.85 1047.16 1782.25 C 1045.35 1780.65 1043.98 1779.07 1042.5 1777.18 C 1043.68 1773.65 1061.73 1760.63 1065.92 1756.73 L 1066.86 1755.84 z"/>
<path transform="translate(0,0)" fill="rgb(210,195,169)" d="M 911.922 1681.83 C 901.402 1688.47 874.098 1706.98 862.654 1705.54 C 860.296 1703.64 860.493 1703.48 859.921 1700.47 C 866.248 1696.97 873.896 1694.91 880.57 1691.99 C 890.771 1687.53 900.751 1682.13 910.799 1677.28 L 911.922 1681.83 z"/>
<path transform="translate(0,0)" fill="rgb(176,145,119)" d="M 1232.43 1798.46 C 1235.47 1800.88 1237.63 1804.32 1240.7 1806.82 C 1250.98 1815.18 1264.38 1817.95 1276.87 1821.32 C 1282.81 1854.94 1291.92 1888.23 1299.12 1921.64 C 1294.53 1919.69 1294.18 1910.18 1293.26 1905.6 C 1289.78 1888.37 1285.31 1871.33 1281.06 1854.27 C 1279.2 1846.82 1277.89 1837.41 1274.7 1830.46 C 1273.36 1827.53 1270.87 1824.99 1268.15 1823.29 C 1259.23 1817.69 1247.52 1818.46 1239.01 1811.41 C 1234.15 1807.38 1233.01 1804.71 1232.43 1798.46 z"/>
<path transform="translate(0,0)" fill="rgb(129,84,78)" d="M 893.02 1602.37 L 906.939 1605.24 C 903.416 1614.37 898.72 1623.17 894.448 1631.99 C 891.975 1632.73 889.285 1633.18 886.761 1633.75 L 871.93 1636.93 C 876.289 1624.81 884.119 1611.7 893.02 1602.37 z"/>
<path transform="translate(0,0)" fill="rgb(176,145,119)" d="M 1064.28 427.949 C 1063.68 423.231 1061.81 416.018 1064.25 411.823 A 75.9992 75.9992 0 0 0 1068.27 410.142 C 1073 407.969 1078.11 403.42 1079.96 398.504 C 1074.94 399.189 1070.35 404.129 1065.1 405.543 L 1064.71 404.293 C 1065.35 402.891 1065.85 401.548 1067.18 400.643 C 1071.7 397.569 1099.56 385.89 1104.18 386.477 C 1104.7 389.525 1105.65 391.597 1103.86 394.416 C 1096.96 405.278 1080.5 410.518 1072.76 421.124 L 1064.28 427.949 z"/>
<path transform="translate(0,0)" fill="rgb(3,1,3)" d="M 969.084 1776.83 C 976.94 1773.24 1009.93 1736.91 1024.83 1727.15 L 1028.73 1729.27 C 1018.63 1737.43 1008.88 1745.75 999.827 1755.09 C 992.697 1762.44 986.023 1770.76 978.27 1777.43 L 995.44 1778.02 C 1011.18 1762.7 1028.41 1748.89 1042.96 1732.39 L 1046.18 1731.13 L 1048.46 1734.29 C 1046.51 1739.24 1004.38 1776.32 996.256 1785.18 C 984.331 1784.57 971.031 1784.84 959.486 1781.63 C 969.451 1780.13 984.552 1783.23 995.5 1783 C 1000.48 1778.12 1009.75 1771.19 1012.68 1765.07 C 1008.01 1766.38 1001.04 1775.37 997.459 1779.02 L 974.5 1779 C 985.706 1767.8 996.922 1756.35 1007.2 1744.3 C 993.562 1753.43 983.927 1768.29 970.699 1777.99 C 968.453 1778.16 967.011 1778.49 965.055 1777.22 L 969.084 1776.83 z"/>
<path transform="translate(0,0)" fill="rgb(176,145,119)" d="M 1127.63 524.819 C 1129.13 528.176 1130.88 530.141 1133.85 532.304 C 1120.42 546.052 1082.8 566.862 1074.54 580.851 L 1066.15 572.615 C 1077.63 559.401 1111.94 533.173 1127.63 524.819 z"/>
<path transform="translate(0,0)" fill="rgb(210,195,169)" d="M 1028.73 1729.27 C 1033.72 1729.27 1038.54 1729.97 1042.96 1732.39 C 1028.41 1748.89 1011.18 1762.7 995.44 1778.02 L 978.27 1777.43 C 986.023 1770.76 992.697 1762.44 999.827 1755.09 C 1008.88 1745.75 1018.63 1737.43 1028.73 1729.27 z"/>
<path transform="translate(0,0)" fill="rgb(176,145,119)" d="M 1154.25 548.219 C 1158.24 544.982 1161.81 539.09 1166.84 538.021 L 1169.64 540.961 C 1169.01 544.332 1169.63 546.19 1170.8 549.37 L 1169.54 550.803 C 1161.99 559.476 1155.35 568.704 1147.15 576.908 C 1136.67 587.386 1124.78 596.033 1115.26 607.501 L 1107.16 602.946 C 1115.19 591.937 1124.46 582.238 1134.11 572.667 C 1139.89 566.949 1146.43 561.337 1151.21 554.764 L 1149.98 554.764 C 1151.09 552.408 1152.75 550.346 1154.25 548.219 z"/>
<path transform="translate(0,0)" fill="rgb(3,1,3)" d="M 1154.25 548.219 C 1158.24 544.982 1161.81 539.09 1166.84 538.021 L 1169.64 540.961 C 1165.12 546.834 1157.01 550.064 1151.21 554.764 L 1149.98 554.764 C 1151.09 552.408 1152.75 550.346 1154.25 548.219 z"/>
<path transform="translate(0,0)" fill="rgb(210,195,169)" d="M 1423.59 1773.99 L 1424.81 1774.73 C 1426.6 1779.06 1426.71 1783.8 1427.14 1788.43 C 1403.85 1795.86 1382.63 1808.39 1360.15 1817.91 C 1358.97 1816.75 1357.37 1815.41 1356.49 1814.03 C 1355.72 1812.83 1355.03 1811.62 1355.64 1810.25 C 1360.27 1799.85 1411.51 1779.54 1423.59 1773.99 z"/>
<path transform="translate(0,0)" fill="rgb(210,195,169)" d="M 929.542 1681.83 C 932.222 1685.75 934.175 1691.01 936.284 1695.33 C 919.384 1709.25 899.193 1720.63 880.771 1732.52 L 878.585 1731.53 C 874.675 1726.52 871.082 1721.18 867.367 1716.02 C 889.444 1706.07 909.4 1695.3 929.542 1681.83 z"/>
<path transform="translate(0,0)" fill="rgb(210,195,169)" d="M 964.58 1715.83 C 971.975 1715.45 980.995 1718.34 988.29 1719.92 C 967.057 1732.85 947.414 1748.79 927.989 1764.22 L 927.048 1765.17 C 920.837 1766.78 912.884 1761.6 907.334 1758.97 C 924.914 1743.38 945.136 1729.02 964.58 1715.83 z"/>
<path transform="translate(0,0)" fill="rgb(137,116,110)" d="M 923.013 1491.73 C 925.864 1493.84 946.689 1538.05 950.178 1544.88 L 924.636 1537.05 A 423.373 423.373 0 0 1 891.744 1525.07 C 902.887 1514.32 913.644 1504.12 923.013 1491.73 z"/>
<path transform="translate(0,0)" fill="url(#Gradient2)" d="M 1445.22 1798.88 C 1450.03 1799.09 1454.73 1801.84 1458.96 1803.92 C 1433.4 1819.87 1410.38 1837.36 1387.77 1857.27 C 1386.82 1857.56 1386.04 1857.86 1385 1857.83 C 1382.48 1857.76 1379.22 1856.34 1377.47 1854.53 C 1375.77 1852.78 1375.55 1850.97 1375.94 1848.65 C 1378.54 1833.16 1431.02 1809.53 1444.33 1799.57 C 1444.63 1799.34 1444.92 1799.11 1445.22 1798.88 z"/>
<path transform="translate(0,0)" fill="rgb(119,99,81)" d="M 939.499 1699.18 C 945.476 1705.14 951.953 1708.89 959.344 1712.79 C 939.551 1724.96 920.116 1739.48 902.979 1755.16 C 895.831 1750.07 889.636 1742.55 883.604 1736.18 C 899.759 1728.72 926.192 1711.08 939.499 1699.18 z"/>
<path transform="translate(0,0)" fill="rgb(210,195,169)" d="M 1504.35 1817.86 A 490.068 490.068 0 0 1 1526.64 1822.49 C 1499.49 1837.21 1476.91 1859.08 1456.9 1882.29 C 1456.26 1883.31 1455.56 1883.54 1454.53 1884.12 C 1447.62 1883.54 1442.11 1880.49 1436.19 1877.18 C 1446.43 1861.21 1487.34 1828.59 1504.35 1817.86 z"/>
<path transform="translate(0,0)" fill="rgb(210,195,169)" d="M 1579.56 1834.73 C 1585.9 1834.12 1595.76 1837.42 1602.27 1838.58 C 1575.17 1854.55 1542.8 1880.22 1521.55 1903.34 C 1517.66 1904.17 1512.45 1903.44 1508.66 1902.32 C 1505.68 1901.45 1502.2 1900.01 1500.76 1897.21 C 1507.12 1883.65 1565.12 1844.54 1579.56 1834.73 z"/>
<path transform="translate(0,0)" fill="rgb(3,1,3)" d="M 1107.14 385.178 C 1108.41 388.588 1110.35 392.492 1108.63 396.085 C 1107.71 398.022 1105.9 399.279 1104.24 400.543 C 1106.52 402.582 1108.23 403.994 1108.67 407.244 C 1109.21 411.24 1105.57 414.084 1104.85 417.778 C 1103.13 426.599 1110.68 426.255 1102.65 437.03 C 1085.78 448.866 1069.84 461.012 1054.44 474.745 C 1054.96 472.929 1054.62 473.146 1055.62 472.07 C 1057.14 470.438 1058.32 469.319 1059.46 467.32 L 1057.8 465.524 L 1061.13 453.942 L 1060.68 452.744 C 1061.39 451.584 1062.07 450.431 1062.73 449.24 L 1059.69 448.905 C 1058.67 446.733 1058.79 447.481 1058.57 445.127 C 1057.73 436.168 1068.63 429.633 1073.67 423.478 L 1072.76 421.124 C 1080.5 410.518 1096.96 405.278 1103.86 394.416 C 1105.65 391.597 1104.7 389.525 1104.18 386.477 L 1105.32 386.846 L 1107.14 385.178 z"/>
<path transform="translate(0,0)" fill="rgb(176,145,119)" d="M 1061.13 453.942 C 1069.13 446.607 1092.96 424.682 1101.8 421.828 C 1102.35 425.111 1102.79 428.435 1101.12 431.485 C 1100.16 433.231 1098.06 434.963 1096.56 436.205 C 1091.63 440.266 1085.65 443.171 1080.5 447.005 C 1072.67 452.835 1065.61 459.703 1057.8 465.524 L 1061.13 453.942 z"/>
<path transform="translate(0,0)" fill="rgb(176,145,119)" d="M 1059.83 447.99 C 1059.94 446.741 1060.02 445.483 1060.19 444.239 C 1061.75 432.355 1094.21 408.066 1104.24 400.543 A 93.5639 93.5639 0 0 1 1104.04 404.603 C 1103.82 407.46 1103.41 410.029 1101.84 412.492 C 1094.75 423.638 1070.96 438.432 1059.83 447.99 z"/>
<path transform="translate(0,0)" fill="rgb(210,195,169)" d="M 987.395 711.275 C 988.177 699.481 988.935 687.658 990.624 675.953 C 992.62 662.111 995.56 648.29 996.863 634.368 C 997.738 625.013 997.179 615.984 997.439 606.688 C 1007.49 645.647 1004.57 689.509 1002.81 729.361 C 1000.68 725.348 997.221 716.874 992.829 715.19 C 992.173 714.938 991.13 714.919 990.469 714.869 C 992.352 724.269 996.235 733.113 998.141 742.438 C 1000.88 755.853 998.783 780.392 991.273 792.191 L 988.31 791.21 C 984.919 778.624 987.299 727.251 987.395 711.275 z"/>
<path transform="translate(0,0)" fill="rgb(137,116,110)" d="M 1078.44 1391.85 C 1078.89 1393.64 1078.9 1392.97 1078.71 1394.64 C 1073.9 1436.59 1078.93 1480.37 1077.86 1522.61 C 1075.5 1515.03 1073.5 1507.32 1071.41 1499.66 C 1065.32 1471.96 1056.72 1444.33 1049.23 1416.96 C 1058.34 1408.11 1068.76 1400.11 1078.44 1391.85 z"/>
<path transform="translate(0,0)" fill="rgb(176,145,119)" d="M 1137.95 533.393 C 1138.34 533.095 1138.74 532.804 1139.12 532.5 C 1140.52 531.383 1141.71 530.208 1142.95 528.918 C 1144.67 529.645 1145.38 530.657 1146.14 532.425 C 1147.93 536.63 1144.42 541.553 1146.71 545.17 C 1149.25 546.127 1151.8 547.046 1154.25 548.219 C 1152.75 550.346 1151.09 552.408 1149.98 554.764 C 1133.57 569.364 1116.58 583.484 1102.43 600.343 C 1098.84 598.291 1095.04 596.604 1092.62 593.154 L 1093.05 591.136 L 1091.89 589.65 L 1088 589.97 L 1087.54 589.235 C 1085.26 586.659 1082.53 584.343 1080.04 581.966 C 1087.34 575.74 1136.3 536.61 1137.95 533.393 z"/>
<path transform="translate(0,0)" fill="rgb(3,1,3)" d="M 1087.54 589.235 L 1088.87 588.254 C 1094.38 584.148 1099.27 578.895 1104.47 574.384 C 1114.58 565.626 1124.94 558.005 1136.24 550.863 L 1137.01 550.972 C 1130.92 557.344 1123.84 562.431 1117.33 568.33 C 1109.08 575.805 1101.67 584.034 1093.05 591.136 L 1091.89 589.65 L 1088 589.97 L 1087.54 589.235 z"/>
<path transform="translate(0,0)" fill="rgb(119,99,81)" d="M 992.458 1721.71 C 1002.75 1723.28 1014.97 1723.94 1024.83 1727.15 C 1009.93 1736.91 976.94 1773.24 969.084 1776.83 C 956.586 1774.47 944.291 1772.04 931.944 1768.98 A 2405.84 2405.84 0 0 1 992.458 1721.71 z"/>
<path transform="translate(0,0)" fill="rgb(137,116,110)" d="M 992.673 799.43 C 993.994 799.22 993.201 799.205 994.986 799.983 C 996.921 808.229 976.985 865.994 972.383 877.754 C 969.234 885.799 965.421 893.56 961.616 901.31 C 960.933 896.449 959.891 891.608 958.988 886.782 A 1528.59 1528.59 0 0 0 939.834 803.775 C 957.563 802.387 974.98 801.544 992.673 799.43 z"/>
<path transform="translate(0,0)" fill="rgb(137,116,110)" d="M 1150.72 624.988 C 1160.59 614.474 1166.65 601.661 1177.67 591.731 C 1186.87 596.006 1197.21 598.064 1206.74 601.622 C 1220 606.574 1235.31 617.029 1249.04 618.708 C 1245.49 629.178 1241.37 639.162 1236.74 649.198 C 1215.43 647.316 1168.36 635.825 1150.72 624.988 z"/>
<path transform="translate(0,0)" fill="rgb(119,99,81)" d="M 1234.38 1813.6 C 1244.7 1821.66 1254.85 1824.85 1267.37 1828.19 C 1271.6 1839.14 1273.56 1850.69 1276.45 1862.04 C 1280.39 1877.52 1284.74 1892.91 1288.37 1908.47 C 1289.03 1911.3 1291.3 1917.15 1289.83 1919.51 L 1285.78 1918.89 C 1266.75 1914.77 1247.9 1910.31 1229.24 1904.74 C 1234.9 1873.72 1239.05 1845.11 1234.38 1813.6 z"/>
<path transform="translate(0,0)" fill="rgb(137,116,110)" d="M 828.065 1578.09 C 847.1 1587.02 866.422 1593.26 886.563 1599.06 C 880.537 1608.9 869.213 1623.22 867.677 1634.55 C 867.53 1635.64 867.235 1637.72 866.511 1638.54 C 864.783 1640.51 858.547 1643.02 856.067 1644.43 C 848.205 1648.92 841.131 1653.56 834.02 1659.18 C 833.728 1659.34 833.462 1659.56 833.143 1659.66 C 828.708 1660.98 815.3 1655.2 810.768 1653.28 C 793.233 1645.85 783.236 1633.06 776.188 1615.92 C 793.575 1603.45 810.381 1590.14 828.065 1578.09 z"/>
<path transform="translate(0,0)" fill="rgb(210,195,169)" d="M 1036.24 597.362 C 1036.85 597.74 1036.73 597.617 1037.37 598.48 C 1044.09 607.472 1067.43 669.178 1069.76 681.938 C 1071.94 693.867 1070.98 706.162 1070.01 718.158 C 1060.77 705.593 1052.72 695.086 1038.27 688.291 A 680.663 680.663 0 0 0 1024 722.689 L 1007.58 767.778 C 1010.41 727.62 1016.31 675.663 1011.2 636.27 C 1009.73 624.995 1006.88 614.291 1003.75 603.4 C 1014.62 601.878 1025.45 599.44 1036.24 597.362 z"/>
<path transform="translate(0,0)" fill="rgb(137,116,110)" d="M 886.059 1530.61 C 894.866 1532.05 904.778 1539.22 913.477 1542.34 C 926.183 1546.89 940.141 1549.66 953.25 1553.01 C 961.257 1569.42 970.033 1585.53 978.448 1601.74 C 963.517 1601.73 948.778 1601.17 933.942 1599.45 C 905.478 1595.46 860.945 1585.33 835.995 1571.52 C 852.325 1557.44 869.853 1544.82 886.059 1530.61 z"/>
<path transform="translate(0,0)" fill="rgb(210,195,169)" d="M 950.309 652.552 C 963.564 664.59 964.656 679.074 972.137 694.063 L 973.315 694.401 L 974.786 689.837 C 977.267 693.661 979.712 781.957 979.699 791.667 L 956.245 793.598 C 950.194 794.508 943.77 794.6 937.652 795.064 A 3427.61 3427.61 0 0 1 927.137 758.581 C 924.778 750.224 921.96 741.576 921.63 732.841 C 920.75 709.552 938.744 673.217 950.309 652.552 z"/>
<path transform="translate(0,0)" fill="rgb(210,195,169)" d="M 807.697 479.283 L 810.28 479.28 C 811.369 480.79 811.401 480.414 811.663 481.848 C 813.578 492.332 815.281 501.942 818.774 512.087 C 731.563 521.798 641.183 554.671 565.391 598.458 L 555.734 603.834 C 569.88 589.207 586.1 577.142 602.641 565.398 A 498.493 498.493 0 0 1 807.697 479.283 z"/>
<path transform="translate(0,0)" fill="rgb(3,1,3)" d="M 1102.65 437.03 L 1102.92 438.175 C 1104.3 440.966 1107.17 445.472 1106.25 448.506 C 1105.67 450.39 1104.39 452.363 1103.43 454.084 C 1103.04 462.42 1109.63 466.525 1105.32 474.934 C 1104.2 477.119 1103.96 479.023 1104.69 481.409 C 1104.99 482.381 1105.21 482.673 1105.67 483.47 C 1107.41 482.717 1108.41 482.067 1109.89 480.947 L 1111.02 482.051 C 1111.02 485.404 1107.66 487.857 1108.03 490.113 C 1109.63 499.775 1122.68 505.047 1119.12 515.447 L 1119.75 515.693 C 1119.82 518.764 1123.45 521.866 1125.48 524.259 C 1103.45 536.441 1081.16 551.615 1061.95 567.882 C 1059.93 565.297 1058.01 562.547 1055.63 560.292 L 1054.29 560.725 C 1054.19 559.192 1054.01 558.022 1053.66 556.549 C 1051.21 554.646 1049.2 552.883 1047.22 550.475 C 1046.85 547.248 1047.14 546.723 1048.5 543.734 L 1047.1 543.057 C 1045.24 540.492 1043.94 537.244 1042.54 534.39 L 1042.24 535.677 L 1041.53 535.483 C 1041.6 529.587 1037.37 523.256 1038.13 518.112 C 1038.36 516.527 1039.33 516.354 1040.53 515.519 L 1038.09 514.441 C 1036.29 511.569 1036.7 506.332 1037.4 503.002 L 1038.41 503.544 L 1042.22 500.507 L 1042.11 499.323 C 1041.73 498.88 1041.3 498.478 1040.98 497.996 C 1040.7 497.59 1040.54 497.117 1040.32 496.678 C 1038.71 494.107 1039.17 489.411 1039.08 486.358 C 1044.24 482.795 1050.22 479.392 1054.44 474.745 C 1069.84 461.012 1085.78 448.866 1102.65 437.03 z"/>
<path transform="translate(0,0)" fill="rgb(176,145,119)" d="M 1104.83 491.67 C 1105.81 494.483 1107.09 497.469 1107.74 500.36 C 1097.92 506.228 1087.57 514.96 1077.35 519.578 C 1069.6 525.287 1051.62 535.398 1047.1 543.057 C 1045.24 540.492 1043.94 537.244 1042.54 534.39 C 1045.13 529.141 1064.52 518.583 1070.46 515.073 C 1081.84 507.175 1093.59 499.746 1104.83 491.67 z"/>
<path transform="translate(0,0)" fill="rgb(176,145,119)" d="M 1101.53 477.848 C 1102.51 479.698 1103.54 482.406 1103.33 484.585 C 1103.27 485.204 1102.97 486.442 1102.51 487.01 C 1097.76 492.922 1051.89 521.859 1041.52 528.878 C 1040.83 525.915 1040.35 522.946 1039.88 519.942 C 1041.85 515.341 1092.16 483.953 1101.53 477.848 z"/>
<path transform="translate(0,0)" fill="rgb(176,145,119)" d="M 1102.65 437.03 L 1102.92 438.175 L 1102.52 440.058 C 1102.04 442.354 1101.82 444.597 1101.62 446.931 C 1089.06 462.867 1057.43 482.989 1040.32 496.678 C 1038.71 494.107 1039.17 489.411 1039.08 486.358 C 1044.24 482.795 1050.22 479.392 1054.44 474.745 C 1069.84 461.012 1085.78 448.866 1102.65 437.03 z"/>
<path transform="translate(0,0)" fill="rgb(176,145,119)" d="M 1099.87 456.495 L 1102.37 470.896 C 1092.77 477.906 1046.17 511.242 1039.56 512.514 C 1038.1 509.496 1038.34 506.797 1038.41 503.544 L 1042.22 500.507 C 1061.2 485.855 1081.87 472.209 1099.87 456.495 z"/>
<path transform="translate(0,0)" fill="rgb(176,145,119)" d="M 1055.63 560.292 L 1055.32 559.019 C 1061.25 549.418 1099.18 526.291 1110.86 514.435 C 1108.44 514.48 1061.11 547.994 1054.46 552.733 L 1052.92 552.432 L 1053.1 552.207 L 1053.25 553.429 L 1052.62 553.711 C 1051 553.195 1050.18 552.229 1048.93 551.112 C 1048.35 548.661 1048.37 548.153 1049.71 545.812 C 1053.68 538.877 1102.53 507.86 1110.78 506.578 C 1114.3 508.023 1116.63 512.57 1119.12 515.447 L 1119.75 515.693 C 1119.82 518.764 1123.45 521.866 1125.48 524.259 C 1103.45 536.441 1081.16 551.615 1061.95 567.882 C 1059.93 565.297 1058.01 562.547 1055.63 560.292 z"/>
<path transform="translate(0,0)" fill="rgb(254,254,254)" d="M 973.538 898.996 L 976.322 903.036 C 975.194 905.649 974.195 907.043 974.538 909.905 C 986.394 912.388 991.098 893.238 1003.93 912.575 C 1020 936.783 1007.54 948.367 1042.13 961.548 C 1042.34 961.946 1042.56 962.342 1042.76 962.743 C 1045.04 967.16 1048.71 983.988 1049.95 985.35 C 1051.85 987.448 1060.56 990.324 1063.6 991.686 C 1055.61 997.178 1046.44 1002.34 1038.9 1008.35 C 1026.75 1013.39 998.952 1030.03 989.998 1039.56 C 986.212 1029.27 983.863 1008.12 981.512 996.291 C 976.223 969.689 969.362 942.894 965.231 916.124 L 973.538 898.996 z"/>
<path transform="translate(0,0)" fill="rgb(137,116,110)" d="M 1367.17 1703.12 L 1368.32 1703.31 C 1371.72 1711.37 1372.89 1738.87 1373 1748.15 C 1363.43 1752.96 1353.67 1756.72 1343.36 1759.67 C 1321.51 1765.92 1265.46 1775.13 1244.9 1763.69 C 1240.8 1747.81 1236.49 1731.94 1233.1 1715.89 C 1277.57 1721.69 1324.23 1715.16 1367.17 1703.12 z"/>
<path transform="translate(0,0)" fill="rgb(176,145,119)" d="M 1226.23 525.618 C 1234.79 538.262 1248.76 548.231 1264.02 551.214 C 1264.47 551.302 1264.93 551.376 1265.38 551.457 C 1265.71 553.754 1265.37 553.781 1264.05 555.583 C 1262.77 557.343 1261.12 558.817 1259.54 560.307 C 1258.48 562.947 1254.61 565.396 1254.48 565.819 C 1253.09 570.222 1257.59 582.97 1256.98 589.296 L 1256.24 589.478 C 1256.25 587.552 1256.62 585.931 1255.6 584.256 C 1253.98 595.863 1252.22 607.404 1249.04 618.708 C 1235.31 617.029 1220 606.574 1206.74 601.622 C 1197.21 598.064 1186.87 596.006 1177.67 591.731 C 1166.65 601.661 1160.59 614.474 1150.72 624.988 L 1149.9 616.915 C 1149.47 619.689 1149.71 621.126 1147.7 623.151 C 1143.71 623.655 1139.16 620.237 1135.73 618.345 C 1146.03 606.805 1155.09 593.975 1165.36 582.28 C 1151.92 592.104 1140.57 602.925 1128.84 614.672 L 1120.24 609.812 A 533.968 533.968 0 0 1 1189.53 539.745 C 1186.86 544.867 1184.69 550.019 1182.59 555.395 C 1187.86 546.256 1192.69 540.909 1201.14 534.58 C 1202.55 532.868 1203.53 532.137 1205.82 531.581 C 1207.33 531.215 1209.16 531.609 1210.31 532.685 C 1211.02 533.345 1211.28 534.389 1211.98 535.058 C 1212.32 535.383 1212.78 535.549 1213.18 535.794 L 1210.66 539.73 L 1211.74 540.331 A 54.3135 54.3135 0 0 0 1226.23 525.618 z"/>
<path transform="translate(0,0)" fill="rgb(3,1,3)" d="M 1149.9 616.915 C 1159.59 594.981 1190.24 571.196 1210.55 559.901 C 1223.87 552.496 1233.13 547.93 1246.2 558.107 C 1248.58 559.956 1251.2 562.099 1254.2 562.743 C 1255.95 563.119 1258.05 561.215 1259.54 560.307 C 1258.48 562.947 1254.61 565.396 1254.48 565.819 C 1253.09 570.222 1257.59 582.97 1256.98 589.296 L 1256.24 589.478 C 1256.25 587.552 1256.62 585.931 1255.6 584.256 A 625.439 625.439 0 0 0 1252.51 566.364 C 1246.71 562.817 1241.83 558.967 1236.72 554.503 C 1212.96 560.969 1195.47 575.288 1177.67 591.731 C 1166.65 601.661 1160.59 614.474 1150.72 624.988 L 1149.9 616.915 z"/>
<path transform="translate(0,0)" fill="rgb(176,145,119)" d="M 1177.67 591.731 C 1195.47 575.288 1212.96 560.969 1236.72 554.503 C 1241.83 558.967 1246.71 562.817 1252.51 566.364 A 625.439 625.439 0 0 1 1255.6 584.256 C 1253.98 595.863 1252.22 607.404 1249.04 618.708 C 1235.31 617.029 1220 606.574 1206.74 601.622 C 1197.21 598.064 1186.87 596.006 1177.67 591.731 z"/>
<path transform="translate(0,0)" fill="rgb(137,116,110)" d="M 252.031 1082.93 C 273.291 1115.53 309.474 1131.36 344.267 1145.68 C 354.864 1148.94 364.658 1150 375.714 1150.41 C 372.703 1165.26 365.871 1194.3 352.389 1203.03 C 348.389 1205.62 343.799 1204.64 339.437 1203.76 C 333.348 1203.21 326.697 1200.92 320.937 1198.95 C 289.789 1188.3 265.954 1167.81 244.226 1143.82 C 244.73 1123.54 248.325 1102.84 252.031 1082.93 z"/>
<path transform="translate(0,0)" fill="rgb(3,1,3)" d="M 345.71 1149.46 C 352.121 1150.93 358.216 1153.65 361.89 1159.41 C 365.105 1164.45 365.441 1170.72 363.862 1176.36 C 361.946 1183.22 356.807 1189.62 350.42 1192.82 C 347.138 1194.47 343.236 1194.99 339.628 1195.44 C 336.387 1194.51 333.113 1193.56 330.381 1191.5 A 23.1008 23.1008 0 0 1 321.564 1176.14 A 23.0379 23.0379 0 0 1 326.65 1158.64 C 331.875 1152.26 337.792 1150.41 345.71 1149.46 z"/>
<path transform="translate(0,0)" fill="rgb(176,145,119)" d="M 343.294 1160.99 C 344.471 1161.16 345.883 1161.29 347.026 1161.68 C 349.629 1162.56 351.566 1164.09 352.792 1166.57 C 354.314 1169.66 353.99 1173.06 352.724 1176.16 C 350.683 1181.17 347.603 1183.01 342.776 1185.01 C 341.504 1184.68 340.221 1184.38 339.007 1183.87 C 335.686 1182.47 332.614 1179.9 331.536 1176.35 C 330.825 1174.02 331.126 1171.7 332.144 1169.5 C 334.402 1164.64 338.584 1162.9 343.294 1160.99 z"/>
<path transform="translate(0,0)" fill="rgb(210,195,169)" d="M 694.145 1774.54 C 704.024 1781.11 716.612 1785.5 727.979 1788.66 C 743.804 1793.05 760.301 1795.3 776.422 1798.41 C 788.507 1800.74 800.42 1803.86 812.522 1806.12 C 829.985 1809.38 847.649 1811.73 865.177 1814.64 C 890.826 1818.9 916.523 1822.55 942.205 1826.55 C 960.563 1829.41 978.757 1833.23 997.157 1835.85 C 1022.48 1839.47 1047.93 1841.5 1073.42 1843.45 C 1076.98 1853.61 1080.73 1861.92 1088.76 1869.4 C 1090.2 1870.73 1089.66 1869.83 1090.13 1872.01 C 1072.08 1869.85 1053.95 1867.94 1036.03 1864.84 C 995.774 1857.88 955.964 1848.44 915.727 1841.41 A 4530.48 4530.48 0 0 0 835.432 1828.28 C 785.869 1820.77 738.192 1813.68 692.013 1793.01 C 692.236 1786.63 692.787 1780.79 694.145 1774.54 z"/>
<path transform="translate(0,0)" fill="rgb(254,254,254)" d="M 916.456 1606.59 C 938.499 1609.02 961.263 1614.31 983.377 1609.59 C 1004.3 1647.22 1022.79 1686.24 1045.74 1722.73 L 1034.8 1719.83 C 1016.87 1715.72 998.507 1713.77 980.495 1710.07 C 951.07 1704.04 939.43 1693.98 933.362 1664.09 C 931.942 1657.1 930.778 1650.15 926.609 1644.16 C 920.376 1635.2 911.927 1633.31 901.889 1631.32 C 906.994 1623.24 911.654 1614.85 916.456 1606.59 z"/>
<path transform="translate(0,0)" fill="rgb(210,195,169)" d="M 1053.65 469.33 C 1045.57 476.344 1033.69 483.014 1023.55 486.472 C 1015.65 489.165 1008.48 488.34 1001.09 484.542 C 981.238 474.333 967.828 447.656 961.854 427.178 C 955.846 406.581 956.351 383.065 967.106 364.069 C 972.417 354.688 981.281 345.153 992.139 342.561 C 1009.84 338.334 1025.88 356.828 1039.95 364.959 C 1040.27 365.141 1040.59 365.317 1040.91 365.495 L 1044.07 366.669 C 1045.11 369.115 1046.01 371.739 1047.26 374.074 C 1044.54 376.709 1042.81 378.686 1042.41 382.598 C 1047.5 396.605 1041.63 391.664 1041.56 398.665 C 1044.61 398.852 1047.58 398.734 1050.3 400.287 C 1051.7 406.34 1050.29 414.601 1050.24 420.945 C 1050.14 436.46 1050.32 454.205 1053.65 469.33 z"/>
<path transform="translate(0,0)" fill="rgb(3,1,3)" d="M 994.201 365.126 C 998.962 364.838 1003.41 364.82 1008.04 366.146 C 1019.68 369.483 1028.3 378.627 1034.13 388.872 C 1044.68 407.39 1039.19 424.556 1033.83 443.508 C 1035.12 447.272 1037.99 451.672 1036.72 455.708 L 1035.04 455.661 C 1034.19 454.562 1033.33 453.484 1032.66 452.266 C 1029.48 446.524 1030.64 441.729 1032.33 435.719 C 1034.48 430.06 1035.97 424.162 1037.59 418.334 C 1033.49 404.685 1027.99 389.422 1017.89 378.985 C 1013.04 373.984 1006.88 370.174 999.711 370.385 C 988.03 370.728 984.128 378.44 977.019 385.945 L 976.146 385.305 C 976.416 383.323 976.688 381.28 977.482 379.429 C 980.684 371.964 987.115 368.248 994.201 365.126 z"/>
<path transform="translate(0,0)" fill="rgb(210,195,169)" d="M 1244.11 887.42 C 1255.49 886.909 1269.64 886.608 1280.2 891.342 C 1285.93 893.912 1290.17 897.929 1293.81 902.979 C 1300.75 912.591 1304.73 924.807 1310.23 935.323 C 1315.71 945.803 1322.45 955.57 1328.75 965.563 C 1330.89 968.948 1332.66 972.132 1334.01 975.914 C 1331.5 988.895 1325.96 1001.96 1320.35 1013.87 C 1317.65 1005.01 1314.73 996.145 1311 987.656 C 1303.76 971.175 1293.71 959.178 1276.49 952.652 C 1264.02 947.924 1250.02 946.361 1236.79 945.576 C 1178.35 942.109 1127.48 963.041 1075.58 986.693 C 1088.07 969.985 1100.19 959.73 1117.36 948.148 C 1150.26 926.504 1191.61 917.798 1230.42 915.696 C 1236.9 915.345 1273 921.497 1275.3 919.918 C 1275.05 919.466 1274.84 918.981 1274.54 918.561 C 1270.25 912.68 1250.7 909.025 1243.84 908.456 A 208.587 208.587 0 0 0 1093.01 957.976 C 1096.81 947.866 1101 936.431 1108.09 928.122 C 1122.01 911.836 1181.41 896.309 1203.81 892.143 C 1217.19 889.656 1230.57 888.445 1244.11 887.42 z"/>
<path transform="translate(0,0)" fill="rgb(210,195,169)" d="M 1227.86 1910.35 C 1237.08 1914.3 1247.39 1916.94 1257.07 1919.64 C 1305.16 1933.04 1347.1 1935.18 1395.19 1943.43 C 1430.54 1949.49 1465 1959.17 1500.5 1964.76 C 1582.55 1977.67 1659.25 1976.21 1737.62 1947.19 C 1763.47 1937.61 1785.77 1927.15 1808.11 1910.9 C 1814.55 1915.91 1820.58 1921.64 1826.83 1926.91 L 1820.43 1931.61 C 1799.97 1947.36 1776.55 1957.36 1752.4 1965.91 C 1662.47 1997.76 1585.85 2001.49 1493.15 1979.81 C 1461.25 1972.35 1430.24 1961.9 1397.65 1957.67 C 1343.02 1950.58 1273.05 1955.19 1222.83 1931.22 C 1224.35 1924.24 1226.16 1917.3 1227.86 1910.35 z"/>
<path transform="translate(0,0)" fill="rgb(137,116,110)" d="M 695.344 960.595 C 698.502 963.402 710.209 1009.56 712.703 1017.2 C 721.135 1043.02 729.702 1068.99 739.288 1094.4 C 746.1 1112.45 758.021 1137.89 761.537 1156.35 C 754.51 1167.57 753.041 1172.84 754.791 1185.85 C 737.935 1184.39 721.947 1181.48 705.486 1177.65 A 587.122 587.122 0 0 1 626.171 1152.17 C 638.126 1126.94 650.289 1101.81 660.139 1075.66 C 674.187 1038.36 684.637 998.987 695.344 960.595 z"/>
<path transform="translate(0,0)" fill="rgb(210,195,169)" d="M 920.691 417.772 C 920.546 434.766 917.777 439.999 922.945 457.748 C 933.255 448.599 944.018 440.376 955.118 432.225 C 962.691 454.229 973.396 470.988 989.669 487.48 C 986.239 505.002 982.537 522.272 981.64 540.167 C 988.592 525.094 991.313 508.062 994.635 491.911 C 1007.9 498.558 1016.34 497.459 1030.15 493.138 C 1029.43 500.112 1029.04 506.791 1029.62 513.794 C 1031.25 533.284 1041.33 557.771 1056.32 570.563 C 1061.84 576.494 1067.63 584.337 1075.27 587.461 C 1075.56 587.579 1075.85 587.686 1076.14 587.799 L 1076.33 588.86 C 1045.93 580.76 994.952 596.539 967.317 609.439 C 939.429 558.491 906.143 510.809 899.819 451.472 C 906.068 439.967 913.737 428.887 920.691 417.772 z"/>
<path transform="translate(0,0)" fill="rgb(210,195,169)" d="M 1660.79 1849.97 C 1694.88 1856.16 1773.51 1884.06 1799.45 1906.36 C 1778.57 1926.91 1723.38 1944.75 1694.55 1953.39 C 1652.04 1963.98 1610.32 1964.95 1566.8 1963.91 C 1567.42 1952.3 1569.42 1941.63 1573.51 1930.71 C 1588.31 1891.11 1623.82 1866.82 1660.79 1849.97 z"/>
<path transform="translate(0,0)" fill="rgb(210,195,169)" d="M 897.588 388.891 C 897.556 394.029 895.481 399.894 894.456 405.036 C 892.454 415.073 890.803 425.192 890.195 435.419 C 887.253 484.873 916.688 539.978 940.198 582.083 C 953.538 605.973 967.538 630.352 985.851 650.831 C 983.208 660.854 980.924 670.639 979.018 680.83 C 969.469 662.158 963.207 654.883 947.171 641.658 C 932.256 659.928 921.364 692.733 915.224 715.242 A 964.522 964.522 0 0 0 887.407 626.752 C 879.708 606.604 870.773 585.954 860.505 567.001 C 849.568 546.814 836.451 527.519 828.587 505.837 C 823.65 492.224 819.472 474.791 826.4 461.161 C 831.179 451.76 846.005 449.394 855.336 446.627 C 854.37 485.562 864.122 514.118 879.149 549.314 C 882.837 557.952 886.004 567.815 890.612 575.949 C 891.539 571.232 883.993 553.891 881.958 548.334 C 873.992 526.585 865.9 502.043 863.281 479.017 C 858.604 437.886 873.359 419.474 897.588 388.891 z"/>
<path transform="translate(0,0)" fill="rgb(210,195,169)" d="M 1047 1012.39 L 1047.82 1012.05 C 1063.29 1005.48 1077.77 996.282 1093.08 989.246 C 1144.67 965.548 1219.33 942.148 1274.54 963.69 C 1288.79 969.251 1295.37 978.045 1301.2 991.567 C 1305.14 1000.69 1308.67 1010.36 1311.16 1019.99 C 1283.11 1000.85 1235.59 1009.94 1203.75 1015.98 C 1133.34 1029.34 1062.07 1055.77 998.532 1088.64 C 997.5 1082.81 989.731 1046.11 992.458 1043.75 C 992.908 1043.36 993.478 1043.13 993.987 1042.83 L 989.998 1039.56 C 998.952 1030.03 1026.75 1013.39 1038.9 1008.35 C 1042.04 1008.47 1045.16 1007.82 1047.58 1009.91 L 1046.7 1011.02 L 1047 1012.39 z"/>
<path transform="translate(0,0)" fill="rgb(3,1,3)" d="M 989.998 1039.56 C 998.952 1030.03 1026.75 1013.39 1038.9 1008.35 C 1042.04 1008.47 1045.16 1007.82 1047.58 1009.91 L 1046.7 1011.02 L 1047 1012.39 C 1029.24 1022.15 1012.1 1033.87 993.987 1042.83 L 989.998 1039.56 z"/>
<path transform="translate(0,0)" fill="rgb(254,254,254)" d="M 1097.63 1382.66 C 1098.3 1382.71 1099.42 1382.77 1100.04 1382.95 C 1104.14 1384.1 1106.82 1392.61 1108.36 1396.21 A 618.391 618.391 0 0 1 1129.07 1452.44 C 1134.62 1470.11 1177.41 1625.67 1175.02 1631.58 C 1172.81 1632 1170.02 1632.21 1168.18 1633.56 C 1166.23 1634.98 1165.08 1640.45 1164.62 1642.69 C 1162.2 1654.47 1161.26 1689.48 1168.9 1698.41 C 1177.35 1708.26 1212.02 1713.21 1225.61 1715.4 A 955.632 955.632 0 0 0 1236.68 1758.31 L 1235.87 1759.45 C 1218.69 1754.18 1212.77 1732.12 1196.62 1724.73 C 1182.84 1718.44 1164.6 1720.12 1149.8 1716.54 C 1143.3 1714.97 1140.35 1713.01 1137.04 1707.17 C 1125.09 1686.12 1117.96 1656.97 1110.46 1633.81 C 1102.78 1610.09 1093.03 1584.84 1088.59 1560.32 C 1086.95 1551.3 1085.44 1400.82 1087.97 1392.27 C 1089.55 1386.94 1093.04 1385.2 1097.63 1382.66 z"/>
<path transform="translate(0,0)" fill="rgb(137,116,110)" d="M 1468.64 1589.89 C 1471.87 1595.17 1477.26 1638.89 1479 1648.73 C 1417.39 1682.12 1322.64 1710.24 1252.21 1708.08 C 1229.75 1707.4 1208.65 1702.83 1186.78 1698.13 L 1175.47 1695.34 C 1173.34 1676.76 1170.63 1657.27 1175.07 1638.85 A 57.4752 57.4752 0 0 0 1185.52 1642.7 C 1241.17 1657.55 1312 1642.19 1366.51 1627.92 C 1401.94 1618.65 1436.89 1608.65 1468.64 1589.89 z"/>
<path transform="translate(0,0)" fill="rgb(137,116,110)" d="M 820.412 517.418 C 823.313 518.678 833.702 539.844 835.994 544.016 C 803.203 546.722 770.845 550.989 738.861 558.874 C 643.46 582.392 551.012 631.183 484.262 704.264 C 416.769 778.157 365.251 887.515 327.412 979.585 C 314.414 1011.21 302.898 1043.58 291.442 1075.8 C 289.319 1081.77 285.236 1099.45 282.717 1103.03 C 282.529 1103.29 282.285 1103.51 282.069 1103.75 C 275.334 1098.25 269.295 1091.8 263.509 1085.33 C 279.993 1045.14 292.617 1003.44 307.504 962.644 C 337.066 881.644 374.964 799.169 427.008 730.02 C 495.531 638.975 584.04 587.223 690.166 550.441 C 733.301 535.491 775.154 523.846 820.412 517.418 z"/>
<path transform="translate(0,0)" fill="rgb(210,195,169)" d="M 1003.07 1126.61 C 1003.36 1126.78 1003.66 1126.94 1003.95 1127.14 C 1007.24 1129.41 1010.14 1132.28 1012.12 1135.77 C 1022.04 1153.3 1026.54 1194.47 1029.48 1214.98 C 1020.21 1239.2 988.861 1262.2 966.49 1273.51 C 917.019 1298.52 856.255 1302.45 803.767 1285.36 C 799.832 1276.97 796.565 1268.42 793.315 1259.75 C 781.228 1230.12 765.021 1199.18 762.166 1166.95 C 765.749 1170.24 769.41 1173.51 773.53 1176.13 C 813.386 1201.41 866.849 1205.2 911.988 1195 C 938.811 1188.95 986.567 1170.04 1001.53 1145.37 C 1005.82 1138.29 1004.9 1134.13 1003.07 1126.61 z"/>
<path transform="translate(0,0)" fill="rgb(3,1,3)" d="M 962.544 1215.01 L 963.617 1215.17 C 962.044 1220.2 949.235 1227.04 944.581 1229.51 C 910.279 1247.72 866.535 1251.81 829.447 1240.48 C 827.092 1239.38 825.137 1238.64 823.581 1236.44 C 825.302 1235.07 826.141 1235.22 828.287 1235.21 C 838.639 1235.15 849.125 1237.65 859.508 1238.02 C 896.468 1239.37 929.079 1229.76 962.544 1215.01 z"/>
<path transform="translate(0,0)" fill="rgb(119,99,81)" d="M 752.015 1634.34 C 758.227 1630.63 764.006 1626.69 769.77 1622.31 C 781.261 1646.31 796.317 1656.74 821.099 1665.58 C 827.878 1668 834.79 1670.32 841.792 1672.02 C 844.915 1661.29 850.451 1656.49 860.228 1651.17 C 873.355 1644.04 892.949 1637.24 907.888 1641.48 C 913.401 1643.05 919.082 1646.8 921.622 1652.09 C 922.952 1654.86 923.807 1658.07 924.654 1661.01 C 908.693 1675.06 879.014 1689.67 858.819 1695.59 C 857.055 1692.75 856.08 1690.17 853.131 1688.53 C 851.663 1690.55 852.144 1692.34 852.58 1694.71 C 853.833 1701.52 856.833 1708.04 859.77 1714.27 C 862.657 1720.38 867.468 1725.97 871.636 1731.28 C 885.141 1748.5 899.324 1764.62 920.521 1771.85 C 931.78 1775.69 947.732 1780.95 959.486 1781.63 C 971.031 1784.84 984.331 1784.57 996.256 1785.18 C 1004.38 1776.32 1046.51 1739.24 1048.46 1734.29 L 1046.18 1731.13 C 1046.51 1731.14 1046.85 1731.12 1047.18 1731.17 C 1053.86 1732.28 1060.75 1745.9 1064.25 1751.3 C 1056.75 1757.32 1038.35 1768.7 1035.33 1777.75 C 1035.81 1779.7 1036.24 1780.66 1037.58 1782.23 C 1040.81 1785.98 1046.52 1787.83 1051.34 1787.8 C 1057.05 1787.75 1059.55 1784.12 1063.14 1780.3 C 1061.88 1801.13 1063.55 1816.99 1070.06 1836.9 C 1045.57 1832.8 1020.6 1831.38 996.013 1827.85 A 5100.57 5100.57 0 0 1 787.373 1793.08 C 755.694 1786.81 725.249 1782.89 695.201 1770.13 C 701.99 1746.5 712.351 1721.59 723.805 1699.86 C 722.967 1698.45 723.934 1696.11 724.258 1694.49 L 724.542 1696.13 C 727.435 1691.65 729.559 1686.9 731.765 1682.06 C 752.957 1690.74 778.609 1698.55 788.248 1721.4 C 795.221 1737.94 799.833 1780.92 806.29 1790.33 L 807.531 1789.61 C 811.461 1771.1 800.762 1727.01 790.42 1710.83 C 778.426 1692.07 753.641 1684.29 733.632 1677.63 C 740.92 1663.52 748.606 1650.01 752.015 1634.34 z"/>
<path transform="translate(0,0)" fill="rgb(3,1,3)" d="M 830.942 1718.89 C 836.056 1721.02 854.005 1747.07 861.351 1753.65 A 213.14 213.14 0 0 0 885.142 1772.03 C 892.63 1777.08 905.79 1783.46 911.369 1789.8 L 910.462 1789.64 L 908.956 1789.36 C 882.103 1784.63 857.52 1760.67 841.452 1739.93 C 837.766 1735.17 830.181 1725.01 830.942 1718.89 z"/>
<path transform="translate(0,0)" fill="rgb(3,1,3)" d="M 723.805 1699.86 C 722.967 1698.45 723.934 1696.11 724.258 1694.49 L 724.542 1696.13 C 741.825 1700.41 767.386 1710.68 777.028 1726.64 C 782.998 1736.51 790.446 1773.52 789.349 1784.97 L 788.287 1786.61 C 779.716 1779.61 777.046 1734.87 767.69 1719.81 C 754.452 1711.99 738.617 1704.25 723.805 1699.86 z"/>
<path transform="translate(0,0)" fill="rgb(119,99,81)" d="M 1381.61 1733.29 C 1389.95 1730.78 1411.43 1723.29 1419.18 1727 C 1420.64 1727.7 1420.56 1728.57 1421.09 1729.97 L 1422.24 1732.31 L 1425.68 1732.27 C 1427.91 1741.52 1427.35 1752.28 1426.79 1761.76 L 1426.32 1762.37 L 1425.7 1757.74 C 1425.43 1759.75 1425.32 1764.43 1424.18 1765.93 C 1416.37 1776.18 1355.69 1792.2 1349.23 1808.69 C 1347.94 1811.99 1348.45 1815.29 1350.05 1818.38 C 1351.69 1821.55 1353.64 1823.03 1356.94 1824.18 C 1368.49 1823.96 1417.37 1796.5 1429.07 1788.91 C 1433.67 1791.44 1438.06 1794.43 1442.5 1797.24 C 1423.84 1808.23 1377.34 1826.52 1369.18 1846.72 C 1367.8 1850.13 1367.64 1854.02 1369.36 1857.36 C 1371.14 1860.83 1374.61 1863.06 1378.29 1864.05 C 1383.73 1865.52 1389.13 1863.98 1393.9 1861.29 C 1401.99 1856.72 1408.5 1848.68 1415.56 1842.65 C 1430.29 1830.07 1448.09 1816.44 1465.18 1807.3 L 1466.43 1806.65 C 1476.34 1809.84 1486.24 1813.13 1496.29 1815.86 C 1482.09 1824.73 1436.34 1859.54 1429.72 1871.59 C 1428.4 1874.02 1428.04 1876.76 1429.17 1879.34 C 1431.77 1885.29 1439.4 1888.65 1445.25 1890.26 C 1449.06 1891.31 1455 1892.48 1458.71 1890.5 C 1464.84 1887.22 1477.82 1869.49 1484 1863.55 C 1498.09 1850.03 1516.14 1835.98 1533.13 1826.31 L 1534.45 1825.57 C 1546.54 1827.31 1558.54 1829.87 1570.53 1832.19 C 1556.18 1840.47 1503.44 1879.26 1495.31 1891.68 C 1493.65 1894.22 1492.28 1897.17 1493.38 1900.24 C 1494.97 1904.67 1500.44 1907.37 1504.57 1908.85 C 1509.37 1910.56 1518.12 1912.7 1523.08 1910.58 C 1529.58 1907.81 1544.09 1891.38 1550.28 1885.76 C 1565.82 1871.65 1592.31 1849.51 1610.94 1841.14 C 1611.37 1840.95 1611.8 1840.76 1612.23 1840.57 C 1625.34 1841.77 1638.51 1845.27 1651.46 1847.65 C 1631.96 1854.46 1615.24 1866.14 1600 1879.98 C 1575.67 1902.07 1560.42 1930.38 1558.84 1963.35 A 764.284 764.284 0 0 1 1478.53 1953.35 C 1452.09 1948.38 1425.96 1941.79 1399.51 1936.77 C 1368.95 1930.97 1337.54 1926.93 1306.62 1923.45 C 1298.98 1888.92 1292.82 1850.68 1283.3 1816.99 C 1271.9 1811.74 1259.1 1809.96 1247.93 1803.95 C 1239.96 1799.67 1233.68 1793.91 1231.15 1784.99 C 1229.68 1779.81 1229.51 1773.71 1232.36 1768.93 C 1234.1 1766.01 1235.98 1765.06 1239.2 1764.4 C 1241.82 1766.01 1243.11 1768.77 1244.78 1771.32 C 1255.38 1775.3 1266.51 1776.89 1277.8 1777.25 C 1310.76 1778.31 1363 1769.91 1388.13 1746.47 C 1386.16 1741.99 1383.81 1737.65 1381.61 1733.29 z"/>
<path transform="translate(0,0)" fill="rgb(3,1,3)" d="M 1421.09 1729.97 L 1422.24 1732.31 L 1425.68 1732.27 C 1427.91 1741.52 1427.35 1752.28 1426.79 1761.76 L 1426.32 1762.37 L 1425.7 1757.74 C 1426.02 1749.67 1425.27 1741.55 1424.76 1733.5 C 1404.27 1766.27 1370.98 1777.6 1341.19 1799.19 C 1350.69 1784.11 1364.93 1777.66 1379.5 1768.41 C 1394.51 1758.87 1411.64 1745.28 1421.09 1729.97 z"/>
<path transform="translate(0,0)" fill="rgb(210,195,169)" d="M 1048.93 595.189 C 1052.9 595.15 1057.05 594.581 1060.61 596.585 C 1074.62 613.349 1096.42 661.136 1107.62 682.961 C 1144.95 755.718 1190 823.877 1251.25 878.862 C 1211.15 879.124 1172.71 888.835 1135.55 903.475 C 1125.07 907.604 1112.9 911.745 1105.03 920.12 C 1090.03 936.082 1084.38 966.498 1068.94 986.486 C 1063.64 984.427 1059.78 983.236 1057.39 977.709 C 1054.1 970.082 1054.1 963.52 1047.91 957.322 C 1079.82 929.594 1120.55 883.199 1134.32 842.785 C 1126.42 852.935 1119.77 863.944 1112.25 874.368 C 1096.49 896.215 1078.72 917.504 1059.39 936.28 C 1053.93 941.588 1047.9 948.174 1041.13 951.79 C 1041.85 955.109 1042.56 958.126 1042.13 961.548 C 1007.54 948.367 1020 936.783 1003.93 912.575 C 991.098 893.238 986.394 912.388 974.538 909.905 C 974.195 907.043 975.194 905.649 976.322 903.036 L 973.538 898.996 C 984.649 872.31 993.34 845.384 1000.97 817.486 C 1003.9 806.791 1005.76 795.743 1009.11 785.185 C 1013.09 772.696 1018.97 760.461 1023.93 748.302 A 647.94 647.94 0 0 0 1042.09 698.495 C 1052.64 709.097 1061.98 725.237 1076.21 730.697 C 1089.39 681.751 1066.71 639.576 1048.93 595.189 z"/>
<path transform="translate(0,0)" fill="rgb(3,1,3)" d="M 1063.46 759.766 C 1063.69 761.339 1063.73 760.78 1063.46 762.406 C 1059.73 785.306 1025.3 843.705 1006.88 857.665 C 1005.97 852.512 1026.64 825.109 1030.45 818.903 C 1042.34 799.551 1052.2 779.402 1063.46 759.766 z"/>
<path transform="translate(0,0)" fill="rgb(3,1,3)" d="M 976.322 903.036 C 984.731 894.882 992.356 885.805 1000.46 877.329 C 1023.11 853.638 1045.1 830.249 1065.75 804.722 C 1076.14 791.88 1089.68 769.532 1099.91 759.273 C 1100.35 758.835 1100.77 758.388 1101.21 757.953 C 1101.48 757.686 1101.76 757.429 1102.03 757.167 C 1086.55 799.887 1050.35 840.635 1017.56 871.652 C 1011.33 877.54 993.527 890.809 990.077 896.394 C 992.061 897.252 992.951 896.978 995.089 896.889 C 1000.25 896.675 1003 897.587 1006.68 901.196 C 1021.66 915.919 1021.43 948.129 1041.13 951.79 C 1041.85 955.109 1042.56 958.126 1042.13 961.548 C 1007.54 948.367 1020 936.783 1003.93 912.575 C 991.098 893.238 986.394 912.388 974.538 909.905 C 974.195 907.043 975.194 905.649 976.322 903.036 z"/>
<path transform="translate(0,0)" fill="rgb(210,195,169)" d="M 1237.75 239.439 C 1258.15 269.886 1276.2 285.521 1307.68 304.306 C 1308.19 321.799 1310.37 343.66 1305.95 360.643 C 1302.48 373.968 1295.2 385.783 1288.5 397.66 C 1271.85 427.159 1263.81 454.307 1281.58 485.638 C 1277.73 459.789 1272.13 439.379 1287.38 415.642 L 1288.14 416.794 C 1305.35 442.581 1333.39 465.563 1326.16 500.509 C 1324.62 507.965 1320.51 514.284 1313.89 518.159 C 1305.23 523.224 1294.64 523.011 1285.29 520.148 C 1277.97 517.906 1268.26 513.953 1264.66 506.903 C 1262.87 503.401 1261.53 499.749 1260.26 496.035 C 1258.21 496.803 1257.52 497.456 1256.8 499.658 C 1255.5 503.654 1258.18 510.501 1260.46 513.771 C 1263.1 517.55 1266.96 520.548 1270.51 523.43 C 1269.26 530.857 1268.13 538.327 1266.7 545.721 C 1253.48 542.721 1241.65 538.052 1233.76 526.243 C 1232.2 523.912 1230.91 521.301 1229.62 518.814 C 1235 510.386 1246.6 492.28 1257.15 490.278 C 1261.67 489.42 1266.18 490.009 1270.65 488.616 C 1269.24 486.447 1267.06 485.217 1264.48 484.875 C 1257.11 483.901 1249 490.533 1243.87 495.254 C 1231.08 507.039 1224.9 523.71 1213.18 535.794 C 1212.78 535.549 1212.32 535.383 1211.98 535.058 C 1211.28 534.389 1211.02 533.345 1210.31 532.685 C 1209.16 531.609 1207.33 531.215 1205.82 531.581 C 1203.53 532.137 1202.55 532.868 1201.14 534.58 C 1198.03 535.939 1194.97 537.328 1191.92 538.822 L 1191.07 538.134 L 1191.71 535.629 C 1189.46 534.82 1190.48 534.741 1188.19 535.85 C 1181.67 539.002 1177.05 545.659 1170.8 549.37 C 1169.63 546.19 1169.01 544.332 1169.64 540.961 L 1166.84 538.021 C 1161.81 539.09 1158.24 544.982 1154.25 548.219 C 1151.8 547.046 1149.25 546.127 1146.71 545.17 C 1144.42 541.553 1147.93 536.63 1146.14 532.425 C 1145.38 530.657 1144.67 529.645 1142.95 528.918 C 1141.71 530.208 1140.52 531.383 1139.12 532.5 C 1138.74 532.804 1138.34 533.095 1137.95 533.393 L 1133.85 532.304 C 1130.88 530.141 1129.13 528.176 1127.63 524.819 C 1125.71 520.998 1123.42 517.913 1119.75 515.693 L 1119.12 515.447 C 1122.68 505.047 1109.63 499.775 1108.03 490.113 C 1107.66 487.857 1111.02 485.404 1111.02 482.051 L 1109.89 480.947 C 1108.41 482.067 1107.41 482.717 1105.67 483.47 C 1105.21 482.673 1104.99 482.381 1104.69 481.409 C 1103.96 479.023 1104.2 477.119 1105.32 474.934 C 1109.63 466.525 1103.04 462.42 1103.43 454.084 C 1104.39 452.363 1105.67 450.39 1106.25 448.506 C 1107.17 445.472 1104.3 440.966 1102.92 438.175 L 1102.65 437.03 C 1110.68 426.255 1103.13 426.599 1104.85 417.778 C 1105.57 414.084 1109.21 411.24 1108.67 407.244 C 1108.23 403.994 1106.52 402.582 1104.24 400.543 C 1105.9 399.279 1107.71 398.022 1108.63 396.085 C 1110.35 392.492 1108.41 388.588 1107.14 385.178 C 1110.72 379.503 1124.07 374.573 1130.04 370.772 C 1166.34 347.655 1183.93 308.626 1197.87 269.683 C 1193.03 300.632 1185.36 330.313 1171.4 358.533 C 1196.24 349.234 1220.31 327.258 1231.41 303.076 C 1240.39 283.504 1240.27 260.411 1237.75 239.439 z"/>
<path transform="translate(0,0)" fill="rgb(3,1,3)" d="M 1263.19 408.941 L 1263.82 409.076 L 1264.41 410.09 C 1256.92 422.055 1247.18 454.351 1236.02 460.397 C 1230.23 463.534 1229.3 468.429 1227.08 474.239 C 1229.83 472.343 1232.77 469.699 1236.05 468.995 C 1221.4 487.491 1182.04 512.596 1160.27 521.786 C 1173.07 509.626 1188.27 499.894 1202.73 489.837 C 1212.94 482.529 1220.59 476.134 1226.98 465.062 C 1211.97 464.152 1195.54 462.229 1181.56 456.384 L 1181.89 455.682 C 1196.71 454.827 1211.81 458.071 1226.84 457.825 C 1226.96 447.537 1227.87 437.238 1228.1 426.936 C 1213.59 426.937 1199.75 425.62 1186.59 418.911 C 1223.05 420.342 1227.58 424.098 1263.19 408.941 z"/>
<path transform="translate(0,0)" fill="rgb(210,195,169)" d="M 1247.44 424.253 L 1248.52 424.661 C 1247.78 426.128 1247.07 427.625 1246.29 429.074 C 1242.13 436.866 1239.42 445.031 1236.47 453.338 L 1236 453.471 C 1233.43 450.106 1235.14 431.98 1235.19 426.913 C 1239.29 426.159 1243.37 425.151 1247.44 424.253 z"/>
<path transform="translate(0,0)" fill="rgb(3,1,3)" d="M 1281.37 342.613 C 1282.75 342.622 1284.1 342.92 1285.46 343.137 C 1287.2 344.39 1287.63 345.285 1288.23 347.254 C 1288.66 348.638 1289.05 349.967 1289.58 351.317 C 1290.53 353.736 1291.61 356.18 1291.89 358.793 C 1292.34 363.085 1290.33 367.085 1287.71 370.343 C 1268.32 394.479 1223.14 401.834 1194.5 404.44 C 1191.82 404.713 1189.01 405.177 1186.34 404.674 C 1184.44 404.315 1185.17 404.716 1184.02 403.001 C 1186.3 398.949 1196.54 395.272 1200.99 393.169 C 1230.43 379.239 1257.65 365.472 1281.37 342.613 z"/>
<path transform="translate(0,0)" fill="rgb(119,99,81)" d="M 1281.3 352.521 C 1281.46 352.554 1281.63 352.559 1281.79 352.62 C 1284.32 353.621 1284.47 354.207 1285.77 356.521 C 1285.83 360.239 1285.24 362.851 1283.17 366.002 C 1272.53 382.183 1235.99 391.09 1217.83 395.106 C 1216.33 395.295 1214.83 395.3 1213.32 395.347 C 1217.75 391.184 1228.15 388.717 1233.88 385.552 C 1250.73 376.241 1266.94 365.344 1281.3 352.521 z"/>
<path transform="translate(0,0)" fill="rgb(210,195,169)" d="M 1003.51 1261.86 C 1004.77 1263.84 1027.21 1374.36 1029.73 1385.49 C 1050.01 1475.17 1079 1569.88 1107.39 1657.52 C 1111.73 1670.91 1121.52 1707.47 1130.08 1716.82 C 1133.76 1720.84 1139.37 1723.24 1144.16 1725.68 C 1140.78 1727.45 1136.44 1729.68 1133.77 1732.44 C 1131.48 1734.82 1128.52 1739.29 1128.52 1742.55 C 1132.37 1742.17 1136.47 1737.28 1139.87 1735.23 C 1144.58 1732.39 1150.85 1730.65 1155.97 1728.46 C 1169.15 1729.59 1182.49 1731 1195.41 1733.81 C 1205.31 1743.12 1212.92 1754.34 1223.33 1763.35 C 1220.77 1791.47 1226.06 1804.33 1228.53 1830.81 C 1201.8 1824.78 1187.47 1844.4 1164.07 1851.52 C 1155.13 1848.72 1146.92 1844.88 1138.44 1840.93 C 1144.55 1846.97 1151.23 1854.41 1159.65 1857.05 C 1178.74 1863.03 1207.86 1831.4 1222.94 1834.5 C 1225.22 1834.96 1226.81 1835.8 1227.89 1837.97 C 1231.85 1845.87 1222.54 1889.18 1220.46 1899.88 C 1201.12 1895.81 1153.37 1887.21 1138.58 1878.08 C 1120.73 1859.16 1116.99 1832.33 1094.23 1817.33 C 1102.79 1829.73 1111.62 1841 1119.28 1854.09 C 1110.69 1847.23 1103.09 1841.32 1092.76 1837.36 C 1103.61 1850.89 1116.91 1860.44 1125.71 1875.68 C 1118.98 1874.92 1111.53 1874.34 1105.2 1871.84 C 1092.73 1866.93 1087.43 1856.31 1082.74 1844.6 C 1077.22 1830.83 1071.88 1816.61 1071.15 1801.65 C 1070.55 1789.47 1078.14 1758.85 1075.62 1752.38 C 1072.68 1744.83 1062.12 1732.59 1057.52 1724.53 C 1035.83 1686.59 1014.32 1649.03 994.559 1610.03 C 962.39 1546.54 931.459 1482.8 903.765 1417.21 C 888.236 1380.43 875.159 1342.64 859.567 1305.88 C 911.501 1307.43 962.516 1294.71 1003.51 1261.86 z"/>
<path transform="translate(0,0)" fill="rgb(119,99,81)" d="M 994.21 139.387 C 995.843 131.319 998.058 123.589 1001.89 116.268 C 1014.16 92.8431 1036.07 79.9436 1059.28 69.3553 C 1065.02 66.7388 1071.11 63.437 1077.2 61.7726 C 1080.1 60.9801 1082.27 60.7408 1084.87 62.2878 C 1086.2 68.7535 1073.75 83.4252 1070.97 90.439 C 1068.26 97.2748 1067.16 103.984 1066.6 111.278 C 1084.5 95.2215 1105.52 87.08 1128.57 81.164 C 1132.72 80.0991 1138.83 78.0999 1142.75 80.4054 L 1143.25 82.4718 C 1140.91 88.9055 1132.33 95.9479 1127.57 100.887 C 1153.61 92.8588 1181.25 93.3531 1206.94 84.5556 C 1218.2 80.7025 1224.45 70.0365 1234.83 65.8071 C 1237.7 66.2391 1238.14 66.3184 1240.35 68.1763 C 1241.14 69.9691 1241.55 71.2703 1241.61 73.2649 C 1242.21 90.9464 1225.1 118.097 1213.62 130.595 C 1234.87 126.186 1256.43 121.65 1277.03 114.73 C 1283.05 112.708 1288.58 109.86 1294.47 107.717 C 1297.17 106.734 1298.25 107.289 1300.66 108.599 C 1301.19 110.063 1301.69 110.398 1301.03 111.975 C 1296.87 122.06 1258.44 144.985 1247.7 150.324 C 1244.98 150.473 1243.5 149.489 1241.1 148.37 A 2313.11 2313.11 0 0 0 1218.92 162.705 C 1247.34 154.066 1264.55 156.65 1293 155.268 C 1313.02 154.295 1332.13 150.723 1351.02 144.037 C 1345.2 162.965 1333.47 174.178 1316.33 183.201 C 1305.59 188.852 1292.28 187.786 1284.71 191.87 C 1286.02 194.298 1287.05 194.478 1289.66 195.26 C 1324.35 205.67 1356.69 210.455 1384 237.041 C 1389.3 242.205 1395.17 248.119 1398.8 254.63 C 1400.03 256.847 1400.46 258.725 1400.75 261.22 C 1399.99 263.585 1399.79 265.037 1397.32 266.231 C 1386.41 271.524 1341.18 254.989 1329.88 248.979 C 1319.47 243.438 1310.61 234.736 1301.82 226.965 C 1317.46 250.718 1342.33 264.839 1367.21 277.306 C 1374.12 280.769 1382.11 285.201 1389.7 286.711 C 1392.23 287.213 1394.88 287.316 1397.44 287.441 C 1407.51 296.307 1414.42 304.903 1419.99 317.16 C 1372.49 316.529 1348.51 305.834 1311.97 276.431 L 1312.59 277.612 C 1317 285.815 1324.22 292.946 1326.08 302.238 L 1325.44 304.035 C 1321.06 303.42 1316.77 300.837 1312.8 298.888 A 180.628 180.628 0 0 1 1249.94 247.529 C 1238.49 232.461 1233.85 213.685 1222.61 199.812 L 1222.75 199.423 L 1220.41 199.679 L 1220.38 198.859 L 1220.91 198.366 L 1220.46 199.139 C 1222.87 208.7 1226.22 218.097 1228.31 227.71 C 1233.94 253.589 1234.28 284.472 1220.34 307.87 C 1211.11 323.356 1196.65 336.601 1182.46 347.498 C 1190.88 326.819 1212.25 269.357 1202.66 249.112 C 1201.84 247.386 1200.8 245.751 1199.78 244.14 C 1193.48 256.698 1190.1 269.877 1184.98 282.857 C 1171.32 317.537 1150.35 349.077 1118.51 369.259 C 1103.62 378.696 1082.07 384.54 1069.19 394.231 L 1069.8 395.348 L 1068.51 396.107 C 1062.96 394.571 1054.04 396.884 1049.76 394.484 C 1048.51 393.783 1048.02 392.065 1047.82 390.759 C 1047.38 387.983 1047.75 385.009 1049.53 382.936 L 1051 383.15 C 1055.68 381.444 1063.43 379.542 1066.01 374.974 L 1064.49 374.13 C 1058.99 374.671 1054.48 377.302 1049.61 379.733 C 1054.1 376.926 1058.52 374.206 1062.13 370.281 C 1066.62 365.407 1068.99 359.933 1068.65 353.271 L 1067.4 352.405 C 1060.19 353.108 1051.87 357.713 1044.92 360.151 C 1030.11 348.11 1013.99 331.951 993.176 334.319 C 981.42 335.656 971.984 343.605 965.142 352.794 C 949.792 373.409 947.177 399.116 950.823 423.844 A 164.309 164.309 0 0 1 925.907 443.984 C 926.173 435.683 930.671 411.534 927.983 405.47 C 927.404 404.163 927.374 404.559 925.799 404.082 C 917.519 406.938 903.616 431.572 898.54 439.252 L 897.353 439.342 C 901.133 425.153 901.821 410.95 904.569 396.492 C 908.593 375.323 914.31 354.371 918.974 333.322 C 909.706 346.162 906.75 361.688 898.886 375.168 C 890.457 389.618 877.81 401.919 868.727 416.247 C 867.7 414.13 866.745 411.995 865.972 409.77 C 855.583 379.879 875.028 353.825 887.648 328.611 C 872.401 341.671 863.864 360.327 854.535 377.708 L 855.72 378.242 C 857.4 378.986 856.717 378.712 858.436 379.289 C 859.073 381.397 858.895 381.822 858.675 383.945 C 857.869 391.69 861.446 408.626 860.344 412.853 C 856.197 402.525 856.585 391.881 856.856 380.975 C 853.635 387.696 848.848 406.504 846.505 409.717 C 845.381 411.258 845.315 410.891 843.58 411.169 C 841.478 409.635 840.519 407.865 839.492 405.531 C 831.591 387.577 836.187 366.206 842.537 348.594 C 837.825 355.498 833.782 362.702 829.713 369.993 C 826.74 376.482 824.333 386.379 818.951 391.1 L 817.201 390.811 C 813.674 384.76 814.652 372.301 815.214 365.41 C 817.343 339.287 827.016 308.936 847.366 291.221 C 854.816 284.736 863.628 280.206 871.115 273.778 C 871.429 273.508 871.738 273.232 872.049 272.959 C 856.506 273.806 840.611 276.111 825.526 270.547 C 822.401 269.394 821.194 268.216 819.924 265.193 C 824.059 260.365 852.128 254.224 859.538 246.627 C 859.762 246.397 859.935 246.122 860.134 245.87 C 863.14 237.208 866.475 229.312 872.118 222.008 C 891.849 196.466 924.395 182.304 955.603 178.39 A 256.698 256.698 0 0 1 947.851 172.597 C 938.151 164.983 918.729 144.104 917.819 131.348 C 917.681 129.409 917.729 129.307 919.104 127.877 C 920.258 127.764 944.884 140.64 951.345 142.451 C 946.679 134.037 933.715 112.498 936.081 102.508 C 936.416 101.095 937.264 101.162 938.455 100.607 C 943.856 102.382 953.247 114.119 958.709 118.441 C 969.689 127.129 981.633 133.414 994.21 139.387 z"/>
<path transform="translate(0,0)" fill="rgb(3,1,3)" d="M 1041.65 189.072 C 1045.59 190.524 1048.48 192.876 1051.32 195.966 C 1054.28 199.173 1057.23 203.008 1057.12 207.459 C 1052.34 202.582 1042.29 197.444 1040.21 191.096 L 1041.65 189.072 z"/>
<path transform="translate(0,0)" fill="rgb(3,1,3)" d="M 1026.04 243.111 C 1032.91 242.681 1037.29 243.105 1043.72 245.518 L 1044.41 247.339 L 1045.39 246.898 L 1044.39 245.857 L 1044.45 247.353 C 1040.04 248.026 1035.68 247.426 1031.26 247.043 C 1026.31 247.724 1022.17 251.213 1017.86 251.553 C 1016.38 251.669 1016.71 251.622 1015.79 250.645 L 1016.41 248.782 C 1019.46 246.166 1022.38 244.73 1026.04 243.111 z"/>
<path transform="translate(0,0)" fill="rgb(3,1,3)" d="M 961.949 275.89 C 962.109 276.793 962.215 276.999 962.002 278.032 C 961.284 281.513 957.695 285.537 954.993 287.677 C 945.801 294.959 933.071 296.008 921.899 294.589 L 921.367 292.946 C 922.956 291.914 922.407 292.006 924.034 291.776 C 942.741 289.141 946.79 287.059 961.949 275.89 z"/>
<path transform="translate(0,0)" fill="rgb(3,1,3)" d="M 1075.9 146.548 L 1077.3 147.454 C 1074.92 159.184 1064.37 170.336 1066.32 183.082 L 1067.76 183.872 C 1075.03 180.836 1079.04 173.571 1085.44 169.464 L 1085.34 172.146 C 1079.66 179.977 1073.73 185.578 1065.94 191.293 C 1063.46 187.148 1061.42 183.455 1061.41 178.493 C 1061.37 166.502 1067.57 154.878 1075.9 146.548 z"/>
<path transform="translate(0,0)" fill="rgb(3,1,3)" d="M 1058.95 299.986 C 1060.81 299.837 1061.83 300.156 1063.55 300.845 L 1063.76 302.71 C 1063.04 303.851 1062.3 304.781 1061.18 305.569 C 1048.68 314.388 1026.38 316.114 1011.61 314.284 C 1009.26 312.975 1006.91 312.068 1005.76 309.483 C 1006.97 307.731 1020 309.988 1023.62 309.824 C 1035.94 309.265 1047.53 304.23 1058.95 299.986 z"/>
<path transform="translate(0,0)" fill="rgb(3,1,3)" d="M 943.811 240.853 C 943.779 241.365 943.79 241.881 943.713 242.388 C 942.319 251.646 929.196 260.656 922.246 265.942 C 932.112 265.964 941.02 262.656 950.542 262.44 C 952.89 262.387 951.938 262.076 953.677 263.663 C 952.532 266.632 951.067 267.259 948.567 269.153 A 47.6387 47.6387 0 0 1 929.382 271.66 C 924.869 271.358 918.492 271.156 915.332 267.586 C 915.434 266.963 915.35 266.279 915.637 265.717 C 916.335 264.349 922.637 260.39 924.237 259.156 C 931.595 253.479 937.607 247.798 943.811 240.853 z"/>
<path transform="translate(0,0)" fill="rgb(3,1,3)" d="M 1166.12 232.534 L 1167.62 234.258 C 1168.8 240.732 1163.84 252.923 1160.89 258.908 C 1149.94 281.114 1131.45 298.73 1108 306.808 L 1107.65 306.454 C 1107.8 305.855 1128.08 291.258 1130.95 288.566 C 1142.47 277.754 1151.15 264.642 1157.87 250.413 C 1160.55 244.725 1162.57 238.711 1165.7 233.247 C 1165.84 233.008 1165.98 232.772 1166.12 232.534 z"/>
<path transform="translate(0,0)" fill="rgb(3,1,3)" d="M 1027.3 262.692 C 1028.12 265.242 1027.58 267.024 1026.7 269.455 C 1022.07 282.18 1010.33 292.36 998.248 297.701 C 1014.22 298.856 1030.2 297.996 1046.1 299.098 C 1039.27 301.958 1033.02 303.649 1025.76 304.892 C 1013.53 305.388 994.774 307.226 984.783 298.984 C 983.984 296.314 984.265 296.338 985.487 293.783 A 201.869 201.869 0 0 0 990.111 293.151 C 1009.09 290.305 1016.63 277.032 1027.3 262.692 z"/>
<path transform="translate(0,0)" fill="rgb(3,1,3)" d="M 1065.82 342.766 C 1066.22 342.58 1066.62 342.389 1067.02 342.207 C 1078.37 337.076 1090.7 333.791 1102.45 329.671 C 1120.52 323.337 1133.79 312.515 1148.27 300.403 C 1136.99 322.48 1117.44 351.763 1100.2 369.688 C 1092.57 377.627 1072.07 384.653 1067.75 393.638 L 1069.19 394.231 L 1069.8 395.348 L 1068.51 396.107 C 1062.96 394.571 1054.04 396.884 1049.76 394.484 C 1048.51 393.783 1048.02 392.065 1047.82 390.759 C 1047.38 387.983 1047.75 385.009 1049.53 382.936 L 1051 383.15 C 1049.93 385.822 1049.02 388.054 1048.86 390.977 C 1049.89 392.725 1049.99 393.335 1052.1 393.846 C 1055.27 394.611 1059.42 394.117 1062.69 394.058 L 1064.04 392.76 C 1072.13 385.101 1081.49 379.562 1090.2 372.742 C 1105.88 360.469 1115.65 341.895 1125.81 325.165 C 1106.8 334.584 1086.82 340.077 1065.82 342.766 z"/>
<path transform="translate(0,0)" fill="rgb(3,1,3)" d="M 826.78 363.868 C 838.338 343.519 856.926 320.467 879.065 311.607 C 855.662 337.885 839.955 353.749 841.966 391.252 A 185.635 185.635 0 0 0 842.486 398.222 C 846.296 391.429 849.992 384.024 854.535 377.708 L 855.72 378.242 C 857.4 378.986 856.717 378.712 858.436 379.289 C 859.073 381.397 858.895 381.822 858.675 383.945 C 857.869 391.69 861.446 408.626 860.344 412.853 C 856.197 402.525 856.585 391.881 856.856 380.975 C 853.635 387.696 848.848 406.504 846.505 409.717 C 845.381 411.258 845.315 410.891 843.58 411.169 C 841.478 409.635 840.519 407.865 839.492 405.531 C 831.591 387.577 836.187 366.206 842.537 348.594 C 837.825 355.498 833.782 362.702 829.713 369.993 L 826.78 363.868 z"/>
<path transform="translate(0,0)" fill="url(#Gradient3)" d="M 865.998 244.299 L 867.545 243.785 C 877.546 240.363 887.018 232.515 897.751 231.724 L 898.031 232.817 C 888.911 244.051 849.328 260.313 834.55 266.837 C 854.54 267.422 875.857 267.696 894.337 259.127 C 885.569 272.515 876.133 279.25 863.392 288.533 C 834.049 309.912 824.751 337.932 822.276 373.516 L 826.78 363.868 L 829.713 369.993 C 826.74 376.482 824.333 386.379 818.951 391.1 L 817.201 390.811 C 813.674 384.76 814.652 372.301 815.214 365.41 C 817.343 339.287 827.016 308.936 847.366 291.221 C 854.816 284.736 863.628 280.206 871.115 273.778 C 871.429 273.508 871.738 273.232 872.049 272.959 C 856.506 273.806 840.611 276.111 825.526 270.547 C 822.401 269.394 821.194 268.216 819.924 265.193 C 824.059 260.365 852.128 254.224 859.538 246.627 C 859.762 246.397 859.935 246.122 860.134 245.87 C 862.368 245.626 863.885 245.045 865.998 244.299 z"/>
<path transform="translate(0,0)" fill="rgb(3,1,3)" d="M 994.21 139.387 C 995.843 131.319 998.058 123.589 1001.89 116.268 C 1014.16 92.8431 1036.07 79.9436 1059.28 69.3553 C 1065.02 66.7388 1071.11 63.437 1077.2 61.7726 C 1080.1 60.9801 1082.27 60.7408 1084.87 62.2878 C 1086.2 68.7535 1073.75 83.4252 1070.97 90.439 C 1068.26 97.2748 1067.16 103.984 1066.6 111.278 C 1084.5 95.2215 1105.52 87.08 1128.57 81.164 C 1132.72 80.0991 1138.83 78.0999 1142.75 80.4054 L 1143.25 82.4718 C 1140.91 88.9055 1132.33 95.9479 1127.57 100.887 C 1153.61 92.8588 1181.25 93.3531 1206.94 84.5556 C 1218.2 80.7025 1224.45 70.0365 1234.83 65.8071 C 1237.7 66.2391 1238.14 66.3184 1240.35 68.1763 C 1241.14 69.9691 1241.55 71.2703 1241.61 73.2649 C 1242.21 90.9464 1225.1 118.097 1213.62 130.595 C 1234.87 126.186 1256.43 121.65 1277.03 114.73 C 1283.05 112.708 1288.58 109.86 1294.47 107.717 C 1297.17 106.734 1298.25 107.289 1300.66 108.599 C 1301.19 110.063 1301.69 110.398 1301.03 111.975 C 1296.87 122.06 1258.44 144.985 1247.7 150.324 C 1244.98 150.473 1243.5 149.489 1241.1 148.37 C 1254.86 139.874 1269.25 131.735 1281.38 120.964 C 1270.24 124.14 1180.13 146.248 1173.17 144.563 L 1173.14 143.077 C 1178.18 138.058 1186.52 136.588 1192.98 133.866 C 1215.04 124.574 1228.2 100.144 1232.64 77.5948 C 1204.67 99.1732 1179.62 98.0499 1146.61 103.623 C 1133.44 105.848 1120.99 109.573 1108.49 114.229 C 1114.71 105 1122.13 96.7868 1129.86 88.8004 C 1097.95 96.0403 1076.52 107.754 1054.41 131.736 C 1060.08 108.759 1059.69 93.1448 1071.39 71.2184 C 1044.22 84.755 1014.83 97.2654 1004.64 128.471 C 1001.78 137.207 1001.15 158.835 1000.09 161.003 C 997.934 160.245 997.899 160.219 997.002 158.192 C 995.528 154.863 995.221 144.313 992.293 143.267 C 991.934 143.139 988.848 142.958 988.647 142.943 C 974.826 141.854 957.754 126.076 947.474 117.481 C 950.147 127.353 953.749 134 959.829 142.169 C 964.81 144.141 968.678 146.59 972.89 149.861 C 958.473 150.24 945.798 148.15 932.627 142.097 C 942.785 160.401 957.947 169.175 972.636 183.312 C 961.194 185.25 949.497 186.185 938.211 188.878 C 914.745 194.478 888.939 209.065 874.787 229.011 C 871.417 233.761 868.629 239.11 865.998 244.299 C 863.885 245.045 862.368 245.626 860.134 245.87 C 863.14 237.208 866.475 229.312 872.118 222.008 C 891.849 196.466 924.395 182.304 955.603 178.39 A 256.698 256.698 0 0 1 947.851 172.597 C 938.151 164.983 918.729 144.104 917.819 131.348 C 917.681 129.409 917.729 129.307 919.104 127.877 C 920.258 127.764 944.884 140.64 951.345 142.451 C 946.679 134.037 933.715 112.498 936.081 102.508 C 936.416 101.095 937.264 101.162 938.455 100.607 C 943.856 102.382 953.247 114.119 958.709 118.441 C 969.689 127.129 981.633 133.414 994.21 139.387 z"/>
<path transform="translate(0,0)" fill="rgb(137,116,110)" d="M 666.566 881.457 C 671.086 884.305 675.842 892.581 678.134 897.397 C 682.486 906.54 690.681 929.917 690.828 939.955 C 691.035 953.994 685.141 969.641 681.224 983.042 A 1128.59 1128.59 0 0 1 642 1094.87 C 633.56 1115.06 622.888 1134.46 615.609 1155.1 C 638.877 1169.88 696.799 1185.45 724.789 1189.68 C 735.261 1191.27 745.689 1191.66 756.263 1191.58 C 760.616 1207.91 766.808 1224.7 773.382 1240.27 C 700.91 1271.91 631.703 1306.64 565.211 1349.76 C 532.723 1370.82 501.522 1394.21 470.355 1417.17 C 444.085 1436.52 406.94 1462.97 386.202 1487.89 C 386.454 1487.76 386.705 1487.62 386.959 1487.5 C 410.026 1476.05 444.275 1448.51 466.018 1432.77 C 513.015 1398.76 560.139 1364.78 610.058 1335.14 A 1356.32 1356.32 0 0 1 628.059 1324.39 C 613.298 1339.64 596.872 1353.2 581.698 1368.04 A 1507.24 1507.24 0 0 0 479.057 1477.26 A 1072.79 1072.79 0 0 0 428.36 1542.61 C 419.128 1555.57 410.844 1569.47 400.854 1581.83 L 399.852 1583.06 C 395.305 1579.27 390.989 1575.31 386.686 1571.24 C 387.407 1552.31 394.093 1531.97 392.14 1513.17 C 387.572 1508.49 369.929 1508.72 362.869 1507.61 C 374.139 1496.45 393.307 1478.99 394.19 1462 C 394.647 1453.2 366.234 1413.36 363.198 1392.89 C 360.41 1374.09 363.721 1351.94 365.253 1333.02 C 368.042 1298.55 371.567 1264.23 374.989 1229.83 C 377.624 1203.34 378.27 1176.54 381.836 1150.16 A 548.703 548.703 0 0 0 405.525 1143.11 C 465.406 1123.51 521.268 1081.57 562.997 1035.08 C 580.506 1015.57 596.108 994.115 611.146 972.68 A 734.323 734.323 0 0 0 666.566 881.457 z"/>
<path transform="translate(0,0)" fill="rgb(137,116,110)" d="M 1000.21 1095.79 C 1072.37 1060.33 1173.26 1024.27 1253.67 1018.66 C 1269.19 1017.57 1287.4 1016.73 1302.34 1021.81 C 1341.34 1061.97 1391.97 1316.42 1405.99 1383.73 C 1412.11 1413.14 1418.82 1442.4 1424.65 1471.88 L 1438.66 1544.73 C 1441.6 1560.13 1444.12 1575.83 1448.23 1590.96 C 1367.3 1624.6 1271.03 1650.07 1183.17 1634.92 C 1182.05 1609.24 1172.75 1576.62 1166.4 1551.43 C 1152.48 1496.21 1138.99 1438.38 1114.11 1386.82 L 1112.42 1382.78 C 1111.44 1382.56 1110.34 1381.36 1109.68 1380.71 C 1106.55 1377.62 1105.33 1376.09 1100.91 1374.79 C 1100.55 1374.69 1100.19 1374.59 1099.83 1374.5 C 1099.25 1371.69 1147.92 1252.16 1152.61 1241.42 A 1128.82 1128.82 0 0 1 1175.59 1193.06 C 1179.63 1184.98 1196.54 1157.35 1195.22 1149.83 L 1193.53 1149.61 C 1182.5 1161.81 1174.18 1178.48 1166.47 1193.02 A 949.426 949.426 0 0 0 1092.92 1374.86 C 1086.58 1377.29 1081.41 1381.83 1075.38 1384.09 C 1073.47 1384.81 1074.3 1384.83 1072.57 1384.04 L 1073.46 1378.96 C 1072.04 1380.03 1071.41 1380.53 1070.7 1382.23 C 1070.53 1382.65 1070.41 1383.08 1070.26 1383.5 C 1070.06 1381.88 1070.27 1382.69 1069.36 1380.77 C 1069.11 1380.26 1068.85 1379.75 1068.59 1379.23 C 1068.15 1383.1 1067.83 1387.04 1067.24 1390.89 L 1047.64 1406.45 C 1034.6 1355.67 1023.84 1303.81 1014.43 1252.23 C 1024.52 1241.56 1040.16 1228.69 1039.97 1212.83 C 1039.74 1195.07 1029.57 1135.86 1017.31 1124.35 C 1013.42 1120.69 1008.22 1118.35 1003.51 1115.92 L 1000.21 1095.79 z"/>
<path transform="translate(0,0)" fill="url(#Gradient4)" d="M 1212.09 1155.63 C 1211.17 1165.31 1209.15 1174.22 1206.25 1183.5 C 1189.19 1238.17 1163.84 1292.06 1138.53 1343.27 C 1131.71 1357.07 1124.3 1375.28 1114.11 1386.82 L 1112.42 1382.78 C 1118.95 1366.86 1127.04 1351.54 1134.23 1335.9 A 3090.4 3090.4 0 0 0 1165.98 1263.11 A 2292.11 2292.11 0 0 0 1189.68 1205.65 C 1196.42 1188.77 1202.32 1171.03 1212.09 1155.63 z"/>
<path transform="translate(0,0)" fill="url(#Gradient5)" d="M 1068.59 1379.23 C 1077.64 1309.17 1113.42 1234.56 1149.54 1174.55 C 1154.91 1165.61 1162.29 1149.86 1170.45 1143.59 C 1170.84 1143.3 1171.24 1143.03 1171.64 1142.74 L 1173.35 1143.21 C 1173.48 1146.58 1171.41 1150.31 1169.95 1153.32 C 1163.94 1165.76 1156.45 1177.62 1149.68 1189.66 C 1137.1 1212.08 1124.73 1235.08 1114.44 1258.66 C 1104.32 1281.88 1094.23 1305.76 1086.93 1330.03 C 1082.97 1343.22 1078.5 1367.63 1073.46 1378.96 C 1072.04 1380.03 1071.41 1380.53 1070.7 1382.23 C 1070.53 1382.65 1070.41 1383.08 1070.26 1383.5 C 1070.06 1381.88 1070.27 1382.69 1069.36 1380.77 C 1069.11 1380.26 1068.85 1379.75 1068.59 1379.23 z"/>
<path transform="translate(0,0)" fill="rgb(3,1,3)" d="M 1277.19 1310.51 C 1278.15 1311.32 1278.66 1311.85 1278.85 1313.18 C 1279.55 1318.11 1277.75 1325.87 1277.16 1330.83 C 1272.97 1365.98 1265.09 1401.15 1257.5 1435.72 C 1247.86 1479.68 1237.79 1523.64 1224.63 1566.69 C 1219.49 1583.49 1214 1600.78 1205.24 1616.06 L 1204.8 1615.61 C 1204.16 1611.01 1216.02 1576.9 1218.12 1567.96 C 1229.92 1517.8 1242.83 1467.88 1253.9 1417.55 A 6393.19 6393.19 0 0 0 1267.7 1354.54 C 1270.74 1339.93 1273.1 1324.85 1277.19 1310.51 z"/>
<path transform="translate(0,0)" fill="rgb(137,116,110)" d="M 252.16 1164.73 C 283.84 1192.33 313.518 1211.5 356.852 1213.39 C 362.769 1206.86 367.035 1198.87 371.316 1191.21 C 366.664 1235.4 361.21 1279.43 357.378 1323.71 C 355.446 1346.03 351.405 1374.63 355.371 1396.6 C 359.316 1418.46 373.037 1444.61 386.835 1461.84 C 381.866 1477.91 370.59 1489.62 358.523 1500.95 C 355.532 1503.76 351.536 1506.48 348.914 1509.56 C 347.531 1511.19 347.569 1511.41 348.393 1513.25 C 350.657 1512.93 352.605 1512.43 354.767 1511.69 C 364.499 1515.5 372.867 1517.93 383.316 1519.21 C 383.687 1519.26 384.058 1519.29 384.429 1519.33 C 382.792 1531.24 374.971 1568.91 381.375 1577.74 C 384.929 1582.64 391.131 1585.87 395.643 1589.89 C 384.67 1607.16 369.103 1629.42 363.07 1648.82 C 377.67 1635.36 388.503 1616.61 399.1 1599.93 C 411.014 1602.14 422.824 1602.97 434.881 1603.87 C 430.308 1614.7 405.479 1670.67 406.915 1678.86 C 414.006 1673.45 418.036 1659.93 421.714 1651.84 A 1810.73 1810.73 0 0 1 501.622 1493.77 C 507.114 1484.32 539.241 1439.09 539.513 1435.38 C 539.538 1435.04 539.464 1434.71 539.44 1434.38 L 537.982 1433.19 C 529.782 1437.92 522.028 1450.2 515.979 1457.65 C 486.628 1495.24 456.45 1552.83 437.764 1596.7 C 426.993 1594.34 415.197 1594.43 404.196 1593.1 C 437.154 1544.63 474.102 1496.46 514.454 1453.94 C 522.016 1443.63 531.659 1434.3 540.341 1424.88 C 577.857 1384.2 633.382 1327.23 681.48 1301.09 C 639.092 1339.96 606.773 1390.91 578.393 1440.56 C 568.966 1457.06 559.255 1473.93 551.968 1491.5 L 552.961 1490.26 C 566.332 1473.33 577.704 1453.98 589.618 1435.97 C 616.137 1395.87 642.623 1355.66 674.106 1319.23 C 681.601 1310.56 688.745 1300.1 697.43 1292.69 C 712.025 1280.23 730.33 1271.34 746.965 1261.97 C 756.566 1256.55 766.151 1249.77 776.239 1245.43 C 782.359 1260.26 787.764 1278.62 796.54 1291.94 C 812.057 1300.12 828.433 1301.72 845.297 1305.24 A 2846.95 2846.95 0 0 0 919.254 1480.96 C 895.222 1517.3 847.119 1548.24 811.977 1574.18 C 795.176 1586.57 779.448 1600.37 762.67 1612.8 C 689.064 1667.3 605.475 1720.15 514.594 1738.79 C 493.317 1743.15 471.946 1744.35 450.292 1744.24 C 375.487 1743.87 311.624 1721.58 247.645 1683.8 C 242.143 1659.17 239.435 1633.47 236.84 1608.39 A 1584.63 1584.63 0 0 1 235.062 1323.07 A 4732.66 4732.66 0 0 1 246.103 1223.49 C 248.393 1204.02 251.226 1184.31 252.16 1164.73 z"/>
<path transform="translate(0,0)" fill="rgb(210,195,169)" d="M 288.577 1108.28 C 294.972 1090.02 302.575 1072.21 309.37 1054.1 C 349.33 947.603 394.039 843.016 460.114 749.669 C 530.106 650.79 639.334 589.032 755.841 562.079 C 783.552 555.668 811.604 553.35 839.55 548.563 C 843.773 556.754 859.963 584.401 858.837 592.033 L 859.479 593.63 L 861.265 593.988 C 877.433 620.53 888.404 660.682 897.879 690.498 C 929.825 791.029 950.871 886.578 970.318 990.008 C 979.723 1040.03 986.62 1090.95 997.871 1140.55 C 958.756 1174.55 906.688 1193.75 854.538 1190.27 C 826.61 1188.41 798.901 1181.57 775.042 1166.56 C 773.936 1155.57 767.471 1144.01 763.656 1133.59 A 3636.57 3636.57 0 0 1 745.719 1082.86 A 3822.29 3822.29 0 0 1 690.343 908.796 C 705.374 926.818 721.67 944.614 738.864 960.595 C 778.72 997.64 851.269 1053.19 905.118 1066.19 C 886.138 1053.93 866.015 1043.45 846.961 1031.29 A 665.789 665.789 0 0 1 712.839 920.08 C 684.4 889.672 659.875 853.425 638.097 818.026 C 634.849 812.746 629.461 800.88 623.869 798.288 C 621.466 807.456 640.017 838.83 645.054 847.464 C 649.983 855.915 655.441 863.922 661.294 871.758 C 613.273 959.436 558.797 1040.07 474.679 1096.51 C 453.737 1110.56 430.642 1123.78 406.583 1131.75 L 402.398 1130.94 L 401.106 1133.15 C 393.086 1136.78 384.855 1140.15 375.978 1140.78 C 352.345 1142.43 305.739 1123.74 288.577 1108.28 z"/>
<path transform="translate(0,0)" fill="rgb(3,1,3)" d="M 561.446 780.768 C 564.979 781.884 567.384 783.301 570.195 785.737 C 583.633 797.383 626.077 845.204 635.06 859.488 C 633.732 859.114 632.411 858.747 631.176 858.116 C 611.266 847.948 568.553 801.41 561.446 780.768 z"/>
<path transform="translate(0,0)" fill="url(#Gradient6)" d="M 951.002 1108.89 L 952.003 1110.12 C 950.847 1115.32 944.624 1120.22 940.629 1123.62 C 910.364 1149.44 875.725 1158.9 836.505 1155.74 C 835.324 1154.86 835.139 1154.39 834.499 1153.11 C 837.908 1149.71 872.523 1145.34 881.135 1143.04 C 907.689 1135.95 928.952 1125.02 951.002 1108.89 z"/>
<path transform="translate(0,0)" fill="rgb(3,1,3)" d="M 858.837 592.033 L 859.479 593.63 C 846.49 601.215 815.091 607.027 798.03 614.148 C 751.506 633.566 715.027 670.266 687.094 711.54 C 678.745 723.877 671.463 736.902 663.315 749.369 A 202.66 202.66 0 0 1 690.624 693.832 C 735.883 628.201 782.954 606.129 858.837 592.033 z"/>
<path transform="translate(0,0)" fill="rgb(3,1,3)" d="M 402.398 1130.94 C 430.613 1062.84 544.706 884.277 601.973 842.005 A 2140.91 2140.91 0 0 0 406.583 1131.75 L 402.398 1130.94 z"/>
</svg>