<svg version="1.1" xmlns="http://www.w3.org/2000/svg" style="display: block;" viewBox="0 0 2048 2048" width="1024" height="1024">
<defs>
	<linearGradient id="Gradient1" gradientUnits="userSpaceOnUse" x1="1152.25" y1="1409.35" x2="1164.74" y2="1434.65">
		<stop class="stop0" offset="0" stop-opacity="1" stop-color="rgb(105,105,105)"/>
		<stop class="stop1" offset="1" stop-opacity="1" stop-color="rgb(131,130,129)"/>
	</linearGradient>
</defs>
<path transform="translate(0,0)" fill="rgb(0,0,0)" d="M 0 0 L 385.346 0 L 391.222 0 L 432.153 0 L 439.902 0 L 832.938 0 L 840.763 0 L 876.951 0 L 884.065 0 L 932.585 0 L 938.981 0 L 1278.61 0 L 1285.83 0 L 1313.36 0 L 1319.7 0 L 1410.89 0 L 1416.6 0 L 1436.94 0 L 1443.93 0 L 1805.03 0 L 1812.67 0 L 1858.3 0 L 1864.48 0 L 2048 0 L 2048 73.6435 L 2048 80.8046 L 2048 97.5833 L 2048 104.708 L 2048 239.483 L 2048 246.909 L 2048 257.644 L 2048 264.39 L 2048 378.206 L 2048 386.245 L 2048 426.589 L 2048 435.448 L 2048 684.02 L 2048 694.889 L 2048 928.098 L 2048 937.325 L 2048 1145.77 L 2048 1155.76 L 2048 1350.89 L 2048 1360.96 L 2048 1648.4 L 2048 1660.85 L 2048 2048 L 1955.96 2048 L 1945.36 2048 L 1189.28 2048 L 1179.16 2048 L 1045.89 2048 L 1031.71 2048 L 550.378 2048 L 540.231 2048 L 298.662 2048 L 281.776 2048 L 0 2048 L 0 1416.44 L 0 1408.42 L 0 1351.33 L 0 1342.64 L 0 129.884 L 0 121.623 L 0 0 z"/>
<path transform="translate(0,0)" fill="rgb(135,131,124)" d="M 1341.95 1184.42 C 1344.51 1182.11 1347.45 1178.79 1350.93 1178.07 L 1349.56 1178.7 L 1352.85 1179.16 L 1352.73 1179.68 L 1351.16 1178.16 L 1352.59 1180.13 C 1350.84 1183.47 1349.04 1186.55 1345.1 1187.59 C 1344.15 1187.84 1343.72 1187.77 1342.76 1187.75 L 1341.95 1184.42 z"/>
<path transform="translate(0,0)" fill="rgb(161,147,143)" d="M 1371.12 1134.6 C 1372.69 1135.22 1374.03 1136.28 1374.91 1137.71 C 1375.82 1139.18 1375.12 1140.25 1374.78 1141.85 C 1372.74 1144.03 1372.24 1144.1 1369.32 1144.87 C 1367.99 1143.95 1367.72 1143.29 1366.95 1141.91 C 1364.95 1143.75 1362.91 1145.27 1360.68 1146.8 C 1363.35 1142.24 1367.52 1138.44 1371.12 1134.6 z"/>
<path transform="translate(0,0)" fill="rgb(161,147,143)" d="M 1355.28 1303.49 C 1358.39 1305.33 1361.32 1308.88 1363.61 1311.71 C 1366.62 1315.44 1368.89 1318.23 1368.29 1323.14 L 1365.92 1323.77 C 1361.56 1321.36 1357.85 1308.48 1355.28 1303.49 z"/>
<path transform="translate(0,0)" fill="rgb(161,147,143)" d="M 1341.95 1184.42 L 1342.76 1187.75 C 1337.37 1191.11 1330.24 1197.89 1323.89 1198.37 C 1322.1 1196.52 1322.5 1197.6 1322.53 1195.19 C 1327.38 1190.69 1336.05 1187.98 1341.95 1184.42 z"/>
<path transform="translate(0,0)" fill="rgb(112,112,111)" d="M 1360.44 1116.21 C 1362.91 1117.72 1366.84 1127.04 1368.78 1130.03 C 1365.48 1132.59 1362.22 1135.39 1358.76 1137.72 A 481.571 481.571 0 0 1 1360.44 1116.21 z"/>
<path transform="translate(0,0)" fill="rgb(112,112,111)" d="M 1049.49 1272.41 C 1049.96 1274.13 1050.29 1275.87 1050.64 1277.62 A 188.146 188.146 0 0 1 1045.8 1276.64 C 1044.4 1277.2 1043.5 1277.7 1042.31 1278.65 C 1041.94 1278.94 1041.59 1279.25 1041.24 1279.54 C 1040.19 1275.27 1038.88 1269.92 1039.39 1265.54 C 1039.64 1263.33 1039.94 1263.17 1041.63 1261.96 L 1044.44 1264.78 C 1047.18 1266.68 1047.8 1269.71 1049.49 1272.41 z"/>
<path transform="translate(0,0)" fill="rgb(135,131,124)" d="M 1056.46 1304.4 C 1061.23 1304.94 1064.65 1308.22 1067.83 1311.51 L 1071.06 1314.81 C 1072.75 1322.08 1073.67 1329.25 1074.44 1336.67 C 1069.95 1324.65 1063.78 1314.87 1056.46 1304.4 z"/>
<path transform="translate(0,0)" fill="rgb(155,150,137)" d="M 240.629 1703.85 C 241.763 1704.24 242.824 1704.59 243.812 1705.3 C 251.566 1710.83 255.914 1722.26 257.855 1731.24 C 255.978 1729.78 254.463 1728.04 252.928 1726.23 C 248.689 1721.24 240.125 1710.47 240.629 1703.85 z"/>
<path transform="translate(0,0)" fill="rgb(161,147,143)" d="M 1044.44 1264.78 C 1043.18 1261.69 1042.32 1259.81 1043.03 1256.4 C 1044.59 1255.2 1043.85 1255.29 1045.61 1255.52 C 1049.94 1256.11 1060.64 1262.86 1062.84 1266.59 C 1063.02 1266.9 1063.13 1267.24 1063.27 1267.57 C 1061.91 1269.64 1060.3 1270.56 1058.26 1271.9 C 1057.79 1270.2 1058.03 1269.64 1058.31 1267.93 C 1058.66 1265.79 1058.86 1264.7 1057.77 1262.72 L 1055.5 1262.07 C 1051.69 1264.31 1050.66 1268.3 1049.49 1272.41 C 1047.8 1269.71 1047.18 1266.68 1044.44 1264.78 z"/>
<path transform="translate(0,0)" fill="rgb(161,147,143)" d="M 1349.78 1223.84 C 1353.08 1227.09 1356.16 1230.15 1360.07 1232.69 C 1360.46 1244.24 1362.13 1253.02 1365.99 1263.95 L 1364.89 1263.55 C 1358.97 1252.08 1350.35 1237.01 1349.78 1223.84 z"/>
<path transform="translate(0,0)" fill="rgb(161,147,143)" d="M 1369.06 1181.5 C 1377.47 1186.98 1381.52 1195.78 1385.25 1204.71 C 1379.78 1207.66 1374.64 1211.2 1369.43 1214.6 C 1367.42 1215.39 1367.19 1215.4 1365.17 1215.15 C 1365.38 1214.31 1365.42 1213.87 1365.99 1213.09 C 1367.48 1211.03 1369.08 1210.05 1371.48 1209.47 C 1373.67 1208.94 1375.12 1208.33 1377.1 1207.24 C 1378.32 1200.13 1371.82 1188.28 1369.06 1181.5 z"/>
<path transform="translate(0,0)" fill="rgb(161,147,143)" d="M 515.75 1504.2 C 525.307 1520.27 533.6 1536.8 541.848 1553.56 C 530.062 1540.04 521.006 1523.71 512.48 1507.99 C 514.473 1506.71 514.673 1506.22 515.75 1504.2 z"/>
<path transform="translate(0,0)" fill="rgb(161,147,143)" d="M 1385.24 1092.17 C 1387.78 1095.35 1387.66 1101.51 1388.09 1105.48 C 1388.69 1111.06 1389.53 1118.42 1385.78 1123.07 C 1382.8 1123.99 1382.35 1123.59 1379.34 1122.6 L 1379.02 1121.35 C 1381.89 1119.81 1382.66 1119 1384.19 1116.13 C 1385.08 1108.14 1379.08 1104.57 1375.44 1098.32 C 1377.83 1095.58 1382.06 1093.89 1385.24 1092.17 z"/>
<path transform="translate(0,0)" fill="rgb(161,147,143)" d="M 1512.37 1107.65 C 1514.81 1109.11 1516.48 1110.98 1518.22 1113.19 C 1525.38 1122.34 1530.58 1137.41 1528.87 1149.06 C 1528.26 1153.24 1526.06 1154.07 1522.93 1156.28 L 1521.03 1156.73 C 1520.11 1154.36 1521.84 1150.61 1522.5 1148.07 C 1526.14 1133.93 1519.41 1119.63 1512.37 1107.65 z"/>
<path transform="translate(0,0)" fill="rgb(135,131,124)" d="M 1406.89 1125.87 C 1407.62 1125.63 1407.9 1125.44 1408.69 1125.55 C 1416.31 1126.59 1441.28 1151.66 1445.69 1158.47 C 1447.12 1160.67 1446.58 1160.63 1446.09 1163.02 C 1437.43 1160.8 1419.3 1132.78 1407.92 1127.76 C 1407.4 1127.53 1406.87 1127.33 1406.34 1127.12 L 1406.89 1125.87 z"/>
<path transform="translate(0,0)" fill="rgb(161,147,143)" d="M 715.182 1521.37 C 716.393 1522.2 717.85 1523.11 718.847 1524.19 C 725.786 1531.7 721.806 1551.85 720.984 1561.37 C 719.197 1560.34 717.616 1559.54 716.199 1558.01 C 714.984 1556.7 715.167 1525.73 715.182 1521.37 z"/>
<path transform="translate(0,0)" fill="url(#Gradient1)" d="M 1155.78 1403.37 L 1163.3 1409.45 C 1162.67 1419.75 1162.75 1428.57 1164.96 1438.68 C 1163.08 1438.38 1160.17 1438.18 1158.66 1436.94 C 1153.56 1432.74 1155.92 1409.89 1155.78 1403.37 z"/>
<path transform="translate(0,0)" fill="rgb(161,147,143)" d="M 1455.8 1183.73 L 1462.48 1190.27 C 1455.54 1200.48 1450.24 1211.63 1444.7 1222.63 L 1443.12 1224.07 C 1440.63 1217.96 1453.03 1190.71 1455.8 1183.73 z"/>
<path transform="translate(0,0)" fill="rgb(161,147,143)" d="M 1409.83 1199.13 C 1402.14 1208.22 1374.64 1223.54 1362.99 1229 L 1353.81 1222.98 L 1355.07 1218.33 L 1366.63 1221.94 C 1381.26 1214.76 1395.18 1206.25 1409.83 1199.13 z"/>
<path transform="translate(0,0)" fill="rgb(161,147,143)" d="M 1489.9 1133.92 C 1492.48 1134.47 1491.97 1134.5 1493.41 1136.45 C 1491.6 1141.23 1460.88 1154.11 1454.4 1157.22 C 1452.07 1156.38 1452.04 1156.41 1450.77 1154.31 C 1454.61 1148.43 1482.11 1138.02 1489.9 1133.92 z"/>
<path transform="translate(0,0)" fill="rgb(161,147,143)" d="M 1754.47 1016.28 C 1746.18 1007.6 1738.44 998.292 1729.76 990.006 C 1725.86 986.289 1721.34 983.428 1717.41 979.842 C 1715.56 978.153 1714.72 977.285 1714.47 974.716 L 1716.35 974.474 C 1731.94 980.92 1747.57 1001.03 1758.77 1013.54 C 1758.4 1013.45 1758.01 1013.4 1757.66 1013.26 C 1752.83 1011.38 1748.6 1002.84 1744.2 1001.85 C 1746.84 1005.82 1750.5 1008.85 1753.33 1012.78 C 1754.03 1013.76 1755.21 1014.75 1756.06 1015.57 C 1755.54 1015.84 1755.04 1016.2 1754.47 1016.28 z"/>
<path transform="translate(0,0)" fill="rgb(112,112,111)" d="M 1035.31 1280.75 L 1043.6 1286.73 C 1051.71 1292.6 1061.86 1295.79 1070.33 1301.78 L 1071.06 1314.81 L 1067.83 1311.51 C 1064.65 1308.22 1061.23 1304.94 1056.46 1304.4 C 1048.91 1297.63 1041.39 1288.89 1035.31 1280.75 z"/>
<path transform="translate(0,0)" fill="rgb(242,240,211)" d="M 695.341 1533.3 C 699.933 1530.94 704.367 1528.28 708.834 1525.69 C 709.02 1536.53 710.242 1548.07 706.802 1558.5 C 706.475 1558.81 706.114 1559.08 705.821 1559.43 C 705.579 1559.71 704.759 1561.02 704.533 1561.38 L 702.986 1561.28 L 701.277 1558.67 L 699.733 1559.08 C 697.152 1551.73 696.731 1541.22 695.341 1533.3 z"/>
<path transform="translate(0,0)" fill="rgb(161,147,143)" d="M 535.852 1519.54 C 542.551 1528.75 547.456 1538.83 557.354 1545.03 C 561.774 1543 571.291 1537.1 575.709 1537.76 L 576.736 1539.39 C 574.77 1544.27 553.582 1551.9 547.703 1554.52 C 544.228 1542.31 538.535 1531.3 532.835 1520.02 L 535.852 1519.54 z"/>
<path transform="translate(0,0)" fill="rgb(135,131,124)" d="M 1305.93 1355.15 C 1325.39 1348.19 1343.99 1339.19 1363.65 1332.56 C 1358.74 1340.72 1335.83 1342.69 1329.45 1350.91 L 1330.51 1351.84 C 1332.4 1351.13 1334.29 1350.34 1336.18 1349.66 C 1337.88 1349.05 1339.39 1349.06 1341.17 1349.03 L 1342.23 1350.87 L 1341.14 1349.12 L 1339.47 1350.54 C 1342.73 1350.81 1344.19 1348.57 1347.06 1349.13 L 1347.12 1350.06 C 1334.79 1355.22 1322.8 1360.61 1310.18 1365.07 L 1305.93 1355.15 z"/>
<path transform="translate(0,0)" fill="rgb(135,131,124)" d="M 1066.99 1271.94 C 1075.31 1279.12 1082.6 1286.21 1089.19 1295.03 C 1087.52 1297.72 1085.81 1300.27 1083.91 1302.8 L 1081.39 1302.87 C 1073.07 1295.94 1064.16 1289.95 1055.24 1283.85 C 1058.51 1278.72 1062.12 1275.48 1066.99 1271.94 z"/>
<path transform="translate(0,0)" fill="rgb(161,147,143)" d="M 156.293 1745.41 C 157.309 1746.08 157.756 1746.29 158.621 1747.34 C 161.718 1751.12 164.159 1756.81 166.639 1761.09 A 209.427 209.427 0 0 0 181.564 1783.83 C 182.903 1785.6 183.743 1785.84 183.475 1788.11 L 179.677 1790.28 C 178.069 1791.14 177.649 1791.26 175.724 1791.42 C 165.33 1784.18 155.976 1766.73 153.81 1754.34 C 153.083 1750.17 154.065 1748.71 156.293 1745.41 z"/>
<path transform="translate(0,0)" fill="rgb(161,147,143)" d="M 190.732 1776.4 L 192.33 1775.85 C 214.377 1768.13 233.562 1753.12 255.303 1745.36 C 258.305 1744.29 261.492 1743.2 264.539 1744.59 L 264.681 1745.86 C 258.29 1751.26 198.226 1782.01 191.084 1782.7 C 189.596 1781.74 189.234 1781.37 188.12 1779.85 L 190.732 1776.4 z"/>
<path transform="translate(0,0)" fill="rgb(155,150,137)" d="M 655.586 1493.88 C 655.991 1493.9 656.403 1493.85 656.799 1493.93 C 659.545 1494.5 661.746 1498.39 663.294 1500.5 C 645.694 1505.02 616.876 1521.41 599.302 1529.68 C 598.034 1530.36 596.55 1530.88 595.229 1531.44 L 595.006 1530.33 C 607.905 1514.05 636.624 1501.97 655.586 1493.88 z"/>
<path transform="translate(0,0)" fill="rgb(155,150,137)" d="M 1362.47 1168.13 C 1370.05 1164.1 1377.16 1159.46 1384.94 1155.75 C 1390.85 1162.47 1397.71 1168.55 1404.15 1174.78 C 1406.67 1177.41 1409.32 1179.52 1409.89 1183.3 C 1409.25 1186.64 1407.69 1188.56 1404.92 1190.41 C 1399.64 1193.94 1393.98 1196.37 1389.07 1200.52 C 1387.69 1197.46 1386.35 1194.24 1384.42 1191.48 C 1382.07 1188.12 1372.15 1177.96 1373.04 1174.13 C 1380.1 1177.05 1388.19 1193.39 1393.83 1192.96 L 1394.3 1191.95 C 1396.51 1187.21 1397.89 1186.16 1402.49 1183.5 C 1402.87 1181.15 1402.83 1181.17 1401.62 1179.1 C 1396.22 1173.71 1391.35 1168.41 1385.05 1164.01 C 1382.65 1164.7 1380.02 1165.34 1377.76 1166.43 C 1374.43 1168.04 1371.64 1172.23 1367.81 1172.59 C 1366.21 1172.73 1363.62 1169.29 1362.47 1168.13 z"/>
<path transform="translate(0,0)" fill="rgb(161,147,143)" d="M 1242.14 1260.01 C 1243.63 1261.49 1243.9 1262.75 1244.61 1264.69 C 1241.51 1273.21 1226.28 1271.1 1222.41 1280.78 C 1221.45 1283.18 1221.66 1284.41 1222.75 1286.63 C 1224 1287.4 1225.08 1287.94 1226.57 1288.09 C 1230.21 1288.46 1234.62 1288 1237.49 1285.67 C 1235.99 1284.76 1234.69 1284.58 1234.25 1282.82 C 1237.72 1281.52 1241.48 1279.6 1245.25 1279.91 L 1245.95 1281.78 C 1244.69 1285 1241.82 1286.34 1239.07 1288.34 C 1234.24 1291.52 1228.33 1296.48 1222.48 1296.88 C 1217.48 1295.14 1213.77 1292.16 1210.66 1287.85 C 1208.67 1285.1 1207.67 1282.88 1208.22 1279.45 C 1214.91 1270.9 1232.4 1264.87 1242.14 1260.01 z"/>
<path transform="translate(0,0)" fill="rgb(135,131,124)" d="M 1081.28 1324.78 C 1087.31 1329.55 1092.47 1336.99 1098.37 1342.29 C 1103.03 1346.48 1111.55 1350.34 1114.95 1354.97 C 1114.04 1355.87 1113.14 1356.81 1112.2 1357.69 C 1111.03 1358.8 1109.47 1359.95 1108.56 1361.3 C 1106.86 1363.82 1106.91 1365.96 1107.16 1368.83 C 1107.19 1369.14 1107.23 1369.44 1107.26 1369.75 C 1107.77 1371.32 1107.59 1370.38 1107.47 1372.62 L 1105.67 1373.01 C 1103.44 1372.19 1102.09 1371.83 1100.43 1370.04 C 1099.16 1368.67 1099.49 1368.46 1099.47 1366.78 C 1100.73 1365.73 1101.41 1365.24 1102.17 1363.75 C 1098.62 1362 1095.04 1360.11 1092.11 1357.39 C 1082.39 1348.35 1081.59 1337.13 1081.28 1324.78 z"/>
<path transform="translate(0,0)" fill="rgb(155,150,137)" d="M 531.749 1469.3 C 550.216 1469.9 567.622 1475.96 585.572 1479.3 C 596.232 1481.29 607.192 1483.66 617.856 1485.31 C 623.429 1486.17 629.081 1486.42 634.603 1487.62 C 637.173 1488.18 639.204 1488.96 641.503 1490.22 C 635.462 1495.42 550.108 1467.36 537.92 1473.73 C 534.128 1475.72 532.041 1479.38 530.842 1483.35 C 526.859 1496.55 529.817 1507.7 535.852 1519.54 L 532.835 1520.02 C 526.406 1507.92 519.622 1495.56 514.664 1482.77 C 519.773 1477.12 525.123 1472.98 531.749 1469.3 z"/>
<path transform="translate(0,0)" fill="rgb(112,112,111)" d="M 1396.78 1316.67 C 1396.34 1321.22 1395.92 1325.72 1395.9 1330.3 C 1380.18 1337.59 1363.68 1344.92 1347.12 1350.06 L 1347.06 1349.13 C 1344.19 1348.57 1342.73 1350.81 1339.47 1350.54 L 1341.14 1349.12 L 1342.23 1350.87 L 1341.17 1349.03 C 1339.39 1349.06 1337.88 1349.05 1336.18 1349.66 C 1334.29 1350.34 1332.4 1351.13 1330.51 1351.84 L 1329.45 1350.91 C 1335.83 1342.69 1358.74 1340.72 1363.65 1332.56 C 1374.28 1326.5 1386.11 1322.84 1396.78 1316.67 z"/>
<path transform="translate(0,0)" fill="rgb(155,150,137)" d="M 592.589 1583.93 C 595.276 1587.53 596.337 1592.3 597.717 1596.53 C 585.322 1604.58 571.677 1611.1 558.895 1618.6 C 556.859 1613.82 555.088 1608.91 553.226 1604.05 A 1953.45 1953.45 0 0 1 592.589 1583.93 z"/>
<path transform="translate(0,0)" fill="rgb(112,112,111)" d="M 1285.5 1359 C 1285.86 1358.98 1286.23 1358.88 1286.59 1358.94 C 1288.63 1359.29 1289.38 1361.07 1290.46 1362.6 L 1289.1 1364.04 C 1276.84 1365.91 1264.12 1371.11 1252.36 1375.04 C 1226.5 1383.68 1192.56 1396.47 1166.72 1401.72 C 1164.85 1401.64 1163.97 1401.36 1162.26 1400.7 L 1161.75 1399.17 C 1166.95 1394.69 1270.44 1363.52 1285.5 1359 z"/>
<path transform="translate(0,0)" fill="rgb(155,150,137)" d="M 486.106 1468.77 C 494.474 1462.37 501.852 1454.61 512.07 1451.27 C 513.797 1457.88 515.974 1464.38 517.684 1471.01 C 514.2 1476.05 510.215 1479.71 505.503 1483.52 A 1161.37 1161.37 0 0 0 515.75 1504.2 C 514.673 1506.22 514.473 1506.71 512.48 1507.99 C 502.882 1495.65 495.608 1481.36 486.106 1468.77 z"/>
<path transform="translate(0,0)" fill="rgb(112,112,111)" d="M 1117.53 1356.03 C 1125.33 1361.48 1132.32 1367.88 1138.11 1375.46 A 64.981 64.981 0 0 1 1150.65 1422.28 L 1149.77 1421.63 C 1144.18 1407.63 1135.26 1391.58 1124.51 1380.9 C 1121.04 1377.46 1116.51 1375.48 1113.12 1371.94 C 1111.52 1365.58 1114.67 1361.44 1117.53 1356.03 z"/>
<path transform="translate(0,0)" fill="rgb(135,131,124)" d="M 1343.86 1165.31 L 1344.35 1165.56 L 1344.11 1166.57 C 1334.62 1173.34 1323.37 1178.25 1313.19 1183.97 A 7113.92 7113.92 0 0 0 1248.38 1221.16 L 1247.08 1219.49 C 1247.06 1217.72 1246.57 1215.93 1247.66 1214.43 C 1252.19 1208.19 1307.78 1176.97 1317.28 1172.9 C 1325.93 1169.2 1334.68 1167.19 1343.86 1165.31 z"/>
<path transform="translate(0,0)" fill="rgb(161,147,143)" d="M 514.999 1451.74 C 525.813 1452.41 536.354 1455.45 546.883 1457.87 L 594.057 1468.59 C 613.968 1472.94 634.485 1475.42 654.189 1480.46 L 653.849 1481.82 C 652.444 1482.49 651.183 1483.4 649.881 1484.25 C 641.832 1483.61 633.355 1481.09 625.399 1479.56 A 2993.17 2993.17 0 0 1 567.275 1468.34 C 556.262 1466.15 543.839 1462.74 532.568 1463.56 C 529.108 1463.81 525.903 1465.47 522.808 1466.92 C 520.787 1461.39 518.962 1456.19 514.999 1451.74 z"/>
<path transform="translate(0,0)" fill="rgb(155,150,137)" d="M 685.616 1536.92 C 685.904 1536.98 686.215 1536.96 686.479 1537.09 C 689.016 1538.31 689.599 1542.63 689.998 1545.07 C 691.462 1554 694.97 1572.4 688.435 1579.99 C 686.485 1582.25 684.598 1583.23 681.675 1583.58 C 678.09 1584 675.69 1584.21 672.821 1581.88 C 673.977 1567.14 671.241 1560.3 661.786 1549.06 C 669.841 1545.27 677.705 1541 685.616 1536.92 z"/>
<path transform="translate(0,0)" fill="rgb(161,147,143)" d="M 1382.83 1222.88 C 1383.13 1223.41 1383.66 1223.86 1383.72 1224.46 C 1384.12 1228.44 1374.12 1246.42 1376.7 1259.12 C 1380.99 1280.31 1397.25 1296.16 1414.47 1307.8 C 1413.39 1314.13 1414.07 1328.45 1409.57 1332.57 L 1405.11 1331.59 C 1400.91 1329.02 1404.48 1318.22 1403.86 1313.61 C 1402.86 1306.23 1386.73 1291.67 1381.89 1284.21 C 1375.7 1274.65 1361.94 1247.18 1365.25 1236.45 C 1367.08 1230.5 1377.58 1226.02 1382.83 1222.88 z"/>
<path transform="translate(0,0)" fill="rgb(112,112,111)" d="M 1171.34 1414.67 C 1171.62 1414.94 1171.92 1415.21 1172.18 1415.49 C 1178.33 1422.15 1183.43 1430.39 1188.37 1437.99 C 1207.56 1467.47 1219.43 1496.88 1229.87 1530.25 C 1232.41 1538.36 1237.15 1549.77 1236.65 1558.23 C 1221.72 1510.41 1199.57 1468.03 1168.85 1428.53 L 1171.34 1414.67 z"/>
<path transform="translate(0,0)" fill="rgb(155,150,137)" d="M 678.483 1477.77 C 678.769 1477.82 679.068 1477.81 679.343 1477.9 C 684.081 1479.48 703.462 1512.24 707.271 1518.62 L 689.353 1527.32 C 679.195 1514.31 672.232 1498.25 659.609 1487.36 L 678.483 1477.77 z"/>
<path transform="translate(0,0)" fill="rgb(242,240,211)" d="M 1121.76 1217.03 C 1124.7 1221.2 1127.45 1225.51 1130.27 1229.76 A 4628.98 4628.98 0 0 1 1071.29 1260.86 L 1061.98 1251.19 C 1075.19 1238.42 1104.59 1225.91 1121.76 1217.03 z"/>
<path transform="translate(0,0)" fill="rgb(155,150,137)" d="M 1347.01 1170.13 L 1347.37 1171.26 C 1340.01 1176.73 1320.16 1188.19 1316.97 1194.18 C 1316.9 1198.01 1317.87 1199.2 1319.65 1202.52 A 3875.56 3875.56 0 0 0 1250.4 1238.07 L 1248.57 1237.47 C 1247.35 1234.54 1246.76 1232.66 1246.96 1229.47 C 1250.99 1223.34 1331.15 1180.86 1347.01 1170.13 z"/>
<path transform="translate(0,0)" fill="rgb(135,131,124)" d="M 1487.16 1096.9 C 1496.75 1101.91 1505.49 1109.88 1511 1119.21 C 1515.79 1127.33 1519.9 1143.3 1516.53 1152.7 C 1515.7 1155.02 1514.4 1157.11 1511.9 1157.91 C 1507.79 1159.22 1501.78 1153.91 1498.45 1151.77 C 1495.79 1150.67 1492.92 1150.14 1491.73 1147.43 C 1494.26 1144.71 1500 1143.77 1503.53 1142.69 C 1494.01 1124.02 1487.04 1116.44 1469.55 1104.98 C 1475.18 1101.8 1481.21 1099.42 1487.16 1096.9 z"/>
<path transform="translate(0,0)" fill="rgb(155,150,137)" d="M 1461.99 1112.98 C 1472.28 1112.66 1480.83 1122.06 1488.1 1128.37 C 1474.79 1134.56 1460.4 1140.45 1448.26 1148.75 C 1447.94 1148.97 1447.62 1149.2 1447.3 1149.43 C 1444.73 1149.15 1443.47 1147.04 1441.67 1145.26 C 1437.15 1140.54 1417.54 1125.61 1416.6 1121.66 C 1422.11 1119.46 1430.09 1122.8 1435.51 1124.43 C 1443.87 1119.76 1453.09 1116.45 1461.99 1112.98 z"/>
<path transform="translate(0,0)" fill="rgb(135,131,124)" d="M 1713.95 1132.22 C 1740.7 1130.82 1792.02 1134.52 1816.13 1144.52 L 1816.4 1145.47 C 1814.3 1147.23 1812.9 1148.28 1812.12 1151.05 L 1813.19 1152.78 C 1818.47 1155.36 1827.17 1155.18 1833.18 1156.04 C 1832.06 1152.99 1831.13 1150.01 1830.35 1146.85 L 1831.82 1148.39 C 1834.44 1152.78 1837.24 1156.94 1840.2 1161.11 C 1799.32 1159.1 1759.83 1146.29 1719.25 1141.59 L 1713.95 1132.22 z"/>
<path transform="translate(0,0)" fill="rgb(155,150,137)" d="M 1401.87 1129.88 C 1410.92 1132 1431.05 1157.08 1438.15 1165.29 C 1431.87 1172.42 1430.34 1180.61 1428.24 1189.58 C 1424.31 1193.46 1420.45 1196.33 1415.61 1199.03 C 1414.42 1195.67 1414.41 1194.82 1415.95 1191.45 C 1416.84 1189.51 1417.89 1187.69 1417.95 1185.49 C 1418.13 1178.96 1387.53 1147.89 1381.1 1141.57 A 635.467 635.467 0 0 1 1401.87 1129.88 z"/>
<path transform="translate(0,0)" fill="rgb(155,150,137)" d="M 687.264 1445.54 C 694.691 1449.44 701.178 1457.07 706.685 1463.31 C 713.056 1470.51 737.921 1500.95 737.369 1509.77 L 733.651 1511.97 L 721.974 1517.58 C 706.383 1505.57 695.45 1488.11 685.842 1471.23 A 994.319 994.319 0 0 0 687.264 1445.54 z"/>
<path transform="translate(0,0)" fill="rgb(161,147,143)" d="M 1740.62 1020.88 A 189.71 189.71 0 0 1 1745.67 1024.18 C 1741 1029.95 1556.46 1123.37 1535.26 1133.51 L 1533.93 1133.92 L 1532.27 1132.58 C 1531.39 1129.84 1531.21 1129.6 1532.07 1126.89 C 1536.32 1124.02 1541.96 1122.45 1546.63 1120.18 A 2474.14 2474.14 0 0 0 1584.83 1100.95 A 9279.45 9279.45 0 0 1 1740.62 1020.88 z"/>
<path transform="translate(0,0)" fill="rgb(242,240,211)" d="M 1345.15 1300.95 L 1346.51 1301.47 C 1351.81 1308.29 1354.93 1315.44 1357.86 1323.5 C 1339.27 1332 1319.95 1339.16 1300.9 1346.57 C 1299.77 1346.86 1297.83 1347.54 1296.59 1347.52 C 1294.18 1347.5 1292.55 1346.61 1291.14 1344.61 C 1287.76 1339.84 1289.84 1330.48 1290.5 1325.04 C 1308.45 1315.8 1326.29 1308.13 1345.15 1300.95 z"/>
<path transform="translate(0,0)" fill="rgb(135,131,124)" d="M 1754.47 1016.28 C 1755.04 1016.2 1755.54 1015.84 1756.06 1015.57 C 1755.21 1014.75 1754.03 1013.76 1753.33 1012.78 C 1750.5 1008.85 1746.84 1005.82 1744.2 1001.85 C 1748.6 1002.84 1752.83 1011.38 1757.66 1013.26 C 1758.01 1013.4 1758.4 1013.45 1758.77 1013.54 C 1790.88 1040.89 1819.33 1086.78 1841.39 1122.85 C 1845.63 1129.8 1854.4 1140.99 1855.15 1149.12 C 1853.95 1152.1 1852.8 1153.14 1850.42 1155.15 C 1847.18 1155.05 1845.59 1153.91 1843.32 1151.61 C 1829.96 1138.07 1819.01 1117.16 1807.65 1101.5 A 2347.43 2347.43 0 0 0 1775.4 1058.31 C 1766.71 1047.04 1754.87 1034.77 1749.03 1021.82 C 1767.13 1040.91 1782.61 1062.53 1798.22 1083.66 C 1805.29 1093.23 1812.87 1102.54 1819.77 1112.2 C 1824.29 1118.52 1837.17 1143.29 1843.12 1145.81 L 1844.29 1144.49 C 1841.92 1125.45 1770.66 1036.66 1754.47 1016.28 z"/>
<path transform="translate(0,0)" fill="rgb(155,150,137)" d="M 1232.78 1222.8 C 1236.1 1224.96 1238.2 1227.85 1239.68 1231.46 C 1239.44 1232.12 1239.48 1232.96 1238.98 1233.45 C 1236.32 1236.05 1222.04 1241.89 1217.78 1244.22 L 1096.48 1309.93 C 1094.26 1311.28 1093.45 1312.04 1090.89 1312.13 C 1090.01 1308.69 1092.92 1303.47 1094.2 1300.19 C 1116 1286.16 1139.24 1274.6 1161.9 1262.06 C 1185.51 1249 1208.69 1234.96 1232.78 1222.8 z"/>
<path transform="translate(0,0)" fill="rgb(155,150,137)" d="M 282.975 1682.89 C 290.705 1689.03 302.525 1717.31 305.542 1727.24 C 294.421 1732.46 283.245 1737.59 272.367 1743.32 C 266.79 1736.97 264.116 1726.1 260.3 1718.45 C 257.148 1712.12 253.255 1706.09 249.529 1700.09 A 1309.57 1309.57 0 0 1 282.975 1682.89 z"/>
<path transform="translate(0,0)" fill="rgb(242,240,211)" d="M 1259.65 1147.88 C 1264.1 1148.92 1266.75 1153.93 1269.27 1157.41 C 1249.8 1166.43 1231.14 1177.69 1212.22 1187.82 C 1189.83 1199.82 1166.92 1211.01 1144.27 1222.53 C 1140.6 1221.03 1136.73 1215.44 1134.02 1212.46 C 1145.7 1207.46 1157.03 1200.55 1168.34 1194.7 C 1185.57 1185.78 1203.04 1177.36 1220.26 1168.42 C 1233.4 1161.6 1246.25 1154.16 1259.65 1147.88 z"/>
<path transform="translate(0,0)" fill="rgb(155,150,137)" d="M 886.263 1340.77 C 886.751 1340.81 887.253 1340.78 887.729 1340.9 C 889.98 1341.45 893.266 1343.98 895.304 1345.2 C 918.443 1359.07 933.364 1381.42 949.26 1402.43 L 926.76 1413.3 C 924.654 1412.55 922.73 1406.14 921.605 1403.94 C 911.803 1384.69 885.296 1358.34 864.464 1351.68 A 1236.27 1236.27 0 0 0 886.263 1340.77 z"/>
<path transform="translate(0,0)" fill="rgb(155,150,137)" d="M 232.937 1709.27 L 238.716 1716.74 C 222.695 1720.98 206.858 1730.03 192.167 1737.55 C 186.854 1740.27 177.423 1744.28 175.508 1750.22 L 176.84 1751.16 C 186.147 1751.17 227.278 1728.44 240.102 1723.38 C 244.307 1728.28 248.98 1732.75 253.55 1737.31 C 237.984 1744.71 205.669 1758.94 193.319 1769.77 C 190.868 1771.92 190.971 1773.24 190.732 1776.4 L 188.12 1779.85 C 186.699 1775.46 168.685 1750.49 164.655 1743.95 C 188.048 1733.4 210.393 1721.5 232.937 1709.27 z"/>
<path transform="translate(0,0)" fill="rgb(155,150,137)" d="M 774.946 1396.89 C 796.76 1411.38 819.486 1438.9 830.117 1462.75 C 822.58 1466.5 814.913 1470.02 807.31 1473.63 C 803.767 1474.01 799.034 1461.4 797.411 1458.16 C 787.766 1438.92 769.613 1421.05 752.045 1408.91 C 759.456 1404.58 767.322 1400.85 774.946 1396.89 z"/>
<path transform="translate(0,0)" fill="rgb(155,150,137)" d="M 947.397 1310.8 C 949.171 1311.27 948.483 1310.87 949.929 1312.21 C 956.253 1318.04 963.491 1322.04 970.319 1327.23 C 986.56 1339.59 997.507 1355.84 1007.25 1373.5 C 999.644 1377.33 991.928 1380.97 984.261 1384.69 L 983.518 1385.01 L 981.936 1384.36 C 970.494 1359.51 948.63 1334.84 924.407 1321.99 C 931.714 1317.74 939.747 1314.41 947.397 1310.8 z"/>
<path transform="translate(0,0)" fill="rgb(155,150,137)" d="M 1747.7 1030.83 L 1748.77 1031.18 C 1750.5 1032.88 1751.37 1034.14 1752.33 1036.37 C 1746.49 1043.97 1558.21 1138.98 1537.66 1149.09 L 1535.99 1149.56 L 1534.89 1148.54 C 1534.09 1145.42 1533.95 1143.93 1534.66 1140.79 C 1549.82 1132.04 1566.14 1124.96 1581.67 1116.84 A 5191.84 5191.84 0 0 1 1682.1 1064.63 C 1703.95 1053.69 1726.84 1043.54 1747.7 1030.83 z"/>
<path transform="translate(0,0)" fill="rgb(155,150,137)" d="M 830.904 1368.82 C 830.983 1368.85 831.063 1368.87 831.141 1368.91 C 853.523 1378.81 880.465 1409.24 890.169 1431.55 C 882.707 1435.67 875.103 1439.33 867.378 1442.92 L 865.423 1442.36 C 853.528 1416.71 831.956 1395.8 808.858 1380.15 C 816.054 1376.14 823.564 1372.57 830.904 1368.82 z"/>
<path transform="translate(0,0)" fill="rgb(155,150,137)" d="M 917.463 1325.83 C 917.986 1325.86 918.522 1325.8 919.031 1325.91 C 937.142 1330.15 969.433 1371.71 977.386 1387.85 A 1195.09 1195.09 0 0 0 954.226 1399.82 C 936.833 1374.1 920.859 1352.99 892.934 1337.53 C 900.964 1333.34 909.248 1329.64 917.463 1325.83 z"/>
<path transform="translate(0,0)" fill="rgb(155,150,137)" d="M 801.902 1383.92 C 802.367 1384 802.847 1384.02 803.297 1384.17 C 823.258 1390.67 850.622 1428.2 861.297 1445.73 L 838.407 1458.35 C 836.57 1459.17 837.632 1458.84 835.164 1459.14 C 830.47 1454.05 828.868 1446.06 824.989 1440.29 C 813.093 1422.58 797.247 1407.51 780.725 1394.22 C 787.623 1390.39 794.71 1387.15 801.902 1383.92 z"/>
<path transform="translate(0,0)" fill="rgb(242,240,211)" d="M 1400.83 1336.88 C 1407.99 1341.39 1415.83 1344.92 1423.6 1348.25 C 1412.62 1354.85 1400.75 1360.38 1389.4 1366.33 A 3964.21 3964.21 0 0 0 1338.03 1394.15 L 1335.11 1394.79 C 1328.12 1390.4 1321.35 1379.4 1316.12 1372.91 C 1344.51 1360.87 1373.35 1351.06 1400.83 1336.88 z"/>
<path transform="translate(0,0)" fill="rgb(155,150,137)" d="M 858.63 1354.89 A 133.587 133.587 0 0 1 921.127 1416.25 L 897.751 1428.09 L 896.963 1428.48 C 896.311 1428.41 895.562 1428.62 895.006 1428.27 C 893.404 1427.27 885.752 1411.66 883.549 1408.58 C 871.259 1391.37 854.966 1376.35 836.284 1366.42 C 843.857 1362.87 851.221 1358.78 858.63 1354.89 z"/>
<path transform="translate(0,0)" fill="rgb(155,150,137)" d="M 746.927 1410.87 C 770.796 1432.45 785.657 1448.23 800.271 1477.53 L 776.356 1490.07 C 769.933 1483.34 765.61 1472.4 760.118 1464.62 C 749.262 1449.25 736.012 1436.17 722.439 1423.26 A 451.143 451.143 0 0 1 746.927 1410.87 z"/>
<path transform="translate(0,0)" fill="rgb(155,150,137)" d="M 715.33 1426.69 C 715.795 1426.73 716.28 1426.67 716.723 1426.81 C 729.492 1430.94 763.223 1478.52 770.433 1492.35 C 762.558 1496.71 754.368 1500.62 746.354 1504.73 L 744.752 1505.49 C 741.728 1504.08 727.277 1479.2 723.366 1473.87 C 714.135 1461.28 703.532 1450.08 692.55 1439.04 L 715.33 1426.69 z"/>
<path transform="translate(0,0)" fill="rgb(155,150,137)" d="M 1391.97 1575.43 L 1393.36 1575.33 L 1394.63 1576.57 C 1395.44 1581.06 1395.74 1586.35 1393.08 1590.34 C 1390.8 1593.77 1386.96 1595.87 1383.03 1596.86 C 1371.54 1599.76 1356.5 1599.04 1344.58 1599.86 C 1312.46 1602.07 1280.23 1603.65 1248.52 1609.51 C 1247.24 1609.54 1248.07 1609.64 1246.28 1608.41 C 1245.49 1603.09 1246.3 1597.69 1246.77 1592.36 A 1012.94 1012.94 0 0 1 1319.77 1581.85 C 1343.82 1579.43 1367.95 1578.27 1391.97 1575.43 z"/>
<path transform="translate(0,0)" fill="rgb(242,240,211)" d="M 544.238 1479.61 C 553.867 1480.87 563.541 1483.33 573.145 1484.95 C 591.963 1488.12 610.969 1490.75 629.463 1495.53 C 620.292 1502.4 610.4 1508.1 600.49 1513.82 C 586.879 1521.83 573.464 1529.98 559.388 1537.18 C 546.201 1523.34 538.416 1509.01 536.758 1489.82 C 539.67 1486.68 541.892 1483.17 544.238 1479.61 z"/>
<path transform="translate(0,0)" fill="rgb(135,131,124)" d="M 1420.64 1310.83 C 1458.59 1336.88 1499.34 1358.16 1533.73 1389.19 C 1558.04 1381.62 1583.6 1361.35 1601.91 1344.13 C 1602.79 1351.9 1604.36 1359.16 1599.6 1365.91 C 1582.5 1379.35 1547.64 1406.35 1527.89 1412.18 C 1525.51 1404.8 1523.18 1396.18 1517.65 1390.47 C 1507.4 1379.9 1436.65 1345.4 1417.82 1335.38 C 1418.29 1327.18 1419.59 1318.98 1420.64 1310.83 z"/>
<path transform="translate(0,0)" fill="rgb(242,240,211)" d="M 1131.52 1993.54 C 1148.37 2010.85 1162.49 2030.89 1179.16 2048 L 1045.89 2048 C 1073.78 2028.94 1103.1 2011.84 1131.52 1993.54 z"/>
<path transform="translate(0,0)" fill="rgb(155,150,137)" d="M 1299.91 1089.87 C 1309.39 1090.6 1346.95 1106.67 1356.03 1112.43 C 1331.5 1123.64 1302 1138.78 1279.9 1154.06 C 1276.75 1143.91 1272.27 1138 1264.29 1131.28 C 1246.57 1137.94 1229.68 1148.33 1212.76 1156.88 A 5270.03 5270.03 0 0 1 1099.62 1213.65 C 1083.41 1222.24 1067.31 1232.17 1050.85 1240.1 C 1048.79 1239.9 1047.68 1239.89 1046.36 1237.98 C 1044.92 1235.9 1044.94 1233.98 1045.45 1231.65 C 1051.79 1226.74 1059.78 1224.19 1066.86 1220.47 C 1087.35 1209.69 1107.98 1198.66 1128.24 1187.45 C 1162.88 1168.27 1197.71 1149.13 1231.98 1129.3 C 1254.58 1116.22 1276.73 1101.85 1299.91 1089.87 z"/>
<path transform="translate(0,0)" fill="rgb(155,150,137)" d="M 1250.85 1244.49 C 1265.67 1235.91 1350.46 1194.17 1354.91 1187.71 C 1359.35 1181.25 1353.44 1175.6 1356.11 1170.1 L 1358.42 1170.28 C 1363.97 1178.71 1369.8 1196.3 1371.07 1206.07 L 1369.59 1206.98 C 1366.92 1206.57 1362.77 1205.59 1360.19 1206.55 C 1356.96 1207.77 1354.17 1210.46 1352.44 1213.35 C 1352.58 1216.41 1352.81 1216.2 1355.07 1218.33 L 1353.81 1222.98 C 1352.86 1222.1 1351.69 1220.83 1350.57 1220.11 C 1348.1 1218.51 1347.61 1218.76 1344.86 1219.3 C 1343.91 1220.65 1343.54 1220.85 1343.38 1222.6 C 1342.84 1228.85 1345.86 1236.99 1347.97 1242.81 C 1358.76 1272.5 1373.11 1288.13 1393.75 1311.16 C 1387.93 1313.72 1382.59 1316.78 1377.13 1320.04 C 1370.25 1309.13 1358.82 1295.1 1346.22 1290.92 C 1332.75 1286.45 1313.77 1295.48 1301.8 1301.38 C 1290.5 1282.59 1270.36 1254.66 1250.85 1244.49 z"/>
<path transform="translate(0,0)" fill="rgb(135,131,124)" d="M 1073.57 1268.92 C 1092.49 1259.5 1110.65 1248.59 1129.42 1238.87 L 1273.33 1164.11 C 1302.55 1148.62 1331.27 1131.88 1360.44 1116.21 A 481.571 481.571 0 0 0 1358.76 1137.72 L 1340.43 1158.47 C 1332.85 1160.52 1325.33 1162.58 1318.13 1165.75 C 1306.04 1171.05 1252.29 1200.94 1244.18 1208.42 C 1241.52 1210.87 1241.33 1213.29 1241.18 1216.71 C 1241.09 1218.6 1241.07 1219.72 1240.54 1221.57 C 1238.51 1220.1 1236.12 1218.04 1233.72 1217.29 C 1230.62 1216.32 1227.21 1218.15 1224.51 1219.46 C 1211.09 1225.98 1198.25 1234.88 1185.07 1242.05 C 1155.03 1258.38 1124.37 1273.69 1095.34 1291.77 C 1088.93 1282.62 1082.33 1275.85 1073.57 1268.92 z"/>
<path transform="translate(0,0)" fill="rgb(242,240,211)" d="M 298.662 2048 C 335.166 2025.96 372.628 2005.41 409.821 1984.56 C 428.435 1974.12 447.341 1961.31 466.97 1953.14 C 492.32 1983.98 514.323 2017.75 540.231 2048 L 298.662 2048 z"/>
<path transform="translate(0,0)" fill="rgb(155,150,137)" d="M 1696.05 983.957 C 1696.69 983.928 1697.33 983.881 1697.98 983.87 C 1709.76 983.667 1730.08 1008.98 1737.67 1016.96 C 1714.46 1027.19 1537.61 1121.8 1528.67 1121.28 C 1521.11 1107.66 1497.93 1092 1483.4 1086.23 C 1502.06 1078.43 1520.31 1068.76 1538.45 1059.79 A 11125.4 11125.4 0 0 1 1638.53 1010.82 C 1657.56 1001.66 1676.51 991.959 1696.05 983.957 z"/>
<path transform="translate(0,0)" fill="rgb(242,240,211)" d="M 1723.95 1147.93 C 1749.31 1151.35 1773.48 1158.74 1798.56 1163.37 C 1743.13 1197.52 1688.46 1233.65 1631.73 1265.59 C 1610.32 1245.46 1587.22 1227.12 1565.57 1207.22 A 746.572 746.572 0 0 0 1518.58 1167.74 L 1531.9 1160.34 C 1552.6 1166.5 1566.5 1177.14 1580.11 1193.79 C 1586.05 1193.36 1592.47 1192.64 1598.22 1191.12 C 1608.1 1188.51 1602.14 1185.67 1605.9 1179.54 C 1619.79 1179.48 1631.85 1185.78 1645.19 1186.97 C 1648.1 1187.24 1651.12 1186.66 1653.17 1184.41 C 1657.82 1179.32 1656.59 1170.28 1656.14 1163.94 C 1674.78 1165.69 1702.01 1170.23 1720.31 1174.83 C 1728.22 1176.81 1737.9 1182.69 1745.6 1183.3 C 1747.68 1183.47 1746.84 1183.65 1748.5 1182.21 C 1745.73 1171.99 1730.36 1157.39 1723.95 1147.93 z"/>
<path transform="translate(0,0)" fill="rgb(242,240,211)" d="M 1483.27 1152.23 C 1503.54 1162.28 1526.97 1184.09 1544.03 1198.87 A 3526.43 3526.43 0 0 1 1623.55 1270.15 A 1386.51 1386.51 0 0 0 1567.33 1303.15 C 1566.59 1303.52 1566.23 1303.77 1565.34 1303.85 C 1560.49 1304.26 1476.11 1257.64 1465.42 1251.31 C 1458.71 1247.34 1452.33 1242.98 1446 1238.43 C 1451.61 1227.97 1469.13 1199.93 1470.53 1189.97 C 1471.19 1185.26 1456.37 1173.56 1453 1168.78 C 1452.73 1168.4 1452.48 1168.01 1452.21 1167.63 C 1462.84 1163.23 1473.04 1157.48 1483.27 1152.23 z"/>
<path transform="translate(0,0)" fill="rgb(155,150,137)" d="M 664.866 1505.99 C 671.792 1512.6 677.146 1522.24 682.493 1530.18 C 654.396 1545.34 624.779 1558.52 596.218 1572.86 L 414.113 1664.89 C 387.359 1678.34 332.185 1702.05 311.896 1719 C 306.536 1707.75 302.591 1694.69 294.166 1685.27 C 305.145 1680.4 315.601 1674.25 326.37 1668.91 L 396.328 1634.99 L 664.866 1505.99 z"/>
<path transform="translate(0,0)" fill="rgb(155,150,137)" d="M 1234.26 1241.94 C 1236.96 1243.28 1240.09 1252.16 1241.57 1255.22 C 1231.16 1258.95 1207.94 1266.4 1202.3 1276.42 C 1201.82 1282.82 1203.71 1288.9 1207.74 1293.96 C 1210.96 1297.99 1215.55 1300.9 1220.78 1301.2 C 1231.82 1301.83 1243.02 1291.77 1250.95 1285.02 C 1250.89 1284.78 1250.84 1284.54 1250.77 1284.3 C 1249.77 1280.8 1248.98 1278.34 1249.52 1274.64 C 1251.25 1262.87 1248.09 1256.95 1243.04 1246.59 C 1249.58 1252.5 1250.25 1259.73 1254.61 1266.71 C 1257.82 1271.84 1263.6 1274.68 1266.4 1279.96 C 1263.94 1289.39 1238.48 1298.38 1230.61 1307.75 C 1229.14 1309.5 1228.53 1309.86 1228.67 1312.23 C 1233.62 1312.45 1257.54 1295.27 1262.83 1291.14 C 1267.31 1287.65 1268.81 1286.09 1269.43 1280.36 L 1269.55 1279.18 C 1271.83 1279.77 1284.24 1296.19 1288.22 1299.6 C 1291.15 1302.12 1294.53 1303.75 1297.98 1305.42 C 1293.5 1308.6 1289.24 1311.85 1285.06 1315.43 C 1280.5 1329.09 1281.11 1339.1 1287.06 1352.05 A 502.255 502.255 0 0 1 1254.97 1361.83 C 1249.54 1354.06 1243.85 1347.24 1237.08 1340.6 C 1221.42 1325.25 1178.21 1290.9 1158.42 1283.33 C 1158.62 1283.57 1158.83 1283.81 1159.02 1284.05 C 1171.3 1299.04 1198.28 1315.21 1214.44 1327.41 C 1228.09 1338.15 1239 1350.36 1250.39 1363.38 C 1219.61 1371.68 1188.36 1382.38 1158.64 1393.89 C 1153.97 1383.23 1148.09 1374.3 1140.04 1365.87 C 1131.53 1356.97 1092.99 1330.27 1091.69 1320.55 C 1115.31 1307.06 1139.05 1292.93 1163.89 1281.8 C 1180.39 1293.97 1198.28 1303.98 1214.17 1317.06 C 1227.2 1327.79 1237.96 1340.79 1250.81 1351.61 L 1251.9 1352.51 C 1236.13 1322.24 1196.8 1296.57 1168.09 1279.18 C 1190.43 1267.28 1211.72 1253.49 1234.26 1241.94 z"/>
<path transform="translate(0,0)" fill="rgb(155,150,137)" d="M 1442.52 1169.53 C 1445.8 1171.85 1448.43 1176.5 1450.83 1179.75 C 1445.64 1203.81 1435.42 1213.05 1437.05 1239.94 C 1443.64 1247.06 1453.59 1252.18 1461.87 1257.22 A 795.778 795.778 0 0 0 1496.6 1277.23 C 1513.93 1286.6 1594.93 1326.21 1602.15 1337.99 C 1600.25 1342.64 1557.78 1370.32 1550.74 1374.86 C 1546.56 1377.53 1542.17 1379.98 1537.9 1382.52 C 1513.87 1358.04 1473.66 1335.76 1444.2 1317.4 C 1424.62 1305.2 1403.12 1294.82 1389.85 1275.19 C 1374.84 1252.99 1385.03 1243.71 1389.08 1221.46 C 1389.15 1221.08 1389.21 1220.7 1389.27 1220.32 C 1405.02 1213.74 1422.26 1204.49 1434.35 1192.3 C 1435.58 1182.75 1435.97 1176.92 1442.52 1169.53 z"/>
<path transform="translate(0,0)" fill="rgb(155,150,137)" d="M 1755.6 1042.83 C 1762.38 1044.69 1820.09 1130.85 1827.2 1141.37 C 1789.08 1131.83 1746.96 1117.36 1707.75 1128.89 C 1713.18 1145.23 1721.92 1157.05 1732.43 1170.45 C 1706.43 1160.3 1677.85 1149.93 1649.73 1148.9 C 1646.58 1148.79 1644.72 1148.89 1642.44 1151.11 C 1642.48 1156.19 1646.98 1161.34 1648.88 1166.05 C 1650.61 1170.34 1650.47 1173.75 1648.73 1177.95 C 1645.64 1179.02 1643.76 1177.66 1640.73 1176.6 C 1632.15 1173.57 1588.93 1156.43 1584.38 1156.93 L 1583.36 1158.47 C 1584.8 1167.77 1594.5 1173.82 1598.15 1182.44 C 1598.3 1182.8 1598.44 1183.16 1598.58 1183.52 L 1582.76 1185.58 C 1582.55 1185.27 1582.33 1184.96 1582.12 1184.65 C 1570.98 1168.2 1555.97 1159.93 1537.05 1155.14 C 1571.63 1138.67 1605.23 1120.51 1639.17 1102.79 L 1755.6 1042.83 z"/>
<path transform="translate(0,0)" fill="rgb(242,240,211)" d="M 1892.95 1025.8 C 1910.98 1014.27 1929.86 1004.32 1948.56 993.937 C 1981.84 975.45 2015.46 957.085 2048 937.325 L 2048 1145.77 C 2030.75 1133.06 2014.36 1119.12 1997.32 1106.12 C 1962.4 1079.47 1927.15 1053.38 1892.95 1025.8 z"/>
<path transform="translate(0,0)" fill="rgb(155,150,137)" d="M 1011.61 1278.44 C 1038.18 1289.84 1055.8 1317.73 1068.31 1342.51 C 1071.76 1347.91 1071.62 1352.49 1070.29 1358.59 C 1068.21 1368.08 1064.44 1392.69 1056.46 1397.77 C 1044.28 1405.53 1030 1411.59 1017.08 1418.11 L 932.914 1460.21 L 807.488 1523.5 C 781.036 1536.78 754.29 1550.99 726.938 1562.29 C 729.183 1548.43 727.999 1536.38 727.975 1522.53 C 775.974 1500.77 822.78 1475.98 869.642 1451.88 L 962.65 1404.94 C 991.184 1390.28 1020.15 1376.54 1048.62 1361.71 C 1053.49 1359.17 1059.05 1357.72 1063.75 1354.96 C 1065.98 1353.64 1067.23 1352.16 1068.52 1349.96 C 1068.58 1347.45 1068.23 1345.73 1067.45 1343.35 C 1058.75 1346.69 1049.97 1352.1 1041.61 1356.35 A 108.78 108.78 0 0 0 1022.47 1324.54 C 1015.9 1316.82 996.907 1296.05 987.014 1295.28 L 986.095 1296.45 C 986.547 1301.01 1009.17 1319.17 1013.92 1324.45 C 1023.39 1334.99 1029.59 1346.26 1035.51 1359.07 C 1027.9 1362.26 1020.63 1366.33 1013.31 1370.13 C 999.335 1345.5 979.041 1319.36 951.677 1308.88 C 971.294 1298.42 991.633 1288.17 1011.61 1278.44 z"/>
<path transform="translate(0,0)" fill="rgb(155,150,137)" d="M 1296.55 1370.31 C 1299.53 1369.91 1301.42 1370.51 1303.81 1372.2 C 1310.68 1377.08 1316.27 1384.97 1321.59 1391.48 C 1361.38 1440.18 1382.83 1506.42 1393.22 1567.69 L 1376.01 1569.32 A 991.601 991.601 0 0 0 1368.98 1538.15 A 389.425 389.425 0 0 0 1299.78 1394.52 C 1295.34 1388.78 1289.57 1379.6 1283.41 1375.88 L 1281.51 1376.39 C 1282.03 1381.85 1301.95 1406.43 1306.08 1412.82 C 1339.72 1464.86 1357.17 1509.77 1370.77 1569.86 A 781.763 781.763 0 0 0 1335.06 1573.17 C 1330.32 1523.55 1308.08 1470.97 1286.07 1426.78 C 1282.16 1418.93 1266.06 1389.79 1258.34 1387.2 L 1257.64 1388.85 C 1258.75 1395.58 1262.41 1399.67 1266.35 1405.02 C 1296.18 1449.26 1319.97 1521.13 1329.42 1573.78 A 285.281 285.281 0 0 0 1288.14 1578.54 C 1286.88 1556.2 1282.88 1534.62 1276.92 1513.1 C 1269.69 1486.99 1239.12 1409.83 1216.98 1397.27 C 1216.28 1399.72 1219.56 1404.75 1220.87 1407.02 C 1244.11 1447.43 1263.78 1486.04 1274.44 1531.75 C 1278.11 1547.47 1280.42 1563.43 1283.42 1579.28 C 1272.17 1580.26 1261.2 1583.21 1249.96 1584.41 C 1246.94 1573.7 1245.36 1562.4 1243.01 1551.51 C 1237.69 1526.96 1230.49 1501.22 1219.82 1478.46 C 1207.86 1452.98 1190.74 1431.02 1177.19 1406.57 C 1190.03 1401.43 1203.67 1397.95 1216.81 1393.59 C 1242.82 1384.97 1269.4 1374.47 1296.55 1370.31 z"/>
<path transform="translate(0,0)" fill="rgb(242,240,211)" d="M 2048 1360.96 L 2048 1648.4 C 2032.21 1637.11 2010.97 1614.33 1995.81 1600.44 A 6922.84 6922.84 0 0 1 1875.06 1488.7 A 7356.2 7356.2 0 0 1 2048 1360.96 z"/>
<path transform="translate(0,0)" fill="rgb(242,240,211)" d="M 1817.81 546.193 C 1894.63 509.537 1970.7 471.066 2048 435.448 L 2048 684.02 C 2023.86 671.668 2000.95 655.493 1977.54 641.674 A 9390.99 9390.99 0 0 1 1817.81 546.193 z"/>
<path transform="translate(0,0)" fill="rgb(242,240,211)" d="M 1086.95 1368.8 C 1091.37 1370.54 1094.85 1377.24 1099.17 1379.85 C 1103.31 1382.36 1108.86 1378.88 1112.45 1381.28 C 1124.94 1389.65 1136.78 1413.43 1143.32 1426.69 C 1145.87 1431.87 1148.47 1438.92 1152.19 1443.3 C 1153.46 1444.8 1154.66 1445.6 1156.57 1446.13 C 1161.27 1447.42 1165.71 1444.53 1169.79 1442.53 C 1184.06 1463 1199.85 1485.51 1208.25 1509.08 C 1196.95 1517.25 1183.52 1523.83 1171.43 1530.83 L 1091.9 1576.43 C 1025.5 1614.82 960.159 1655.13 893.55 1693.09 L 890.33 1694.66 C 889.536 1694.45 888.621 1694.51 887.948 1694.04 C 884.743 1691.81 875.274 1678.28 872.07 1674.46 A 6134.27 6134.27 0 0 0 814.63 1606.7 C 799.113 1588.9 782.214 1571.45 768.526 1552.22 L 968.234 1452.18 C 997.343 1437.4 1027.23 1423.31 1055.73 1407.43 C 1070.36 1399.28 1070.49 1390.85 1074.76 1375.76 C 1078.61 1373.15 1082.87 1371.04 1086.95 1368.8 z"/>
<path transform="translate(0,0)" fill="rgb(242,240,211)" d="M 1188.33 844.806 C 1190.86 844.548 1192.06 845.717 1193.87 847.257 C 1264.94 907.755 1334.33 970.311 1405.15 1031.12 C 1428.57 1051.24 1451.36 1072.13 1475.5 1091.38 C 1470.4 1094.02 1466.31 1097.63 1461.77 1101.09 C 1453.34 1107.54 1444.96 1110.95 1434.87 1113.99 C 1431.79 1112.92 1428.66 1111.95 1425.43 1111.4 C 1413.88 1109.45 1403.81 1117.63 1394.88 1123.67 C 1394.87 1113.54 1395.21 1102.01 1393.48 1092.06 C 1392.83 1088.29 1391.89 1085.99 1388.75 1083.73 C 1381.21 1083.09 1360.19 1097.04 1351.95 1100.75 C 1337.83 1094.64 1322.86 1085.98 1308.05 1082.07 C 1304.82 1081.22 1301.88 1080.49 1298.6 1081.53 C 1287.16 1085.15 1275.2 1093.79 1264.72 1099.76 L 1208.86 1131.32 C 1177.41 1150.41 1144.6 1167.83 1112.51 1185.85 C 1083.83 1159.31 1057.13 1129.88 1029.84 1101.85 A 12027 12027 0 0 1 910.986 980.088 C 937.542 965.632 965.134 952.856 992.288 939.553 A 9522.26 9522.26 0 0 1 1102.63 885.817 C 1131.23 872.329 1160.26 859.385 1188.33 844.806 z"/>
<path transform="translate(0,0)" fill="rgb(242,240,211)" d="M 2048 386.245 L 2048 426.589 C 2012.99 442.89 1978.78 460.757 1943.96 477.407 L 1689.85 598.357 A 61248.1 61248.1 0 0 0 629.734 1107.69 A 31840.2 31840.2 0 0 1 239.475 1295.32 L 106.162 1358.38 C 70.7918 1375.2 35.841 1392.58 0 1408.42 L 0 1351.33 A 96271.8 96271.8 0 0 0 1283.3 748.15 L 1749.19 527.9 A 15658.7 15658.7 0 0 1 1964.02 426.685 C 1992.14 413.501 2019.58 398.782 2048 386.245 z"/>
<path transform="translate(0,0)" fill="rgb(242,240,211)" d="M 1628.67 1275.9 C 1638.55 1279.87 1677.52 1318.44 1688.56 1328.43 A 6830.86 6830.86 0 0 1 1816.4 1445.81 C 1831.4 1459.75 1846.89 1473.17 1861.65 1487.38 C 1843.45 1502.84 1822.43 1516.09 1803.37 1530.65 C 1736.22 1581.93 1667.32 1633.3 1596.04 1678.65 C 1574.77 1657.94 1554.05 1636.59 1533.16 1615.5 L 1416.05 1497.23 C 1400.45 1481.4 1381.43 1466.02 1368.06 1448.37 C 1363.16 1441.91 1360.01 1433.76 1356.15 1426.64 C 1351.42 1417.89 1345.95 1409.62 1340.49 1401.32 C 1370.71 1384.73 1401.25 1366.46 1432.72 1352.5 A 560.452 560.452 0 0 0 1466.79 1371.33 C 1479.75 1377.79 1496.36 1383.43 1507.37 1392.68 C 1514.94 1399.04 1515.74 1410.72 1522.64 1417.02 C 1524.7 1418.9 1526.25 1419.25 1529.01 1418.94 C 1540.19 1417.67 1601.42 1376.17 1607.35 1366.91 C 1611.77 1360 1611.61 1344.65 1609.79 1336.82 C 1607.07 1325.17 1583.36 1314.92 1573.46 1308.87 C 1591.62 1297.37 1609.66 1285.96 1628.67 1275.9 z"/>
<path transform="translate(0,0)" fill="rgb(242,240,211)" d="M 1885.33 1030.42 C 1914.74 1054.66 1945.9 1077.26 1976.2 1100.4 C 2000.19 1118.73 2023.57 1138.04 2048 1155.76 L 2048 1350.89 C 2033.07 1359.98 2018.9 1371.87 2004.57 1382.02 A 9597.06 9597.06 0 0 0 1868.58 1482.2 C 1855.07 1468.93 1840.53 1456.57 1826.66 1443.65 C 1764.07 1385.33 1699.49 1329.18 1637.1 1270.68 C 1647.58 1262.99 1659.6 1256.63 1670.77 1249.96 A 5490.34 5490.34 0 0 1 1736.08 1211.38 C 1761.39 1196.49 1785.63 1179.6 1811 1164.95 C 1835.88 1171.09 1837.91 1169.14 1860.33 1157.98 C 1863.03 1153.54 1866.56 1148.3 1867.02 1143 C 1868.67 1124.04 1835.67 1079.84 1823.1 1064.27 A 2169.71 2169.71 0 0 1 1885.33 1030.42 z"/>
<path transform="translate(0,0)" fill="rgb(242,240,211)" d="M 1469.07 709.846 C 1477.95 713.373 1510.71 741.858 1520.09 749.255 L 1592.67 805.647 A 18778 18778 0 0 1 1786.51 955.223 C 1816.62 978.392 1848.09 1000.2 1877.16 1024.68 C 1857.51 1035.67 1837.39 1045.88 1817.6 1056.64 C 1799.52 1035.32 1751.69 974.477 1726.8 966.086 C 1719.58 963.65 1713.2 965.488 1706.27 967.867 C 1696.4 971.251 1688.37 977.542 1679.2 982.256 C 1661.84 991.183 1644.22 999.703 1626.72 1008.36 L 1477.23 1081.22 C 1463.94 1072.43 1451.88 1060.39 1439.74 1050.07 A 3484 3484 0 0 1 1366.64 987.219 A 13798.6 13798.6 0 0 0 1197.8 840.984 L 1469.07 709.846 z"/>
<path transform="translate(0,0)" fill="rgb(242,240,211)" d="M 655.42 1552.76 C 658.896 1556.91 662.757 1561.01 665.696 1565.56 C 664.766 1573.97 663.561 1581.14 669.563 1588.14 C 672.097 1591.1 675.613 1592.89 679.514 1593.05 C 684.145 1593.25 688.765 1590.95 692.079 1587.84 C 697.135 1583.1 699.903 1576.1 699.923 1569.24 A 310.16 310.16 0 0 0 699.733 1559.08 L 701.277 1558.67 L 702.986 1561.28 L 704.533 1561.38 C 704.759 1561.02 705.579 1559.71 705.821 1559.43 C 706.114 1559.08 706.475 1558.81 706.802 1558.5 C 707.586 1561.55 707.906 1562.04 710.578 1563.65 C 715.382 1566.55 720.24 1568.65 724.782 1572.08 C 736.959 1567.91 748.324 1561.66 759.887 1556.06 C 802.424 1602.11 843.669 1650.84 882.686 1699.93 A 19504.2 19504.2 0 0 1 651.7 1836.28 C 591.205 1871.87 530.923 1908.82 469.319 1942.43 C 458.368 1927.26 447.54 1911.95 436.159 1897.09 C 421.74 1878.28 314.631 1742.74 312.395 1735.09 C 311.624 1732.45 312.956 1725.6 313.131 1722.62 C 332.593 1714.13 351.601 1704.3 370.659 1694.93 A 9836.47 9836.47 0 0 0 478.216 1641.08 L 523.868 1617.84 C 530.551 1614.51 537.527 1610.35 544.55 1607.94 C 547.22 1613.6 550.689 1624.07 555.413 1628.05 C 567.04 1624.26 596.525 1608.62 604.855 1599.89 C 606.453 1593.64 602.377 1586.12 600.056 1580.36 C 618.458 1571.27 636.72 1561.18 655.42 1552.76 z"/>
<path transform="translate(0,0)" fill="rgb(242,240,211)" d="M 888.466 1705.93 A 25905.9 25905.9 0 0 1 1126.57 1987.35 C 1095.73 2008.8 1062.4 2026.55 1031.71 2048 L 550.378 2048 C 532.964 2026.2 516.282 2003.87 499.359 1981.69 C 491.06 1970.81 482.986 1959.31 473.949 1949.07 C 502.018 1931.64 531.029 1915.74 559.548 1899.07 L 716.345 1807.1 A 6353.87 6353.87 0 0 0 791.844 1762.68 C 823.646 1743.41 855.566 1723.24 888.466 1705.93 z"/>
<path transform="translate(0,0)" fill="rgb(242,240,211)" d="M 901.893 983.943 C 903.861 983.987 904.87 984.739 906.284 986.066 C 925.323 1003.94 942.837 1024.23 961.097 1042.98 L 1105.19 1191.48 C 1094.28 1197.22 1044.08 1221.87 1039.14 1228.39 C 1034.28 1234.81 1036.29 1245.42 1036.86 1252.86 L 1030.97 1261.5 C 1031.71 1268.41 1033.36 1274.9 1035.12 1281.6 C 1028.18 1277.32 1021.37 1273.04 1013.91 1269.71 C 1003.18 1273.18 992.467 1279.32 982.207 1284.1 A 2461.86 2461.86 0 0 0 901.609 1323.44 C 840.031 1354.19 777.681 1383.6 717.029 1416.15 L 713.995 1416.87 C 709.694 1415.18 687.187 1387.92 682.171 1382.17 A 7458.42 7458.42 0 0 0 559.199 1244.41 C 539.594 1222.58 518.943 1201.29 500.338 1178.62 C 540.746 1160 580.504 1139.86 620.54 1120.46 L 767.485 1049.53 A 6109.54 6109.54 0 0 1 901.893 983.943 z"/>
<path transform="translate(0,0)" fill="rgb(242,240,211)" d="M 1868.09 1493.8 C 1899.93 1521.64 1930.64 1551.22 1961.46 1580.19 L 2048 1660.85 L 2048 2048 L 1955.96 2048 C 1924.47 2012.9 1889.72 1980.28 1856.72 1946.58 C 1810.92 1899.8 1766.19 1852.12 1719.85 1805.82 A 10068.8 10068.8 0 0 1 1648.59 1733.72 C 1633.05 1717.82 1617.02 1702.11 1602.61 1685.18 A 9572.84 9572.84 0 0 0 1868.09 1493.8 z"/>
<path transform="translate(0,0)" fill="rgb(242,240,211)" d="M 1809.05 550.716 C 1822.42 557.32 1835.04 565.9 1847.81 573.63 L 1923.29 619.397 L 2007 669.31 C 2020.69 677.584 2035.17 685.319 2048 694.889 L 2048 928.098 A 6597.8 6597.8 0 0 1 1884.29 1020.28 C 1869.47 1010.03 1855.74 997.142 1841.3 986.197 L 1688.8 868.575 L 1556.29 767.425 C 1530.01 747.327 1503.36 727.527 1478.18 706.058 C 1527.57 679.915 1580.07 658.361 1630.76 634.767 C 1690.29 607.062 1749.02 577.284 1809.05 550.716 z"/>
<path transform="translate(0,0)" fill="rgb(242,240,211)" d="M 1595.22 1689.76 L 1855.01 1955.98 C 1884.89 1986.8 1916.29 2016.44 1945.36 2048 L 1189.28 2048 C 1172.34 2028.44 1156.39 2008.06 1139.22 1988.7 A 11303.5 11303.5 0 0 0 1438.64 1796.49 L 1543.95 1724.79 C 1560.82 1713.21 1577.63 1700.16 1595.22 1689.76 z"/>
<path transform="translate(0,0)" fill="rgb(242,240,211)" d="M 493.093 1181.97 C 501.675 1188.58 509.964 1200.09 517.224 1208.24 L 570.886 1268.77 L 666.963 1376.08 C 680.271 1391.13 694.325 1405.81 706.817 1421.54 C 696.819 1426.81 678.6 1431.83 671.763 1440.7 C 664.828 1449.69 668.827 1464.37 670.445 1474.55 C 617.214 1466.15 564.824 1452.69 511.961 1442.33 C 498.829 1449.64 487.362 1457.12 476.099 1467.13 C 484.72 1482.4 494.847 1496.96 504.4 1511.68 C 514.744 1527.62 524.678 1544.04 536.167 1559.18 L 339.486 1654.01 A 2112.56 2112.56 0 0 0 292.833 1677.26 C 291.211 1676.49 289.581 1675.68 287.864 1675.13 C 282.361 1673.38 278.121 1675.98 273.323 1678.28 C 265.302 1665.31 255.353 1653.55 246.168 1641.38 L 196.247 1574.84 L 60.2566 1389.57 C 97.5494 1370.59 135.758 1353.7 173.461 1335.59 A 31070.9 31070.9 0 0 0 493.093 1181.97 z"/>
<path transform="translate(0,0)" fill="rgb(242,240,211)" d="M 1375.31 1468.54 C 1385.92 1474.12 1415.69 1507.56 1426.05 1518.07 A 7478.31 7478.31 0 0 1 1530.01 1623.57 C 1549.71 1643.71 1570.99 1663.19 1589.63 1684.27 A 10476 10476 0 0 1 1233.47 1920.01 C 1200.19 1940.94 1167.69 1962.67 1133.74 1982.55 C 1109.06 1957.14 1087.06 1928.35 1064.16 1901.3 L 950.177 1766.32 C 931.912 1744.73 912.357 1723.77 895.048 1701.45 C 914.389 1688.59 935.295 1677.43 955.236 1665.44 A 5833.41 5833.41 0 0 1 1093.4 1583.96 L 1158.73 1546.53 C 1176.21 1536.36 1193.6 1525.5 1211.94 1516.96 C 1222.34 1540.97 1232.03 1566.1 1237.44 1591.77 C 1239.11 1599.7 1235.45 1609.14 1238.28 1616.49 C 1248.1 1618.37 1290.15 1610.98 1303.18 1609.8 C 1321.01 1608.18 1381.87 1607.61 1393.31 1603.11 C 1396.32 1601.92 1398.36 1598.84 1399.7 1595.99 C 1411.3 1571.23 1384.79 1494.62 1375.31 1468.54 z"/>
<path transform="translate(0,0)" fill="rgb(242,240,211)" d="M 0 1416.44 C 17.7883 1409.17 35.1091 1400.51 53.006 1393.59 C 68.6865 1412.58 82.3335 1433.43 97.023 1453.2 L 193.674 1583.66 L 238.888 1643.9 C 248.289 1656.26 259.916 1668.97 266.839 1682.83 C 247.976 1692.22 229.506 1702.36 210.629 1711.73 C 191.722 1721.12 166.449 1732.08 149.551 1743.95 C 147.501 1745.4 146.544 1747.04 145.844 1749.42 C 143.208 1758.36 151.543 1774.03 156.32 1781.52 C 162.101 1790.57 169.435 1797.81 179.234 1802.42 C 194.359 1791 212.475 1783.34 229.376 1774.88 L 304.607 1737.2 C 339.591 1785.49 376.305 1832.41 412.465 1879.81 C 429.108 1901.63 447.898 1922.84 462.146 1946.36 L 354.113 2007.51 C 330.082 2020.88 305.137 2033.52 281.776 2048 L 0 2048 L 0 1416.44 z"/>
<path transform="translate(0,0)" fill="rgb(0,0,0)" d="M 0 0 L 385.346 0 L 391.222 0 L 432.153 0 L 439.902 0 L 832.938 0 L 840.763 0 L 876.951 0 L 884.065 0 L 932.585 0 L 938.981 0 L 1278.61 0 L 1285.83 0 L 1313.36 0 L 1319.7 0 L 1410.89 0 L 1416.6 0 L 1436.94 0 L 1443.93 0 L 1805.03 0 L 1812.67 0 L 1858.3 0 L 1864.48 0 L 2048 0 L 2048 73.6435 L 2048 80.8046 L 2048 97.5833 L 2048 104.708 L 2048 239.483 L 2048 246.909 L 2048 257.644 L 2048 264.39 L 2048 378.206 L 2048 386.245 C 2019.58 398.782 1992.14 413.501 1964.02 426.685 A 15658.7 15658.7 0 0 0 1749.19 527.9 L 1283.3 748.15 A 96271.8 96271.8 0 0 1 0 1351.33 L 0 1342.64 L 0 129.884 L 0 121.623 L 0 0 z"/>
<path transform="translate(0,0)" fill="rgb(242,240,211)" d="M 1535.59 141.816 C 1536.53 142.814 1536.85 143.522 1537.01 144.952 C 1537.78 151.96 1536.77 166.033 1532.08 171.23 C 1531.99 171.124 1531.89 171.028 1531.81 170.911 C 1528.68 166.11 1530.26 153.341 1531.2 147.528 C 1531.73 144.281 1533.13 143.649 1535.59 141.816 z"/>
<path transform="translate(0,0)" fill="rgb(242,240,211)" d="M 1443.34 138.81 C 1445.59 140.94 1447.31 144.389 1448.99 147.041 C 1448.58 162.535 1449.42 178.012 1449.69 193.502 C 1450.06 214.599 1450.07 235.675 1450.71 256.77 C 1447.98 255.909 1446.09 255.098 1443.71 253.513 C 1441.56 241.708 1443.13 227.144 1443.12 215.006 C 1443.09 189.639 1442.58 164.162 1443.34 138.81 z"/>
<path transform="translate(0,0)" fill="rgb(242,240,211)" d="M 1523.84 155.066 C 1524.9 159.269 1526.46 165.914 1523.94 169.764 C 1518.17 178.561 1497.25 178.394 1487.73 177.784 C 1483.61 177.519 1477.87 176.204 1473.88 177.139 C 1472.33 177.504 1472.16 179.019 1471.49 180.344 L 1470.24 180.632 L 1467.71 178.578 C 1466.74 175.917 1467.32 174.634 1468.09 172.031 C 1471.65 172.106 1475.94 172.988 1478.86 170.936 L 1478.57 168.92 C 1476.09 167.153 1472.5 167.571 1469.55 167.475 C 1469.77 164.598 1472.21 162.279 1473.92 160.079 C 1492.94 163.121 1506.13 164.209 1523.84 155.066 z"/>
<path transform="translate(0,0)" fill="rgb(242,240,211)" d="M 1241.89 129.866 C 1248.76 127.321 1273.45 115.643 1279.61 118.128 L 1280.29 120.037 C 1270.46 127.002 1254.54 129.743 1243.18 134.377 L 1070.45 197.378 C 1028.54 212.995 986.544 230.141 944.041 243.974 L 942.915 243.053 L 942.857 240.511 C 946.267 236.79 1213.99 139.526 1241.89 129.866 z"/>
<path transform="translate(0,0)" fill="rgb(242,240,211)" d="M 844.85 275.055 L 845.606 279.595 C 845.293 280.263 845.216 281.105 844.667 281.598 C 843.268 282.855 824.138 288.47 820.375 289.908 A 3999.31 3999.31 0 0 1 740.474 320.298 C 649.565 354.747 559.783 392.113 469.237 427.495 C 467.945 426.061 468.195 425.914 467.977 424.093 C 474.096 416.8 697.047 330.832 729.31 318.567 C 767.723 303.964 806.82 290.574 844.85 275.055 z"/>
<path transform="translate(0,0)" fill="rgb(242,240,211)" d="M 1479.81 132.27 L 1481.43 133.662 C 1482.91 140.048 1482.34 147.379 1482.36 153.942 C 1478.61 153.879 1475.03 153.523 1471.62 155.303 C 1466.49 157.981 1462.35 164.901 1460.92 170.337 C 1459.65 175.196 1459.85 182.231 1462.99 186.433 C 1464.74 188.773 1466.93 190.044 1469.76 190.619 C 1473.8 191.436 1476.24 190.074 1479.39 187.779 C 1479.67 187.576 1479.94 187.365 1480.22 187.158 L 1480.66 187.576 C 1482.09 197.74 1482.25 239.227 1480.55 248.695 C 1480.14 250.975 1479.7 250.67 1477.9 251.906 C 1471.21 254.648 1464.41 257.153 1457.68 259.767 C 1454.19 232.226 1456.17 202.177 1456.16 174.397 C 1456.15 162.641 1456.86 150.283 1454.69 138.706 C 1463 136.119 1471.23 133.788 1479.81 132.27 z"/>
<path transform="translate(0,0)" fill="rgb(242,240,211)" d="M 2048 246.909 L 2048 257.644 C 2024.52 269.953 2000.39 280.725 1976.49 292.163 L 1853.09 351.291 L 1853.11 334.745 C 1881.09 324.018 1908.56 310.626 1935.79 298.125 L 2048 246.909 z"/>
<path transform="translate(0,0)" fill="rgb(242,240,211)" d="M 2048 80.8046 L 2048 97.5833 A 5258.77 5258.77 0 0 1 1855.14 183.787 L 1855.73 166.05 C 1875.84 157.475 1895.54 147.765 1915.58 138.982 C 1959.75 119.626 2004.15 100.898 2048 80.8046 z"/>
<path transform="translate(0,0)" fill="rgb(242,240,211)" d="M 1285.86 624.1 L 1286.88 625.128 C 1287.41 628.099 1287.47 630.499 1287.3 633.516 C 1285.31 636.163 1282.8 637.444 1279.81 638.798 C 1272.17 642.252 1264.02 644.928 1256.26 648.171 L 1190.52 675.815 L 969.406 770.101 C 967.219 767.389 967.757 761.369 967.629 757.989 C 982.031 750.867 997.493 745.119 1012.31 738.872 A 6896.4 6896.4 0 0 0 1100.59 701.547 A 8399.73 8399.73 0 0 1 1220.46 650.603 C 1242.02 641.594 1263.7 631.481 1285.86 624.1 z"/>
<path transform="translate(0,0)" fill="rgb(242,240,211)" d="M 1280.74 275.16 C 1281.01 275.447 1281.34 275.686 1281.55 276.022 C 1283 278.328 1283.05 281.892 1282.38 284.379 C 1279.95 287.756 1276.48 289.287 1272.74 290.902 C 1256.73 297.81 1239.57 302.99 1223.21 309.154 L 1118.31 348.883 C 1062.03 369.97 1006.17 393.439 949.278 412.724 L 948.003 398.515 C 975.495 387.12 1003.51 377.058 1031.38 366.641 L 1150.57 322.343 C 1192.61 306.981 1238.5 287.989 1280.74 275.16 z"/>
<path transform="translate(0,0)" fill="rgb(242,240,211)" d="M 1280.77 451.038 L 1283.05 451.645 C 1284.64 455.442 1283.96 460.567 1283.9 464.652 C 1254.11 477.436 1223.35 488.289 1193.14 500.074 C 1115.4 530.403 1037.18 559.805 959.822 591.065 L 959.216 590.868 C 957.016 588 957.253 578.231 956.932 574.251 C 997.45 556.88 1039.42 542.707 1080.57 526.894 A 11029.2 11029.2 0 0 1 1280.77 451.038 z"/>
<path transform="translate(0,0)" fill="rgb(242,240,211)" d="M 854.665 434.074 C 856.981 436.367 856.523 444.86 856.703 448.133 C 832.402 458.665 807.617 468.208 783.103 478.242 L 629.449 540.924 C 580.079 561.011 531.233 583.328 481.338 601.957 C 479.996 597.476 479.861 592.455 479.391 587.805 C 490.216 582.173 502.45 577.906 513.743 573.199 L 585.818 543.445 L 750.676 476.107 C 785.355 462.12 820.221 448.639 854.665 434.074 z"/>
<path transform="translate(0,0)" fill="rgb(242,240,211)" d="M 879.348 799.805 C 880.224 799.837 881.357 800.192 882.223 800.378 C 884 803.586 883.512 808.199 883.587 811.804 A 9253.05 9253.05 0 0 0 747.476 872.806 L 599.909 937.66 C 570.19 950.79 540.635 964.612 510.63 977.05 L 509.347 976.361 C 507.124 971.793 507.478 965.801 507.179 960.782 C 543.981 946.062 580.125 929.217 616.479 913.399 L 753.339 854.466 C 795.308 836.216 837.108 817.415 879.348 799.805 z"/>
<path transform="translate(0,0)" fill="rgb(242,240,211)" d="M 865.588 624.83 C 867.01 624.649 866.162 624.599 868.027 625.57 C 869.637 629.553 869.3 634.604 869.468 638.873 C 853.666 644.686 838.19 651.867 822.585 658.239 A 9073.71 9073.71 0 0 0 699.998 708.825 C 632.388 736.709 563.901 762.572 496.565 791.142 L 495.098 790.656 C 492.941 786.695 493.338 780.266 493.037 775.769 C 535.252 756.758 579.04 740.291 622.012 723.032 L 865.588 624.83 z"/>
<path transform="translate(0,0)" fill="rgb(242,240,211)" d="M 1416.6 0 L 1436.94 0 L 1437.59 441.416 A 10261.8 10261.8 0 0 0 1437.79 583.644 C 1437.82 610.437 1436.32 638.136 1438.71 664.795 C 1432.54 668.658 1425.52 671.638 1418.99 674.869 L 1416.6 0 z"/>
<path transform="translate(0,0)" fill="rgb(242,240,211)" d="M 1285.83 0 L 1313.36 0 C 1312.76 51.2016 1313.67 102.399 1313.61 153.6 L 1313.18 505.333 L 1313.17 643.095 C 1313.29 670.157 1314.73 697.779 1313.18 724.781 C 1307.93 727.502 1302.69 730.011 1297.25 732.318 C 1294.28 705.953 1295.58 677.905 1295.07 651.32 L 1292.01 500.584 A 38173.1 38173.1 0 0 1 1285.83 0 z"/>
<path transform="translate(0,0)" fill="rgb(242,240,211)" d="M 1812.67 0 L 1858.3 0 C 1855.93 56.2807 1850.86 112.36 1848.09 168.598 C 1845.48 221.729 1846.48 275.164 1845.9 328.358 C 1845.38 376.751 1843.3 425.446 1845.21 473.82 C 1828.9 480.764 1812.92 489.093 1796.88 496.671 C 1796.9 477.382 1798.92 457.69 1799.88 438.398 A 6976.22 6976.22 0 0 0 1804.3 328.788 L 1812.67 0 z"/>
<path transform="translate(0,0)" fill="rgb(242,240,211)" d="M 1864.48 0 L 2048 0 L 2048 73.6435 C 1985.51 105.121 1919.56 129.415 1856.32 159.358 C 1858.43 136.367 1858.7 112.864 1860.09 89.7888 C 1861.87 60.0531 1864.71 29.7941 1864.48 0 z"/>
<path transform="translate(0,0)" fill="rgb(242,240,211)" d="M 1852.68 357.609 C 1879.73 346.757 1906.42 332.463 1932.78 319.888 C 1971.25 301.542 2010.11 283.921 2048 264.39 L 2048 378.206 C 2011.13 394.631 1975.07 412.998 1938.67 430.438 A 6741.32 6741.32 0 0 1 1852.25 470.111 A 2048.21 2048.21 0 0 1 1852.68 357.609 z"/>
<path transform="translate(0,0)" fill="rgb(242,240,211)" d="M 1854.17 190.584 C 1872.27 185.348 1889.67 175.586 1906.98 168.087 C 1954.28 147.592 2000.97 125.804 2048 104.708 L 2048 239.483 A 17768.5 17768.5 0 0 1 1853.15 328.693 C 1851.94 282.771 1853.65 236.531 1854.17 190.584 z"/>
<path transform="translate(0,0)" fill="rgb(242,240,211)" d="M 840.763 0 L 876.951 0 C 876.926 55.8709 880.181 111.751 882.411 167.557 A 11173.8 11173.8 0 0 0 910.881 632.072 L 921.466 795.932 C 923.629 832.832 924.715 870.511 929.929 907.083 C 919.357 912.408 908.288 916.938 897.576 922.009 C 894.463 824.793 883.492 728.153 876.323 631.208 L 856.62 328.196 A 9212.1 9212.1 0 0 1 840.763 0 z"/>
<path transform="translate(0,0)" fill="rgb(242,240,211)" d="M 1284.6 642.88 L 1286.96 643.223 C 1289.42 649.049 1289.08 725.023 1288.81 736.772 C 1237.14 762.807 1184.25 786.717 1131.91 811.387 C 1079.21 836.23 1026.9 861.859 973.959 886.207 C 972.723 849.891 971.188 813.351 968.277 777.124 L 1140.98 703.307 C 1188.66 682.919 1236.31 661.732 1284.6 642.88 z"/>
<path transform="translate(0,0)" fill="rgb(242,240,211)" d="M 884.065 0 L 932.585 0 C 933.221 22.4913 932.309 45.243 932.28 67.7711 L 933.17 203.162 C 934.388 285.632 938.724 368.378 942.689 450.767 L 957.849 727.504 C 961.098 781.492 966.193 836.159 966.589 890.218 A 748.509 748.509 0 0 1 935.814 904.298 L 899.993 367.214 A 10651.4 10651.4 0 0 1 884.065 0 z"/>
<path transform="translate(0,0)" fill="rgb(242,240,211)" d="M 391.222 0 L 432.153 0 C 434.212 17.4269 434.916 35.3492 436.136 52.873 L 443.25 165.6 L 460.354 420.387 L 511.172 1105.01 C 502.294 1108.55 493.582 1112.75 484.837 1116.62 C 481.092 1082.02 479.146 1047.08 476.397 1012.38 L 461.588 831.876 L 416.198 299.178 A 17621.5 17621.5 0 0 0 398.529 76.0215 C 396.643 54.5214 396.463 19.6645 391.222 0 z"/>
<path transform="translate(0,0)" fill="rgb(242,240,211)" d="M 288.938 17.097 C 290.758 20.9225 295.767 89.35 296.66 98.3487 L 311.624 238.499 A 49482 49482 0 0 1 407.55 1154.2 C 399.091 1158.29 390.201 1161.72 381.559 1165.41 A 20575.6 20575.6 0 0 1 286.313 315.295 A 10682.4 10682.4 0 0 1 269.023 114.367 C 266.647 85.5427 263.745 56.7596 261.946 27.8904 L 288.938 17.097 z"/>
<path transform="translate(0,0)" fill="rgb(242,240,211)" d="M 882.787 818.056 C 886.431 822.568 888.954 911.364 891.145 926.12 C 850.126 944.575 809.674 964.548 769.011 983.794 L 517.214 1101.91 C 516.1 1062.53 510.055 1023.3 508.655 983.93 C 521.141 979.526 533.518 973.544 545.649 968.193 L 610.437 939.549 L 882.787 818.056 z"/>
<path transform="translate(0,0)" fill="rgb(242,240,211)" d="M 1277.61 127.988 L 1279.63 128.628 C 1281.29 139.093 1279.85 151.385 1280.13 162.095 L 1282.08 267.395 C 1248.6 280.92 1214.54 292.801 1180.6 305.131 A 6873.19 6873.19 0 0 0 1045.19 355.373 C 1012.67 367.477 980.033 378.955 947.91 392.107 C 946.576 377.335 946.721 362.187 946.169 347.35 L 942.885 250.666 C 955.702 246.843 968.169 241.496 980.721 236.86 A 5192.91 5192.91 0 0 0 1057.18 208.309 C 1094.59 194.169 1132.43 181.248 1169.96 167.445 C 1205.8 154.259 1241.41 140.164 1277.61 127.988 z"/>
<path transform="translate(0,0)" fill="rgb(242,240,211)" d="M 1283.8 470.991 C 1286.4 481.659 1285.18 500.238 1285.44 511.8 L 1287.4 616.213 C 1266.25 625.892 969.721 750.762 967.676 750.746 L 967.276 749.063 C 964.263 732.272 964.419 713.81 963.505 696.744 L 958.788 596.915 C 1031.4 570.4 1103.3 541.442 1175.2 513.059 C 1211.32 498.804 1247.88 485.758 1283.8 470.991 z"/>
<path transform="translate(0,0)" fill="rgb(242,240,211)" d="M 1278.32 294.926 C 1279.54 294.879 1280.31 295.165 1281.46 295.524 C 1283.07 298.888 1283.51 429.783 1283.84 443.941 A 9784.33 9784.33 0 0 0 1077.54 521.506 C 1037.53 536.916 996.958 551.271 957.48 568.018 C 954.125 555.471 955.18 539.021 954.542 526.017 C 952.862 491.76 952.486 452.851 948.717 419.228 C 964.557 414.221 980.084 407.512 995.623 401.603 L 1079.51 369.668 A 13138 13138 0 0 1 1278.32 294.926 z"/>
<path transform="translate(0,0)" fill="rgb(242,240,211)" d="M 844.752 287.097 C 844.916 287.224 845.107 287.323 845.243 287.479 C 848.475 291.176 854.035 410.525 855.169 428.021 L 479.417 581.278 C 474.842 532.446 471.443 482.945 468.894 433.958 C 488.732 425.219 509.362 417.913 529.471 409.771 A 6913.56 6913.56 0 0 1 680.374 349.811 C 734.988 328.76 789.388 306.045 844.752 287.097 z"/>
<path transform="translate(0,0)" fill="rgb(242,240,211)" d="M 938.981 0 L 1278.61 0 C 1278.04 18.4313 1278.59 36.8263 1278.77 55.2563 C 1278.95 73.3237 1278.72 91.4245 1279.94 109.46 C 1240.45 122.341 1201.71 137.829 1162.72 152.156 L 942.397 233.607 C 940.03 155.67 940.014 77.9376 938.981 0 z"/>
<path transform="translate(0,0)" fill="rgb(0,0,0)" d="M 1214.34 21.7497 L 1217.97 22.0592 L 1218.5 23.7375 C 1207.51 37.0015 1191.57 48.5532 1178.81 60.219 C 1138.95 96.683 1096.52 131.544 1058.79 170.165 C 1057.11 169.438 1056.59 168.999 1055.34 167.758 C 1056.44 164.153 1060.98 160.38 1063.64 157.766 C 1089.61 132.302 1117.8 108.939 1144.62 84.3535 A 3930.44 3930.44 0 0 1 1191.43 41.9896 C 1198.94 35.2477 1206.16 27.6588 1214.34 21.7497 z"/>
<path transform="translate(0,0)" fill="rgb(242,240,211)" d="M 868.662 646.083 C 869.594 646.781 870.001 647.594 870.327 648.742 C 872.744 657.26 872.352 672.158 873.096 681.487 L 878.493 749.965 C 879.562 763.878 880.053 778.139 882.149 791.931 A 11187.9 11187.9 0 0 1 718.162 862.871 L 508.608 954.057 L 507.579 953.636 C 504.109 946.642 495.595 814.142 495.565 797.745 C 563.605 769.555 632.643 743.49 700.561 715.043 A 8439.55 8439.55 0 0 1 818.404 666.374 C 835.025 659.654 851.633 651.602 868.662 646.083 z"/>
<path transform="translate(0,0)" fill="rgb(242,240,211)" d="M 855.253 454.912 L 856.414 455.227 C 859.255 463.09 858.926 486.161 859.632 496.179 L 868.155 617.462 C 855.655 624.338 841.37 629.008 828.082 634.212 L 760.035 661.09 C 671.495 696.854 582.425 731.635 494.28 768.336 C 491.051 764.497 482.704 626.352 480.954 608.867 L 855.253 454.912 z"/>
<path transform="translate(0,0)" fill="rgb(161,147,143)" d="M 1319.7 0 L 1410.89 0 A 27075.8 27075.8 0 0 0 1411.6 288.1 A 37626 37626 0 0 0 1412.7 678.442 C 1382.65 693.749 1351.15 706.204 1320.98 721.298 C 1322.58 624.23 1320.94 526.832 1320.71 429.735 L 1319.7 0 z"/>
<path transform="translate(0,0)" fill="rgb(161,147,143)" d="M 0 0 L 385.346 0 C 384.787 13.4364 387.126 28.0194 388.299 41.4842 A 7395.9 7395.9 0 0 1 394.882 119.237 A 25916 25916 0 0 0 418.915 415.766 L 453.864 823.218 L 468.8 1004.86 C 471.768 1043.14 472.879 1082.17 478.216 1120.19 A 1175.19 1175.19 0 0 1 414.184 1150.52 A 36146.2 36146.2 0 0 0 331.452 352.038 L 306.056 115.995 L 298.622 40.5013 C 297.56 29.153 297.574 17.1318 295.464 5.97138 C 280.177 13.4786 263.928 18.6167 248.092 24.8189 L 143.417 65.533 L 57.6405 99.6138 C 39.0563 107.156 19.3903 116.612 0 121.623 L 0 0 z"/>
<path transform="translate(0,0)" fill="rgb(242,240,211)" d="M 439.902 0 L 832.938 0 C 833.384 27.3006 835.275 54.6577 836.24 81.957 C 838.423 143.756 840.619 205.986 845.174 267.658 A 12085.3 12085.3 0 0 0 592.888 365.029 L 517.772 394.699 C 501.038 401.259 484.001 407.392 467.694 414.944 C 463.121 365.55 460.697 315.896 457.482 266.395 L 439.902 0 z"/>
<path transform="translate(0,0)" fill="rgb(0,0,0)" d="M 769.852 178.801 C 770.457 179.393 771.025 180.34 771.527 181.031 C 770.956 183.537 769.335 184.938 767.682 186.805 C 733.194 225.764 694.731 261.614 663.371 303.315 L 661.431 301.316 C 661.517 289.247 756.015 192.596 769.852 178.801 z"/>
<path transform="translate(0,0)" fill="rgb(0,0,0)" d="M 782.088 103.672 C 783.24 104.272 782.578 103.809 783.764 105.42 C 781.956 109.705 778.756 113.489 775.854 117.094 A 7574.55 7574.55 0 0 1 653.213 263.41 C 641.581 277.047 626.613 299.348 613.775 310.149 C 612.095 309.166 612.148 309.546 611.391 307.558 C 614.006 299.972 634.526 278.703 640.525 271.429 C 686.983 215.094 732.855 157.612 782.088 103.672 z"/>
<path transform="translate(0,0)" fill="rgb(242,240,211)" d="M 1443.93 0 L 1805.03 0 C 1804.94 40.4387 1802.84 81.0626 1801.71 121.499 L 1798.22 279.226 A 7445.26 7445.26 0 0 1 1793.42 419.748 C 1792.35 446.138 1792.36 473.745 1789.11 499.909 C 1755.26 518.656 1718.97 533.678 1684.01 550.28 L 1444.99 662.018 C 1444 645.924 1444.57 629.582 1444.65 613.458 L 1444.59 543.513 A 18994.3 18994.3 0 0 0 1443.34 259.556 L 1455.06 267.87 A 831.094 831.094 0 0 0 1488.21 254.604 L 1488.22 185.04 C 1504.83 183.836 1525.32 181.294 1540.07 173.305 C 1542.12 168.445 1542.58 149.313 1542.82 143.163 C 1542.96 139.339 1542.88 137.038 1540.22 134.18 C 1529.3 132.179 1521.85 150.408 1511.95 152.953 C 1511.45 153.081 1510.94 153.161 1510.44 153.287 C 1503.03 155.164 1495.74 155.81 1488.13 156.507 C 1487.13 147.657 1489.86 135.922 1486.84 127.906 C 1485.56 126.496 1484.75 125.744 1482.9 125.106 C 1474.76 122.306 1450.75 131.854 1443.4 136.229 C 1444.89 90.9458 1444.06 45.3089 1443.93 0 z"/>
<path transform="translate(0,0)" fill="rgb(0,0,0)" d="M 1699.5 462.909 L 1701.96 463.456 L 1702.39 464.96 C 1694.7 474.393 1540.54 554.206 1516.85 566.184 L 1514.88 565.414 L 1514.46 563.717 C 1518.99 558.578 1607.9 513.247 1621.42 505.949 L 1699.5 462.909 z"/>
<path transform="translate(0,0)" fill="rgb(0,0,0)" d="M 1692.59 291.609 C 1693.88 292.63 1694.02 293.021 1694.67 294.475 C 1693.84 298.01 1691.42 301.105 1689.31 304.016 C 1682.19 313.862 1674.2 323.222 1666.9 332.975 A 9452.06 9452.06 0 0 1 1563.69 467.474 A 3338.73 3338.73 0 0 0 1532.19 508.188 C 1525.21 517.519 1518.28 528.934 1509.94 536.964 L 1507.8 535.027 C 1507.85 534.374 1507.76 533.699 1507.93 533.067 C 1509.53 527.133 1676.53 311.656 1692.59 291.609 z"/>
<path transform="translate(0,0)" fill="rgb(242,240,211)" d="M 0 129.884 C 26.4032 120.211 52.2597 109.216 78.4141 98.9084 C 136.228 76.123 194.096 53.2527 252.245 31.3479 C 253.65 30.8187 253.251 31.0213 255.079 31.224 C 256.936 46.9216 257.559 62.7221 258.825 78.4737 L 266.268 172.617 A 17120.7 17120.7 0 0 0 283.654 373.742 A 16256.4 16256.4 0 0 0 346.835 943.692 A 8874.72 8874.72 0 0 1 361.463 1061.46 C 365.591 1097.29 368.969 1133.28 375.498 1168.77 A 18864.9 18864.9 0 0 1 0 1342.64 L 0 129.884 z"/>
<path transform="translate(0,0)" fill="rgb(0,0,0)" d="M 289.201 827.705 L 290.437 828.945 C 277.292 866.913 257.102 905.261 241.739 942.982 L 191.583 1065.06 C 176.097 1103.72 161.653 1143.05 145.164 1181.29 L 144.224 1180.99 C 144.13 1180.71 143.996 1180.44 143.94 1180.14 C 141.09 1165.03 274.154 848.324 289.201 827.705 z"/>
<path transform="translate(0,0)" fill="rgb(0,0,0)" d="M 265.501 659.753 C 266.817 661.296 266.639 661.509 266.957 663.409 C 263.565 674.434 256.016 685.943 250.68 696.264 A 2400.05 2400.05 0 0 0 227.853 742.245 A 2568.11 2568.11 0 0 0 159.324 892.4 A 5645.2 5645.2 0 0 0 98.9103 1042.9 L 80.6073 1090.83 C 75.7092 1103.9 71.3984 1120.79 63.2768 1132.13 L 62.4138 1131.15 C 61.4453 1124.43 70.7698 1104.32 73.3316 1096.79 C 90.4347 1046.5 110.366 997.525 130.299 948.318 C 160.981 872.577 193.029 797.728 230.516 725.072 C 241.539 703.706 251.482 679.241 265.501 659.753 z"/>
</svg>