<svg version="1.1" xmlns="http://www.w3.org/2000/svg" style="display: block;" viewBox="0 0 2048 2048" width="1024" height="1024">
<defs>
	<linearGradient id="Gradient1" gradientUnits="userSpaceOnUse" x1="1868.66" y1="1182.95" x2="1859.85" y2="1246.84">
		<stop class="stop0" offset="0" stop-opacity="1" stop-color="rgb(2,3,4)"/>
		<stop class="stop1" offset="1" stop-opacity="1" stop-color="rgb(16,37,41)"/>
	</linearGradient>
	<linearGradient id="Gradient2" gradientUnits="userSpaceOnUse" x1="1650.68" y1="1166.84" x2="1670.91" y2="1242.56">
		<stop class="stop0" offset="0" stop-opacity="1" stop-color="rgb(3,3,3)"/>
		<stop class="stop1" offset="1" stop-opacity="1" stop-color="rgb(16,34,37)"/>
	</linearGradient>
	<linearGradient id="Gradient3" gradientUnits="userSpaceOnUse" x1="1405.8" y1="1512.5" x2="1445.75" y2="1598.97">
		<stop class="stop0" offset="0" stop-opacity="1" stop-color="rgb(10,11,12)"/>
		<stop class="stop1" offset="1" stop-opacity="1" stop-color="rgb(16,35,38)"/>
	</linearGradient>
	<linearGradient id="Gradient4" gradientUnits="userSpaceOnUse" x1="1762.99" y1="1330.59" x2="1745.56" y2="1406.89">
		<stop class="stop0" offset="0" stop-opacity="1" stop-color="rgb(6,10,12)"/>
		<stop class="stop1" offset="1" stop-opacity="1" stop-color="rgb(15,35,38)"/>
	</linearGradient>
	<linearGradient id="Gradient5" gradientUnits="userSpaceOnUse" x1="1326.75" y1="1413.96" x2="1405.64" y2="1526.59">
		<stop class="stop0" offset="0" stop-opacity="1" stop-color="rgb(6,7,7)"/>
		<stop class="stop1" offset="1" stop-opacity="1" stop-color="rgb(15,29,32)"/>
	</linearGradient>
	<linearGradient id="Gradient6" gradientUnits="userSpaceOnUse" x1="1720.39" y1="1435.12" x2="1692.73" y2="1566.23">
		<stop class="stop0" offset="0" stop-opacity="1" stop-color="rgb(10,17,19)"/>
		<stop class="stop1" offset="1" stop-opacity="1" stop-color="rgb(16,39,43)"/>
	</linearGradient>
	<linearGradient id="Gradient7" gradientUnits="userSpaceOnUse" x1="1276.54" y1="1171.92" x2="1392.8" y2="1315.45">
		<stop class="stop0" offset="0" stop-opacity="1" stop-color="rgb(0,0,1)"/>
		<stop class="stop1" offset="1" stop-opacity="1" stop-color="rgb(14,31,34)"/>
	</linearGradient>
	<linearGradient id="Gradient8" gradientUnits="userSpaceOnUse" x1="622.669" y1="486.784" x2="646.942" y2="499.381">
		<stop class="stop0" offset="0" stop-opacity="1" stop-color="rgb(214,188,146)"/>
		<stop class="stop1" offset="1" stop-opacity="1" stop-color="rgb(254,231,178)"/>
	</linearGradient>
</defs>
<path transform="translate(0,0)" fill="rgb(254,254,254)" d="M 0 0 L 2048 0 L 2048 2048 L 0 2048 L 0 0 z"/>
<path transform="translate(0,0)" fill="rgb(143,142,135)" d="M 864.218 79.5856 A 1034.53 1034.53 0 0 1 1637.37 253.179 A 781.192 781.192 0 0 1 1826.43 445.063 C 1829.81 449.319 1831.72 453.798 1833.83 458.739 C 1843.22 473.34 1853.17 487.913 1861.96 502.845 C 1900.95 569.01 1933.58 642.593 1956.09 716.004 A 993.747 993.747 0 0 1 1972.18 774.085 C 1975.63 788.429 1978.41 811.447 1984.53 824.088 C 1985.56 827.557 1985.92 830.308 1985.75 833.923 A 1166.32 1166.32 0 0 1 2001.62 985.738 C 2002.05 995.763 2003.84 1008.88 2002.17 1018.76 L 2002.01 1019.65 C 2004.08 1059.51 2001.7 1100.3 1998.23 1140.02 C 1994.62 1181.22 1989.28 1222.79 1980.69 1263.27 A 949.273 949.273 0 0 1 1762.27 1696.74 C 1643.49 1828.38 1495.32 1915.69 1325.03 1963.21 C 1288.21 1973.49 1248.6 1984.24 1210.45 1987.51 C 1206.94 1988.57 1204.15 1989.14 1200.47 1989.14 C 1185.23 1988.68 1168.9 1992.5 1153.63 1993.83 C 1137.97 1995.2 1122.13 1994.97 1106.51 1996.45 L 1103.47 1996.27 C 1074.77 1996.07 1046.26 1997.28 1017.53 1995.99 L 1014.37 1996.13 C 998.642 1994.95 982.854 1993.93 967.164 1992.3 C 955.67 1991.11 942.334 1988.1 930.956 1989 C 930.467 1988.89 929.974 1988.8 929.487 1988.69 C 925.51 1987.73 924.71 1986.64 922.571 1983.34 C 892.56 1976.87 862.645 1969.61 834.198 1957.83 C 829.561 1967.81 821.7 1989.73 813.715 1996.33 C 812.116 1996.36 810.624 1996.36 809.027 1996.22 C 804.458 1994.54 766.716 1999.03 758.453 1999.21 C 717.404 2000.11 676.87 1998.26 635.902 1997.04 L 633.246 1997.08 C 601.192 1995.17 567.606 1994.77 536.065 1988.69 L 533.987 1988.89 C 528.029 1987.19 521.429 1986.7 515.279 1985.74 C 501.477 1983.59 488.174 1981.39 474.866 1976.97 C 473.372 1976.18 472.031 1975.26 470.63 1974.32 C 464.202 1956.55 488.511 1821.8 494.748 1796.86 C 493.662 1795.3 494.033 1795.46 492.769 1794.63 C 468.408 1778.68 444.874 1762.02 422.311 1743.56 C 360.672 1693.12 283.731 1613.47 242.777 1544.95 C 215.064 1509.58 189.613 1461.61 170.698 1420.95 C 107.406 1284.92 82.3857 1166.06 80.2304 1016.4 C 77.7942 847.239 125.215 667.381 207.639 519.683 C 224.59 489.306 243.369 455.743 267.683 430.714 C 255.845 432.868 184.158 445.293 178.72 443.845 C 175.977 443.115 174.169 441.266 172.9 438.783 C 169.718 432.561 173.413 421.641 175.954 415.823 C 182.306 401.281 195.534 388.733 207.198 378.419 C 228.45 359.626 253.664 342.702 281.326 335.199 C 308.968 327.702 331.917 325.435 359.397 314.477 C 371.727 309.56 379.985 309.542 392.075 314.758 C 400.246 309.885 409.754 297.096 417.021 290.146 C 433.323 274.556 449.911 259.843 468.111 246.502 C 566.51 174.38 656.736 129.637 775.076 98.8464 C 802.129 91.8075 829.49 85.0064 857.132 80.7223 C 859.172 79.6958 861.944 79.801 864.218 79.5856 z"/>
<path transform="translate(0,0)" fill="rgb(144,174,166)" d="M 1611.51 240.727 C 1612.72 241.95 1612.86 242.797 1612.6 244.592 C 1611.96 248.919 1607.78 253.604 1605.06 256.949 C 1596.69 267.238 1586.86 276.302 1577.92 286.095 C 1567.33 297.695 1556.89 313.098 1544.41 322.396 C 1539.04 326.398 1535.69 326.259 1529.22 325.337 C 1528.27 324.126 1527.19 323.458 1527.37 321.817 C 1528.85 308.355 1597.71 252.889 1611.51 240.727 z"/>
<path transform="translate(0,0)" fill="rgb(144,174,166)" d="M 1520.3 393.978 C 1520.54 394.924 1520.49 395.743 1520.07 396.666 C 1515.09 407.653 1451.44 477.969 1440.13 486.93 A 95.7399 95.7399 0 0 1 1412.38 502.427 C 1412.17 500.846 1411.84 499.038 1411.96 497.449 C 1412.25 493.664 1415.8 489.836 1418.29 487.181 C 1436.24 468.054 1457.79 450.915 1477.39 433.406 C 1491.83 420.504 1505.51 406.368 1520.3 393.978 z"/>
<path transform="translate(0,0)" fill="rgb(144,174,166)" d="M 1214.19 856.76 L 1215.19 857.278 C 1215.18 857.56 1215.21 857.848 1215.15 858.125 C 1215.02 858.786 1150.65 947.281 1145.77 952.735 C 1136.83 962.718 1126.75 970.867 1116.14 978.94 L 1115.18 979.241 C 1115.18 978.916 1115.14 978.59 1115.17 978.267 C 1117.64 953.757 1193.99 873.26 1214.19 856.76 z"/>
<path transform="translate(0,0)" fill="rgb(144,174,166)" d="M 857.132 80.7223 C 859.172 79.6958 861.944 79.801 864.218 79.5856 C 830.544 118.758 777.248 162.204 736.425 194.957 C 729.839 200.24 720.177 209.86 712.499 212.756 L 714.512 211.85 L 714.325 210.158 C 731.67 191.289 750.888 174.014 769.208 156.094 C 790.28 135.482 810.606 113.766 833.909 95.5975 C 841.352 89.7948 849.701 86.0832 857.132 80.7223 z"/>
<path transform="translate(0,0)" fill="rgb(144,174,166)" d="M 1741.69 458.797 L 1742.62 459.848 C 1740.58 471.893 1699.43 522.714 1689.89 535.077 C 1677.44 551.211 1655.85 580.783 1634.58 583.535 C 1633.83 581.925 1633.26 580.19 1632.62 578.53 C 1632.93 575.318 1634.57 573.733 1636.6 571.393 C 1657.86 546.853 1681.73 523.939 1704.1 500.367 C 1716.97 486.817 1728.6 472.09 1741.69 458.797 z"/>
<path transform="translate(0,0)" fill="rgb(144,174,166)" d="M 1428.95 268.09 L 1429.41 269.594 C 1400.03 306.718 1368.15 342.754 1336.02 377.532 C 1324.34 390.187 1312.59 404.839 1298.91 415.355 C 1293.76 419.307 1289.46 420.928 1283.23 422.367 C 1282.22 421.346 1282.73 422.045 1282.09 420.02 C 1300.23 382.567 1394.22 299.524 1428.95 268.09 z"/>
<path transform="translate(0,0)" fill="rgb(144,174,166)" d="M 1038.55 512.903 L 1039.15 513.419 L 1038.9 515.061 C 1013.43 547.555 927.671 653.776 895.429 666.291 C 894.602 665.111 894.561 665.378 894.731 663.47 C 896.993 638.004 1013.8 537.582 1038.55 512.903 z"/>
<path transform="translate(0,0)" fill="rgb(144,174,166)" d="M 1512.68 918.052 C 1512.42 920.499 1511.04 922.054 1509.6 924.009 C 1498.61 938.916 1486.61 953.216 1475.39 967.97 C 1462.94 984.336 1451.15 1001.25 1438.43 1017.4 A 997.701 997.701 0 0 1 1410.75 1050.44 C 1396.7 1066.51 1380.12 1084.83 1357.47 1086.35 C 1357.13 1085.29 1356.8 1084.16 1356.88 1083.03 C 1357.82 1070.38 1444.3 981.518 1456.73 969.381 C 1474.84 951.694 1493.81 934.915 1512.68 918.052 z"/>
<path transform="translate(0,0)" fill="rgb(144,174,166)" d="M 1071.05 105.814 L 1072.35 106.626 C 1068.64 112.808 1060.28 119.216 1055.1 124.437 C 1011.71 168.15 970.493 199 920.953 234.389 C 900.17 249.235 879.122 264.998 856.474 276.884 L 855.737 276.882 L 855.356 275.657 C 869.21 255.269 892.149 238.676 911.073 223.05 C 944.777 195.219 978.963 168.979 1014.64 143.714 C 1033.18 130.587 1051.51 117.427 1071.05 105.814 z"/>
<path transform="translate(0,0)" fill="rgb(144,174,166)" d="M 1672.86 615.929 C 1673.46 622.421 1622.69 689.473 1615.16 699.11 C 1595.83 723.849 1550.94 777.982 1524.06 792.77 C 1517.92 796.149 1512.16 797.2 1505.34 798.036 C 1504.84 796.483 1504.72 795.513 1504.96 793.858 C 1505.63 789.367 1509.79 784.704 1512.69 781.357 C 1524.8 767.392 1538.59 754.498 1551.42 741.169 L 1630.19 660.092 C 1643.79 646.207 1657.35 627.237 1672.86 615.929 z"/>
<path transform="translate(0,0)" fill="rgb(0,0,0)" d="M 1826.43 445.063 C 1829.81 449.319 1831.72 453.798 1833.83 458.739 C 1833.71 459.332 1833.59 459.924 1833.47 460.519 C 1831.15 472.985 1832.57 502.441 1832.16 516.373 A 1125.77 1125.77 0 0 1 1825.3 605.77 A 1915.99 1915.99 0 0 1 1743.5 978.084 C 1724.62 1035.93 1703.48 1094.05 1672.91 1146.86 C 1673.17 1146.93 1673.42 1147.04 1673.69 1147.08 C 1676.75 1147.57 1681.67 1145.68 1684.69 1144.91 C 1712.99 1137.65 1734.36 1122.05 1757.16 1104.66 A 222.504 222.504 0 0 0 1771.48 1088.33 C 1777.84 1080.25 1783.15 1069.84 1791.63 1063.88 L 1793.11 1064.18 C 1793.11 1069.02 1789.78 1073.3 1787.37 1077.35 C 1792.56 1081.12 1796.19 1086.27 1801.31 1090.1 C 1805.57 1096.61 1811.66 1099.26 1818.51 1102.25 L 1813.56 1102.85 C 1812.81 1105.14 1813.13 1105.52 1813.58 1107.79 C 1801.59 1101.5 1794.26 1090.23 1786.38 1079.67 C 1781.78 1087.51 1775.71 1094.36 1769.69 1101.11 C 1755.4 1120.21 1730.83 1134.81 1709.43 1144.43 C 1672.28 1161.13 1627.75 1166.43 1589.13 1151.68 C 1557.32 1139.53 1533.85 1115.78 1520.13 1084.9 L 1521.58 1079.62 C 1536.57 1110.65 1560.05 1133.36 1592.9 1144.79 C 1608.6 1150.25 1646.79 1155.54 1661.71 1148.86 C 1661.95 1148.75 1662.17 1148.6 1662.41 1148.48 C 1672.82 1125.15 1685.24 1102.98 1695.01 1079.26 C 1763.27 913.598 1802.94 739.327 1821.42 561.36 A 1201.77 1201.77 0 0 0 1827 481.456 C 1827.32 470.146 1825.08 458.007 1826.22 446.91 C 1826.28 446.293 1826.36 445.678 1826.43 445.063 z"/>
<path transform="translate(0,0)" fill="rgb(226,223,210)" d="M 1833.83 458.739 C 1843.22 473.34 1853.17 487.913 1861.96 502.845 C 1900.95 569.01 1933.58 642.593 1956.09 716.004 A 993.747 993.747 0 0 1 1972.18 774.085 C 1975.63 788.429 1978.41 811.447 1984.53 824.088 C 1985.56 827.557 1985.92 830.308 1985.75 833.923 A 1166.32 1166.32 0 0 1 2001.62 985.738 C 2002.05 995.763 2003.84 1008.88 2002.17 1018.76 L 2002.01 1019.65 C 1998.73 1022.51 1995.95 1025.44 1993.19 1028.8 C 1990.67 1027.72 1987.75 1027.32 1985.09 1026.56 C 1942.7 1065.06 1890.17 1106.97 1829.52 1103.92 C 1825.78 1103.73 1822.16 1103.06 1818.51 1102.25 C 1811.66 1099.26 1805.57 1096.61 1801.31 1090.1 C 1796.19 1086.27 1792.56 1081.12 1787.37 1077.35 C 1789.78 1073.3 1793.11 1069.02 1793.11 1064.18 L 1791.63 1063.88 C 1783.15 1069.84 1777.84 1080.25 1771.48 1088.33 A 222.504 222.504 0 0 1 1757.16 1104.66 C 1734.36 1122.05 1712.99 1137.65 1684.69 1144.91 C 1681.67 1145.68 1676.75 1147.57 1673.69 1147.08 C 1673.42 1147.04 1673.17 1146.93 1672.91 1146.86 C 1703.48 1094.05 1724.62 1035.93 1743.5 978.084 A 1915.99 1915.99 0 0 0 1825.3 605.77 A 1125.77 1125.77 0 0 0 1832.16 516.373 C 1832.57 502.441 1831.15 472.985 1833.47 460.519 C 1833.59 459.924 1833.71 459.332 1833.83 458.739 z"/>
<path transform="translate(0,0)" fill="rgb(0,0,0)" d="M 1984.53 824.088 C 1985.56 827.557 1985.92 830.308 1985.75 833.923 C 1952.37 918.995 1904.59 990.127 1842.6 1056.95 C 1834.8 1065.36 1816.39 1085.85 1806.74 1089.45 C 1805.11 1090.05 1805.42 1089.9 1803.66 1090.08 C 1812.99 1077.38 1825.03 1065.81 1835.17 1053.6 C 1862.6 1020.59 1889.64 987.167 1913.39 951.366 C 1927.82 929.619 1941.68 906.906 1953.82 883.803 C 1961.74 868.74 1974.9 835.317 1984.53 824.088 z"/>
<path transform="translate(0,0)" fill="rgb(143,142,135)" d="M 1803.66 1090.08 C 1805.42 1089.9 1805.11 1090.05 1806.74 1089.45 C 1816.39 1085.85 1834.8 1065.36 1842.6 1056.95 C 1904.59 990.127 1952.37 918.995 1985.75 833.923 A 1166.32 1166.32 0 0 1 2001.62 985.738 C 2002.05 995.763 2003.84 1008.88 2002.17 1018.76 L 2002.01 1019.65 C 1998.73 1022.51 1995.95 1025.44 1993.19 1028.8 C 1990.67 1027.72 1987.75 1027.32 1985.09 1026.56 C 1942.7 1065.06 1890.17 1106.97 1829.52 1103.92 C 1825.78 1103.73 1822.16 1103.06 1818.51 1102.25 C 1811.66 1099.26 1805.57 1096.61 1801.31 1090.1 L 1803.66 1090.08 z"/>
<path transform="translate(0,0)" fill="rgb(0,0,0)" d="M 1985.09 1026.56 C 1986.55 1025.15 1987.99 1023.84 1989.66 1022.66 C 1993.83 1019.69 1997.07 1017.84 2002.17 1018.76 L 2002.01 1019.65 C 1998.73 1022.51 1995.95 1025.44 1993.19 1028.8 C 1990.67 1027.72 1987.75 1027.32 1985.09 1026.56 z"/>
<path transform="translate(0,0)" fill="rgb(0,0,0)" d="M 1173.04 143.425 C 1196.22 146.681 1212.89 159.141 1226.92 177.54 C 1244.42 200.496 1252.94 225.492 1249.26 254.229 C 1226.04 278.077 1200.28 300.363 1175.14 322.182 C 1166.17 329.962 1156.55 337.249 1147.88 345.322 C 1151.36 347.799 1155.73 350.442 1158.43 353.77 C 1167.83 365.355 1175.1 380.002 1182.77 392.786 A 1402.35 1402.35 0 0 0 1217.81 447.935 A 2951.92 2951.92 0 0 0 1295.92 557.744 C 1316.01 584.29 1337.8 609.404 1355.2 637.89 C 1369.94 662.023 1385.03 688.84 1389.64 717.028 C 1392.06 731.776 1394.38 755.378 1385.23 767.963 C 1354.94 809.597 1212.79 836.663 1161.82 847.653 C 1109.22 858.996 1056.02 870.181 1002.73 877.744 A 160.557 160.557 0 0 1 995.187 878.592 C 1000.47 896.567 1007.65 914.115 1012.29 932.253 C 1017.25 951.658 1021.05 971.36 1025.32 990.923 C 1043.26 1073.08 1055.24 1155.58 1055.37 1239.85 C 1055.41 1270.36 1057.23 1301.66 1042.21 1329.33 C 1035.18 1342.29 1025.94 1354.43 1014.47 1363.76 L 1025.15 1383.98 C 1038.45 1412.22 1051.73 1440.79 1063.34 1469.76 C 1082.92 1518.61 1099.49 1568.46 1116.61 1618.19 C 1151.14 1607.06 1178.88 1584.62 1205.6 1560.96 C 1203.59 1569.01 1170.04 1592.95 1161.43 1598.5 C 1155.02 1602.64 1148.09 1605.81 1141.72 1610.02 L 1143.6 1609.03 L 1143.29 1609.71 C 1168.67 1600.2 1194.58 1578.55 1213.81 1559.81 L 1214.4 1561.65 C 1192.28 1585.34 1149.14 1615.07 1117.73 1621.18 C 1157.36 1743.49 1189.24 1860.5 1210.45 1987.51 C 1206.94 1988.57 1204.15 1989.14 1200.47 1989.14 C 1196.62 1968.47 1191.22 1947.93 1186.81 1927.35 A 2823.96 2823.96 0 0 0 1110.61 1643.19 C 1089.69 1577.73 1067.25 1513.23 1040.35 1449.95 C 1024.88 1413.56 1009.53 1377.67 989.655 1343.4 C 985.908 1336.94 986.344 1323.42 982.148 1319.04 C 973.917 1321.06 975.809 1338.05 973.465 1344.84 C 970.88 1352.34 965.556 1359.07 959.674 1364.27 C 948.114 1374.49 929.837 1382.87 914.177 1381.62 C 905.461 1380.93 897.165 1377.08 891.563 1370.3 C 891.353 1370.05 891.149 1369.79 890.942 1369.53 C 862.625 1380.95 826.822 1387.83 796.309 1386.74 L 789.006 1381.96 L 791.163 1380.65 L 794.365 1380.57 L 795.536 1378.95 C 799.28 1346.95 799.934 1313.53 800.188 1281.32 C 800.531 1237.81 799.425 1194.59 793.727 1151.38 C 784.342 1080.22 763.022 1010.42 738.111 943.371 C 716.826 886.082 691.547 830.173 658.625 778.569 C 647.551 761.213 635.411 744.01 622.269 728.163 C 615.24 719.686 606.901 712.183 600.238 703.442 C 601.95 701.007 604.071 701.018 606.842 700.179 C 605.229 699.971 603.652 699.707 602.052 699.421 L 602.04 698.832 L 609.34 697.429 C 623.886 692.313 639.947 688.239 654.943 684.505 C 675.553 679.372 693.465 676.941 707.892 659.527 C 721.242 643.413 720.606 626.179 718.856 606.749 C 724.479 605.472 730.444 604.12 734.953 600.317 C 739.523 596.463 741.645 589.951 741.858 584.122 C 742.491 566.772 724.267 560.732 714.341 550.351 C 711.025 546.883 710.455 541.83 706.975 538.208 C 704.956 537.272 703.915 536.671 701.619 536.796 C 699.728 536.899 700.35 536.787 699.091 538.381 C 698.942 540.943 698.848 543.622 698.235 546.123 C 697.516 549.058 695.788 551.044 693.186 552.522 C 685.668 556.794 675.577 556.354 667.522 554.085 C 649.264 548.944 630.417 536.81 621.183 520.019 C 626.582 513.101 630.591 505.132 636.168 498.452 C 640.566 493.183 646.347 488.537 653.471 488.122 C 667.881 487.282 683.955 503.757 693.695 512.967 C 691.624 507.855 689.58 503.243 686.075 498.889 C 676.993 487.606 665.019 483.71 651.186 482.198 C 653.601 481.644 656.124 481.768 658.596 481.712 C 660.609 479.586 660.088 477.206 660.276 474.356 C 677.628 477.709 687.835 481.883 700.369 494.837 A 189.327 189.327 0 0 0 696.626 469.291 L 698.56 468.416 C 700.841 475.311 704.145 482.084 708.81 487.675 C 716.776 497.222 728.716 503.713 741.213 504.411 C 753.66 505.105 762.56 499.343 771.28 491.244 C 752.304 481.088 741.175 479.257 731.844 457.399 C 719.613 428.745 718.918 383.609 729.697 354.561 C 733.629 343.962 740.275 333.953 745.322 323.812 C 752.468 309.45 758.568 294.608 764.484 279.708 C 772.876 290.061 780.98 300.773 789.731 310.818 C 797.132 319.313 812.765 337.658 824.5 338.447 L 824.091 339.46 C 826.674 340.344 828.212 340.371 829.354 343.127 C 831.386 348.028 831.602 355.604 832.799 360.927 C 837.626 382.4 851.187 387.989 868.845 398.862 C 881.301 406.531 908.089 417.414 911.804 432.523 C 912.761 436.418 912.173 440.336 910.021 443.739 C 904.722 452.116 891.304 457.406 882.199 460.419 C 887.464 469.446 896.564 481.434 896.993 492.138 C 895.82 494.068 894.61 495.816 893.199 497.579 C 893.365 499.635 893.005 498.745 894.042 500.168 C 895.725 502.479 897.05 504.183 897.569 507.074 C 896.832 509.131 896.072 510.336 894.644 511.987 C 899.351 533.597 925.127 562.046 910.708 584.725 C 901.309 599.507 876.022 606.595 859.675 609.807 C 848.955 611.913 837.922 612.94 827.316 615.513 C 814.514 630.79 802.335 657.486 795.297 676.279 C 822.461 678.199 849.788 678.888 876.992 680.147 C 962.741 684.119 1050.1 687.442 1133.37 663.137 C 1146.14 659.409 1159.04 655.581 1171.19 650.112 C 1157.47 618.292 1147.94 585.407 1135.57 553.14 C 1122.28 518.489 1105.94 484.446 1090.38 450.764 C 1087.48 444.477 1085.23 432.761 1080.8 427.957 C 1074.81 426.596 1068.61 425.337 1062.93 422.984 C 1046.23 416.068 1029.1 402.991 1011.53 399.031 C 1005.07 397.577 998.012 398.804 991.431 398.508 C 982.166 408.917 952.974 437.087 942.046 444.44 C 930.902 438.281 906.092 416.68 902.101 404.816 C 901.599 403.326 901.662 401.93 901.775 400.392 C 906.025 395.258 916.355 393.35 922.18 389.321 C 941.61 375.883 964.967 356.891 979.297 338.17 C 973.404 332.958 968.497 328.258 964.805 321.163 C 975.043 301.689 958.682 296.013 984.797 280.384 L 986.108 268.113 C 991.321 260.612 996.539 257.303 1004.3 252.937 C 1007.86 242.266 1012.17 234.872 1022.75 229.665 C 1037.94 222.191 1064.46 225.599 1064.79 225.411 C 1069.16 222.917 1072.78 218.197 1076.82 215.067 C 1100.04 197.074 1149.02 151.039 1173.04 143.425 z"/>
<path transform="translate(0,0)" fill="rgb(242,215,133)" d="M 880.051 959.04 L 880.976 959.419 C 883.603 971.448 884.12 983.661 884.969 995.915 C 882.106 987.351 879.413 979.164 877.518 970.345 C 876.453 965.389 877.631 963.312 880.051 959.04 z"/>
<path transform="translate(0,0)" fill="rgb(120,95,62)" d="M 907.641 397.998 C 925.399 404.802 930.843 420.776 945.239 430.728 L 944.711 432.202 C 943.28 433.409 942.329 433.965 940.529 434.485 C 931.743 425.528 914.422 407.419 907.641 397.998 z"/>
<path transform="translate(0,0)" fill="rgb(239,194,91)" d="M 875.74 884.181 L 881.212 885.605 C 881.574 893.58 882.033 901.565 882.142 909.547 C 882.688 925.92 884.207 943.232 880.976 959.419 L 880.051 959.04 C 879.824 943.882 878.95 928.743 878.818 913.56 C 877.528 903.809 877.123 893.971 875.74 884.181 z"/>
<path transform="translate(0,0)" fill="rgb(242,215,133)" d="M 1012.62 273.06 C 1006.32 272.943 1000.04 275.347 993.819 274.409 C 993.16 272.183 993.288 271.062 994.386 268.959 C 998.979 260.162 1014.52 256.82 1023.18 254.238 C 1024.58 256.492 1024.63 256.857 1024.64 259.523 C 1020.83 264.62 1014.42 266.525 1012.62 273.06 z"/>
<path transform="translate(0,0)" fill="rgb(239,194,91)" d="M 866.234 809.809 C 877.194 829.146 881.059 863.375 881.212 885.605 L 875.74 884.181 A 1032.59 1032.59 0 0 0 866.234 809.809 z"/>
<path transform="translate(0,0)" fill="rgb(216,181,140)" d="M 1023.18 254.238 C 1028.44 253.974 1033.57 253.775 1038.84 254.135 C 1043.8 257.29 1047.74 259.429 1049.74 265.147 C 1049.33 267.803 1049.07 269.527 1046.86 271.307 C 1044.86 272.914 1041.78 274.02 1039.4 274.882 C 1030.33 272.958 1021.86 272.706 1012.62 273.06 C 1014.42 266.525 1020.83 264.62 1024.64 259.523 C 1024.63 256.857 1024.58 256.492 1023.18 254.238 z"/>
<path transform="translate(0,0)" fill="rgb(216,181,140)" d="M 1055.39 232.41 C 1056.73 232.461 1057.97 232.656 1059.28 232.976 C 1062.8 233.833 1066.89 237.716 1068.59 240.846 C 1069.86 243.187 1069.75 244.357 1068.97 246.8 C 1061.33 253.506 1042.05 246.305 1032.12 246.354 C 1031.66 246.356 1031.21 246.372 1030.75 246.382 C 1024.66 246.593 1018.87 249.227 1013.08 249.206 L 1012.87 247.71 C 1013.5 246.64 1013.55 246.464 1014.5 245.383 C 1024.66 233.747 1041.17 233.184 1055.39 232.41 z"/>
<path transform="translate(0,0)" fill="rgb(216,181,140)" d="M 844.392 878.617 C 846.137 880.259 848.009 882.226 850.315 883.034 C 855.574 884.877 863.306 880.912 868.271 879.133 C 870.087 903.835 871.65 928.628 874.547 953.23 L 874.12 955.016 L 873.138 954.976 C 868.353 945.406 866.665 933.578 863.065 923.411 C 857.69 908.228 850.8 893.388 844.392 878.617 z"/>
<path transform="translate(0,0)" fill="rgb(94,79,77)" d="M 980.977 1235.99 C 984.787 1241.14 983.752 1299.26 983.393 1310.35 C 981.134 1311.27 979.206 1311.94 976.785 1312.38 L 975.38 1310.73 C 974.374 1290.87 970.89 1270.63 966.257 1251.31 C 971.397 1246.39 976.204 1241.26 980.977 1235.99 z"/>
<path transform="translate(0,0)" fill="rgb(216,181,140)" d="M 1003.28 280.363 C 1010.38 280.054 1023.99 277.883 1029.62 282.701 C 1031.57 284.377 1033.04 286.845 1033.11 289.498 C 1033.15 291.037 1032.64 292.56 1031.6 293.681 C 1025.74 300.034 1006.15 298.468 997.669 299.333 C 989.362 300.476 981.198 303.596 973.277 306.239 C 974.405 302.669 975.43 298.666 977.259 295.391 C 982.479 286.047 993.571 282.758 1003.28 280.363 z"/>
<path transform="translate(0,0)" fill="rgb(122,106,106)" d="M 1177.74 659.271 C 1188.32 667.963 1197.69 680.376 1207.5 690.161 C 1225.76 708.384 1245.82 724.415 1266.81 739.351 L 1266.47 739.849 L 1259.94 738.465 C 1226.55 729.788 1187.66 690.088 1168.78 662.074 L 1177.74 659.271 z"/>
<path transform="translate(0,0)" fill="rgb(239,194,91)" d="M 724.302 866.503 C 746.88 880.884 768.247 899.476 789.214 916.185 L 782.41 919.038 A 189.889 189.889 0 0 1 751.556 927.364 C 747.197 918.759 744.044 909.212 740.287 900.303 C 735.435 888.798 729.913 877.651 724.302 866.503 z"/>
<path transform="translate(0,0)" fill="rgb(239,194,91)" d="M 878.042 835.784 C 891.121 852.503 911.224 912.624 919.181 934.948 L 911.557 938.997 C 904.526 942.644 897.218 945.563 889.893 948.551 C 889.407 909.629 887.27 873.738 878.042 835.784 z"/>
<path transform="translate(0,0)" fill="rgb(122,106,106)" d="M 1191.31 425.729 C 1195.22 429.938 1198.22 434.874 1201.39 439.64 C 1179.31 467.788 1156.47 484.176 1122.28 494.736 C 1117.63 490.65 1115.38 483.158 1113.01 477.544 C 1115.52 477.085 1118.03 476.599 1120.48 475.927 C 1146.54 468.792 1177.51 449.2 1191.31 425.729 z"/>
<path transform="translate(0,0)" fill="rgb(242,215,133)" d="M 920.062 939.883 C 924.308 942.576 933.523 981.749 935.774 989.913 C 924.197 995.083 912.697 1000.21 900.758 1004.51 C 897.684 1005.69 894.34 1007.42 891.05 1007.46 C 891.002 1002.96 891.507 998.663 891.046 994.141 C 890.124 985.096 884.682 967.419 886.898 959.122 C 888.4 953.5 913.23 943.389 920.062 939.883 z"/>
<path transform="translate(0,0)" fill="rgb(242,215,133)" d="M 1077.33 251.015 C 1083.6 256.375 1090.58 260.761 1096.7 266.391 C 1110.55 279.127 1123.45 300.615 1127.06 319.091 C 1122.25 323.61 1113.25 334.144 1107.01 334.797 C 1100.54 314.831 1088.32 293.642 1072.23 279.853 C 1068.18 276.389 1063.31 273.498 1058.97 270.39 L 1057.64 260.805 L 1059.01 259.9 L 1063.11 260.955 C 1068.71 259.105 1072.36 256.342 1076.39 252.04 L 1077.33 251.015 z"/>
<path transform="translate(0,0)" fill="rgb(94,79,77)" d="M 940.681 1270.3 C 943.835 1278.15 946.886 1286.08 948.836 1294.33 C 951.431 1305.31 953.987 1321.29 947.466 1331.22 C 941.191 1340.77 926.941 1345.6 916.232 1347.83 L 913.97 1347.2 C 909.638 1338.15 907.971 1299.93 905.788 1286.62 C 917.696 1281.85 929.864 1277.28 940.681 1270.3 z"/>
<path transform="translate(0,0)" fill="rgb(73,104,90)" d="M 1173.21 394.624 C 1178.42 399.17 1185.49 414.868 1189.37 421.768 C 1168.06 445.992 1142.76 464.318 1110.61 470.488 C 1104.92 461.374 1100.21 451.356 1094.78 442.036 C 1099.48 441.283 1104.22 440.568 1108.86 439.526 C 1134.78 433.713 1158.95 416.924 1173.21 394.624 z"/>
<path transform="translate(0,0)" fill="rgb(73,104,90)" d="M 1205.19 446.83 L 1221.51 471.621 C 1196.56 498.265 1176.18 515.911 1140.25 525.932 L 1137.15 525.798 C 1132.33 520.389 1128.61 507.644 1124.76 500.52 C 1157.69 492.444 1183.76 472.581 1205.19 446.83 z"/>
<path transform="translate(0,0)" fill="rgb(239,194,91)" d="M 957.361 1258.88 C 958.302 1261.37 959.07 1263.98 959.794 1266.54 C 965.053 1285.11 972.205 1329.75 961.733 1347.22 C 954.763 1358.85 939.05 1369.71 925.996 1372.87 C 918.876 1374.59 909.849 1375.01 903.484 1370.75 C 889.368 1361.3 888.293 1319.95 885.486 1303.66 L 883.853 1295.24 L 897.657 1290.09 C 900.435 1303.1 900.802 1341.82 906.008 1350.59 C 907.64 1353.34 910.98 1354.83 914.019 1355.27 C 923.315 1356.61 936.822 1350.57 944.147 1344.93 C 951.612 1339.18 954.973 1331.51 956.113 1322.31 C 958.313 1304.56 953.982 1282.83 943.017 1268.48 C 948.062 1265.55 952.701 1262.39 957.361 1258.88 z"/>
<path transform="translate(0,0)" fill="rgb(216,181,140)" d="M 793.2 919.928 C 796.206 921.069 843.46 958.91 850.376 964.378 C 836.01 970.651 820.706 975.117 805.796 979.886 A 300.672 300.672 0 0 1 773.015 987.567 C 766.749 969.159 761.119 950.075 752.737 932.5 C 766.781 930.216 780.257 925.755 793.2 919.928 z"/>
<path transform="translate(0,0)" fill="rgb(94,79,77)" d="M 875.476 1297.01 C 877.567 1298.35 876.971 1297.96 877.06 1300.22 C 877.864 1320.78 879.972 1343.95 887.669 1363.22 C 865.38 1371.74 840.933 1376.06 817.241 1378.59 C 813.606 1379.34 809.373 1379.27 805.643 1379.56 L 812 1312.12 C 833.232 1311.94 855.662 1304.32 875.476 1297.01 z"/>
<path transform="translate(0,0)" fill="rgb(242,215,133)" d="M 853.947 970 C 857.312 969.408 859.395 971.071 861.863 973.151 C 873.538 982.987 871.986 993.363 878.119 999.834 C 880.04 1001.86 884.614 1003.42 887.169 1004.6 C 887.647 1006.48 887.967 1006.08 887.052 1007.55 C 881.166 1016.96 818.023 1039.88 804.244 1044.37 L 790.601 1048.59 C 785.925 1030.09 780.332 1011.77 774.857 993.478 C 802.045 987.299 827.788 979.632 853.947 970 z"/>
<path transform="translate(0,0)" fill="rgb(242,215,133)" d="M 1152.69 165.747 C 1158.42 165.793 1164.96 168.799 1169.95 171.431 C 1193.98 184.112 1204.66 210.995 1211.88 235.474 C 1199.89 248.433 1186.1 261.628 1171.56 271.652 L 1167.16 261.715 A 105.696 105.696 0 0 0 1163.6 255.328 C 1148.42 230.549 1125.8 214.479 1097.78 207.797 C 1116.4 194.247 1133.59 178.613 1152.69 165.747 z"/>
<path transform="translate(0,0)" fill="rgb(216,181,140)" d="M 1140.32 350.56 C 1140.9 350.733 1141.48 350.865 1142.04 351.079 C 1153.77 355.579 1163.74 376.549 1168.81 387.279 A 105.953 105.953 0 0 1 1151.59 406.168 C 1139.57 416.702 1113.93 434.548 1097.2 432.896 C 1095.53 432.731 1094.2 432.835 1093.12 431.522 C 1097.01 430.691 1103.46 430.137 1106.17 427.165 L 1105.87 425.736 C 1097.77 420.118 1084.02 420.256 1074.57 416.663 C 1055.09 409.266 1037.82 397.409 1017.92 391.033 C 1011.68 389.807 1005.43 389.999 999.102 390.015 A 572.456 572.456 0 0 1 1021.94 370.056 C 1038.98 373.578 1058.15 376.883 1075.51 377.646 C 1090.89 378.322 1107.32 377.062 1122.49 379.694 C 1127.19 380.509 1132.1 382.593 1135.76 385.682 C 1142.66 391.506 1141.02 396.7 1141.91 404.536 L 1143.15 404.653 C 1145.94 401.766 1147.17 398.722 1147.55 394.707 C 1148.08 389.046 1146.27 383.13 1142.39 378.927 C 1135.4 371.363 1124.9 370.043 1115.22 369.79 C 1123.87 363.77 1132.44 357.563 1140.32 350.56 z"/>
<path transform="translate(0,0)" fill="rgb(242,215,133)" d="M 978.082 1190.12 L 979.002 1191.1 C 980.803 1201.54 981.095 1211.75 980.75 1222.32 C 980.49 1222.7 980.237 1223.09 979.97 1223.47 C 974.206 1231.62 965.163 1238.84 957.404 1245.01 C 916.973 1277.17 866.925 1296.15 816.065 1304.2 L 814.321 1303.78 C 812.878 1301.51 814.99 1260.01 814.906 1253.54 C 873.736 1243.07 925.968 1218.31 978.082 1190.12 z"/>
<path transform="translate(0,0)" fill="rgb(242,215,133)" d="M 952.905 1060.78 L 954.747 1061.2 C 958.643 1068.07 964.088 1104.46 966.143 1115 A 594.519 594.519 0 0 1 817.235 1175.25 C 816.034 1175.46 814.918 1175.44 813.702 1175.45 C 811.998 1170.69 811.988 1164.75 811.389 1159.72 C 809.801 1146.38 808.722 1131.64 804.804 1118.78 C 815.458 1116 826.264 1114.03 836.852 1110.91 A 545.985 545.985 0 0 0 952.905 1060.78 z"/>
<path transform="translate(0,0)" fill="rgb(216,181,140)" d="M 937.586 995.956 C 944.131 1010.26 949.077 1037.52 953.775 1054.04 C 917.161 1075.91 848.482 1104.27 807.182 1112.23 C 805.977 1112.15 805.169 1111.81 804.049 1111.39 C 799.978 1102.5 795.574 1067.56 792.254 1054.46 C 825.641 1043.24 857.612 1029.9 890.07 1016.4 C 906.054 1009.75 922.359 1004.31 937.586 995.956 z"/>
<path transform="translate(0,0)" fill="rgb(216,181,140)" d="M 965.982 1122.85 L 966.925 1123.15 C 970.656 1128.39 977.754 1176.49 978.333 1185.8 C 958.563 1191.67 939.655 1204.46 920.92 1213.22 C 891.087 1227.17 858.508 1238.06 826.756 1246.54 C 823.229 1247.3 820.091 1247.94 816.472 1247.84 C 814.764 1245.26 814.34 1191.88 813.285 1181.42 C 868.024 1172.36 917.412 1148.43 965.982 1122.85 z"/>
<path transform="translate(0,0)" fill="rgb(94,79,77)" d="M 1176.13 152.155 C 1195.7 155.823 1211.55 170.514 1222.37 186.6 C 1230.16 198.171 1245.27 225.601 1241.93 240.112 C 1238.02 257.123 1217.09 270.987 1204.9 282.168 C 1188.08 297.594 1172.06 313.675 1154.46 328.254 C 1137.68 342.163 1118.95 354.845 1103.1 369.714 C 1079 367.903 1051.39 370.538 1028.06 363.429 C 1032.86 359.023 1038.81 354.935 1039.61 348.026 L 1038.38 346.752 C 1023.98 348.507 959.656 419.493 944.711 432.202 L 945.239 430.728 C 946.036 427.204 945.858 425.947 943.873 422.898 C 937.858 413.661 929.62 405.262 921.166 398.224 C 941.979 382.502 991.566 346.798 1001.65 323.273 L 1001.24 322.013 C 994.131 323.689 988.317 329.71 982.915 334.324 C 978.171 329.56 974.097 325.016 970.696 319.143 C 977.175 313.993 983.208 310.562 991.382 308.628 C 1003.76 305.7 1039.54 310.059 1041.59 293.005 C 1042 289.559 1040.15 284.1 1043.07 281.873 C 1046.91 278.947 1052.04 277.401 1056.06 274.336 C 1079.39 296.228 1091.56 312.092 1103.21 342.547 C 1113.99 336.659 1124.13 329.069 1133.31 320.913 C 1131.54 298.714 1120.18 275.093 1103.06 260.68 C 1096.51 255.174 1087.67 251.145 1081.97 244.975 C 1077.81 240.468 1075.64 234.304 1071.8 229.473 L 1092.54 215.233 C 1117.25 220.867 1136.41 233.865 1151.62 254.297 C 1156.98 261.487 1161.52 269.631 1167.51 276.3 C 1170.87 280.031 1172.23 279.53 1176.43 276.849 C 1188.11 269.391 1211.76 245.73 1220.91 234.669 C 1213.86 207.852 1205.19 181.799 1179.81 166.835 C 1173.56 163.155 1166.73 161.014 1159.81 159.007 C 1165.23 156.676 1170.64 154.299 1176.13 152.155 z"/>
<path transform="translate(0,0)" fill="rgb(73,104,90)" d="M 792.672 682.549 C 800.428 684.171 808.128 685.437 815.988 686.443 C 834.809 708.803 853.84 731.163 873.492 752.796 C 861.597 728.637 840.149 704.967 820.469 686.652 A 1473.64 1473.64 0 0 1 867.632 690.641 C 875.679 702.575 887.648 712.485 896.98 723.495 C 912.614 741.944 926.299 763.57 938.694 784.312 C 950.471 804.018 959.023 825.029 967.967 846.101 C 1011.65 949.035 1033.92 1063.16 1042.12 1174.35 C 1043.85 1197.8 1044.33 1221.54 1045.09 1245.04 A 524.419 524.419 0 0 1 1044.91 1265.57 C 1043.69 1299.62 1035.36 1332.64 1009.41 1356.65 C 1006.63 1352.17 1003.31 1347.42 1001.56 1342.43 C 996.627 1328.3 998.204 1309.52 997.647 1294.65 C 996.194 1255.89 994.098 1216.43 988.929 1177.97 A 1310.9 1310.9 0 0 0 908.782 870.601 C 895.893 838.78 881.822 806.953 863.325 777.933 C 842.847 745.806 817.786 718.751 789.947 692.91 L 792.672 682.549 z"/>
<path transform="translate(0,0)" fill="rgb(0,0,0)" d="M 1016.33 1234.01 C 1018.81 1233.85 1021.25 1233.71 1023.68 1234.29 C 1028.77 1235.51 1033.03 1239.15 1035.48 1243.71 C 1039.16 1250.58 1039 1259.5 1036.54 1266.74 C 1034 1274.21 1030.16 1278.35 1023.17 1281.78 C 1021.04 1281.98 1018.72 1282.27 1016.6 1281.83 C 1011.37 1280.72 1006.7 1275.99 1004.4 1271.35 C 1000.73 1263.97 1000.63 1254.6 1003.59 1246.97 C 1006.29 1240.01 1009.6 1236.91 1016.33 1234.01 z"/>
<path transform="translate(0,0)" fill="rgb(239,194,91)" d="M 1017.25 1242.63 C 1019.91 1243.32 1022.79 1244.22 1025 1245.93 C 1027.99 1248.25 1029.73 1251.48 1029.9 1255.28 C 1030.18 1261.75 1026.65 1266.57 1022.66 1271.26 C 1019.23 1271.09 1017.33 1270.95 1014.87 1268.21 C 1011.2 1264.13 1010.09 1259.4 1010.57 1254.01 C 1011.05 1248.53 1013.28 1246.11 1017.25 1242.63 z"/>
<path transform="translate(0,0)" fill="rgb(0,0,0)" d="M 989.024 1005.1 C 992.478 1004.85 995.946 1004.52 999.329 1005.46 C 1005.12 1007.08 1010.03 1010.82 1012.68 1016.26 C 1016.92 1024.95 1014.9 1032.97 1012.06 1041.6 C 1009.42 1043.88 1006.54 1045.98 1003.8 1048.15 C 1006.05 1060.73 1009.51 1076.34 1007.99 1089.07 C 1007.68 1091.71 1007.33 1091.79 1005.33 1093.31 C 998.299 1081.69 1002.84 1061.52 996.871 1051.07 C 993.944 1051.31 990.833 1051.55 987.926 1051 C 984.056 1050.28 980.699 1047.6 978.523 1044.4 C 974.316 1038.22 973.447 1029.71 975.045 1022.54 C 976.827 1014.54 982.247 1009.21 989.024 1005.1 z"/>
<path transform="translate(0,0)" fill="rgb(239,194,91)" d="M 991.444 1012.9 C 992.861 1013.02 994.321 1013.1 995.709 1013.45 C 999.729 1014.46 1003.33 1017.57 1005.14 1021.26 C 1006.88 1024.79 1006.95 1028.99 1005.56 1032.66 C 1003.69 1037.62 1000.68 1039.42 996.048 1041.59 C 995.463 1041.64 994.879 1041.74 994.291 1041.76 C 990.921 1041.87 986.622 1040.45 984.468 1037.71 C 982.064 1034.66 981.58 1031.78 981.883 1028.02 C 982.467 1020.77 986.204 1017.49 991.444 1012.9 z"/>
<path transform="translate(0,0)" fill="rgb(0,0,0)" d="M 1012.13 1096.79 C 1014.68 1102.55 1015.83 1117.18 1018.77 1120.63 C 1023.15 1125.78 1028.04 1126.05 1031.68 1133.15 C 1035 1139.62 1035.44 1147.49 1033.09 1154.35 C 1030.11 1163.01 1024.94 1167.11 1016.92 1170.79 C 1018.29 1182.91 1021.05 1196.78 1016.63 1208.51 C 1010.92 1199.12 1013.93 1181.06 1011.76 1169.87 A 157.948 157.948 0 0 1 1004.38 1165.82 C 999.107 1162.73 995.621 1158.15 994.265 1152.09 C 992.645 1144.85 993.592 1136.25 997.71 1129.97 C 1001.96 1123.5 1006.9 1121.88 1014.23 1120.51 C 1014.1 1112.48 1013.21 1104.74 1012.13 1096.79 z"/>
<path transform="translate(0,0)" fill="rgb(239,194,91)" d="M 1009.14 1129.74 C 1009.54 1129.74 1009.95 1129.73 1010.35 1129.74 C 1014.28 1129.85 1017.32 1130.56 1019.97 1133.6 C 1022.97 1137.03 1024.09 1141.51 1023.6 1145.99 C 1022.96 1151.84 1020.77 1155.63 1016.23 1159.23 C 1012.55 1159.03 1009.62 1158.56 1006.77 1156.05 C 1003.97 1153.59 1002.5 1149.94 1002.42 1146.25 C 1002.28 1139.6 1004.81 1134.58 1009.14 1129.74 z"/>
<path transform="translate(0,0)" fill="rgb(0,0,0)" d="M 902.702 762.454 C 909.341 765.192 916.146 782.624 919.098 789.018 C 925.733 790.213 932.033 791.703 936.651 796.997 C 950.783 813.196 937.431 818.146 938.18 827.227 C 938.228 827.81 938.462 828.362 938.585 828.933 C 939.582 833.565 957.837 890.646 958.514 891.379 C 962.017 895.176 970.951 894.419 975.645 899.323 C 980.808 904.716 982.574 915.523 982.124 922.732 C 981.793 928.05 978.338 930.887 974.555 934.106 C 976.676 943.409 985.396 972.301 981.156 979.974 L 980.004 979.886 L 978.186 974.793 L 967.366 937.594 C 964.525 938.438 961.443 939.447 958.441 939.353 C 953.598 939.2 948.448 936.369 945.38 932.685 C 940.979 927.4 939.295 920.18 940.23 913.428 C 941.306 905.652 944.858 901.141 951.006 896.581 C 946.628 882.585 937.238 846.276 929.978 835.785 C 927.87 832.739 921.15 833.454 917.505 832.773 C 911.991 831.742 907.342 828.756 904.357 823.967 C 899.419 816.047 897.173 802.15 903.84 794.456 C 905.033 793.079 910.435 789.51 910.801 788.044 C 912.15 782.636 900.172 772.79 902.702 762.454 z"/>
<path transform="translate(0,0)" fill="rgb(239,194,91)" d="M 959.256 900.798 C 959.594 900.862 959.936 900.91 960.272 900.991 C 964.804 902.078 968.521 904.373 970.977 908.425 C 973.049 911.843 973.122 915.446 972.037 919.197 C 970.41 924.822 965.637 927.084 960.779 929.569 C 959.417 929.727 958.998 929.834 957.52 929.708 C 954.392 929.44 950.849 926.874 949.392 924.226 C 947.161 920.17 947.685 914.935 949.174 910.725 C 951.03 905.48 954.507 903.261 959.256 900.798 z"/>
<path transform="translate(0,0)" fill="rgb(239,194,91)" d="M 914.8 796.975 C 916.528 796.91 918.295 796.835 920.019 797.007 C 924.413 797.445 928.989 800.375 931.585 803.877 C 933.542 806.517 934.642 810.055 933.925 813.338 C 932.813 818.422 929.312 821.495 925.092 824.167 C 923.253 824.058 921.377 823.958 919.562 823.627 C 914.737 822.745 910.153 819.351 907.638 815.18 C 905.842 812.201 905.277 808.581 906.505 805.258 C 907.991 801.233 911.252 799.023 914.8 796.975 z"/>
<path transform="translate(0,0)" fill="rgb(216,181,140)" d="M 764.484 279.708 C 772.876 290.061 780.98 300.773 789.731 310.818 C 797.132 319.313 812.765 337.658 824.5 338.447 L 824.091 339.46 C 820.882 344.183 824.632 350.06 821.466 354.168 C 817.974 358.699 811.337 362.265 806.516 365.252 C 787.009 377.338 769.928 390.839 774.371 416.933 C 774.581 418.167 775.053 419.14 775.596 420.251 L 777.775 421.351 C 779.473 420.723 780.849 420.152 782.327 419.099 C 781.965 416.747 781.808 414.503 782.011 412.12 C 783.024 400.192 787.526 389.745 796.744 381.906 C 803.985 374.859 815.554 367.523 824.309 362.44 C 828.092 381.878 838.416 389.522 854.067 400.008 C 863.229 406.147 900.502 424.975 902.846 432.684 C 903.394 434.487 902.745 436.497 901.711 438.021 C 894.82 448.178 872.517 455.055 860.753 456.622 C 855.317 457.345 844.773 454.549 841.09 458.618 C 842.567 461.709 845.998 464.118 849.207 465.207 C 856.46 467.668 869.056 463.156 873.319 464.685 C 874.048 464.946 875.477 467.631 875.886 468.407 C 879.699 475.64 884.175 482.707 887.678 490.051 C 866.101 501.212 847.9 502.47 824.797 495.361 L 823.954 494.134 C 821.943 491.256 820.661 489.065 817.391 487.64 C 816.019 487.754 815.103 487.439 814.147 488.583 C 811.393 491.88 812.022 498.486 812.742 502.425 C 813.21 504.986 813.797 506.977 815.378 509.096 L 816.85 509.391 C 818.216 506.801 818.204 502.757 820.045 500.836 C 820.426 501.044 820.805 501.256 821.188 501.46 C 836.527 509.638 861.652 508.504 877.985 503.235 C 881.025 502.254 883.928 501.076 886.819 499.724 L 890.531 505.674 C 889.747 507.914 887.98 508.285 887.695 510.394 C 884.946 530.737 928.879 571.694 891.468 590.174 C 867.477 602.025 805.021 609.082 779.652 599.954 C 773.832 597.859 768.11 595.399 762.393 593.039 C 779.643 609.429 791.534 612.665 814.513 614.394 C 790.052 654.578 769.334 698.599 781.327 746.885 C 782.536 751.75 784.388 755.849 786.863 760.195 C 787.123 746.902 784.234 718.249 788.378 707.441 C 793.678 708.119 823.654 745.766 828.599 752.186 C 838.526 765.073 851.718 781.288 857.621 796.372 C 863.285 810.846 864.889 856.922 867.22 875.507 C 857.719 876.884 851.06 876.546 841.87 873.697 C 831.281 851.489 793.445 795.757 772.626 785.835 L 771.38 786.507 C 773.434 796.649 789.009 812.538 795.825 821.154 C 832.824 867.924 851.992 907.125 868.085 964.454 C 846.661 943.347 819.801 927.306 797.729 906.641 L 810.296 905.191 C 814.868 904.676 819.543 902.724 822.685 899.308 L 822.819 897.244 C 820.498 895.642 819.27 895.319 816.462 895.151 C 813.721 896.148 812.493 897.358 810.456 899.35 C 804.293 900.208 798.383 901.172 792.371 902.798 C 784.649 897.75 777.789 891.9 770.338 886.543 C 761.32 880.058 751.842 874.181 742.748 867.783 C 734.998 862.331 727.771 855.91 718.98 852.287 C 718.045 851.901 717.132 851.465 716.206 851.059 C 706.134 835.277 698.007 818.203 688.661 801.967 C 670.582 770.557 637.549 719.232 606.842 700.179 C 605.229 699.971 603.652 699.707 602.052 699.421 L 602.04 698.832 L 609.34 697.429 C 623.886 692.313 639.947 688.239 654.943 684.505 C 675.553 679.372 693.465 676.941 707.892 659.527 C 721.242 643.413 720.606 626.179 718.856 606.749 C 724.479 605.472 730.444 604.12 734.953 600.317 C 739.523 596.463 741.645 589.951 741.858 584.122 C 742.491 566.772 724.267 560.732 714.341 550.351 C 711.025 546.883 710.455 541.83 706.975 538.208 C 704.956 537.272 703.915 536.671 701.619 536.796 C 699.728 536.899 700.35 536.787 699.091 538.381 C 698.942 540.943 698.848 543.622 698.235 546.123 C 697.516 549.058 695.788 551.044 693.186 552.522 C 685.668 556.794 675.577 556.354 667.522 554.085 C 649.264 548.944 630.417 536.81 621.183 520.019 C 626.582 513.101 630.591 505.132 636.168 498.452 C 640.566 493.183 646.347 488.537 653.471 488.122 C 667.881 487.282 683.955 503.757 693.695 512.967 C 691.624 507.855 689.58 503.243 686.075 498.889 C 676.993 487.606 665.019 483.71 651.186 482.198 C 653.601 481.644 656.124 481.768 658.596 481.712 C 660.609 479.586 660.088 477.206 660.276 474.356 C 677.628 477.709 687.835 481.883 700.369 494.837 A 189.327 189.327 0 0 0 696.626 469.291 L 698.56 468.416 C 700.841 475.311 704.145 482.084 708.81 487.675 C 716.776 497.222 728.716 503.713 741.213 504.411 C 753.66 505.105 762.56 499.343 771.28 491.244 C 752.304 481.088 741.175 479.257 731.844 457.399 C 719.613 428.745 718.918 383.609 729.697 354.561 C 733.629 343.962 740.275 333.953 745.322 323.812 C 752.468 309.45 758.568 294.608 764.484 279.708 z"/>
<path transform="translate(0,0)" fill="rgb(0,0,0)" d="M 826.848 799.678 C 827.185 799.939 827.589 800.13 827.858 800.46 C 829.148 802.05 829.204 803.838 828.979 805.763 C 828.235 812.13 822.667 818.567 817.797 822.326 L 815.655 819.984 C 815.072 813.215 823.079 805.177 826.848 799.678 z"/>
<path transform="translate(0,0)" fill="rgb(0,0,0)" d="M 773.775 836.179 C 780.239 836.708 800.322 836.95 804.512 841.11 L 804.044 843.743 C 797.16 846.058 785.168 845.105 778.612 842.087 C 775.678 840.736 774.811 839.118 773.775 836.179 z"/>
<path transform="translate(0,0)" fill="rgb(0,0,0)" d="M 661.588 509.959 C 666.986 509.84 672.169 510.556 677.255 512.388 C 682.538 514.291 687.534 516.255 690.077 521.566 L 689.143 522.985 C 681.483 523.496 671.979 516.472 662.63 516.694 C 659.349 516.772 657.825 517.676 655.663 520.042 C 655.194 522.035 654.794 523.366 655.29 525.417 C 656.292 529.564 662.967 532.256 666.436 534.113 C 672.915 537.25 680.024 538.148 686.232 541.861 L 686.412 543.069 C 679.546 544.596 671.625 542.648 665.19 539.988 C 659.428 537.605 651.723 533.112 649.793 526.781 C 648.836 523.641 648.968 520.444 650.496 517.511 C 652.936 512.829 656.791 511.417 661.588 509.959 z"/>
<path transform="translate(0,0)" fill="rgb(0,0,0)" d="M 796.5 392.644 C 799.124 389.991 802.015 386.395 806.137 386.631 C 808.646 386.775 810.738 388.373 812.173 390.334 C 817.194 397.193 818.274 412.903 816.373 420.962 C 815.813 423.336 814.637 425.706 812.415 426.923 C 811.525 427.41 810.649 427.627 809.696 427.913 C 799.444 418.197 797.248 406.116 796.5 392.644 z"/>
<path transform="translate(0,0)" fill="rgb(254,254,254)" d="M 796.744 381.906 C 798.608 386.228 795.983 388.295 796.5 392.644 C 797.248 406.116 799.444 418.197 809.696 427.913 C 808.007 430.684 806.075 433.635 802.764 434.639 C 799.821 435.531 796.292 434.754 793.685 433.254 C 788.261 430.134 783.904 425.148 782.327 419.099 C 781.965 416.747 781.808 414.503 782.011 412.12 C 783.024 400.192 787.526 389.745 796.744 381.906 z"/>
<path transform="translate(0,0)" fill="rgb(0,0,0)" d="M 784.154 324.062 C 789.645 324.627 794.093 327.049 797.492 331.436 C 799.491 334.016 799.954 336.572 799.401 339.748 C 797.396 351.258 777.399 365.387 768.477 371.938 C 766.729 374.764 765.912 376.585 762.736 377.719 C 759.805 375.83 758.966 373.857 758.299 370.468 C 756.08 359.183 759.425 344.989 766.096 335.74 C 770.789 329.234 776.302 325.507 784.154 324.062 z"/>
<path transform="translate(0,0)" fill="rgb(94,79,77)" d="M 779.428 332.996 C 783.788 332.512 787.388 332.263 790.984 334.977 L 791.307 337.449 C 787.955 345.601 778.985 351.986 772.487 357.771 C 768.919 360.342 766.711 363.535 764.135 367.028 C 766.085 353.388 768.305 342.327 779.428 332.996 z"/>
<path transform="translate(0,0)" fill="rgb(122,106,106)" d="M 1222.47 474.43 C 1228.91 478.649 1260.85 528.228 1267.62 537.67 C 1291.21 570.545 1319.72 600.71 1341.02 634.992 C 1355.04 657.564 1369 683.233 1376.41 708.755 C 1380.52 722.886 1385.26 746.957 1377.31 760.343 C 1353.24 800.899 1187.56 831.409 1142.45 840.695 C 1124.92 844.302 1107.62 848.887 1090.04 852.265 C 1057.46 858.529 1025.28 863.503 992.982 871.401 C 962.473 794.216 936.386 745.772 872.029 690.819 C 884.733 690.779 897.443 692.431 910.134 692.98 C 928.493 693.774 946.957 693.545 965.339 693.985 C 1014.33 693.344 1062.32 691.173 1110.15 679.706 C 1126.83 675.707 1143.19 670.178 1159.6 665.183 C 1161.94 682.287 1165.19 697.595 1172.84 713.225 C 1190.25 748.779 1215.86 768.404 1252.99 781.02 C 1234.39 768.719 1216.44 756.164 1201.55 739.338 C 1187.71 723.691 1164.43 684.714 1165.67 663.473 L 1166.55 664.012 C 1167.03 673.074 1181.92 691.683 1188.19 698.469 C 1206.66 718.452 1234.86 739.615 1261.69 746.299 C 1270.56 748.508 1279.49 748.938 1288.58 749.31 C 1276.07 733.713 1248.31 715.86 1232.23 701.35 C 1216.08 686.763 1194.73 668.636 1182.63 650.615 C 1174 637.771 1169.7 619.484 1164.59 604.79 C 1156.22 580.75 1148.19 556.534 1138.66 532.925 C 1149.49 531.774 1158.37 529.194 1168.06 524.297 C 1187.91 514.269 1215.22 496.624 1222.47 474.43 z"/>
<path transform="translate(0,0)" fill="rgb(102,132,128)" d="M 1993.19 1028.8 C 1995.95 1025.44 1998.73 1022.51 2002.01 1019.65 C 2004.08 1059.51 2001.7 1100.3 1998.23 1140.02 C 1994.62 1181.22 1989.28 1222.79 1980.69 1263.27 A 949.273 949.273 0 0 1 1762.27 1696.74 C 1643.49 1828.38 1495.32 1915.69 1325.03 1963.21 C 1288.21 1973.49 1248.6 1984.24 1210.45 1987.51 C 1189.24 1860.5 1157.36 1743.49 1117.73 1621.18 C 1149.14 1615.07 1192.28 1585.34 1214.4 1561.65 L 1213.81 1559.81 C 1194.58 1578.55 1168.67 1600.2 1143.29 1609.71 L 1143.6 1609.03 L 1141.72 1610.02 C 1148.09 1605.81 1155.02 1602.64 1161.43 1598.5 C 1170.04 1592.95 1203.59 1569.01 1205.6 1560.96 C 1178.88 1584.62 1151.14 1607.06 1116.61 1618.19 C 1099.49 1568.46 1082.92 1518.61 1063.34 1469.76 C 1051.73 1440.79 1038.45 1412.22 1025.15 1383.98 C 1031.56 1376.55 1053.69 1376.25 1062.98 1375.45 C 1074.93 1369.84 1087.09 1365.37 1098.76 1359.04 C 1151.09 1330.63 1191.99 1287.28 1219.6 1234.74 C 1223.35 1227.62 1226.71 1210.3 1232.46 1206.04 C 1235.82 1208.01 1239.45 1221.73 1242.12 1226.13 C 1248.72 1236.96 1257.95 1247.47 1267.72 1255.54 C 1289.64 1273.64 1319.83 1279.03 1347.55 1276.22 C 1375.94 1273.35 1400.58 1262.14 1424.4 1246.96 C 1437.56 1238.58 1454.88 1228.77 1464.95 1216.87 C 1484.78 1193.4 1504.81 1123.06 1509.47 1091.44 C 1510.6 1083.72 1510.46 1068.05 1515.28 1062.15 L 1516.55 1062.62 C 1518.96 1067.71 1519.05 1073.08 1521.09 1078.39 L 1521.58 1079.62 L 1520.13 1084.9 C 1533.85 1115.78 1557.32 1139.53 1589.13 1151.68 C 1627.75 1166.43 1672.28 1161.13 1709.43 1144.43 C 1730.83 1134.81 1755.4 1120.21 1769.69 1101.11 C 1775.71 1094.36 1781.78 1087.51 1786.38 1079.67 C 1794.26 1090.23 1801.59 1101.5 1813.58 1107.79 C 1813.13 1105.52 1812.81 1105.14 1813.56 1102.85 L 1818.51 1102.25 C 1822.16 1103.06 1825.78 1103.73 1829.52 1103.92 C 1890.17 1106.97 1942.7 1065.06 1985.09 1026.56 C 1987.75 1027.32 1990.67 1027.72 1993.19 1028.8 z"/>
<path transform="translate(0,0)" fill="rgb(0,0,0)" d="M 1230.15 1837.97 C 1223.84 1838.08 1217.32 1838.03 1211.15 1836.52 C 1207.62 1835.66 1201.83 1834.1 1199.88 1830.82 L 1200.5 1829.73 C 1206.87 1828.94 1216.01 1831.91 1222.66 1832.72 L 1228.42 1833.77 L 1222.63 1834.46 C 1222.91 1835.9 1222.55 1835.83 1223.64 1836.45 C 1225.63 1837.59 1227.98 1837.39 1230.15 1837.97 z"/>
<path transform="translate(0,0)" fill="rgb(0,0,0)" d="M 1249.29 1382.64 C 1232.9 1386.41 1202 1391.71 1185.92 1386.22 C 1193.72 1383.74 1203.69 1385.1 1211.95 1384.16 C 1222.49 1382.96 1232.94 1380.67 1243.33 1378.56 L 1244.22 1379.58 C 1233.68 1383.06 1222.58 1382.49 1212.38 1385.67 C 1222.32 1388.2 1241.96 1379.69 1249.29 1382.64 z"/>
<path transform="translate(0,0)" fill="rgb(0,0,0)" d="M 1275.36 1566.82 C 1277.76 1569.26 1279.71 1571.82 1281.7 1574.6 C 1280.29 1574.22 1278.9 1573.89 1277.47 1573.59 L 1278.66 1573.99 L 1276.89 1574.25 C 1277.32 1574.69 1277.74 1575.12 1278.16 1575.57 C 1279.36 1576.84 1279.9 1577.71 1280.34 1579.43 L 1279.63 1580.56 C 1278.13 1578.44 1276.71 1576.53 1274.9 1574.65 C 1268.75 1582.64 1265.34 1593.41 1259.83 1602.03 C 1242.17 1629.7 1209.97 1654.35 1179.08 1665.15 C 1175.4 1666.43 1170.34 1668.59 1166.61 1666.77 L 1167.24 1665.54 A 122.196 122.196 0 0 0 1171 1664.62 C 1176.65 1663.14 1181.24 1660.44 1186.39 1657.82 C 1223.32 1639.01 1254.43 1602.16 1275.36 1566.82 z"/>
<path transform="translate(0,0)" fill="url(#Gradient1)" d="M 1780.44 1162.29 C 1793.73 1192.32 1807.57 1218.74 1840.1 1231.31 C 1871.78 1243.56 1909.96 1236.34 1939.97 1222.9 C 1950.51 1218.18 1960.49 1212.44 1970.5 1206.72 C 1946.54 1231.63 1909.23 1249.24 1874.45 1249.72 C 1850.49 1250.05 1826.01 1241.38 1808.77 1224.5 C 1793.42 1209.47 1784.2 1188.1 1778.97 1167.55 C 1779.27 1165.7 1779.86 1164.07 1780.44 1162.29 z"/>
<path transform="translate(0,0)" fill="rgb(11,26,30)" d="M 1818.51 1102.25 C 1822.16 1103.06 1825.78 1103.73 1829.52 1103.92 C 1890.17 1106.97 1942.7 1065.06 1985.09 1026.56 C 1987.75 1027.32 1990.67 1027.72 1993.19 1028.8 C 1961.37 1071.51 1918.13 1106.24 1863.93 1114.27 C 1849.48 1116.41 1826.89 1116.68 1814.24 1108.37 C 1813.99 1108.21 1813.8 1107.99 1813.58 1107.79 C 1813.13 1105.52 1812.81 1105.14 1813.56 1102.85 L 1818.51 1102.25 z"/>
<path transform="translate(0,0)" fill="url(#Gradient2)" d="M 1529.42 1188.84 C 1545.34 1208.04 1550.32 1222.84 1575.42 1232.99 C 1610.61 1247.23 1653.36 1241.41 1687.51 1227.05 A 244.086 244.086 0 0 0 1762.7 1177.93 C 1767.59 1173.17 1772.86 1168.87 1775.43 1162.43 C 1776.17 1160.59 1776.52 1159.42 1778.05 1158.08 L 1780.44 1162.29 C 1779.86 1164.07 1779.27 1165.7 1778.97 1167.55 A 52.0486 52.0486 0 0 1 1777.26 1170.8 C 1756.88 1206.22 1706.82 1235.59 1668.21 1245.65 C 1635.18 1254.27 1593.45 1255.83 1563.12 1237.81 C 1543.14 1225.94 1535.1 1210.84 1529.42 1188.84 z"/>
<path transform="translate(0,0)" fill="url(#Gradient3)" d="M 1560.3 1481.93 L 1562.67 1483.7 C 1555.55 1497.11 1549.38 1511.08 1540.94 1523.74 C 1514 1564.15 1470.61 1594.86 1424.52 1608.91 C 1387.28 1620.27 1341.22 1623.22 1305.89 1604.15 C 1296.01 1598.81 1285.21 1590.51 1279.63 1580.56 L 1280.34 1579.43 C 1279.9 1577.71 1279.36 1576.84 1278.16 1575.57 C 1277.74 1575.12 1277.32 1574.69 1276.89 1574.25 L 1278.66 1573.99 L 1277.47 1573.59 C 1278.9 1573.89 1280.29 1574.22 1281.7 1574.6 C 1289.15 1579.93 1294.96 1587.61 1302.85 1592.86 C 1327.98 1609.58 1367.65 1610.17 1396.19 1604.51 C 1465.95 1590.68 1521.87 1539.33 1560.3 1481.93 z"/>
<path transform="translate(0,0)" fill="url(#Gradient4)" d="M 1596.74 1310.82 C 1597.78 1308.79 1598.11 1307.25 1600.14 1306.11 C 1607.12 1314.91 1611.94 1325.3 1619.24 1333.96 C 1649.91 1370.28 1693.77 1387.38 1740.07 1392.72 C 1805.83 1400.31 1876.33 1385.84 1935.52 1356.62 C 1893.31 1394.46 1808.52 1409.76 1752.82 1406.51 C 1704.8 1403.71 1657.61 1389.76 1624.95 1352.5 C 1618.09 1344.67 1611.56 1335.87 1606.45 1326.79 C 1603.84 1322.15 1601.65 1315.45 1598.3 1311.54 L 1596.74 1310.82 z"/>
<path transform="translate(0,0)" fill="url(#Gradient5)" d="M 1596.74 1310.82 L 1598.3 1311.54 L 1597.83 1313.2 C 1596.46 1318.35 1596.52 1323.9 1595.52 1329.15 C 1594.1 1336.61 1591.22 1344.26 1588.67 1351.4 C 1569.89 1403.85 1525.74 1449.73 1478.28 1477.98 C 1439.65 1500.97 1390.88 1516.12 1346 1504.24 C 1326.34 1499.04 1305.94 1488.18 1295.83 1469.82 C 1293.17 1464.98 1291.41 1459.66 1289.82 1454.4 C 1274.96 1488.84 1244.15 1538.78 1214.4 1561.65 L 1213.81 1559.81 C 1194.58 1578.55 1168.67 1600.2 1143.29 1609.71 L 1143.6 1609.03 L 1141.72 1610.02 C 1148.09 1605.81 1155.02 1602.64 1161.43 1598.5 C 1170.04 1592.95 1203.59 1569.01 1205.6 1560.96 C 1233.98 1532.06 1261.42 1498.02 1279.91 1461.76 C 1284.75 1452.26 1288.39 1442.17 1292.55 1432.36 C 1292.99 1440.21 1293.9 1446.62 1297.05 1453.88 C 1304.77 1471.63 1320.16 1485.05 1338.04 1492 C 1373 1505.59 1415.5 1496.97 1448.56 1482.15 C 1503.74 1457.4 1553.72 1410.42 1580.19 1355.58 C 1587.11 1341.25 1590.68 1326.51 1596.34 1311.84 L 1596.74 1310.82 z"/>
<path transform="translate(0,0)" fill="url(#Gradient6)" d="M 1565.03 1474.51 C 1586.46 1508.27 1607.11 1531.78 1647.96 1540.93 C 1702.56 1553.17 1754.14 1537.7 1800.26 1508.15 C 1825.34 1492.09 1848.33 1473.65 1871.62 1455.16 C 1865.05 1465.62 1858.68 1476.13 1850.54 1485.47 C 1821.5 1518.8 1771.54 1548.71 1728.71 1558.3 C 1688.81 1567.23 1643.88 1564.45 1608.84 1541.98 C 1590.95 1530.52 1578.5 1517.14 1568.98 1498.18 C 1566.75 1493.74 1565.41 1487.63 1562.67 1483.7 L 1560.3 1481.93 L 1565.03 1474.51 z"/>
<path transform="translate(0,0)" fill="rgb(11,26,30)" d="M 1222.66 1832.72 C 1239.29 1831.13 1255.2 1828.59 1271.04 1823.12 C 1317.39 1807.14 1358.95 1769.65 1389.64 1732.22 C 1405.78 1712.53 1422.39 1687.1 1432.44 1663.63 C 1434.5 1658.82 1435.63 1650.92 1439.18 1647.23 C 1441.43 1647.44 1440.79 1646.96 1442.12 1648.5 C 1446.45 1653.5 1449.99 1668.21 1453.26 1674.98 C 1472.51 1714.74 1505.66 1729.29 1548.02 1734.87 C 1625.17 1745.04 1700.41 1709.23 1760.28 1663.13 C 1769.67 1655.9 1778.41 1647.97 1786.98 1639.8 C 1758.09 1687.74 1688.02 1727.58 1634.97 1740.92 C 1585.58 1753.34 1527.38 1752.82 1482.7 1725.51 C 1460.06 1711.68 1447.44 1690.46 1438.87 1665.86 C 1414.71 1732.84 1364.27 1791.79 1299.47 1822.29 C 1279.3 1831.78 1252.77 1840.43 1230.15 1837.97 C 1227.98 1837.39 1225.63 1837.59 1223.64 1836.45 C 1222.55 1835.83 1222.91 1835.9 1222.63 1834.46 L 1228.42 1833.77 L 1222.66 1832.72 z"/>
<path transform="translate(0,0)" fill="url(#Gradient7)" d="M 1062.98 1375.45 C 1074.93 1369.84 1087.09 1365.37 1098.76 1359.04 C 1151.09 1330.63 1191.99 1287.28 1219.6 1234.74 C 1223.35 1227.62 1226.71 1210.3 1232.46 1206.04 C 1235.82 1208.01 1239.45 1221.73 1242.12 1226.13 C 1248.72 1236.96 1257.95 1247.47 1267.72 1255.54 C 1289.64 1273.64 1319.83 1279.03 1347.55 1276.22 C 1375.94 1273.35 1400.58 1262.14 1424.4 1246.96 C 1437.56 1238.58 1454.88 1228.77 1464.95 1216.87 C 1484.78 1193.4 1504.81 1123.06 1509.47 1091.44 C 1510.6 1083.72 1510.46 1068.05 1515.28 1062.15 L 1516.55 1062.62 C 1518.96 1067.71 1519.05 1073.08 1521.09 1078.39 L 1521.58 1079.62 L 1520.13 1084.9 L 1516 1074.03 C 1514.84 1092.65 1514.93 1110.94 1512.07 1129.45 C 1501.63 1196.91 1465.34 1255.56 1414.7 1300.37 A 356.063 356.063 0 0 1 1284.75 1373.91 C 1273.44 1377.55 1261.14 1381.57 1249.29 1382.64 C 1241.96 1379.69 1222.32 1388.2 1212.38 1385.67 C 1222.58 1382.49 1233.68 1383.06 1244.22 1379.58 L 1243.33 1378.56 C 1248.64 1375.81 1256.75 1374.59 1262.6 1372.89 C 1274.45 1369.43 1286.26 1365.65 1297.68 1360.93 C 1360.11 1335.08 1410.21 1290 1452.4 1238.18 C 1435.68 1250.44 1419.05 1262.19 1400.3 1271.28 C 1367.81 1287.02 1328.44 1290.3 1294.25 1278.32 C 1264.59 1267.93 1245.99 1247.63 1232.55 1219.96 C 1220.67 1256.57 1196.34 1290.15 1168.52 1316.36 C 1148.32 1335.38 1092.25 1376.27 1062.98 1375.45 z"/>
<path transform="translate(0,0)" fill="rgb(0,0,0)" d="M 484.269 382.896 C 487.169 366.402 490.413 350.551 494.991 334.432 C 504.279 301.727 512.772 289.001 541.201 269.211 C 576.624 244.552 615.706 234.188 658.218 230.871 C 679.011 229.248 698.404 229.04 719.003 232.852 A 1652.77 1652.77 0 0 1 735.723 236.053 L 798.372 305.696 C 805.925 314.119 815.219 321.774 822.013 330.736 C 823.527 332.733 825.035 334.975 824.707 337.607 C 824.671 337.893 824.569 338.167 824.5 338.447 C 812.765 337.658 797.132 319.313 789.731 310.818 C 780.98 300.773 772.876 290.061 764.484 279.708 C 758.568 294.608 752.468 309.45 745.322 323.812 C 740.275 333.953 733.629 343.962 729.697 354.561 C 718.918 383.609 719.613 428.745 731.844 457.399 C 741.175 479.257 752.304 481.088 771.28 491.244 C 762.56 499.343 753.66 505.105 741.213 504.411 C 728.716 503.713 716.776 497.222 708.81 487.675 C 704.145 482.084 700.841 475.311 698.56 468.416 L 696.626 469.291 A 189.327 189.327 0 0 1 700.369 494.837 C 687.835 481.883 677.628 477.709 660.276 474.356 C 660.088 477.206 660.609 479.586 658.596 481.712 C 656.124 481.768 653.601 481.644 651.186 482.198 C 665.019 483.71 676.993 487.606 686.075 498.889 C 689.58 503.243 691.624 507.855 693.695 512.967 C 683.955 503.757 667.881 487.282 653.471 488.122 C 646.347 488.537 640.566 493.183 636.168 498.452 C 630.591 505.132 626.582 513.101 621.183 520.019 C 630.417 536.81 649.264 548.944 667.522 554.085 C 675.577 556.354 685.668 556.794 693.186 552.522 C 695.788 551.044 697.516 549.058 698.235 546.123 C 698.848 543.622 698.942 540.943 699.091 538.381 C 700.35 536.787 699.728 536.899 701.619 536.796 C 703.915 536.671 704.956 537.272 706.975 538.208 C 710.455 541.83 711.025 546.883 714.341 550.351 C 724.267 560.732 742.491 566.772 741.858 584.122 C 741.645 589.951 739.523 596.463 734.953 600.317 C 730.444 604.12 724.479 605.472 718.856 606.749 C 720.606 626.179 721.242 643.413 707.892 659.527 C 693.465 676.941 675.553 679.372 654.943 684.505 C 639.947 688.239 623.886 692.313 609.34 697.429 L 602.04 698.832 L 602.052 699.421 C 603.652 699.707 605.229 699.971 606.842 700.179 C 604.071 701.018 601.95 701.007 600.238 703.442 C 606.901 712.183 615.24 719.686 622.269 728.163 C 635.411 744.01 647.551 761.213 658.625 778.569 C 691.547 830.173 716.826 886.082 738.111 943.371 C 763.022 1010.42 784.342 1080.22 793.727 1151.38 C 799.425 1194.59 800.531 1237.81 800.188 1281.32 C 799.934 1313.53 799.28 1346.95 795.536 1378.95 L 794.365 1380.57 L 791.163 1380.65 L 789.006 1381.96 L 796.309 1386.74 C 826.822 1387.83 862.625 1380.95 890.942 1369.53 C 891.149 1369.79 891.353 1370.05 891.563 1370.3 C 897.165 1377.08 905.461 1380.93 914.177 1381.62 C 929.837 1382.87 948.114 1374.49 959.674 1364.27 C 965.556 1359.07 970.88 1352.34 973.465 1344.84 C 975.809 1338.05 973.917 1321.06 982.148 1319.04 C 986.344 1323.42 985.908 1336.94 989.655 1343.4 C 1009.53 1377.67 1024.88 1413.56 1040.35 1449.95 C 1067.25 1513.23 1089.69 1577.73 1110.61 1643.19 A 2823.96 2823.96 0 0 1 1186.81 1927.35 C 1191.22 1947.93 1196.62 1968.47 1200.47 1989.14 C 1185.23 1988.68 1168.9 1992.5 1153.63 1993.83 C 1137.97 1995.2 1122.13 1994.97 1106.51 1996.45 L 1103.47 1996.27 C 1074.77 1996.07 1046.26 1997.28 1017.53 1995.99 L 1014.37 1996.13 C 998.642 1994.95 982.854 1993.93 967.164 1992.3 C 955.67 1991.11 942.334 1988.1 930.956 1989 C 930.467 1988.89 929.974 1988.8 929.487 1988.69 C 925.51 1987.73 924.71 1986.64 922.571 1983.34 C 892.56 1976.87 862.645 1969.61 834.198 1957.83 C 829.561 1967.81 821.7 1989.73 813.715 1996.33 C 812.116 1996.36 810.624 1996.36 809.027 1996.22 C 804.458 1994.54 766.716 1999.03 758.453 1999.21 C 717.404 2000.11 676.87 1998.26 635.902 1997.04 L 633.246 1997.08 C 601.192 1995.17 567.606 1994.77 536.065 1988.69 L 533.987 1988.89 C 528.029 1987.19 521.429 1986.7 515.279 1985.74 C 501.477 1983.59 488.174 1981.39 474.866 1976.97 C 473.372 1976.18 472.031 1975.26 470.63 1974.32 C 464.202 1956.55 488.511 1821.8 494.748 1796.86 C 493.662 1795.3 494.033 1795.46 492.769 1794.63 C 468.408 1778.68 444.874 1762.02 422.311 1743.56 C 360.672 1693.12 283.731 1613.47 242.777 1544.95 C 215.064 1509.58 189.613 1461.61 170.698 1420.95 C 107.406 1284.92 82.3857 1166.06 80.2304 1016.4 C 77.7942 847.239 125.215 667.381 207.639 519.683 C 224.59 489.306 243.369 455.743 267.683 430.714 C 255.845 432.868 184.158 445.293 178.72 443.845 C 175.977 443.115 174.169 441.266 172.9 438.783 C 169.718 432.561 173.413 421.641 175.954 415.823 C 182.306 401.281 195.534 388.733 207.198 378.419 C 228.45 359.626 253.664 342.702 281.326 335.199 C 308.968 327.702 331.917 325.435 359.397 314.477 C 371.727 309.56 379.985 309.542 392.075 314.758 C 394.485 316.834 396.674 318.905 398.802 321.27 C 405.776 323.975 413.656 323.371 420.969 324.772 C 444.654 329.308 468.723 341.669 479.03 364.641 C 481.656 370.492 482.968 376.656 484.269 382.896 z"/>
<path transform="translate(0,0)" fill="rgb(239,194,91)" d="M 467.863 433.314 C 468.327 433.167 468.795 433.032 469.255 432.873 C 472.946 431.597 475.794 427.703 479.593 427.709 C 480.776 430.209 480.464 431.775 480.2 434.44 C 479.365 435.452 479.184 436.256 477.751 436.343 C 474.668 436.53 470.749 434.55 467.862 433.491 L 467.863 433.314 z"/>
<path transform="translate(0,0)" fill="rgb(92,52,46)" d="M 771.133 1389.15 C 766.052 1384.5 757.215 1382.37 750.941 1379.47 C 759.37 1379.97 767.609 1382.28 776.074 1381.82 L 775.857 1385.11 L 771.133 1389.15 z"/>
<path transform="translate(0,0)" fill="rgb(242,215,133)" d="M 717.894 1457.18 C 722.501 1458.58 732.589 1460.63 735.485 1464.67 C 735.661 1464.92 735.762 1465.21 735.9 1465.48 C 734.62 1467.52 733.501 1467.97 731.203 1468.49 C 728.222 1469.17 724.865 1469.27 721.818 1469.56 L 719.571 1468.61 C 718.264 1465.09 718.246 1460.9 717.894 1457.18 z"/>
<path transform="translate(0,0)" fill="rgb(210,84,77)" d="M 481.851 475.71 C 485.999 479.683 488.802 489.785 491.24 495.288 C 482.026 498.075 472.676 500.1 463.227 501.9 L 453.947 503.25 C 464.284 495.284 472.775 485.04 481.851 475.71 z"/>
<path transform="translate(0,0)" fill="rgb(102,132,128)" d="M 452.793 476.184 C 459.025 476.768 465.371 476.67 471.631 476.774 C 461.346 484.84 453.689 499.117 440.49 502.348 C 434.787 503.321 429.168 505.178 423.599 506.738 C 434.319 497.382 440.368 483.489 452.793 476.184 z"/>
<path transform="translate(0,0)" fill="rgb(210,84,77)" d="M 614.359 475.937 L 614.556 483.471 A 83.3445 83.3445 0 0 0 612.198 487.516 C 607.122 496.973 607.72 505.804 610.633 515.716 C 597.361 521.972 584.201 527.67 570.055 531.738 C 587.907 515.896 601.494 495.855 614.359 475.937 z"/>
<path transform="translate(0,0)" fill="url(#Gradient8)" d="M 651.186 482.198 C 640.169 485.414 629.036 492.363 626.325 504.342 C 625.538 507.819 625.295 512.728 622.905 515.57 C 621.727 516.971 621.517 517.278 619.663 517.34 C 617.444 513.099 615.713 505.441 616.13 500.675 C 616.765 493.43 620.605 486.01 626.237 481.429 C 636.073 473.425 648.319 473.449 660.276 474.356 C 660.088 477.206 660.609 479.586 658.596 481.712 C 656.124 481.768 653.601 481.644 651.186 482.198 z"/>
<path transform="translate(0,0)" fill="rgb(242,215,133)" d="M 710.384 565.83 A 57.9593 57.9593 0 0 1 712.667 566.122 A 22.461 22.461 0 0 1 727.739 575.408 C 729.819 578.416 730.934 582.069 730.144 585.707 C 728.998 590.981 725.476 593.292 721.135 595.984 C 719.772 596.401 719.55 596.51 717.983 596.768 C 713.833 597.449 708.711 596.704 705.619 593.656 C 702.883 590.959 701.88 587.162 701.909 583.419 C 701.962 576.368 705.374 570.539 710.384 565.83 z"/>
<path transform="translate(0,0)" fill="rgb(242,215,133)" d="M 397.787 330.219 C 412.865 328.937 432.593 335.374 445.695 342.469 C 465.68 353.292 473.186 369.17 479.485 390.112 C 470.184 387.015 459.372 385.41 450.772 380.74 C 444.08 377.105 401.636 336.489 397.787 330.219 z"/>
<path transform="translate(0,0)" fill="rgb(242,215,133)" d="M 360.582 327.391 C 360.987 327.329 361.389 327.236 361.798 327.206 C 369.824 326.609 379.216 326.71 386.702 329.637 C 402.626 335.863 427.69 363.836 440.706 376.315 C 427.248 371.803 413.689 368.76 399.768 366.149 C 395.597 364.631 391.1 364.77 386.818 363.097 C 377.837 359.588 369.281 354.92 360.343 351.277 C 342.057 343.826 324.457 341.178 305.026 338.863 C 323.562 334.119 341.535 329.594 360.582 327.391 z"/>
<path transform="translate(0,0)" fill="rgb(122,106,106)" d="M 444.361 1204.74 C 444.625 1204.92 444.932 1205.05 445.154 1205.27 C 446.283 1206.43 446.514 1207.22 446.508 1208.8 C 446.462 1220.45 426.48 1238.46 418.543 1245.8 C 395.1 1267.49 363.296 1297.79 329.248 1296.46 L 326.834 1295.19 L 326.475 1292.87 C 336.075 1266.26 399.871 1238.38 423.233 1222.58 C 430.655 1217.57 437.362 1210.45 444.361 1204.74 z"/>
<path transform="translate(0,0)" fill="rgb(94,79,77)" d="M 563.461 1365.55 C 578.967 1372.6 592.816 1378.82 610.285 1377.68 C 609.686 1400.18 608.079 1422.16 599.958 1443.42 C 596.345 1452.87 591.567 1461.8 587.849 1471.18 C 575.95 1468.93 563.822 1468.26 551.911 1466.1 C 567.271 1444.28 573.558 1413.31 568.827 1387 C 568.179 1383.4 567.362 1379.83 566.548 1376.26 C 566.46 1381.01 567.432 1390.78 565.312 1394.78 C 565.435 1384.94 564.928 1375.27 563.461 1365.55 z"/>
<path transform="translate(0,0)" fill="rgb(94,79,77)" d="M 716.777 373.803 C 712.972 405.022 711.641 449.152 732.509 475.218 C 740.21 484.838 749.488 490.467 761.272 493.383 C 752.439 497.958 743.858 500.057 734.049 496.676 C 712.507 489.251 701.477 455.17 699.109 454.377 C 698.451 454.156 697.728 454.517 697.038 454.587 C 694.916 458.666 697.333 464.175 698.56 468.416 L 696.626 469.291 L 695.178 464.861 L 693.353 464.414 C 690.931 466.631 690.78 467.695 690.522 470.999 C 690.406 472.491 690.516 474.047 690.571 475.537 C 676.695 468.284 663.902 465.654 648.257 465.909 C 660.479 454.144 670.248 439.32 680.108 425.584 A 4359.4 4359.4 0 0 0 716.777 373.803 z"/>
<path transform="translate(0,0)" fill="rgb(94,79,77)" d="M 516.9 1333.74 C 530.116 1342.92 544.922 1351.82 557.291 1361.97 L 563.461 1365.55 C 564.928 1375.27 565.435 1384.94 565.312 1394.78 C 564.029 1411.54 559.446 1450.57 546.591 1462.28 C 545.522 1463.26 544.467 1463.63 543.095 1463.98 L 537.898 1462.93 C 525.186 1458.15 510.49 1457.01 497.274 1453.61 C 507.095 1445.93 514.651 1437.4 520.093 1426.11 C 534.349 1396.55 527.38 1363.24 516.9 1333.74 z"/>
<path transform="translate(0,0)" fill="rgb(242,215,133)" d="M 537.898 1462.93 C 539.53 1458.07 542.922 1453.23 544.987 1448.41 C 552.044 1431.95 557.37 1414.23 558.319 1396.24 C 558.882 1385.55 555.815 1373.95 557.059 1363.67 C 557.127 1363.1 557.214 1362.54 557.291 1361.97 L 563.461 1365.55 C 564.928 1375.27 565.435 1384.94 565.312 1394.78 C 564.029 1411.54 559.446 1450.57 546.591 1462.28 C 545.522 1463.26 544.467 1463.63 543.095 1463.98 L 537.898 1462.93 z"/>
<path transform="translate(0,0)" fill="rgb(210,84,77)" d="M 395.969 525.842 C 412.382 519.171 430.865 512.64 448.353 509.881 C 464.603 507.318 478.97 508.474 494.71 502.333 L 503.444 514.34 C 483.532 525.226 456.759 528.042 434.364 529.391 C 425.674 529.915 410.775 528.188 403.232 532.074 C 428.712 542.386 471.602 537.121 496.516 526.637 C 500.403 525.002 503.794 522.834 507.262 520.451 C 511.592 525.328 515.82 530.328 520.548 534.825 C 503.869 547.928 479.439 553.383 458.535 550.644 C 456.213 550.339 453.903 549.818 451.619 549.309 C 462.96 557.577 469.511 560.233 483.65 558.105 C 492.102 556.834 500.892 554.417 508.507 550.47 C 513.991 547.627 523.811 537.424 529.264 537.44 L 530.664 538.991 C 530.235 543.319 525.353 546.903 522.186 549.528 A 83.0962 83.0962 0 0 1 503.958 561.239 C 496.854 564.511 491.542 564.995 485.6 570.592 C 460.359 574.992 445.836 572.11 424.751 557.275 C 415.873 551.029 408.469 543.656 401.636 535.261 C 399.55 532.332 397.821 528.939 395.969 525.842 z"/>
<path transform="translate(0,0)" fill="rgb(210,84,77)" d="M 614.359 475.937 A 1372.13 1372.13 0 0 0 666.391 369.618 C 677.079 345.179 687.679 320.794 698.976 296.623 C 704.288 285.259 709.334 273.483 715.616 262.624 C 719.747 255.483 724.678 248.603 731.479 243.798 C 740.149 253.547 746.82 262.766 757.072 271.176 C 739.688 323.278 701.031 377.134 668.988 421.376 C 658.57 435.761 648.445 450.975 636.925 464.503 C 630.42 472.142 621.094 475.59 614.556 483.471 L 614.359 475.937 z"/>
<path transform="translate(0,0)" fill="rgb(210,84,77)" d="M 584.769 256.045 L 585.449 256.846 C 583.836 267.039 576.837 279.131 573.333 289.024 C 565.354 311.551 557.861 334.938 551.839 358.045 A 724.693 724.693 0 0 0 533.866 452.489 C 530.887 476.242 529.165 500.205 525.634 523.882 C 520.441 518.371 515.594 512.622 510.755 506.799 C 506.596 501.146 502.765 495.078 499.705 488.757 C 480.613 449.319 494.836 362.819 509.528 321.484 C 520.875 289.561 555.848 269.819 584.769 256.045 z"/>
<path transform="translate(0,0)" fill="rgb(242,215,133)" d="M 646.99 240.38 L 649.811 240.575 C 649.817 246.351 639.671 262.278 636.837 268.712 A 710.074 710.074 0 0 0 619.987 311.337 A 2537.65 2537.65 0 0 0 578.946 439.277 C 570.025 470.51 561.525 501.134 556.558 533.28 C 550.44 532.736 544.312 531.463 538.253 530.438 C 536.22 530.062 535.098 529.702 533.42 528.483 C 531.475 524.131 535.814 506.419 536.515 500.536 A 1170.52 1170.52 0 0 1 573.663 312.865 C 579.773 292.166 587.214 271.832 594.396 251.485 C 610.855 245.224 629.527 242.208 646.99 240.38 z"/>
<path transform="translate(0,0)" fill="rgb(144,174,166)" d="M 675.109 238.455 C 690.697 238.505 705.763 239.249 721.201 241.553 C 720.022 242.49 718.873 243.442 717.713 244.402 C 700.188 258.9 650.369 383.553 636.231 413.001 C 620.567 445.626 604.134 477.566 582.265 506.512 C 575.249 515.97 568.533 525.683 561.697 535.275 C 572.537 505.061 578.882 472.528 588.238 441.741 A 4018.74 4018.74 0 0 1 615.177 357.672 C 621.64 337.722 627.646 317.534 634.804 297.826 C 641.882 278.338 650.178 259.241 657.78 239.945 C 663.529 239.286 669.34 238.928 675.109 238.455 z"/>
<path transform="translate(0,0)" fill="rgb(216,181,140)" d="M 614.09 1377.61 C 639.82 1368.5 672.953 1355.85 697.639 1344.4 C 719.593 1354.69 745.268 1355.71 767.187 1366.23 C 770.21 1367.68 772.121 1368.83 773.27 1372.02 L 771.741 1373.92 C 762.253 1377.1 748.508 1370.48 738.998 1368.18 C 718.298 1363.15 689.116 1360.34 670.234 1372.5 C 668.129 1373.85 666.216 1374.82 665.621 1377.29 C 674.173 1377.81 683.789 1373.89 692.582 1373.51 C 718.091 1372.43 756.838 1386.45 775.617 1403.69 C 744.034 1402.43 727.657 1387.55 693.196 1394.46 C 686.813 1395.74 661.242 1401.37 657.909 1406.38 C 659.54 1407.63 660.284 1407.76 662.296 1407.97 C 679.487 1409.78 694.572 1406.51 713.992 1409.74 C 732.1 1412.75 749.173 1419.84 764.707 1429.59 C 767.353 1431.25 770.151 1432.84 770.89 1435.99 C 765.36 1439.83 754.289 1436.81 747.862 1435.75 C 714.437 1430.28 689.517 1430.59 656.051 1433.07 C 671.741 1446.75 698.222 1451.08 717.894 1457.18 C 718.246 1460.9 718.264 1465.09 719.571 1468.61 L 721.818 1469.56 C 717.583 1470.77 711.082 1470.07 706.52 1470.15 C 692.475 1470.38 678.266 1470.22 664.252 1471.19 C 648.26 1472.28 632.246 1474.68 616.217 1474.97 C 609.175 1475.1 602.872 1474.85 596.007 1473.17 C 612.552 1442.01 619.798 1413.09 614.09 1377.61 z"/>
<path transform="translate(0,0)" fill="rgb(242,215,133)" d="M 292.221 422.214 C 276.321 420.653 262.236 424.568 246.649 427.028 C 228.223 429.936 208.899 432.939 190.301 434.163 C 186.892 434.387 185.209 434.346 182.612 432.089 C 181.198 427.848 182.898 424.008 184.844 420.2 C 199.632 391.261 247.419 356.979 277.614 347.511 C 310.048 337.342 349.423 347.54 378.65 362.74 C 364.446 362.934 350.26 363.177 336.109 364.51 C 285.162 369.311 228.248 388.898 194.663 429.432 C 206.22 422.044 216.222 412.49 227.427 404.604 C 263.192 379.433 315.34 369.18 358.433 370.691 C 375.088 371.275 391.241 373.959 407.603 376.865 C 434.057 380.689 457.472 392.362 482.797 399.937 C 481.274 407.496 480.966 414.956 480.659 422.646 C 476.335 424.029 472.022 424.941 468.704 428.195 C 467.711 430.179 467.623 431.115 467.863 433.314 L 467.862 433.491 C 444.463 430.497 423.002 428.72 399.377 430.285 C 412.659 422.61 425.16 415.602 439.59 410.266 C 444.201 408.561 454.676 405.849 457.463 402.193 C 436.785 400.156 407.023 422.185 385.87 427.101 C 374.043 429.849 360.689 428.236 348.637 427.746 C 359.965 419.167 392.014 396.65 398.817 386.452 C 374.937 396.558 353.68 412.145 332.635 427.009 C 321.827 426.462 310.707 424.753 300.058 422.882 C 307.131 411.135 317.448 399.323 327.498 390.027 C 332.313 385.572 337.465 381.644 341.978 376.856 L 341.447 376.503 C 324.227 384.378 305.139 407.999 292.221 422.214 z"/>
<path transform="translate(0,0)" fill="rgb(102,132,128)" d="M 223.866 576.311 C 238.173 539.891 264.831 510.48 296.867 488.394 C 346.499 454.177 401.891 431.11 463.128 442.594 C 468.065 443.615 476.98 444.176 479.879 448.76 C 480.969 450.482 480.617 453.65 480.713 455.684 L 480.493 458.809 C 474.941 462 462.489 460.044 455.984 460.943 C 464.214 462.662 472.379 464.277 480.322 467.098 L 481.414 468.89 L 482.066 468.805 L 482.412 468.162 L 481.985 468.752 C 481.558 468.603 481.137 468.437 480.704 468.305 C 476.783 467.117 467.498 469.705 462.815 469.838 C 420.652 471.031 391.111 472.396 353.956 495.798 C 352.654 496.618 353.092 496.308 352.017 497.597 C 362.696 493.387 372.641 487.532 383.265 483.275 C 403.593 475.129 425.86 474.035 447.448 473.035 C 447.085 473.335 446.719 473.631 446.36 473.934 C 435.322 483.251 429.392 497.565 418.051 506.206 C 407.908 513.934 376.405 520.993 361.05 529.961 C 334.664 545.371 312.732 568.215 287.566 585.635 C 313.371 550.048 350.283 519.929 389.221 499.73 C 404.661 491.721 420.947 485.438 436.198 477.047 C 388.81 486.618 340.931 518.872 308.286 553.716 C 297.97 564.728 289.676 578.159 278.895 588.521 C 270.362 596.722 260.346 602.903 251.148 610.258 C 275.084 583.612 293.921 551.456 314.398 522.112 L 313.953 521.613 C 300.949 533.756 291.245 548.924 280.369 562.911 C 267.717 579.18 253.765 594.222 243.947 612.491 C 235.218 616.068 227.536 617.612 218.148 618.307 C 228.524 601.5 240.736 581.49 256.262 569.041 C 260.473 565.664 265.313 563.327 269.804 560.359 C 268.647 559.774 266.032 560.979 264.828 561.386 C 237.924 570.5 218.908 613.719 212.468 614.337 C 210.529 602.901 220.451 587.172 223.866 576.311 z"/>
<path transform="translate(0,0)" fill="rgb(0,0,0)" d="M 226.482 578.717 C 228.523 573.879 232.371 569.389 235.419 565.13 C 252.632 541.078 272.796 519.032 296.654 501.431 C 330.525 476.443 382.743 449.974 424.595 444.669 C 437.083 443.086 448.63 443.71 461.041 445.59 C 464.869 446.448 469.582 446.989 471.901 450.561 C 472.672 451.748 472.533 451.697 472.702 452.977 C 460.824 451.346 449.219 449.789 437.188 450.578 C 387.19 453.855 330.802 482.192 291.127 512.196 C 273.88 525.238 260.152 540.742 246.161 557.032 C 239.975 564.233 233.83 572.757 226.482 578.717 z"/>
<path transform="translate(0,0)" fill="rgb(143,142,135)" d="M 514.132 1093.56 C 519.594 1101.09 524.155 1109.97 528.863 1118.01 C 555.7 1163.85 571.246 1208.29 570.949 1262.15 C 562.908 1272.34 544.108 1282.74 542.663 1296.32 C 540.647 1315.27 566.437 1340.56 579.924 1351.17 C 586.311 1356.19 594.899 1360.09 599.967 1366.47 L 599.307 1367.68 C 587.855 1367.37 573.459 1358.67 563.61 1353.12 C 514.084 1324.41 482.453 1277.8 438.021 1242.93 C 441.565 1238.71 445.187 1234.5 448.45 1230.05 C 453.378 1223.34 457.634 1215.32 456.085 1206.72 C 455.115 1201.34 453.132 1198.47 448.673 1195.35 C 448.337 1195.11 447.993 1194.88 447.653 1194.65 C 455.391 1180.84 466.23 1167.81 475.291 1154.75 C 489.164 1134.76 501.84 1114.56 514.132 1093.56 z"/>
<path transform="translate(0,0)" fill="rgb(94,79,77)" d="M 611.954 524.807 C 614.959 526.223 617.65 531.996 619.848 534.787 C 632.528 550.891 653.134 561.66 673.708 562.115 C 678.414 562.22 683.773 562.095 688.313 560.914 C 694.843 559.213 702.72 553.464 709.393 555.19 L 709.944 556.917 C 707.647 557.66 708.526 557.441 706.277 557.926 L 704.757 558.241 C 700.435 563.111 696.084 567.818 692.728 573.428 C 692.522 573.772 692.327 574.122 692.126 574.468 C 691.593 582.266 690.388 592.28 695.32 598.928 C 699.503 604.568 705.556 605.434 712.035 606.429 C 711.344 613.466 710.737 620.662 709.391 627.603 C 706.54 642.305 699.844 653.576 687.237 661.868 A 65.3939 65.3939 0 0 1 672.41 669.104 C 665.077 671.604 656.952 672.362 649.387 674.178 C 629.847 678.871 587.307 692.518 568.285 687.936 C 559.713 685.871 552.598 679.984 548.118 672.494 C 535.64 651.63 541.18 629.765 546.524 607.821 C 536.417 617.47 533.124 625.968 531.347 639.521 C 531.09 654.81 536.062 664.59 541.196 678.546 L 540.082 679.994 C 537.377 680.036 535.535 679.084 533.25 677.758 C 519.027 669.506 508.039 641.996 510.28 625.951 C 511.149 619.731 518.885 603.245 517.724 598.881 C 515.228 598.952 516.176 598.59 514.138 599.921 C 507.65 604.159 502.687 616.529 501.433 623.854 C 498.913 638.585 502.834 652.629 511.383 664.595 C 511.139 664.678 510.896 664.765 510.651 664.845 C 500.256 668.228 487.276 671.647 477.082 665.915 C 470.15 662.018 465.376 654.571 463.365 647.029 C 457.127 623.629 475.069 592.745 493.602 579.175 C 508.222 568.47 526.232 566.396 535.657 548.573 C 536.815 546.385 536.821 546.045 536.149 543.803 L 537.416 543.18 L 537.239 542.774 C 565.161 544.446 587.132 536.681 611.954 524.807 z"/>
<path transform="translate(0,0)" fill="rgb(0,0,0)" d="M 651.155 629.04 C 641.061 629.542 630.726 629.678 621.461 624.979 C 610.299 619.317 605.05 608.705 601.179 597.424 C 606.343 603.002 611.51 608.964 618.016 613.003 C 630.085 620.496 653.584 620.147 654.952 621.32 C 657.233 623.276 658.025 625.917 657.777 628.843 C 657.137 636.389 652.767 643.398 646.883 647.919 C 627.866 656.078 614.113 656.435 594.354 649.741 C 599.848 657.288 606.254 664.504 616.142 665.747 C 624.218 666.762 633.566 662.434 639.686 657.409 C 642.26 655.296 644.078 652.734 647.386 652.045 C 647.604 653.18 648.036 654.836 647.914 656.032 C 647.523 659.869 645.183 662.443 642.344 664.816 C 635.134 670.842 626.839 673.978 617.363 672.976 A 35.6067 35.6067 0 0 1 593.567 659.755 C 589.649 654.821 586.256 647.434 587.128 641.033 C 588.485 639.492 587.916 639.367 589.547 639.501 C 592.818 639.771 596.215 641.487 599.323 642.595 C 610.058 646.423 619.815 647.205 630.997 644.776 C 639.522 642.924 645.909 637.46 650.44 630.211 L 651.155 629.04 z"/>
<path transform="translate(0,0)" fill="rgb(94,79,77)" d="M 600.402 1481.23 C 623.446 1483.81 646.114 1481.83 669.125 1480.18 C 645.252 1546.89 624.934 1615.58 606.496 1683.98 C 596.929 1719.46 588.739 1757.27 578.041 1792.12 A 3241.76 3241.76 0 0 0 562.244 1854.23 C 559.833 1864.12 556.775 1874.39 555.256 1884.43 C 547.28 1915.52 537.163 1957.1 533.987 1988.89 C 528.029 1987.19 521.429 1986.7 515.279 1985.74 C 501.477 1983.59 488.174 1981.39 474.866 1976.97 C 483.912 1952.65 487.068 1913.79 491.134 1887.36 C 496.433 1852.91 502.91 1818.03 510.773 1784.07 A 2693.85 2693.85 0 0 1 561.64 1600.33 C 574.27 1560.51 588.241 1521.23 600.402 1481.23 z"/>
<path transform="translate(0,0)" fill="rgb(102,132,128)" d="M 284.225 1476.36 C 288.862 1498.9 300.782 1517.08 320.031 1529.83 C 364.695 1559.41 427.684 1559.22 478.361 1548.59 C 513.872 1541.15 551.449 1528.61 582.328 1509.37 A 1585.44 1585.44 0 0 0 508.451 1739.54 C 503.809 1758.53 498.482 1777.68 494.748 1796.86 C 493.662 1795.3 494.033 1795.46 492.769 1794.63 C 468.408 1778.68 444.874 1762.02 422.311 1743.56 C 360.672 1693.12 283.731 1613.47 242.777 1544.95 L 243.539 1543.51 C 252.902 1540.46 269.523 1506.85 274.58 1496.94 C 278.014 1490.22 281.413 1483.37 284.225 1476.36 z"/>
<path transform="translate(0,0)" fill="rgb(0,0,0)" d="M 519.464 1594.62 C 520.028 1596.2 520.017 1595.8 520.076 1597.57 C 520.536 1611.18 505.738 1637.4 496.762 1647.5 C 474.47 1672.6 437.954 1690.08 404.545 1692.23 C 404.512 1691.46 404.436 1690.95 404.988 1690.13 C 405.549 1689.3 416.38 1686.29 417.8 1685.82 C 428.915 1682.15 439.831 1677.93 450.02 1672.12 C 485.515 1651.89 500.497 1629.46 519.464 1594.62 z"/>
<path transform="translate(0,0)" fill="rgb(122,106,106)" d="M 458.302 782.617 A 1001.87 1001.87 0 0 1 474.156 788.528 C 509.226 802.145 536.875 847.011 551.427 879.934 C 570.584 923.277 592.854 976.283 574.391 1023.18 C 564.168 1049.14 548.017 1069.02 522.188 1080.16 C 532.835 1060.71 557.642 1027.57 562.313 1008.03 C 562.947 1005.38 563.399 1002.83 561.975 1000.43 C 556.893 1003.01 547.524 1019.92 543.86 1025.51 A 3038.16 3038.16 0 0 0 486.059 1115.43 C 471.772 1138.68 442.425 1192.28 423.586 1210.21 C 415.885 1217.54 405.069 1222.28 395.762 1227.23 C 364.999 1243.61 330.372 1262.62 316.135 1296.04 L 324.983 1303.64 C 328.289 1304.37 331.565 1304.81 334.955 1304.93 C 369.029 1306.16 408.635 1270.88 431.968 1248.51 C 450.47 1264.35 466 1282.98 482.585 1300.69 C 489.164 1307.71 498.525 1315.2 503.328 1323.46 C 509.324 1333.76 512.305 1346.98 514.815 1358.51 C 516.624 1368.72 518.048 1379.12 518.026 1389.51 C 517.971 1416.23 506.649 1434 488.287 1452.44 C 460.474 1447.2 434.176 1438.64 408.149 1427.65 C 359.417 1407.08 316.219 1378.23 276.698 1343.24 C 261.752 1330.01 245.066 1315.59 237.76 1296.44 C 230.142 1276.47 246.713 1239.3 253.594 1219.68 A 1649.35 1649.35 0 0 1 320.123 1058.32 C 347.621 1001.25 378.517 946.035 406.828 889.424 C 417.977 867.129 427.205 843.882 437.625 821.238 C 480.414 818.991 489.864 835.386 523.709 853.818 L 524.89 854.448 C 514.91 840.336 498.3 824.985 482.261 818.027 C 466.426 811.159 452.956 812.013 437.13 818.305 C 443.008 805.003 448.164 793.214 458.302 782.617 z"/>
<path transform="translate(0,0)" fill="rgb(73,104,90)" d="M 463.439 777.316 L 464.326 776.607 C 475.682 767.714 487.571 759.363 499.192 750.813 C 526.33 730.847 574.392 693.269 609.34 697.429 L 602.04 698.832 L 602.052 699.421 C 603.652 699.707 605.229 699.971 606.842 700.179 C 604.071 701.018 601.95 701.007 600.238 703.442 C 606.901 712.183 615.24 719.686 622.269 728.163 C 635.411 744.01 647.551 761.213 658.625 778.569 C 691.547 830.173 716.826 886.082 738.111 943.371 C 763.022 1010.42 784.342 1080.22 793.727 1151.38 C 799.425 1194.59 800.531 1237.81 800.188 1281.32 C 799.934 1313.53 799.28 1346.95 795.536 1378.95 L 794.365 1380.57 L 791.163 1380.65 C 787.403 1379.68 783.578 1380.62 780.753 1377.29 C 781.437 1373.51 781.987 1370.81 780.295 1367.22 C 776.139 1358.38 761.928 1353.46 753.141 1350.65 C 738.753 1346.05 711.558 1337.96 696.905 1338.38 C 674.936 1339 642.694 1354.9 622.862 1364.98 C 617.16 1360.3 610.386 1356.88 604.117 1353.01 C 591.008 1344.92 578.012 1334.73 568.329 1322.65 C 544.398 1292.82 566.594 1295.32 578.53 1273.54 C 581.948 1267.31 583.104 1257.18 583.866 1250.14 C 590.024 1193.22 556.067 1131.35 521.5 1088.59 C 533.995 1087.12 544.027 1082.88 553.868 1075.15 C 577.32 1056.74 591.54 1027.81 595.024 998.467 C 601.181 946.603 567.535 867.761 535.431 827.139 C 518.319 805.487 491.927 780.611 463.439 777.316 z"/>
<path transform="translate(0,0)" fill="rgb(0,0,0)" d="M 631.345 781.022 C 634.323 781.566 635.099 781.904 637.397 783.881 C 649.471 794.265 658.299 811.436 666.179 825.113 C 708.215 898.073 761.399 1032.95 769.661 1115.61 C 765.963 1108.22 764.629 1097.16 762.669 1088.99 C 757.824 1068.79 753.474 1048.32 747.337 1028.47 C 733.269 982.962 713.963 938.783 695.64 894.855 C 684.5 868.148 670.815 840.525 655.774 815.837 C 651.145 808.24 633.238 786.06 631.345 781.022 z"/>
<path transform="translate(0,0)" fill="rgb(0,0,0)" d="M 735.904 1240 C 739.995 1239.76 744.811 1240.86 748.639 1242.27 C 757.59 1245.57 765.512 1252.71 769.233 1261.55 C 772.719 1269.82 772.603 1280.29 768.844 1288.46 C 764.823 1297.2 758.401 1301.23 749.637 1304.21 C 743.54 1305.32 737.882 1305.39 732.086 1303.01 C 723.98 1299.67 718.039 1292.89 714.987 1284.75 C 711.481 1275.4 711.64 1263.96 716.27 1255.01 C 720.707 1246.44 727.149 1242.93 735.904 1240 z"/>
<path transform="translate(0,0)" fill="rgb(239,194,91)" d="M 732.062 1247.02 C 735.007 1246.97 738.109 1246.82 740.994 1247.48 C 747.437 1248.97 753.375 1253.21 756.697 1258.93 C 759.999 1264.63 760.716 1271.54 759.025 1277.86 C 756.906 1285.78 752.113 1290.68 745.093 1294.49 C 740.98 1294.82 736.656 1294.64 732.698 1293.41 A 22.3298 22.3298 0 0 1 719.434 1282 C 716.389 1275.85 716.086 1268.11 718.321 1261.65 C 720.858 1254.32 725.254 1250.33 732.062 1247.02 z"/>
<path transform="translate(0,0)" fill="rgb(0,0,0)" d="M 673.039 915.157 C 678.612 914.788 683.897 915.988 688.59 919.049 C 697.537 924.885 702.908 935.264 704.872 945.542 C 706.659 954.897 705.74 965.303 699.925 973.153 C 694.999 979.803 688.696 982.298 680.744 983.459 C 674.813 982.819 669.221 981.995 663.874 979.169 A 32.9995 32.9995 0 0 1 647.609 959.507 C 644.666 949.902 645.889 938.306 651.044 929.646 C 656.231 920.931 663.472 917.329 673.039 915.157 z"/>
<path transform="translate(0,0)" fill="rgb(239,194,91)" d="M 670.527 920.994 C 674.127 921.052 677.157 921.444 680.437 923.029 C 687.589 926.486 692.816 932.658 695.324 940.171 C 697.672 947.205 697.321 954.985 693.666 961.515 C 689.906 968.232 684.673 971.124 677.482 973.12 C 666.715 972.089 660.681 968.719 653.635 960.864 C 651.4 952.497 650.288 943.397 653.809 935.202 C 657.168 927.383 662.901 923.945 670.527 920.994 z"/>
<path transform="translate(0,0)" fill="rgb(0,0,0)" d="M 736.753 1129.2 A 24.1082 24.1082 0 0 1 748.958 1132.18 C 759.269 1137.76 766.484 1148.73 769.516 1159.86 C 772.026 1169.08 771.255 1178.45 766.096 1186.62 C 760.425 1195.59 752.424 1199 742.489 1201.06 C 736.463 1201.04 730.256 1199.79 725.002 1196.71 C 716.503 1191.74 711.552 1183.1 709.427 1173.67 C 707.077 1163.24 708.268 1152.45 714.151 1143.38 C 719.673 1134.87 727.099 1131.22 736.753 1129.2 z"/>
<path transform="translate(0,0)" fill="rgb(239,194,91)" d="M 733.528 1136.11 C 736.456 1136.37 739.661 1136.93 742.305 1138.25 C 749.446 1141.79 754.742 1148.46 757.124 1156.01 C 759.415 1163.26 759.507 1171.46 755.54 1178.16 C 751.62 1184.78 746.327 1186.35 739.381 1188.29 C 733.98 1188.28 728.985 1188.28 724.209 1185.42 C 718.822 1182.19 715.315 1176.84 713.831 1170.81 C 711.934 1163.1 713.306 1154.38 717.453 1147.62 C 721.436 1141.12 726.297 1138.02 733.528 1136.11 z"/>
<path transform="translate(0,0)" fill="rgb(0,0,0)" d="M 626.652 809.243 C 630.961 809.959 634.601 811.036 638.384 813.301 C 648.534 819.377 654.939 829.322 657.508 840.758 C 659.79 850.919 658.591 861.397 652.637 870.128 C 646.943 878.475 640.198 881.365 630.765 883.362 C 624.204 882.771 618.614 881.422 613.044 877.735 C 604.837 872.301 599.34 863.407 597.475 853.807 C 595.473 843.503 597.316 832.674 603.271 823.961 C 609.029 815.534 616.845 811.234 626.652 809.243 z"/>
<path transform="translate(0,0)" fill="rgb(239,194,91)" d="M 620.211 819.126 C 623.994 818.959 627.78 819.389 631.363 820.68 C 638.039 823.083 643.199 828.298 646.132 834.69 C 649.269 841.531 650.235 849.96 647.311 857.035 C 644.242 864.461 638.857 867.373 631.862 870.471 C 628.307 870.849 624.681 871.363 621.168 870.444 C 614.8 868.779 609.618 864.125 606.621 858.351 C 602.815 851.017 601.985 841.906 604.882 834.12 C 607.836 826.178 612.647 822.389 620.211 819.126 z"/>
<path transform="translate(0,0)" fill="rgb(0,0,0)" d="M 708.581 1026.24 C 713.146 1026.03 717.139 1026.34 721.402 1028.13 C 730.533 1031.96 736.748 1040.08 740.239 1049.12 C 744.061 1059.01 745.194 1070.21 740.615 1080.05 C 735.623 1090.77 727.226 1094.45 716.814 1098.26 C 710.832 1098.16 705.351 1097.33 699.881 1094.77 A 33.9623 33.9623 0 0 1 681.731 1074.08 C 678.588 1064.13 679.516 1052.64 684.539 1043.46 C 689.915 1033.62 698.165 1029.08 708.581 1026.24 z"/>
<path transform="translate(0,0)" fill="rgb(239,194,91)" d="M 704.27 1034.05 C 707.634 1033.89 710.744 1033.99 713.96 1035.11 C 721.301 1037.66 726.827 1043.46 729.926 1050.48 C 732.912 1057.25 733.756 1065.1 730.717 1072 C 727.546 1079.19 721.99 1082.39 715.023 1085.32 C 710.753 1085.66 706.792 1085.66 702.704 1084.2 C 696.759 1082.06 691.943 1077.43 689.249 1071.76 A 28.8084 28.8084 0 0 1 688.293 1049.6 C 691.336 1041.47 696.607 1037.49 704.27 1034.05 z"/>
<path transform="translate(0,0)" fill="rgb(143,142,135)" d="M 267.683 430.714 C 283.146 429.456 298.747 432.214 314.093 433.891 C 335.738 436.256 357.541 438.411 379.339 438.153 C 313.98 459.431 252.289 497.622 220.125 560.812 C 211.635 577.492 206.129 594.745 204.405 613.389 C 206.477 618.549 208.432 624.617 213.991 626.978 C 221.824 630.305 233.302 625.347 240.489 621.785 C 249.174 617.48 256.931 611.463 265.231 606.486 C 282.298 596.253 298.69 586.787 314.853 575.047 C 338.139 558.134 361.268 537.355 388.718 527.399 C 399.693 549.43 419.93 570.975 443.725 579.091 A 62.4034 62.4034 0 0 0 472.491 582.106 C 473.577 581.964 474.659 581.836 475.743 581.682 C 461.737 599.271 450.619 619.797 453.393 642.981 C 454.778 654.564 459.463 665.828 468.911 673.088 C 476.895 679.223 486.88 680.842 496.687 679.411 C 503.565 678.408 509.132 676.248 514.987 672.593 C 521.347 679.446 527.257 685.144 535.65 689.481 C 540.702 688.971 545.715 688.456 550.723 687.591 C 555.449 691.209 560.099 695.018 565.315 697.914 C 539.611 712.22 454.76 766.005 439.8 785.005 C 435.459 790.52 433.259 798.484 431.372 805.141 C 422.512 836.402 406.512 864.763 391.577 893.457 C 370.338 934.263 347.932 974.452 327.019 1015.43 C 299.941 1068.49 223.777 1233.35 223.093 1287.34 C 222.998 1294.86 225.227 1301.47 228.853 1307.98 C 254.42 1353.9 337.072 1408.3 384.892 1431.19 C 406.889 1441.71 430.745 1450.42 454.27 1456.94 C 476.311 1463.05 498.09 1465.22 520.473 1468.93 C 535.562 1471.44 575.506 1480.85 589.447 1478.11 C 591.21 1476.84 592.527 1475.16 594.728 1475.5 C 595.09 1483.39 587.381 1498.25 583.402 1505.28 C 562.236 1511.53 541.99 1520.77 520.982 1527.58 C 462.31 1546.62 388.005 1557.15 331.748 1526.13 C 310.064 1514.18 293.043 1494.09 286.337 1470.05 C 286.161 1469.42 285.997 1468.78 285.827 1468.14 C 275.707 1483.4 267.679 1500.04 258.705 1515.99 C 253.708 1524.88 246.788 1533.84 243.539 1543.51 L 242.777 1544.95 C 215.064 1509.58 189.613 1461.61 170.698 1420.95 C 107.406 1284.92 82.3857 1166.06 80.2304 1016.4 C 77.7942 847.239 125.215 667.381 207.639 519.683 C 224.59 489.306 243.369 455.743 267.683 430.714 z"/>
<path transform="translate(0,0)" fill="rgb(144,174,166)" d="M 287.653 909.967 C 287.654 910.14 287.682 910.314 287.656 910.485 C 286.733 916.558 194.932 1035.68 186.822 1045.51 C 180.159 1053.59 172.703 1062.13 164.332 1068.49 C 160.7 1071.25 158.604 1072.55 153.993 1071.97 C 152.164 1069.95 151.131 1068.56 150.083 1065.99 C 151.592 1046.99 268.084 934.168 287.653 909.967 z"/>
<path transform="translate(0,0)" fill="rgb(144,174,166)" d="M 348.697 652.993 C 347.044 664.199 254.312 793.557 242.679 806.562 C 231.089 819.518 210.033 840.226 191.647 841.247 C 191.558 840.602 191.39 839.963 191.379 839.312 C 191.29 834.128 195.501 828.818 198.467 824.889 C 218.151 798.822 241.41 775.119 263.567 751.156 C 292.986 719.339 322.05 687.183 348.697 652.993 z"/>
<path transform="translate(0,0)" fill="rgb(94,79,77)" d="M 890.942 1369.53 C 891.149 1369.79 891.353 1370.05 891.563 1370.3 C 897.165 1377.08 905.461 1380.93 914.177 1381.62 C 929.837 1382.87 948.114 1374.49 959.674 1364.27 C 965.556 1359.07 970.88 1352.34 973.465 1344.84 C 975.809 1338.05 973.917 1321.06 982.148 1319.04 C 986.344 1323.42 985.908 1336.94 989.655 1343.4 C 1009.53 1377.67 1024.88 1413.56 1040.35 1449.95 C 1067.25 1513.23 1089.69 1577.73 1110.61 1643.19 A 2823.96 2823.96 0 0 1 1186.81 1927.35 C 1191.22 1947.93 1196.62 1968.47 1200.47 1989.14 C 1185.23 1988.68 1168.9 1992.5 1153.63 1993.83 C 1137.97 1995.2 1122.13 1994.97 1106.51 1996.45 L 1103.47 1996.27 C 1074.77 1996.07 1046.26 1997.28 1017.53 1995.99 L 1014.37 1996.13 C 998.642 1994.95 982.854 1993.93 967.164 1992.3 C 955.67 1991.11 942.334 1988.1 930.956 1989 C 930.467 1988.89 929.974 1988.8 929.487 1988.69 C 925.51 1987.73 924.71 1986.64 922.571 1983.34 C 892.56 1976.87 862.645 1969.61 834.198 1957.83 C 829.561 1967.81 821.7 1989.73 813.715 1996.33 C 812.116 1996.36 810.624 1996.36 809.027 1996.22 C 804.458 1994.54 766.716 1999.03 758.453 1999.21 C 717.404 2000.11 676.87 1998.26 635.902 1997.04 L 633.246 1997.08 C 601.192 1995.17 567.606 1994.77 536.065 1988.69 L 533.987 1988.89 C 537.163 1957.1 547.28 1915.52 555.256 1884.43 C 556.775 1874.39 559.833 1864.12 562.244 1854.23 A 3241.76 3241.76 0 0 1 578.041 1792.12 C 588.739 1757.27 596.929 1719.46 606.496 1683.98 C 624.934 1615.58 645.252 1546.89 669.125 1480.18 C 672.554 1479.28 677.561 1479.72 681.192 1479.62 C 697.575 1479.18 719.45 1481.91 734.864 1476.02 C 738.952 1474.46 743.732 1471.3 745.227 1466.93 C 745.728 1465.46 746.154 1464.26 745.453 1462.82 C 740.362 1452.36 697.147 1442.78 685.032 1439 A 213.593 213.593 0 0 1 717.795 1439.61 C 731.695 1440.94 763.556 1449.57 775.398 1442.24 C 778.117 1440.56 778.986 1438.92 779.658 1435.88 C 775.472 1421.29 740.189 1408.43 726.079 1404.46 C 721.658 1403.22 715.442 1403.67 711.759 1401.1 C 715.223 1400.18 717.98 1401.59 721.345 1402.23 C 727.864 1403.47 734.458 1404.33 740.966 1405.64 C 751.132 1407.69 772.384 1415.38 781.742 1408.41 C 783.449 1407.14 784.304 1405.45 784.031 1403.33 C 783.212 1396.99 776.456 1393.98 772.264 1390.19 L 771.133 1389.15 L 775.857 1385.11 L 776.074 1381.82 C 777.407 1379.94 778.979 1378.74 780.753 1377.29 C 783.578 1380.62 787.403 1379.68 791.163 1380.65 L 789.006 1381.96 L 796.309 1386.74 C 826.822 1387.83 862.625 1380.95 890.942 1369.53 z"/>
<path transform="translate(0,0)" fill="rgb(94,79,77)" d="M 780.753 1377.29 C 783.578 1380.62 787.403 1379.68 791.163 1380.65 L 789.006 1381.96 C 784.041 1382.18 780.432 1383.34 775.857 1385.11 L 776.074 1381.82 C 777.407 1379.94 778.979 1378.74 780.753 1377.29 z"/>
<path transform="translate(0,0)" fill="rgb(239,194,91)" d="M 778.907 1908.37 L 783.661 1907.88 C 777.897 1925.18 757.606 1988.28 747.836 1997.73 L 746.845 1997.18 C 747.276 1990.82 774.581 1921.33 778.907 1908.37 z"/>
<path transform="translate(0,0)" fill="rgb(242,215,133)" d="M 682.372 1840.16 L 686.821 1840.08 A 7767.61 7767.61 0 0 1 655.967 1939.81 C 649.833 1958.88 644.117 1978.77 635.902 1997.04 L 633.246 1997.08 C 637.988 1976.59 645.937 1956.15 652.411 1936.08 L 682.372 1840.16 z"/>
<path transform="translate(0,0)" fill="rgb(239,194,91)" d="M 937.108 1544.6 C 936.454 1515.86 930.402 1485.82 924.853 1457.68 C 922.29 1444.69 910.915 1404.01 912.32 1393.83 L 913.424 1394.63 C 927.012 1442.5 937.405 1492.08 941.014 1541.75 L 941.108 1549.51 C 942.708 1561.54 943.128 1574.18 943.068 1586.32 L 941.476 1587.34 C 941.082 1587 940.645 1586.71 940.294 1586.32 C 938.034 1583.84 938.539 1569.77 938.382 1565.95 L 937.108 1544.6 z"/>
<path transform="translate(0,0)" fill="rgb(0,0,0)" d="M 943.068 1586.32 C 948.551 1583.63 959.993 1576.41 965.891 1577.85 C 967.03 1579.81 966.572 1579.73 966.037 1581.8 C 956.791 1591.41 942.606 1599.06 931.376 1606.24 C 911.345 1619.05 890.487 1631.68 871.51 1646.01 C 884.299 1625.7 903.171 1611.96 923.138 1599.17 C 929.032 1595.4 936.269 1591.91 941.476 1587.34 L 943.068 1586.32 z"/>
<path transform="translate(0,0)" fill="rgb(239,194,91)" d="M 922.94 1700.01 C 929.548 1710.48 933.75 1725.39 938.522 1737.02 C 957.495 1783.25 974.179 1829.3 989.04 1877.01 C 1000.39 1916.05 1010.87 1955.84 1017.53 1995.99 L 1014.37 1996.13 C 1009.68 1980.01 1007.04 1962.84 1003.33 1946.44 A 807.314 807.314 0 0 0 984.463 1877.65 C 977.285 1851.86 968.309 1826.18 959.099 1801.04 C 952.252 1782.35 922.678 1715.19 922.94 1700.01 z"/>
<path transform="translate(0,0)" fill="rgb(239,194,91)" d="M 773.461 1453.16 C 775.221 1473.7 764.895 1509.97 760.595 1531.6 C 747.803 1595.94 735.251 1660.4 718.858 1723.95 C 714.601 1740.45 710.964 1757.6 705.612 1773.76 C 700.025 1796.01 693.423 1818.11 686.821 1840.08 L 682.372 1840.16 C 689.525 1816.19 696.885 1792.2 702.719 1767.86 C 707.363 1753.68 710.625 1738.69 714.492 1724.25 C 737.353 1634.6 752.957 1543.36 773.461 1453.16 z"/>
<path transform="translate(0,0)" fill="rgb(242,215,133)" d="M 778.907 1908.37 C 786.874 1887.13 792.986 1865.13 799.374 1843.37 C 825.436 1754.59 844.715 1661.97 848.141 1569.33 A 873.541 873.541 0 0 0 844.792 1452.04 A 632.924 632.924 0 0 0 841.067 1420.98 C 840.158 1414.97 838.564 1408.87 838.414 1402.79 C 838.373 1401.16 838.18 1400.91 839.056 1399.55 C 842.347 1403.23 842.961 1413.18 843.893 1418.25 C 854.489 1475.93 854.789 1536.62 851.498 1595.01 C 847.612 1663.95 830.46 1748.7 811.963 1815.56 C 803.369 1846.63 793.344 1877.16 783.661 1907.88 L 778.907 1908.37 z"/>
<path transform="translate(0,0)" fill="rgb(239,194,91)" d="M 669.125 1480.18 L 671.392 1481.33 C 671.789 1487.88 643.679 1571.87 640.073 1583.31 C 623.899 1634.63 609.66 1686.88 596.181 1738.98 C 592.448 1753.41 584.722 1776.86 582.849 1790.87 A 2646.16 2646.16 0 0 0 558.665 1886.71 A 1300.85 1300.85 0 0 0 545.909 1945.23 C 543.53 1957.74 541.853 1970.67 538.898 1983.05 C 538.385 1985.2 537.626 1987.08 536.065 1988.69 L 533.987 1988.89 C 537.163 1957.1 547.28 1915.52 555.256 1884.43 C 556.775 1874.39 559.833 1864.12 562.244 1854.23 A 3241.76 3241.76 0 0 1 578.041 1792.12 C 588.739 1757.27 596.929 1719.46 606.496 1683.98 C 624.934 1615.58 645.252 1546.89 669.125 1480.18 z"/>
<path transform="translate(0,0)" fill="rgb(239,194,91)" d="M 1103.47 1996.27 C 1096.26 1960.37 1093.25 1923.62 1086.05 1887.59 A 4583.83 4583.83 0 0 0 1010.41 1572.84 C 1004.55 1551.02 958.804 1392.12 959.339 1383.83 C 970.749 1393.53 1064.59 1764.36 1073.79 1807.08 C 1087.22 1869.5 1100.87 1932.75 1106.51 1996.45 L 1103.47 1996.27 z"/>
<path transform="translate(0,0)" fill="rgb(0,0,0)" d="M 809.027 1996.22 C 811.897 1982.99 819.463 1968.75 824.517 1956.02 C 834.828 1930.04 845.201 1903.56 854.458 1877.19 C 867.383 1840.37 880.635 1803.55 892.102 1766.25 C 901.606 1735.33 908.901 1702.1 922.344 1672.63 C 934.179 1646.69 948.07 1622.78 975.904 1612.33 C 970.344 1620.91 962.183 1628.01 955.705 1635.97 C 940.369 1654.82 930.779 1677.22 922.94 1700.01 C 915.877 1720.27 911.159 1741.23 905.424 1761.88 C 898.754 1785.9 890.947 1810.31 882.489 1833.76 C 902.564 1871.04 914.543 1914.36 926.191 1954.88 C 928.896 1964.29 934.357 1977.25 933.588 1986.94 C 932.675 1987.85 932.109 1988.37 930.956 1989 C 930.467 1988.89 929.974 1988.8 929.487 1988.69 C 925.51 1987.73 924.71 1986.64 922.571 1983.34 C 892.56 1976.87 862.645 1969.61 834.198 1957.83 C 829.561 1967.81 821.7 1989.73 813.715 1996.33 C 812.116 1996.36 810.624 1996.36 809.027 1996.22 z"/>
<path transform="translate(0,0)" fill="rgb(102,132,128)" d="M 834.198 1957.83 C 845.691 1933.81 855.156 1908.23 864.151 1883.18 C 868.209 1871.88 872.755 1860.55 875.929 1848.98 C 883.041 1869.91 891.231 1890.47 898.351 1911.42 C 906.478 1935.33 913.514 1959.77 922.571 1983.34 C 892.56 1976.87 862.645 1969.61 834.198 1957.83 z"/>
<path transform="translate(0,0)" fill="rgb(94,79,77)" d="M 882.489 1833.76 C 890.947 1810.31 898.754 1785.9 905.424 1761.88 C 911.159 1741.23 915.877 1720.27 922.94 1700.01 C 922.678 1715.19 952.252 1782.35 959.099 1801.04 C 968.309 1826.18 977.285 1851.86 984.463 1877.65 A 807.314 807.314 0 0 1 1003.33 1946.44 C 1007.04 1962.84 1009.68 1980.01 1014.37 1996.13 C 998.642 1994.95 982.854 1993.93 967.164 1992.3 C 955.67 1991.11 942.334 1988.1 930.956 1989 C 932.109 1988.37 932.675 1987.85 933.588 1986.94 C 934.357 1977.25 928.896 1964.29 926.191 1954.88 C 914.543 1914.36 902.564 1871.04 882.489 1833.76 z"/>
</svg>