<svg version="1.1" xmlns="http://www.w3.org/2000/svg" style="display: block;" viewBox="0 0 2048 2048" width="1024" height="1024">
<defs>
	<linearGradient id="Gradient1" gradientUnits="userSpaceOnUse" x1="2257.86" y1="818.452" x2="909.983" y2="1379.79">
		<stop class="stop0" offset="0" stop-opacity="1" stop-color="rgb(68,17,5)"/>
		<stop class="stop1" offset="1" stop-opacity="1" stop-color="rgb(53,20,28)"/>
	</linearGradient>
</defs>
<path transform="translate(0,0)" fill="rgb(245,244,232)" d="M 0 0 L 1611.78 0 L 1617.28 0 L 1640.08 0 L 1646.1 0 L 1757.99 0 L 1763.3 0 L 1885.21 0 L 1890.97 0 L 1913.98 0 L 1919.86 0 L 2048 0 L 2048 1861.98 L 2048 1869.68 L 2048 1967.84 L 2048 1975.93 L 2048 2048 L 1920.12 2048 L 1914.01 2048 L 1891.06 2048 L 1885.33 2048 L 1860.25 2048 L 1843.11 2048 L 1740.94 2048 L 1724.56 2048 L 1646.24 2048 L 1640.39 2048 L 1618.42 2048 L 1611.82 2048 L 1310.44 2048 L 1299.07 2048 L 1291.17 2048 L 1286.62 2048 L 1266.53 2048 L 1258.9 2048 L 1207.65 2048 L 1185.91 2048 L 1140.99 2048 L 1124.64 2048 L 1054.8 2048 L 1048.51 2048 L 963.698 2048 L 957.423 2048 L 870.921 2048 L 863.747 2048 L 804.772 2048 L 773.395 2048 L 550.265 2048 L 517.933 2048 L 350.154 2048 L 327.867 2048 L 167.929 2048 L 160.969 2048 L 108.193 2048 L 102.049 2048 L 0 2048 L 0 1265.31 L 0 1257.58 L 0 1210.51 L 0 1204.19 L 0 1036.19 L 0 1029.21 L 0 927.887 L 0 920.1 L 0 0 z"/>
<path transform="translate(0,0)" fill="rgb(49,16,16)" d="M 1282.54 557.824 C 1283.26 565.602 1282.24 570.732 1279.54 578.006 C 1287.14 585.901 1292.94 592.439 1292.6 604.075 C 1292.4 611.312 1290.94 618.336 1290.85 625.654 C 1291.04 626.026 1291.22 626.399 1291.41 626.769 C 1302.42 648.124 1332.06 663.799 1323.51 692.333 C 1319.93 704.268 1309.97 711.234 1299.33 716.481 C 1297.21 717.531 1298.11 717.186 1296.08 717.752 L 1294.36 716.96 C 1301.64 712.724 1309.16 708.991 1315.41 703.229 C 1321.58 697.548 1321.94 693.566 1322.35 685.432 C 1323.33 666.489 1312.42 656.142 1300.82 643.234 C 1288.36 629.377 1288.56 626.312 1290.38 607.937 C 1290.68 604.853 1291.62 600.677 1291.31 597.629 C 1290.88 593.559 1283.56 585.049 1280.71 581.999 L 1280.02 582.925 C 1282.72 586.486 1283.89 589.332 1283.99 593.851 C 1284 594.139 1284 594.427 1284 594.714 L 1282.63 595.474 L 1281.12 595.033 C 1268.43 596.408 1256.19 599.963 1243.31 600.064 C 1236.95 599.94 1229.52 600.941 1223.41 599.212 L 1222.45 597.467 L 1221.41 595.735 C 1222.18 592.735 1223.4 592.396 1225.8 590.548 C 1233.98 588.384 1274.03 573.205 1278.25 568.247 C 1280.42 565.7 1279.8 563.326 1279.58 560.293 L 1282.54 557.824 z"/>
<path transform="translate(0,0)" fill="rgb(110,86,85)" d="M 1222.45 597.467 C 1235.09 593.585 1265.09 577.433 1276.59 582.874 C 1279.73 584.359 1281.76 587.934 1282.52 591.223 C 1282.91 592.943 1281.98 593.607 1281.12 595.033 C 1268.43 596.408 1256.19 599.963 1243.31 600.064 C 1236.95 599.94 1229.52 600.941 1223.41 599.212 L 1222.45 597.467 z"/>
<path transform="translate(0,0)" fill="rgb(49,16,16)" d="M 1182.46 419.097 L 1183.34 418.44 C 1182.78 416.638 1183.07 417.261 1182.24 415.705 C 1182.05 415.36 1181.85 415.02 1181.66 414.677 L 1184.05 413.296 C 1184.87 414.527 1185.79 415.52 1186.79 416.612 L 1187.87 415.929 C 1209.05 428.097 1230.42 436.578 1253.72 443.708 C 1264.89 447.126 1277.56 449.71 1288.02 454.693 C 1292.7 456.917 1297.92 460.205 1299.52 465.451 C 1301.32 471.326 1298.22 478.28 1295.3 483.27 C 1286.17 498.918 1262.64 512.394 1267.75 532.532 C 1269.67 540.051 1274.16 546.745 1278.66 552.953 L 1274.49 553.128 C 1272.44 551.017 1270.32 548.852 1268.65 546.413 C 1242.87 508.666 1288.57 498.422 1291.79 474.774 C 1292.29 471.131 1291.31 466.045 1288.44 463.535 C 1281.69 457.65 1266.69 455.369 1258 452.831 C 1240.49 447.712 1194 433.889 1183.12 419.962 C 1182.89 419.677 1182.68 419.386 1182.46 419.097 z"/>
<path transform="translate(0,0)" fill="url(#Gradient1)" d="M 1611.78 0 L 1617.28 0 L 1640.08 0 L 1646.1 0 L 1757.99 0 L 1763.3 0 L 1885.21 0 L 1890.97 0 L 1913.98 0 L 1919.86 0 L 2048 0 L 2048 1861.98 L 2048 1869.68 L 2048 1967.84 L 2048 1975.93 L 2048 2048 L 1920.12 2048 L 1914.01 2048 L 1891.06 2048 L 1885.33 2048 L 1860.25 2048 L 1843.11 2048 L 1740.94 2048 L 1724.56 2048 L 1646.24 2048 L 1640.39 2048 L 1618.42 2048 L 1611.82 2048 L 1310.44 2048 L 1299.07 2048 C 1299.72 1998.33 1288.08 1941.98 1277.01 1893.5 C 1239.88 1730.86 1187.1 1630.12 1078.93 1503.37 C 1058.36 1479.27 1035.83 1457.06 1013.09 1435.03 C 997.276 1419.73 981.533 1404.21 964.884 1389.81 C 940.148 1368.41 913.772 1348.58 890.048 1326.03 C 886.827 1322.97 881.857 1318.54 881.369 1313.93 C 881.327 1313.53 881.288 1313.13 881.38 1312.74 C 882.573 1307.79 886.945 1302.63 890.328 1298.92 C 901.777 1286.36 915.291 1275.04 927.938 1263.64 C 947.798 1245.76 967.804 1227.66 986.707 1208.76 C 1003.53 1191.95 1019.42 1174.56 1033.92 1155.69 C 1036.85 1154.99 1040.31 1151.27 1041.73 1148.41 C 1042.3 1147.24 1042.27 1147.07 1042.45 1145.96 C 1045.16 1143.91 1045.17 1141.79 1046.13 1138.58 L 1045.9 1138.92 L 1046.61 1139.9 C 1044.05 1150.63 1040.46 1151.41 1038.04 1158.02 L 1039.51 1158.3 C 1043.76 1152.46 1049.79 1144.41 1048.77 1136.82 C 1041.2 1128.82 1036 1117.26 1029.84 1108.04 C 1015.24 1086.18 1000.36 1063.9 984.632 1042.84 C 960.168 1010.08 934.743 977.254 905.791 948.315 C 894.03 936.559 882.074 924.674 869.714 913.553 C 862.275 906.86 854.025 900.849 846.88 893.868 L 845.621 892.624 C 831.373 882.377 817.088 873.016 806.188 859.044 C 808.344 857.887 809.799 858.001 812.206 858.09 C 814.408 859.539 814.514 859.556 815.381 862.03 L 818.481 861.813 L 819.388 862.67 C 822.32 865.389 824.97 867.231 828.558 868.971 L 829.223 865.193 C 831.917 866.557 834.285 867.757 837.283 868.352 C 842.329 864.074 846.969 858.728 851.108 853.567 L 849.708 851.581 C 848.653 850.02 847.841 849.149 846.204 848.246 C 845.7 847.968 845.189 847.703 844.682 847.432 C 846.572 847.887 846.406 847.594 848.034 846.756 C 856.052 848.651 886.508 862.895 890.492 869.278 C 891.724 871.253 892.915 874.585 894.62 876.155 C 899.455 880.609 916.578 879.909 914.698 891.405 L 913.922 893.235 L 914.663 894.788 L 913.82 896.448 L 914.306 897.272 C 912.562 902.5 910.704 909.482 906.536 913.221 C 905.371 914.913 901.57 919.457 901.648 921.248 C 906.409 925.525 911.251 929.554 916.317 933.465 C 918.023 934.879 919.176 935.975 921.382 936.442 L 918.87 938.66 C 926.89 945.166 935.917 951.614 942.579 959.535 L 942.063 960.878 L 944.835 961.747 C 951.391 967.696 957.708 977.474 966.458 979.68 C 969.156 979.28 970.664 978.531 972.989 977.217 L 974.956 976.924 L 976.58 975.471 L 977.885 977.197 C 975.469 980.936 972.733 983.753 969.494 986.792 C 976.162 992.857 984.317 998.967 990.031 1005.86 C 994.721 1005.32 998.434 1000.31 1001.66 997.105 L 1003.18 1002.04 C 1002.57 1004.07 1002.15 1006 1001.84 1008.1 L 1003.48 1009.34 A 452.324 452.324 0 0 0 1007.61 1022.32 L 1008.38 1023.38 L 1013.1 1026.05 C 1018.62 1028.4 1023.11 1029.39 1029.07 1029.6 C 1032.51 1033.16 1035.83 1036.85 1039.85 1039.77 C 1046.23 1044.61 1053.97 1047.01 1061.99 1046.11 C 1064.65 1045.81 1067.35 1045.13 1069.96 1044.55 C 1074.9 1049.37 1079.23 1051.98 1086.31 1051.98 C 1093.81 1051.98 1101.17 1047.92 1107.72 1044.61 C 1110.86 1043.73 1111.19 1043.17 1114.01 1044.94 C 1114.15 1045.03 1114.26 1045.17 1114.39 1045.28 L 1117.44 1043.81 C 1118.39 1043.24 1119.28 1042.61 1120.15 1041.92 C 1129.92 1034.22 1135.98 1015.86 1137.57 1003.74 C 1136.59 995.237 1135.07 993.328 1128.8 987.815 L 1131.09 984.69 C 1132.51 985.726 1133.38 986.151 1134.97 986.758 L 1136.07 985.275 C 1136.16 980.89 1134.92 976.997 1133.77 972.813 C 1133.9 972.461 1134.04 972.112 1134.17 971.757 C 1134.79 970.037 1134.58 970.675 1134.85 968.58 L 1137.82 973.816 C 1139.11 974.145 1138.61 974.262 1139.37 973.947 C 1146.98 989.385 1143.48 1012.06 1138.48 1027.73 C 1145.98 1040.75 1154.78 1052.95 1163.12 1065.43 C 1188.65 1103.59 1215.8 1140.6 1241.44 1178.66 C 1256.71 1201.34 1319.31 1303.83 1313.91 1326.92 C 1313.24 1329.81 1311.6 1332.75 1308.73 1333.93 C 1300.88 1337.18 1286.18 1329.34 1278.69 1326.31 C 1311.64 1394.52 1324.47 1467.86 1334.26 1542.29 C 1381.34 1565.64 1429.71 1586.99 1477.67 1608.46 A 5820.64 5820.64 0 0 0 1610.88 1667.22 L 1611.78 0 z"/>
<path transform="translate(0,0)" fill="rgb(49,16,16)" d="M 1137.57 1003.74 C 1138.35 1001.51 1137.51 999.565 1138.71 997.901 C 1141.39 1007.33 1129.12 1028.33 1132.72 1031.82 L 1135.61 1031.58 L 1136.07 1032.53 L 1135.49 1033.15 C 1131.68 1041.11 1127.27 1045.29 1120.26 1050.46 C 1117.56 1049.75 1116.22 1047.34 1114.39 1045.28 L 1117.44 1043.81 C 1118.39 1043.24 1119.28 1042.61 1120.15 1041.92 C 1129.92 1034.22 1135.98 1015.86 1137.57 1003.74 z"/>
<path transform="translate(0,0)" fill="rgb(49,16,16)" d="M 806.188 859.044 C 808.344 857.887 809.799 858.001 812.206 858.09 C 814.408 859.539 814.514 859.556 815.381 862.03 C 827.122 874.712 842.964 880.795 855.116 892.409 L 854.382 894.475 C 853.004 892.351 853.83 893.073 851.766 891.89 C 845.577 888.341 836.245 878.23 829.511 877.316 L 828.491 878.187 C 834.02 881.296 843.154 886.868 845.621 892.624 C 831.373 882.377 817.088 873.016 806.188 859.044 z"/>
<path transform="translate(0,0)" fill="rgb(110,86,85)" d="M 1237.69 1290.29 C 1241.92 1291.27 1246.25 1294.06 1250.11 1296.01 C 1264.13 1303.11 1285.65 1317.9 1299.79 1321.83 C 1301.48 1322.3 1301.87 1323.54 1302.89 1324.92 C 1292.32 1325.45 1252.24 1306.62 1242.42 1300.43 C 1238.99 1298.26 1238.62 1293.98 1237.69 1290.29 z"/>
<path transform="translate(0,0)" fill="rgb(49,16,16)" d="M 1155.72 1128.96 C 1168.16 1154.93 1176.75 1183.99 1185.03 1211.54 C 1188.29 1222.38 1192.26 1233.51 1194.23 1244.64 C 1191.36 1242.01 1190.16 1234.85 1188.98 1230.96 C 1184.19 1215.11 1179.66 1199.12 1174.41 1183.42 C 1171.94 1176.04 1167.69 1168.02 1166.2 1160.49 C 1165.84 1158.69 1165.9 1158.01 1164.78 1156.44 C 1163.51 1154.65 1163.91 1155.62 1163.32 1153.27 C 1162.87 1151.48 1162.42 1150.13 1161.65 1148.46 L 1160.98 1149.2 C 1163.16 1154.73 1164.31 1160.47 1166.2 1166.08 C 1167.39 1169.62 1169.32 1172.85 1170.56 1176.39 C 1175.92 1191.66 1189.04 1231.58 1188.21 1245.8 C 1183.74 1239.08 1184.77 1223.68 1181.01 1215.47 C 1180.86 1215.16 1180.71 1214.86 1180.57 1214.55 C 1174.61 1200.96 1171.41 1184.57 1166.67 1170.38 C 1164.17 1162.93 1155.35 1141.38 1154.44 1136.14 C 1153.96 1133.4 1154.75 1131.43 1155.72 1128.96 z"/>
<path transform="translate(0,0)" fill="rgb(110,86,85)" d="M 1232.39 1259.29 C 1224.52 1238.35 1219.46 1215.51 1213.3 1193.99 C 1208.33 1176.68 1202.22 1159.7 1197.44 1142.35 C 1200.54 1148.5 1203.84 1154.57 1208.12 1159.98 L 1241.39 1226.37 C 1250.12 1243.53 1260.29 1260.88 1266.66 1279.06 L 1265.93 1281.02 C 1255.3 1273.02 1242.82 1267.82 1232.39 1259.29 z"/>
<path transform="translate(0,0)" fill="rgb(245,244,232)" d="M 1208.12 1159.98 L 1209.42 1159.11 C 1210.86 1161.01 1212.12 1162.9 1213.33 1164.96 L 1214.47 1165.56 C 1239.2 1190.61 1288.48 1281.43 1297.29 1315.83 C 1279.24 1302.04 1256.66 1294.23 1237.64 1281.67 L 1234.88 1269.11 C 1241.44 1272.71 1249.14 1278.22 1256.13 1280.51 C 1259.33 1280.66 1261.37 1281.29 1264.27 1282.61 L 1265.93 1281.02 L 1266.66 1279.06 C 1260.29 1260.88 1250.12 1243.53 1241.39 1226.37 L 1208.12 1159.98 z"/>
<path transform="translate(0,0)" fill="rgb(49,16,16)" d="M 1208.12 1159.98 L 1209.42 1159.11 C 1210.86 1161.01 1212.12 1162.9 1213.33 1164.96 L 1214.47 1165.56 C 1230.95 1195.32 1247.21 1224.85 1262.75 1255.14 C 1269.27 1267.84 1277.19 1281.03 1282.05 1294.43 C 1273.32 1290.65 1264.04 1285.81 1256.13 1280.51 C 1259.33 1280.66 1261.37 1281.29 1264.27 1282.61 L 1265.93 1281.02 L 1266.66 1279.06 C 1260.29 1260.88 1250.12 1243.53 1241.39 1226.37 L 1208.12 1159.98 z"/>
<path transform="translate(0,0)" fill="rgb(245,244,232)" d="M 1890.9 1908.44 A 1446.62 1446.62 0 0 1 1914.13 1918.95 A 8748.37 8748.37 0 0 0 1914.01 2048 L 1891.06 2048 L 1890.9 1908.44 z"/>
<path transform="translate(0,0)" fill="rgb(245,244,232)" d="M 1617.47 1785.66 C 1625.09 1788.64 1632.5 1792.16 1639.94 1795.57 A 6816.49 6816.49 0 0 1 1638.78 1949.15 C 1631.52 1946.57 1624.4 1943.19 1617.29 1940.17 C 1616.62 1920.83 1617.18 1901.33 1617.19 1881.98 A 8769.52 8769.52 0 0 1 1617.47 1785.66 z"/>
<path transform="translate(0,0)" fill="rgb(245,244,232)" d="M 1008.38 1023.38 L 1013.1 1026.05 C 1018.62 1028.4 1023.11 1029.39 1029.07 1029.6 C 1032.51 1033.16 1035.83 1036.85 1039.85 1039.77 C 1046.23 1044.61 1053.97 1047.01 1061.99 1046.11 C 1064.65 1045.81 1067.35 1045.13 1069.96 1044.55 C 1074.9 1049.37 1079.23 1051.98 1086.31 1051.98 C 1093.81 1051.98 1101.17 1047.92 1107.72 1044.61 C 1112.17 1053.98 1115.51 1064.14 1119.61 1073.71 A 1258.82 1258.82 0 0 1 1169.22 1206.86 C 1173.64 1221.08 1175.12 1236.03 1179.72 1250.23 L 1180.31 1251.99 C 1147.93 1206.82 1118.19 1159.7 1084.21 1115.69 A 1196.33 1196.33 0 0 0 1037.54 1058.79 C 1028.56 1048.3 1014.88 1035.23 1008.38 1023.38 z"/>
<path transform="translate(0,0)" fill="rgb(245,244,232)" d="M 1120.26 1050.46 C 1127.27 1045.29 1131.68 1041.11 1135.49 1033.15 C 1146.64 1054.25 1160.31 1073.9 1170.55 1095.54 C 1180.07 1115.68 1187.18 1137.03 1194.52 1158.03 C 1221.1 1234.08 1243.02 1314.27 1245.88 1395.18 C 1246.96 1425.74 1243.36 1454.94 1241.56 1485.32 C 1237.63 1475.92 1233.75 1466.47 1229.51 1457.2 C 1225.3 1448 1219.53 1438.25 1217.34 1428.34 C 1214.57 1415.85 1215.75 1401.23 1214.76 1388.4 A 1302.15 1302.15 0 0 0 1202.46 1285.53 C 1200.53 1272.93 1199.29 1256.27 1194.23 1244.64 C 1192.26 1233.51 1188.29 1222.38 1185.03 1211.54 C 1176.75 1183.99 1168.16 1154.93 1155.72 1128.96 C 1152.75 1114.05 1128.05 1065.75 1120.26 1050.46 z"/>
<path transform="translate(0,0)" fill="rgb(245,244,232)" d="M 1919.91 1920.79 C 1937.72 1927.26 1955.05 1935.74 1972.37 1943.42 A 4183.46 4183.46 0 0 0 2048 1975.93 L 2048 2048 L 1920.12 2048 L 1919.91 1920.79 z"/>
<path transform="translate(0,0)" fill="rgb(245,244,232)" d="M 848.034 846.756 C 856.052 848.651 886.508 862.895 890.492 869.278 C 891.724 871.253 892.915 874.585 894.62 876.155 C 899.455 880.609 916.578 879.909 914.698 891.405 L 913.922 893.235 L 914.663 894.788 L 913.82 896.448 L 914.306 897.272 C 912.562 902.5 910.704 909.482 906.536 913.221 C 905.371 914.913 901.57 919.457 901.648 921.248 C 906.409 925.525 911.251 929.554 916.317 933.465 C 918.023 934.879 919.176 935.975 921.382 936.442 L 918.87 938.66 C 926.89 945.166 935.917 951.614 942.579 959.535 L 942.063 960.878 L 944.835 961.747 C 951.391 967.696 957.708 977.474 966.458 979.68 C 969.156 979.28 970.664 978.531 972.989 977.217 L 974.956 976.924 L 976.58 975.471 L 977.885 977.197 C 975.469 980.936 972.733 983.753 969.494 986.792 C 976.162 992.857 984.317 998.967 990.031 1005.86 C 994.721 1005.32 998.434 1000.31 1001.66 997.105 L 1003.18 1002.04 C 1002.57 1004.07 1002.15 1006 1001.84 1008.1 L 1003.48 1009.34 A 452.324 452.324 0 0 0 1007.61 1022.32 C 1004.5 1020.91 1001.79 1018.39 999.118 1016.28 C 1000.42 1018.96 1001.78 1021.36 1003.46 1023.82 L 1002.77 1025.81 C 1010.34 1036.19 1020.04 1045.68 1028.36 1055.53 A 1604.69 1604.69 0 0 1 1071.04 1108.77 C 1104.99 1152.49 1135.47 1199.02 1165.91 1245.19 C 1172.69 1255.48 1190.89 1279.32 1194.17 1288.77 C 1197.97 1299.71 1199.01 1312.07 1200.66 1323.51 C 1204.93 1353 1207.79 1382.5 1210.42 1412.17 A 1776.63 1776.63 0 0 0 1107.15 1212.32 C 1089.21 1182.94 1069.8 1154.6 1050.76 1125.93 C 1023.88 1085.47 997.34 1044.28 967.29 1006.07 C 936.16 966.481 894.423 923.822 855.116 892.409 C 842.964 880.795 827.122 874.712 815.381 862.03 L 818.481 861.813 L 819.388 862.67 C 822.32 865.389 824.97 867.231 828.558 868.971 L 829.223 865.193 C 831.917 866.557 834.285 867.757 837.283 868.352 C 842.329 864.074 846.969 858.728 851.108 853.567 L 849.708 851.581 C 848.653 850.02 847.841 849.149 846.204 848.246 C 845.7 847.968 845.189 847.703 844.682 847.432 C 846.572 847.887 846.406 847.594 848.034 846.756 z"/>
<path transform="translate(0,0)" fill="rgb(49,16,16)" d="M 901.683 912.246 L 902.471 914.486 L 902.393 913.104 L 901.487 913.326 L 902.477 916.107 L 903.034 915.705 L 902.668 914.89 L 903.311 915.609 L 902.689 913.075 C 904.066 912.974 905.289 912.578 906.536 913.221 C 905.371 914.913 901.57 919.457 901.648 921.248 C 906.409 925.525 911.251 929.554 916.317 933.465 C 918.023 934.879 919.176 935.975 921.382 936.442 L 918.87 938.66 L 914.6 940.289 C 910.176 936.311 905.573 932.441 901.737 927.878 C 898.108 924.998 894.822 921.578 891.469 918.38 L 892.125 917.999 C 894.558 918.012 894.203 917.667 895.837 916.059 C 898.319 915.148 899.683 913.899 901.683 912.246 z"/>
<path transform="translate(0,0)" fill="rgb(61,26,29)" d="M 855.482 887.617 C 857.088 886.557 858.665 885.805 860.43 885.043 C 865.297 889.502 871.892 893.329 876.189 898.109 C 877.207 899.988 877.419 900.118 879.306 901.148 C 885.505 904.248 891.076 911.029 895.837 916.059 C 894.203 917.667 894.558 918.012 892.125 917.999 L 891.469 918.38 C 886.682 915.21 882.109 909.91 877.74 906.021 C 870.543 899.616 863.014 893.62 855.482 887.617 z"/>
<path transform="translate(0,0)" fill="rgb(8,0,0)" d="M 1001.66 997.105 L 1003.18 1002.04 C 1002.57 1004.07 1002.15 1006 1001.84 1008.1 L 1003.48 1009.34 A 452.324 452.324 0 0 0 1007.61 1022.32 C 1004.5 1020.91 1001.79 1018.39 999.118 1016.28 C 1000.42 1018.96 1001.78 1021.36 1003.46 1023.82 L 1002.77 1025.81 C 996.52 1020.3 990.833 1014.2 985.062 1008.2 C 986.716 1007.04 988.145 1006.55 990.031 1005.86 C 994.721 1005.32 998.434 1000.31 1001.66 997.105 z"/>
<path transform="translate(0,0)" fill="rgb(245,244,232)" d="M 999.118 1016.28 C 998.231 1015.34 996.738 1014 996.235 1012.83 C 995.121 1010.23 995.676 1009.26 996.666 1006.88 C 998.859 1006.7 999.88 1007.14 1001.84 1008.1 L 1003.48 1009.34 A 452.324 452.324 0 0 0 1007.61 1022.32 C 1004.5 1020.91 1001.79 1018.39 999.118 1016.28 z"/>
<path transform="translate(0,0)" fill="rgb(49,16,16)" d="M 918.87 938.66 C 926.89 945.166 935.917 951.614 942.579 959.535 L 942.063 960.878 L 944.835 961.747 C 951.391 967.696 957.708 977.474 966.458 979.68 C 969.156 979.28 970.664 978.531 972.989 977.217 L 974.956 976.924 L 976.58 975.471 L 977.885 977.197 C 975.469 980.936 972.733 983.753 969.494 986.792 C 976.162 992.857 984.317 998.967 990.031 1005.86 C 988.145 1006.55 986.716 1007.04 985.062 1008.2 C 979.932 1004.56 974.846 998.573 970.16 994.246 C 951.182 976.715 933.053 958.365 914.6 940.289 L 918.87 938.66 z"/>
<path transform="translate(0,0)" fill="rgb(49,16,16)" d="M 848.034 846.756 C 856.052 848.651 886.508 862.895 890.492 869.278 C 891.724 871.253 892.915 874.585 894.62 876.155 C 899.455 880.609 916.578 879.909 914.698 891.405 L 913.922 893.235 L 914.663 894.788 L 913.82 896.448 L 914.306 897.272 C 912.562 902.5 910.704 909.482 906.536 913.221 C 905.289 912.578 904.066 912.974 902.689 913.075 L 903.311 915.609 L 902.668 914.89 L 903.034 915.705 L 902.477 916.107 L 901.487 913.326 L 902.393 913.104 L 902.471 914.486 L 901.683 912.246 C 899.683 913.899 898.319 915.148 895.837 916.059 C 891.076 911.029 885.505 904.248 879.306 901.148 C 877.419 900.118 877.207 899.988 876.189 898.109 C 871.892 893.329 865.297 889.502 860.43 885.043 C 858.665 885.805 857.088 886.557 855.482 887.617 C 847.508 880.292 837.765 874.584 828.558 868.971 L 829.223 865.193 C 831.917 866.557 834.285 867.757 837.283 868.352 C 842.329 864.074 846.969 858.728 851.108 853.567 L 849.708 851.581 C 848.653 850.02 847.841 849.149 846.204 848.246 C 845.7 847.968 845.189 847.703 844.682 847.432 C 846.572 847.887 846.406 847.594 848.034 846.756 z"/>
<path transform="translate(0,0)" fill="rgb(245,244,232)" d="M 853.115 856.698 C 858.531 857.527 863.015 859.517 867.911 861.816 C 865.303 870.433 863.46 876.124 857.199 882.909 C 850.966 879.738 845.686 875.809 840.372 871.307 C 844.243 865.983 848.289 861.177 853.115 856.698 z"/>
<path transform="translate(0,0)" fill="rgb(245,244,232)" d="M 860.43 885.043 C 860.878 884.686 861.336 884.342 861.773 883.973 C 867.427 879.192 868.461 865.766 877.813 866.919 C 881.005 867.312 883.555 869.43 885.266 872.031 C 887.634 875.631 888.106 879.979 887.109 884.12 C 885.77 889.683 880.69 894.843 876.189 898.109 C 871.892 893.329 865.297 889.502 860.43 885.043 z"/>
<path transform="translate(0,0)" fill="rgb(245,244,232)" d="M 879.306 901.148 C 879.603 900.941 879.902 900.739 880.197 900.528 C 886.789 895.821 891.062 884.003 898.847 882.77 C 904.368 884.494 907.339 888.766 910.927 893.08 C 908.381 899.993 905.671 906.011 901.683 912.246 C 899.683 913.899 898.319 915.148 895.837 916.059 C 891.076 911.029 885.505 904.248 879.306 901.148 z"/>
<path transform="translate(0,0)" fill="rgb(245,244,232)" d="M 1645.63 1798.23 C 1682.48 1816.2 1720.85 1831.06 1757.91 1848.64 C 1759.07 1872.31 1758.72 1896.09 1758.74 1919.78 A 4153.44 4153.44 0 0 1 1758.42 2001.75 C 1720.16 1987.06 1682.4 1968.89 1644.92 1952.27 L 1645.63 1798.23 z"/>
<path transform="translate(0,0)" fill="rgb(110,86,85)" d="M 1243.99 1312.62 C 1252.6 1315.88 1261.13 1319.37 1269.68 1322.76 C 1315.96 1447.99 1325.62 1556.64 1318.17 1689 C 1315.52 1736.05 1309.74 1782.77 1309.73 1829.94 L 1308.72 1832.79 C 1305.21 1824.22 1306.33 1799.95 1305.58 1789.44 C 1304.99 1781 1303.89 1772.59 1302.83 1764.2 C 1292.92 1685.59 1283.95 1616.29 1259.77 1539.93 C 1255.2 1525.49 1250.94 1510.64 1245.16 1496.64 C 1248.26 1485.87 1249.11 1473.91 1250.21 1462.75 C 1255.23 1411.93 1251.85 1363.01 1243.99 1312.62 z"/>
<path transform="translate(0,0)" fill="rgb(245,244,232)" d="M 1764.13 1851.36 C 1804.3 1869.16 1845.59 1885.96 1884.98 1905.4 L 1885.33 2048 L 1860.25 2048 C 1849.53 2041.68 1837.37 2037.03 1826.01 2031.89 A 2698.57 2698.57 0 0 0 1764.09 2004.48 L 1764.13 1851.36 z"/>
<path transform="translate(0,0)" fill="rgb(155,135,128)" d="M 1317.78 1818.9 C 1329.59 1826.53 1344.66 1831.41 1357.64 1836.89 L 1432.62 1868.7 A 18324.5 18324.5 0 0 1 1717.6 1991.62 C 1748.74 2005.31 1780.33 2018.15 1811.15 2032.51 C 1821.75 2037.44 1832.97 2042.21 1843.11 2048 L 1740.94 2048 L 1724.56 2048 L 1646.24 2048 L 1640.39 2048 L 1618.42 2048 L 1611.82 2048 A 1591.02 1591.02 0 0 0 1611.39 1999.5 C 1589.79 1989.26 1567.04 1980.78 1545.04 1971.39 L 1429.6 1921.67 C 1390.11 1905 1351.13 1885.7 1311.05 1870.59 C 1310.76 1870.03 1310.43 1869.5 1310.19 1868.91 C 1309.14 1866.23 1309.76 1865.19 1310.63 1862.58 C 1312.24 1847.86 1314.4 1833.34 1317.78 1818.9 z"/>
<path transform="translate(0,0)" fill="rgb(49,16,16)" d="M 1310.63 1862.58 C 1333.98 1872.01 1356.78 1882.54 1379.92 1892.45 L 1574.14 1976.5 C 1614.51 1993.85 1655.3 2010.24 1695.55 2027.83 C 1710.57 2034.39 1726.42 2040.47 1740.94 2048 L 1724.56 2048 L 1646.24 2048 L 1640.39 2048 L 1618.42 2048 L 1611.82 2048 A 1591.02 1591.02 0 0 0 1611.39 1999.5 C 1589.79 1989.26 1567.04 1980.78 1545.04 1971.39 L 1429.6 1921.67 C 1390.11 1905 1351.13 1885.7 1311.05 1870.59 C 1310.76 1870.03 1310.43 1869.5 1310.19 1868.91 C 1309.14 1866.23 1309.76 1865.19 1310.63 1862.58 z"/>
<path transform="translate(0,0)" fill="rgb(245,244,232)" d="M 1618.11 2001.81 C 1621.91 2003.72 1625.77 2005.27 1629.76 2006.75 C 1633.04 2007.97 1636.31 2009.08 1638.69 2011.82 C 1641.04 2014.5 1640.28 2019.23 1640.16 2022.64 C 1640.11 2031.1 1640.03 2039.55 1640.39 2048 L 1618.42 2048 L 1618.11 2001.81 z"/>
<path transform="translate(0,0)" fill="rgb(245,244,232)" d="M 1640.16 2022.64 C 1641.32 2019.51 1641.16 2015.79 1642.98 2013.04 L 1645.43 2016.73 L 1646.66 2014.2 C 1652.29 2014.6 1716.82 2043.16 1724.56 2048 L 1646.24 2048 L 1640.39 2048 C 1640.03 2039.55 1640.11 2031.1 1640.16 2022.64 z"/>
<path transform="translate(0,0)" fill="rgb(61,26,29)" d="M 1640.16 2022.64 C 1641.32 2019.51 1641.16 2015.79 1642.98 2013.04 L 1645.43 2016.73 C 1646.53 2027.06 1646.18 2037.62 1646.24 2048 L 1640.39 2048 C 1640.03 2039.55 1640.11 2031.1 1640.16 2022.64 z"/>
<path transform="translate(0,0)" fill="rgb(245,244,232)" d="M 1311.05 1870.59 C 1351.13 1885.7 1390.11 1905 1429.6 1921.67 L 1545.04 1971.39 C 1567.04 1980.78 1589.79 1989.26 1611.39 1999.5 A 1591.02 1591.02 0 0 1 1611.82 2048 L 1310.44 2048 C 1311.66 2032.96 1311.21 2017.51 1311.3 2002.41 A 5492.85 5492.85 0 0 0 1311.08 1922.98 C 1310.9 1909.79 1308 1881.43 1311.05 1870.59 z"/>
<path transform="translate(0,0)" fill="rgb(245,244,232)" d="M 1617.28 0 L 1640.08 0 L 1639.87 1121.84 L 1639.86 1480.11 L 1639.71 1591.45 C 1639.67 1610.83 1638.48 1631.02 1639.92 1650.32 C 1639.11 1660.36 1639.34 1670.66 1639.14 1680.73 C 1631.88 1677.6 1624.78 1674.08 1617.65 1670.67 L 1617.28 0 z"/>
<path transform="translate(0,0)" fill="rgb(245,244,232)" d="M 1337.15 1662.15 L 1510.19 1738.11 C 1544.17 1752.87 1579.17 1766.86 1612.1 1783.74 A 11206.9 11206.9 0 0 1 1611.23 1937.25 L 1598.29 1931.88 C 1522.97 1900.24 1448.21 1867.32 1372.57 1836.45 C 1354.46 1829.06 1336.76 1820.6 1318.46 1813.69 C 1329.87 1769.03 1334.52 1708.95 1337.15 1662.15 z"/>
<path transform="translate(0,0)" fill="rgb(155,135,128)" d="M 1334.79 1550.3 C 1364.77 1565.78 1396.17 1579.29 1426.89 1593.26 C 1493.89 1623.73 1561.37 1652.85 1628.69 1682.56 L 2048 1869.68 L 2048 1967.84 C 2035.87 1963.67 2023.89 1957.7 2012.13 1952.53 L 1951.87 1926.19 L 1801.77 1861.24 L 1337.26 1654.91 C 1340.73 1620.96 1336.94 1584.32 1334.79 1550.3 z"/>
<path transform="translate(0,0)" fill="rgb(110,86,85)" d="M 1048.77 1136.82 C 1054.26 1138.97 1066.82 1160.95 1070.47 1166.77 C 1116.67 1240.26 1159.31 1317.51 1194.2 1397.07 C 1249.83 1523.88 1274.62 1634.8 1290.11 1771.88 C 1293.19 1799.1 1296.82 1826.5 1298.66 1853.84 C 1301.24 1892.27 1301.63 1931.87 1300.84 1970.4 L 1299.93 1969.51 C 1300.17 1972.75 1299.78 1970.24 1300.69 1972.97 C 1300.74 1973.11 1300.72 1973.27 1300.73 1973.43 L 1299.83 1973.12 C 1281.96 1872.06 1256.62 1768.1 1208.75 1676.69 C 1185.16 1631.63 1155.08 1587.84 1123.92 1547.71 C 1093.46 1508.48 1060.23 1470.1 1024.34 1435.7 A 1508.49 1508.49 0 0 0 956.894 1374.98 A 1675.46 1675.46 0 0 1 910.138 1335.17 C 902.295 1328.33 893.244 1321.46 886.726 1313.33 C 894.733 1301.25 909.256 1290.02 919.852 1280.09 C 947.091 1254.56 974.966 1230.05 1001.16 1203.39 C 1015.16 1189.15 1028.86 1175.34 1039.51 1158.3 C 1043.76 1152.46 1049.79 1144.41 1048.77 1136.82 z"/>
<path transform="translate(0,0)" fill="rgb(245,244,232)" d="M 1640.08 0 L 1646.1 0 L 1757.99 0 L 1758.74 1732.55 C 1722.16 1718.54 1686.99 1700.81 1650.81 1685.78 L 1649.49 1686.49 C 1647.6 1686.47 1646.35 1686.44 1644.56 1685.7 C 1638.86 1683.38 1642.49 1657.25 1639.92 1650.32 C 1638.48 1631.02 1639.67 1610.83 1639.71 1591.45 L 1639.86 1480.11 L 1639.87 1121.84 L 1640.08 0 z"/>
<path transform="translate(0,0)" fill="rgb(61,26,29)" d="M 1640.08 0 L 1646.1 0 L 1645.87 1260.27 L 1645.4 1562.15 L 1645.26 1644.52 C 1645.23 1653.95 1644.57 1663.45 1644.81 1672.86 C 1644.9 1676.43 1644.98 1680.18 1646.45 1683.48 L 1650.81 1685.78 L 1649.49 1686.49 C 1647.6 1686.47 1646.35 1686.44 1644.56 1685.7 C 1638.86 1683.38 1642.49 1657.25 1639.92 1650.32 C 1638.48 1631.02 1639.67 1610.83 1639.71 1591.45 L 1639.86 1480.11 L 1639.87 1121.84 L 1640.08 0 z"/>
<path transform="translate(0,0)" fill="rgb(245,244,232)" d="M 1919.86 0 L 2048 0 L 2048 1861.98 C 2034.07 1856.63 2020.37 1849.35 2006.69 1843.28 A 8040.9 8040.9 0 0 1 1920.89 1805.12 L 1919.86 0 z"/>
<path transform="translate(0,0)" fill="rgb(245,244,232)" d="M 1763.3 0 L 1885.21 0 L 1890.97 0 L 1913.98 0 L 1914.61 1802.01 C 1863.75 1782.01 1813.61 1757.94 1764.12 1734.79 L 1763.3 0 z"/>
<path transform="translate(0,0)" fill="rgb(61,26,29)" d="M 1885.21 0 L 1890.97 0 L 1891.13 1772.1 C 1891.12 1776.52 1891.86 1784.04 1888.53 1787.34 L 1886.55 1786.69 C 1885.29 1784.83 1885.16 1783.54 1885.1 1781.35 C 1884.44 1756.11 1884.99 1730.7 1884.97 1705.44 L 1884.96 1555.46 L 1884.94 1150.22 L 1885.21 0 z"/>
<path transform="translate(0,0)" fill="rgb(61,26,29)" d="M 593.388 440.824 C 597.199 429.613 601.9 419.126 607.85 408.876 C 662.514 314.702 806.089 247.217 907.142 220.882 C 944.568 211.128 991.272 202.18 1026.43 223.619 C 1036.62 229.836 1043.9 239.302 1053.33 246.442 C 1087.91 272.635 1147.75 305.975 1167.23 344.796 C 1175.82 361.905 1176.66 383.268 1181.32 401.736 C 1185.57 397.14 1188.61 389.449 1194.01 386.377 L 1195.53 388.001 C 1196.78 394.544 1189.51 402.367 1187.05 408.159 C 1185.82 411.063 1186.96 413.148 1187.87 415.929 L 1186.79 416.612 C 1185.79 415.52 1184.87 414.527 1184.05 413.296 L 1181.66 414.677 C 1181.85 415.02 1182.05 415.36 1182.24 415.705 C 1183.07 417.261 1182.78 416.638 1183.34 418.44 L 1182.46 419.097 C 1182.68 419.386 1182.89 419.677 1183.12 419.962 C 1194 433.889 1240.49 447.712 1258 452.831 C 1266.69 455.369 1281.69 457.65 1288.44 463.535 C 1291.31 466.045 1292.29 471.131 1291.79 474.774 C 1288.57 498.422 1242.87 508.666 1268.65 546.413 C 1270.32 548.852 1272.44 551.017 1274.49 553.128 L 1278.66 552.953 C 1280 554.531 1281.46 556.05 1282.54 557.824 L 1279.58 560.293 C 1279.8 563.326 1280.42 565.7 1278.25 568.247 C 1274.03 573.205 1233.98 588.384 1225.8 590.548 C 1223.4 592.396 1222.18 592.735 1221.41 595.735 L 1222.45 597.467 L 1223.41 599.212 C 1229.52 600.941 1236.95 599.94 1243.31 600.064 C 1256.19 599.963 1268.43 596.408 1281.12 595.033 L 1282.63 595.474 L 1284 594.714 C 1284 594.427 1284 594.139 1283.99 593.851 C 1283.89 589.332 1282.72 586.486 1280.02 582.925 L 1280.71 581.999 C 1283.56 585.049 1290.88 593.559 1291.31 597.629 C 1291.62 600.677 1290.68 604.853 1290.38 607.937 C 1288.56 626.312 1288.36 629.377 1300.82 643.234 C 1312.42 656.142 1323.33 666.489 1322.35 685.432 C 1321.94 693.566 1321.58 697.548 1315.41 703.229 C 1309.16 708.991 1301.64 712.724 1294.36 716.96 L 1296.08 717.752 C 1295.81 717.915 1295.54 718.081 1295.26 718.242 C 1275.36 729.796 1248.09 738.978 1226.6 749.16 C 1208.22 757.867 1185.33 768.392 1170.53 782.3 C 1143.85 807.371 1123.17 889.559 1109.99 925.843 C 1116.72 928.977 1125.18 933.473 1127.6 941.031 C 1129.16 945.941 1127.16 951.533 1128.71 956.142 C 1130.88 962.571 1137.03 966.842 1139.37 973.947 C 1138.61 974.262 1139.11 974.145 1137.82 973.816 L 1134.85 968.58 C 1134.58 970.675 1134.79 970.037 1134.17 971.757 C 1134.04 972.112 1133.9 972.461 1133.77 972.813 C 1134.92 976.997 1136.16 980.89 1136.07 985.275 L 1134.97 986.758 C 1133.38 986.151 1132.51 985.726 1131.09 984.69 L 1128.8 987.815 C 1135.07 993.328 1136.59 995.237 1137.57 1003.74 C 1135.98 1015.86 1129.92 1034.22 1120.15 1041.92 C 1119.28 1042.61 1118.39 1043.24 1117.44 1043.81 L 1114.39 1045.28 C 1114.26 1045.17 1114.15 1045.03 1114.01 1044.94 C 1111.19 1043.17 1110.86 1043.73 1107.72 1044.61 C 1101.17 1047.92 1093.81 1051.98 1086.31 1051.98 C 1079.23 1051.98 1074.9 1049.37 1069.96 1044.55 C 1067.35 1045.13 1064.65 1045.81 1061.99 1046.11 C 1053.97 1047.01 1046.23 1044.61 1039.85 1039.77 C 1035.83 1036.85 1032.51 1033.16 1029.07 1029.6 C 1023.11 1029.39 1018.62 1028.4 1013.1 1026.05 L 1008.38 1023.38 L 1007.61 1022.32 A 452.324 452.324 0 0 1 1003.48 1009.34 L 1001.84 1008.1 C 1002.15 1006 1002.57 1004.07 1003.18 1002.04 L 1001.66 997.105 C 998.434 1000.31 994.721 1005.32 990.031 1005.86 C 984.317 998.967 976.162 992.857 969.494 986.792 C 972.733 983.753 975.469 980.936 977.885 977.197 L 976.58 975.471 L 974.956 976.924 L 972.989 977.217 C 970.664 978.531 969.156 979.28 966.458 979.68 C 957.708 977.474 951.391 967.696 944.835 961.747 L 942.063 960.878 L 942.579 959.535 C 935.917 951.614 926.89 945.166 918.87 938.66 L 921.382 936.442 C 919.176 935.975 918.023 934.879 916.317 933.465 C 911.251 929.554 906.409 925.525 901.648 921.248 C 901.57 919.457 905.371 914.913 906.536 913.221 C 910.704 909.482 912.562 902.5 914.306 897.272 L 913.82 896.448 L 914.663 894.788 L 913.922 893.235 L 914.698 891.405 C 916.578 879.909 899.455 880.609 894.62 876.155 C 892.915 874.585 891.724 871.253 890.492 869.278 C 886.508 862.895 856.052 848.651 848.034 846.756 C 846.406 847.594 846.572 847.887 844.682 847.432 C 845.189 847.703 845.7 847.968 846.204 848.246 C 847.841 849.149 848.653 850.02 849.708 851.581 L 851.108 853.567 C 846.969 858.728 842.329 864.074 837.283 868.352 C 834.285 867.757 831.917 866.557 829.223 865.193 L 828.558 868.971 C 824.97 867.231 822.32 865.389 819.388 862.67 L 818.481 861.813 L 815.381 862.03 C 814.514 859.556 814.408 859.539 812.206 858.09 C 809.799 858.001 808.344 857.887 806.188 859.044 C 817.088 873.016 831.373 882.377 845.621 892.624 L 846.88 893.868 C 854.025 900.849 862.275 906.86 869.714 913.553 C 882.074 924.674 894.03 936.559 905.791 948.315 C 934.743 977.254 960.168 1010.08 984.632 1042.84 C 1000.36 1063.9 1015.24 1086.18 1029.84 1108.04 C 1036 1117.26 1041.2 1128.82 1048.77 1136.82 C 1049.79 1144.41 1043.76 1152.46 1039.51 1158.3 L 1038.04 1158.02 C 1040.46 1151.41 1044.05 1150.63 1046.61 1139.9 L 1045.9 1138.92 L 1046.13 1138.58 C 1045.17 1141.79 1045.16 1143.91 1042.45 1145.96 C 1042.27 1147.07 1042.3 1147.24 1041.73 1148.41 C 1040.31 1151.27 1036.85 1154.99 1033.92 1155.69 C 1019.42 1174.56 1003.53 1191.95 986.707 1208.76 C 967.804 1227.66 947.798 1245.76 927.938 1263.64 C 915.291 1275.04 901.777 1286.36 890.328 1298.92 C 886.945 1302.63 882.573 1307.79 881.38 1312.74 C 881.288 1313.13 881.327 1313.53 881.369 1313.93 C 881.857 1318.54 886.827 1322.97 890.048 1326.03 C 913.772 1348.58 940.148 1368.41 964.884 1389.81 C 981.533 1404.21 997.276 1419.73 1013.09 1435.03 C 1035.83 1457.06 1058.36 1479.27 1078.93 1503.37 C 1187.1 1630.12 1239.88 1730.86 1277.01 1893.5 C 1288.08 1941.98 1299.72 1998.33 1299.07 2048 L 1291.17 2048 L 1286.62 2048 L 1266.53 2048 L 1258.9 2048 L 1207.65 2048 L 1185.91 2048 L 1140.99 2048 L 1124.64 2048 L 1054.8 2048 L 1048.51 2048 L 963.698 2048 L 957.423 2048 L 870.921 2048 L 863.747 2048 L 804.772 2048 L 773.395 2048 L 550.265 2048 L 517.933 2048 L 350.154 2048 L 327.867 2048 L 167.929 2048 L 160.969 2048 L 108.193 2048 L 102.049 2048 L 0 2048 L 0 1265.31 L 0 1257.58 L 0 1210.51 L 0 1204.19 L 0 1036.19 L 0 1029.21 L 0 927.887 L 0 920.1 C 12.9655 924.411 25.9269 931.774 38.5246 937.257 L 149.69 986.888 A 27497.6 27497.6 0 0 0 524.829 1151.11 C 544.494 1125.6 565.865 1100.61 593.681 1083.7 C 580.638 1084.14 564.378 1085.69 551.873 1081.42 C 548.259 1080.19 543.91 1077.8 542.423 1074.03 C 540.498 1069.14 542.193 1064.2 544.361 1059.69 C 558.004 1031.35 630.599 972.345 657.87 950.826 C 676.138 936.41 695.34 922.96 713.189 908.033 C 730.23 893.783 745.003 876.593 763.428 864.035 C 772.983 857.522 783.602 853.865 794.463 850.207 C 778.754 852.056 761.801 852.126 746.155 849.989 C 671.504 839.794 605.677 799.852 560.146 740.312 C 545.78 721.527 520.51 678.186 518.63 654.337 C 517.856 644.517 521.987 635.017 521.112 625.597 C 519.342 606.546 514.401 589.095 517.123 569.648 C 519.289 554.163 526.24 543.79 538.504 534.495 C 534.105 524.575 521.948 509.769 521.953 499.349 C 521.958 488.19 532.281 476.072 539.882 468.543 C 552.143 456.398 575.615 440.799 593.388 440.824 z"/>
<path transform="translate(0,0)" fill="rgb(110,86,85)" d="M 758.206 728.915 C 763.484 729.876 772.515 729.869 776.904 732.915 C 779.881 734.981 779.619 738.368 780.247 741.692 C 772.315 738.167 765.207 734.032 758.206 728.915 z"/>
<path transform="translate(0,0)" fill="rgb(245,244,232)" d="M 829.223 865.193 C 827.989 864.39 827.143 863.707 826.038 862.682 C 826.16 861.838 826.16 861.57 826.512 860.674 C 828.282 856.167 831.712 853.773 835.939 851.727 C 841.633 848.972 843.906 849.527 849.708 851.581 L 851.108 853.567 C 846.969 858.728 842.329 864.074 837.283 868.352 C 834.285 867.757 831.917 866.557 829.223 865.193 z"/>
<path transform="translate(0,0)" fill="rgb(245,244,232)" d="M 1247.46 1993.64 C 1250.58 2011.9 1254.82 2029.93 1258.9 2048 L 1207.65 2048 C 1223.18 2030.56 1236.51 2014.44 1247.46 1993.64 z"/>
<path transform="translate(0,0)" fill="rgb(110,86,85)" d="M 686.825 701.749 C 695.331 709.542 702.459 720.883 711.66 729.281 C 730.152 746.158 752.745 759.022 776.011 768.054 C 785.404 771.701 795.296 774.163 804.367 778.586 C 804.732 778.765 805.093 778.952 805.457 779.135 C 808.048 782.76 809.767 786.198 811.402 790.338 C 799.519 787.705 787.817 784.517 776.437 780.164 C 737.706 765.347 704.033 740.421 686.825 701.749 z"/>
<path transform="translate(0,0)" fill="rgb(110,86,85)" d="M 570.192 494.252 C 575.913 493.879 581.482 494.546 586.887 496.537 C 598.269 500.732 606.468 510.189 611.357 521.041 C 619.348 538.78 623.644 563.38 616.696 581.819 C 613.801 572.029 613.887 561.808 610.882 552 C 609.451 548.386 607.785 544.532 605.738 541.222 C 598.981 530.296 588.554 521.923 575.867 519.133 C 564.289 516.586 553.909 519.237 544.007 525.398 L 535.538 510.912 C 546.146 502.281 556.727 496.776 570.192 494.252 z"/>
<path transform="translate(0,0)" fill="rgb(110,86,85)" d="M 574.485 471.322 C 586.87 469.37 600.829 471.942 611.364 478.719 C 623.198 486.331 631.826 499.123 634.784 512.849 C 638.499 530.082 633.18 548.943 624.044 563.653 C 624.283 548.02 622.961 535.512 618.054 520.667 C 616.26 516.172 614.03 511.766 611.251 507.788 C 603.931 497.309 592.812 489.717 580.064 487.753 C 569.154 486.072 554.318 489.962 545.265 496.473 C 541.329 499.304 537.208 503.008 532.507 504.349 L 531.484 503.353 C 532.106 499.441 534.424 495.098 536.755 491.91 C 546.016 479.248 559.448 473.619 574.485 471.322 z"/>
<path transform="translate(0,0)" fill="rgb(110,86,85)" d="M 557.44 528.095 C 562.617 527.642 567.934 527.586 573.053 528.59 A 43.5706 43.5706 0 0 1 601.053 547.537 C 619.679 575.632 603.384 605.665 597.534 634.438 C 596.972 634.574 596.405 634.184 595.853 634.012 C 581.84 611.968 585.574 586.997 574.166 563.426 C 566.781 548.166 558.312 538.99 542.099 533.34 C 547.184 531.109 552.095 529.531 557.44 528.095 z"/>
<path transform="translate(0,0)" fill="rgb(245,244,232)" d="M 878.906 1137.17 C 905.37 1144.33 947.513 1155.64 970.163 1169.85 A 991.782 991.782 0 0 1 940.904 1199.71 C 930.231 1210.38 918.946 1220.37 908.414 1231.21 L 878.906 1137.17 z"/>
<path transform="translate(0,0)" fill="rgb(245,244,232)" d="M 768.77 1874.75 C 783.498 1904.28 800.635 1932.23 816.459 1961.14 C 832.22 1989.94 846.674 2019.99 863.747 2048 L 804.772 2048 C 803.151 2035.56 803.797 2021.8 800.831 2009.72 C 800.702 2009.2 800.649 2008.65 800.454 2008.15 C 798.918 2004.19 792.474 1999.07 789.424 1995.62 C 782.574 1987.87 776.727 1978.95 770.759 1970.5 C 779.655 1948.37 770.905 1899.39 768.77 1874.75 z"/>
<path transform="translate(0,0)" fill="rgb(110,86,85)" d="M 664.734 483.615 C 684.037 499.572 680.474 584.707 684.849 611.171 C 688.541 633.501 697.605 659.424 711.116 677.783 C 727.819 700.479 752.509 709.43 779.455 713.617 C 778.899 718.457 778.687 723.386 778.315 728.248 C 741.219 718.708 708.168 695.933 690.094 661.514 C 684.308 650.495 681.196 637.813 674.616 627.292 C 674.438 627.007 674.25 626.728 674.067 626.446 C 676.723 645.39 682.483 660.536 692.137 677.058 C 713.362 705.938 745.988 736.32 780.901 746.912 C 786.189 755.405 793.643 763.169 800.002 770.904 C 778.501 763.088 757.984 754.441 738.675 741.972 C 669.177 697.094 659.768 643.707 665.663 565.829 C 667.793 537.694 670.824 511.632 664.734 483.615 z"/>
<path transform="translate(0,0)" fill="rgb(245,244,232)" d="M 945.846 649.253 C 956.868 648.591 966.205 649.647 975.989 655.393 A 46.5149 46.5149 0 0 1 997.825 685.025 C 1000.8 697.29 998.888 709.851 992.048 720.489 C 984.092 732.861 973.314 736.984 959.618 739.821 C 949.824 740.48 938.992 737.466 930.621 732.368 C 919.772 725.76 911.407 714.142 908.452 701.785 C 905.785 690.633 909.271 677.713 915.272 668.18 C 922.406 656.85 933.209 651.875 945.846 649.253 z"/>
<path transform="translate(0,0)" fill="rgb(49,16,16)" d="M 955.621 656.405 C 962.531 655.917 968.846 656.831 974.965 660.26 C 983.815 665.218 989.484 674.143 991.772 683.877 C 994.101 693.785 992.579 704.65 986.981 713.229 C 980.063 723.832 969.668 727.174 957.887 729.394 C 949.104 729.248 941.183 727.618 933.94 722.36 C 925.348 716.124 919.998 706.13 918.674 695.677 C 917.467 686.152 919.892 675.974 925.989 668.453 C 933.837 658.77 944.033 657.437 955.621 656.405 z"/>
<path transform="translate(0,0)" fill="rgb(245,244,232)" d="M 952.77 660.281 C 958.75 659.913 963.895 660.559 969.286 663.353 C 977.238 667.474 982.996 674.804 985.55 683.352 C 987.996 691.538 987.534 700.446 983.068 707.86 C 978.068 716.159 970.579 719.626 961.626 722.062 C 955.008 722.347 949.306 721.671 943.368 718.508 A 30.8954 30.8954 0 0 1 927.97 699.035 C 925.814 690.648 927.057 681.135 931.612 673.729 C 936.739 665.393 943.569 662.222 952.77 660.281 z"/>
<path transform="translate(0,0)" fill="rgb(110,86,85)" d="M 611.716 1000.06 L 611.95 1000.2 C 613.291 1006.31 566.515 1043.06 565.137 1058.6 C 565.52 1059.26 565.688 1060.11 566.287 1060.59 C 567.733 1061.74 580.918 1060.99 583.64 1061 C 687.74 1061.53 819.236 1091.09 919.526 1121.65 C 943.373 1128.91 968.199 1135.62 990.557 1146.78 C 986.598 1150.75 983.445 1155.46 979.011 1158.95 C 961.273 1149.21 938.953 1144.31 919.643 1138.36 C 902.984 1133.22 886.558 1127.06 869.795 1122.32 C 838.965 1113.59 806.964 1107.06 775.61 1100.51 C 731.353 1091.26 687.285 1082.45 642.276 1077.52 A 647.876 647.876 0 0 0 602.665 1074.13 C 593.878 1073.7 555.911 1074.48 550.639 1072.59 C 550.291 1071.72 550.027 1071.22 549.981 1070.21 C 549.209 1053.25 598.635 1012.29 611.716 1000.06 z"/>
<path transform="translate(0,0)" fill="rgb(245,244,232)" d="M 1140.99 2048 A 1112.47 1112.47 0 0 0 1195.09 1902.41 C 1201.75 1879.28 1206.31 1855.57 1212.9 1832.47 L 1230.33 1903.05 C 1233.82 1917.51 1238.07 1932.36 1239.72 1947.14 C 1229.65 1965.39 1223.58 1985.14 1214.12 2003.6 C 1206.01 2019.43 1195.25 2033.04 1185.91 2048 L 1140.99 2048 z"/>
<path transform="translate(0,0)" fill="rgb(110,86,85)" d="M 909.496 302.156 C 911.463 302.81 910.562 302.311 912.185 303.676 C 910.751 313.504 910.072 323.352 913.623 332.877 C 916.766 341.312 924.642 349.584 930.448 356.412 C 955.81 386.236 969.106 407.707 967.082 448.56 C 965.458 481.33 949.07 524.322 924.102 546.393 C 898.125 569.357 877.276 547.006 849.707 545.261 C 880.48 540.984 909.261 535.554 933.427 514.823 C 938.842 508.994 948.277 499.742 950.38 491.982 C 950.924 489.976 950.905 490.798 949.902 488.837 C 946.921 489.306 941.718 496.674 939.413 499.188 C 931.187 508.16 921.535 516.651 910.627 522.216 C 888.237 533.639 863.503 530.819 839.988 537.112 C 858.781 525.962 877.362 514.676 893.592 499.881 C 906.678 487.952 916.362 473.832 922.519 457.21 C 944.916 396.748 897.583 367.185 900.821 319.307 C 901.34 311.633 903.782 307.187 909.496 302.156 z"/>
<path transform="translate(0,0)" fill="rgb(110,86,85)" d="M 925.368 276.153 C 925.5 277.886 925.154 277.637 923.92 278.84 C 907.312 295.021 891.083 310.357 883.258 332.955 C 869.176 373.621 876.996 418.008 861.919 458.546 C 851.57 486.371 829.836 511.257 802.675 523.621 C 770.991 538.043 723.508 544.717 690.51 532.5 C 688.542 531.923 687.173 531.181 685.461 530.056 L 685.202 528.184 C 691.477 525.264 708.372 528.592 716.052 528.113 C 730.541 527.209 745.441 521.156 757.945 514.093 C 808.746 485.398 827.331 440.559 842.9 387.247 C 849.571 364.404 856.383 341.288 870.705 321.875 C 885.053 302.427 904.858 288.4 925.368 276.153 z"/>
<path transform="translate(0,0)" fill="rgb(110,86,85)" d="M 802.797 567.029 C 802.681 569.936 801.522 573.586 801.763 576.268 C 800.951 595.787 802.092 611.993 810.836 629.667 C 814.013 636.09 817.828 642.388 820.363 649.082 C 815.517 668.149 806.298 694.372 788.107 704.904 C 779.987 709.605 765.507 705.353 756.993 702.751 C 733.855 695.68 716.984 679.928 705.878 658.68 A 176.97 176.97 0 0 1 698.631 642.852 C 712.283 660.366 733.77 670.619 755.603 673.297 C 773.706 675.518 795.559 674.751 810.359 663.014 C 812.219 661.539 813.469 660.296 813.871 657.866 L 812.971 657.255 C 812.703 657.4 812.437 657.547 812.167 657.688 C 790.454 669.019 759.839 668.236 737.009 660.952 C 720.37 655.643 706.289 645.326 698.237 629.572 C 694.193 621.659 689.811 610.92 689.981 601.952 L 691.051 597.406 C 701.117 601.737 711.52 604.779 722.505 605.413 C 755.94 607.344 779.089 587.856 802.797 567.029 z"/>
<path transform="translate(0,0)" fill="rgb(49,16,16)" d="M 802.797 567.029 C 802.681 569.936 801.522 573.586 801.763 576.268 C 791.35 592.813 764.89 605.841 746.317 610.019 C 727.054 614.353 706.871 612.584 689.981 601.952 L 691.051 597.406 C 701.117 601.737 711.52 604.779 722.505 605.413 C 755.94 607.344 779.089 587.856 802.797 567.029 z"/>
<path transform="translate(0,0)" fill="rgb(245,244,232)" d="M 677.962 948.035 L 678.49 948.926 C 659.502 967.798 642.472 989.946 627.453 1012.07 C 623.793 1017.47 616.848 1026.11 618.129 1032.84 C 631.856 1036.23 649.665 1036.24 663.99 1037.73 C 682.621 1039.68 701.141 1042.75 719.649 1045.61 C 818.098 1060.85 917.36 1082.7 1009.37 1121.57 L 993.611 1141.71 C 987.644 1138.66 981.399 1136.12 975.247 1133.46 C 958.648 1126.57 941.355 1121.38 924.205 1116.06 C 882.428 1103.1 840.448 1092.69 797.708 1083.47 C 758.001 1074.91 717.835 1066.3 677.479 1061.45 C 642.609 1057.25 607.792 1056.02 572.781 1054.18 C 601.56 1017.76 641.167 976.353 677.962 948.035 z"/>
<path transform="translate(0,0)" fill="rgb(110,86,85)" d="M 898.179 316.128 C 892.586 356.467 911.807 372.601 918.293 408.179 A 91.1104 91.1104 0 0 1 915.018 452.537 C 900.411 496.242 858.47 513.382 825.998 541.252 C 819.405 546.91 812.479 552.714 807.604 559.973 L 802.797 567.029 C 779.089 587.856 755.94 607.344 722.505 605.413 C 711.52 604.779 701.117 601.737 691.051 597.406 C 690.977 597.37 690.892 597.351 690.829 597.299 C 687.015 594.155 686.945 546.735 685.863 537.744 C 717.146 549.499 753.931 547.127 785.7 537.725 C 811.078 530.215 830.808 517.547 847.683 497.126 C 901.2 432.359 867.132 373.477 898.179 316.128 z"/>
<path transform="translate(0,0)" fill="rgb(110,86,85)" d="M 597.814 448.386 C 608.895 447.714 623.012 451.158 632.97 456.105 C 642.114 460.648 650.158 467.261 654.586 476.653 C 668.517 506.2 655.452 571.177 655.966 605.875 C 656.313 629.281 661.257 651.803 668.669 673.914 C 687.448 729.934 715.538 764.8 772.123 785.825 A 216.319 216.319 0 0 0 795.373 793.034 C 800.51 794.284 806.675 794.519 811.395 796.874 C 812.508 799.563 812.283 800.036 811.732 802.94 L 810.453 803.771 C 792.058 800.276 774.121 794.208 756.239 788.725 C 729.67 781.141 697.116 767.514 672.922 754.299 C 646.969 740.124 632.259 723.891 620.344 696.761 C 578.513 601.512 656.461 561.287 638.823 504.066 C 634.355 489.573 623.487 475.558 609.74 468.786 C 593.144 460.61 574.038 461.267 556.909 467.057 C 570.318 457 580.99 450.92 597.814 448.386 z"/>
<path transform="translate(0,0)" fill="rgb(245,244,232)" d="M 512.194 2013.84 C 524.12 1992.13 546.664 1979.21 569.881 1972.48 C 619.129 1958.21 662.886 1971.27 706.468 1995.45 C 731.931 2009.58 753.381 2026.95 773.395 2048 L 550.265 2048 C 535.77 2038.27 523.846 2026.79 512.194 2013.84 z"/>
<path transform="translate(0,0)" fill="rgb(155,135,128)" d="M 0 1210.51 L 289.58 1336.04 L 378.232 1374.92 C 393.77 1381.66 410.698 1387.48 425.498 1395.66 C 422.015 1410.21 419.102 1424.85 416.239 1439.54 C 376.156 1420.85 335.586 1403.57 295.112 1385.77 L 0 1257.58 L 0 1210.51 z"/>
<path transform="translate(0,0)" fill="rgb(245,244,232)" d="M 108.616 1312.21 C 126.092 1319.81 143.722 1327.17 160.907 1335.41 L 160.862 1809.34 A 20045.4 20045.4 0 0 0 160.969 2048 L 108.193 2048 L 108.532 1684.87 L 108.289 1475.69 C 108.177 1421.23 107.418 1366.66 108.616 1312.21 z"/>
<path transform="translate(0,0)" fill="rgb(110,86,85)" d="M 962.646 221.39 C 985.888 217.656 1012.02 224.128 1032.29 235.232 C 1017.84 237.807 1003.54 238.643 989.188 242.294 C 955.678 250.822 924.452 264.266 897.118 285.778 C 874.743 303.386 857.014 325.021 845.721 351.27 C 839.1 366.658 835.202 382.972 830.714 399.059 C 821.014 433.825 806.682 466.334 778.944 490.489 C 749.611 516.035 723.385 525.026 685.064 522.298 L 683.832 512.294 C 679.583 492.979 672.137 478.088 658.362 463.785 C 642.361 447.171 623.264 440.617 600.601 440.122 C 608.224 424.919 617.842 409.401 628.166 395.891 C 690.379 314.477 862.806 234.574 962.646 221.39 z"/>
<path transform="translate(0,0)" fill="rgb(155,135,128)" d="M 0 927.887 C 95.0066 970.33 189.944 1013.39 285.456 1054.65 L 453.359 1128.02 C 475.838 1137.89 498.943 1146.62 521.137 1157.07 C 503.897 1182.75 489.105 1207.4 476.963 1235.96 L 135.674 1088.16 L 44.041 1048.1 C 29.8471 1041.85 14.779 1033.71 0 1029.21 L 0 927.887 z"/>
<path transform="translate(0,0)" fill="rgb(245,244,232)" d="M 628.52 1089.55 A 549.795 549.795 0 0 1 739.162 1104.24 C 752.234 1171.89 768.57 1238.59 782.705 1305.99 C 794.154 1360.58 804.26 1415.48 815.954 1470.02 A 9349.23 9349.23 0 0 0 891.011 1791 A 13514.1 13514.1 0 0 0 933.31 1958.01 C 941.002 1987.86 947.872 2018.73 957.423 2048 L 870.921 2048 C 853.942 2020.35 841.173 1990.45 825.405 1962.17 L 789.354 1898.87 C 782.411 1886.74 774.704 1874.6 769.236 1861.71 C 762.558 1845.98 761.029 1828.21 754.876 1812.04 C 761.888 1778.13 761.744 1733.63 764.395 1698.27 C 770.23 1620.43 773.983 1543.44 773.386 1465.34 C 773.118 1430.31 772.853 1395.25 769.34 1360.36 A 854.117 854.117 0 0 0 750.926 1252.5 C 743.138 1219.03 733.326 1183.57 714.315 1154.65 C 693.095 1122.36 664.742 1102.09 628.52 1089.55 z"/>
<path transform="translate(0,0)" fill="rgb(245,244,232)" d="M 955.4 1450.71 C 973.051 1464.77 987.371 1481.77 1002.75 1498.13 C 1054.96 1553.64 1101.93 1611.72 1142.5 1676.29 C 1156.68 1698.84 1170.59 1721.84 1181.69 1746.09 C 1186.55 1756.73 1193.56 1769.62 1194.73 1781.24 C 1195.78 1791.64 1191.36 1805.4 1189.25 1815.71 C 1173.22 1894.14 1150.34 1972.2 1124.64 2048 L 1054.8 2048 L 1048.51 2048 A 10752.4 10752.4 0 0 0 1022.87 1867.55 A 6291.74 6291.74 0 0 0 993.774 1679.2 L 963.773 1515.59 C 960.356 1496.73 955.66 1477.78 952.949 1458.83 C 952.43 1455.2 953.251 1453.56 955.4 1450.71 z"/>
<path transform="translate(0,0)" fill="rgb(49,16,16)" d="M 955.4 1450.71 C 969.645 1490.57 975.433 1543.15 983.042 1585.23 C 989.294 1619.81 996.267 1654.25 1002.23 1688.88 A 6489.16 6489.16 0 0 1 1032.77 1886.26 L 1048.03 1996.72 C 1050.26 2013.41 1051.05 2031.66 1054.8 2048 L 1048.51 2048 A 10752.4 10752.4 0 0 0 1022.87 1867.55 A 6291.74 6291.74 0 0 0 993.774 1679.2 L 963.773 1515.59 C 960.356 1496.73 955.66 1477.78 952.949 1458.83 C 952.43 1455.2 953.251 1453.56 955.4 1450.71 z"/>
<path transform="translate(0,0)" fill="rgb(245,244,232)" d="M 0 1036.19 A 40156.7 40156.7 0 0 0 474.05 1242.37 C 456.603 1289.8 438.919 1338.8 427.315 1388.02 C 382.599 1370.03 338.496 1350.23 294.339 1330.9 A 13327 13327 0 0 0 93.5868 1244.02 C 62.4417 1230.85 31.7262 1215.9 0 1204.19 L 0 1036.19 z"/>
<path transform="translate(0,0)" fill="rgb(245,244,232)" d="M 0 1265.31 C 34.3116 1278.3 67.8016 1294.93 101.672 1309.23 A 6807.08 6807.08 0 0 1 101.895 1422 L 101.943 1611.18 L 102.049 2048 L 0 2048 L 0 1265.31 z"/>
<path transform="translate(0,0)" fill="rgb(110,86,85)" d="M 806.188 859.044 C 817.088 873.016 831.373 882.377 845.621 892.624 L 846.88 893.868 C 854.025 900.849 862.275 906.86 869.714 913.553 C 882.074 924.674 894.03 936.559 905.791 948.315 C 934.743 977.254 960.168 1010.08 984.632 1042.84 C 1000.36 1063.9 1015.24 1086.18 1029.84 1108.04 C 1036 1117.26 1041.2 1128.82 1048.77 1136.82 C 1049.79 1144.41 1043.76 1152.46 1039.51 1158.3 L 1038.04 1158.02 C 1040.46 1151.41 1044.05 1150.63 1046.61 1139.9 L 1045.9 1138.92 L 1046.13 1138.58 C 1045.17 1141.79 1045.16 1143.91 1042.45 1145.96 C 1042.27 1147.07 1042.3 1147.24 1041.73 1148.41 C 1040.31 1151.27 1036.85 1154.99 1033.92 1155.69 C 1019.42 1174.56 1003.53 1191.95 986.707 1208.76 C 967.804 1227.66 947.798 1245.76 927.938 1263.64 C 915.291 1275.04 901.777 1286.36 890.328 1298.92 C 886.945 1302.63 882.573 1307.79 881.38 1312.74 C 881.288 1313.13 881.327 1313.53 881.369 1313.93 C 881.857 1318.54 886.827 1322.97 890.048 1326.03 C 913.772 1348.58 940.148 1368.41 964.884 1389.81 C 981.533 1404.21 997.276 1419.73 1013.09 1435.03 C 1035.83 1457.06 1058.36 1479.27 1078.93 1503.37 C 1187.1 1630.12 1239.88 1730.86 1277.01 1893.5 C 1288.08 1941.98 1299.72 1998.33 1299.07 2048 L 1291.17 2048 L 1286.62 2048 L 1266.53 2048 C 1265.1 2033.17 1262.1 2018.47 1259.63 2003.78 C 1254.08 1970.87 1247.76 1938.48 1240.25 1905.94 C 1228.02 1852.93 1214.39 1798.18 1192.98 1748.04 C 1182.26 1722.92 1168.33 1699.01 1154.26 1675.66 C 1090.61 1570.08 1010.63 1485.57 918.783 1404.21 C 908.516 1395.12 898.355 1385.98 887.764 1377.26 C 871.417 1363.8 852.528 1350.34 839.219 1333.86 C 835.274 1328.97 833.048 1324.49 830.978 1318.64 C 840.454 1304.59 854.929 1292.11 866.829 1279.92 C 894.584 1251.49 923.58 1224.45 951.773 1196.48 C 971.841 1176.57 992.433 1156.75 1008.75 1133.52 C 1011.64 1129.4 1016.19 1123.43 1015.27 1118.2 C 1007.78 1109.86 981.577 1102.3 970.639 1098.36 C 892.262 1070.17 809.357 1052.32 727.177 1039.48 A 1732.2 1732.2 0 0 0 668.565 1030.94 C 654.678 1029.28 639.55 1028.83 625.986 1025.62 C 625.668 1025.54 625.351 1025.46 625.033 1025.38 C 638.347 1009.22 649.741 991.457 663.12 975.278 C 684.317 949.648 752.686 878.571 780.739 864.692 C 788.98 860.615 797.391 860.603 806.188 859.044 z"/>
<path transform="translate(0,0)" fill="rgb(49,16,16)" d="M 1286.62 2048 C 1279.23 2017.85 1275.14 1986.86 1269.47 1956.35 C 1265 1932.26 1258.85 1907.94 1252.54 1884.26 C 1235.39 1819.93 1214.29 1755.8 1183.91 1696.41 C 1172.92 1674.92 1159.59 1654.78 1146.36 1634.62 C 1073.6 1523.85 982.445 1439.26 882.703 1353.45 C 873.847 1345.83 851.031 1328.45 851.289 1316.02 C 851.378 1311.72 856.215 1306.04 859.068 1303.04 C 867.474 1294.21 877.259 1286.4 885.975 1277.81 C 899.768 1264.2 912.754 1249.8 926.575 1236.2 C 941.711 1221.31 957.648 1207.17 972.458 1191.96 C 993.458 1170.4 1011.93 1146.41 1032.23 1124.19 C 1038.66 1127.59 1042.48 1133.72 1048.77 1136.82 C 1049.79 1144.41 1043.76 1152.46 1039.51 1158.3 L 1038.04 1158.02 C 1040.46 1151.41 1044.05 1150.63 1046.61 1139.9 L 1045.9 1138.92 L 1046.13 1138.58 C 1045.17 1141.79 1045.16 1143.91 1042.45 1145.96 C 1042.27 1147.07 1042.3 1147.24 1041.73 1148.41 C 1040.31 1151.27 1036.85 1154.99 1033.92 1155.69 L 1043.62 1141 L 1031.2 1132.84 C 1017.49 1151.73 1003.22 1169.2 987.103 1186.08 C 965.234 1208.97 863.339 1300.23 858.609 1319.22 C 863.159 1332.39 929.867 1385.77 944.356 1398.39 A 1201.04 1201.04 0 0 1 1080.02 1535.66 C 1119.66 1582.34 1156.96 1633.12 1185.88 1687.23 C 1243.55 1795.15 1271.68 1928 1291.17 2048 L 1286.62 2048 z"/>
<path transform="translate(0,0)" fill="rgb(245,244,232)" d="M 1031.2 1132.84 L 1043.62 1141 L 1033.92 1155.69 C 1019.42 1174.56 1003.53 1191.95 986.707 1208.76 C 967.804 1227.66 947.798 1245.76 927.938 1263.64 C 915.291 1275.04 901.777 1286.36 890.328 1298.92 C 886.945 1302.63 882.573 1307.79 881.38 1312.74 C 881.288 1313.13 881.327 1313.53 881.369 1313.93 C 881.857 1318.54 886.827 1322.97 890.048 1326.03 C 913.772 1348.58 940.148 1368.41 964.884 1389.81 C 981.533 1404.21 997.276 1419.73 1013.09 1435.03 C 1035.83 1457.06 1058.36 1479.27 1078.93 1503.37 C 1187.1 1630.12 1239.88 1730.86 1277.01 1893.5 C 1288.08 1941.98 1299.72 1998.33 1299.07 2048 L 1291.17 2048 C 1271.68 1928 1243.55 1795.15 1185.88 1687.23 C 1156.96 1633.12 1119.66 1582.34 1080.02 1535.66 A 1201.04 1201.04 0 0 0 944.356 1398.39 C 929.867 1385.77 863.159 1332.39 858.609 1319.22 C 863.339 1300.23 965.234 1208.97 987.103 1186.08 C 1003.22 1169.2 1017.49 1151.73 1031.2 1132.84 z"/>
<path transform="translate(0,0)" fill="rgb(245,244,232)" d="M 745.253 1105.07 A 1811.62 1811.62 0 0 1 871.512 1134.85 C 882.942 1168.43 891.781 1203.32 902.238 1237.27 C 887.386 1249.86 873.627 1264.33 859.624 1277.89 C 849.451 1287.74 837.204 1297.73 828.676 1308.95 C 826.427 1311.91 824.695 1314.62 824.343 1318.39 C 823.793 1324.29 826.604 1330.04 829.876 1334.75 C 840.03 1349.38 856.203 1361.67 869.467 1373.43 A 7389.66 7389.66 0 0 0 927.627 1424.52 C 936.418 1432.21 947.318 1440.06 954.375 1449.31 C 954.725 1449.77 955.059 1450.24 955.4 1450.71 C 953.251 1453.56 952.43 1455.2 952.949 1458.83 C 955.66 1477.78 960.356 1496.73 963.773 1515.59 L 993.774 1679.2 A 6291.74 6291.74 0 0 1 1022.87 1867.55 A 10752.4 10752.4 0 0 1 1048.51 2048 L 963.698 2048 C 955.994 2023.43 951.044 1997.53 944.671 1972.55 L 904.385 1814.49 A 10032.6 10032.6 0 0 1 837.938 1538.75 C 819.542 1455.19 803.659 1371.09 785.887 1287.4 C 772.951 1226.47 757.715 1166.08 745.253 1105.07 z"/>
<path transform="translate(0,0)" fill="rgb(245,244,232)" d="M 168.115 1338.97 C 250.472 1374.13 333.403 1408.56 414.798 1445.91 C 407.289 1487.76 399.452 1529.47 393.568 1571.61 C 389.903 1597.86 388.409 1625.23 383.397 1651.15 C 377.663 1680.81 369.781 1710.25 363.466 1739.82 C 341.905 1840.77 323.856 1944.4 327.867 2048 L 167.929 2048 L 168.115 1338.97 z"/>
<path transform="translate(0,0)" fill="rgb(245,244,232)" d="M 902.45 683.705 C 881.199 679.164 860.397 670.121 844.107 655.442 C 826.051 639.17 811.133 616.845 810.091 591.986 C 809.632 581.016 811.253 566.811 819.239 558.663 C 838.692 538.816 876.162 563.843 898.918 564.066 C 909.955 564.175 919.308 561.509 927.219 553.65 C 943.181 537.794 956.247 515.534 964.947 494.912 C 982.172 454.082 979.592 408.717 953.05 372.477 C 941.566 356.796 916.701 339.165 917.098 318.192 C 917.375 303.548 926.703 291.958 936.89 282.407 C 960.366 260.396 998.951 243.079 1031.58 244.775 C 1046.98 245.575 1058.27 257.716 1070.32 266.108 C 1099.03 286.103 1144.56 316.158 1160.87 347.392 C 1171.59 367.903 1166.47 401.486 1181.83 418.432 C 1182.04 418.657 1182.25 418.876 1182.46 419.097 C 1182.68 419.386 1182.89 419.677 1183.12 419.962 C 1194 433.889 1240.49 447.712 1258 452.831 C 1266.69 455.369 1281.69 457.65 1288.44 463.535 C 1291.31 466.045 1292.29 471.131 1291.79 474.774 C 1288.57 498.422 1242.87 508.666 1268.65 546.413 C 1270.32 548.852 1272.44 551.017 1274.49 553.128 L 1278.66 552.953 C 1280 554.531 1281.46 556.05 1282.54 557.824 L 1279.58 560.293 C 1279.8 563.326 1280.42 565.7 1278.25 568.247 C 1274.03 573.205 1233.98 588.384 1225.8 590.548 C 1223.4 592.396 1222.18 592.735 1221.41 595.735 L 1222.45 597.467 L 1223.41 599.212 C 1229.52 600.941 1236.95 599.94 1243.31 600.064 C 1256.19 599.963 1268.43 596.408 1281.12 595.033 L 1282.63 595.474 L 1284 594.714 C 1284 594.427 1284 594.139 1283.99 593.851 C 1283.89 589.332 1282.72 586.486 1280.02 582.925 L 1280.71 581.999 C 1283.56 585.049 1290.88 593.559 1291.31 597.629 C 1291.62 600.677 1290.68 604.853 1290.38 607.937 C 1288.56 626.312 1288.36 629.377 1300.82 643.234 C 1312.42 656.142 1323.33 666.489 1322.35 685.432 C 1321.94 693.566 1321.58 697.548 1315.41 703.229 C 1309.16 708.991 1301.64 712.724 1294.36 716.96 L 1296.08 717.752 C 1295.81 717.915 1295.54 718.081 1295.26 718.242 C 1275.36 729.796 1248.09 738.978 1226.6 749.16 C 1208.22 757.867 1185.33 768.392 1170.53 782.3 C 1143.85 807.371 1123.17 889.559 1109.99 925.843 C 1116.72 928.977 1125.18 933.473 1127.6 941.031 C 1129.16 945.941 1127.16 951.533 1128.71 956.142 C 1130.88 962.571 1137.03 966.842 1139.37 973.947 C 1138.61 974.262 1139.11 974.145 1137.82 973.816 L 1134.85 968.58 C 1134.58 970.675 1134.79 970.037 1134.17 971.757 C 1134.04 972.112 1133.9 972.461 1133.77 972.813 C 1134.92 976.997 1136.16 980.89 1136.07 985.275 L 1134.97 986.758 C 1133.38 986.151 1132.51 985.726 1131.09 984.69 L 1128.8 987.815 C 1135.07 993.328 1136.59 995.237 1137.57 1003.74 C 1135.98 1015.86 1129.92 1034.22 1120.15 1041.92 C 1119.28 1042.61 1118.39 1043.24 1117.44 1043.81 L 1114.39 1045.28 C 1114.26 1045.17 1114.15 1045.03 1114.01 1044.94 C 1111.19 1043.17 1110.86 1043.73 1107.72 1044.61 C 1101.17 1047.92 1093.81 1051.98 1086.31 1051.98 C 1079.23 1051.98 1074.9 1049.37 1069.96 1044.55 C 1067.35 1045.13 1064.65 1045.81 1061.99 1046.11 C 1053.97 1047.01 1046.23 1044.61 1039.85 1039.77 C 1035.83 1036.85 1032.51 1033.16 1029.07 1029.6 C 1023.11 1029.39 1018.62 1028.4 1013.1 1026.05 L 1008.38 1023.38 L 1007.61 1022.32 A 452.324 452.324 0 0 1 1003.48 1009.34 L 1001.84 1008.1 C 1002.15 1006 1002.57 1004.07 1003.18 1002.04 L 1001.66 997.105 C 998.434 1000.31 994.721 1005.32 990.031 1005.86 C 984.317 998.967 976.162 992.857 969.494 986.792 C 972.733 983.753 975.469 980.936 977.885 977.197 L 976.58 975.471 L 974.956 976.924 L 972.989 977.217 C 970.664 978.531 969.156 979.28 966.458 979.68 C 957.708 977.474 951.391 967.696 944.835 961.747 L 942.063 960.878 L 942.579 959.535 C 935.917 951.614 926.89 945.166 918.87 938.66 L 921.382 936.442 C 919.176 935.975 918.023 934.879 916.317 933.465 C 911.251 929.554 906.409 925.525 901.648 921.248 C 901.57 919.457 905.371 914.913 906.536 913.221 C 910.704 909.482 912.562 902.5 914.306 897.272 L 913.82 896.448 L 914.663 894.788 L 913.922 893.235 L 914.698 891.405 C 916.578 879.909 899.455 880.609 894.62 876.155 C 892.915 874.585 891.724 871.253 890.492 869.278 C 886.508 862.895 856.052 848.651 848.034 846.756 C 847.78 846.053 847.712 845.258 847.844 844.522 C 847.894 844.247 878.547 804.233 880.865 801.884 C 889.896 792.73 901.064 787.127 909.106 776.56 C 917.198 765.927 923.37 752.637 926.663 739.725 C 930.302 741.27 933.969 742.875 937.719 744.132 C 950.966 748.572 963.985 747.96 976.479 741.625 C 989.601 734.971 1000.81 722.306 1005.16 708.217 C 1009.18 695.149 1007.28 680.179 1000.74 668.246 C 994.161 656.237 982.911 647.705 969.836 643.894 C 956.42 639.983 940.055 641.189 927.774 648.092 C 913.502 656.114 906.87 668.624 902.45 683.705 z"/>
<path transform="translate(0,0)" fill="rgb(49,16,16)" d="M 1118.23 387.824 C 1120.99 385.25 1123.93 381.403 1127.6 380.543 C 1130.12 383.602 1130.89 387.455 1132.71 390.911 C 1130.89 391.868 1129.15 392.223 1127.1 392.263 C 1123.26 392.338 1120.9 390.252 1118.23 387.824 z"/>
<path transform="translate(0,0)" fill="rgb(49,16,16)" d="M 865.912 637.389 C 866.213 637.627 866.512 637.87 866.817 638.105 C 874.343 643.912 892.073 645.735 893.882 647.557 C 893.257 649.301 893.718 649.215 892.15 649.844 C 886.204 652.227 876.744 650.214 871.273 647.302 C 868.117 645.621 865.565 643.219 863.068 640.701 L 865.912 637.389 z"/>
<path transform="translate(0,0)" fill="rgb(8,0,0)" d="M 1284 594.714 C 1286.85 595.669 1286.75 595.49 1288.14 598.134 C 1288.27 608.483 1284.21 621.914 1288.84 631.533 C 1290.63 635.26 1295.22 638.061 1295.87 642.065 L 1294.63 642.187 C 1276.24 622.318 1291.56 607.158 1285.46 597.11 C 1272.16 603.563 1259.03 603.039 1244.57 602.894 C 1242.67 602.335 1240.67 601.998 1238.74 601.579 L 1243.31 600.064 C 1256.19 599.963 1268.43 596.408 1281.12 595.033 L 1282.63 595.474 L 1284 594.714 z"/>
<path transform="translate(0,0)" fill="rgb(49,16,16)" d="M 1217.8 587.353 C 1220.56 588.98 1222.65 589.929 1225.8 590.548 C 1223.4 592.396 1222.18 592.735 1221.41 595.735 L 1222.45 597.467 L 1223.41 599.212 C 1229.52 600.941 1236.95 599.94 1243.31 600.064 L 1238.74 601.579 C 1240.67 601.998 1242.67 602.335 1244.57 602.894 C 1232.14 603.568 1219.19 599.681 1207.01 602.936 C 1204.04 603.73 1200.4 605.15 1197.32 604.686 C 1195.69 604.439 1195.58 603.25 1194.82 601.947 C 1200.42 594.858 1211.27 595.995 1217.21 588.159 C 1217.41 587.894 1217.6 587.622 1217.8 587.353 z"/>
<path transform="translate(0,0)" fill="rgb(49,16,16)" d="M 1269 484.736 C 1270.68 484.606 1271.58 484.672 1273.23 485.189 C 1275.24 485.817 1274.49 485.351 1275.55 487.459 C 1270.55 493.959 1258.82 499.969 1252.16 505.171 C 1247.74 508.625 1243.72 512.628 1239.73 516.563 C 1237.51 516.773 1235.94 516.83 1233.78 516.241 L 1232.82 514.32 C 1235.64 505.714 1260.52 489.233 1269 484.736 z"/>
<path transform="translate(0,0)" fill="rgb(8,0,0)" d="M 859.265 567.628 C 868.847 571.663 877.606 579.535 884.464 587.245 L 884.441 588.618 C 878.452 587.984 873.068 591.671 868.384 595.442 C 862.313 600.33 858.718 606.899 858.084 614.697 C 857.356 623.656 860.615 630.501 865.912 637.389 L 863.068 640.701 C 858.866 636.213 855.212 631.298 853.288 625.392 C 850.736 617.556 850.956 608.693 855.115 601.431 C 860.28 592.412 867.975 590.327 877.293 587.788 C 870.882 582.011 864.909 576.384 857.253 572.269 L 857.885 571.519 C 865.052 571.474 873.703 582.834 879.607 586.754 L 880.903 586.461 C 876.31 580.61 861.712 572.26 859.566 568.4 C 859.431 568.159 859.365 567.885 859.265 567.628 z"/>
<path transform="translate(0,0)" fill="rgb(61,26,29)" d="M 902.452 580.507 C 903.773 580.747 905.092 581.222 906.381 581.601 C 907.892 583.789 907.869 585.749 907.773 588.318 C 907.447 597.076 901.563 598.603 896.091 603.964 C 894.272 605.746 893.314 607.67 893.571 610.301 C 894.557 620.377 905.577 628.437 912.403 634.904 C 907.74 634.447 903.463 633.917 898.8 634.727 C 896.948 634.32 895.368 634.322 893.477 634.395 C 891.965 635.622 890.763 636.558 888.94 637.313 C 887.214 638.029 887.93 637.943 886.157 637.22 L 886.071 635.825 C 888.81 633.234 891.588 631.192 894.725 629.106 C 893.831 627.761 892.948 626.429 892.142 625.028 C 878.682 601.668 898.696 595.76 900.791 585.634 C 901.207 583.625 901.633 582.416 902.452 580.507 z"/>
<path transform="translate(0,0)" fill="rgb(49,16,16)" d="M 857.253 572.269 C 851.263 570.427 844.082 568.116 837.838 569.708 C 833.98 570.692 830.977 572.832 828.973 576.307 C 822.442 587.633 827.771 607.744 833.392 618.856 C 835.392 622.811 838.739 626.718 839.811 630.979 C 835.54 628.26 824.362 609.603 822.473 604.451 C 819.044 595.094 819.226 583.323 823.768 574.363 C 826.475 569.022 830.955 564.934 836.773 563.287 C 844.119 561.208 852.833 564.042 859.265 567.628 C 859.365 567.885 859.431 568.159 859.566 568.4 C 861.712 572.26 876.31 580.61 880.903 586.461 L 879.607 586.754 C 873.703 582.834 865.052 571.474 857.885 571.519 L 857.253 572.269 z"/>
<path transform="translate(0,0)" fill="rgb(110,86,85)" d="M 1278.66 552.953 C 1280 554.531 1281.46 556.05 1282.54 557.824 L 1279.58 560.293 C 1279.8 563.326 1280.42 565.7 1278.25 568.247 C 1274.03 573.205 1233.98 588.384 1225.8 590.548 C 1222.65 589.929 1220.56 588.98 1217.8 587.353 C 1224.14 582.447 1231.3 577.685 1238.17 573.568 C 1247.45 565.656 1262.29 555.354 1274.49 553.128 L 1278.66 552.953 z"/>
<path transform="translate(0,0)" fill="rgb(61,26,29)" d="M 1278.66 552.953 C 1280 554.531 1281.46 556.05 1282.54 557.824 L 1279.58 560.293 C 1276.3 558.094 1273.52 558.005 1269.66 558.764 C 1261.3 560.41 1244.69 575.711 1238.17 573.568 C 1247.45 565.656 1262.29 555.354 1274.49 553.128 L 1278.66 552.953 z"/>
<path transform="translate(0,0)" fill="rgb(49,16,16)" d="M 1096.86 355.388 C 1107.73 353.918 1119.87 354.1 1130.77 355.423 C 1136.13 356.073 1146.67 357.315 1150 361.563 C 1149.93 364.443 1149.62 365.494 1147.9 367.811 C 1139.32 373.105 1123.48 368.62 1113.29 369.335 C 1081.64 371.557 1060.15 387.66 1040.12 411.001 C 1030.73 423.398 1025.16 435.451 1018.66 449.416 C 1020.34 428.66 1028.12 409.606 1041.14 393.357 C 1056.06 374.731 1072.08 358.022 1096.86 355.388 z"/>
<path transform="translate(0,0)" fill="rgb(49,16,16)" d="M 1118.23 387.824 C 1120.9 390.252 1123.26 392.338 1127.1 392.263 C 1129.15 392.223 1130.89 391.868 1132.71 390.911 C 1134.98 393.237 1136.77 397.385 1138.46 400.231 C 1141.63 398.223 1145.63 395.784 1149.48 396.027 C 1150.65 398.897 1148.08 404.243 1147.16 407.317 L 1147.99 408.823 C 1155.47 408.315 1163.5 400.98 1169.34 396.728 C 1168.69 399.786 1168.05 402.88 1167.12 405.867 C 1163.33 418.098 1152.74 422.858 1142.19 428.189 C 1144.66 438.01 1147.66 447.009 1142.28 456.433 C 1142.09 456.766 1141.89 457.094 1141.69 457.425 C 1150.95 460.479 1166.65 450.509 1174.55 455.64 C 1173.21 458.12 1172.17 458.97 1169.58 460.149 C 1146.13 470.841 1103.48 467.247 1079.59 459.02 C 1074.02 461.228 1068.44 463.966 1062.34 462.604 L 1061.54 460.959 C 1063.76 455.738 1070.21 451.59 1074.44 447.96 C 1093.34 431.767 1110.36 419.492 1133.34 409.438 C 1129.7 404.532 1126.09 400.847 1121.29 397.131 C 1087.2 407.134 1083.34 425.46 1062.44 450.112 L 1061.74 450.929 L 1062.1 449.973 L 1062.73 448.386 L 1063.31 446.847 C 1073.24 421.168 1093.16 399.092 1118.23 387.824 z"/>
<path transform="translate(0,0)" fill="rgb(245,244,232)" d="M 1111.81 440.994 C 1114.34 443.771 1116.45 453.19 1118.35 457.098 L 1095.75 456.961 C 1094.04 456.911 1092.74 456.697 1091.09 456.336 C 1092.54 451.107 1106.91 444.028 1111.81 440.994 z"/>
<path transform="translate(0,0)" fill="rgb(49,16,16)" d="M 914.306 897.272 L 913.82 896.448 L 914.663 894.788 L 913.922 893.235 L 914.698 891.405 C 922.628 893.273 928.133 896.022 932.609 903.054 C 934.561 906.121 935.919 909.531 937.293 912.883 C 945.413 915.308 954.235 918.806 958.384 926.784 C 959.643 929.204 960.371 932.042 961.025 934.672 C 969.588 937.613 978.806 940.61 983.02 949.445 C 984 951.502 984.858 953.62 985.716 955.73 C 995.818 959.345 1005.43 962.213 1010.58 972.52 C 1012.06 975.484 1013.28 978.637 1014.53 981.702 C 1021.9 980.861 1028.19 980.985 1034.3 985.703 C 1038.41 988.875 1041.31 993.3 1043.97 997.686 C 1050.45 995.453 1055.03 995.171 1061.76 996.056 C 1062.98 996.216 1064 996.218 1065.22 996.072 L 1066.69 994.879 C 1071.5 990.037 1075.56 988.951 1082.16 987.526 C 1085.63 969.541 1089.23 947.966 1096.71 931.233 L 1097.78 932.617 C 1093.15 947.821 1088.11 963.946 1085.63 979.638 C 1088.24 981.628 1088.93 982.831 1089.77 986.096 L 1091.06 983.887 C 1093.33 982.071 1095.18 981.653 1097.93 981.063 C 1100.86 982.227 1101.78 981.897 1104.82 981.446 L 1107.14 985.386 C 1115.08 984.686 1121.41 984.107 1128.8 987.815 C 1135.07 993.328 1136.59 995.237 1137.57 1003.74 C 1135.98 1015.86 1129.92 1034.22 1120.15 1041.92 C 1119.28 1042.61 1118.39 1043.24 1117.44 1043.81 L 1114.39 1045.28 C 1114.26 1045.17 1114.15 1045.03 1114.01 1044.94 C 1111.19 1043.17 1110.86 1043.73 1107.72 1044.61 C 1101.17 1047.92 1093.81 1051.98 1086.31 1051.98 C 1079.23 1051.98 1074.9 1049.37 1069.96 1044.55 C 1067.35 1045.13 1064.65 1045.81 1061.99 1046.11 C 1053.97 1047.01 1046.23 1044.61 1039.85 1039.77 C 1035.83 1036.85 1032.51 1033.16 1029.07 1029.6 C 1023.11 1029.39 1018.62 1028.4 1013.1 1026.05 L 1008.38 1023.38 L 1007.61 1022.32 A 452.324 452.324 0 0 1 1003.48 1009.34 L 1001.84 1008.1 C 1002.15 1006 1002.57 1004.07 1003.18 1002.04 L 1001.66 997.105 C 998.434 1000.31 994.721 1005.32 990.031 1005.86 C 984.317 998.967 976.162 992.857 969.494 986.792 C 972.733 983.753 975.469 980.936 977.885 977.197 L 976.58 975.471 L 974.956 976.924 L 972.989 977.217 C 970.664 978.531 969.156 979.28 966.458 979.68 C 957.708 977.474 951.391 967.696 944.835 961.747 L 942.063 960.878 L 942.579 959.535 C 935.917 951.614 926.89 945.166 918.87 938.66 L 921.382 936.442 C 919.176 935.975 918.023 934.879 916.317 933.465 C 911.251 929.554 906.409 925.525 901.648 921.248 C 901.57 919.457 905.371 914.913 906.536 913.221 C 910.704 909.482 912.562 902.5 914.306 897.272 z"/>
<path transform="translate(0,0)" fill="rgb(245,244,232)" d="M 914.306 897.272 C 917.507 896.595 920.692 898.488 923.372 900.122 C 926.713 902.159 928.852 906.069 929.634 909.818 C 930.705 914.954 929.686 920.791 926.798 925.178 C 924.095 929.284 920.748 931.531 916.317 933.465 C 911.251 929.554 906.409 925.525 901.648 921.248 C 901.57 919.457 905.371 914.913 906.536 913.221 C 910.704 909.482 912.562 902.5 914.306 897.272 z"/>
<path transform="translate(0,0)" fill="rgb(245,244,232)" d="M 936.966 918.282 C 943.762 920.746 950.377 923.54 953.759 930.393 C 954.837 932.577 955.257 934.939 955.652 937.322 C 953.486 946.591 948.882 952.674 942.579 959.535 C 935.917 951.614 926.89 945.166 918.87 938.66 L 921.382 936.442 C 928.677 931.72 932.985 925.94 936.966 918.282 z"/>
<path transform="translate(0,0)" fill="rgb(245,244,232)" d="M 955.652 937.322 C 958.931 938.182 958.962 938.02 960.712 940.96 C 960.79 941.09 960.847 941.232 960.914 941.368 L 962.348 940.412 C 969.002 941.885 973.96 946.857 977.645 952.398 C 979.258 954.825 980.381 957.417 981.43 960.122 C 979.497 966.69 976.538 971.005 973.134 976.798 C 973.059 976.925 973.037 977.077 972.989 977.217 C 970.664 978.531 969.156 979.28 966.458 979.68 C 957.708 977.474 951.391 967.696 944.835 961.747 L 942.063 960.878 L 942.579 959.535 C 948.882 952.674 953.486 946.591 955.652 937.322 z"/>
<path transform="translate(0,0)" fill="rgb(8,0,0)" d="M 955.652 937.322 C 958.931 938.182 958.962 938.02 960.712 940.96 C 960.79 941.09 960.847 941.232 960.914 941.368 C 957.111 950.398 953.377 956.419 944.835 961.747 L 942.063 960.878 L 942.579 959.535 C 948.882 952.674 953.486 946.591 955.652 937.322 z"/>
<path transform="translate(0,0)" fill="rgb(245,244,232)" d="M 985.921 962.9 C 993.341 964.355 999.193 965.473 1003.9 972.063 C 1006.98 976.367 1007.61 981.552 1006.62 986.678 C 1005.88 990.51 1003.67 993.829 1001.66 997.105 C 998.434 1000.31 994.721 1005.32 990.031 1005.86 C 984.317 998.967 976.162 992.857 969.494 986.792 C 972.733 983.753 975.469 980.936 977.885 977.197 C 981.673 973.433 983.94 967.801 985.921 962.9 z"/>
<path transform="translate(0,0)" fill="rgb(245,244,232)" d="M 1003.18 1002.04 L 1003.84 1001.33 C 1009.79 994.816 1012.57 986.19 1022.69 985.734 C 1026.4 985.567 1029.71 986.95 1032.32 989.531 C 1036.43 993.588 1038.12 999.522 1037.84 1005.18 C 1037.51 1011.9 1034.06 1018.12 1029.17 1022.59 L 1030.43 1023.95 C 1030.23 1026.09 1029.9 1027.62 1029.07 1029.6 C 1023.11 1029.39 1018.62 1028.4 1013.1 1026.05 L 1008.38 1023.38 L 1007.61 1022.32 A 452.324 452.324 0 0 1 1003.48 1009.34 L 1001.84 1008.1 C 1002.15 1006 1002.57 1004.07 1003.18 1002.04 z"/>
<path transform="translate(0,0)" fill="rgb(49,16,16)" d="M 1003.48 1009.34 C 1009.75 1012.64 1011.39 1018.1 1016.2 1022.7 L 1013.1 1026.05 L 1008.38 1023.38 L 1007.61 1022.32 A 452.324 452.324 0 0 1 1003.48 1009.34 z"/>
<path transform="translate(0,0)" fill="rgb(8,0,0)" d="M 1016.2 1022.7 C 1020.69 1023.1 1024.7 1023.24 1029.17 1022.59 L 1030.43 1023.95 C 1030.23 1026.09 1029.9 1027.62 1029.07 1029.6 C 1023.11 1029.39 1018.62 1028.4 1013.1 1026.05 L 1016.2 1022.7 z"/>
<path transform="translate(0,0)" fill="rgb(245,244,232)" d="M 1096.71 931.233 L 1097.78 932.617 C 1093.15 947.821 1088.11 963.946 1085.63 979.638 C 1088.24 981.628 1088.93 982.831 1089.77 986.096 L 1091.06 983.887 C 1093.33 982.071 1095.18 981.653 1097.93 981.063 C 1100.86 982.227 1101.78 981.897 1104.82 981.446 L 1107.14 985.386 C 1115.08 984.686 1121.41 984.107 1128.8 987.815 C 1135.07 993.328 1136.59 995.237 1137.57 1003.74 C 1135.98 1015.86 1129.92 1034.22 1120.15 1041.92 C 1119.28 1042.61 1118.39 1043.24 1117.44 1043.81 L 1114.39 1045.28 C 1114.26 1045.17 1114.15 1045.03 1114.01 1044.94 C 1111.19 1043.17 1110.86 1043.73 1107.72 1044.61 C 1101.17 1047.92 1093.81 1051.98 1086.31 1051.98 C 1079.23 1051.98 1074.9 1049.37 1069.96 1044.55 C 1067.35 1045.13 1064.65 1045.81 1061.99 1046.11 C 1053.97 1047.01 1046.23 1044.61 1039.85 1039.77 C 1039.08 1034.3 1033.9 1031.44 1032.63 1025.86 C 1040.25 1022.36 1040.88 1012.45 1044.26 1005.89 C 1046.86 1000.83 1051.37 1000.15 1056.4 998.821 C 1065.34 1001.09 1071.69 1002.85 1077.28 1010.71 L 1078.83 1008.47 C 1080.19 1010.48 1080.02 1011.25 1082.49 1011.77 C 1080.1 1005.56 1075.96 1002.51 1070.91 998.517 C 1069.43 997.563 1068.02 996.047 1066.69 994.879 C 1071.5 990.037 1075.56 988.951 1082.16 987.526 C 1085.63 969.541 1089.23 947.966 1096.71 931.233 z"/>
<path transform="translate(0,0)" fill="rgb(49,16,16)" d="M 1096.71 931.233 L 1097.78 932.617 C 1093.15 947.821 1088.11 963.946 1085.63 979.638 C 1088.24 981.628 1088.93 982.831 1089.77 986.096 L 1091.06 983.887 C 1093.33 982.071 1095.18 981.653 1097.93 981.063 C 1100.86 982.227 1101.78 981.897 1104.82 981.446 L 1107.14 985.386 C 1102.97 987.107 1100.99 989.177 1098.19 992.626 C 1106.57 997.583 1112.89 1001.31 1115.48 1011.33 C 1115.27 1011.08 1115.05 1010.84 1114.84 1010.6 C 1112.91 1008.34 1111.89 1006.77 1110.99 1003.94 L 1108.94 1003.42 C 1109.32 1005.32 1109.98 1006.58 1110.85 1008.27 C 1114.23 1014.82 1113.26 1023.54 1110.98 1030.34 C 1109.79 1033.86 1108.02 1038.2 1105.06 1040.51 L 1101.06 1040.57 C 1106.02 1036.27 1109.14 1031.06 1110.77 1024.67 C 1112.26 1018.83 1111.27 1012.19 1108.14 1007.04 C 1102.34 997.477 1091.83 994.624 1081.68 992.213 C 1077.7 994.009 1074.36 995.838 1070.91 998.517 C 1069.43 997.563 1068.02 996.047 1066.69 994.879 C 1071.5 990.037 1075.56 988.951 1082.16 987.526 C 1085.63 969.541 1089.23 947.966 1096.71 931.233 z"/>
<path transform="translate(0,0)" fill="rgb(61,26,29)" d="M 1097.93 981.063 C 1100.86 982.227 1101.78 981.897 1104.82 981.446 L 1107.14 985.386 C 1102.97 987.107 1100.99 989.177 1098.19 992.626 C 1095.41 993.034 1093.76 993.287 1091 992.476 C 1089.37 989.897 1089.68 989.072 1089.77 986.096 L 1091.06 983.887 C 1093.33 982.071 1095.18 981.653 1097.93 981.063 z"/>
<path transform="translate(0,0)" fill="rgb(61,26,29)" d="M 1101.06 1040.57 L 1105.06 1040.51 C 1108.02 1038.2 1109.79 1033.86 1110.98 1030.34 C 1113.26 1023.54 1114.23 1014.82 1110.85 1008.27 C 1109.98 1006.58 1109.32 1005.32 1108.94 1003.42 L 1110.99 1003.94 C 1111.89 1006.77 1112.91 1008.34 1114.84 1010.6 C 1115.05 1010.84 1115.27 1011.08 1115.48 1011.33 C 1119.01 1023.64 1111.24 1032.39 1113.09 1039.69 C 1113.53 1041.42 1116.1 1042.9 1117.44 1043.81 L 1114.39 1045.28 C 1114.26 1045.17 1114.15 1045.03 1114.01 1044.94 C 1111.19 1043.17 1110.86 1043.73 1107.72 1044.61 C 1101.17 1047.92 1093.81 1051.98 1086.31 1051.98 C 1079.23 1051.98 1074.9 1049.37 1069.96 1044.55 C 1067.35 1045.13 1064.65 1045.81 1061.99 1046.11 C 1053.97 1047.01 1046.23 1044.61 1039.85 1039.77 C 1039.08 1034.3 1033.9 1031.44 1032.63 1025.86 C 1039.41 1028.22 1044.86 1035.18 1051.52 1038.57 C 1055.73 1040.71 1060.34 1041.74 1064.91 1040.14 C 1070.1 1038.33 1075.42 1033.08 1077.57 1028.08 C 1080.04 1022.33 1079.33 1016.43 1077.28 1010.71 L 1078.83 1008.47 C 1080.19 1010.48 1080.02 1011.25 1082.49 1011.77 C 1082.74 1012.37 1082.99 1012.97 1083.22 1013.58 C 1087.45 1024.71 1074.16 1039.53 1078.81 1044.9 C 1087.35 1046.77 1093.6 1044.33 1101.06 1040.57 z"/>
<path transform="translate(0,0)" fill="rgb(245,244,232)" d="M 1107.14 985.386 C 1115.08 984.686 1121.41 984.107 1128.8 987.815 C 1135.07 993.328 1136.59 995.237 1137.57 1003.74 C 1135.98 1015.86 1129.92 1034.22 1120.15 1041.92 C 1119.28 1042.61 1118.39 1043.24 1117.44 1043.81 C 1116.1 1042.9 1113.53 1041.42 1113.09 1039.69 C 1111.24 1032.39 1119.01 1023.64 1115.48 1011.33 C 1112.89 1001.31 1106.57 997.583 1098.19 992.626 C 1100.99 989.177 1102.97 987.107 1107.14 985.386 z"/>
<path transform="translate(0,0)" fill="rgb(245,244,232)" d="M 1032.63 1025.86 C 1040.25 1022.36 1040.88 1012.45 1044.26 1005.89 C 1046.86 1000.83 1051.37 1000.15 1056.4 998.821 C 1065.34 1001.09 1071.69 1002.85 1077.28 1010.71 C 1079.33 1016.43 1080.04 1022.33 1077.57 1028.08 C 1075.42 1033.08 1070.1 1038.33 1064.91 1040.14 C 1060.34 1041.74 1055.73 1040.71 1051.52 1038.57 C 1044.86 1035.18 1039.41 1028.22 1032.63 1025.86 z"/>
<path transform="translate(0,0)" fill="rgb(61,26,29)" d="M 1284 594.714 C 1284 594.427 1284 594.139 1283.99 593.851 C 1283.89 589.332 1282.72 586.486 1280.02 582.925 L 1280.71 581.999 C 1283.56 585.049 1290.88 593.559 1291.31 597.629 C 1291.62 600.677 1290.68 604.853 1290.38 607.937 C 1288.56 626.312 1288.36 629.377 1300.82 643.234 C 1312.42 656.142 1323.33 666.489 1322.35 685.432 C 1321.94 693.566 1321.58 697.548 1315.41 703.229 C 1309.16 708.991 1301.64 712.724 1294.36 716.96 L 1296.08 717.752 C 1295.81 717.915 1295.54 718.081 1295.26 718.242 C 1275.36 729.796 1248.09 738.978 1226.6 749.16 C 1208.22 757.867 1185.33 768.392 1170.53 782.3 C 1143.85 807.371 1123.17 889.559 1109.99 925.843 C 1116.72 928.977 1125.18 933.473 1127.6 941.031 C 1129.16 945.941 1127.16 951.533 1128.71 956.142 C 1130.88 962.571 1137.03 966.842 1139.37 973.947 C 1138.61 974.262 1139.11 974.145 1137.82 973.816 L 1134.85 968.58 C 1134.58 970.675 1134.79 970.037 1134.17 971.757 C 1134.04 972.112 1133.9 972.461 1133.77 972.813 C 1134.92 976.997 1136.16 980.89 1136.07 985.275 L 1134.97 986.758 C 1133.38 986.151 1132.51 985.726 1131.09 984.69 L 1128.8 987.815 C 1121.41 984.107 1115.08 984.686 1107.14 985.386 L 1104.82 981.446 C 1101.78 981.897 1100.86 982.227 1097.93 981.063 C 1095.18 981.653 1093.33 982.071 1091.06 983.887 L 1089.77 986.096 C 1088.93 982.831 1088.24 981.628 1085.63 979.638 C 1088.11 963.946 1093.15 947.821 1097.78 932.617 L 1096.71 931.233 C 1097.47 929.438 1098.09 927.554 1098.26 925.598 C 1099.11 915.619 1096.27 902.768 1094.94 892.714 C 1088.85 846.527 1075.69 769.277 1045.99 733.432 C 1033.45 729.722 1015.31 725.439 1005.35 716.613 L 1005.3 714.572 C 1009.31 712.982 1036.87 723.305 1043.53 724.763 C 1064.1 729.266 1085.05 729.548 1106 729.263 C 1137.86 728.829 1170.05 725.075 1201.74 721.84 C 1231.73 718.777 1263.83 716.555 1292.98 708.844 C 1298.92 707.273 1304.83 705.034 1309.93 701.57 C 1315.07 698.088 1317.18 694.933 1318.06 688.845 C 1320.86 669.693 1305.07 655.963 1294.63 642.187 L 1295.87 642.065 C 1295.22 638.061 1290.63 635.26 1288.84 631.533 C 1284.21 621.914 1288.27 608.483 1288.14 598.134 C 1286.75 595.49 1286.85 595.669 1284 594.714 z"/>
<path transform="translate(0,0)" fill="rgb(49,16,16)" d="M 1091.06 983.887 C 1091.56 981.548 1092.6 979.415 1093 977.01 C 1094.41 968.576 1101.93 936.368 1106.94 930.969 C 1108.02 929.812 1108.94 930.329 1110.38 930.407 C 1120.11 935.854 1123.84 944.245 1127.95 954.045 C 1127.85 952.845 1127.75 951.702 1127.5 950.519 C 1124.53 935.968 1123.83 938.197 1113.33 930.132 C 1109.99 927.566 1109.41 926.008 1109.07 921.996 C 1109.83 923.427 1109.85 924.254 1109.99 925.843 C 1116.72 928.977 1125.18 933.473 1127.6 941.031 C 1129.16 945.941 1127.16 951.533 1128.71 956.142 C 1130.88 962.571 1137.03 966.842 1139.37 973.947 C 1138.61 974.262 1139.11 974.145 1137.82 973.816 L 1134.85 968.58 C 1134.58 970.675 1134.79 970.037 1134.17 971.757 C 1134.04 972.112 1133.9 972.461 1133.77 972.813 C 1134.92 976.997 1136.16 980.89 1136.07 985.275 L 1134.97 986.758 C 1133.38 986.151 1132.51 985.726 1131.09 984.69 L 1128.8 987.815 C 1121.41 984.107 1115.08 984.686 1107.14 985.386 L 1104.82 981.446 C 1101.78 981.897 1100.86 982.227 1097.93 981.063 C 1095.18 981.653 1093.33 982.071 1091.06 983.887 z"/>
<path transform="translate(0,0)" fill="rgb(245,244,232)" d="M 1107.3 931.57 A 61.4142 61.4142 0 0 1 1111.66 933.702 C 1120.56 938.592 1122.74 946.596 1125.48 955.656 C 1121.25 955.829 1117.29 956.452 1113.14 957.264 C 1108.26 958.087 1103.81 959.633 1099.15 961.228 C 1101.39 951.136 1104 941.377 1107.3 931.57 z"/>
<path transform="translate(0,0)" fill="rgb(245,244,232)" d="M 1097.93 981.063 C 1097.98 979.216 1098.01 977.302 1098.36 975.482 C 1099.34 970.298 1103.54 965.301 1107.91 962.561 A 18.2847 18.2847 0 0 1 1122.78 960.555 C 1129.07 962.445 1131.08 967.369 1133.77 972.813 C 1134.92 976.997 1136.16 980.89 1136.07 985.275 L 1134.97 986.758 C 1133.38 986.151 1132.51 985.726 1131.09 984.69 L 1128.8 987.815 C 1121.41 984.107 1115.08 984.686 1107.14 985.386 L 1104.82 981.446 C 1101.78 981.897 1100.86 982.227 1097.93 981.063 z"/>
<path transform="translate(0,0)" fill="rgb(49,16,16)" d="M 1104.82 981.446 C 1114.67 979.761 1122.11 979.672 1131.09 984.69 L 1128.8 987.815 C 1121.41 984.107 1115.08 984.686 1107.14 985.386 L 1104.82 981.446 z"/>
<path transform="translate(0,0)" fill="rgb(245,244,232)" d="M 431.199 1502.2 C 433.895 1484.17 435.805 1465.87 438.997 1447.94 C 455.761 1353.76 486.517 1248.71 537.019 1166.99 C 547.568 1149.92 561.967 1127.09 578.146 1115.1 C 592.041 1104.81 612.531 1103.76 629 1106.49 C 662.044 1111.99 689.413 1136.66 708.187 1163.2 C 728.011 1191.23 736.198 1225.96 744.205 1258.85 C 760.698 1326.62 766.715 1394.77 767.002 1464.42 C 767.09 1485.64 767.263 1506.77 765.728 1527.96 C 760.858 1595.22 749.653 1662.37 742.238 1729.41 L 707.651 1549.79 C 697.024 1491.68 688.15 1433.54 676.363 1375.59 C 673.542 1361.72 670.267 1336.16 663.744 1324.7 C 661.271 1323.94 661.555 1324.36 659.396 1325.48 C 655.904 1330.85 662.816 1378.27 663.94 1387.2 A 4497.05 4497.05 0 0 0 727.976 1768.29 C 741.149 1830.46 754.475 1879.99 751.192 1944.91 C 741.946 1934.01 733.847 1922.06 724.972 1910.83 C 710.2 1892.16 638.215 1802.81 620.977 1794.76 L 619.153 1795.11 L 618.827 1796.84 C 631.452 1811.88 645.21 1826.31 658.218 1841.07 C 672.841 1857.66 686.896 1875.02 700.724 1892.28 C 726.278 1924.18 748.87 1957.69 772.464 1990.98 C 712.372 1958.13 652.325 1922.63 581.611 1943.7 C 554.503 1951.78 508.23 1976.61 494.382 2002.23 C 493.263 2004.3 492.301 2006.5 491.428 2008.69 C 496.15 2025.99 503.595 2037.3 517.933 2048 L 350.154 2048 C 350.197 1998.39 350.84 1949.21 356.74 1899.87 C 361.952 1856.28 370.91 1812.89 380.456 1770.08 A 2946.97 2946.97 0 0 1 465.34 1472.76 C 474.296 1445.92 481.857 1418.73 491.527 1392.09 C 512.29 1334.88 530.145 1288.46 559.032 1234.45 C 560.523 1231.67 562.555 1228.51 561.343 1225.49 C 559.095 1225.49 558.954 1225.77 557.421 1227.34 C 551.489 1233.41 546.922 1242.82 542.106 1249.92 C 490.784 1325.6 459.429 1415.86 431.199 1502.2 z"/>
</svg>