<svg version="1.1" xmlns="http://www.w3.org/2000/svg" style="display: block;" viewBox="0 0 2048 2048" width="1024" height="1024">
<defs>
	<linearGradient id="Gradient1" gradientUnits="userSpaceOnUse" x1="798.693" y1="1699.7" x2="833.8" y2="1696.07">
		<stop class="stop0" offset="0" stop-opacity="1" stop-color="rgb(114,9,26)"/>
		<stop class="stop1" offset="1" stop-opacity="1" stop-color="rgb(82,17,29)"/>
	</linearGradient>
</defs>
<path transform="translate(0,0)" fill="rgb(241,212,165)" d="M 0 0 L 2048 0 L 2048 2048 L 0 2048 L 0 0 z"/>
<path transform="translate(0,0)" fill="rgb(100,10,25)" d="M 522.198 1378.44 C 525.435 1380.51 527.16 1382.4 528.523 1386.06 C 530.953 1392.57 543.003 1488.5 543.336 1499.04 C 543.576 1506.63 543.712 1518.08 540.284 1524.94 C 537.177 1531.15 531.4 1534.63 525.031 1536.7 C 521.947 1536.36 519.002 1536.02 516.215 1534.55 C 510.521 1531.55 506.85 1525.78 504.903 1519.8 C 494.997 1489.39 508.668 1448.23 514.15 1417.76 C 516.345 1405.57 516.88 1389.48 522.198 1378.44 z"/>
<path transform="translate(0,0)" fill="url(#Gradient1)" d="M 800.088 1693.94 C 801.367 1681.27 804.855 1668.59 806.929 1655.99 C 808.406 1647.02 808.66 1637.54 810.659 1628.72 C 811.376 1625.56 812.162 1623.1 813.977 1620.41 L 815.967 1619.85 C 818.919 1622.09 820.012 1625.36 821.005 1628.82 C 824.16 1639.81 824.918 1651.89 827.016 1663.16 C 830.655 1682.71 835.501 1702.23 838.221 1721.92 C 839.587 1731.81 842.835 1747.55 839.317 1757.04 C 838.272 1762.72 836.547 1768.91 831.965 1772.79 C 826.296 1777.6 820.052 1777.23 813.125 1776.9 C 808.705 1774.39 805.097 1771.88 802.304 1767.54 C 790.183 1748.7 796.095 1714.52 800.088 1693.94 z"/>
<path transform="translate(0,0)" fill="rgb(100,10,25)" d="M 800.088 1693.94 C 802.504 1712.18 798.613 1760.55 813.236 1771.52 C 815.181 1772.98 817.336 1773.59 819.737 1772.88 C 825.589 1771.14 829.136 1763.35 832.033 1758.52 A 2506.37 2506.37 0 0 1 832.597 1728.33 C 834.203 1738.66 832.962 1749.32 832.963 1759.71 C 831.006 1762.92 825.167 1770.36 825.46 1773.9 C 835.219 1766.93 834.476 1767.95 838.2 1756.82 L 839.317 1757.04 C 838.272 1762.72 836.547 1768.91 831.965 1772.79 C 826.296 1777.6 820.052 1777.23 813.125 1776.9 C 808.705 1774.39 805.097 1771.88 802.304 1767.54 C 790.183 1748.7 796.095 1714.52 800.088 1693.94 z"/>
<path transform="translate(0,0)" fill="rgb(71,38,23)" d="M 936.044 272.368 C 958.079 270.465 979.474 272.997 1000.72 279.065 A 293.339 293.339 0 0 1 1058.23 302.636 C 1086.08 317.945 1111.21 339.238 1137.5 357.107 C 1153.5 367.977 1171.44 376.365 1186.99 387.766 C 1192.25 391.619 1197.44 395.89 1200.5 401.764 C 1215.78 431.155 1211.59 493.3 1208.88 526.543 C 1208.15 535.462 1208.28 546.051 1205.47 554.49 C 1204.66 556.906 1203.63 558.389 1201.46 559.816 C 1194.36 564.49 1183.72 566.347 1175.64 569.167 A 192.977 192.977 0 0 0 1153.21 578.376 C 1169.71 584.382 1185.88 591.755 1202.09 598.521 A 9413.68 9413.68 0 0 1 1335.07 656.344 L 1479.37 719.561 C 1506.51 731.329 1533.93 742.43 1560.87 754.638 C 1605.06 774.661 1648.48 796.639 1692.42 817.254 C 1758.38 848.196 1828.92 873.895 1893.61 906.356 C 1899.42 909.271 1906.42 912.274 1909.85 918.045 C 1924.07 941.977 1921.76 1039.36 1914.81 1066.93 C 1913.7 1071.33 1912.15 1075.98 1909.05 1079.42 C 1896.62 1093.23 1826.12 1134.26 1806.46 1146.15 C 1814.73 1150.49 1823.07 1154.83 1831.59 1158.67 C 1847.73 1165.94 1904.9 1188.47 1911.92 1202.38 C 1923.26 1224.83 1924.06 1329.41 1915.32 1353.45 C 1914.29 1356.31 1913 1359.27 1910.89 1361.51 C 1901.75 1371.2 1882.88 1380.22 1871.18 1387.52 C 1856.41 1396.72 1841.97 1406.64 1826.92 1415.37 C 1814.68 1422.46 1801.92 1428.7 1789.47 1435.41 A 4352.31 4352.31 0 0 1 1695.83 1484.93 C 1668.5 1499.09 1640.35 1512.32 1613.62 1527.59 C 1576.52 1548.79 1544.74 1578.52 1508.36 1601.03 C 1456.94 1632.85 1401.46 1656.86 1347.83 1684.56 C 1310.84 1703.67 1275.29 1726.66 1237.45 1743.93 C 1185.84 1767.48 1170.92 1764.21 1118.73 1744.63 C 1015.17 1703.87 907.049 1672.49 816.266 1605.63 A 1462.94 1462.94 0 0 1 726.804 1532.94 C 700.454 1509.49 675.142 1484.89 647.447 1462.98 C 628.969 1448.37 608.765 1436.41 589.155 1423.43 C 559.192 1403.6 533.946 1380.24 513.055 1350.94 C 509.111 1320.01 510.935 1287.3 511.369 1256.17 C 511.872 1220.13 516.645 1186.51 543.465 1160.39 C 541.172 1155.78 538.983 1151.12 536.753 1146.48 C 504.194 1163.12 464.171 1190.24 435.146 1212.56 C 412.26 1230.16 393.005 1254.18 365.794 1264.93 C 323.168 1281.79 272.071 1270.56 231.413 1252.94 C 192.644 1236.13 153.566 1207.22 137.752 1166.65 C 123.256 1129.45 126.486 1014.4 134.497 972.601 C 138.304 952.741 145.061 934.105 153.227 915.684 C 142.653 902.089 136.05 890.295 133.383 873.139 C 125.9 825.004 125.128 729.961 139.153 684.292 C 144.07 668.281 152.672 653.171 162.653 639.794 C 196.283 594.721 270.587 543.351 320.482 516.455 C 358.208 496.119 397.638 479.13 435.798 459.652 C 493.921 429.984 550.613 398.132 611.668 374.504 C 683.586 346.672 757.874 325.662 831.642 303.449 C 868.41 292.378 897.102 278.051 936.044 272.368 z"/>
<path transform="translate(0,0)" fill="rgb(202,158,115)" d="M 1193.87 440.107 C 1195.59 442.971 1195.44 448.94 1195.75 452.349 C 1198.64 484.45 1193.06 514.268 1190.67 545.972 C 1176.48 551.489 1162.6 557.702 1148.67 563.856 L 1147.53 562.528 C 1152.22 531.095 1153.12 496.807 1151.94 465.008 C 1166.49 457.451 1180.25 449.223 1193.87 440.107 z"/>
<path transform="translate(0,0)" fill="rgb(241,212,165)" d="M 1135.91 475.981 C 1139.81 493.789 1134 548.132 1132.11 568.678 C 1109.03 560.652 1086.89 551.079 1064.26 541.915 C 1054.61 537.912 1045.06 533.962 1035.07 530.851 C 1066.76 510.309 1102.46 493.586 1135.91 475.981 z"/>
<path transform="translate(0,0)" fill="rgb(100,10,25)" d="M 1109.74 508.864 C 1111.2 508.888 1113.4 508.761 1114.78 509.366 C 1117.85 510.706 1120.34 515.223 1121.76 518.022 C 1126.02 526.427 1128.38 540.155 1125 549.103 C 1123.11 554.135 1119.87 555.602 1115.21 557.621 C 1110.92 556.645 1107.65 555.36 1104.48 552.191 C 1099.44 547.164 1097.74 539.982 1098.06 533.051 C 1098.52 523.016 1102.33 515.477 1109.74 508.864 z"/>
<path transform="translate(0,0)" fill="rgb(202,158,115)" d="M 1109.88 523.374 C 1112.07 524.777 1113.27 526.317 1114.32 528.679 C 1116.86 534.392 1117.96 541.468 1115.8 547.419 C 1113.88 546.925 1112.48 546.186 1110.78 545.178 C 1106.4 538.688 1108.83 530.627 1109.88 523.374 z"/>
<path transform="translate(0,0)" fill="rgb(241,212,165)" d="M 420.855 1106.29 C 448.785 1105.5 442.118 1133.42 460.885 1145.65 C 477.425 1156.44 499.246 1146.72 514.255 1137.9 C 518.971 1135.12 524.86 1130.54 530.136 1129.35 C 530.856 1131.45 530.82 1131.57 530.167 1133.7 C 529.362 1134.13 528.219 1134.75 527.412 1135.05 C 509.59 1141.65 482 1161.31 465.224 1172.16 C 438.787 1188.97 414.822 1208.25 390.84 1228.32 C 391.468 1194.87 388.583 1157.43 391.552 1124.51 C 400.116 1116.54 410.254 1111.04 420.855 1106.29 z"/>
<path transform="translate(0,0)" fill="rgb(241,212,165)" d="M 164.129 929.294 C 173.069 936.306 181.82 943.302 191.076 949.902 C 189.651 953.954 189.079 957.643 188.972 961.946 C 188.45 982.914 198.807 1004.03 213.234 1018.8 C 242.27 1048.53 270.557 1044.67 308.168 1045 C 318.522 1053.21 321.372 1066.93 330.893 1076.42 C 347.857 1093.33 372.843 1100.92 396.334 1100.89 C 392.752 1103.71 388.913 1106.2 385.147 1108.77 C 384.189 1109.23 383.234 1109.7 382.247 1110.1 C 354.546 1121.29 284.306 1104.16 257.243 1093 C 217.011 1076.42 184.075 1048.15 167.255 1007.44 C 156.138 980.535 152.678 956.44 164.129 929.294 z"/>
<path transform="translate(0,0)" fill="rgb(202,158,115)" d="M 145.294 742.765 C 146.305 743.82 145.948 743.314 146.673 744.626 C 152.76 755.658 159.524 767.447 168.389 776.518 C 208.716 817.781 280.221 844.89 336.909 853.031 C 350.693 855.011 364.33 855.293 378.219 855.45 C 368.855 885.621 373.612 917.972 374.639 949.07 C 374.865 955.918 375.661 961.825 370.707 967.146 C 356.398 975.278 334.231 976.349 318.103 975.685 C 266.544 973.56 204.208 948.865 168.932 910.373 C 161.585 902.357 155.94 893.53 152.372 883.233 C 140.21 848.132 143.471 780.146 145.294 742.765 z"/>
<path transform="translate(0,0)" fill="rgb(202,158,115)" d="M 147.023 994.65 C 150.569 1001.32 152.338 1009.77 155.147 1016.89 C 163.031 1036.88 175.845 1055.13 191.33 1069.97 C 239.929 1116.56 311.329 1128.52 376.129 1127.2 C 375.82 1165.16 375.062 1203.17 375.802 1241.12 C 372.214 1243.57 368.422 1245.77 364.723 1248.05 C 337.835 1260.69 310.227 1258.63 281.895 1252.53 C 238.14 1243.12 186.811 1218.95 161.911 1180.01 A 102.546 102.546 0 0 1 147.525 1145.4 C 142.239 1119.64 141.327 1019.88 147.023 994.65 z"/>
<path transform="translate(0,0)" fill="rgb(241,212,165)" d="M 769.676 694.999 L 771.096 695.104 L 770.708 696.834 C 739.922 732.03 707.526 766.068 675.908 800.519 C 665.479 811.883 647.333 835.326 636.233 843.408 C 625.275 851.387 606.437 854.816 593.572 859.45 A 3978.34 3978.34 0 0 0 539.451 879.828 C 488.537 899.708 438.659 920.495 390.31 946.091 C 387.158 923.988 385.787 877.944 394.955 857.265 C 402.41 840.451 436.022 813.687 452.469 805.026 C 477.982 791.592 522.184 778.289 550.47 768.906 C 573.364 761.311 595.919 752.577 618.891 745.259 C 644.048 737.245 669.724 730.859 694.858 722.778 C 720.191 714.632 744.93 704.748 769.676 694.999 z"/>
<path transform="translate(0,0)" fill="rgb(100,10,25)" d="M 571.732 767.905 C 573.497 768.053 575.484 768.032 577.162 768.674 C 580.54 769.966 583.357 773.607 584.965 776.706 C 590.122 786.644 590.631 804.153 586.773 814.628 C 583.747 822.841 579.573 827.027 571.631 830.501 C 569.774 830.696 568.099 830.712 566.269 830.333 C 563.124 829.681 560.979 828.093 559.283 825.37 C 553.629 816.292 556.024 799.41 558.519 789.392 C 560.63 780.916 563.94 772.502 571.732 767.905 z"/>
<path transform="translate(0,0)" fill="rgb(202,158,115)" d="M 572.326 779.446 C 572.773 779.772 573.249 780.061 573.666 780.426 C 577.907 784.138 579.003 790.13 579.579 795.475 C 580.603 804.986 578.492 813.24 572.341 820.533 C 570.446 820.4 569.103 819.954 567.313 819.362 C 566.34 818.299 565.547 817.351 565.148 815.928 C 562.323 805.86 567.42 788.406 572.326 779.446 z"/>
<path transform="translate(0,0)" fill="rgb(241,212,165)" d="M 1793.66 1155.74 C 1825 1176.01 1862.27 1185.03 1893.05 1206.49 C 1883.72 1214.39 1872.5 1220.38 1862.03 1226.65 A 2234.92 2234.92 0 0 1 1797.19 1263.86 C 1760.05 1284.72 1724.63 1308.71 1687.12 1328.8 C 1642.95 1352.46 1596.76 1372 1553.37 1397.19 C 1507.43 1423.87 1468.02 1462.01 1420.82 1486.41 C 1378.04 1508.52 1330.98 1520.92 1288.51 1543.86 C 1257.8 1560.45 1229.88 1588.06 1197.7 1600.61 C 1192.57 1602.61 1187.14 1604.4 1181.59 1604.41 C 1162.59 1604.43 1133.2 1589.08 1115.75 1581.51 C 1084.92 1567.71 1055.35 1551.3 1025.49 1535.56 C 1029.73 1532.95 1034.06 1530.21 1038.6 1528.14 C 1056.74 1519.87 1081.93 1518.55 1100.58 1525.8 C 1112.67 1530.5 1123.81 1537.35 1136.09 1541.91 C 1175.64 1556.6 1222.18 1553.5 1255.45 1525.75 C 1273.68 1510.54 1286.39 1493.64 1310.01 1486.19 C 1326.1 1481.12 1342.85 1480.11 1359.56 1479.11 C 1396.42 1476.91 1430.57 1470.99 1461.39 1449.03 A 174.54 174.54 0 0 0 1501.68 1408.37 C 1517.82 1386 1528.38 1361.78 1553.53 1347.54 C 1589.83 1326.98 1634.77 1329.21 1672.64 1311.73 C 1697.75 1300.14 1720.83 1282.27 1730.49 1255.74 C 1736.11 1253.74 1741.91 1251.68 1747.21 1248.92 C 1763.38 1240.51 1778.3 1226.34 1783.5 1208.44 C 1787.69 1194 1786.24 1179.05 1779.19 1165.82 C 1783.92 1162.34 1788.84 1159.09 1793.66 1155.74 z"/>
<path transform="translate(0,0)" fill="rgb(100,10,25)" d="M 613.656 866.912 C 613.927 867.002 614.24 867.012 614.47 867.182 C 615.737 868.116 615.816 868.088 615.373 869.249 C 613.157 875.041 584.044 909.298 578.24 916.66 A 515.336 515.336 0 0 0 552.418 953.017 C 545.84 963.064 538.707 973.318 533.976 984.392 C 522.482 1011.3 522.864 1047.99 523.864 1076.91 C 524.187 1086.24 526.152 1095.5 526.351 1104.83 C 526.465 1110.13 525.63 1113.6 521.822 1117.42 C 510.078 1129.22 490.839 1136.34 474.544 1136.3 C 458.706 1128.48 461.491 1114.07 451.793 1102.09 C 440.947 1088.68 414.783 1091.17 398.989 1089.7 C 379.742 1087.9 350.662 1079.16 339.508 1062.79 C 334.396 1055.29 331.618 1046.24 325.539 1039.35 C 314.701 1027.06 297.015 1030.98 282.347 1030.18 C 261.491 1030.04 242.581 1024.28 226.927 1010.19 C 210.629 995.533 205.085 980.296 203.893 958.546 C 216.761 962.317 228.056 970.925 240.668 975.714 C 279.013 990.272 324.497 997.393 364.719 986.815 C 381.165 982.491 385.5 972.044 396.935 961.608 C 402.677 956.368 409.816 952.595 416.768 949.235 C 461.188 927.762 507.121 909.491 552.938 891.241 C 573.192 883.173 593.723 875.76 613.656 866.912 z"/>
<path transform="translate(0,0)" fill="rgb(202,158,115)" d="M 526.093 1305.61 C 531.118 1309.68 535.34 1321.67 539.078 1327.42 A 95.9064 95.9064 0 0 0 553.538 1344.64 C 586.31 1375.57 628.286 1375.08 670.463 1373.89 C 701.371 1373.02 728.269 1377.9 752.013 1398.78 C 805.048 1445.43 794.418 1529.69 849.117 1580.7 C 868.598 1598.87 893.861 1607.24 920.352 1606.02 A 106.305 106.305 0 0 0 994.049 1571.88 C 1001.31 1563.99 1007.41 1555.11 1014.61 1547.16 C 1063.51 1573.94 1119.77 1606.4 1173.93 1619.68 L 1173.44 1683.5 A 5078.6 5078.6 0 0 1 1173.2 1745.82 C 1129.01 1734.38 1087.04 1715.55 1044.36 1699.6 C 1007.99 1686.02 971.153 1673.23 935.786 1657.15 C 875.992 1629.97 821.742 1592.51 771.488 1550.49 C 735.138 1520.1 701.192 1486.96 664.468 1457.02 C 628.841 1427.97 587.106 1407.89 553.921 1375.79 C 525.211 1348.02 526.794 1344.5 526.093 1305.61 z"/>
<path transform="translate(0,0)" fill="rgb(241,212,165)" d="M 940.063 288.577 C 980.637 283.536 1029.26 302.725 1063.09 324.12 C 1085.57 338.336 1106.38 355.401 1128.41 370.348 C 1139.43 377.821 1151.1 384.223 1162.62 390.883 C 1176.96 399.179 1187.35 405.643 1191.86 422.509 C 1177.44 433.96 1161.04 442.351 1144.87 451.023 C 1126.38 432.788 1103.46 417.664 1082.4 402.525 C 1059.27 385.903 1036.27 368.63 1011.66 354.25 C 1002.05 348.634 992.099 343.602 981.615 339.82 C 960.344 332.147 937.419 330.361 915.034 333.106 C 888.406 336.372 862.773 346.511 837.24 354.332 C 755.478 379.373 674.787 406.638 597.227 442.976 C 483.518 496.249 380.141 553.476 281.608 631.687 C 260.43 648.497 229.251 670.139 220.214 696.481 C 215.792 709.369 218.175 720.751 223.829 732.625 A 98.3805 98.3805 0 0 0 231.009 742.244 C 265.125 782.195 370.255 803.848 421.552 808.12 C 409.673 818.494 397.285 828.089 385.695 838.841 C 372.24 839.235 358.867 839.557 345.452 838.105 C 293.452 832.478 233.822 810.176 193.052 777.434 C 172.802 761.172 154.944 738.315 152.178 711.678 C 149.466 685.562 164.561 662.248 180.449 642.937 C 200.293 618.816 224.301 599.443 249.46 581.204 A 749.991 749.991 0 0 1 332.558 527.972 C 371.969 506.586 413.325 488.855 453.399 468.758 C 469.437 460.715 484.749 451.255 500.722 443.06 A 1285.43 1285.43 0 0 1 630.213 384.692 C 696.816 359.079 765.999 339.982 834.286 319.424 C 869.903 308.701 902.545 292.311 940.063 288.577 z"/>
<path transform="translate(0,0)" fill="rgb(202,158,115)" d="M 540.374 1023.5 C 541.96 1024.42 541.521 1024 542.635 1025.2 C 549.626 1032.76 556.887 1040.87 565.513 1046.61 C 584.629 1059.34 613.257 1070.25 634.823 1079.68 C 662.334 1091.7 688.868 1104.28 714.905 1119.27 C 730.026 1127.97 745.132 1136.76 759.479 1146.7 C 794.729 1171.14 827.424 1199.09 862.717 1223.44 C 929.012 1269.17 995.978 1298.64 1070.01 1329.03 C 1103.72 1342.88 1137.43 1357.67 1173.41 1364.44 C 1174.91 1407.16 1173.37 1450.35 1173.14 1493.11 C 1137.38 1487.48 1103.28 1471.43 1069.69 1458.42 C 972.58 1420.8 875.045 1383.46 788.896 1323.75 C 750.157 1296.9 718.456 1261.23 679.501 1234.99 A 735.913 735.913 0 0 0 637.457 1209.1 C 612.55 1195.19 583.874 1182.83 564.174 1161.77 C 535.047 1130.64 539.235 1063.79 540.374 1023.5 z"/>
<path transform="translate(0,0)" fill="rgb(100,10,25)" d="M 1766.57 1171.9 C 1766.82 1172.38 1767.11 1172.83 1767.32 1173.33 C 1771.38 1182.9 1769.44 1203.02 1764.79 1211.97 C 1755.52 1229.79 1737.32 1236.1 1719.53 1241.87 C 1714.39 1250.25 1712.7 1260.1 1706.44 1267.95 C 1699.6 1276.52 1690.78 1283.03 1681.48 1288.72 C 1634.09 1317.67 1577.54 1306.77 1533.05 1340.3 C 1515.98 1353.17 1505.79 1371.72 1494.52 1389.39 C 1479.86 1412.36 1460.48 1433.51 1436.33 1446.65 C 1393.86 1469.76 1343.55 1456.43 1299.49 1472.16 C 1265.26 1484.39 1253.12 1514.8 1223 1527.25 C 1182.26 1544.09 1149.5 1528.96 1112.09 1513.61 C 1095.03 1506.61 1075.73 1503.32 1057.37 1506.07 C 1000.69 1514.55 997.248 1563.11 950.974 1582.22 C 929.923 1590.92 903.111 1592.03 881.95 1582.96 C 829.832 1560.63 819.605 1488.23 800.955 1441.45 A 146.841 146.841 0 0 0 763.841 1387.1 C 707.528 1335.6 650.146 1375.78 590.185 1349.2 C 561.502 1336.49 544.216 1310.65 533.462 1282.26 C 531.248 1276.34 529.428 1270.53 528.587 1264.25 A 122.131 122.131 0 0 1 552.391 1173.38 C 585.93 1205.76 628.959 1219.35 666.674 1245.23 C 692.401 1262.88 714.427 1284.21 738.192 1304.21 C 758.197 1321.06 779.883 1336.66 801.374 1351.53 C 857.531 1390.39 932.305 1419.8 995.231 1445.99 C 1043.85 1466.23 1093.57 1487.98 1144.18 1502.73 C 1163.71 1508.41 1182.81 1510.39 1202.45 1504.18 C 1231.15 1495.1 1256.32 1477.36 1281.47 1461.31 A 1511.96 1511.96 0 0 1 1336.32 1427.62 C 1362.98 1412.17 1391.03 1399.56 1418.55 1385.79 A 1182.49 1182.49 0 0 0 1499.85 1340.65 C 1521.43 1327.54 1540.67 1311.43 1561.74 1297.67 A 4800.92 4800.92 0 0 1 1705.34 1208.61 C 1725.74 1196.37 1745.74 1183.39 1766.57 1171.9 z"/>
<path transform="translate(0,0)" fill="rgb(202,158,115)" d="M 1900.35 941.774 L 1901.35 942.467 C 1904.4 948.289 1903.99 958.682 1904.37 965.319 C 1906.31 999.179 1907.62 1036.69 1898.26 1069.53 C 1836.96 1110.9 1773.48 1148.21 1710.13 1186.26 L 1591.57 1259.08 C 1546.91 1286.57 1505.35 1319.41 1459.93 1345.46 C 1418.72 1369.1 1374.47 1386.7 1333.1 1410.1 C 1286.33 1436.54 1243.59 1472.98 1192.23 1489.97 L 1189.5 1490.51 C 1189.05 1490.06 1188.43 1489.74 1188.16 1489.17 C 1187.85 1488.52 1188.12 1377.22 1188.03 1364.51 C 1232.45 1357.07 1261.33 1319.98 1298.32 1297.62 C 1321.71 1283.48 1347.68 1273.35 1372.56 1262.16 A 635.627 635.627 0 0 0 1435.84 1229.37 C 1502.73 1190.01 1563.8 1141.43 1630.31 1101.33 C 1681.33 1070.58 1733.93 1042.14 1786.01 1013.24 C 1825.56 991.284 1865.97 971.73 1900.35 941.774 z"/>
<path transform="translate(0,0)" fill="rgb(202,158,115)" d="M 1901.5 1219.88 C 1910.48 1232.31 1904.78 1329.21 1902.28 1348.24 C 1890.36 1360.19 1871.71 1368.38 1857.27 1377.26 C 1843.46 1385.76 1830.26 1395.34 1816.13 1403.32 C 1768.6 1430.17 1719.69 1455.03 1671.2 1480.11 C 1649.72 1491.22 1627.86 1501.83 1606.82 1513.72 C 1570.29 1534.36 1538.87 1562.88 1503.35 1585.28 C 1451.25 1618.13 1395.14 1642.33 1340.66 1670.71 C 1296.64 1693.65 1239.04 1732.42 1192.26 1744.84 C 1191.23 1744.98 1190.04 1744.87 1189 1744.85 C 1188.67 1744.28 1188.18 1743.78 1188 1743.15 C 1186.92 1739.35 1188.4 1721.2 1188.44 1715.5 A 8148.3 8148.3 0 0 0 1188.45 1620.05 C 1228.2 1610.65 1259.2 1577.65 1294.49 1558.48 C 1336.69 1535.55 1383.51 1523.84 1425.84 1501.63 C 1474.51 1476.11 1518.89 1434.96 1568.07 1406.69 C 1604.11 1385.97 1642.34 1369.37 1679.22 1350.27 C 1716.61 1330.91 1752.11 1308.12 1788.53 1287.02 C 1826.27 1265.14 1865.73 1244.91 1901.5 1219.88 z"/>
<path transform="translate(0,0)" fill="rgb(241,212,165)" d="M 931.122 347.424 C 931.568 347.368 932.012 347.289 932.46 347.254 C 948.953 345.979 966.937 350.728 981.96 357.23 C 1010.88 369.746 1037.71 390.012 1063.35 408.169 C 1086.63 424.649 1110.09 441.218 1132.44 458.939 C 1122.57 465.895 1111.08 471.228 1100.44 476.963 L 1043.74 507.405 C 1033.47 512.911 1021.3 518.105 1012.59 525.898 C 1010.23 528.009 1008.61 529.741 1008.49 532.953 C 1011.9 537.439 1017.85 539.885 1022.91 542.098 C 1053.13 555.322 1084.32 567.009 1114.9 579.463 C 1150.74 594.061 1186.27 609.537 1221.94 624.571 C 1300.09 657.516 1377.35 692.981 1455 727.135 C 1486.29 740.897 1518.2 753.202 1549.47 766.999 C 1605.71 791.81 1660.41 820.03 1716.57 845.024 C 1757.57 863.27 1799.1 880.29 1840.06 898.627 C 1859.02 907.116 1879.03 915.012 1896.86 925.729 C 1886.17 933.964 1875.87 942.514 1864.66 950.061 C 1832.13 971.952 1796.73 989.817 1762.43 1008.77 A 9668.51 9668.51 0 0 0 1646.62 1073.99 C 1603.3 1098.95 1561.98 1126.81 1520.8 1155.09 C 1494.5 1173.15 1468.34 1192.05 1440.98 1208.45 C 1418.04 1222.19 1394.46 1235.49 1370.14 1246.62 C 1345.32 1257.98 1319.92 1267.32 1296.19 1280.99 C 1263.84 1299.61 1234.82 1332.18 1200.83 1345.1 C 1194.2 1347.62 1185.57 1350.47 1178.41 1350.12 C 1148.5 1348.62 1028.94 1295.64 995.719 1280.69 C 943.464 1259.15 889.838 1226.33 844.792 1192.25 C 812.503 1167.83 781.095 1140.61 746.128 1120.03 A 1041.33 1041.33 0 0 0 654.73 1071.84 C 629.312 1060.19 594.693 1047.62 571.907 1032.11 C 558.018 1022.65 549.959 1010.93 546.753 994.298 L 546.966 993.659 C 565.281 937.262 721.347 773.614 768.33 722.698 A 1554.85 1554.85 0 0 1 794.943 694.27 C 801.016 687.96 807.872 681.712 813.204 674.776 C 814.742 672.776 815.826 671.085 816.205 668.544 C 815.613 667.755 815.196 667.111 814.381 666.482 C 813.914 666.121 813.398 665.821 812.863 665.572 C 810.028 664.251 806.75 664.514 803.795 665.269 C 794.656 667.603 784.958 672.96 776.001 676.401 A 2038.03 2038.03 0 0 1 704.033 703.036 C 681.258 710.759 658.045 717.287 635.102 724.502 A 6783.53 6783.53 0 0 0 521.405 762.311 C 503.657 768.567 485.712 774.676 468.186 781.509 C 458.113 785.436 445.822 792.612 435.179 794.153 C 423.637 795.823 408.062 792.461 396.507 790.445 C 353.329 782.912 288.493 768.694 253.16 741.957 C 243.708 734.804 234.865 725.121 233.468 712.864 C 232.257 702.24 237.958 693.744 244.502 685.988 C 263.784 663.133 293.134 642.381 316.864 624.357 C 466.209 510.928 653.538 426.059 832.526 372.213 C 864.814 362.499 897.388 350.343 931.122 347.424 z"/>
<path transform="translate(0,0)" fill="rgb(100,10,25)" d="M 1418.35 756.099 C 1421.09 755.823 1423.4 755.763 1426 756.935 C 1428.09 757.88 1430.38 760.429 1431.09 762.676 C 1431.84 765.091 1431.64 767.241 1430.67 769.523 C 1425.2 782.299 1409.57 790.607 1397.53 795.642 C 1394.87 795.293 1392 795.043 1389.46 794.143 C 1386.81 793.205 1384.23 791.455 1383.34 788.654 C 1382.38 785.615 1383.65 782.468 1385.19 779.868 C 1391.82 768.7 1405.94 758.964 1418.35 756.099 z"/>
<path transform="translate(0,0)" fill="rgb(202,158,115)" d="M 1414.31 767.88 C 1415.86 767.967 1417.34 768.23 1418.88 768.474 C 1418.73 769.043 1418.7 769.655 1418.44 770.18 C 1415.7 775.675 1404.82 781.247 1399.45 784.05 C 1397.45 784.418 1397.55 784.664 1395.56 783.777 L 1396.01 781.767 C 1401.08 775.927 1407.63 771.671 1414.31 767.88 z"/>
<path transform="translate(0,0)" fill="rgb(100,10,25)" d="M 1026.43 633.284 C 1029.38 633.914 1032.85 635.693 1034.74 638.103 C 1036.48 640.331 1037.01 642.781 1036.73 645.556 C 1035.4 658.442 1022.39 671.967 1012.74 679.737 C 1003.56 687.117 988.589 698.719 976.254 697.436 C 976.013 697.547 975.794 697.727 975.533 697.768 C 974.35 697.953 973.284 697.758 972.308 697.134 C 968.665 694.807 965.527 692.388 964.92 687.784 C 964.129 681.784 968.853 675.036 972.237 670.407 C 984.264 653.952 1005.88 636.483 1026.43 633.284 z"/>
<path transform="translate(0,0)" fill="rgb(202,158,115)" d="M 1023.12 643.802 C 1024.07 643.988 1025.15 644.489 1026.07 644.822 L 1026.77 646.891 C 1026.36 648.219 1025.97 649.397 1025.27 650.609 C 1016.2 666.245 996.693 681.681 979.555 687.08 C 977.177 686.465 977.097 686.538 975.645 684.583 C 975.758 683.355 975.709 683.073 976.259 681.768 C 982.467 667.041 1009.26 650.481 1023.12 643.802 z"/>
<path transform="translate(0,0)" fill="rgb(100,10,25)" d="M 1189.24 1196.05 C 1192.21 1195.91 1195.91 1195.41 1198.81 1196.16 C 1201.97 1196.97 1205.18 1198.69 1206.54 1201.83 C 1208.86 1207.18 1205.83 1214.4 1203.47 1219.18 C 1194.59 1237.15 1176.74 1254.72 1157.51 1260.92 C 1154.96 1261.15 1152.09 1261.31 1149.56 1260.77 C 1146.23 1260.05 1141.99 1258.18 1140.54 1254.84 C 1138.89 1251.01 1140.59 1245.86 1142.04 1242.25 C 1150.36 1221.57 1169 1204.59 1189.24 1196.05 z"/>
<path transform="translate(0,0)" fill="rgb(202,158,115)" d="M 1191.16 1206.85 C 1192.73 1207.03 1193.87 1207.48 1195.34 1208.04 C 1196.59 1210.12 1196.75 1210.49 1195.91 1213.02 C 1191.27 1226.97 1169.4 1244.29 1156.68 1250.97 C 1156.2 1251.02 1155.73 1251.14 1155.25 1251.13 C 1152.66 1251.09 1151.91 1250.79 1150.17 1249.1 C 1150.3 1247.65 1150.24 1247.47 1150.79 1245.88 C 1155.58 1232.11 1178.03 1212.23 1191.16 1206.85 z"/>
<path transform="translate(0,0)" fill="rgb(100,10,25)" d="M 1614.06 907.112 C 1616.41 906.913 1618.93 906.607 1621.26 907.022 C 1625.06 907.699 1628.9 909.255 1631.16 912.447 C 1632.44 916.691 1631.55 919.954 1629.74 923.943 C 1620.1 945.188 1597.66 961.395 1576.37 969.321 C 1573.06 969.743 1569.55 970.193 1566.24 969.584 C 1562.55 968.903 1560.04 967.787 1557.88 964.555 C 1556.67 958.947 1558.65 954.555 1561.25 949.597 C 1572.15 928.828 1591.89 913.853 1614.06 907.112 z"/>
<path transform="translate(0,0)" fill="rgb(202,158,115)" d="M 1615.77 916.997 C 1617.91 916.893 1618.28 917.06 1620.14 917.919 C 1620.53 919.807 1620.78 919.611 1619.85 921.536 C 1611.27 939.306 1589.61 954.051 1571.39 959.925 C 1570.35 959.853 1569.47 959.384 1568.51 959.005 L 1568.36 956.668 C 1577.68 938.338 1596.81 924.067 1615.77 916.997 z"/>
<path transform="translate(0,0)" fill="rgb(100,10,25)" d="M 602.429 592.226 C 605.131 592.142 607.569 592.05 610.076 593.328 C 612.148 594.384 613.861 595.99 614.267 598.36 C 615.581 606.031 607.906 616.378 603.405 622.223 C 592.064 636.949 573.605 655.58 554.506 657.982 C 554.169 657.91 553.83 657.846 553.495 657.766 C 546.12 656.005 544.181 653.315 540.207 646.946 C 540.959 640.649 542.522 636.18 546.089 630.889 C 558.157 612.989 581.045 596.026 602.429 592.226 z"/>
<path transform="translate(0,0)" fill="rgb(202,158,115)" d="M 601.373 602.015 L 602.745 603.006 C 602.743 606.092 599.782 609.518 597.999 612.009 C 587.511 626.669 570.712 644.884 552.224 647.876 L 550.723 645.637 C 550.761 643.696 550.927 642.031 551.719 640.25 C 559.061 623.747 584.827 607.993 601.373 602.015 z"/>
<path transform="translate(0,0)" fill="rgb(100,10,25)" d="M 438.299 689.552 C 440.823 689.608 443.63 690.489 445.807 691.839 C 447.535 692.91 448.069 695.05 448.226 696.955 C 448.866 704.709 439.196 717.197 434.481 723.055 C 422.909 737.436 407.489 752.611 388.234 754.761 C 386.351 754.393 384.58 753.919 382.883 752.989 C 379.373 751.064 375.8 747.695 375.164 743.567 C 373.972 735.835 381.339 725.836 386.125 720.138 C 399.186 704.583 417.776 691.494 438.299 689.552 z"/>
<path transform="translate(0,0)" fill="rgb(202,158,115)" d="M 433.779 700.236 C 434.652 700.18 435.639 700.394 436.511 700.499 C 436.584 703.414 435.42 704.724 433.886 707.139 C 424.055 722.618 406.504 740.137 388.27 744.188 L 385.714 742.81 C 384.83 738.06 386.782 735.476 389.425 731.599 C 399.272 717.158 416.492 703.607 433.779 700.236 z"/>
<path transform="translate(0,0)" fill="rgb(100,10,25)" d="M 1166.25 729.037 C 1170.27 728.92 1173.89 729.849 1177.28 732.103 C 1179.3 733.439 1180.23 735.488 1180.38 737.876 C 1180.78 744.01 1175.28 752.542 1171.77 757.507 C 1160.01 774.126 1137.37 789.98 1117.14 793.357 C 1114.78 792.921 1112.39 792.478 1110.1 791.754 C 1106.82 790.715 1103.89 788.576 1102.61 785.245 C 1101.16 781.485 1102.51 777.464 1104.38 774.132 C 1115.1 754.959 1145.3 734.843 1166.25 729.037 z"/>
<path transform="translate(0,0)" fill="rgb(202,158,115)" d="M 1162.44 740.068 C 1164.07 739.891 1165.26 739.72 1166.86 740.192 C 1168.31 740.618 1168.25 741.264 1168.93 742.504 C 1168.71 743.77 1168.37 744.645 1167.71 745.754 C 1157.67 762.615 1137.94 776.888 1119.22 782.129 L 1114.78 781.854 C 1113.35 780.261 1113.38 780.327 1113.35 778.184 C 1120.62 764.436 1148.66 747.182 1162.44 740.068 z"/>
<path transform="translate(0,0)" fill="rgb(100,10,25)" d="M 898.229 468.176 C 902.622 467.66 907.37 467.45 911.312 469.883 C 913.711 471.363 914.973 472.893 915.606 475.666 C 917.07 482.087 911.777 491.869 908.497 497.346 C 898.73 513.651 880.038 532.142 861.265 536.928 C 859.969 537.003 858.699 537.002 857.404 536.875 C 853.376 536.479 847.543 534.826 845.174 531.252 C 843.375 528.536 843.889 525.149 844.786 522.217 C 852.13 498.199 877.031 479.27 898.229 468.176 z"/>
<path transform="translate(0,0)" fill="rgb(202,158,115)" d="M 901.635 477.835 L 903.955 478.397 C 905.065 481.366 904.627 482.944 903.271 485.801 C 895.326 502.551 876.523 520.986 858.865 526.86 L 856.108 525.385 C 855.579 523.542 855.317 523.47 855.918 521.477 C 860.728 505.532 886.929 484.996 901.635 477.835 z"/>
<path transform="translate(0,0)" fill="rgb(100,10,25)" d="M 1127.88 886.18 C 1131.22 885.931 1134.92 885.469 1138.22 886.137 C 1145.23 887.558 1149.87 892.096 1153.66 897.889 C 1158.94 905.96 1163.49 914.707 1166.57 923.864 C 1175.01 948.978 1178.83 975.7 1185.64 1001.3 C 1192.3 1026.33 1201.93 1050.76 1207.61 1076 C 1209.4 1083.95 1211.79 1092.89 1209.91 1100.99 C 1207.64 1110.79 1201.6 1117.37 1193.21 1122.43 C 1187.48 1124.16 1183.17 1124.91 1177.37 1122.89 C 1170.78 1120.6 1165.98 1115.46 1162.9 1109.36 C 1148.09 1080.08 1140.11 1036.25 1131.7 1003.84 C 1124.94 977.821 1116.38 951.599 1112.28 925.002 C 1111.14 917.57 1109.81 908.952 1112.4 901.73 C 1115.18 893.961 1120.68 889.587 1127.88 886.18 z"/>
<path transform="translate(0,0)" fill="rgb(100,10,25)" d="M 1352.71 817.411 C 1358.27 816.93 1363.08 816.941 1368.37 818.964 C 1375.18 821.571 1379.7 827.473 1382.43 834.064 C 1385.75 842.088 1386.19 851.154 1382.6 859.175 C 1372.7 881.272 1337.49 880.594 1317.9 888.338 C 1317.47 888.506 1317.05 888.682 1316.63 888.854 C 1324.25 909.647 1332.77 930.105 1340.28 950.946 C 1346.52 968.242 1351.74 985.999 1358.81 1002.98 C 1364 1015.47 1371.27 1026.95 1376.68 1039.32 C 1381.33 1049.97 1385.68 1063.65 1380.94 1074.88 A 27.6675 27.6675 0 0 1 1364.5 1090.14 C 1357.53 1092.55 1349.14 1092.08 1342.62 1088.52 C 1327.63 1080.34 1324.14 1057.15 1320.07 1042.23 A 1778.07 1778.07 0 0 0 1299.93 976.618 C 1291.1 949.013 1284.8 923.746 1268.27 899.365 C 1255.18 904.955 1240.45 911.07 1226.48 913.848 C 1216.86 915.763 1205.68 915.119 1197.43 909.275 C 1191.5 905.075 1188.4 898.421 1187.29 891.389 C 1186.09 883.785 1187.08 875.964 1192.04 869.831 C 1196.83 863.906 1205.33 859.559 1212.2 856.479 C 1225.25 850.626 1239.97 847.022 1253.63 842.726 C 1285.93 832.57 1318.83 820.888 1352.71 817.411 z"/>
<path transform="translate(0,0)" fill="rgb(100,10,25)" d="M 784.535 802.308 C 798.287 801.502 813.12 802.238 825.526 808.847 C 834.823 813.8 842.066 822.074 844.758 832.358 C 846.591 839.365 846.353 848.997 842.315 855.255 C 829.877 874.53 799.094 857.822 780.44 862.176 C 772.65 863.994 760.074 870.029 756.024 877.479 C 752.892 883.239 758.515 888.334 762.518 891.711 C 772.074 899.769 783.437 906.336 793.617 913.648 C 821.031 933.337 857.889 964.035 867.655 997.509 C 873.281 1016.8 870.831 1040.38 860.696 1057.85 C 850.139 1076.06 828.664 1085.88 809.032 1091.11 C 774.186 1100.4 742.136 1095.79 711.143 1077.84 C 706.954 1075.36 702.704 1072.52 698.861 1069.53 C 686.622 1060.03 675.257 1045.67 673.624 1029.78 C 673.051 1024.2 674.075 1018.94 677.795 1014.61 C 697.794 991.35 719.594 1024.01 736.804 1033.82 C 752.569 1042.79 769.575 1046.3 787.638 1044.92 C 798.774 1044.06 809.463 1040.04 816.596 1031.11 C 821.056 1025.52 822.097 1018.59 821.042 1011.66 C 814.506 968.75 758.403 950.021 728.294 927.13 C 712.234 914.92 702.284 900.862 699.768 880.484 C 697.964 865.874 703.258 852.053 712.269 840.728 C 727.706 821.328 760.217 805.128 784.535 802.308 z"/>
<path transform="translate(0,0)" fill="rgb(100,10,25)" d="M 916.423 845.036 C 923.79 846.173 929.99 847.79 935.441 853.238 C 939.487 857.282 941.734 862.687 942.746 868.252 C 945.033 880.836 942.015 893.833 942.042 906.513 C 942.077 923.17 944.111 939.732 943.87 956.433 A 1746.5 1746.5 0 0 0 994.232 959.077 C 1007.05 959.563 1020.1 959.508 1032.82 961.104 C 1030.26 940.669 1028.38 918.882 1029.07 898.35 C 1033.73 891.491 1040.26 884.866 1048.27 882.145 C 1053.32 880.431 1059.03 880.451 1063.8 882.979 C 1072.13 887.394 1076.25 897.373 1078.85 905.952 C 1086.98 932.715 1088.06 961.654 1092.38 989.178 C 1096.99 1018.6 1104.93 1049.1 1105.81 1078.86 C 1106.08 1087.75 1105.4 1098.61 1100.9 1106.43 C 1095.46 1115.9 1086.15 1118.86 1076.23 1121.3 C 1069.48 1119.94 1064.08 1117.85 1058.29 1114.1 C 1053.8 1109.19 1050.79 1104.4 1048.68 1098.06 C 1042.48 1079.49 1040.08 1029.7 1037.95 1007.23 C 1021.01 1006.07 1004.38 1006.91 987.462 1006.91 C 973.285 1006.92 959.097 1006.05 944.905 1005.99 C 944.311 1032.25 958.096 1076.18 947.379 1099.51 C 944.4 1106 936.905 1110.25 930.43 1112.62 A 27.7113 27.7113 0 0 1 908.164 1111.06 C 900.491 1107.02 894.667 1099.23 892.158 1091.01 C 885.553 1069.39 888.01 871.852 897.179 856.314 C 901.348 849.247 909.069 847.181 916.423 845.036 z"/>
</svg>