<svg version="1.1" xmlns="http://www.w3.org/2000/svg" style="display: block;" viewBox="0 0 2048 2048" width="1024" height="1024">
<defs>
	<linearGradient id="Gradient1" gradientUnits="userSpaceOnUse" x1="1482.24" y1="614.921" x2="1439.3" y2="651.158">
		<stop class="stop0" offset="0" stop-opacity="1" stop-color="rgb(109,81,77)"/>
		<stop class="stop1" offset="1" stop-opacity="1" stop-color="rgb(200,167,135)"/>
	</linearGradient>
</defs>
<path transform="translate(0,0)" fill="rgb(245,232,194)" d="M 0 0 L 2048 0 L 2048 2048 L 0 2048 L 0 0 z"/>
<path transform="translate(0,0)" fill="rgb(1,0,0)" d="M 1465.04 1867.54 C 1465.76 1868.22 1466.36 1869.24 1466.94 1870.05 C 1467.21 1875.74 1468.33 1883.16 1464.67 1887.72 C 1463.45 1886.06 1462.68 1884.51 1462.18 1882.49 C 1460.83 1877.09 1462.06 1872.07 1465.04 1867.54 z"/>
<path transform="translate(0,0)" fill="rgb(1,0,0)" d="M 1449.4 1879.92 C 1450.06 1879.96 1450.72 1879.98 1451.38 1880.03 C 1455.45 1880.35 1457.91 1882.21 1460.53 1885.17 L 1459.93 1886.34 C 1456.3 1886.67 1453.07 1884.76 1449.84 1883.29 C 1447.44 1886.56 1446.2 1889.16 1442.28 1890.59 L 1441.13 1890.04 C 1441.35 1888.88 1441.42 1888.35 1441.73 1887.3 C 1442.94 1883.22 1445.89 1881.8 1449.4 1879.92 z"/>
<path transform="translate(0,0)" fill="rgb(1,0,0)" d="M 1826.71 1637.87 C 1829.67 1638.46 1831.98 1639.18 1834.65 1640.64 C 1841 1644.11 1844.35 1648.14 1846.4 1655.01 C 1845.17 1654.69 1844.09 1654.41 1842.98 1653.75 C 1837.86 1650.72 1828.43 1643.29 1826.71 1637.87 z"/>
<path transform="translate(0,0)" fill="rgb(1,0,0)" d="M 1909.08 1911.13 C 1912.09 1912.45 1912.57 1912.59 1914.38 1915.29 C 1914.73 1918.27 1914.55 1920.1 1913.68 1922.97 L 1910.74 1932.76 C 1910.04 1934.01 1910.57 1933.38 1908.81 1934.29 L 1907.42 1932.95 C 1906.53 1926.44 1908.94 1919.19 1909.06 1912.47 L 1909.08 1911.13 z"/>
<path transform="translate(0,0)" fill="rgb(1,0,0)" d="M 200.77 2014.71 C 201.989 2014.81 202.791 2014.84 203.944 2015.06 C 210.107 2016.23 214.564 2019.23 218.13 2024.2 L 217.799 2025.73 C 214.815 2025.78 213.717 2024.27 211.375 2022.56 C 210.496 2022.07 209.628 2021.56 208.722 2021.12 C 206.28 2019.94 204.18 2019.33 201.579 2020.24 C 201.508 2021.9 201.385 2023.52 201.18 2025.18 C 198.636 2025.02 198.401 2025.08 196.442 2023.49 C 196.305 2022.66 196.085 2021.65 196.22 2020.81 C 196.752 2017.5 198.411 2016.62 200.77 2014.71 z"/>
<path transform="translate(0,0)" fill="rgb(1,0,0)" d="M 1977.86 1621.13 C 1979.43 1621.9 1978.67 1621.29 1979.71 1623.39 C 1977.91 1626.55 1958.21 1636.49 1953.97 1639.25 C 1953.04 1639.01 1952.35 1638.4 1951.57 1637.86 L 1952.27 1635.8 C 1959.38 1628.8 1968.12 1623.5 1977.86 1621.13 z"/>
<path transform="translate(0,0)" fill="rgb(1,0,0)" d="M 834.805 1893.35 C 837.182 1893.01 839.83 1892.46 842.213 1892.87 C 844.113 1893.2 844.583 1893.31 845.778 1894.85 C 839.733 1899.58 825.74 1900.08 818.064 1901.14 C 812.983 1902.06 808.004 1902.36 802.862 1902.61 C 813.373 1897.22 823.212 1895.2 834.805 1893.35 z"/>
<path transform="translate(0,0)" fill="rgb(1,0,0)" d="M 613.796 1970.93 C 615.151 1971.06 616.695 1971.54 618.045 1971.84 C 623.89 1973.15 639.342 1971.97 643.23 1975.54 C 643.648 1977.83 643.667 1977.77 642.485 1979.77 L 640.648 1979.53 C 639.643 1977.98 639.122 1977.2 637.62 1976.06 C 635.548 1977.72 633.743 1979.38 631.141 1980.15 L 628.319 1977.81 C 627.919 1977.07 627.187 1976.61 626.554 1976.07 C 622.767 1976.52 620.888 1979.75 617.51 1981.57 L 616.515 1980.7 L 616.473 1974.99 C 611.206 1973.58 607.496 1979.43 602.579 1978.59 L 603.355 1976.7 C 606.615 1973.96 609.888 1972.57 613.796 1970.93 z"/>
<path transform="translate(0,0)" fill="rgb(1,0,0)" d="M 1935.4 1754.5 C 1937.83 1755 1939.98 1755.69 1942.19 1756.84 C 1946.79 1759.22 1949.75 1754.76 1954.28 1754.89 C 1958.3 1757.97 1959.69 1766.31 1960.97 1771.11 C 1957.72 1767.55 1954.44 1760.53 1949.69 1759.34 L 1947.94 1761.25 C 1946.54 1764.68 1945.38 1767.97 1942.33 1770.25 C 1941.52 1768.62 1941.58 1769.24 1941.61 1767.55 C 1941.66 1764.73 1941.79 1762.18 1941.47 1759.36 L 1941.13 1759.2 L 1941.75 1760.12 L 1939.79 1760.04 C 1936.48 1762.56 1934.28 1767.59 1931.53 1770.88 L 1930.7 1769.84 C 1930.94 1763.92 1932.04 1759.42 1935.4 1754.5 z"/>
<path transform="translate(0,0)" fill="rgb(1,0,0)" d="M 1895.57 1886.45 C 1896.42 1887.07 1896.95 1887.36 1897.6 1888.3 C 1902 1894.59 1903.63 1924.09 1902.96 1932.25 C 1901.73 1931.47 1900.59 1930.49 1899.44 1929.6 C 1893.39 1917.55 1894.36 1899.5 1895.57 1886.45 z"/>
<path transform="translate(0,0)" fill="rgb(1,0,0)" d="M 1588.91 1982.13 C 1605.93 1980.26 1597.74 1984.33 1606.63 1989.56 C 1611.25 1992.28 1616.72 1989.82 1622.72 1994.31 C 1620.71 1997.41 1610.08 1993.8 1606.49 1995.04 C 1604.51 1995.73 1606.84 1995.17 1604.41 1995.67 L 1601.95 1990.6 L 1601.28 1988.63 L 1599.72 1988.57 C 1598.38 1991 1597.41 1993.52 1594.79 1994.77 L 1593.63 1993.64 C 1593.4 1990.68 1594.17 1989.15 1595.46 1986.6 C 1595.62 1986.29 1595.79 1985.97 1595.95 1985.66 L 1594.53 1985.19 C 1589.9 1986.11 1587.47 1987.83 1584.78 1991.66 C 1583.97 1992.81 1583.52 1992.79 1582.25 1993.33 C 1580.72 1991.26 1581.29 1991.11 1581.62 1988.68 C 1583.61 1985.59 1585.86 1984.12 1588.91 1982.13 z"/>
<path transform="translate(0,0)" fill="rgb(1,0,0)" d="M 986.239 1958.36 C 989.87 1959.04 992.927 1960.88 996.045 1962.79 C 999.118 1964.68 1000.47 1965.93 1001.39 1969.57 C 1000.78 1972.08 1000.72 1972.42 998.863 1974.19 C 993.883 1972.94 992.409 1966.71 987.377 1965.11 C 984.545 1966.7 983.926 1968.84 982.365 1971.64 C 979.828 1972.82 978.544 1972.63 975.862 1972.32 L 974.029 1970.35 C 972.261 1968.42 971.338 1967.03 968.653 1966.37 L 965.284 1969.29 C 963.081 1969.4 962.78 1969.47 960.904 1968.36 L 961.388 1966.75 C 963.986 1964.46 966.303 1963.25 969.475 1961.9 C 973.814 1962.39 976.435 1965.79 979.415 1968.7 C 980.57 1967.59 980.312 1968.11 980.777 1966.8 C 982.055 1963.19 983.659 1961.16 986.239 1958.36 z"/>
<path transform="translate(0,0)" fill="rgb(1,0,0)" d="M 1315.64 1910.24 C 1317.22 1910.34 1317.42 1910.29 1318.71 1910.53 C 1324.67 1911.62 1326.66 1916.24 1329.69 1920.9 C 1332.62 1918.85 1336 1915.55 1339.13 1914.05 C 1342.05 1912.64 1345.96 1914.32 1348.89 1915.19 L 1350.61 1915.71 C 1352.35 1914.11 1352.99 1913.33 1355.33 1912.72 C 1355.95 1914.86 1355.91 1915.84 1354.65 1917.82 C 1353.72 1919.29 1352.27 1920.28 1350.62 1920.73 C 1348.66 1921.27 1346.26 1919.64 1344.57 1918.67 C 1342.4 1917.42 1342.51 1917.74 1340.18 1917.99 A 140.768 140.768 0 0 1 1337.56 1919.96 C 1334.14 1922.44 1331.15 1924.43 1326.7 1923.33 C 1323.38 1922.52 1321.54 1918.41 1319.9 1915.71 C 1314.68 1916.06 1314.39 1923.54 1310.13 1926.04 L 1309.28 1925.18 C 1310.73 1920.14 1313.43 1915.83 1316.03 1911.31 C 1311.14 1914.49 1295.14 1928.27 1291.43 1928.7 C 1291.04 1927.54 1291.55 1926.2 1292.01 1925.13 C 1295.27 1917.42 1308.07 1912.23 1315.64 1910.24 z"/>
<path transform="translate(0,0)" fill="rgb(1,0,0)" d="M 940.446 1879.41 C 947.825 1878.88 956.462 1877.75 963.59 1880.18 C 957.299 1884.87 906.097 1889.55 895.24 1890.72 C 885.714 1891.49 876.35 1892.08 866.78 1891.99 C 890.741 1884.46 915.528 1881.69 940.446 1879.41 z"/>
<path transform="translate(0,0)" fill="rgb(1,0,0)" d="M 814.726 1841.76 C 816.283 1842.24 816.194 1842.58 817.108 1843.84 C 817.028 1844.48 816.953 1845.34 816.773 1845.99 C 814.66 1853.61 783.746 1900.43 776.478 1905.04 L 774.787 1904.49 C 775.699 1895.52 802.967 1860.28 809.548 1849.32 L 800.057 1855.84 C 783.819 1868.29 774.345 1881.58 763.435 1898.71 C 763.459 1891.86 765.893 1863.38 769.871 1858.93 L 771.514 1860.38 C 773.665 1865.06 773.296 1869.25 773.18 1874.27 C 786.186 1861.89 799.429 1851.18 814.726 1841.76 z"/>
<path transform="translate(0,0)" fill="rgb(1,0,0)" d="M 1373.63 1785.35 C 1379.14 1784.44 1384.7 1784.69 1390.27 1784.73 C 1372.43 1793.77 1342.05 1798.73 1321.86 1803.71 L 1236.45 1825.64 C 1233.77 1826.43 1229.8 1827.96 1227.19 1827.08 C 1235.26 1822.92 1244.28 1820.27 1252.78 1817.1 C 1292.21 1802.4 1331.94 1791.64 1373.63 1785.35 z"/>
<path transform="translate(0,0)" fill="rgb(1,0,0)" d="M 1658.86 1708.34 C 1660.19 1708.19 1661.74 1708.28 1663.09 1708.27 L 1663.85 1709.31 C 1651.98 1716.33 1631.71 1720.34 1618.11 1724.29 C 1578.07 1735.91 1537.58 1745.45 1498.25 1759.43 C 1498.19 1759.45 1498.13 1759.46 1498.07 1759.49 C 1496.76 1760.15 1497.74 1759.86 1495.9 1760.09 L 1495.07 1759.2 C 1510.83 1742.29 1630.38 1712.95 1658.86 1708.34 z"/>
<path transform="translate(0,0)" fill="rgb(1,0,0)" d="M 1866.72 1564.35 C 1871.71 1566.45 1874.1 1571.72 1876.38 1576.33 C 1881.99 1587.66 1899.89 1636.93 1895.33 1647.27 C 1894.75 1648.58 1894.64 1648.2 1893.07 1648.64 C 1889.35 1643.67 1885.19 1616.83 1883.02 1609.18 C 1879.89 1598.19 1876.24 1587 1870.99 1576.82 L 1870.38 1575.67 C 1873.67 1598.25 1875.54 1620.74 1879.34 1643.33 L 1880.98 1644.36 L 1878.76 1645.23 C 1879.14 1647.15 1879.91 1649.36 1879.48 1651.27 C 1872.92 1650.79 1866.87 1641.05 1862.61 1636.32 L 1844.17 1618 C 1847.87 1627.62 1853.7 1636.13 1857.65 1645.59 C 1859.03 1648.91 1861.52 1654.76 1860.11 1658.13 C 1859.74 1657.77 1859.34 1657.43 1859 1657.04 C 1851.67 1648.93 1844.09 1628.61 1838.71 1618.12 C 1837.15 1615.06 1834.86 1612.41 1833.52 1609.23 C 1832.88 1607.73 1832.97 1606.34 1833.08 1604.75 L 1834.38 1603.79 C 1844.3 1606.32 1866.29 1632.64 1873.85 1640.73 C 1871.3 1626.4 1861.32 1575.46 1866.72 1564.35 z"/>
<path transform="translate(0,0)" fill="rgb(1,0,0)" d="M 1415.8 1689.11 C 1417.6 1689.57 1419.04 1690.31 1420.49 1691.48 C 1442.36 1709.06 1446.12 1740.49 1448.99 1766.32 C 1449.39 1765.44 1449.77 1764.55 1450.16 1763.66 C 1461.76 1737.22 1481.77 1720.95 1508.15 1710.57 C 1493.81 1731.59 1477.87 1752.35 1461.91 1772.18 C 1468.06 1753.35 1482.09 1736.64 1495.16 1722.03 C 1469.27 1736.92 1462.01 1754.45 1445.62 1777.43 C 1443.79 1765.49 1441.89 1753.63 1439.73 1741.76 C 1436.85 1723.87 1431.18 1711.39 1420.66 1696.68 C 1421.39 1710.19 1422.81 1723.88 1424.53 1737.3 C 1425.55 1745.2 1430.98 1768.67 1429.93 1774.99 C 1429.84 1775.56 1429.62 1776.11 1429.47 1776.67 L 1429.99 1778.59 C 1427.55 1779.16 1427.06 1779.2 1424.76 1777.77 C 1422.24 1776.2 1419.86 1773.34 1417.6 1771.33 C 1411.54 1765.95 1404.99 1761.14 1397.62 1757.71 C 1393.28 1755.7 1383.7 1751.65 1379.36 1753.2 C 1381.5 1757.02 1386.8 1760.45 1390.04 1763.46 C 1397.21 1770.12 1404.18 1777.76 1408.84 1786.41 C 1409.06 1786.81 1409.26 1787.22 1409.47 1787.63 C 1398.81 1781.35 1379.71 1761.47 1371.95 1751.42 L 1372.27 1749.85 C 1374.46 1748.04 1374.99 1747.53 1377.98 1747.42 C 1392.79 1746.87 1415.84 1762.81 1426.18 1772.58 C 1421.07 1745.38 1415.81 1716.84 1415.8 1689.11 z"/>
<path transform="translate(0,0)" fill="rgb(1,0,0)" d="M 724.135 1803.37 C 729.747 1805.66 734.265 1814.99 736.775 1820.33 C 745.422 1838.75 753.995 1881.85 745.914 1900.89 C 744.88 1903.32 744.02 1903.99 741.65 1904.99 C 738.287 1902.24 740.511 1893.51 741.184 1889.5 C 745.785 1862.14 740.599 1838.15 728.155 1813.43 C 727.28 1826.18 726.406 1839.12 726.521 1851.91 C 726.631 1864.16 731.401 1893.15 728.311 1902.98 C 727.811 1904.57 727.808 1904.1 726.087 1905.02 C 719.176 1903.03 714.559 1888.81 709.223 1883.47 C 699.689 1873.95 688.482 1869.01 675.774 1865.1 C 683.527 1873.81 703.726 1897.02 701.876 1909.21 C 701.462 1911.94 700.218 1912.3 698.074 1913.52 C 688.807 1914.23 678.893 1908.42 670.545 1904.73 C 659.093 1900.91 648.773 1898.84 636.72 1897.97 C 646.961 1903.98 659.085 1908.31 667.548 1916.8 L 665.182 1918.33 L 667.985 1918.05 L 667.719 1917.05 L 665.877 1918.43 C 663.514 1917.99 661.205 1917.16 659.042 1916.11 C 649.674 1911.57 640.66 1906.19 631.175 1901.84 C 625.053 1899.03 618.497 1897.57 612.577 1894.26 L 612.296 1892.7 C 613.089 1892.06 613.094 1891.97 614.214 1891.55 C 618.26 1890.02 625.682 1891.49 630.007 1891.92 C 660.937 1895.03 668.269 1898.22 697.208 1910.21 C 691.956 1888.64 679.15 1876.32 664.276 1861.01 L 664.36 1858.62 C 667.157 1857.19 670.852 1858.36 673.754 1859.11 C 695.579 1864.8 712.719 1874.23 724.3 1894.24 C 723.756 1881.99 721.826 1869.8 721.542 1857.52 C 721.13 1839.76 722.734 1821.09 724.135 1803.37 z"/>
<path transform="translate(0,0)" fill="rgb(1,0,0)" d="M 1942.58 1466.36 C 1943.87 1467.21 1945.24 1467.75 1945.99 1469.16 C 1949.09 1475 1948.23 1483.82 1947.85 1490.29 C 1946.09 1520.98 1937.98 1548.17 1928.67 1577.16 A 493.333 493.333 0 0 1 1934.44 1570.2 C 1942.05 1561.22 1959.45 1540.43 1971.87 1539.41 C 1974.12 1540.61 1974.52 1540.86 1975.2 1543.53 C 1980.12 1562.79 1944.49 1616.02 1933.26 1633.54 C 1931.83 1636.2 1930.36 1639.6 1928.26 1641.78 C 1926.81 1643.29 1926.6 1643.34 1924.49 1643.31 C 1922.83 1634.51 1935.67 1625.07 1935.05 1615.14 L 1933.72 1614.5 C 1933.14 1614.72 1932.54 1614.91 1931.98 1615.17 C 1925.39 1618.18 1915.9 1631.22 1913.47 1637.98 C 1912.54 1640.57 1912.36 1643.58 1911.52 1646.29 L 1910.13 1646.66 C 1900.52 1629.67 1898.38 1586.93 1899.73 1567.79 C 1902.22 1532.5 1914.97 1490.26 1942.58 1466.36 z"/>
<path transform="translate(0,0)" fill="rgb(104,133,117)" d="M 1969.1 1545.09 L 1969.81 1546.07 C 1970.35 1563.2 1951.86 1595.28 1941.44 1609.17 C 1936.45 1615.84 1936.45 1609.62 1930.7 1611.1 C 1923.08 1613.07 1916.22 1624.94 1911.9 1631.03 C 1909.25 1629.18 1908.34 1618.54 1907.67 1614.89 C 1924.77 1588.54 1942.85 1563.15 1969.1 1545.09 z"/>
<path transform="translate(0,0)" fill="rgb(104,133,117)" d="M 1941.25 1473.6 C 1941.73 1474.74 1942.15 1475.74 1942.3 1476.99 C 1945.72 1505.29 1932.24 1556.72 1920.4 1583.49 C 1916.57 1592.16 1911.64 1599.86 1906.34 1607.69 C 1902.37 1554.51 1910.04 1517.45 1941.25 1473.6 z"/>
<path transform="translate(0,0)" fill="rgb(1,0,0)" d="M 1249.1 536.904 C 1243.23 548.132 1236.54 561.842 1223.43 565.816 C 1210.02 569.877 1197.22 561.516 1186.03 555.096 C 1179.45 551.324 1175.7 548.523 1171.06 542.5 C 1163.54 539.926 1155.12 548.518 1149.97 537.948 C 1148.1 534.099 1152.1 529.685 1151.63 525.655 C 1150.78 518.379 1140.22 509.088 1134.06 506.011 C 1126.84 502.4 1118.64 500.52 1111.1 497.651 C 1093.21 490.839 1070.7 477.894 1063.81 458.984 C 1056.25 438.26 1068.74 407.938 1077.82 389.419 C 1098.53 347.19 1127.95 306.154 1174.28 290.425 C 1199.07 282.006 1226.33 285.027 1249.62 296.635 C 1264.69 304.143 1277.66 314.975 1288.64 327.674 C 1291.72 316.894 1295.49 307.361 1305.94 301.737 C 1313.66 297.582 1324.02 295.875 1332.45 298.796 C 1340.67 301.645 1346.91 309.174 1350.24 316.988 C 1353.18 323.903 1353.33 331.209 1354.01 338.569 C 1364.91 343.155 1372.7 345.588 1377.76 357.23 C 1380.98 364.649 1380.98 373.602 1377.69 381.004 C 1374.1 389.097 1368.75 393.282 1361.05 397.147 C 1366.68 405.488 1370.29 413.684 1368.4 424.058 C 1367.12 431.085 1363.17 437.605 1357.22 441.634 C 1350.55 446.154 1342.17 446.941 1334.43 445.296 C 1331.47 444.669 1329.03 443.538 1326.43 442.05 L 1324.44 442.956 C 1324.4 445.334 1324.68 447.29 1325.1 449.636 C 1325.77 453.47 1325.6 455.529 1323.31 458.76 C 1319.13 464.666 1314.21 465.924 1307.43 467.155 C 1309.14 471.716 1325.09 480.555 1329.95 483.736 C 1349.49 471.954 1398.22 432.362 1421.28 437.775 C 1434.14 440.794 1473.47 498.146 1481.08 511.455 C 1483.5 515.69 1485.31 519.868 1486.86 524.493 C 1481.93 533.382 1477.14 538.209 1467.92 542.8 C 1495.68 582.021 1511.28 628.948 1520.49 675.834 C 1527.27 682.872 1534.42 689.45 1541.61 696.055 C 1554.58 695.911 1562 699.661 1571.28 708.719 C 1609.99 746.519 1638.98 834.258 1655.38 885.209 C 1661.67 904.744 1671.85 932.407 1671.73 952.81 C 1671.6 973.058 1647.09 1005.47 1632.87 1018.92 C 1622.52 1028.71 1610.54 1036.84 1595.74 1036.31 C 1581.2 1035.78 1565.36 1030.61 1551.52 1026.33 C 1550.85 1035.05 1550.12 1067.6 1545 1074.11 C 1543.74 1075.72 1540.12 1076.84 1538.24 1077.64 C 1534.73 1082.47 1519.28 1119.96 1517.7 1127.15 C 1516 1134.96 1516.41 1150.79 1518 1158.67 C 1520.65 1171.76 1527.41 1185.04 1531.17 1198.01 C 1541.65 1234.13 1551.33 1270.51 1561.3 1306.78 C 1566.97 1327.41 1574.11 1348.49 1578.13 1369.42 C 1583.4 1371.55 1589.45 1373.73 1592.01 1379.29 C 1594.13 1383.87 1590.74 1391.73 1592.3 1394.32 C 1595.99 1400.46 1613.94 1409.23 1620.42 1414.95 C 1637.9 1430.4 1655.89 1451.81 1669.12 1470.91 C 1701.85 1518.18 1725.21 1570.23 1754.8 1619.2 C 1751.98 1624.84 1749.16 1630.4 1745.91 1635.81 C 1750.7 1639.86 1772.47 1659.77 1776.68 1659.44 C 1778.57 1659.3 1780.05 1658.67 1781.81 1658.01 C 1793.58 1660.8 1819.79 1701.55 1826.87 1713.08 C 1836.7 1729.05 1851.11 1751.94 1856.06 1769.61 A 6263.28 6263.28 0 0 1 1789.86 1807.18 C 1775.34 1815.32 1761.25 1823.87 1746.02 1830.65 C 1790.93 1826.2 1836.99 1819.7 1882.15 1821.13 A 933.073 933.073 0 0 1 1624.95 1858.76 C 1611.04 1858.98 1596.42 1860.81 1582.63 1859.73 C 1591.3 1856.29 1600.05 1854.71 1609.22 1853.22 C 1607.59 1845.73 1603.48 1830.06 1607.68 1823.29 C 1613.4 1814.07 1649.06 1800.76 1660.14 1792.75 C 1672.48 1783.83 1683.61 1769.6 1690.39 1756.04 C 1685.24 1754.74 1678.39 1753.95 1675.2 1749.27 C 1674.18 1747.77 1674.53 1746.94 1674.57 1745.22 C 1677.3 1740.96 1682.55 1738.7 1687.37 1737.6 C 1691.52 1736.66 1695.99 1736.68 1700.23 1736.6 L 1699.99 1734.9 C 1698.22 1722.74 1690.03 1704.23 1691.72 1692.91 L 1692.83 1692.11 C 1698.55 1695.64 1699.7 1704.58 1701.17 1710.72 C 1703.13 1718.88 1704.77 1727.33 1706.01 1735.62 C 1709.63 1724.83 1710.14 1703.6 1721.44 1698.07 C 1723.56 1697.04 1725.89 1696.52 1728.18 1696.02 C 1720.53 1688.45 1712.13 1681.04 1705.33 1672.71 C 1690.88 1678.82 1676.67 1683.83 1661.19 1686.77 C 1653.33 1678.97 1640.4 1663.53 1637.62 1652.88 L 1638.12 1650.22 C 1639.54 1649.3 1640.55 1648.69 1642.17 1648.14 L 1640.97 1647.2 C 1636.44 1646.33 1632.85 1644.94 1629.5 1641.63 C 1621.25 1633.47 1614.2 1623.53 1606.67 1614.66 C 1595.62 1601.65 1584 1589.04 1572.48 1576.44 C 1543.14 1544.38 1511.34 1514.11 1483.4 1480.86 C 1468.75 1463.43 1455.56 1444.64 1442.8 1425.79 A 495.643 495.643 0 0 1 1404.9 1360.37 C 1397.58 1371.2 1390.33 1381.53 1381.15 1390.91 C 1384.32 1402.57 1387.48 1412.97 1380.94 1424.24 C 1377.61 1429.98 1372.48 1434.86 1367.85 1439.59 C 1364.43 1462.68 1361.69 1485.83 1356.95 1508.7 C 1345.29 1564.84 1324.2 1617.31 1299.33 1668.79 L 1279.58 1708.74 C 1276.49 1714.93 1272.07 1721.8 1270.19 1728.41 C 1269.5 1730.85 1269.69 1731.7 1270.4 1734.03 L 1272.29 1735.64 C 1270.47 1746.43 1257.54 1765.04 1251.54 1774.99 C 1242.24 1773.83 1233.26 1772.46 1224.11 1770.37 C 1216.89 1785.32 1212.07 1800.05 1208.65 1816.29 C 1212.65 1818.03 1218.43 1819.88 1220.39 1824.12 C 1227.14 1838.74 1212.54 1904.79 1205.28 1919.68 C 1203.09 1924.19 1200.04 1928.38 1196.77 1932.16 C 1209.15 1930.77 1259.82 1923.92 1267.7 1929.16 L 1266.93 1930.46 C 1253.77 1932.79 1236.07 1933.28 1221.78 1935.34 C 1203.77 1937.94 1186.1 1942.8 1167.97 1944.45 C 1173.24 1942.45 1178.48 1940.4 1183.89 1938.81 C 1117.38 1926.14 1040.62 1901.31 979.68 1871.43 C 970.754 1867.06 956.918 1861.88 950.963 1853.75 C 949.469 1851.72 948.521 1849.31 948.949 1846.75 C 950.154 1839.57 954.049 1829.11 960.107 1824.8 C 973.162 1815.5 1008.37 1827.33 1025.5 1825.93 C 1042.93 1824.51 1084.79 1812.69 1100.15 1804.62 C 1094.52 1805.6 1087.73 1807.54 1082.09 1806.84 L 1080.63 1805.6 C 1081.81 1802.8 1083.63 1801.82 1086.41 1800.77 C 1098.39 1796.28 1115.26 1797.37 1125.8 1790.37 C 1123.3 1790.42 1119.87 1791.11 1117.49 1790.69 C 1110.2 1789.42 1106.25 1783.42 1097.8 1784.09 C 1084.6 1785.13 1077.14 1798.1 1069.4 1799.48 C 1069.37 1795.88 1072.36 1792.99 1074.8 1790.52 C 1081.17 1784.06 1088.91 1779.4 1098.22 1779.5 C 1107.58 1779.6 1115.1 1784.08 1123.58 1787.28 C 1127.75 1785.02 1131.55 1782.86 1136.19 1781.68 C 1138.89 1774.95 1148.55 1755.73 1145.82 1749.58 C 1145.47 1748.8 1144.61 1747.33 1144.17 1746.56 C 1143.7 1729.1 1150.21 1711.18 1154.16 1694.31 C 1155.77 1687.44 1156.59 1680.39 1157.58 1673.42 C 1180.27 1513.21 1215.01 1360.31 1257.19 1204.25 C 1268.37 1162.89 1281.83 1122.14 1293.15 1080.82 C 1284.24 1064.56 1277.29 1047.61 1273.97 1029.3 C 1266.2 986.397 1276.35 909.432 1288.45 868.069 L 1289.14 865.721 C 1283.44 859.519 1278.8 854.806 1278.92 845.793 C 1279.04 835.665 1286.21 825.844 1292.07 818.009 C 1276.96 780.62 1275.73 712.217 1276.93 671.68 C 1277.38 656.459 1278.84 641.286 1279.32 626.082 C 1274.14 622.402 1269.86 618.584 1265.54 613.916 C 1260.07 591.869 1268.63 578.417 1276.25 558.337 C 1269.26 548.56 1259.86 541.967 1249.1 536.904 z"/>
<path transform="translate(0,0)" fill="rgb(245,232,194)" d="M 1090.39 1833.42 C 1089.56 1828.27 1088.76 1825.04 1091.23 1820.2 L 1092.85 1820.12 C 1094.91 1822.98 1095.06 1825.61 1095.47 1829.04 C 1093.81 1830.97 1092.67 1832.17 1090.39 1833.42 z"/>
<path transform="translate(0,0)" fill="rgb(144,142,131)" d="M 1524.32 712.508 C 1528.27 717.844 1532.11 723.195 1535.75 728.749 L 1532.05 730.464 A 250.568 250.568 0 0 0 1530.37 736.188 L 1524.32 712.508 z"/>
<path transform="translate(0,0)" fill="rgb(245,232,194)" d="M 1720.63 1749.58 C 1719.14 1748.87 1717.72 1748.11 1716.29 1747.29 C 1712.74 1745.25 1710.03 1743.78 1708.93 1739.58 C 1710.11 1736.98 1710.14 1737.18 1712.81 1736.07 C 1715.73 1736.29 1716.94 1736.68 1719.3 1738.42 A 171.369 171.369 0 0 1 1720.72 1747.25 L 1720.63 1749.58 z"/>
<path transform="translate(0,0)" fill="rgb(245,232,194)" d="M 1691.92 1742.32 L 1697.05 1743.01 C 1698.58 1744.86 1698.56 1745.27 1698.86 1747.68 C 1697.9 1749.25 1697.39 1750.26 1695.69 1751.13 C 1694.08 1751.96 1692.01 1750.91 1690.31 1750.46 C 1687.28 1749.52 1684.66 1748.86 1682.21 1746.72 L 1682.43 1745.15 C 1685.4 1743.32 1688.55 1742.94 1691.92 1742.32 z"/>
<path transform="translate(0,0)" fill="rgb(245,232,194)" d="M 1693.78 1756.54 C 1697.27 1758.44 1700.85 1760.29 1704.19 1762.46 C 1707.9 1764.87 1711.86 1767.29 1712.81 1771.89 L 1711.2 1774.13 C 1710.64 1773.72 1709.44 1772.87 1709.01 1772.47 C 1705.84 1769.57 1704.29 1768.97 1700.16 1767.53 C 1696.7 1766.32 1693.5 1765.04 1691.9 1761.71 L 1693.78 1756.54 z"/>
<path transform="translate(0,0)" fill="rgb(104,133,117)" d="M 1349.79 1079.15 C 1352 1080.35 1355.85 1100.66 1357 1104.36 L 1349.69 1096.27 C 1345.57 1091.85 1341.35 1087.48 1337.48 1082.83 L 1338.08 1081.7 C 1342.14 1081.67 1345 1081.22 1348.76 1079.61 C 1349.1 1079.46 1349.44 1079.3 1349.79 1079.15 z"/>
<path transform="translate(0,0)" fill="rgb(245,232,194)" d="M 1242.1 447.645 C 1237.29 443.248 1223.89 433.325 1223.23 426.749 C 1223.07 425.05 1223.77 424.838 1224.78 423.639 C 1227.86 423.007 1230.12 423.848 1232.61 425.62 C 1240.15 430.97 1242.27 439.31 1244.25 447.83 L 1242.1 447.645 z"/>
<path transform="translate(0,0)" fill="rgb(144,142,131)" d="M 1640.97 1647.2 C 1670.62 1631.04 1703.72 1613.49 1724.41 1586.01 L 1726.2 1585.47 L 1728.92 1589.28 C 1721.22 1595.96 1714.93 1603.98 1707.36 1610.7 C 1689.93 1626.14 1663.83 1640.35 1642.17 1648.14 L 1640.97 1647.2 z"/>
<path transform="translate(0,0)" fill="rgb(104,133,117)" d="M 1368.3 1071.44 L 1369.27 1072.51 C 1369.78 1078.46 1367.41 1109.4 1364.42 1112.96 L 1364.44 1112.83 L 1361.03 1107.73 C 1356.89 1097.9 1354.48 1087.52 1352 1077.18 C 1357.51 1074.56 1362.38 1072.85 1368.3 1071.44 z"/>
<path transform="translate(0,0)" fill="rgb(104,133,117)" d="M 1372.17 1072.45 L 1381.29 1076.8 C 1381 1094.47 1378.43 1113.63 1375.55 1131.06 C 1372.71 1126.14 1369.44 1121.4 1366.35 1116.63 C 1369.59 1102.16 1370.75 1087.18 1372.17 1072.45 z"/>
<path transform="translate(0,0)" fill="rgb(245,232,194)" d="M 1151.62 1750.57 C 1155.77 1751.89 1169.19 1754.75 1171.29 1758.16 C 1167.34 1760.32 1161.37 1753.47 1156.94 1754.32 L 1156.91 1754.38 C 1157.02 1754.64 1157.1 1754.9 1157.24 1755.14 C 1159.66 1759.37 1165.91 1760.76 1170.21 1762.29 L 1168.55 1771.17 C 1166.39 1776.59 1163.66 1781.79 1161.09 1787.03 C 1155.44 1782.56 1150.02 1780.23 1143.26 1778.04 C 1146.9 1769.06 1149.78 1760.08 1151.62 1750.57 z"/>
<path transform="translate(0,0)" fill="rgb(217,208,138)" d="M 1327.52 997.683 C 1328.91 998.874 1328.78 998.451 1329.35 999.806 C 1338.95 1022.37 1352.24 1041.72 1371.55 1057.1 L 1362.78 1060.59 C 1362.12 1061.04 1361.08 1061.77 1360.39 1062.1 C 1358.89 1062.83 1358.2 1063.17 1356.67 1062.49 C 1341.76 1055.83 1325.96 1018.85 1320.73 1003.91 C 1322.9 1001.76 1325.27 999.743 1327.52 997.683 z"/>
<path transform="translate(0,0)" fill="rgb(245,232,194)" d="M 1317.65 1009.75 C 1320.26 1012.5 1321.75 1018.8 1323.25 1022.39 C 1330.92 1040.68 1339.3 1054.42 1354.84 1066.88 L 1347.41 1071.83 C 1343.82 1072.75 1340.97 1073.66 1337.48 1071.76 C 1325.1 1065.03 1314.71 1038.84 1310.37 1026.02 C 1312.31 1020.2 1314.67 1015.11 1317.65 1009.75 z"/>
<path transform="translate(0,0)" fill="rgb(217,208,138)" d="M 1342.47 867.24 L 1344.52 867.489 C 1352.86 877.859 1356.81 922.398 1361.21 937.88 C 1358.88 941.818 1356.46 945.629 1353.88 949.406 L 1352.22 949.556 C 1349.18 936.947 1347.17 924.122 1343.91 911.55 C 1340.19 897.18 1334.95 883.484 1329.69 869.63 L 1342.47 867.24 z"/>
<path transform="translate(0,0)" fill="rgb(106,68,68)" d="M 1296.71 529.373 C 1303.21 519.847 1309.99 510.681 1318.29 502.638 C 1337.82 483.725 1377.25 457.908 1402.63 447.708 C 1404.66 448.708 1406.63 449.635 1408.44 451.005 C 1402.71 456.967 1397.7 462.972 1391.21 468.214 C 1362 491.808 1325.68 504.929 1296.71 529.373 z"/>
<path transform="translate(0,0)" fill="rgb(245,232,194)" d="M 1175.14 1758.18 C 1189.42 1759.91 1205.02 1765.55 1219.01 1769.14 C 1210.76 1782.98 1205.55 1799.9 1203.61 1815.83 C 1191.29 1811.8 1179.05 1807.75 1167.45 1801.93 C 1163.85 1799.04 1163.19 1795.4 1161.73 1791.14 C 1169.31 1782.48 1172.82 1774.91 1175 1763.66 C 1179.87 1764.89 1211.75 1774.47 1214.06 1773.69 C 1208.68 1765.56 1181.78 1767.32 1175.14 1758.18 z"/>
<path transform="translate(0,0)" fill="rgb(217,208,138)" d="M 1544.87 1022.38 L 1545.39 1022.75 C 1546.8 1025.99 1545.21 1031.37 1544.68 1034.84 C 1497.33 1047.75 1452.35 1046.76 1403.88 1044.93 C 1402.73 1044.74 1403.32 1044.99 1402.28 1043.82 C 1406.16 1037.8 1413.47 1033.2 1419.25 1029.13 C 1461.81 1029.66 1502.76 1029.48 1544.87 1022.38 z"/>
<path transform="translate(0,0)" fill="rgb(245,232,194)" d="M 1743.52 1640.66 C 1757.28 1650.67 1769.43 1663 1783.08 1673.26 C 1773.22 1685.31 1765.13 1697.04 1749.62 1701.92 C 1732.49 1697.17 1722.41 1682 1709.69 1670.5 C 1722.37 1663.4 1733.74 1651.23 1743.52 1640.66 z"/>
<path transform="translate(0,0)" fill="rgb(1,0,0)" d="M 1741.05 1649.77 C 1744.02 1650.38 1749.38 1652.08 1751.53 1654.25 C 1752.56 1655.28 1752.23 1656.13 1752.27 1657.48 C 1749.54 1661.65 1745.36 1663.53 1741.83 1667 L 1741.05 1667.78 L 1739.32 1664.77 C 1736.86 1665.15 1737.77 1664.87 1735.53 1665.75 C 1735.02 1665.95 1734.51 1666.17 1734.01 1666.37 C 1732.17 1664.59 1732.11 1663.42 1731.45 1660.99 C 1732.34 1655.41 1736.88 1652.95 1741.05 1649.77 z"/>
<path transform="translate(0,0)" fill="url(#Gradient1)" d="M 1345.47 553.115 C 1362.51 547.04 1378.43 548.117 1394.75 555.844 C 1424.76 570.057 1494.04 657.134 1523.27 686.808 C 1528.05 691.663 1535.19 700.978 1540.95 703.905 C 1542.77 704.832 1545.91 703.618 1547.77 703.044 C 1551.07 702.029 1554.61 702.286 1557.69 703.939 C 1562.08 706.292 1566.04 710.849 1569.44 714.436 C 1560.07 717.397 1551.62 721.579 1542.58 725.291 C 1531.64 713.878 1522.02 701.161 1511.83 689.072 C 1488.52 661.421 1465.1 633.379 1440.42 606.948 C 1427.6 593.222 1415.31 579.551 1399.67 568.893 C 1390.71 562.787 1381.46 558.318 1370.38 558.011 C 1363.83 557.83 1357.51 558.765 1351.19 560.401 L 1351.58 558.689 C 1352.97 558.257 1354.26 557.781 1355.57 557.125 C 1357.67 556.064 1358.64 556.12 1359.38 553.8 L 1358.62 552.412 L 1358.95 553.043 L 1357.03 551.429 C 1355.15 551.376 1355.67 551.166 1354.3 551.745 C 1351.39 552.966 1349.66 553.284 1346.48 553.166 C 1346.14 553.154 1345.81 553.132 1345.47 553.115 z"/>
<path transform="translate(0,0)" fill="rgb(245,232,194)" d="M 1402.63 447.708 C 1408.25 445.088 1413.88 442.345 1420.15 444.409 C 1426.02 446.34 1429.66 451.595 1433.3 456.253 C 1419.38 470.79 1404.43 482.628 1387.2 493.058 C 1362.72 507.874 1335.54 519.891 1315.01 540.305 C 1296.52 558.684 1284.02 581.072 1270.52 603.085 C 1266.9 590.429 1281.2 563.184 1287.37 551.599 C 1293.59 539.922 1305.72 528.72 1316.36 521.041 C 1338.7 504.904 1395.73 478.528 1410.09 461.758 C 1412.16 459.344 1413.03 457.843 1412.33 454.722 L 1408.44 451.005 C 1406.63 449.635 1404.66 448.708 1402.63 447.708 z"/>
<path transform="translate(0,0)" fill="rgb(245,232,194)" d="M 1542.95 1048.23 C 1543.84 1054.44 1541.62 1062.29 1540.46 1068.41 C 1531.18 1072.26 1520.94 1074.04 1511.06 1075.66 C 1468.46 1082.64 1429.35 1075.95 1387.95 1066.36 L 1375.29 1062.79 A 470.66 470.66 0 0 1 1387.54 1054.81 C 1439.33 1057.7 1492.32 1063.42 1542.95 1048.23 z"/>
<path transform="translate(0,0)" fill="rgb(104,133,117)" d="M 1155.67 1710.28 C 1180.16 1722.53 1235.79 1739.56 1262.71 1741.52 C 1258.4 1747.97 1254.77 1754.64 1251.17 1761.51 C 1250.18 1763.41 1249.04 1765.18 1247.9 1766.99 C 1237.43 1770.15 1163.13 1746.63 1149.54 1742.62 L 1155.67 1710.28 z"/>
<path transform="translate(0,0)" fill="rgb(104,133,117)" d="M 1730.63 1592.08 C 1735.26 1597.43 1741.73 1612.16 1748 1620.36 C 1747.83 1620.64 1747.67 1620.92 1747.5 1621.2 C 1728.15 1652.68 1699.73 1671.15 1664.01 1679.61 C 1657.48 1670.86 1651.76 1661.04 1645.78 1651.89 C 1678.87 1638.44 1707.38 1619.31 1730.63 1592.08 z"/>
<path transform="translate(0,0)" fill="rgb(245,232,194)" d="M 1727.83 1736.05 L 1729.51 1736.08 C 1727.92 1759.15 1731.58 1776.91 1738.43 1798.81 C 1720.17 1807.29 1700.53 1818.56 1681.04 1823.5 C 1667.32 1826.98 1653.14 1827.78 1639.08 1828.79 C 1631.5 1829.34 1622.08 1831.06 1614.8 1828.53 L 1613.67 1827.05 C 1616.83 1819.3 1643.78 1809.77 1652.23 1804.78 C 1656.3 1806.73 1659.72 1808.59 1664.31 1808.84 L 1666.79 1807.79 C 1668.17 1804.2 1667.24 1803.3 1666.01 1799.76 C 1671.21 1799.21 1675.09 1809.12 1681.04 1803.84 C 1681.54 1803.39 1681.85 1802.66 1682.15 1802.07 C 1681.45 1798.3 1679.3 1796.4 1679.7 1792.5 L 1682 1790.63 C 1679.65 1790.67 1678.7 1790.35 1676.69 1789.12 C 1676.7 1787.15 1676.56 1786.97 1677.54 1785.07 C 1679.01 1782.24 1681.58 1779.05 1684.72 1778.1 C 1686.05 1780.4 1687.36 1782.66 1688.99 1784.77 L 1690.14 1786.25 C 1690.72 1781.72 1689.87 1780.26 1687.34 1776.54 C 1687.04 1776.1 1686.74 1775.67 1686.43 1775.24 C 1686.48 1772.81 1686.59 1772.66 1688.02 1770.68 C 1696.03 1767.81 1707.45 1778.89 1716.64 1778.81 C 1718.85 1777.69 1718.76 1777.76 1719.65 1775.44 C 1718.08 1762.71 1708.44 1761.75 1701.5 1752.99 L 1701.89 1750.37 C 1704.17 1748.44 1704.18 1748.44 1707.17 1748.36 C 1710.21 1750.2 1716.23 1754.12 1719.76 1753.69 C 1721.07 1753.53 1722.29 1753.36 1723.21 1752.39 C 1722.71 1751.11 1721.64 1750.47 1720.63 1749.58 L 1720.72 1747.25 C 1724.24 1742.61 1722.57 1740.1 1727.83 1736.05 z"/>
<path transform="translate(0,0)" fill="rgb(217,208,138)" d="M 1345.47 553.115 C 1345.81 553.132 1346.14 553.154 1346.48 553.166 C 1349.66 553.284 1351.39 552.966 1354.3 551.745 C 1355.67 551.166 1355.15 551.376 1357.03 551.429 L 1358.95 553.043 L 1358.62 552.412 L 1359.38 553.8 C 1358.64 556.12 1357.67 556.064 1355.57 557.125 C 1354.26 557.781 1352.97 558.257 1351.58 558.689 L 1351.19 560.401 C 1343.32 564.75 1337.84 569.97 1333.3 577.733 C 1327.73 587.253 1324.87 598.546 1324.4 609.518 C 1322.61 650.931 1347.72 728.98 1363 768.443 C 1369.52 785.249 1379.64 802.929 1383.73 820.366 L 1384.05 821.804 C 1361.9 797.728 1345.95 767.637 1335.02 736.937 C 1324.48 707.367 1310.22 642.254 1311 611.28 C 1311.28 599.799 1313.42 588.313 1318.43 577.912 C 1324.15 566.018 1332.91 557.451 1345.47 553.115 z"/>
<path transform="translate(0,0)" fill="rgb(245,232,194)" d="M 1258.48 451.564 C 1265.15 457.639 1278.68 464.31 1287.87 464.846 C 1291.22 465.042 1294.37 465.576 1297.68 466.176 C 1305.27 474.482 1314.77 481.497 1323.36 488.764 C 1308.79 501.93 1298.22 514.714 1288.08 531.463 C 1284.45 537.621 1281.13 543.93 1277.81 550.262 C 1269.61 542.586 1260.78 536.675 1250.82 531.553 C 1259.23 507.068 1254.47 494.508 1245.74 471.786 C 1248.52 470.696 1251.41 469.51 1253.69 467.539 C 1258.38 463.503 1258.2 457.212 1258.48 451.564 z"/>
<path transform="translate(0,0)" fill="rgb(104,133,117)" d="M 1375.95 1396.11 C 1378.15 1400.11 1379.12 1407.22 1378.93 1411.76 C 1378.78 1415.32 1378.14 1418.83 1376.19 1421.87 C 1371.78 1428.71 1365.08 1434.29 1359.18 1439.82 C 1333.92 1463.52 1305.39 1482.8 1280.11 1506.36 L 1278.99 1506.98 C 1277.79 1505.11 1278.26 1504.54 1278.63 1502.45 C 1282.98 1478.33 1289.77 1454.94 1292.37 1430.42 C 1319.43 1422.56 1353.28 1412.6 1375.95 1396.11 z"/>
<path transform="translate(0,0)" fill="rgb(245,232,194)" d="M 959.474 1834.15 C 967.558 1836.69 975.678 1841.53 983.413 1845.12 A 676.77 676.77 0 0 0 1023.04 1861.79 C 1055.88 1874.22 1089.09 1883.69 1122.87 1893.17 C 1149.34 1900.6 1175.66 1908.19 1202.65 1913.54 C 1200.27 1918.34 1197.33 1922.77 1194.42 1927.27 L 1189.03 1932.99 C 1120.08 1909.31 1048.37 1895.68 982.008 1864.31 C 972.974 1860.04 962.906 1856.02 955.408 1849.29 C 956.474 1844.13 957.928 1839.18 959.474 1834.15 z"/>
<path transform="translate(0,0)" fill="rgb(245,232,194)" d="M 1839.64 1749.26 C 1843.1 1754.42 1845.79 1759.81 1848.52 1765.38 C 1831.58 1778.75 1800.38 1793.23 1780.69 1804.17 C 1761.53 1814.81 1743.06 1827.09 1723.28 1836.55 C 1714.07 1840.95 1703.85 1845.12 1693.92 1847.52 C 1671.58 1852.93 1645.59 1850.4 1622.68 1850.35 C 1620.46 1850.55 1618.84 1850.56 1616.67 1850.02 C 1613.7 1846.18 1614.06 1839.95 1613.57 1835.17 C 1633.53 1834.51 1655.24 1834.88 1674.8 1830.58 C 1693.4 1826.48 1710.79 1817.82 1727.88 1809.67 C 1766.15 1791.43 1802.84 1770.25 1839.64 1749.26 z"/>
<path transform="translate(0,0)" fill="rgb(245,232,194)" d="M 1438.5 462.934 C 1445.11 469.108 1475.06 511.82 1478.36 519.681 C 1479.59 522.604 1479.57 525.161 1478.19 528.016 C 1476.01 532.515 1470.52 535.09 1466.08 536.616 C 1465.56 536.794 1465.04 536.954 1464.52 537.13 C 1462.67 537.754 1461.21 538.132 1459.23 538.111 C 1451.16 538.026 1442.06 535.77 1434.01 534.637 C 1413.98 531.816 1394.24 529.242 1373.95 529.772 C 1358.11 530.563 1342.86 534.22 1327.41 537.581 C 1353.21 520.504 1381.28 507.089 1406.64 489.354 C 1417.93 481.454 1427.98 471.809 1438.5 462.934 z"/>
<path transform="translate(0,0)" fill="rgb(245,232,194)" d="M 1368.68 537.393 C 1380.81 535.719 1449.43 540.725 1460.9 544.499 C 1462.52 547.606 1459.84 548.591 1461.29 551.711 C 1463.62 550.573 1463.68 550.023 1466.33 550.607 C 1486.07 573.649 1505.8 638.356 1512.18 668.133 C 1485.59 636.658 1459.65 603.199 1429.15 575.395 C 1417.08 564.027 1404.6 551.7 1388.93 545.451 A 59.7149 59.7149 0 0 0 1342.93 546.436 C 1313.47 559.566 1301.89 595.719 1291.17 623.538 C 1284.84 620.044 1278.37 616.745 1272.66 612.269 C 1288.66 588.839 1303.27 565.968 1321.56 544.122 C 1321.8 544.11 1322.03 544.092 1322.27 544.084 C 1337.89 543.513 1353.08 538.853 1368.68 537.393 z"/>
<path transform="translate(0,0)" fill="rgb(245,232,194)" d="M 1792.13 1675.84 C 1810.91 1696.75 1824.67 1719.39 1836.98 1744.54 C 1806.78 1761.77 1776.5 1780.34 1745.08 1795.27 C 1740.45 1782.12 1735.89 1768.89 1735.44 1754.8 C 1735.09 1743.75 1743.5 1715.7 1740.07 1707.97 L 1737.58 1708.82 C 1734.13 1717.45 1734.85 1728.35 1729.51 1736.08 L 1727.83 1736.05 C 1722.49 1734.34 1717.65 1733.13 1712.06 1732.48 C 1712.85 1729.05 1714.38 1718.89 1716.63 1716.69 C 1718.38 1717.26 1720.28 1717.98 1722.11 1718.23 C 1724.86 1718.6 1726.37 1717.85 1728.59 1716.41 L 1728.44 1715.03 C 1724.92 1713.64 1721.36 1712.87 1717.67 1712.05 C 1716.49 1710.13 1716.83 1710.06 1717.02 1707.93 C 1717.91 1706.48 1718.76 1704.95 1720.27 1704.04 C 1726.58 1700.23 1736.49 1704.19 1742.78 1706.32 C 1753.85 1707.66 1762.36 1705.15 1771.12 1698.21 C 1778.97 1691.98 1785.56 1683.4 1792.13 1675.84 z"/>
<path transform="translate(0,0)" fill="rgb(245,232,194)" d="M 1296.44 822.046 L 1338.13 863.468 C 1333.03 865.022 1327.74 866.169 1322.57 867.465 C 1334.24 898.896 1342.16 926.342 1347.87 959.417 C 1340.13 972.117 1330.06 983.965 1320.88 995.656 C 1318.41 990.749 1315.75 986.296 1312.59 981.793 C 1313.04 988.49 1315.07 994.985 1316.76 1001.45 C 1310.5 1010.72 1305.65 1017.85 1305.45 1029.44 C 1306.79 1043.32 1299.02 1059.68 1295.15 1073.11 C 1268 1022.84 1278.45 956.027 1287.21 901.923 C 1289.02 890.739 1295.04 877.961 1294.5 866.759 C 1294.08 858.268 1286.15 855.454 1284.82 848.168 C 1283.19 839.196 1291.63 828.864 1296.44 822.046 z"/>
<path transform="translate(0,0)" fill="rgb(104,133,117)" d="M 1535.75 728.749 C 1538.74 747.699 1549.69 764.755 1555.71 782.857 A 988.651 988.651 0 0 1 1600.48 973.206 C 1601.91 984.569 1604.52 997.358 1603.41 1008.81 C 1602.69 1016.29 1599.06 1024.02 1596.35 1030.97 C 1580.87 1029.62 1566.95 1024.85 1551.85 1022.45 A 1314.54 1314.54 0 0 0 1542.81 827.473 C 1539.31 796.959 1533.86 766.68 1530.37 736.188 A 250.568 250.568 0 0 1 1532.05 730.464 L 1535.75 728.749 z"/>
<path transform="translate(0,0)" fill="rgb(245,232,194)" d="M 1525.03 740.071 C 1527.42 742.63 1528.88 765.568 1529.59 770.729 C 1532.49 791.76 1536.27 812.678 1538.76 833.765 A 1199.26 1199.26 0 0 1 1547.11 1009.02 C 1513.27 1018.79 1467.04 1015.84 1432 1015.31 C 1459.68 988.832 1495.54 954.079 1512.2 919.551 C 1535.75 870.769 1512.57 811.087 1495.74 763.558 C 1505.98 756.822 1515.96 748.303 1525.03 740.071 z"/>
<path transform="translate(0,0)" fill="rgb(217,208,138)" d="M 1565.74 720.989 C 1568.96 720.845 1571.76 720.624 1574.48 722.703 C 1582.87 729.132 1589.25 742.487 1594.18 751.615 C 1617.75 795.268 1634.78 841.206 1649.65 888.406 C 1655.15 905.843 1661.25 923.82 1664.28 941.884 C 1668.28 965.714 1653.81 983.385 1640.65 1001.6 C 1645.61 938.951 1626.36 882.72 1602.45 825.77 C 1596.6 811.817 1591.38 796.371 1583.37 783.546 C 1584.94 792.511 1587.83 800.711 1590.87 809.259 C 1611.24 860.363 1632.65 911.936 1636.42 967.475 C 1637.28 980.24 1637.47 995.621 1632.65 1007.7 C 1627.78 1019.89 1614.17 1025.99 1602.77 1030.58 L 1603.63 1028.31 C 1609.2 1013.58 1612.12 999.349 1612.54 983.577 C 1614.48 912.149 1575.08 796.064 1545.89 731.162 C 1552.19 726.578 1558.45 723.635 1565.74 720.989 z"/>
<path transform="translate(0,0)" fill="rgb(245,232,194)" d="M 1244.25 447.83 C 1242.16 449.728 1240.18 451.486 1237.39 452.231 C 1233.49 453.27 1229.52 451.987 1226.18 449.949 C 1219.08 445.625 1213.33 437.075 1211.55 429.012 C 1210.57 424.596 1210.83 419.671 1213.44 415.835 C 1215.5 412.806 1218.97 410.525 1222.63 410.112 C 1228.16 409.487 1233.28 412.925 1237.24 416.378 C 1246.23 424.195 1253.76 436.928 1254.2 449.048 C 1254.37 453.636 1254.34 460.425 1250.57 463.708 C 1247.45 466.428 1243.15 466.17 1239.28 466.245 C 1237.22 466.285 1238.19 465.929 1236.52 467.352 C 1242.41 475.079 1245.94 483.096 1248.64 492.353 C 1253.97 510.544 1249.66 524.677 1240.73 540.759 C 1235.67 549.876 1228.49 559.172 1217.87 561.795 C 1201.53 565.831 1205.14 555.323 1197.12 550.783 L 1195.72 553.161 C 1192.75 553.762 1189.68 551.703 1187.03 550.482 C 1193.5 548.469 1198.48 546.895 1201.98 540.728 L 1201.55 539.512 C 1195.77 540.382 1188.95 545.388 1183.72 548.232 C 1178.79 545.788 1177.69 544.27 1175.79 539.298 C 1174.87 536.882 1174.74 535.545 1172.26 534.388 C 1169.11 537.046 1166.66 539.465 1162.45 540.107 C 1153.71 536.653 1155.82 527.115 1153.69 519.556 C 1152.69 516.006 1150.41 512.532 1148.59 509.341 C 1158.33 519.774 1169.37 526.738 1183.78 529.167 L 1184.28 528.102 C 1178.04 520.217 1167.4 520.188 1159.39 515.073 C 1151.56 510.077 1144.9 502.745 1137.55 497.03 C 1131.44 492.274 1124.69 488.359 1118.61 483.561 C 1104.41 472.353 1094.94 455.839 1091.3 438.251 C 1121.03 448.572 1183.75 449.602 1216.84 449.038 C 1219.64 450.836 1222.5 452.926 1225.5 454.383 C 1229.94 456.545 1235.77 457.141 1240.46 455.44 C 1243.54 454.324 1246.01 451.997 1247.18 448.925 C 1248.84 444.577 1247.74 439.602 1245.75 435.559 C 1242.78 429.519 1234.45 419.273 1227.39 417.947 C 1224.57 417.416 1223.94 418.01 1221.56 419.373 C 1220.2 421.559 1219.47 423.084 1219.59 425.717 C 1219.85 431.446 1223.56 437.815 1227.88 441.459 C 1232.33 445.208 1236.14 448.246 1242.1 447.645 L 1244.25 447.83 z"/>
<path transform="translate(0,0)" fill="rgb(1,0,0)" d="M 1160.66 462.749 C 1162.43 462.894 1163.52 463.125 1165.17 463.644 C 1164.77 465.163 1142.74 489.482 1139.74 492.782 L 1136.99 492.725 L 1136.07 491.362 C 1136.34 489.875 1136.26 489.953 1136.94 488.29 C 1140.62 479.325 1151.9 466.704 1160.66 462.749 z"/>
<path transform="translate(0,0)" fill="rgb(1,0,0)" d="M 1170.23 478.738 C 1172.43 479.027 1172.5 478.556 1173.94 480.407 C 1174.17 486.792 1174.9 493.919 1169.71 498.719 C 1165.68 502.451 1161.1 501.31 1156.05 500.973 L 1152.76 499.438 C 1152.05 498.063 1151.33 497.447 1151.69 495.844 C 1153.28 488.781 1164.58 482.523 1170.23 478.738 z"/>
<path transform="translate(0,0)" fill="rgb(245,232,194)" d="M 1165.69 487.9 C 1165.9 488.251 1166.16 488.572 1166.31 488.951 C 1167.24 491.396 1167.05 493.772 1166.21 496.117 C 1163.13 498.521 1162.07 498.377 1158.29 498.793 L 1156.64 497.444 L 1156.5 495.441 C 1158.68 491.946 1162.3 490.095 1165.69 487.9 z"/>
<path transform="translate(0,0)" fill="rgb(245,232,194)" d="M 1120.36 1812.8 C 1136.07 1804.99 1124.03 1791.32 1150.2 1785.02 C 1153.35 1790.73 1156.85 1796.45 1159.28 1802.5 C 1129.79 1820.86 1102.72 1845.19 1066.33 1847.49 L 1064.62 1848.72 C 1065.14 1851.21 1065.63 1851.29 1067.59 1852.97 C 1080.62 1856.84 1105.85 1844.25 1117.24 1837.98 C 1132.07 1829.81 1146.63 1815.24 1162.83 1810.62 C 1163.93 1810.31 1165.01 1809.97 1166.11 1809.65 C 1182.54 1815.63 1198.66 1821.43 1215.65 1825.67 C 1213.86 1853.32 1210.7 1881.95 1203.37 1908.73 C 1174.06 1900.85 1144.97 1892.29 1115.73 1884.19 C 1094.52 1878.32 1072.82 1873.18 1051.97 1866.13 C 1021.32 1855.76 991.165 1842.12 961.242 1829.8 C 978.007 1827.09 993.779 1830.61 1010.52 1831.93 C 1018.95 1832.6 1027.38 1832.25 1035.81 1831.85 C 1034.43 1835.31 1032.3 1839.18 1033.95 1842.91 C 1034.06 1843.16 1034.23 1843.38 1034.36 1843.62 C 1036.73 1843.67 1035.81 1844.07 1037.53 1842.42 C 1041.74 1838.37 1042.77 1831.48 1044.31 1826.04 C 1044.73 1830.78 1044.24 1837.38 1046.41 1841.62 L 1047.97 1841.48 C 1050.9 1835.97 1044.62 1832.61 1050.79 1826.93 L 1053.2 1826.51 C 1056.04 1829.83 1054.15 1834.36 1057.05 1837.75 L 1058.31 1837.15 C 1059.19 1832.95 1058.97 1828.86 1058.88 1824.6 L 1071.63 1822.08 C 1072.99 1825.99 1074.17 1831.85 1076.95 1834.86 L 1078.6 1834.4 C 1080.26 1830.04 1076.51 1823.88 1078.52 1820.82 C 1081.32 1821.25 1082.26 1822.14 1084.33 1823.92 C 1085.21 1827.05 1086.03 1832.81 1088.77 1834.43 L 1090.39 1833.42 C 1092.67 1832.17 1093.81 1830.97 1095.47 1829.04 L 1097.54 1829.92 L 1099.07 1828.49 C 1099.45 1824.71 1101.58 1817.95 1101.15 1814.77 L 1098.35 1813.79 L 1098.59 1812.83 L 1100.09 1812.48 C 1104 1814.01 1106.03 1818.77 1108.04 1822.34 L 1110.2 1822.81 C 1113.78 1820.87 1116.06 1817.33 1118.57 1814.2 C 1114.25 1800.04 1115.41 1808.2 1108.96 1803.59 L 1109.79 1802.7 C 1115.27 1801.61 1119.85 1800.11 1124.95 1797.83 C 1123.04 1802.65 1120.89 1807.62 1120.36 1812.8 z"/>
<path transform="translate(0,0)" fill="rgb(1,0,0)" d="M 1064.65 1824.28 C 1066.4 1825.02 1066.95 1825.51 1068.26 1826.81 C 1069.84 1830.58 1069.73 1833.71 1069.67 1837.75 C 1068.45 1837.36 1067.4 1837.3 1066.57 1836.25 C 1064.01 1832.99 1064.56 1828.16 1064.65 1824.28 z"/>
<path transform="translate(0,0)" fill="rgb(245,232,194)" d="M 1304.57 608.717 C 1306.21 617.373 1305.84 627.08 1307.1 636 C 1313.25 679.646 1320.75 724.278 1339.46 764.481 C 1348.68 784.316 1361.93 807.597 1377.61 823.197 C 1381.17 826.735 1387.26 830.061 1389.14 834.822 C 1392.02 842.122 1385.79 848.442 1388.08 855.169 C 1389.39 858.99 1393.35 860.461 1396.73 862.072 L 1398.04 862.686 C 1399.39 880.085 1381.02 906.349 1371.97 920.879 L 1365.51 930.995 C 1362.35 908.054 1356.87 886.58 1350.11 864.48 C 1336.93 855.007 1304.81 827.806 1297.24 814.096 C 1284.98 791.877 1278.9 655.239 1286.03 629.524 C 1286.79 629.512 1287.55 629.474 1288.31 629.5 C 1290.23 629.567 1291.79 629.892 1293.6 628.975 C 1299.55 625.967 1302.33 614.655 1304.57 608.717 z"/>
<path transform="translate(0,0)" fill="rgb(104,133,117)" d="M 1359.4 1445.86 C 1361.47 1453.92 1356.43 1472.95 1354.77 1482.11 C 1349.1 1513.42 1342.36 1543.94 1332.08 1574.1 C 1313.32 1629.08 1285.6 1680.96 1261.73 1733.82 L 1229.82 1726.37 C 1227.42 1726 1225.86 1725.73 1223.82 1724.38 L 1223.3 1721.79 C 1228.54 1708.35 1230.89 1692.93 1235.06 1679 C 1251.63 1623.6 1266.58 1569.19 1277.07 1512.22 C 1293 1496.82 1311.78 1484.23 1329.43 1470.9 C 1339.85 1463.03 1349.64 1454.51 1359.4 1445.86 z"/>
<path transform="translate(0,0)" fill="rgb(104,133,117)" d="M 1453.52 1265.68 C 1456.19 1268.26 1479.42 1326.21 1484.22 1336.04 C 1502.84 1374.19 1526.49 1411.39 1551.22 1445.86 C 1535.51 1440.87 1519.94 1435.47 1504.87 1428.76 C 1492.61 1423.31 1480.79 1416.94 1468.49 1411.56 C 1487.86 1431.44 1526.82 1443.45 1553.65 1450.51 C 1571.15 1469.44 1591.48 1501.36 1606.47 1523.36 A 4679.49 4679.49 0 0 0 1655.81 1593.16 A 1986.92 1986.92 0 0 1 1675.56 1621.66 C 1663.57 1628.99 1651.48 1635.73 1638.8 1641.79 C 1630.34 1632.98 1623.05 1622.87 1615.1 1613.57 C 1604.02 1600.6 1592.17 1588.21 1580.59 1575.68 C 1545.83 1538.07 1508.69 1501.83 1476.84 1461.71 C 1450.38 1428.38 1428.42 1392.28 1409.11 1354.44 C 1426.04 1325.55 1440.96 1296.74 1453.52 1265.68 z"/>
<path transform="translate(0,0)" fill="rgb(104,133,117)" d="M 1510.48 1135.56 C 1513.89 1144.1 1511.14 1155.27 1513.86 1164.47 C 1527 1208.88 1539.05 1253.38 1551.48 1297.99 C 1558.13 1321.83 1565.8 1345.5 1571.73 1369.53 C 1554.96 1364.13 1539.69 1358.49 1524.01 1350.45 C 1534.67 1361.73 1549.42 1366.93 1563.87 1371.45 C 1568.91 1373.02 1575 1374.58 1579.55 1377.31 C 1582.28 1378.95 1584.64 1381.94 1586.73 1384.31 L 1583.87 1396.57 C 1594.32 1406.22 1607.42 1412.22 1617.71 1422.15 C 1663.64 1466.49 1693.52 1523.12 1724.05 1578.46 C 1710.1 1595.52 1696.36 1607.84 1678.2 1620.22 C 1673.29 1612.09 1667.9 1604.31 1662.51 1596.5 L 1576.85 1475.78 C 1557.39 1448.35 1537.93 1421.95 1520.45 1393.13 C 1543.45 1400.56 1572.58 1412.22 1596.28 1413.74 C 1571.28 1401.26 1543.07 1395.41 1516.73 1386.46 C 1489.89 1349.46 1472.89 1302.75 1455.81 1260.65 C 1459.93 1249.44 1464.78 1238.48 1468.96 1227.28 C 1474.14 1213.39 1478.38 1199.01 1484.07 1185.34 C 1491.14 1168.38 1500.64 1151.05 1510.48 1135.56 z"/>
<path transform="translate(0,0)" fill="rgb(104,133,117)" d="M 1384.07 1076.67 C 1393.43 1080.56 1404.13 1082.94 1414.02 1085.08 C 1452.35 1093.41 1487.44 1092.1 1525.09 1081.4 C 1511.65 1110.42 1496.41 1138.7 1484.06 1168.22 C 1476.38 1186.59 1470.07 1205.58 1462.66 1224.08 C 1443.06 1273 1418.17 1327.76 1389.13 1371.7 C 1366.33 1402.7 1327.09 1412.78 1292.74 1426.38 C 1298.97 1396.85 1308.42 1368.28 1317.49 1339.54 L 1350.36 1231.98 C 1360.07 1199.7 1371.61 1166.74 1377.9 1133.61 C 1381.43 1115.04 1382.95 1095.54 1384.07 1076.67 z"/>
<path transform="translate(0,0)" fill="rgb(106,68,68)" d="M 1193.69 291.262 C 1199.11 290.667 1204.98 290.665 1210.42 291.014 C 1249.54 293.523 1271.6 315.639 1295.9 343.473 C 1294.76 338.095 1293.21 332.477 1294.3 326.978 C 1296 318.445 1300.85 311.136 1308.21 306.453 C 1314.09 302.714 1321.2 301.261 1327.98 303.145 C 1332.64 304.441 1336.61 307.136 1340.11 310.415 C 1354.24 323.647 1344.57 336.511 1349.16 342.307 C 1352.14 346.069 1366.06 344.388 1372.28 357.079 C 1375.58 363.801 1376.1 372.164 1373.34 379.16 C 1369.48 388.951 1360.11 391.513 1351.27 395.353 C 1353.83 397.164 1356.32 398.972 1358.23 401.501 C 1362.71 407.432 1364.3 416.504 1362.99 423.726 C 1362.06 428.879 1359.51 433.367 1355.04 436.207 C 1343.58 443.479 1326.69 437.624 1314.49 434.899 C 1316.94 440.86 1321.11 447.02 1318.77 453.691 C 1317.86 456.291 1316.32 457.914 1313.89 459.148 C 1300.6 465.899 1270.97 452.673 1258.23 448.326 C 1257.27 443.256 1256.41 438.046 1254.47 433.24 C 1250.41 423.167 1242.71 412.056 1232.17 408.201 C 1225.71 405.838 1219.2 406.568 1213.12 409.512 C 1211.07 412.106 1209.15 414.502 1208.36 417.778 C 1205.98 427.661 1209.07 435.643 1214.03 443.997 C 1183.6 444.469 1114.54 442.165 1087.98 431.309 C 1087.84 437.182 1087.66 442.779 1089.05 448.542 C 1095.25 474.144 1113.7 487.314 1134.97 500.273 C 1120.07 495.059 1106.98 491.231 1093.42 482.632 C 1082.71 475.839 1071.34 466.943 1068.73 453.801 C 1062.43 422.088 1089.48 375.78 1107.14 350.415 C 1128.24 320.103 1156.88 298 1193.69 291.262 z"/>
<path transform="translate(0,0)" fill="rgb(104,133,117)" d="M 1308.57 1044.7 C 1309.67 1045.8 1309.4 1045.32 1309.97 1046.68 C 1313.47 1055.08 1316.61 1064.1 1321.39 1071.88 C 1333.69 1091.9 1359.02 1116.77 1374.89 1135.31 C 1369.17 1163.52 1359.39 1191.41 1350.95 1218.94 L 1319.8 1322.13 C 1309 1357.12 1297.52 1391.38 1289.47 1427.16 C 1272.84 1433.58 1253.58 1447.59 1240.56 1459.87 C 1257.79 1452.42 1272.78 1439.95 1289.69 1431.59 C 1285.55 1455.11 1280.32 1478.32 1275.6 1501.72 C 1272.06 1519.31 1269.18 1537.05 1265.34 1554.57 A 1546.75 1546.75 0 0 1 1237.57 1658.95 C 1230.33 1680.24 1225.09 1702.27 1219.43 1724.02 C 1200.26 1716.69 1179.95 1712.32 1160.66 1705.19 C 1161.41 1692.24 1164.52 1678.74 1166.42 1665.84 C 1171.28 1632.84 1176.76 1600.15 1182.61 1567.32 A 3564.62 3564.62 0 0 1 1243.45 1283.31 C 1264.19 1203.45 1288.92 1124.84 1308.57 1044.7 z"/>
<path transform="translate(0,0)" fill="rgb(245,232,194)" d="M 1371.61 565.246 C 1379.39 564.458 1385.89 566.981 1392.54 570.867 C 1424.35 589.442 1458.61 636.877 1483.49 665.351 C 1493.25 676.514 1507.82 689.595 1514.86 702.163 C 1519.97 711.297 1521.49 725.623 1524.14 735.986 C 1513.58 742.689 1503.85 752.373 1493.87 760.087 C 1477.37 720.166 1438.16 623.934 1406.87 597.809 C 1411.03 606.731 1416.86 615.207 1421.87 623.698 C 1428.37 634.731 1434.38 646.016 1440.42 657.306 C 1469.95 712.536 1516.68 812.445 1515.91 875.395 C 1515.29 926.375 1468.19 971.643 1433.9 1005.14 C 1417.85 1020.58 1400.94 1035.82 1382.96 1048.98 C 1362 1034.68 1346.99 1008.5 1336.89 985.846 C 1353.17 961.816 1395.74 899.675 1402.89 874.543 C 1404.86 867.627 1404.75 862.788 1403.46 855.838 A 86.737 86.737 0 0 1 1428.09 864.659 C 1435.14 868.411 1453.09 883.942 1458.55 884.139 C 1459.34 883.243 1460.22 882.861 1459.98 881.548 C 1459.29 877.875 1454.62 874.414 1451.78 872.149 C 1432.56 856.803 1418.2 850.735 1393.51 853.419 L 1397.83 840.22 C 1395.57 832.578 1392.53 825.105 1389.76 817.635 C 1414.02 823.053 1440.18 832.312 1461.42 845.417 C 1465.93 848.199 1471.37 851.305 1476.81 849.987 L 1477.61 848.359 C 1477.4 847.943 1477.26 847.485 1476.99 847.11 C 1470.07 837.704 1430.98 823.069 1419.01 819.41 C 1409.28 816.434 1399.22 814.487 1389.26 812.404 C 1381.49 791.904 1375.46 770.444 1368.43 749.655 C 1356.89 715.502 1343.55 680.5 1336.87 645.021 C 1332.85 623.667 1331.85 598.158 1345.21 579.533 C 1351.96 570.128 1360.74 567.108 1371.61 565.246 z"/>
<path transform="translate(0,0)" fill="rgb(1,0,0)" d="M 1073.37 36.3554 C 1074.95 36.6626 1076.75 36.4974 1077.74 37.9015 C 1083.38 45.8828 1078.36 82.8856 1075.93 92.4841 C 1066.16 131.075 1039.95 156.354 1010.41 180.949 C 1017.13 225.159 1004.68 267.377 978.384 303.365 C 959.685 328.956 933.86 349.496 905.374 363.312 C 900.775 415.975 862.393 468.941 822.872 501.889 C 789.881 529.392 730.38 559.324 686.155 554.471 C 684.703 554.312 683.316 554.039 681.887 553.739 C 672.334 566.526 662.925 579.337 651.397 590.458 C 601.321 638.769 527.556 664.146 459.723 673.931 A 241.578 241.578 0 0 1 432.247 676.421 C 411.428 717.539 393.105 758.047 384.073 803.581 C 370.76 870.693 372.609 946.69 370.546 1015.12 A 6946.81 6946.81 0 0 0 366.764 1281.25 C 366.868 1337.14 366.893 1392.86 369.787 1448.71 C 374.209 1534.03 378.506 1618.99 378.779 1704.47 C 378.879 1735.66 380.765 1768.42 376.985 1799.34 C 404.349 1764.89 437.781 1738.26 476.688 1717.87 C 483.21 1714.45 491.427 1709.1 498.682 1707.9 L 500.604 1708.63 C 502.278 1713.86 500.959 1720.79 500.412 1726.2 C 497.348 1756.48 488.747 1787.12 474.728 1814.18 A 225.076 225.076 0 0 1 461.722 1835.85 C 493.138 1822.08 520.178 1812.64 554.816 1810.01 C 559.391 1809.66 567.024 1808.47 571.359 1809.91 C 572.869 1810.41 572.829 1810.47 573.943 1811.23 C 575.13 1815.19 573.016 1818.67 571.185 1822.08 C 540.627 1879.1 490.986 1920.82 434.285 1950.51 C 458.298 1947.19 614.167 1919.88 623.755 1925.34 C 614.744 1933.72 390.032 1962.62 360.676 1965.71 C 316.396 1970.37 272.076 1974.25 227.912 1979.99 C 198.282 1983.85 168.743 1988.96 139.306 1994.06 C 122.895 1996.9 50.4736 2014 39.7451 2012.55 C 38.669 2012.41 38.4921 2012.26 37.6376 2011.85 C 39.4256 2008.79 45.1801 2006.99 48.5144 2006.13 C 61.3999 2002.83 75.3151 2000 88.4446 1997.83 C 77.1734 1986.69 41.954 1950.46 42.6369 1935.39 C 42.7284 1933.37 43.4462 1933.17 44.732 1931.74 C 58.6923 1925.79 80.5347 1930.7 94.0603 1936.11 C 104.428 1940.25 113.393 1946.33 122.4 1952.82 C 100.808 1922.81 76.927 1886.74 74.2224 1848.82 C 100.68 1848.8 123.302 1858.74 142.106 1877.42 C 150.612 1885.87 157.667 1895.67 164.784 1905.28 C 157.539 1887.49 149.72 1869.63 144.256 1851.2 C 134.899 1819.62 130.634 1779.77 137.947 1747.62 C 179.896 1772.98 211.98 1823.67 223.614 1870.56 C 232.199 1905.15 231.43 1937.94 230.896 1973.13 L 242.819 1971.73 C 242.735 1910.61 245.179 1849.6 245.91 1788.5 C 246.919 1704.07 246.926 1619.7 249.34 1535.28 A 10786.6 10786.6 0 0 1 262.537 1268.32 A 11830.7 11830.7 0 0 1 280.943 1040.37 C 284.336 1003.39 289.037 966.359 291.317 929.299 C 264.83 900.436 238.664 881.518 209.306 856.408 C 196.301 845.286 182.811 834.348 170.789 822.163 C 128.373 779.168 99.77 728.57 76.5822 673.214 C 72.1099 662.537 67.1688 651.839 63.3328 640.924 C 63.0547 640.745 62.7786 640.563 62.4984 640.387 C 57.2522 637.096 36.0354 629.74 34.9836 624.628 C 34.6999 623.25 34.8232 621.589 34.8477 620.18 C 36.5274 605.862 35.8393 591.069 35.8402 576.667 L 35.8825 511.854 L 35.9348 289.294 L 35.7352 229.905 C 35.7003 218.175 34.7826 205.175 36.7975 193.613 L 36.9486 187.644 C 38.2218 185.973 37.6632 184.586 37.6074 182.542 C 35.2218 177.985 36.0664 174.776 36.8497 169.846 L 35.8343 162.582 C 37.2659 135.373 32.5115 113.724 44.7004 87.8639 C 56.0411 63.8038 73.5057 49.736 98.1911 40.7361 L 103.174 39.6002 C 105.496 40.1943 107.651 40.7509 110.042 41.0159 L 112.296 38.8609 C 141.369 38.9186 170.928 39.5037 199.952 38.2972 L 204.534 38.7568 L 211.464 39.2827 L 215.476 38.4582 C 239.528 37.5887 263.724 38.0452 287.798 37.9893 C 299.192 37.9629 311.748 38.9349 322.974 37.1418 L 326.102 37.9009 L 332.57 37.5681 L 335.947 37.4612 C 338.061 37.5772 340.084 37.7241 342.2 37.552 L 345.915 37.1252 C 360.299 39.1942 376.587 37.847 391.2 37.8707 C 406.324 37.8952 422.176 38.915 437.223 37.7865 L 441.157 38.2256 C 443.443 38.0809 445.772 38.0354 448.034 37.6801 L 452.476 37.9527 L 511.76 38.3978 C 519.668 38.5006 530.098 40.0985 537.755 38.459 L 541.84 38.2914 L 545.706 39.3691 L 549.836 37.4823 C 563.591 38.5088 577.66 37.9006 591.467 37.9224 L 655.303 38.0613 C 658.704 38.5712 661.875 39.017 665.319 38.8812 L 669.365 37.3303 C 678.382 38.6277 688.027 37.9264 697.126 37.9262 C 715.416 37.9258 733.818 37.6855 752.087 38.5179 L 755.327 39.1834 L 762.809 39.0607 L 764.026 38.7628 C 774.741 35.1912 816.572 38.9644 832.046 37.5271 C 832.934 37.5217 834.1 37.3976 834.962 37.5724 L 842.32 38.874 L 846.164 37.7767 C 879.526 34.0848 916.713 41.6868 949.803 37.4317 L 952.695 38.7446 L 960.393 39.3958 C 962.774 37.3343 963.62 37.5038 966.665 37.1227 C 991.521 37.0643 1016.37 37.6576 1041.23 37.4344 C 1051.74 37.34 1063.01 37.9582 1073.37 36.3554 z"/>
<path transform="translate(0,0)" fill="rgb(217,208,138)" d="M 952.695 38.7446 L 960.393 39.3958 C 956.519 50.2581 951.645 60.7888 946.525 71.1185 L 943.597 67.6293 C 947.631 58.0829 951.018 49.0027 952.695 38.7446 z"/>
<path transform="translate(0,0)" fill="rgb(183,161,122)" d="M 127.595 471.562 C 133.423 482.817 135.464 497.885 138.444 510.199 C 143.123 529.533 148.18 548.751 151.805 568.324 C 160.269 614.015 164.129 660.063 167.618 706.324 C 169.086 725.799 170.515 772.445 177.472 788.821 C 180.502 795.954 187.582 802.563 192.867 808.125 C 220.114 836.797 260.844 869.877 297.317 885.333 C 296.988 891.04 296.234 896.771 295.64 902.459 C 292.614 899.185 289.439 896.03 286.333 892.831 C 270.78 878.092 253.525 866.924 236.549 854.057 C 207.513 832.05 168.481 796.613 148.632 766.684 C 153.572 771.096 158.126 774.81 163.989 777.966 C 165.457 754.541 162.875 729.825 161.255 706.414 C 158.21 662.412 154.788 617.714 147.609 574.189 C 141.933 539.783 133.187 505.911 127.595 471.562 z"/>
<path transform="translate(0,0)" fill="rgb(104,133,117)" d="M 48.5355 1935.4 C 55.8942 1934.66 63.1535 1934.32 70.5199 1935.11 C 106.747 1939.01 127.394 1959.83 148.994 1986.38 C 142.486 1987.61 135.914 1988.45 129.355 1989.36 C 116.965 1980.22 105.055 1970.62 92.4072 1961.8 C 90.4408 1960.63 88.1172 1958.89 85.8188 1958.62 C 83.9616 1958.4 83.6399 1958.48 82.274 1959.75 C 83.6849 1962.11 119.437 1987.43 124.383 1991.25 A 1466.2 1466.2 0 0 1 93.6893 1996.52 C 80.3243 1983.04 51.7244 1954.81 47.3289 1937.01 L 48.5355 1935.4 z"/>
<path transform="translate(0,0)" fill="rgb(183,161,122)" d="M 67.8464 641.945 A 261.833 261.833 0 0 1 86.1706 649.714 L 85.4656 651.245 L 84.8213 651.959 C 85.2109 660.639 98.2526 689.805 102.614 699.132 C 129.744 757.145 173.687 808.978 224.355 847.884 C 250.066 867.627 273.93 882.555 295.357 907.584 C 295.154 913.354 294.278 919.064 293.529 924.785 C 274.847 897.607 244.464 876.839 219.046 856.024 C 152.531 801.553 120.815 759.859 85.4785 681.072 C 79.7092 668.209 71.9392 655.396 67.8464 641.945 z"/>
<path transform="translate(0,0)" fill="rgb(245,232,194)" d="M 86.1706 649.714 C 107.259 656.275 130.497 665.669 152.736 665.086 C 155.247 699.99 159.207 735.555 159.163 770.543 C 130.459 749.97 111.087 712.336 98.335 679.993 C 94.7362 670.865 92.0219 658.586 85.4656 651.245 L 86.1706 649.714 z"/>
<path transform="translate(0,0)" fill="rgb(104,133,117)" d="M 564.571 1819.06 C 565.44 1827.37 549.071 1849.55 543.815 1856.34 C 519.465 1887.77 490.526 1908.77 458.714 1931.6 C 450.521 1937.47 441.149 1945.83 431.705 1949.43 C 417.63 1954.78 381.185 1957.48 364.967 1959.55 L 364.929 1959.45 C 367.54 1953.77 377.208 1947.07 382.217 1942.52 C 435.844 1893.71 499.565 1851.02 564.571 1819.06 z"/>
<path transform="translate(0,0)" fill="rgb(104,133,117)" d="M 488.749 1718.23 C 488.717 1721.54 463.18 1753.18 458.893 1759.18 C 447.503 1775.11 436.708 1791.46 425.386 1807.44 C 398.916 1844.8 372.323 1882.07 348.995 1921.52 C 341.124 1934.83 331.815 1949.03 326.481 1963.58 C 320.086 1964.31 313.701 1964.77 307.278 1965.18 C 306.77 1942.96 323.837 1896.25 334.197 1875 C 359.781 1822.5 398.181 1774.97 446.097 1741.5 C 459.385 1732.22 473.364 1723.56 488.749 1718.23 z"/>
<path transform="translate(0,0)" fill="rgb(104,133,117)" d="M 494.565 1720.84 L 495.3 1721.66 C 496.387 1730.44 493.719 1741.04 491.842 1749.59 C 482.667 1791.39 463.34 1834.63 433.356 1865.84 C 426.943 1872.51 395.312 1891.31 394.121 1894.94 C 394.445 1894.98 394.767 1895.05 395.093 1895.05 C 398.746 1895.01 404.027 1891.87 407.317 1890.18 C 434.524 1876.19 436.415 1866 455.932 1846.16 C 469.058 1832.82 510.333 1821.16 528.62 1817.65 A 192.989 192.989 0 0 1 562.964 1814.07 C 552.541 1820.47 541.043 1825.46 530.349 1831.47 C 513.464 1840.94 497.049 1851.45 480.551 1861.59 C 435.944 1890.45 395.161 1924.09 356.78 1960.7 C 348.073 1961.69 339.408 1962.6 330.657 1963.13 C 360.264 1909.16 394.273 1860.85 429.479 1810.6 C 450.658 1780.37 470.554 1748.97 494.565 1720.84 z"/>
<path transform="translate(0,0)" fill="rgb(104,133,117)" d="M 141.209 1757.3 C 164.18 1769.46 183.605 1794.2 196.678 1816.14 C 219.127 1853.81 226.83 1898.92 227.051 1942.29 C 227.093 1950.68 228.02 1961.09 225.646 1969.17 C 224.752 1972.21 223.656 1973.22 220.889 1974.63 C 220.202 1974.37 219.343 1974.37 218.828 1973.85 C 216.512 1971.49 195.212 1882.64 192.24 1872.16 A 606.839 606.839 0 0 0 173.304 1815.98 C 171.851 1812.34 169.37 1803.65 166.28 1801.76 L 163.895 1802.46 C 162.066 1808.21 177.93 1841.55 180.129 1850.37 C 183.274 1862.99 188.127 1875.35 191.569 1887.97 C 199.498 1917.03 206.358 1946.41 213.756 1975.62 C 203.886 1977.29 193.917 1978.49 184.001 1979.86 C 169.416 1964.71 151.691 1934.05 139.111 1915.29 C 129.406 1901.14 119.389 1882.29 104.59 1873.02 C 111.159 1887.96 126.08 1905.19 135.662 1918.84 C 150.066 1939.37 163.782 1960.4 178.072 1981.02 C 170.231 1982.29 162.467 1983.67 154.708 1985.37 C 144.953 1973.04 134.322 1961.47 124.766 1948.93 C 103.931 1921.6 86.046 1887.47 78.8142 1853.71 C 146.511 1855.66 174.685 1940.33 186.251 1943.01 C 186.39 1934.61 175.358 1920.44 171.783 1912.21 C 163.068 1892.17 154.573 1870.12 148.709 1849.06 C 140.283 1818.81 139.235 1788.42 141.209 1757.3 z"/>
<path transform="translate(0,0)" fill="rgb(245,232,194)" d="M 311.964 664.139 L 312.973 664.556 L 311.744 664.75 L 313.035 664.721 C 314.261 683.593 311.854 704.235 310.772 723.233 A 3695.27 3695.27 0 0 1 297.838 877.241 C 270.175 864.725 243.751 845.105 220.414 825.7 A 935.97 935.97 0 0 1 201.312 808.586 C 194.474 802.284 185.989 795.069 182.125 786.443 C 174.597 769.637 171.436 692.001 170.563 670.372 C 219.438 679.217 264.149 678.762 311.964 664.139 z"/>
<path transform="translate(0,0)" fill="rgb(183,161,122)" d="M 846.164 37.7767 C 879.526 34.0848 916.713 41.6868 949.803 37.4317 L 952.695 38.7446 C 951.018 49.0027 947.631 58.0829 943.597 67.6293 L 946.525 71.1185 C 941.88 83.4468 933.501 95.9027 926.585 107.122 C 896.834 155.384 869.167 184.222 824.29 218.714 C 811.372 228.642 784.29 246.247 774.249 257.344 C 768.093 264.146 758.127 289.363 750.559 300.443 C 727.817 333.74 695.957 360.487 665.747 386.773 C 632.677 415.546 599.23 445.74 569.138 477.601 C 492.529 558.718 407.528 679.384 379.573 788.303 C 373.73 811.065 370.869 834.427 369.231 857.827 C 356.487 812.755 357.983 762.171 356.352 715.647 A 7016.46 7016.46 0 0 1 352.206 559.437 C 351.819 513.951 352.843 468.446 351.54 422.969 C 349.032 335.42 340.329 248.012 336.601 160.504 C 334.849 119.362 335.782 78.591 335.947 37.4612 C 338.061 37.5772 340.084 37.7241 342.2 37.552 A 1307.35 1307.35 0 0 0 344.38 173.287 C 346.794 204.196 351.109 235.049 354.555 265.862 A 2902.41 2902.41 0 0 1 362.475 356.91 C 369.803 464.13 368.822 571.159 371.721 678.452 C 371.841 682.896 374.504 686.758 374.935 691.295 C 376.386 706.582 376.068 722.332 376.486 737.698 C 384.708 716.706 392.683 695.137 402.947 675.039 C 429.876 622.314 472.5 569.687 510.85 524.844 L 546.196 483.861 C 555.523 473.044 566.395 461.854 573.265 449.29 C 580.19 436.625 577.677 323.82 581 297.962 C 587.829 244.822 617.787 196.716 635.759 146.837 C 644.625 122.23 649.037 97.0919 652.521 71.2955 C 653.83 61.6005 657.299 47.4982 655.303 38.0613 C 658.704 38.5712 661.875 39.017 665.319 38.8812 C 662.801 51.2472 661.922 64.1286 659.878 76.619 C 655.24 104.961 648.606 133.915 639.344 161.115 C 633.345 178.734 625.632 195.866 617.684 212.675 C 608.915 231.219 598.368 250.163 594.993 270.618 C 590.126 300.117 595.192 339.621 596.454 370.217 C 597.258 389.701 596.468 408.913 595.902 428.383 C 639.911 386.445 723.844 329.857 748.842 275.262 C 756.541 258.448 760.815 240.278 766.349 222.69 C 771.536 206.204 777.795 190.111 784.324 174.116 C 802.461 129.687 825.131 84.752 834.962 37.5724 L 842.32 38.874 L 846.164 37.7767 z"/>
<path transform="translate(0,0)" fill="rgb(217,208,138)" d="M 846.164 37.7767 C 879.526 34.0848 916.713 41.6868 949.803 37.4317 L 952.695 38.7446 C 951.018 49.0027 947.631 58.0829 943.597 67.6293 A 354.071 354.071 0 0 1 899.886 138.011 C 872.231 172.951 837.51 200.501 800.318 224.602 C 793.985 228.705 784.069 236.813 776.526 237.717 L 775.125 235.99 C 773.25 212.267 815.669 121.999 825.738 93.0407 C 831.454 76.6055 835.233 53.1145 842.32 38.874 L 846.164 37.7767 z"/>
<path transform="translate(0,0)" fill="rgb(1,0,0)" d="M 842.32 38.874 L 846.164 37.7767 C 837.007 76.4395 824.011 111.841 809.327 148.645 C 798.781 175.079 784.434 203.155 779.883 231.343 C 831.226 198.52 870.94 169.302 907.241 119.143 C 916.568 106.255 925.831 92.9952 933.048 78.7847 C 939.857 65.3784 943.634 50.9959 949.803 37.4317 L 952.695 38.7446 C 951.018 49.0027 947.631 58.0829 943.597 67.6293 A 354.071 354.071 0 0 1 899.886 138.011 C 872.231 172.951 837.51 200.501 800.318 224.602 C 793.985 228.705 784.069 236.813 776.526 237.717 L 775.125 235.99 C 773.25 212.267 815.669 121.999 825.738 93.0407 C 831.454 76.6055 835.233 53.1145 842.32 38.874 z"/>
<path transform="translate(0,0)" fill="rgb(217,208,138)" d="M 832.046 37.5271 C 832.934 37.5217 834.1 37.3976 834.962 37.5724 C 825.131 84.752 802.461 129.687 784.324 174.116 C 777.795 190.111 771.536 206.204 766.349 222.69 C 760.815 240.278 756.541 258.448 748.842 275.262 C 723.844 329.857 639.911 386.445 595.902 428.383 C 596.468 408.913 597.258 389.701 596.454 370.217 C 595.192 339.621 590.126 300.117 594.993 270.618 C 598.368 250.163 608.915 231.219 617.684 212.675 C 625.632 195.866 633.345 178.734 639.344 161.115 C 648.606 133.915 655.24 104.961 659.878 76.619 C 661.922 64.1286 662.801 51.2472 665.319 38.8812 L 669.365 37.3303 C 678.382 38.6277 688.027 37.9264 697.126 37.9262 C 715.416 37.9258 733.818 37.6855 752.087 38.5179 L 755.327 39.1834 L 762.809 39.0607 L 764.026 38.7628 C 774.741 35.1912 816.572 38.9644 832.046 37.5271 z"/>
<path transform="translate(0,0)" fill="rgb(1,0,0)" d="M 832.046 37.5271 C 832.934 37.5217 834.1 37.3976 834.962 37.5724 C 825.131 84.752 802.461 129.687 784.324 174.116 C 777.795 190.111 771.536 206.204 766.349 222.69 C 760.815 240.278 756.541 258.448 748.842 275.262 C 723.844 329.857 639.911 386.445 595.902 428.383 C 596.468 408.913 597.258 389.701 596.454 370.217 C 595.192 339.621 590.126 300.117 594.993 270.618 C 598.368 250.163 608.915 231.219 617.684 212.675 C 625.632 195.866 633.345 178.734 639.344 161.115 C 648.606 133.915 655.24 104.961 659.878 76.619 C 661.922 64.1286 662.801 51.2472 665.319 38.8812 L 669.365 37.3303 C 678.382 38.6277 688.027 37.9264 697.126 37.9262 C 715.416 37.9258 733.818 37.6855 752.087 38.5179 L 755.327 39.1834 L 762.809 39.0607 L 764.026 38.7628 L 765.544 40.0384 C 766.571 48.1697 756.392 64.3216 752.335 71.6139 C 731.064 109.847 686.307 154.202 643.247 166.436 A 877.868 877.868 0 0 1 622.161 214.96 C 614.946 230.373 606.161 246.296 601.877 262.819 C 597.144 281.075 598.783 300.707 599.746 319.333 C 601.391 351.163 605.566 384.808 601.974 416.487 C 638.87 379.57 682.626 351.301 717.432 311.834 C 727.639 300.26 737.32 287.821 743.979 273.82 C 756.03 248.479 761.458 219.216 771.135 192.744 C 782.003 163.01 796.209 134.268 807.95 104.833 C 816.656 83.007 822.961 60.3028 831.624 38.5681 L 832.046 37.5271 z"/>
<path transform="translate(0,0)" fill="rgb(183,161,122)" d="M 755.327 39.1834 L 762.809 39.0607 A 154.183 154.183 0 0 1 759.801 46.4179 C 737.907 96.1311 696.307 141.111 645.221 161.276 L 648.986 148.646 A 114.33 114.33 0 0 0 667.678 141.353 C 705.969 122.052 741.694 79.7017 755.327 39.1834 z"/>
<path transform="translate(0,0)" fill="rgb(217,208,138)" d="M 669.365 37.3303 C 678.382 38.6277 688.027 37.9264 697.126 37.9262 C 715.416 37.9258 733.818 37.6855 752.087 38.5179 A 792.597 792.597 0 0 1 742.725 56.6395 C 722.908 93.2689 692.316 129.797 651.089 142.026 C 658.493 108.043 670.061 72.4841 669.365 37.3303 z"/>
<path transform="translate(0,0)" fill="rgb(217,208,138)" d="M 36.7975 193.613 A 2274.79 2274.79 0 0 0 144.928 335.728 C 171.123 367.955 199.815 398.239 226.383 430.193 A 829.302 829.302 0 0 1 293.051 523.858 C 300.321 535.83 309.427 548.877 313.406 562.383 C 318.378 579.258 313.944 636.901 313.871 658.036 C 266.115 669.496 218.929 674.944 170.314 664.051 C 168.335 655.081 167.61 645.846 166.622 636.724 C 189.068 616.067 209.752 585.935 211.13 554.366 C 211.754 540.063 210.509 507.584 202.047 496.13 L 200.094 495.298 C 197.279 500.284 200.307 511.661 200.664 517.419 C 203.108 556.875 191.96 593.577 164.872 622.689 C 159.877 586.168 152.895 551.407 143.429 515.828 C 151.676 502.932 179.129 460.165 177.626 446.649 L 176.088 446.324 C 170.656 452.986 167.885 464.123 163.909 471.906 C 157.743 483.978 149.896 496.194 142.072 507.289 C 133.823 475.87 123.118 446.962 120.157 414.305 C 119.751 409.834 120.396 404.017 116.953 400.901 L 116.593 401.632 L 118.671 401.597 L 117.467 400.337 C 112.709 407.041 120.057 454.11 121.879 464.71 C 127.77 498.973 136.171 532.84 142.255 567.101 A 748.193 748.193 0 0 1 152.439 660.743 C 111.03 654.076 72.4312 638.266 34.8477 620.18 C 36.5274 605.862 35.8393 591.069 35.8402 576.667 L 35.8825 511.854 L 35.9348 289.294 L 35.7352 229.905 C 35.7003 218.175 34.7826 205.175 36.7975 193.613 z"/>
<path transform="translate(0,0)" fill="rgb(217,208,138)" d="M 966.665 37.1227 C 991.521 37.0643 1016.37 37.6576 1041.23 37.4344 C 1051.74 37.34 1063.01 37.9582 1073.37 36.3554 C 1072.68 90.1193 1066.45 119.057 1026.66 157.626 C 1015.51 168.426 978.875 195.156 973.78 204.694 L 974.444 205.835 C 984.158 203.548 996.7 191.82 1004.87 185.803 C 1006.52 235.042 992.862 279.08 958.718 315.407 C 942.943 332.191 920.979 349.597 899.557 358.428 A 235.411 235.411 0 0 1 800.63 508.627 C 763.669 534.151 722.481 547.99 677.606 548.505 C 666.361 563.954 654.011 578.601 639.598 591.208 C 591.09 633.637 523.757 656.732 460.883 666.712 C 452.501 668.043 444.089 669.065 435.599 669.284 A 990.272 990.272 0 0 1 618.357 439.254 A 2652.06 2652.06 0 0 1 663.958 397.275 C 685.377 378.373 707.355 360.032 726.886 339.117 C 740.32 324.73 752.616 309.207 762.407 292.088 C 767.955 282.387 771.557 268.042 779.168 260.106 C 785.774 253.218 794.897 247.69 802.603 242.043 A 1203.2 1203.2 0 0 0 839.533 214.122 C 882.701 180.062 914.506 140.923 941.404 93.0308 C 951.427 75.1865 960.841 56.8135 966.665 37.1227 z"/>
<path transform="translate(0,0)" fill="rgb(217,208,138)" d="M 342.2 37.552 L 345.915 37.1252 C 360.299 39.1942 376.587 37.847 391.2 37.8707 C 406.324 37.8952 422.176 38.915 437.223 37.7865 L 441.157 38.2256 C 443.443 38.0809 445.772 38.0354 448.034 37.6801 L 452.476 37.9527 L 511.76 38.3978 C 519.668 38.5006 530.098 40.0985 537.755 38.459 L 541.84 38.2914 L 545.706 39.3691 L 549.836 37.4823 C 563.591 38.5088 577.66 37.9006 591.467 37.9224 L 655.303 38.0613 C 657.299 47.4982 653.83 61.6005 652.521 71.2955 C 649.037 97.0919 644.625 122.23 635.759 146.837 C 617.787 196.716 587.829 244.822 581 297.962 C 577.677 323.82 580.19 436.625 573.265 449.29 C 566.395 461.854 555.523 473.044 546.196 483.861 L 510.85 524.844 C 472.5 569.687 429.876 622.314 402.947 675.039 C 392.683 695.137 384.708 716.706 376.486 737.698 C 376.068 722.332 376.386 706.582 374.935 691.295 C 374.504 686.758 371.841 682.896 371.721 678.452 C 368.822 571.159 369.803 464.13 362.475 356.91 A 2902.41 2902.41 0 0 0 354.555 265.862 C 351.109 235.049 346.794 204.196 344.38 173.287 A 1307.35 1307.35 0 0 1 342.2 37.552 z"/>
<path transform="translate(0,0)" fill="rgb(1,0,0)" d="M 342.2 37.552 L 345.915 37.1252 C 360.299 39.1942 376.587 37.847 391.2 37.8707 C 406.324 37.8952 422.176 38.915 437.223 37.7865 L 441.157 38.2256 C 443.443 38.0809 445.772 38.0354 448.034 37.6801 L 452.476 37.9527 C 437.555 116.802 402.532 151.606 353.374 210.288 A 2799.68 2799.68 0 0 1 375.391 499.821 C 377 556.24 375.807 612.784 378.031 669.17 C 399.72 620.845 442.18 569.731 479.367 532.113 C 491.464 519.876 564.31 454.734 567.638 446.989 C 573.997 432.191 571.721 390.588 572.407 372.406 C 540.127 365.07 509.845 347.067 491.928 318.641 C 477.174 295.234 465.588 262.424 465.043 234.639 C 470.243 246.549 473.854 259.052 478.691 271.107 C 485.058 286.974 493.171 301.699 501.73 316.458 C 502.844 293.736 501.691 267.16 508.369 245.424 C 510.271 263.227 507.059 301.323 505.267 320.351 C 521.124 342.215 547.549 352.709 572.323 360.869 C 573.264 328.761 573.664 297.492 582.186 266.217 C 557.328 227.328 546.248 134.921 541.291 88.1489 C 539.585 72.0442 536.943 54.6708 537.755 38.459 L 541.84 38.2914 L 545.706 39.3691 L 549.836 37.4823 C 563.591 38.5088 577.66 37.9006 591.467 37.9224 L 655.303 38.0613 C 657.299 47.4982 653.83 61.6005 652.521 71.2955 C 649.037 97.0919 644.625 122.23 635.759 146.837 C 617.787 196.716 587.829 244.822 581 297.962 C 577.677 323.82 580.19 436.625 573.265 449.29 C 566.395 461.854 555.523 473.044 546.196 483.861 L 510.85 524.844 C 472.5 569.687 429.876 622.314 402.947 675.039 C 392.683 695.137 384.708 716.706 376.486 737.698 C 376.068 722.332 376.386 706.582 374.935 691.295 C 374.504 686.758 371.841 682.896 371.721 678.452 C 368.822 571.159 369.803 464.13 362.475 356.91 A 2902.41 2902.41 0 0 0 354.555 265.862 C 351.109 235.049 346.794 204.196 344.38 173.287 A 1307.35 1307.35 0 0 1 342.2 37.552 z"/>
<path transform="translate(0,0)" fill="rgb(217,208,138)" d="M 541.84 38.2914 L 545.706 39.3691 L 547.445 60.5036 C 548.866 72.5735 550.494 84.7422 551.273 96.8703 C 549.872 94.0127 549.305 91.5387 548.769 88.4004 L 548.573 87.2087 A 652.118 652.118 0 0 0 547.292 95.1032 C 545.644 85.7289 544.742 75.6874 544.21 66.182 C 543.109 56.9321 542.574 47.5786 541.84 38.2914 z"/>
<path transform="translate(0,0)" fill="rgb(183,161,122)" d="M 547.292 95.1032 A 652.118 652.118 0 0 1 548.573 87.2087 L 548.769 88.4004 C 549.305 91.5387 549.872 94.0127 551.273 96.8703 C 554.933 111.355 555.794 127.273 558.121 142.103 C 561.698 164.901 566.701 187.091 572.538 209.404 C 575.548 220.914 587.911 252.351 584.627 261.423 L 583.351 261.195 C 565.883 234.31 548.653 128.83 547.292 95.1032 z"/>
<path transform="translate(0,0)" fill="rgb(183,161,122)" d="M 441.157 38.2256 C 443.443 38.0809 445.772 38.0354 448.034 37.6801 A 296.673 296.673 0 0 1 390.417 159.202 C 378.261 174.652 364.708 188.968 352.349 204.264 L 350.563 184.087 C 394.602 141.885 426.146 98.336 441.157 38.2256 z"/>
<path transform="translate(0,0)" fill="rgb(183,161,122)" d="M 547.898 475.123 C 548.323 476.61 535.486 490.196 533.039 492.946 C 484.368 547.658 433.798 606.497 399.803 671.737 C 392.561 685.635 386.778 700.167 381.006 714.716 C 379.052 706.711 378.806 695.61 378.964 687.241 C 379.256 671.857 392.526 653.275 400.719 640.698 C 445.112 572.559 489.031 529.874 547.898 475.123 z"/>
<path transform="translate(0,0)" fill="rgb(217,208,138)" d="M 345.915 37.1252 C 360.299 39.1942 376.587 37.847 391.2 37.8707 C 406.324 37.8952 422.176 38.915 437.223 37.7865 C 432.14 49.9394 428.942 62.9902 423.889 75.2561 C 407.005 116.244 381.646 147.801 349.904 178.026 C 344.582 131.493 345.536 83.8868 345.915 37.1252 z"/>
<path transform="translate(0,0)" fill="rgb(217,208,138)" d="M 549.836 37.4823 C 563.591 38.5088 577.66 37.9006 591.467 37.9224 L 655.303 38.0613 C 650.769 41.2848 651.158 47.0242 650.564 52.2349 C 646.958 83.8606 641.677 115.099 631.052 145.213 C 619.026 179.299 602.159 211.561 589.072 245.304 C 571.399 198.173 561.712 146.486 555.85 96.6244 C 553.541 76.9845 552.797 57.0158 549.836 37.4823 z"/>
<path transform="translate(0,0)" fill="rgb(183,161,122)" d="M 215.476 38.4582 C 239.528 37.5887 263.724 38.0452 287.798 37.9893 C 299.192 37.9629 311.748 38.9349 322.974 37.1418 L 326.102 37.9009 L 332.57 37.5681 C 332.129 72.733 331.304 107.95 332.532 143.109 C 335.691 233.587 344.387 323.948 347.034 414.438 C 348.617 468.584 347.668 522.755 347.847 576.916 C 347.976 615.994 349.554 655.137 350.673 694.199 C 351.638 727.92 351.995 761.848 354.13 795.515 C 355.254 813.225 356.88 831.108 360.754 848.458 C 362.41 855.878 367.301 864.13 367.758 871.538 C 368.412 882.131 367.323 893.045 366.756 903.629 C 365.726 922.851 364.381 942.115 364.002 961.362 C 362.259 1049.96 359.378 1138.49 359.379 1227.14 C 359.38 1297.24 358.409 1367.32 361.587 1437.38 C 364.201 1495.01 368.102 1552.39 369.515 1610.1 C 369.868 1624.51 371.097 1639.06 370.826 1653.46 C 356.488 1634.62 347.61 1616.4 341.39 1593.4 C 335.162 1570.38 332.313 1543.63 331.032 1519.85 C 330.624 1512.27 335.173 1491.65 331.248 1486.32 C 328.457 1487.95 327.741 1490.15 326.952 1493.24 C 319.605 1521.95 330.407 1582.18 339.533 1609.62 A 138.12 138.12 0 0 0 354.478 1641.33 C 357.243 1645.74 359.913 1648.63 364.034 1651.88 C 368.612 1655.48 370.16 1656.17 370.86 1662.26 C 372.94 1680.33 370.969 1700.17 370.893 1718.41 C 370.806 1739.48 373.167 1787.2 369.216 1805.58 C 367.35 1814.26 360.309 1821.47 356.22 1829.21 C 356.119 1783.12 357.148 1735.08 348.918 1689.56 C 344.59 1665.63 335.123 1643.3 327.107 1620.47 C 312.111 1577.75 303.501 1534.36 304.062 1488.97 C 304.225 1475.78 304.403 1456.57 314.329 1446.62 C 315.63 1445.32 316.667 1444.77 318.501 1444.42 C 321.866 1445.03 323.642 1446.66 325.597 1449.33 C 346.739 1478.24 356.014 1544.63 356.078 1580.18 C 356.089 1586.58 351.52 1613.44 353.138 1616.46 C 354.581 1616.35 355.624 1616.73 356.58 1615.48 C 359.6 1611.52 359.982 1603.9 360.497 1599.02 C 363.594 1569.65 361.175 1541.01 355.112 1512.21 C 351.728 1496.13 339.724 1449.82 325.881 1440.61 C 323.013 1438.7 319.694 1438.33 316.362 1439.08 C 311.681 1440.12 308.219 1443.38 305.822 1447.4 C 287.83 1477.62 301.753 1558.76 311.288 1592.69 C 319.689 1622.58 332.812 1651.13 340.253 1681.22 C 349.723 1719.53 349.475 1762.38 349.894 1801.71 C 350.005 1812.2 351.088 1823.83 349.002 1834.12 C 347.904 1839.54 345.265 1844.33 342.605 1849.11 C 337.814 1857.72 332.687 1866.27 328.779 1875.33 C 329.201 1860.55 331.163 1845.98 332.5 1831.27 C 336.314 1789.34 336.512 1746.32 319.879 1706.8 C 310.624 1684.81 293.214 1665.85 287.354 1642.58 C 284.253 1630.27 282.797 1617.32 281.895 1604.67 C 280.994 1591.99 282.556 1575.91 277.881 1564.14 L 276.524 1563.07 C 269.614 1573.94 276.601 1625.37 279.503 1638.52 C 286.039 1668.14 306.386 1687.61 316.746 1715.7 C 332.728 1759.04 327.448 1805.29 324.122 1850.24 C 323.3 1861.34 323.876 1873.5 322.008 1884.38 C 319.531 1898.8 312.521 1913.04 308.569 1927.3 C 305.187 1939.49 304.008 1952.84 299.789 1964.66 C 297.446 1964.88 295.702 1965.33 293.499 1964.35 C 291.017 1950.86 293.595 1932.39 293.914 1918.39 C 294.687 1884.47 299.312 1757.19 283.525 1735.36 L 282.18 1735.33 C 279.546 1742.88 287.035 1778.98 287.331 1790.99 C 288.773 1849.54 287.45 1908.28 286.213 1966.83 C 273.734 1967.34 261.409 1969.1 248.995 1970.35 C 249.238 1916.87 252.441 1863.48 253.085 1810.02 A 18882.6 18882.6 0 0 1 254.933 1610.9 A 9029.83 9029.83 0 0 1 265.528 1331.63 A 4422.44 4422.44 0 0 1 274.388 1204.36 C 275.979 1184.98 276.306 1163.54 280.578 1144.59 C 280.687 1144.11 280.769 1143.62 280.886 1143.14 C 282.106 1138.14 294.818 1121.12 298.635 1111.82 C 309.455 1085.46 317.332 1017.87 302.363 992.651 C 301.661 991.47 300.895 990.808 299.73 990.113 C 298.317 991.482 298.457 992.011 298.49 993.93 C 298.653 1003.41 303.016 1013.56 303.914 1023.34 C 307.29 1060.17 300.449 1102.46 280.705 1133.89 C 288.041 1067.95 291.81 1001.74 297.771 935.673 C 302.196 886.616 308.901 837.877 312.844 788.761 C 316.849 738.864 317.967 689.06 319.717 639.065 C 320.381 620.084 323.846 579.335 319.364 562.209 C 312.106 534.472 259.304 461.37 240.371 437.645 C 217.153 408.55 191.063 381.211 166.496 353.2 C 146.197 330.055 126.856 305.692 107.536 281.709 C 91.3094 261.567 75.6469 240.657 60.3695 219.788 C 52.8429 209.506 45.9991 196.48 36.9486 187.644 C 38.2218 185.973 37.6632 184.586 37.6074 182.542 C 35.2218 177.985 36.0664 174.776 36.8497 169.846 L 35.8343 162.582 C 37.2659 135.373 32.5115 113.724 44.7004 87.8639 C 56.0411 63.8038 73.5057 49.736 98.1911 40.7361 L 103.174 39.6002 C 105.496 40.1943 107.651 40.7509 110.042 41.0159 L 112.296 38.8609 C 141.369 38.9186 170.928 39.5037 199.952 38.2972 L 204.534 38.7568 L 211.464 39.2827 L 215.476 38.4582 z"/>
<path transform="translate(0,0)" fill="rgb(1,0,0)" d="M 307.151 895.316 C 308.684 895.881 309.793 895.965 310.83 897.304 C 320.78 910.15 326.332 933.247 329.559 948.878 C 342.664 1012.35 335.293 1081.97 320.62 1144.48 C 312.733 1178.08 302.351 1211.23 295.381 1245.02 C 291.316 1264.73 288.923 1284.91 287.114 1304.94 C 281.829 1363.48 280.783 1423.01 279.875 1481.79 C 279.489 1506.74 281.814 1533.03 279.317 1557.77 C 277.836 1557.57 276.427 1557.16 274.982 1556.78 C 270.065 1548.53 274.39 1395.12 275.664 1372.15 C 277.705 1335.37 279.242 1297.7 285.399 1261.35 C 292.377 1220.15 305.469 1179.82 315.032 1139.15 A 514.197 514.197 0 0 0 328.692 1041.78 C 330.33 1007.37 328.717 969.352 320.021 935.94 C 317.437 926.01 307.553 905.842 307.182 897.066 C 307.157 896.483 307.161 895.899 307.151 895.316 z"/>
<path transform="translate(0,0)" fill="rgb(1,0,0)" d="M 215.476 38.4582 C 239.528 37.5887 263.724 38.0452 287.798 37.9893 C 299.192 37.9629 311.748 38.9349 322.974 37.1418 L 326.102 37.9009 C 327.051 76.5496 324.167 115.182 325.209 153.869 C 326.104 187.134 328.424 220.328 329.728 253.572 A 7056.32 7056.32 0 0 1 334.679 476.506 L 334.16 722.657 C 334.048 755.964 331.877 789.293 332.923 822.605 C 333.952 855.373 344.359 885.278 352.067 916.781 A 326.076 326.076 0 0 1 361.72 989.876 C 362.127 1026.69 357.617 1064.28 353.769 1100.89 C 346.339 1171.58 336.348 1242.23 332.64 1313.24 A 1478.33 1478.33 0 0 0 330.941 1401.5 C 330.948 1407.69 333.165 1425.23 330.418 1430.06 C 328.403 1431.06 328.524 1431.34 326.155 1430.99 C 321.983 1423.59 324.252 1406.55 324.187 1397.77 A 1337.05 1337.05 0 0 1 331.739 1233.5 C 340.268 1155.56 354.029 1076.91 354.905 998.401 C 355.248 967.613 350.146 938.098 342.638 908.376 C 336.59 884.431 329.464 860.878 327.852 836.085 C 325.428 798.806 328.832 760.518 329.687 723.165 C 330.422 691.062 329.232 658.959 329.225 626.857 C 329.218 595.866 330.468 564.605 329.597 533.645 C 308.261 503.036 287.567 471.558 263.68 442.866 C 241.833 416.626 62.2554 220.842 60.9428 210.838 C 56.0301 204.105 43.6952 186.523 37.6074 182.542 C 35.2218 177.985 36.0664 174.776 36.8497 169.846 L 35.8343 162.582 C 37.2659 135.373 32.5115 113.724 44.7004 87.8639 C 56.0411 63.8038 73.5057 49.736 98.1911 40.7361 L 103.174 39.6002 C 105.496 40.1943 107.651 40.7509 110.042 41.0159 L 112.296 38.8609 C 141.369 38.9186 170.928 39.5037 199.952 38.2972 L 204.534 38.7568 L 211.464 39.2827 L 215.476 38.4582 z"/>
<path transform="translate(0,0)" fill="rgb(183,161,122)" d="M 204.534 38.7568 L 211.464 39.2827 C 210.933 49.2151 215.451 61.8576 218.022 71.5775 C 233.082 128.504 253.812 183.192 282.384 234.714 C 294.373 256.335 318.931 291.565 325.637 313.383 C 328.72 323.411 327.598 336.073 327.692 346.531 C 310.131 308.64 286.732 273.516 268.037 236.197 C 248.538 197.272 230.937 152.065 220.044 109.912 C 213.962 86.3748 209.966 62.431 204.534 38.7568 z"/>
<path transform="translate(0,0)" fill="rgb(183,161,122)" d="M 103.174 39.6002 C 105.496 40.1943 107.651 40.7509 110.042 41.0159 C 124.317 98.6797 145.568 155.1 162.363 212.136 A 881.669 881.669 0 0 1 175.208 261.046 C 182.375 291.763 187.75 329.199 204.215 356.32 C 221.783 385.257 260.22 420.731 284.733 445.234 C 299.826 460.32 314.34 476.008 329.541 490.968 A 1010.19 1010.19 0 0 1 329.812 527.732 C 311.251 498.05 290.977 468.766 268.326 442.03 C 254.089 425.226 238.565 409.538 223.935 393.079 L 104.014 260.546 C 95.0653 250.677 69.0361 216.317 60.9428 210.838 C 56.0301 204.105 43.6952 186.523 37.6074 182.542 C 35.2218 177.985 36.0664 174.776 36.8497 169.846 L 35.8343 162.582 C 44.6146 169.295 64.7962 198.793 73.4664 209.42 C 100.031 241.982 138.509 284.457 171.527 309.403 C 151.699 219.758 124.402 128.881 98.1911 40.7361 L 103.174 39.6002 z"/>
<path transform="translate(0,0)" fill="rgb(1,0,0)" d="M 98.1911 40.7361 L 103.174 39.6002 C 109.002 59.3349 114.152 79.2685 120.083 98.9741 C 141.783 171.076 164.29 243.728 178.482 317.765 C 146.352 306.128 84.1 230.776 61.2163 201.988 C 52.9719 191.616 45.6442 179.634 36.8497 169.846 L 35.8343 162.582 C 44.6146 169.295 64.7962 198.793 73.4664 209.42 C 100.031 241.982 138.509 284.457 171.527 309.403 C 151.699 219.758 124.402 128.881 98.1911 40.7361 z"/>
<path transform="translate(0,0)" fill="rgb(217,208,138)" d="M 215.476 38.4582 C 239.528 37.5887 263.724 38.0452 287.798 37.9893 C 299.192 37.9629 311.748 38.9349 322.974 37.1418 C 319.754 53.2484 321.219 72.3783 320.776 88.8734 C 320.12 113.268 319.347 137.608 319.909 162.019 C 320.958 207.541 324.364 252.979 325.791 298.49 C 312.826 273.742 297.174 250.685 283.744 226.251 A 654.67 654.67 0 0 1 215.476 38.4582 z"/>
<path transform="translate(0,0)" fill="rgb(217,208,138)" d="M 35.8343 162.582 C 37.2659 135.373 32.5115 113.724 44.7004 87.8639 C 56.0411 63.8038 73.5057 49.736 98.1911 40.7361 C 124.402 128.881 151.699 219.758 171.527 309.403 C 138.509 284.457 100.031 241.982 73.4664 209.42 C 64.7962 198.793 44.6146 169.295 35.8343 162.582 z"/>
<path transform="translate(0,0)" fill="rgb(217,208,138)" d="M 112.296 38.8609 C 141.369 38.9186 170.928 39.5037 199.952 38.2972 C 204.288 62.2415 208.226 86.5871 214.287 110.151 C 226.562 157.871 245.879 205.387 268.245 249.207 C 279.321 270.906 321.464 339.371 325.346 357.176 C 327.956 369.148 327.2 382.946 327.481 395.203 C 328.153 424.444 327.901 453.69 328.162 482.935 C 318.318 472.221 308.56 461.373 298.229 451.122 C 274.667 427.741 222.771 380.09 207.71 352.294 C 191.763 322.861 181.307 261.041 172.052 226.009 C 159.87 179.899 143.988 134.401 128.924 89.156 C 124.041 74.4914 121.015 58.9782 115.688 44.5435 C 114.796 42.1273 114.132 40.6461 112.296 38.8609 z"/>
</svg>