<svg version="1.1" xmlns="http://www.w3.org/2000/svg" style="display: block;" viewBox="0 0 2048 2048" width="1024" height="1024">
<defs>
	<linearGradient id="Gradient1" gradientUnits="userSpaceOnUse" x1="825.342" y1="1201.63" x2="795.623" y2="1165.75">
		<stop class="stop0" offset="0" stop-opacity="1" stop-color="rgb(223,200,199)"/>
		<stop class="stop1" offset="1" stop-opacity="1" stop-color="rgb(255,255,252)"/>
	</linearGradient>
	<linearGradient id="Gradient2" gradientUnits="userSpaceOnUse" x1="957.697" y1="1217.04" x2="932.388" y2="1249.88">
		<stop class="stop0" offset="0" stop-opacity="1" stop-color="rgb(176,124,124)"/>
		<stop class="stop1" offset="1" stop-opacity="1" stop-color="rgb(192,153,153)"/>
	</linearGradient>
	<linearGradient id="Gradient3" gradientUnits="userSpaceOnUse" x1="866.737" y1="989.554" x2="973.863" y2="950.115">
		<stop class="stop0" offset="0" stop-opacity="1" stop-color="rgb(157,121,125)"/>
		<stop class="stop1" offset="1" stop-opacity="1" stop-color="rgb(207,179,170)"/>
	</linearGradient>
	<linearGradient id="Gradient4" gradientUnits="userSpaceOnUse" x1="892.143" y1="936.853" x2="980.044" y2="968.783">
		<stop class="stop0" offset="0" stop-opacity="1" stop-color="rgb(196,177,167)"/>
		<stop class="stop1" offset="1" stop-opacity="1" stop-color="rgb(210,206,189)"/>
	</linearGradient>
	<linearGradient id="Gradient5" gradientUnits="userSpaceOnUse" x1="1048.6" y1="1071.95" x2="1041.23" y2="1179.31">
		<stop class="stop0" offset="0" stop-opacity="1" stop-color="rgb(211,187,177)"/>
		<stop class="stop1" offset="1" stop-opacity="1" stop-color="rgb(230,215,197)"/>
	</linearGradient>
	<linearGradient id="Gradient6" gradientUnits="userSpaceOnUse" x1="1027.82" y1="847.539" x2="1155.19" y2="1050.77">
		<stop class="stop0" offset="0" stop-opacity="1" stop-color="rgb(212,188,181)"/>
		<stop class="stop1" offset="1" stop-opacity="1" stop-color="rgb(226,224,201)"/>
	</linearGradient>
	<linearGradient id="Gradient7" gradientUnits="userSpaceOnUse" x1="1165.68" y1="1027.27" x2="942.135" y2="1264.74">
		<stop class="stop0" offset="0" stop-opacity="1" stop-color="rgb(209,179,170)"/>
		<stop class="stop1" offset="1" stop-opacity="1" stop-color="rgb(219,206,189)"/>
	</linearGradient>
</defs>
<path transform="translate(0,0)" fill="rgb(254,254,253)" d="M 0 0 L 2048 0 L 2048 2048 L 0 2048 L 0 0 z"/>
<path transform="translate(0,0)" fill="rgb(83,53,51)" d="M 1029.5 1434.32 C 1031.19 1433.48 1031.85 1432.86 1033.14 1431.54 C 1040.52 1432.04 1052.05 1432.09 1057.54 1437.93 C 1057.78 1438.18 1057.96 1438.5 1058.17 1438.78 C 1052.29 1441.61 1039.87 1438.67 1033.72 1436.44 C 1032.21 1435.89 1030.89 1435.12 1029.5 1434.32 z"/>
<path transform="translate(0,0)" fill="rgb(83,53,51)" d="M 969.894 1469.11 C 970.974 1469.32 971.852 1469.05 972.924 1468.87 L 974.042 1466.71 L 974.845 1467.05 C 982.53 1470.2 1000.77 1472.83 1004.14 1480.96 C 1004.3 1481.34 1004.38 1481.75 1004.51 1482.14 L 1003.7 1483.6 C 998.065 1483.96 975.094 1473.24 969.894 1469.11 z"/>
<path transform="translate(0,0)" fill="rgb(83,53,51)" d="M 368.307 867.724 C 363.44 865.752 357.921 864.752 352.873 863.212 C 349.052 862.046 345.955 861.079 344.025 857.462 C 344.307 854.708 344.377 854.485 346.153 852.368 C 349.73 851.457 354.948 854.522 358.526 855.493 C 366.031 857.531 373.697 857.954 381.436 857.965 C 378.71 862.246 375.145 865.744 370.489 867.846 L 368.307 867.724 z"/>
<path transform="translate(0,0)" fill="rgb(83,53,51)" d="M 1671.44 1214.41 C 1708.9 1212.23 1751.06 1233.5 1780.55 1254.96 C 1838.11 1296.84 1880.78 1365.45 1891.67 1435.8 C 1898.87 1482.28 1895.83 1537.43 1866.76 1576.55 C 1845.83 1604.71 1808.54 1622.5 1774.34 1627.31 C 1750.01 1630.74 1722.02 1624.13 1702.37 1609.21 C 1671 1628.72 1642 1652.28 1612.05 1673.86 L 1409.54 1819.12 C 1378.28 1841.24 1347.64 1865.21 1315.22 1885.56 C 1280.16 1907.56 1244.16 1906.41 1206.26 1891.37 C 1199.49 1888.68 1190.93 1881.78 1184 1881.11 C 1180.75 1880.8 1178.8 1882.93 1176.26 1884.66 A 464.012 464.012 0 0 1 1163.44 1895.34 C 1124.87 1926.29 1069.6 1947.56 1019.62 1941.74 C 1006.78 1940.25 993.599 1935.63 985.538 1924.96 C 979.276 1916.67 977.698 1906.55 979.501 1896.47 C 985.772 1861.4 1026.07 1816.9 1053.01 1793.58 C 1063.58 1784.43 1074.89 1776.5 1086.33 1768.49 C 1080.96 1743.72 1075.41 1718.92 1079.53 1693.48 C 1082.75 1673.63 1091.54 1653.53 1106.01 1639.35 C 1117.54 1628.05 1132.47 1620.23 1145.95 1611.53 L 1216.05 1566.48 C 1270.61 1531.02 1324.27 1494.19 1379.01 1459 C 1433.61 1423.89 1489.86 1390.25 1542.51 1352.28 C 1546.82 1319.01 1558.25 1288.46 1580.42 1262.91 C 1588.47 1253.63 1597.05 1247.75 1607.07 1240.84 C 1629.45 1225.39 1643.49 1216.49 1671.44 1214.41 z"/>
<path transform="translate(0,0)" fill="rgb(215,173,168)" d="M 1649.8 1307.26 C 1653.15 1307.04 1656.56 1306.79 1659.91 1307.01 C 1692.11 1309.14 1731.05 1337.93 1751.09 1361.88 C 1781.6 1398.33 1801.81 1447.83 1797.36 1495.87 C 1796.13 1509.17 1793.58 1523.71 1782.44 1532.51 C 1780.53 1534.02 1780.08 1534.71 1777.61 1534.48 L 1777.16 1531.77 A 299.737 299.737 0 0 0 1779.68 1510.23 C 1783.25 1463.59 1765.9 1412.77 1735.29 1377.5 C 1703.66 1341.07 1671.17 1323.11 1623.2 1319.55 C 1631.59 1313.1 1639.52 1309.44 1649.8 1307.26 z"/>
<path transform="translate(0,0)" fill="rgb(215,173,168)" d="M 1165.29 1624.24 C 1188.18 1623.12 1210.08 1625.2 1231.81 1632.88 C 1274.41 1647.92 1311.49 1683.84 1330.51 1724.44 C 1348.1 1761.97 1354.62 1806.78 1340.18 1846.36 C 1334.72 1851.34 1328.12 1855.43 1322.07 1859.69 L 1326.6 1846.78 A 168.886 168.886 0 0 0 1321.11 1769.7 C 1306.31 1721.24 1267.95 1677.67 1223.28 1654.29 C 1194.46 1639.19 1161.99 1632.41 1130.52 1642.2 C 1142.34 1636.61 1152.54 1627.71 1165.29 1624.24 z"/>
<path transform="translate(0,0)" fill="rgb(215,173,168)" d="M 1668.68 1231.42 A 52.6777 52.6777 0 0 1 1674.49 1231.12 C 1722.62 1231.37 1771.38 1263.38 1803.87 1296.73 C 1850.02 1344.09 1879.1 1413.25 1878.14 1479.57 C 1877.51 1522.98 1865.52 1557.5 1834.25 1587.92 L 1841.71 1574.38 C 1858.79 1542.27 1862.17 1506.97 1859.34 1471.16 C 1853.81 1401.33 1817.69 1331.43 1764.41 1286.16 C 1725.12 1252.77 1682.58 1236.18 1630.93 1240.24 C 1643.72 1236 1655.22 1232.61 1668.68 1231.42 z"/>
<path transform="translate(0,0)" fill="rgb(215,173,168)" d="M 1636.18 1253.4 C 1656.73 1250.55 1680.54 1257.43 1699.15 1265.65 C 1759.23 1292.2 1802.41 1341.91 1825.66 1402.89 C 1843.9 1450.73 1850.35 1516.09 1828.71 1563.95 C 1819.65 1583.99 1806.15 1598.41 1785.37 1606.17 C 1761.8 1614.97 1738.2 1610.69 1715.91 1600.42 C 1732.12 1587.08 1749.92 1576 1767.52 1564.62 C 1793.46 1548.28 1805.32 1542.48 1812.7 1510.52 C 1822.7 1467.21 1809.89 1417.47 1786.53 1380.38 C 1761.63 1340.84 1722.42 1302.07 1675.43 1291.61 C 1656.97 1287.5 1636.12 1288.59 1620.12 1299.46 C 1611.74 1305.14 1604.29 1312.43 1596.22 1318.57 C 1585.01 1327.1 1572.89 1334.48 1560.99 1341.99 C 1567.11 1317.23 1575.06 1295.45 1591.01 1275.17 C 1605.07 1257.28 1614.81 1255.91 1636.18 1253.4 z"/>
<path transform="translate(0,0)" fill="rgb(215,173,168)" d="M 1145.24 1651.29 C 1168.38 1647.94 1194.72 1655.8 1215.26 1665.98 C 1254.66 1685.52 1291.54 1727.26 1305.3 1769.12 C 1314.08 1795.84 1319.21 1835.48 1305.38 1861.43 C 1299.89 1871.73 1291.14 1877.8 1280.09 1881.09 C 1253.32 1889.07 1221.37 1881.33 1197.5 1868.29 C 1210.74 1853.08 1240.85 1841.92 1247.48 1833.26 C 1248.93 1831.37 1248.91 1831.05 1248.58 1828.83 L 1246.33 1827.26 C 1224.37 1824.75 1166.91 1870.48 1148.64 1884.07 C 1119.48 1906.97 1083.1 1919.42 1046.37 1922.5 C 1035.09 1923.45 1014.02 1925.4 1005.09 1917.31 C 1001.44 1914 1000.2 1909.51 1000.15 1904.71 C 999.762 1866.68 1056.82 1810.82 1086.86 1790.93 C 1101.41 1781.3 1119.31 1776.58 1131.68 1763.72 C 1139.21 1755.87 1147.87 1741.22 1146.06 1730.04 C 1145.62 1727.32 1144.22 1726.84 1142.14 1725.28 C 1141.35 1725.26 1140.51 1724.94 1139.77 1725.21 C 1137.89 1725.89 1126.86 1760.09 1114.37 1764.16 C 1111.88 1764.97 1109.63 1764.35 1107.6 1762.84 C 1102.86 1759.28 1100.55 1750.14 1099.47 1744.54 C 1094.86 1720.72 1095.45 1690.69 1110.02 1670.12 C 1118.83 1657.68 1131.02 1653.77 1145.24 1651.29 z"/>
<path transform="translate(0,0)" fill="rgb(201,211,196)" d="M 1609.42 1329.08 C 1624.12 1328.41 1639.7 1330.44 1653.9 1334.23 C 1693.43 1344.77 1724.75 1373.57 1744.69 1408.63 C 1767.15 1448.11 1776.42 1497.43 1764.33 1541.82 C 1750.19 1553.9 1733.36 1564.1 1718.12 1574.78 C 1687.41 1596.31 1656.6 1617.76 1626.24 1639.77 C 1561.45 1686.75 1497.18 1734.3 1431.53 1780.11 C 1406.24 1797.75 1381.15 1816.56 1354.93 1832.76 C 1356.39 1826.33 1357.07 1819.78 1357.89 1813.25 L 1357.95 1812.25 C 1360.97 1764.25 1340.38 1709.19 1308.49 1673.47 C 1270.74 1631.19 1228.8 1617.28 1173.68 1614.03 C 1182.85 1607.05 1193.37 1601.42 1203.08 1595.16 A 6216.5 6216.5 0 0 0 1260.15 1557.68 A 14688.8 14688.8 0 0 1 1494.18 1405.74 C 1520.25 1389.05 1545.72 1371.07 1571.35 1353.69 C 1583.6 1345.38 1596.1 1335.52 1609.42 1329.08 z"/>
<path transform="translate(0,0)" fill="rgb(83,53,51)" d="M 1625.32 1362.77 C 1639.79 1361.43 1654.36 1369.61 1665.5 1378.04 C 1680.16 1389.13 1713.85 1424.75 1715.71 1443.26 C 1715.92 1445.45 1715.78 1446.26 1714.29 1447.91 C 1707.56 1455.35 1696.92 1461.56 1688.75 1467.44 A 4762.72 4762.72 0 0 1 1635.38 1505.37 A 7678.38 7678.38 0 0 1 1446.27 1633.78 C 1431.11 1643.79 1415.86 1653.7 1400.83 1663.91 C 1392.36 1669.67 1384.1 1676.19 1375.3 1681.42 C 1373.87 1682.26 1372.78 1682.55 1371.14 1682.66 C 1361 1665.04 1349.03 1649.53 1333.86 1635.91 A 210.752 210.752 0 0 0 1300.44 1611.42 C 1294.34 1607.82 1287.19 1604.97 1281.51 1600.82 C 1279.41 1599.29 1278.29 1597.68 1277.25 1595.35 C 1278.56 1590.25 1284.65 1586.55 1288.82 1583.59 C 1316.3 1564.14 1345.5 1546.56 1373.97 1528.6 L 1437.48 1487.88 A 6389.67 6389.67 0 0 0 1625.32 1362.77 z"/>
<path transform="translate(0,0)" fill="rgb(245,241,227)" d="M 1630.12 1371.93 C 1636.03 1372.66 1641.48 1373.97 1646.83 1376.71 C 1671.31 1389.22 1695.61 1417.69 1703.99 1443.86 C 1680.73 1461.72 1656.58 1477.99 1632.68 1494.93 A 5057.12 5057.12 0 0 1 1441.04 1625.2 L 1390.41 1658.81 C 1386.16 1661.59 1382.03 1665.67 1377.39 1667.59 C 1374.4 1666.84 1374.22 1665.87 1372.42 1663.45 C 1350.98 1633.28 1323.83 1611.43 1291.11 1594.6 C 1318.41 1575.15 1347.67 1557.55 1375.96 1539.56 C 1403.91 1521.8 1431.54 1503.28 1459.25 1485.11 C 1490.89 1464.34 1522.97 1444.05 1554.33 1422.88 C 1579.46 1405.92 1604.2 1387.65 1630.12 1371.93 z"/>
<path transform="translate(0,0)" fill="rgb(83,53,51)" d="M 898.63 437.469 C 898.853 437.207 899.079 436.947 899.298 436.682 C 907.583 426.652 914.117 414.313 921.059 403.297 A 556.733 556.733 0 0 1 954.276 355.474 C 1003.35 292.616 1121.12 174.699 1189.94 136.296 A 347.91 347.91 0 0 1 1321.37 94.342 C 1448.31 81.066 1567.94 129.433 1671.91 198.549 C 1730.96 237.804 1788.02 281.303 1852.27 311.892 A 637.157 637.157 0 0 0 1919.57 339.056 A 358.578 358.578 0 0 0 1950.92 347.92 C 1970.07 352.316 1997.48 354.002 2012.85 367.028 C 2018.76 372.031 2021.67 377.316 2022.27 385.056 C 2023.83 405.44 2007.96 424.797 1995.13 438.929 C 1966.73 470.204 1935.09 498.307 1906.89 529.893 C 1906.72 560.917 1898.78 593.53 1890.37 623.307 C 1854.19 751.413 1779.82 863.661 1685.76 956.818 C 1661.82 980.53 1635.95 1002.54 1609.59 1023.52 C 1582.02 1045.47 1540.13 1072.03 1520 1099.81 C 1548.66 1102.17 1649.03 1107.48 1666.03 1128.52 C 1668.62 1131.73 1670.05 1135.62 1669.59 1139.77 C 1669.06 1144.52 1666.12 1148.13 1662.32 1150.81 C 1654.39 1156.42 1643.38 1158.92 1634.04 1161.21 C 1640.71 1164.89 1650.43 1169.64 1652.69 1177.55 C 1653.81 1181.47 1652.82 1185.66 1650.76 1189.09 C 1647.51 1194.52 1641.55 1197.08 1635.6 1198.3 C 1605.4 1204.48 1574.59 1188.86 1545.7 1182.58 C 1549.33 1191.85 1553.79 1202.99 1549.65 1212.86 C 1548.16 1216.4 1545.47 1218.82 1541.87 1220.09 C 1534.11 1222.81 1524.75 1220.49 1517.77 1216.68 C 1496.5 1205.09 1485.48 1179.83 1472.09 1160.83 C 1457.2 1182.3 1437.46 1207.18 1415.69 1222.06 C 1390.41 1239.35 1355.52 1246.2 1326.59 1255.32 C 1301.82 1263.14 1278.71 1272.42 1256.12 1285.41 C 1262.14 1288.16 1271.88 1291.39 1275.38 1297.41 L 1274.93 1299.3 C 1269.47 1301.11 1251.93 1291.77 1244.98 1289.76 C 1227.53 1297.5 1210.17 1308.38 1194.5 1319.27 C 1202.59 1320.4 1216.14 1320.67 1222.61 1325.69 L 1222.84 1327.49 C 1219.97 1329.82 1214.71 1328.76 1211.03 1328.4 C 1203.35 1327.67 1195.57 1326.25 1188.22 1323.89 C 1169.22 1333.04 1151.91 1345.48 1135.01 1358.01 C 1143.12 1359.05 1155.8 1360.52 1161.57 1366.81 L 1160.24 1369.74 C 1153.81 1371.97 1141.89 1366.86 1135.31 1364.59 C 1134.64 1363.1 1134.12 1361.69 1133.68 1360.13 C 1125.54 1360.67 1090.32 1389.6 1082.95 1396.16 C 1090.06 1397.89 1100.18 1399.36 1105.26 1405.27 C 1105.54 1405.59 1105.69 1406.01 1105.91 1406.38 C 1104.18 1408.18 1105.14 1407.81 1102.63 1407.91 C 1093.75 1408.27 1083.76 1404.4 1075.39 1401.7 C 1062.05 1408.62 1044.06 1421.26 1033.14 1431.54 C 1031.85 1432.86 1031.19 1433.48 1029.5 1434.32 C 1023.39 1434.9 983.46 1461.72 974.042 1466.71 L 972.924 1468.87 C 971.852 1469.05 970.974 1469.32 969.894 1469.11 C 954.839 1478.06 939.911 1487.1 924.038 1494.55 C 930.778 1497.28 941.008 1501.25 946.07 1506.49 C 947.676 1508.16 947.611 1508.49 947.479 1510.65 L 945.289 1512.08 C 936.391 1511.87 923.61 1503.25 916.605 1497.95 C 902.071 1503.89 887.109 1509.65 871.986 1513.89 C 878.454 1519.27 896.449 1532.8 897.285 1541.51 L 895.83 1542.21 C 884.319 1538.37 871.668 1524.53 862.734 1516.33 C 847.576 1521.35 831.909 1523.48 816.112 1525.24 C 827.379 1529.18 838.297 1533.84 848.488 1540.1 C 867.282 1551.66 883.078 1568.22 888.168 1590.21 C 892.934 1610.79 894.026 1656.54 882.519 1674.3 C 857.156 1713.45 772.175 1740.35 726.997 1749.18 C 623.162 1769.49 450.171 1757.48 360.591 1696.53 C 342.109 1683.95 321.794 1667.28 317.697 1643.92 C 316.308 1636 316.723 1627.84 317.014 1619.84 C 317.835 1597.32 320.244 1576.74 333.792 1557.9 C 369.518 1508.23 451.104 1491.35 508.279 1481.98 C 488.694 1472.41 460.108 1461.32 439.491 1454.95 C 429.015 1457.59 409.807 1466.67 400.019 1466.53 C 398.01 1464.93 397.775 1464.33 396.764 1461.94 C 399.009 1457.38 421.383 1451.8 427.772 1449.52 A 3476.61 3476.61 0 0 0 373.319 1428.02 C 363.66 1431.61 351.07 1438.42 340.811 1439.1 C 338.737 1439.23 338.917 1438.82 337.449 1437.56 L 337.348 1435.7 C 342.012 1429.37 356.892 1426.57 364.377 1423.71 C 346.338 1415.28 327.043 1408.73 308.099 1402.63 C 300.825 1405.04 293.003 1409.91 287.061 1411.57 C 283.3 1412.61 279.34 1413.34 275.862 1411.3 C 278.566 1405.85 291.931 1401.41 297.763 1398.72 A 523.149 523.149 0 0 0 247.637 1377.88 C 239.232 1380.51 225.109 1389.47 216.636 1388.12 L 215.759 1386.25 C 218.426 1380.34 230.918 1376.15 236.692 1372.72 C 219.837 1364.7 202.421 1357.63 185.292 1350.19 C 176.739 1355.49 166.318 1362.11 156.051 1362.32 L 155.195 1360.74 C 160.1 1353.92 170.642 1350.04 178.078 1346.45 C 164.596 1338.89 150.84 1330.89 136.736 1324.59 C 126.616 1326.84 117.136 1331.18 107.065 1333.48 C 103.9 1334.2 101.372 1334.57 98.5825 1332.82 L 98.7075 1330.29 C 103.514 1323.96 117.184 1321.44 124.67 1318.95 C 111.347 1312.29 98.6099 1304.42 85.792 1296.84 C 79.9836 1299.08 53.8567 1312.09 51.9165 1312.43 C 49.3151 1311.72 49.1458 1311.87 47.62 1309.69 L 48.3631 1307.04 C 55.0412 1299.65 68.1653 1296.07 77.2831 1292.36 C 64.9979 1284.33 51.0761 1278.3 37.8192 1272.08 C 35.7737 1276.53 33.78 1282.2 30.6171 1285.95 C 28.6469 1288.28 26.5585 1288.63 23.67 1288.94 C 22.3946 1288.2 21.8495 1288.27 21.3947 1286.71 C 18.3939 1276.42 37.6751 1240.63 42.8484 1229.63 C 39.2785 1229.3 35.6102 1229.05 32.0783 1228.45 C 29.1067 1227.93 26.9796 1226.93 25.2051 1224.5 L 26.4161 1223.19 C 33.7485 1220.7 39.1221 1221.85 46.5449 1223.17 A 2754.37 2754.37 0 0 1 72.749 1177.39 C 67.5564 1176.98 62.0635 1176.81 56.964 1175.77 C 53.7273 1175.11 49.6712 1174.02 47.7225 1171.19 L 48.4874 1169.83 C 57.2648 1165.26 68.2547 1168.69 77.2792 1170.72 C 85.2913 1158.66 92.5837 1146.13 100.007 1133.7 C 94.2605 1131.7 77.9747 1129.8 74.7834 1125.03 L 75.4371 1123.28 C 82.8374 1120.02 97.9524 1124.08 105.964 1125.24 A 555.41 555.41 0 0 0 129.161 1089.81 C 123.679 1088.93 116.321 1088.51 111.359 1086.05 C 108.948 1084.85 108.348 1083.93 107.431 1081.48 L 108.387 1080.01 C 115.956 1077.58 127.734 1081.28 135.541 1082.72 C 145.015 1072.99 153.073 1061.19 161.398 1050.43 C 152.463 1049.48 144.519 1049.25 136.727 1044.39 L 136.287 1042.1 C 136.381 1042.02 136.462 1041.93 136.57 1041.87 C 144.708 1037.75 157.676 1042.5 165.908 1044.53 C 176.327 1032.9 186.902 1021.37 196.996 1009.46 C 189.171 1008.17 179.937 1007.84 172.488 1005.33 C 170.918 1004.8 171.069 1004.26 170.379 1002.87 C 170.756 1001.48 170.594 1000.75 171.913 999.914 C 178.364 995.811 197.532 1000.29 205.248 1001.35 C 214.815 991.139 225.225 981.761 235.473 972.25 C 228.917 970.996 215.159 971.209 210.675 966.251 C 209.502 964.955 209.949 964.596 210.113 963.023 C 210.403 962.802 210.672 962.551 210.983 962.361 C 216.4 959.057 237.645 963.847 244.552 964.984 C 256.654 955.456 267.885 944.728 279.964 935.086 C 272.461 933.418 263.72 932.481 256.54 929.996 C 254.073 929.143 253.744 928.929 252.559 926.801 C 253.171 924.242 253.459 924.509 255.381 922.932 C 265.066 920.636 280.454 924.407 290.567 925.669 C 300.932 916.48 312.614 908.308 323.477 899.662 C 316.551 897.977 301.54 896.354 297.203 890.559 C 297.417 888.091 297.629 888.094 299.366 886.279 C 310.134 886.783 320.685 890.522 331.54 891.287 L 332.948 891.377 C 345.457 884.495 356.331 875.414 368.307 867.724 L 370.489 867.846 C 375.145 865.744 378.71 862.246 381.436 857.965 C 389.382 849.252 402.972 841.829 412.791 834.986 C 414.2 812.194 415.687 743.409 421.021 726.557 C 423.275 719.434 427.922 714.07 433.427 709.202 C 454.308 690.74 478.566 676.682 500.335 659.449 C 461.901 629.594 416.753 584.879 410.461 534.337 C 409.576 527.225 409.229 519.679 413.91 513.725 C 416.407 510.549 420.01 508.057 424.104 507.65 C 432.016 506.864 440.793 515.106 446.316 520.095 C 466.656 538.467 484.455 562.081 500.594 584.202 C 489.432 555.083 462.443 483.634 475.95 455.233 C 477.714 451.526 480.617 447.369 484.826 446.275 C 489.278 445.118 493.566 447.327 497.046 449.918 C 515.931 463.976 538.891 535.573 549.995 561.291 C 556.267 575.82 564.066 589.676 571.057 603.864 C 635.66 554.65 682.614 520.926 758.361 489.544 C 804.38 470.477 852.293 455.846 898.63 437.469 z"/>
<path transform="translate(0,0)" fill="rgb(254,254,253)" d="M 863.484 1218.61 C 863.283 1215.89 863.205 1213.76 863.896 1211.07 C 865.031 1210.17 865.321 1209.41 866.888 1209.69 C 869.982 1210.25 873.25 1213.31 874.716 1215.98 C 875.279 1217 875.572 1217.9 875.967 1218.97 L 863.484 1218.61 z"/>
<path transform="translate(0,0)" fill="rgb(254,254,253)" d="M 894.545 1069.52 C 897.314 1071.67 899.457 1074.67 901.714 1077.36 C 896.819 1079.85 891.991 1082.5 887.141 1085.08 L 884.553 1086.53 C 884.519 1084.03 892.769 1072.74 894.545 1069.52 z"/>
<path transform="translate(0,0)" fill="rgb(236,201,184)" d="M 707.639 909.631 C 709.297 915.67 709.9 922.346 710.885 928.55 C 708.281 930.309 705.945 932.346 703.558 934.38 L 702.561 935.577 C 701.136 930.529 706.216 915.001 707.639 909.631 z"/>
<path transform="translate(0,0)" fill="rgb(146,103,105)" d="M 913.765 1242.73 C 916.625 1240.69 919.228 1241.01 922.573 1241.03 A 1024.01 1024.01 0 0 0 941.913 1249.22 L 936.989 1249.65 L 941.305 1253.32 C 932.058 1250.14 922.898 1246.25 913.765 1242.73 z"/>
<path transform="translate(0,0)" fill="rgb(236,201,184)" d="M 863.484 1218.61 L 875.967 1218.97 L 876.33 1221 C 875.9 1221.34 875.465 1221.68 875.039 1222.03 C 872.331 1224.26 869.857 1226.58 866.373 1227.5 C 863.654 1228.21 861.895 1227.84 859.439 1226.51 L 859.16 1224.93 C 860.316 1223.17 861.334 1221.46 863.007 1220.13 C 863.301 1219.9 863.626 1219.71 863.936 1219.49 L 863.484 1218.61 z"/>
<path transform="translate(0,0)" fill="rgb(215,173,168)" d="M 842.962 1179.89 L 854.968 1181.44 C 856.137 1184.96 854.343 1189.5 852.883 1192.77 L 842.999 1190.63 C 843.463 1189.54 844.139 1188.17 844.352 1186.97 C 844.882 1183.98 844.435 1182.45 842.962 1179.89 z"/>
<path transform="translate(0,0)" fill="rgb(236,201,184)" d="M 726.095 1207.14 L 731.069 1206.97 C 731.83 1208.64 731.618 1208.06 732.147 1209.58 C 732.622 1210.95 733.114 1212.32 733.569 1213.69 C 734.769 1217.32 736.345 1219.58 738.726 1222.61 L 739.633 1223.75 C 735.1 1222.97 728.216 1222.15 725.835 1217.57 C 724.314 1214.64 725.032 1210.11 726.095 1207.14 z"/>
<path transform="translate(0,0)" fill="rgb(254,254,253)" d="M 849.847 1204.18 C 851.353 1204.56 852.815 1205.06 854.292 1205.54 C 854.9 1206.61 855.011 1206.66 855.332 1208.06 C 856.364 1212.56 854.391 1218.72 852.024 1222.53 C 850.729 1224.62 850.899 1224.13 848.76 1224.64 C 846.433 1224.39 844.211 1224.7 842.519 1223.02 C 843.581 1221.06 844.592 1219.06 845.704 1217.14 C 848.269 1212.7 848.985 1209.18 849.847 1204.18 z"/>
<path transform="translate(0,0)" fill="rgb(245,241,227)" d="M 484.179 975.668 C 487.972 978.816 496.119 995.752 499.282 1000.93 L 494.203 999.608 C 491.168 998.843 488.358 998.248 486.323 995.621 C 482.205 990.303 483.849 981.959 484.179 975.668 z"/>
<path transform="translate(0,0)" fill="rgb(254,254,253)" d="M 746.506 1204.86 C 749.088 1204.83 750.651 1204.66 752.952 1206 C 755.728 1210 757.765 1214.35 758.274 1219.26 L 756.53 1219.68 C 752.322 1219.24 746.926 1218.85 743.672 1215.79 C 741.665 1213.9 741.745 1213.21 741.615 1210.63 C 742.956 1207.75 744.07 1206.74 746.506 1204.86 z"/>
<path transform="translate(0,0)" fill="rgb(254,254,253)" d="M 885.317 1226.7 A 368.679 368.679 0 0 1 884.509 1217.96 C 891.429 1219.51 916.587 1231.71 920.185 1236.77 C 920.401 1237.07 920.57 1237.41 920.762 1237.73 C 909.721 1234.8 896.341 1226.67 885.317 1226.7 z"/>
<path transform="translate(0,0)" fill="rgb(184,135,133)" d="M 669.276 1229.33 C 678.428 1226.81 682.261 1223.74 688.512 1216.68 C 691.972 1220.86 695.243 1224.51 699.494 1227.94 L 700.698 1228.92 C 700.94 1229.12 701.188 1229.31 701.432 1229.5 C 691.599 1230.98 681.688 1229.75 672.014 1231.49 L 669.276 1229.33 z"/>
<path transform="translate(0,0)" fill="rgb(184,135,133)" d="M 715.811 1209.19 L 716.767 1209.92 C 715.926 1215.2 718.47 1219.09 718.197 1224.36 L 716.553 1225.64 C 713.542 1225.7 711.853 1225.1 709.114 1224.02 C 704.704 1221.17 701.298 1218.4 697.583 1214.69 C 703.576 1212.56 709.686 1210.89 715.811 1209.19 z"/>
<path transform="translate(0,0)" fill="rgb(132,88,89)" d="M 885.317 1226.7 C 896.341 1226.67 909.721 1234.8 920.762 1237.73 L 922.573 1241.03 C 919.228 1241.01 916.625 1240.69 913.765 1242.73 C 901.527 1240.99 888.753 1234.86 876.781 1231.52 L 876.717 1230.11 C 878.221 1229.35 879.629 1228.57 881.286 1228.2 C 881.813 1228.08 883.762 1227.76 883.997 1227.65 C 884.496 1227.44 884.877 1227.02 885.317 1226.7 z"/>
<path transform="translate(0,0)" fill="rgb(201,211,196)" d="M 1360.92 1142.17 L 1360.64 1143.67 C 1346.81 1157.05 1300.46 1168.36 1280.21 1171.46 C 1280.01 1170.34 1280.18 1169.28 1280.27 1168.14 C 1284.79 1164.16 1299.94 1162.85 1306.69 1161.29 C 1325.73 1156.89 1343.05 1149.89 1360.92 1142.17 z"/>
<path transform="translate(0,0)" fill="rgb(236,201,184)" d="M 1000.48 846.345 C 999.421 849.67 998.15 853.051 997.588 856.495 C 980.213 857.995 963.919 862.917 947.938 869.776 C 946.245 869.091 945.076 868.32 943.649 867.184 C 944.117 865.365 944.857 864.037 945.814 862.427 C 963.319 854.065 981.646 850.396 1000.48 846.345 z"/>
<path transform="translate(0,0)" fill="url(#Gradient1)" d="M 842.999 1190.63 L 841.726 1190.42 C 819.819 1186.61 796.995 1187.37 774.826 1185.9 L 773.545 1184.33 C 773.683 1182.37 773.239 1182.61 774.594 1181.53 C 783.282 1174.61 830.717 1178.51 842.962 1179.89 C 844.435 1182.45 844.882 1183.98 844.352 1186.97 C 844.139 1188.17 843.463 1189.54 842.999 1190.63 z"/>
<path transform="translate(0,0)" fill="rgb(245,241,227)" d="M 1017.58 813.093 L 1020.53 813.136 L 1021.11 814.343 C 1017.41 821.292 1011.37 826.742 1007.05 833.359 L 1006.41 834.355 C 990.664 835.353 975.683 838.572 960.779 843.699 L 958.226 844.279 L 957.583 843.452 C 967.911 830.918 1001.77 817.12 1017.58 813.093 z"/>
<path transform="translate(0,0)" fill="rgb(254,254,253)" d="M 771.756 1203.39 C 785.57 1202.56 824.601 1201.01 836.298 1205.39 C 838.998 1206.4 839.755 1207.02 840.981 1209.59 C 840.677 1210.78 840.478 1211.76 839.928 1212.9 C 838.413 1216.02 835.753 1217.09 832.757 1218.43 C 818.863 1220.95 805.3 1221.76 791.19 1220.68 C 784.554 1220.17 771.605 1219.54 767.544 1213.56 C 766.26 1211.67 766.038 1209.18 766.863 1207.05 C 767.934 1204.29 769.19 1204.25 771.756 1203.39 z"/>
<path transform="translate(0,0)" fill="rgb(254,254,253)" d="M 1269.49 1151.72 C 1269.73 1153.29 1269.84 1153.39 1269.82 1154.7 C 1269.66 1168.56 1258.47 1182.38 1248.95 1191.63 C 1208.87 1230.56 1138.11 1252 1084.21 1263.18 C 1065.61 1267.05 1045.53 1270.93 1026.49 1270.65 A 235.698 235.698 0 0 1 1024.71 1266.61 C 1026.7 1264.11 1051.85 1262.66 1057.04 1261.97 C 1098.02 1256.57 1139.99 1246.94 1177.91 1230.19 C 1217.2 1212.83 1253.18 1193.92 1269.49 1151.72 z"/>
<path transform="translate(0,0)" fill="rgb(245,241,227)" d="M 491.762 472.693 C 501.021 484.202 525.475 555.772 534.433 576.038 C 537.054 581.968 552.998 612.44 553.488 615.04 C 554.097 618.271 552.358 619.276 550.431 621.442 L 547.16 623.459 C 543.859 623.33 542.148 621.795 539.974 619.359 C 519.852 596.813 489.659 503.917 491.762 472.693 z"/>
<path transform="translate(0,0)" fill="rgb(245,241,227)" d="M 1181.02 945.559 C 1193.17 952.541 1224.51 991.684 1236.15 1004.25 C 1250.62 1019.88 1267.14 1034.28 1280.03 1051.27 C 1258.28 1045.24 1234.17 1029.25 1217.75 1014 C 1199.28 996.847 1181.95 971.58 1181.02 945.559 z"/>
<path transform="translate(0,0)" fill="rgb(236,201,184)" d="M 1042.23 808.639 L 1053.11 819.475 C 1043.85 826.95 1035.18 834.71 1028.5 844.662 C 1014.62 865.341 1011.74 888.905 1016.78 913.015 C 1026.17 957.913 1061.95 996.697 1098.43 1022.56 C 1108.68 1029.83 1119.92 1035.69 1130.47 1042.51 L 1130.56 1043.33 L 1129.58 1044.15 C 1105.16 1038.79 1067.96 1006.64 1051.22 988.396 C 1025.47 960.332 1004.32 920.559 1006.36 881.51 C 1007.85 852.889 1020.98 827.609 1042.23 808.639 z"/>
<path transform="translate(0,0)" fill="url(#Gradient2)" d="M 854.968 1181.44 C 907.523 1190.24 973.798 1214.02 1006.14 1259.02 C 1017.59 1274.96 1024.45 1290.13 1027.6 1309.47 C 1012.19 1278.37 1001.14 1263.34 973.562 1242.17 C 966.599 1236.83 959.626 1230.81 952.106 1226.29 C 937.627 1217.59 915.298 1210.07 899.111 1204.68 A 379.717 379.717 0 0 0 852.883 1192.77 C 854.343 1189.5 856.137 1184.96 854.968 1181.44 z"/>
<path transform="translate(0,0)" fill="rgb(245,241,227)" d="M 427.918 530.333 C 437.695 533.387 486.929 596.103 498.518 608.451 C 504.8 615.143 525.192 633.61 528.611 638.609 L 524.49 643.016 L 518.663 648.323 C 480.279 623.372 437.944 575.821 427.918 530.333 z"/>
<path transform="translate(0,0)" fill="rgb(236,201,184)" d="M 822.596 897.434 C 822.894 897.405 823.191 897.363 823.49 897.345 C 836.297 896.581 859.691 901.088 869.17 909.926 C 870.867 911.508 871.04 911.51 871.084 913.907 C 865.554 917.973 848.616 913.408 841.896 912.69 C 798.421 908.048 755.501 924.103 721.656 951.031 C 713.518 958.312 708.318 964.994 704.526 975.188 L 690.254 968.497 C 692.265 965.458 694.323 962.35 696.682 959.568 C 704.378 950.494 714.488 943.059 724.169 936.278 C 754.064 915.341 785.799 900.097 822.596 897.434 z"/>
<path transform="translate(0,0)" fill="url(#Gradient3)" d="M 945.814 862.427 C 944.857 864.037 944.117 865.365 943.649 867.184 C 945.076 868.32 946.245 869.091 947.938 869.776 C 931.334 877.771 915.945 888.63 903.662 902.425 C 886.101 922.15 873.859 947.2 875.571 974.121 C 877.848 1009.94 902.165 1042.89 928.262 1065.69 C 922.746 1067.43 917.477 1069.54 912.137 1071.75 C 898.433 1057.83 886.475 1041.24 878.263 1023.49 A 116.199 116.199 0 0 1 874.389 933.735 C 887.037 899.956 913.577 877.105 945.814 862.427 z"/>
<path transform="translate(0,0)" fill="rgb(184,135,133)" d="M 921.196 722.19 L 942.194 734.916 A 95.0743 95.0743 0 0 0 928.034 755.459 C 910.411 789.156 906.549 826.062 917.877 862.27 L 911.365 866.726 L 900.457 875.956 C 900.095 874.911 899.725 873.869 899.397 872.813 A 167.837 167.837 0 0 1 902.985 759.76 C 908.099 746.774 914.844 734.589 921.196 722.19 z"/>
<path transform="translate(0,0)" fill="url(#Gradient4)" d="M 990.737 866.339 C 991.89 866.156 993.13 866.378 994.293 866.468 C 994.712 867.373 995.142 868.179 995.324 869.187 C 995.669 871.094 995.498 872.888 994.649 874.62 C 992.799 878.4 973.825 881.517 968.828 883.217 C 947.131 890.6 928.298 905.103 914.654 923.421 C 902.323 939.976 895.973 958.736 899.045 979.416 C 903.959 1012.5 926.878 1038.22 952.864 1057.32 C 951.07 1059.06 946.788 1059.85 944.32 1060.62 L 940.021 1061.49 C 937.181 1060.65 935.072 1059.34 932.66 1057.61 C 910.042 1041.44 890.62 1010.22 886.098 982.76 C 882.274 959.543 887.729 938.358 901.448 919.349 C 922.998 889.487 954.953 872.31 990.737 866.339 z"/>
<path transform="translate(0,0)" fill="rgb(201,211,196)" d="M 1315.14 1091.33 C 1322.11 1094.85 1347.29 1127.08 1353.47 1134.55 C 1332.65 1143.18 1312.31 1150.72 1290.34 1155.99 C 1287.48 1156.67 1284.95 1157.1 1282.03 1157.29 C 1279.91 1152.92 1280.61 1146.11 1280.21 1141.26 C 1278.53 1120.85 1267.42 1106.65 1253.21 1092.99 C 1274.37 1096.1 1294.2 1095.96 1315.14 1091.33 z"/>
<path transform="translate(0,0)" fill="rgb(215,173,168)" d="M 592.55 1074.81 C 607.209 1080.15 625.998 1095.95 640.938 1103.92 C 698.195 1134.46 753.249 1150.93 817.69 1157.72 C 818.884 1160.26 818.012 1162.36 817.595 1165.08 C 797.075 1165.03 776.553 1167.26 756.054 1165.12 C 711.609 1160.46 645.635 1128.63 607.536 1105.58 C 604.375 1093.71 599.553 1084.85 592.55 1074.81 z"/>
<path transform="translate(0,0)" fill="rgb(245,241,227)" d="M 1157.01 919.561 C 1161.53 922.775 1165.32 927.683 1169.09 931.748 C 1168.58 938.382 1167.94 945.081 1168.35 951.735 C 1171.03 995.907 1215.92 1035.76 1253.95 1052.29 C 1264.32 1056.8 1288.86 1062.87 1295.67 1069.31 C 1297.48 1071.02 1297.71 1071.3 1297.81 1073.67 L 1295.77 1074.77 C 1278.12 1075.67 1259.54 1072.12 1242.92 1066.33 C 1209.72 1054.75 1176.86 1025.52 1161.65 993.774 C 1150.61 970.75 1148.39 943.73 1157.01 919.561 z"/>
<path transform="translate(0,0)" fill="rgb(184,135,133)" d="M 784.293 649.705 C 788.313 650.334 792.064 652.502 795.717 654.231 C 781.153 673.915 764.752 692.275 750.109 711.962 C 742.418 722.302 736.849 734.144 729.092 744.379 C 720.472 755.751 707.145 762.066 699.845 775.089 C 686.258 799.329 683.515 831.392 678.081 858.446 C 671.617 890.624 665.31 922.704 660.052 955.109 L 649.746 951.571 L 632.206 946.608 C 646.807 920.839 658.721 890.227 665.875 861.481 C 670.751 841.889 673.937 822.015 680.636 802.891 C 696.089 758.773 752.773 687.366 784.293 649.705 z"/>
<path transform="translate(0,0)" fill="rgb(184,135,133)" d="M 536.368 1259.26 C 565.546 1239.68 598.93 1223.79 631.368 1210.35 C 666.092 1195.97 727.677 1174.69 763.15 1189.38 C 739.447 1192.51 716.08 1197 693.442 1204.81 C 684.181 1208.01 677.753 1215.33 668.808 1218.8 C 648.163 1226.8 626.152 1233.09 605.035 1239.86 C 595.097 1243.04 583.83 1245.76 574.594 1250.63 C 572.527 1251.72 571.775 1251.79 571.05 1254.1 L 572.645 1255.43 C 593.858 1259.63 647.71 1236.62 669.276 1229.33 L 672.014 1231.49 C 648.13 1238.83 622.945 1253.24 605.377 1271.07 C 583.751 1263.93 558.809 1263.99 536.368 1259.26 z"/>
<path transform="translate(0,0)" fill="rgb(184,135,133)" d="M 788.231 739.421 C 823.543 740.474 858.863 750.959 884.225 776.549 C 882.974 781.399 882.279 786.374 881.467 791.314 C 857.921 769.386 830.007 755.547 797.662 752.609 C 773.388 750.404 746.604 760.713 728.08 776.21 C 706.398 794.348 707.151 833.355 704.867 859.464 C 701.88 887.932 690.633 936.617 680.87 963.516 L 671.8 959.14 C 672.712 927.183 681.73 895.216 688.024 864.021 C 692.548 841.597 695.333 818.321 702.786 796.636 C 705.938 787.467 710.373 778.973 716.751 771.624 C 733.83 751.944 762.843 741.341 788.231 739.421 z"/>
<path transform="translate(0,0)" fill="url(#Gradient5)" d="M 865.184 1169.51 C 861.357 1168.88 859.126 1169.06 856.176 1166.46 C 855.15 1163.01 855.228 1160.86 856.937 1157.62 C 875.137 1123.12 936.032 1097.32 971.94 1087.51 C 1029.45 1071.81 1089.06 1068.78 1147.47 1081.32 C 1166.46 1085.4 1184.58 1090.48 1201.5 1100.34 C 1213.67 1107.42 1227.21 1118.86 1231.01 1132.95 C 1232.85 1139.77 1231.62 1146.59 1227.92 1152.57 C 1226.18 1155.37 1224.23 1157.94 1222.06 1160.41 C 1220.02 1158.12 1220 1156.03 1218.63 1153.54 C 1217.28 1151.08 1216.38 1151.07 1213.86 1150.19 C 1215.98 1146.09 1216.75 1142.98 1215.19 1138.45 C 1209.82 1122.91 1187.51 1109.88 1173.39 1103.51 C 1102.66 1071.6 1017.5 1079.92 946.679 1107.16 C 912.33 1120.37 882.203 1135.39 865.184 1169.51 z"/>
<path transform="translate(0,0)" fill="rgb(184,135,133)" d="M 952.552 742.537 C 979.556 762.191 1007.47 780.463 1032.39 802.784 C 1009.07 799.827 991.177 806.129 971.325 817.813 C 958.729 826.637 949.317 836.193 940.056 848.511 C 937.324 852.143 935.383 853.238 931.136 855.062 C 929.071 847.727 927.504 840.668 926.944 833.051 C 924.79 803.736 933.096 765.216 952.552 742.537 z"/>
<path transform="translate(0,0)" fill="rgb(245,241,227)" d="M 576.192 702.117 L 576.966 703.102 C 576.338 704.22 576.687 703.493 576.126 705.374 L 577.263 705.516 C 572.48 732.35 568.582 756.464 572.312 783.869 C 550.87 793.108 528.805 803.639 506.389 810.177 L 505.503 808.895 C 514.886 784.014 509.665 750.322 507.75 724.213 A 1343.13 1343.13 0 0 0 576.192 702.117 z"/>
<path transform="translate(0,0)" fill="rgb(128,189,153)" d="M 608.773 1120.82 C 631.691 1134.77 666.076 1154.28 691.006 1163.11 C 702.657 1167.24 714.788 1169.55 726.717 1172.7 C 698.261 1176.77 671.573 1182.37 644.253 1191.5 A 892.088 892.088 0 0 0 562.493 1228.77 C 586.503 1198.85 611.903 1160.82 608.773 1120.82 z"/>
<path transform="translate(0,0)" fill="rgb(201,211,196)" d="M 1497 1113.13 C 1521.21 1114.82 1545.26 1118.13 1569.32 1121.3 C 1596.89 1124.93 1625.68 1127.19 1651.62 1137.8 C 1640.26 1141.95 1627.98 1143.15 1615.95 1143.06 C 1577.75 1142.78 1560.66 1131.19 1526.04 1122.01 C 1521.83 1120.9 1517.56 1119.77 1513.67 1122.06 L 1513.8 1124.32 C 1524.47 1139.9 1602.83 1161.66 1625.39 1174.31 C 1628.81 1176.22 1633.21 1178.39 1634.33 1182.29 C 1634.13 1182.47 1633.94 1182.68 1633.71 1182.83 C 1631.07 1184.53 1625.77 1184.1 1622.7 1183.99 C 1591.29 1182.83 1551.67 1166.82 1523.59 1152.66 C 1515.78 1148.72 1497.06 1133.99 1489.67 1133.6 C 1487.46 1133.49 1487.4 1133.65 1485.77 1135.23 C 1485.53 1138.4 1486.25 1139.53 1487.78 1142.18 C 1496.66 1151.99 1505.42 1161.96 1514.43 1171.65 C 1519.74 1177.36 1526.16 1182.89 1530.55 1189.3 C 1532.74 1192.49 1534.31 1195.83 1533.98 1199.79 C 1533.82 1201.71 1533.58 1202.31 1532.55 1203.94 C 1529.97 1204.69 1528.96 1204.57 1526.57 1203.2 C 1512.33 1195.02 1490.13 1160.08 1483.16 1144.96 C 1480.55 1138.81 1485.32 1124.55 1486.89 1118.06 C 1490.17 1116.28 1493.63 1114.76 1497 1113.13 z"/>
<path transform="translate(0,0)" fill="url(#Gradient6)" d="M 1059.63 825.655 C 1064.37 826.927 1068.93 832.299 1072.45 835.601 C 1060.66 844.663 1050.88 853.906 1045.46 868.089 C 1038.54 886.232 1042.37 904.436 1050.17 921.521 C 1067 958.429 1102.31 995.891 1140.77 1010.32 A 216.599 216.599 0 0 0 1160.97 1035.53 C 1165.35 1040.13 1170.56 1044.17 1174.25 1049.34 L 1172.72 1049.46 C 1128.08 1033.03 1085.83 1008.69 1055.63 971.158 C 1035.03 945.55 1021.09 912.446 1024.88 879.064 C 1027.62 854.975 1041.41 840.175 1059.63 825.655 z"/>
<path transform="translate(0,0)" fill="rgb(245,241,227)" d="M 487.655 726.5 C 490.798 726.069 493.631 725.902 496.803 726.046 C 496.975 726.265 497.177 726.465 497.319 726.705 C 500.872 732.707 498.656 779.527 497.646 788.19 C 496.563 797.475 494.585 806.433 492.383 815.497 A 898.751 898.751 0 0 1 442.208 830.184 L 433.55 832.327 C 435.582 819.808 435.981 806.633 436.883 793.962 A 5004.45 5004.45 0 0 0 441.061 728.649 C 456.812 729.096 472.018 728.123 487.655 726.5 z"/>
<path transform="translate(0,0)" fill="rgb(236,201,184)" d="M 591.598 1110.82 C 591.855 1111.1 592.174 1111.34 592.371 1111.67 C 599.963 1124.28 592.541 1149.53 587.453 1162.01 C 561.747 1225.05 488.988 1287.12 426.685 1312.9 C 389.483 1328.29 340.325 1337.94 301.738 1322.01 C 298.625 1320.6 295.703 1318.84 292.743 1317.14 L 293.777 1317.39 C 350.763 1330.62 405.363 1308.51 453.355 1278.74 C 510.904 1243.04 575.929 1178.41 591.598 1110.82 z"/>
<path transform="translate(0,0)" fill="rgb(184,135,133)" d="M 807.283 659.77 C 843.525 676.736 878.085 695.146 911.454 717.268 C 902.703 730.163 896.169 743.676 889.822 757.839 C 879.03 748.39 868.62 741.852 855.243 736.641 L 853.688 736.119 C 815.922 723.537 779.649 721.784 743.621 739.949 C 762.24 711.411 784.822 685.306 807.283 659.77 z"/>
<path transform="translate(0,0)" fill="rgb(245,241,227)" d="M 1082.18 845.613 C 1091.78 849.669 1134.47 896.168 1144.07 906.528 C 1141.25 910.409 1138.65 914.643 1136.55 918.958 C 1123.17 946.489 1127.08 971.296 1136.54 999.146 L 1130 995.522 C 1109.52 981.227 1088.02 963.505 1073.77 942.796 C 1062.2 925.994 1050.1 903.179 1054.5 882.158 C 1057.93 865.757 1068.71 854.438 1082.18 845.613 z"/>
<path transform="translate(0,0)" fill="rgb(83,53,51)" d="M 1121.58 911.59 C 1122.97 912.026 1123.48 912.424 1124.6 913.318 C 1123.68 920.257 1118.29 927.27 1116.22 934.064 C 1114.29 940.381 1115.18 948.002 1114.21 954.566 C 1113.73 957.772 1112.73 958.288 1110.09 959.967 C 1109.17 959.224 1107.96 958.349 1107.23 957.396 C 1103.45 952.52 1103.83 943.648 1104.98 937.947 C 1107.21 926.916 1112.33 918.01 1121.58 911.59 z"/>
<path transform="translate(0,0)" fill="rgb(184,135,133)" d="M 941.913 1249.22 L 943.339 1249.55 C 952.548 1251.65 957.75 1247.74 962.381 1248.75 C 974.53 1251.37 997.373 1278.11 1004.3 1288.85 C 1014.55 1304.76 1023.11 1328.1 1019.05 1347.18 C 1014.85 1366.99 997.564 1380.85 981.204 1390.93 C 914.217 1432.18 794.15 1443.04 717.694 1424.72 C 678.653 1415.37 630.316 1398.51 608.282 1362.64 C 598.144 1346.14 593.159 1327.64 597.833 1308.49 C 602.603 1288.94 616.65 1273.19 633.521 1262.96 C 617.098 1278.36 601.743 1294.56 600.628 1318.44 C 599.836 1335.43 607.899 1350.59 619.224 1362.65 C 659.853 1405.94 745.21 1416.5 802.243 1417.94 C 857.096 1419.32 946.871 1409.62 987.973 1370.89 C 999.146 1360.36 1007.51 1347.31 1007.98 1331.49 C 1008.53 1312.75 998.841 1296.9 986.176 1283.94 C 973.318 1270.79 957.696 1261.41 941.305 1253.32 L 936.989 1249.65 L 941.913 1249.22 z"/>
<path transform="translate(0,0)" fill="rgb(215,173,168)" d="M 335.873 1633.64 C 338.547 1636.8 340.636 1640.57 343.288 1643.79 C 351.531 1653.83 361.234 1661.89 372.127 1668.89 C 464.882 1728.5 630.933 1742.59 736.732 1719.27 C 774.714 1710.9 824.023 1694.04 853.329 1668.53 C 862.403 1660.63 869.247 1651.71 875.709 1641.62 C 875.124 1646.08 874.72 1650.55 874.295 1655.02 C 871.909 1663.95 867.858 1670.73 861.418 1677.31 C 848.309 1690.72 830.43 1699.78 813.51 1707.36 C 754.826 1733.66 693.506 1742.92 629.623 1743.81 C 550.739 1744.92 407.88 1725.99 349.521 1668.21 C 338.866 1657.66 335.84 1648.28 335.873 1633.64 z"/>
<path transform="translate(0,0)" fill="url(#Gradient7)" d="M 1065.55 1052.43 C 1118 1049.44 1197.33 1062.14 1239.79 1095.05 C 1252.01 1104.52 1264.17 1117.99 1265.86 1134.01 C 1267.38 1148.47 1256.09 1164.89 1247.2 1175.55 C 1200.68 1231.39 1089.72 1252.89 1020.81 1258.9 L 1010.23 1245.62 C 1086.9 1240.27 1175.83 1226 1232.08 1168.49 C 1235.61 1163.92 1238.88 1158.96 1240.89 1153.52 C 1244.8 1142.98 1243.67 1132.39 1238.8 1122.37 C 1227.82 1099.76 1200.61 1086.4 1177.89 1078.84 C 1099.02 1052.61 988.065 1063.07 914.323 1100.63 C 885.153 1115.49 855.597 1133.8 845.031 1166.38 L 829.974 1164.61 C 833.496 1152.11 838.559 1141.97 847.331 1132.33 C 856.627 1122.12 868.005 1113.73 879.296 1105.86 C 934.618 1067.28 999.506 1055.31 1065.55 1052.43 z"/>
<path transform="translate(0,0)" fill="rgb(245,241,227)" d="M 752.909 637.037 C 758.643 636.995 763.43 639.822 768.163 642.779 C 756.193 657.236 744.115 671.649 732.69 686.542 C 723.582 698.413 714.686 714.552 703.37 724.011 C 690.46 734.802 615.518 765.336 595.523 774.014 L 583.149 779.205 C 581.173 749.048 583.504 728.1 586.074 698.672 C 620.613 686.692 654.053 672.172 688.199 659.188 C 709.495 651.09 731.28 644.19 752.909 637.037 z"/>
<path transform="translate(0,0)" fill="rgb(245,241,227)" d="M 960.596 433.828 C 961.697 433.709 961.03 433.67 962.52 434.399 C 958.947 441.532 929.094 466.506 921.249 474.051 C 890.526 503.6 862.113 535.351 833.484 566.892 A 1540.13 1540.13 0 0 0 702.746 553.107 C 695.5 553.097 688.266 552.711 681.029 552.383 C 760.051 497.135 871.37 472.484 960.596 433.828 z"/>
<path transform="translate(0,0)" fill="rgb(245,241,227)" d="M 816.501 921.4 C 825.911 920.208 853.146 920.283 861.292 924.847 C 863.295 925.969 863.322 926.373 863.877 928.45 L 862.447 930.899 C 850.585 931.535 838.467 928.098 826.365 928.415 C 803.297 929.02 754.611 944.777 739.245 962.247 C 737.386 964.361 736.219 966.231 736.451 969.056 L 738.57 969.921 C 748.146 968.98 755.899 962.5 763.916 957.665 C 791.823 940.833 827.409 934.47 859.065 942.353 C 851.564 978.225 855.859 1008.52 873.933 1040.66 C 877.639 1047.12 882.047 1053.22 886.234 1059.37 C 877.958 1073.8 868.597 1086.85 858.494 1100.01 C 832.108 1042.72 767.131 1008.39 714.7 978.946 C 716.189 974.442 717.663 970.401 720.638 966.645 C 739.401 942.955 787.143 924.924 816.501 921.4 z"/>
<path transform="translate(0,0)" fill="rgb(83,53,51)" d="M 763.025 964.499 C 764.657 964.627 766.042 964.823 767.563 965.474 C 779.522 970.597 792.472 981.048 802.767 989.192 C 812.269 996.708 862.706 1039.98 864.839 1048.15 C 865.179 1049.45 863.615 1051.02 862.933 1052.08 C 862.745 1052.04 862.559 1051.98 862.371 1051.94 C 855.499 1050.31 849.672 1043.58 844.486 1038.98 C 829.139 1025.38 813.91 1011.55 797.631 999.053 C 785.775 989.952 771.348 981.637 760.795 971.197 C 760.392 967.903 761.333 967.265 763.025 964.499 z"/>
<path transform="translate(0,0)" fill="rgb(201,211,196)" d="M 993.647 886.262 C 995.907 889.535 996.643 908.703 997.722 914.28 C 1008.83 971.711 1049.64 1010.29 1096.48 1041.09 C 1065.47 1040.68 1035.85 1043.5 1005.14 1047.62 C 991.495 1050.07 977.883 1052.52 964.354 1055.54 C 941.363 1036.67 918.466 1014.57 910.879 984.692 C 906.58 967.762 909.946 950.365 919.027 935.62 C 934.751 910.088 965.245 893.238 993.647 886.262 z"/>
<path transform="translate(0,0)" fill="rgb(83,53,51)" d="M 943.544 944.393 C 946.515 945.143 947.979 946.345 949.781 948.734 C 959.555 961.694 997.292 1025.63 995.693 1038.24 C 981.708 1024.36 952.483 973.478 943.96 954.41 C 942.094 950.234 941.938 948.692 943.544 944.393 z"/>
<path transform="translate(0,0)" fill="rgb(184,135,133)" d="M 781.629 767.419 C 785.809 767.203 790.246 767.425 794.422 767.717 C 829.695 770.179 854.388 786.136 876.972 812.37 C 876.644 838.382 879.264 862.389 888.535 886.814 C 884.851 891.352 881.461 896.11 878.027 900.837 C 860.802 885.721 834.915 881.626 812.731 882.43 C 790.915 883.719 770.278 891.067 751.726 902.546 C 744.948 906.74 738.64 911.563 731.583 915.307 L 730.508 915.864 C 721.469 896.242 719.179 872.961 717.502 851.56 C 715.917 831.313 716.921 805.146 731.076 789.146 C 743.698 774.879 763.23 768.815 781.629 767.419 z"/>
<path transform="translate(0,0)" fill="rgb(83,53,51)" d="M 772.156 803.529 C 780.362 804.491 788.435 806.916 796.287 809.417 C 809.554 813.641 831.13 820.337 837.612 833.901 C 839.477 837.802 840.092 840.537 838.531 844.607 C 831.406 843.179 825.547 833.239 818.984 829.651 C 803.989 821.452 785.362 818.837 771.149 810.518 C 770.029 807.719 771.181 806.313 772.156 803.529 z"/>
<path transform="translate(0,0)" fill="rgb(245,241,227)" d="M 876.98 1171.68 C 879.942 1163.85 883.923 1157.71 889.694 1151.7 C 925.768 1114.17 1016.33 1093.74 1067.57 1093.06 C 1105.79 1092.55 1153.43 1098.93 1184.89 1122.42 C 1195.61 1130.42 1204.31 1140.87 1213.86 1150.19 C 1216.38 1151.07 1217.28 1151.08 1218.63 1153.54 C 1220 1156.03 1220.02 1158.12 1222.06 1160.41 A 285.982 285.982 0 0 1 1218.97 1163.58 C 1167.4 1215.62 1072.72 1234.33 1001.52 1234.82 C 964.723 1204.32 923.504 1182.88 876.98 1171.68 z"/>
<path transform="translate(0,0)" fill="rgb(83,53,51)" d="M 1018.36 1115.29 C 1034.24 1114.4 1049.31 1115.68 1064.7 1119.86 C 1074.97 1122.66 1098.99 1129.77 1104.35 1140.11 C 1105.3 1141.93 1105.86 1142.66 1105.19 1144.62 C 1103.08 1145.5 1101.89 1145.52 1099.64 1145.68 C 1081.98 1136.89 1064.95 1129.31 1045.55 1125.08 C 1036.85 1123.18 1017.06 1123.12 1010.51 1119.88 L 1010.18 1118.57 C 1012.57 1116.49 1015.38 1116.04 1018.36 1115.29 z"/>
<path transform="translate(0,0)" fill="rgb(83,53,51)" d="M 941.102 1138.81 C 942.348 1138.78 943.579 1138.78 944.824 1138.9 C 954.537 1139.78 1074.64 1186.66 1078.35 1191.69 C 1079.28 1192.95 1078.38 1194.82 1078.1 1196.25 C 1077.59 1196.35 1077.09 1196.47 1076.59 1196.56 C 1074.34 1196.96 1072.22 1196.76 1070.02 1196.19 C 1055.07 1192.26 950.368 1153.37 944.152 1147.55 C 941.713 1145.27 941.542 1141.95 941.102 1138.81 z"/>
<path transform="translate(0,0)" fill="rgb(254,254,253)" d="M 525.61 939.317 C 560.705 934.707 632.18 956.555 665.233 970.374 C 725.105 995.407 823.357 1045.33 848.985 1107.89 C 843.081 1120.47 833.025 1133.32 824.536 1144.39 C 822.586 1146.93 822.347 1146.6 819.206 1147.04 C 749.043 1144.44 670.444 1112.65 611.677 1075.33 C 600.943 1068.51 589.628 1061.55 579.877 1053.37 C 569.342 1044.54 559.819 1034.55 549.17 1025.83 C 531.321 1011.2 498.26 994.438 493.426 969.449 C 492.274 963.497 493.602 957.072 497.25 952.199 C 503.831 943.408 515.353 940.824 525.61 939.317 z"/>
<path transform="translate(0,0)" fill="rgb(83,53,51)" d="M 537.597 948.393 C 597.774 944.316 683.769 985.166 735.123 1014.5 C 765.468 1031.84 825.22 1069.88 833.857 1104.76 C 835.114 1109.84 834.799 1115.11 831.863 1119.57 C 826.336 1127.96 816.899 1131.07 807.589 1132.91 C 731.606 1136.19 630.019 1079.87 570.952 1034.85 C 554.022 1021.95 512.068 988.065 510.095 967.561 C 509.719 963.654 510.857 959.98 513.478 957.056 C 519.399 950.452 529.254 949.145 537.597 948.393 z"/>
<path transform="translate(0,0)" fill="rgb(236,201,184)" d="M 544.474 956.414 C 556.657 956.17 584.263 957.664 594.081 964.558 C 590.09 965.517 583.614 963.12 579.25 962.656 C 572.11 961.897 564.922 961.913 557.749 961.857 C 551.761 962.176 544.59 962.067 538.971 964.11 C 531.323 966.89 528.383 972.634 525.141 979.521 C 523.468 976.729 521.212 973.416 520.425 970.262 C 519.729 967.478 520.249 964.422 522.135 962.216 C 526.92 956.618 537.709 956.817 544.474 956.414 z"/>
<path transform="translate(0,0)" fill="rgb(245,241,227)" d="M 548.881 970.143 C 570.69 968.63 593.523 970.028 614.762 975.357 C 674.637 990.379 746.541 1028.18 791.832 1070.27 C 800.412 1078.24 809.842 1086.95 815.698 1097.21 C 818.266 1101.72 820.2 1107.37 818.427 1112.51 C 816.624 1117.74 811.578 1119.47 806.954 1121.48 C 768.213 1128.45 702.695 1098.69 667.446 1081.28 C 639.632 1067.54 544.614 1011.28 536.566 984.08 C 535.698 981.146 535.78 978.015 537.704 975.479 C 540.408 971.913 544.771 971.061 548.881 970.143 z"/>
<path transform="translate(0,0)" fill="rgb(83,53,51)" d="M 627.635 1001.07 C 640.686 998.793 659.165 1007.06 670.8 1012.29 C 702.508 1026.52 731.281 1044.77 755.661 1069.77 C 762.59 1076.87 770.211 1084.83 773.8 1094.24 C 772.216 1094.21 770.679 1093.98 769.108 1093.79 C 761.719 1088.39 755.089 1081.44 748.323 1075.26 C 735.768 1063.78 721.979 1052.14 707.463 1043.25 C 694.217 1035.14 679.985 1027.71 665.797 1021.38 C 655.447 1016.76 644.236 1012.84 634.407 1007.22 C 631.341 1005.47 629.603 1004 627.635 1001.07 z"/>
<path transform="translate(0,0)" fill="rgb(184,135,133)" d="M 751.701 1236.43 C 762.509 1235.53 773.651 1235.88 784.498 1235.85 C 846.534 1235.62 917.756 1244.89 968.134 1284.81 C 981.37 1295.3 993.562 1309.57 995.178 1327.08 C 996.29 1339.14 991.876 1350.01 984.263 1359.19 C 956.151 1393.1 894.144 1402.7 852.243 1406.67 C 788.623 1412.82 683.985 1405.58 633.324 1363.44 C 621.321 1353.45 611.849 1340.09 610.666 1324.07 C 609.616 1309.85 615.564 1296.28 624.718 1285.69 C 653.288 1252.6 710.02 1239.39 751.701 1236.43 z"/>
<path transform="translate(0,0)" fill="rgb(83,53,51)" d="M 776.64 1248.43 C 833.448 1245 919.987 1259.56 965.497 1294.24 C 975.916 1302.18 986.319 1313.26 987.816 1326.84 C 988.882 1336.51 985.161 1345.39 978.936 1352.64 C 949.605 1386.8 880.024 1393.37 837.585 1395.82 C 781.599 1396.74 682.324 1391.96 638.864 1354.16 C 630.347 1346.75 623.743 1336.79 623.183 1325.24 C 622.609 1313.42 628.626 1303.03 636.308 1294.54 C 669.459 1257.9 729.725 1251 776.64 1248.43 z"/>
<path transform="translate(0,0)" fill="rgb(184,135,133)" d="M 797.092 1258.47 C 850.904 1259.39 921.508 1270.13 964 1305.15 C 971.893 1311.65 979.105 1320.26 979.79 1330.9 C 980.338 1339.42 976.523 1347.11 970.695 1353.13 C 939.071 1385.79 859.451 1387.98 815.738 1388 C 769.487 1388.47 678.655 1379.77 644.011 1349.03 C 637.548 1343.3 632.536 1335.9 632.406 1327 C 632.25 1316.3 638.918 1306.28 646.084 1298.84 C 681.253 1262.29 749.287 1259.59 797.092 1258.47 z"/>
<path transform="translate(0,0)" fill="rgb(83,53,51)" d="M 846.589 1295.42 C 856.563 1294.49 868.72 1294.11 878.607 1295.67 C 880.948 1296.04 882.838 1296.16 884.319 1298.13 C 879.815 1305.63 861.984 1304.37 854.004 1304.95 C 808.992 1308.23 766.826 1315 724.439 1330.95 C 717.09 1333.85 708.34 1339.32 700.505 1340.16 C 698.502 1340.37 698.221 1340.46 696.666 1339.11 C 696.752 1337.05 697.061 1336.28 698.366 1334.6 C 702.548 1329.22 712.096 1326.1 718.284 1323.49 C 759.375 1306.14 802.267 1298.17 846.589 1295.42 z"/>
<path transform="translate(0,0)" fill="rgb(254,254,253)" d="M 467.391 1009.44 C 491.55 1008.86 510.79 1013.08 531.287 1026.46 C 551.905 1039.92 578.314 1065.71 582.945 1090.98 C 587.592 1116.34 572.111 1144.86 558.476 1165.01 C 512.163 1233.43 436.024 1294.95 353.5 1310.85 A 243.054 243.054 0 0 1 339.92 1312.41 C 312.783 1314.61 284.551 1309.98 263.345 1291.7 C 246.555 1277.22 239.571 1256.01 238.25 1234.43 C 235.028 1181.8 262.052 1134.57 295.897 1096.49 C 338.453 1048.6 403.121 1013.16 467.391 1009.44 z"/>
<path transform="translate(0,0)" fill="rgb(83,53,51)" d="M 451.457 1023.39 C 473.44 1019.84 501.676 1023.92 520.866 1035.43 C 539.694 1046.72 556.974 1069.86 562.288 1091.16 C 567.993 1114.03 561.471 1135.62 549.57 1155.26 C 512.917 1215.73 427.713 1278.17 359.227 1295.08 A 164.256 164.256 0 0 1 348.534 1296.71 C 323.327 1299.78 297.035 1299 276.305 1282.43 C 260.721 1269.98 251.515 1250.58 249.47 1230.95 C 245.259 1190.51 271.138 1144.51 295.636 1114.25 C 335.272 1065.29 387.763 1030.01 451.457 1023.39 z"/>
<path transform="translate(0,0)" fill="rgb(236,201,184)" d="M 463.875 1032.43 C 473.7 1031.86 482.168 1032.97 491.742 1035.18 C 484.135 1035.79 476.503 1036.92 468.97 1038.15 A 250.22 250.22 0 0 0 303.853 1140.39 C 285.448 1166.34 271.388 1198.85 277.219 1231.22 C 281.726 1256.25 296.053 1272.85 316.418 1286.93 C 317.442 1287.76 318.384 1288.72 319.345 1289.63 L 318.013 1290.45 C 305.776 1288.77 291.404 1282.07 282.111 1274.02 C 268.21 1261.99 260.4 1243.48 259.084 1225.34 C 256.244 1186.2 282.441 1143.1 307.066 1114.77 C 348.898 1066.64 399.86 1036.95 463.875 1032.43 z"/>
<path transform="translate(0,0)" fill="rgb(245,241,227)" d="M 486.363 1043.38 C 498.406 1042.37 508.649 1044.83 518.78 1051.47 C 534.446 1061.74 548.761 1078.99 552.618 1097.63 C 557.234 1119.93 548.574 1140.14 536.327 1158.41 C 499.482 1213.37 421.223 1272.74 356.236 1285.76 A 90.0892 90.0892 0 0 1 354.046 1286.13 C 340.492 1288.19 329.107 1286.13 317.976 1277.78 C 301.74 1265.6 292.391 1246.57 289.864 1226.69 C 285.647 1193.51 303.245 1160.18 323.09 1134.98 C 362.194 1085.33 423.454 1050.95 486.363 1043.38 z"/>
<path transform="translate(0,0)" fill="rgb(83,53,51)" d="M 433.253 1165.66 C 434.327 1165.88 435.35 1166.47 436.347 1166.92 L 436.829 1168.54 C 433.021 1175.22 414.389 1187.78 407.644 1193.92 C 394.777 1205.63 385.615 1221.65 372.287 1232.5 L 369.232 1230.33 C 368.781 1228.66 368.383 1227.97 368.759 1226.22 C 372.318 1209.72 418.918 1174.02 433.253 1165.66 z"/>
<path transform="translate(0,0)" fill="rgb(83,53,51)" d="M 478.269 1090.19 C 479.321 1090.51 480.562 1091.34 481.543 1091.87 L 481.806 1093.71 C 473.86 1100.02 449.618 1110.31 438.129 1117.42 C 414.51 1132.05 389.815 1151.24 370.607 1171.31 C 361.856 1180.45 354.413 1190.73 345.812 1200 C 345.189 1199.74 344.473 1199.48 343.933 1199.07 C 342.849 1198.25 341.775 1197.3 341.637 1195.89 C 341.31 1192.56 343.537 1189.35 345.287 1186.69 C 368.814 1151.01 437.601 1098.62 478.269 1090.19 z"/>
<path transform="translate(0,0)" fill="rgb(245,241,227)" d="M 667.539 559.918 C 713.388 561.062 762.098 566.74 807.513 573.471 C 887.989 585.399 974.896 630.614 1041.24 676.443 C 1108.11 722.642 1170.92 784.327 1228.99 841.151 C 1253.19 864.831 1278.45 887.535 1302.2 911.656 A 1908.8 1908.8 0 0 1 1381.43 998.031 C 1413.43 1034.56 1444.47 1071.34 1473.4 1110.38 C 1468.1 1142.11 1444.39 1173.91 1420.5 1194.51 C 1397.24 1149.35 1340.93 1091.42 1306.21 1051.28 A 3433.49 3433.49 0 0 0 1185.5 920.574 C 1151.21 885.067 1116.64 849.545 1079.82 816.616 A 1095.63 1095.63 0 0 0 855.947 662.227 C 823.593 645.591 792.05 629.706 757.254 618.72 C 691.812 633.688 630.492 663.54 567.87 687.221 C 527.829 702.364 496.508 713.712 453.327 717.715 C 471.621 700.709 499.153 685.101 519.943 669.514 C 568.915 632.798 615.606 592.449 667.539 559.918 z"/>
<path transform="translate(0,0)" fill="rgb(236,201,184)" d="M 576.532 1490.42 C 576.811 1490.39 577.09 1490.36 577.37 1490.34 C 654.162 1485.73 792.993 1507.86 851.884 1560.53 C 865.093 1572.34 874.107 1587.42 874.729 1605.48 C 875.356 1623.7 867.156 1640.91 854.812 1653.92 C 806.494 1704.83 702.881 1717.76 636.031 1719.93 C 555.878 1721.1 425.538 1703.31 362.695 1649.52 C 349.579 1638.29 335.842 1621.12 334.914 1603.26 C 334.063 1586.88 342.819 1570.72 353.449 1558.84 C 400.684 1506.03 509.472 1494.51 576.532 1490.42 z"/>
<path transform="translate(0,0)" fill="rgb(83,53,51)" d="M 575.716 1499.44 L 577.32 1499.35 C 594.745 1498.46 612.398 1499.24 629.803 1500.22 C 681.821 1503.15 729.999 1512.34 778.432 1532.12 C 797.987 1540.11 818.169 1549.77 833.824 1564.21 C 846.607 1575.99 857.097 1591.48 857.428 1609.45 C 857.712 1624.95 849.698 1639.04 839.166 1649.87 C 794.791 1695.49 697.145 1709.13 635.75 1710.25 C 563.783 1712.59 429.613 1691.42 373.847 1642.19 C 362.27 1631.96 353.13 1618.02 352.585 1602.16 C 352.102 1588.13 358.387 1576 367.657 1565.93 C 401.88 1528.75 470.871 1510.28 520.1 1503.6 C 538.565 1501.09 557.116 1500.29 575.716 1499.44 z"/>
<path transform="translate(0,0)" fill="rgb(236,201,184)" d="M 583.13 1508.44 A 461.228 461.228 0 0 1 757.67 1533.91 C 781.822 1542.3 806.418 1552.63 825.453 1570.17 C 835.927 1579.82 846.851 1594.33 847.026 1609.19 C 847.192 1623.31 838.842 1636.54 829.278 1646.35 C 786.869 1689.85 687.65 1700.83 628.737 1701.22 C 558.08 1701.13 437.386 1683.92 382.647 1636.66 C 372.709 1628.09 363.587 1616.67 362.863 1603.04 C 362.215 1590.82 368.349 1580.3 376.397 1571.63 C 422.47 1522 518.755 1511.04 583.13 1508.44 z"/>
<path transform="translate(0,0)" fill="rgb(83,53,51)" d="M 596.662 1543.44 C 641.009 1541.99 719.819 1551.3 753.658 1580.1 C 760.081 1585.56 766.104 1593.06 766.599 1601.83 C 767.003 1608.99 763.823 1615.13 758.901 1620.14 C 730.178 1649.37 661.979 1655.33 622.018 1655.06 C 572.767 1654.92 496.98 1641.06 459.643 1608.94 C 454.393 1604.42 449.508 1598.73 449.224 1591.47 C 449.012 1586.06 451.546 1581.29 455.172 1577.42 C 480.128 1550.83 560.323 1545.08 596.662 1543.44 z"/>
<path transform="translate(0,0)" fill="rgb(236,201,184)" d="M 582.772 1554.43 C 627.165 1552.1 713.398 1558.92 747.36 1587.67 C 751.876 1591.49 756.288 1597.09 756.646 1603.24 C 756.908 1607.73 754.492 1611.63 751.435 1614.71 C 727.878 1638.45 665.554 1645.43 633.364 1646.2 C 585.96 1646.48 501.651 1633.77 465.941 1602.61 C 462.751 1599.83 459.276 1595.8 459.335 1591.31 C 459.373 1588.41 460.843 1585.9 462.745 1583.82 C 480.85 1564.01 554.253 1555.97 582.772 1554.43 z"/>
<path transform="translate(0,0)" fill="rgb(245,241,227)" d="M 685.418 751.063 L 686.381 751.436 C 683.41 758.105 678.966 764.301 675.411 770.698 C 669.484 781.359 664.675 793.128 660.657 804.608 C 653.55 824.91 651.162 845.68 645.614 866.291 C 638.53 892.614 626.555 917.012 614.693 941.431 C 583.975 932.787 546.697 922.44 514.951 929.469 C 500.074 932.762 485.482 941.938 477.472 955.088 C 469.13 968.784 470.423 982.145 473.811 996.969 C 408.342 1001.27 351.931 1030.31 303.992 1074.05 C 264.059 1110.49 228.931 1165.75 226.836 1221.02 C 225.698 1251.05 233.26 1278.74 254.045 1301.02 C 279.594 1328.42 317.359 1341.88 354.195 1342.93 C 414.941 1344.68 478.231 1313.85 521.872 1272.83 A 214.669 214.669 0 0 0 592.464 1289.22 C 583.096 1306.18 579.981 1323.58 584.379 1342.64 C 590.714 1370.1 613.277 1392.98 636.501 1407.44 C 709.826 1453.1 826.187 1454.77 909.065 1435.79 C 949.86 1426.45 1004.95 1405.96 1028.04 1368.49 C 1043.97 1342.64 1040.12 1313.57 1033.46 1285.52 C 1044.07 1284.42 1054.8 1282.87 1065.31 1281 C 1123.44 1270.64 1233.11 1237.16 1267.36 1188.04 C 1304.94 1183.98 1338.96 1174.37 1373.66 1159.37 C 1386.47 1173.85 1398.95 1189.4 1405.33 1207.9 C 1388.68 1219.59 1367.63 1224.15 1348.38 1230 C 1323.78 1236.88 1299.39 1243.89 1275.74 1253.64 C 1212.68 1279.63 1149.31 1321.96 1093.96 1361.7 C 1030.33 1407.37 957.783 1462.99 883.344 1488.79 C 864.251 1495.41 843.899 1502.31 823.751 1504.35 C 787.287 1508.03 727.855 1490.37 690.069 1484.58 C 660.136 1479.99 628.263 1478.16 598.022 1477.14 C 584.734 1476.7 569.902 1478.93 556.897 1476.29 C 535.248 1471.89 513.085 1460.83 492.525 1452.53 C 472.643 1444.51 452.516 1437.14 432.612 1429.17 C 407.98 1419.31 383.565 1408.86 358.801 1399.34 C 303.728 1378.16 248.311 1357.98 194.758 1333.07 C 146.445 1310.59 100.986 1282 53.0594 1258.69 C 61.3313 1236.92 74.129 1216.15 85.3728 1195.78 C 122.655 1128.23 170.61 1062.89 225.829 1008.83 C 266.159 969.34 311.049 933.949 356.582 900.712 C 372.19 889.319 406.351 862.27 422.669 854.573 C 431.935 850.203 444.985 849.725 455.104 847.345 C 468.655 844.158 482.294 840.03 495.442 835.461 A 1401.63 1401.63 0 0 0 685.418 751.063 z"/>
<path transform="translate(0,0)" fill="rgb(245,241,227)" d="M 1338.89 112.576 C 1374.9 109.357 1414.3 114.007 1449.62 121.091 C 1539.65 139.149 1616.83 182.989 1691.43 235.078 C 1739.65 268.746 1786.92 303.195 1840.39 328.31 C 1871.02 342.7 1903.82 355.312 1936.7 363.501 C 1950.56 366.953 1989.75 372.764 1999.5 381.238 C 2001.72 383.169 2002.86 385.668 2002.96 388.601 C 2003.76 412.872 1930.12 475.251 1911.6 496.262 C 1912.54 476.656 1917.31 457.223 1919.9 437.844 C 1920.5 433.317 1921.1 429.23 1918.27 425.42 C 1914.76 425.175 1912.8 427.285 1910.81 429.917 C 1907.14 434.748 1905.83 443.614 1904.25 449.441 C 1898.95 469.013 1894.32 488.258 1891.41 508.353 C 1888.43 528.882 1886.99 549.532 1882.68 569.868 A 619.765 619.765 0 0 1 1858.98 653.889 A 779.745 779.745 0 0 1 1638.47 975.718 C 1603.89 1005.94 1566.23 1032.36 1530.51 1061.15 C 1523.04 1043.76 1514.43 1026.79 1506.23 1009.73 C 1525.27 995.256 1590.23 942.995 1600.47 924.934 C 1602.15 921.987 1603.5 919.294 1602.61 915.875 C 1602.27 915.82 1601.94 915.719 1601.59 915.709 C 1598.03 915.605 1594.38 918.582 1591.84 920.77 C 1583.27 928.127 1576.36 937.633 1567.94 945.308 C 1546.82 964.537 1524.22 982.475 1502.38 1000.9 C 1495.08 986.843 1472.34 942.178 1463.32 932.437 C 1461.54 930.516 1460.63 929.767 1458.02 929.78 L 1456.35 932.253 C 1455.8 935.723 1455.97 937.892 1457.62 941.061 C 1469.97 964.806 1484.01 987.681 1496.19 1011.63 C 1503.97 1026.92 1515.41 1055.61 1524.25 1068.22 C 1516.4 1075.92 1497.21 1100.59 1486.2 1099.92 C 1475.53 1099.27 1460.47 1075.81 1453.92 1067.68 C 1450.48 1063.6 1435.87 1048.44 1434.63 1045.75 C 1432.93 1042.05 1437.2 1037.81 1436.99 1033.78 C 1436.34 1021.53 1434.45 1009.01 1433.29 996.762 A 1052 1052 0 0 0 1424.66 924.792 C 1421.7 906.563 1417.15 888.249 1415.55 869.858 C 1415.11 864.842 1413.69 857.291 1417.03 853.322 C 1432.94 850.225 1438.3 876.369 1448.62 878.236 C 1451.23 877.087 1451.23 877.335 1452.27 874.708 C 1451.61 868.21 1445.14 861.595 1440.67 857.099 C 1434.22 850.623 1424.07 842.312 1414.48 842.795 C 1412.46 842.896 1410.52 843.713 1409.22 845.262 C 1406.62 848.373 1406 853.908 1406 857.819 C 1405.98 884.259 1412.52 911.908 1416.49 938.033 A 1135.42 1135.42 0 0 1 1426.98 1036.04 C 1405.82 1013.6 1387.65 988.187 1366.69 965.41 C 1333.92 929.803 1298.59 897.112 1264.65 862.733 C 1185.25 782.309 1099.8 697.591 1002.26 639.561 C 952.59 610.015 900.101 587.549 845.233 569.754 C 854.836 556.291 866.769 543.696 878.034 531.617 C 904.543 503.193 932.592 476.761 960.81 450.083 C 971.006 440.443 980.324 428.88 991.151 420.084 C 998.254 414.314 1006.54 409.639 1014.08 404.433 C 1030.77 392.914 1047.75 378.819 1061.15 363.636 C 1068.01 355.866 1089.3 325.377 1087.8 315.996 C 1087.6 314.695 1085.95 314.256 1084.91 313.641 C 1083.87 313.612 1082.8 313.276 1081.8 313.552 C 1081.61 313.602 1060.76 346.244 1057.35 350.292 C 1034.79 377.06 1003.32 391.966 972.562 406.956 C 959.07 413.531 945.725 420.335 931.531 425.298 C 947.74 389.632 976.923 356.397 1002.62 327.189 C 1052.73 270.223 1153.09 173.343 1220.39 141.571 C 1256.63 124.458 1298.98 115.143 1338.89 112.576 z"/>
<path transform="translate(0,0)" fill="rgb(83,53,51)" d="M 1858.87 457.334 C 1860.86 457.727 1862.56 458.293 1864.48 458.939 C 1866.48 461.427 1866.71 462.665 1866.38 465.842 C 1864.34 485.71 1851.43 520.279 1844.09 539.771 A 1112.74 1112.74 0 0 1 1656.67 860.62 C 1645.52 874.128 1632.43 892.845 1618.87 903.386 C 1618.44 903.419 1618.02 903.493 1617.6 903.485 C 1614.99 903.431 1614.27 903.363 1612.43 901.687 C 1612.41 898.808 1612.7 897.685 1614.39 895.327 C 1622.97 883.329 1633.86 872.186 1643.32 860.82 A 1397.36 1397.36 0 0 0 1693.05 798.04 C 1708.78 777.161 1724.08 755.969 1737.59 733.562 C 1748.76 715.047 1758.65 695.613 1768.94 676.599 C 1795.4 627.733 1818.9 578.776 1838.06 526.555 C 1846.28 504.157 1850.4 480.427 1858.44 458.465 L 1858.87 457.334 z"/>
<path transform="translate(0,0)" fill="rgb(83,53,51)" d="M 1499.87 330.921 C 1502.59 331.953 1504.1 332.889 1505.77 335.306 C 1514.83 348.422 1519.93 366.287 1525.41 381.27 C 1562.88 483.757 1592.59 614.685 1597.04 723.557 C 1597.64 738.273 1599.66 755.956 1596.74 770.451 C 1595.71 775.588 1593.87 780.596 1589.12 783.344 C 1586.91 784.621 1584.08 784.868 1581.66 784.21 C 1557.83 777.726 1471.21 644.944 1456.82 620.52 C 1456.04 619.204 1455.25 617.877 1454.6 616.493 C 1453.05 613.222 1453.21 610.109 1454.44 606.763 C 1460.45 605.004 1464.21 613.261 1466.73 617.609 C 1474.39 630.887 1481.88 644.179 1490.35 656.986 C 1502.75 675.74 1568.01 768.181 1583.42 773.375 L 1585.25 772.212 C 1589.67 762.703 1587.62 741.604 1587.14 730.656 C 1583.01 635.753 1563.32 534.794 1535.39 444.107 A 1571.24 1571.24 0 0 0 1509.12 366.667 C 1505.71 357.305 1499.3 346.946 1497.64 337.271 C 1497.1 334.185 1498.02 333.276 1499.87 330.921 z"/>
<path transform="translate(0,0)" fill="rgb(83,53,51)" d="M 1362.8 175.055 C 1365.16 175.08 1367.71 175.249 1369.85 176.363 C 1372.19 177.58 1372.36 178.765 1373.05 181.069 C 1372.17 188.458 1348.04 206.678 1341.18 212.449 C 1304.47 243.318 1261.3 279.926 1228.84 314.755 C 1215.62 328.932 1203.87 344.355 1191.62 359.355 L 1134.71 429.333 C 1116.79 451.624 1094.53 475.335 1079.46 499.336 C 1098.42 494.398 1116.04 483.622 1134.08 476.034 C 1170.01 460.921 1205.78 447.62 1242.99 436.073 C 1248.23 434.448 1256.33 429.886 1261.69 430.437 C 1264.4 430.716 1264.98 431.948 1266.52 433.916 L 1266.22 436.287 C 1264.65 437.986 1263.26 439.085 1261.15 440.084 C 1245.82 447.37 1226.74 450.771 1210.45 455.867 C 1198.28 459.672 1186.39 465.367 1174.65 470.348 A 4077.9 4077.9 0 0 0 1119.63 494.218 C 1109.6 498.619 1098.42 504.868 1087.74 507.165 C 1084.4 507.884 1079.69 508.171 1076.57 506.452 C 1074.32 505.21 1073.17 503.177 1072.74 500.71 C 1071.23 491.836 1080.05 481.841 1085.11 475.414 C 1118.44 435.189 1149.88 393.547 1183.19 353.324 C 1194.52 339.641 1205.66 325.615 1217.75 312.592 C 1259.93 267.178 1309.11 228.08 1356.07 187.811 C 1300.69 210.903 1248.73 254.302 1203.04 292.666 C 1196.37 298.263 1178.25 317.789 1170.27 317.425 C 1168.62 314.94 1168.66 315.032 1169.06 312.068 C 1179.46 297.899 1196.95 285.591 1210.58 274.418 C 1249.27 242.689 1314.48 189.476 1362.8 175.055 z"/>
</svg>