<svg version="1.1" xmlns="http://www.w3.org/2000/svg" style="display: block;" viewBox="0 0 2048 2048" width="1024" height="1024">
<defs>
	<linearGradient id="Gradient1" gradientUnits="userSpaceOnUse" x1="1352.48" y1="1376" x2="1337.66" y2="1351.8">
		<stop class="stop0" offset="0" stop-opacity="1" stop-color="rgb(186,180,180)"/>
		<stop class="stop1" offset="1" stop-opacity="1" stop-color="rgb(212,211,204)"/>
	</linearGradient>
	<linearGradient id="Gradient2" gradientUnits="userSpaceOnUse" x1="1194.29" y1="599.456" x2="1260.16" y2="498.898">
		<stop class="stop0" offset="0" stop-opacity="1" stop-color="rgb(54,52,54)"/>
		<stop class="stop1" offset="1" stop-opacity="1" stop-color="rgb(82,70,71)"/>
	</linearGradient>
</defs>
<path transform="translate(0,0)" fill="rgb(245,244,241)" d="M 0 0 L 2048 0 L 2048 2048 L 0 2048 L 0 0 z"/>
<path transform="translate(0,0)" fill="rgb(70,64,64)" d="M 1603.23 1176.43 C 1634.29 1175.23 1668.17 1180.18 1697.56 1189.76 C 1707.67 1193.06 1717.94 1199.74 1728.18 1201.85 C 1737.95 1203.86 1748.41 1204.02 1758.34 1205.47 C 1792.69 1210.5 1820.83 1219.67 1851.17 1236.72 C 1889.35 1258.17 1925.27 1292.04 1937.18 1335.51 C 1944.13 1360.86 1939.34 1380.03 1933.76 1404.86 C 1931.02 1417.06 1928.96 1428.49 1922.68 1439.51 C 1903.55 1473.08 1868.24 1493.83 1831.76 1503.63 C 1766.92 1521.06 1681.62 1506.97 1624.15 1474.11 C 1623.49 1480.43 1623.31 1487.1 1621.82 1493.29 C 1615.26 1520.41 1591.66 1537.17 1569.07 1550.72 C 1531.5 1571.83 1490.63 1582.06 1447.82 1584.54 C 1388.6 1587.98 1317.44 1573.54 1272.3 1532.94 C 1242.21 1505.88 1228.95 1470.92 1226.89 1431.12 C 1225.12 1396.88 1234.68 1367.73 1258.04 1342.24 C 1297.64 1299.03 1356.92 1280.81 1413.96 1278.59 C 1417.86 1265.38 1424.12 1254.3 1433.3 1244.01 C 1475.81 1196.41 1541.95 1179.66 1603.23 1176.43 z"/>
<path transform="translate(0,0)" fill="rgb(188,186,177)" d="M 1802.16 1272.19 C 1817.59 1278.02 1835.16 1289.81 1847.58 1300.5 C 1866.04 1316.37 1880.84 1338.47 1882.63 1363.19 C 1879.89 1360.76 1878.84 1355.49 1877.51 1352.05 C 1866.03 1322.42 1836.89 1300.76 1808.71 1288.38 L 1802.16 1272.19 z"/>
<path transform="translate(0,0)" fill="url(#Gradient1)" d="M 1404.63 1335.42 C 1406.72 1335.28 1407.94 1335.33 1409.9 1336.08 C 1411.48 1338.32 1411.07 1340.41 1410.92 1342.99 C 1408.99 1345.35 1403.66 1344.69 1400.5 1344.89 C 1385.97 1345.83 1372.03 1348.24 1358.13 1352.64 C 1327.39 1362.35 1302.78 1380.3 1287.88 1409.23 C 1287.38 1410.44 1286.56 1411.46 1285.83 1412.53 C 1285.69 1412.07 1285.47 1411.63 1285.41 1411.16 C 1284.28 1401.48 1293.26 1387.25 1299.23 1379.88 C 1323.67 1349.67 1367.95 1339.52 1404.63 1335.42 z"/>
<path transform="translate(0,0)" fill="rgb(245,244,241)" d="M 1810.45 1298.21 C 1816.19 1299.93 1822.05 1303.59 1827.05 1306.88 C 1854.63 1324.98 1869.57 1349.88 1876.2 1381.64 C 1866.55 1396.96 1851.02 1404.51 1834.58 1410.49 C 1815.8 1415.96 1798.3 1417.54 1778.86 1416.96 A 690.953 690.953 0 0 0 1790.77 1399.25 C 1809.69 1369.6 1818.02 1332.89 1810.45 1298.21 z"/>
<path transform="translate(0,0)" fill="rgb(245,244,241)" d="M 1912.53 1414.05 C 1912.52 1415.25 1912.39 1416.29 1912 1417.43 C 1902.56 1445.32 1882 1463.07 1855.97 1475.73 C 1800.24 1502.82 1723.25 1497.27 1666.24 1477.6 L 1657.21 1474.08 C 1678.09 1471.3 1700.25 1466.18 1719.74 1458.03 L 1721.55 1457.26 L 1722.32 1457.96 L 1724.09 1456.23 L 1724.58 1456.3 C 1739.07 1463.3 1755.54 1464.44 1771.43 1464.53 C 1823.78 1464.83 1874.61 1451.79 1912.53 1414.05 z"/>
<path transform="translate(0,0)" fill="rgb(245,244,241)" d="M 1794.68 1351.79 C 1794.83 1353.93 1794.24 1355.77 1793.66 1357.79 A 131.914 131.914 0 0 1 1731.13 1436.06 C 1678.52 1464.78 1589.14 1464.23 1532.4 1447.02 C 1492.89 1435.03 1454.88 1409.48 1435.12 1372.46 C 1431.03 1365.15 1428.28 1357.47 1425.81 1349.49 C 1437.76 1364.76 1450.02 1376.52 1466 1387.59 C 1521.39 1425.95 1603.7 1437.7 1669.51 1425.28 C 1706.58 1418.28 1748.82 1402.06 1776.17 1375.19 C 1783.39 1368.1 1789.01 1360.12 1794.68 1351.79 z"/>
<path transform="translate(0,0)" fill="rgb(245,244,241)" d="M 1244.75 1457.74 C 1250.19 1462.81 1256.87 1474.02 1263.07 1480.51 C 1299.88 1519.04 1369.23 1534.42 1421 1535.29 C 1474.26 1536.18 1533 1527.5 1578.21 1497.63 C 1587.36 1491.59 1594.12 1483.93 1602.49 1477.2 C 1605.14 1475.07 1609.02 1475.2 1612.14 1475.87 L 1612.95 1477.28 C 1611.67 1485.4 1607.73 1493.61 1604.01 1500.89 C 1582.81 1531.8 1543.75 1548.35 1509.01 1559.27 C 1450.15 1577.77 1373.36 1573.67 1318.57 1544.71 C 1281.69 1525.22 1257.03 1497.69 1244.75 1457.74 z"/>
<path transform="translate(0,0)" fill="rgb(245,244,241)" d="M 1760.59 1224.03 C 1803.05 1226.09 1857.57 1255.9 1886.8 1285.61 C 1907.38 1306.52 1922.77 1333.58 1922.39 1363.57 C 1922.13 1384.65 1913.54 1400.51 1898.59 1414.93 C 1864.03 1448.26 1813.44 1457.03 1767.15 1456.42 C 1755.7 1455.91 1744.99 1454.61 1733.89 1451.74 C 1747.31 1442.19 1760.38 1435.18 1772.19 1423.35 C 1799.85 1425.94 1827.36 1423.81 1852.98 1412.11 C 1868.14 1405.19 1883.26 1392.45 1888.95 1376.36 C 1893.93 1362.3 1889.35 1345.91 1882.98 1332.98 C 1866.89 1300.25 1830.34 1272.6 1796.28 1261.17 C 1785.25 1246.61 1775.67 1234.7 1760.59 1224.03 z"/>
<path transform="translate(0,0)" fill="rgb(245,244,241)" d="M 1403.72 1295.42 C 1405.1 1295.14 1406.52 1295.33 1407.92 1295.38 C 1411.97 1300.16 1409.76 1319.64 1409.7 1326.67 C 1376.31 1330.1 1338.84 1337.48 1311.29 1357.42 C 1294.5 1369.58 1279.65 1386.17 1276.55 1407.38 C 1274.44 1421.81 1279.03 1434.48 1287.55 1445.93 C 1312.45 1479.4 1358.58 1493.76 1398.13 1499.4 C 1446.79 1506.35 1517.41 1499.76 1557.58 1469.51 C 1569 1470.96 1580.39 1472.39 1591.71 1474.48 C 1585.62 1483.8 1574.92 1489.65 1565.64 1495.27 A 256.201 256.201 0 0 1 1475.01 1524.8 C 1413.11 1532.7 1333.64 1525.11 1282.97 1485.58 C 1264.15 1470.9 1247.47 1450.12 1244.61 1425.73 C 1241.8 1401.79 1250.83 1378.98 1265.47 1360.4 C 1297.76 1319.4 1353.73 1301.35 1403.72 1295.42 z"/>
<path transform="translate(0,0)" fill="rgb(245,244,241)" d="M 1404.43 1352.5 C 1406.88 1352.17 1408.97 1352.1 1411.43 1352.32 C 1415.22 1356.2 1421.89 1376.97 1424.98 1383.25 C 1447.79 1429.61 1499.13 1452.18 1545.43 1467.83 C 1510.3 1486.96 1472.66 1493.85 1433.02 1494.32 C 1392.83 1494.05 1345.14 1484.51 1312.56 1459.65 C 1303.66 1452.86 1293.57 1443.11 1292.41 1431.42 C 1291.15 1418.88 1298.56 1404.15 1306.42 1394.64 C 1329.02 1367.29 1370.64 1355.88 1404.43 1352.5 z"/>
<path transform="translate(0,0)" fill="rgb(245,244,241)" d="M 1598.19 1194.42 L 1599.2 1194.34 C 1650.52 1190.78 1716.67 1205.63 1755.95 1240.3 C 1775.25 1257.34 1794.29 1286.23 1795.69 1312.58 C 1796.68 1331.25 1787.52 1348.92 1775.32 1362.48 C 1738.79 1403.06 1679.35 1417.84 1626.91 1420.67 C 1565.69 1422.04 1500.4 1407.32 1452.91 1367.01 C 1439.77 1355.86 1428.42 1341.86 1427.19 1323.94 C 1425.32 1296.84 1428.7 1275.82 1447.26 1254.91 C 1484.84 1212.57 1543.84 1197.95 1598.19 1194.42 z"/>
<path transform="translate(0,0)" fill="rgb(70,64,64)" d="M 1602.66 1222.44 A 80.0002 80.0002 0 0 1 1604.85 1222.34 C 1649.07 1220.97 1702.87 1232.74 1735.78 1264.06 C 1749.1 1276.74 1760.88 1294.24 1760.94 1313.28 C 1760.99 1328.12 1753.5 1341.09 1743.44 1351.44 C 1711.28 1384.54 1661.78 1390.75 1618.02 1391.45 C 1572.07 1390.37 1518.71 1384.46 1482.28 1353.67 C 1470.16 1343.42 1458.66 1329.3 1457.6 1312.83 C 1456.59 1297.07 1464.69 1282.22 1474.96 1270.86 C 1505.84 1236.69 1558.55 1224.56 1602.66 1222.44 z"/>
<path transform="translate(0,0)" fill="rgb(188,186,177)" d="M 1588.87 1231.41 C 1633.43 1228.23 1684.23 1235.38 1721.05 1262.58 C 1739.31 1276.07 1749.12 1291.38 1752.43 1313.89 C 1748.63 1305.84 1744.4 1298.27 1738.8 1291.33 C 1713.66 1260.18 1671.28 1245.75 1632.76 1241.68 C 1602.92 1237.68 1566.4 1241.15 1538.17 1251.09 C 1517.77 1258.28 1490.54 1270.92 1477.06 1288.4 C 1471.36 1295.79 1467.53 1304.37 1463.48 1312.72 C 1466 1299.8 1470.8 1288.38 1479.18 1278.09 C 1503.87 1247.74 1551.69 1235.12 1588.87 1231.41 z"/>
<path transform="translate(0,0)" fill="rgb(245,244,241)" d="M 1587.66 1249.41 C 1626.03 1245.03 1671.7 1252.18 1704.67 1272.89 C 1726.1 1286.36 1743.61 1303.75 1749.26 1329.05 C 1747.01 1333.43 1744.76 1337.42 1741.62 1341.22 C 1715.68 1372.64 1672.27 1379.12 1634.21 1382.88 C 1587.39 1383.63 1527.36 1379.07 1489.21 1349.2 C 1480.99 1342.77 1471.97 1333.84 1470.95 1322.92 C 1470.03 1313.07 1475.77 1303.96 1481.83 1296.69 C 1507.47 1265.95 1549.16 1253.05 1587.66 1249.41 z"/>
<path transform="translate(0,0)" fill="rgb(70,64,64)" d="M 1605.59 1287.25 C 1621.57 1285.16 1639.94 1288.15 1654.55 1294.89 C 1662.77 1298.68 1670.76 1304.47 1673.76 1313.39 C 1675.9 1319.74 1675.02 1326.73 1671.89 1332.59 C 1664.83 1345.81 1650.06 1352.05 1636.41 1355.89 C 1618.61 1359.7 1596.02 1357.02 1580.35 1347.45 C 1572.8 1342.84 1566.67 1336.2 1564.87 1327.33 A 27.6517 27.6517 0 0 1 1569.38 1305.72 C 1577.75 1294.05 1592.17 1289.68 1605.59 1287.25 z"/>
<path transform="translate(0,0)" fill="rgb(245,244,241)" d="M 1609.31 1295.36 C 1624.49 1294.11 1641.95 1295.64 1654.76 1304.66 C 1659.74 1308.17 1663.93 1313.16 1664.94 1319.32 C 1665.82 1324.62 1664.28 1329.66 1661.11 1333.94 C 1653.78 1343.83 1639.9 1348.02 1628.24 1349.7 C 1613.84 1351 1596.63 1348.92 1584.26 1340.94 C 1578.45 1337.19 1573.41 1331.74 1572.22 1324.72 C 1571.36 1319.65 1572.81 1314.61 1575.87 1310.53 C 1583.52 1300.35 1597.36 1296.94 1609.31 1295.36 z"/>
<path transform="translate(0,0)" fill="rgb(70,64,64)" d="M 451.001 1404.4 C 463.425 1402.8 508.562 1403.31 519.922 1406.72 C 528.322 1409.24 536.506 1414.24 540.676 1422.21 C 552.32 1444.46 526.313 1473.7 513.855 1490.2 C 504.576 1502.49 494.887 1514.63 486.297 1527.41 C 472.35 1548.17 459.75 1569.62 452.304 1593.65 C 444.972 1617.3 440.1 1660.91 450.646 1683.7 C 459.276 1702.36 473.293 1719.01 482.989 1737.33 C 515.437 1691.37 566.045 1667.48 620.049 1656.67 C 620.485 1618.91 636.207 1584.85 660.381 1556.33 C 706.17 1502.32 779.27 1473.25 849.116 1471.03 C 855.69 1470.82 862.414 1470.69 868.956 1471.46 C 878.445 1472.58 888.889 1475.72 898.42 1474.66 C 906.131 1473.79 914.034 1469.8 921.545 1467.7 C 937.091 1463.36 953.768 1460.76 969.843 1459.46 C 1037.18 1454.03 1110.51 1471.78 1162.47 1516.37 C 1187.02 1537.44 1206.99 1565.98 1209.18 1599.14 C 1211.5 1634.42 1198.2 1675.81 1174.73 1702.35 C 1136.4 1745.68 1073.79 1763.89 1017.76 1767.26 C 990.954 1769.92 940.38 1769.29 915.687 1760.65 C 901.945 1766.84 887.939 1772.19 873.824 1777.46 C 876.636 1791.83 877.511 1805.6 876.172 1820.19 C 872.775 1857.17 858.015 1890.93 828.857 1914.73 C 779.408 1955.09 698.498 1962.81 636.492 1956.23 C 583.982 1950.66 528.737 1929.01 494.968 1887 C 467.792 1853.19 464.027 1817.41 468.345 1775.76 C 463.731 1777.06 459.175 1778.14 454.429 1778.84 C 415.843 1784.49 365.572 1773.74 328.888 1761.07 C 300.374 1751.22 272.819 1739.15 243.205 1732.78 A 337.466 337.466 0 0 0 195.508 1726.16 C 164.478 1724.06 124.518 1727.83 98.4797 1707.67 C 89.1266 1700.43 83.4133 1690.9 82.215 1679.06 C 77.8725 1636.17 115.007 1558.83 142.202 1525.09 C 150.37 1514.96 159.257 1507.6 170.504 1501.11 C 200.112 1484.04 235.898 1473.52 267.869 1461.48 C 329.607 1438.23 384.621 1411.71 451.001 1404.4 z"/>
<path transform="translate(0,0)" fill="rgb(245,244,241)" d="M 628.952 1715.36 C 631.056 1715 632.876 1715.04 635.003 1715.18 C 638.273 1716.94 639.815 1720.82 641.548 1723.98 C 631.273 1724.39 621.27 1725.08 611.179 1727.15 C 580.664 1733.42 549.746 1748.49 532.303 1775.08 C 532.088 1775.46 531.879 1775.85 531.659 1776.23 C 530.566 1778.13 529.202 1781.11 527.083 1781.67 L 526.43 1780.01 C 527.492 1772.78 531.646 1765.71 535.951 1759.94 C 555.607 1733.58 598.064 1720.3 628.952 1715.36 z"/>
<path transform="translate(0,0)" fill="rgb(245,244,241)" d="M 972.21 1512.03 C 983.412 1511.77 994.691 1512.32 1005.86 1513.13 C 1051.46 1516.43 1106.94 1531.49 1137.8 1567.79 C 1145.75 1577.13 1150.76 1587.36 1149.72 1599.82 C 1144.74 1590.14 1139.37 1581.71 1131.73 1573.87 C 1093.6 1534.77 1034.39 1519.98 981.523 1519.41 C 978.214 1517.26 975.237 1514.56 972.21 1512.03 z"/>
<path transform="translate(0,0)" fill="rgb(188,186,177)" d="M 296.288 1553.06 C 291.162 1559.28 286.114 1565.35 280.266 1570.9 C 279.873 1571.27 279.495 1571.66 279.097 1572.03 C 269.452 1580.92 237.344 1592.42 223.773 1599.86 C 216.056 1604.09 199.207 1616.2 192.777 1618.41 C 186.656 1623.51 180.086 1628.02 174.057 1633.24 A 250.107 250.107 0 0 0 120.874 1698.79 A 69.4545 69.4545 0 0 1 118.173 1696.76 C 113.953 1693.46 108.751 1690.08 108.04 1684.37 C 114.722 1668.05 172.383 1626.82 188.456 1616.25 C 208.298 1600.5 273.409 1560.75 296.288 1553.06 z"/>
<path transform="translate(0,0)" fill="rgb(188,186,177)" d="M 510.953 1421.39 C 515.61 1423.04 520.89 1425.09 524.254 1428.85 C 530.86 1436.24 522.538 1447.74 517.838 1454.18 C 486.713 1496.8 446.782 1540.66 432.051 1592.78 C 428.663 1604.77 427.232 1616.91 425.921 1629.26 L 425.343 1644.82 C 421.981 1633.15 421.012 1620.38 420.94 1608.29 C 420.693 1566.67 439.27 1526.09 465.602 1494.59 C 473.009 1485.73 481.505 1477.93 489.567 1469.68 C 504.991 1453.9 511.191 1444.11 510.953 1421.39 z"/>
<path transform="translate(0,0)" fill="rgb(188,186,177)" d="M 160.479 1534.07 C 169.18 1536.06 177.729 1541.86 186.643 1544.34 C 211.471 1551.23 240.844 1550.17 266.42 1548.08 C 249.034 1559.34 230.368 1568.47 212.621 1579.14 C 195.4 1589.5 179.061 1601.54 162.585 1613.04 C 141.666 1626.64 121.516 1643.19 103.739 1660.68 C 105.256 1649.54 107.419 1638.99 111.073 1628.34 C 118.989 1605.26 144.828 1552.7 160.479 1534.07 z"/>
<path transform="translate(0,0)" fill="rgb(245,244,241)" d="M 1189.39 1637.73 C 1189.69 1638.69 1189.81 1638.89 1189.79 1640.03 C 1189.73 1643.77 1187.59 1648.92 1186.3 1652.45 C 1178.61 1673.59 1165.92 1690.77 1148.73 1705.13 C 1091.91 1752.61 1008.61 1755.27 938.422 1748.98 L 937.99 1748.76 L 937.949 1747.57 C 950.594 1739.11 963.338 1729.88 974.216 1719.19 C 995.872 1722.18 1017.48 1720.7 1039.01 1717.3 C 1082.15 1710.49 1132.82 1694.38 1165.96 1664.92 C 1175.06 1656.83 1182.26 1647.52 1189.39 1637.73 z"/>
<path transform="translate(0,0)" fill="rgb(245,244,241)" d="M 1001.37 1612.71 C 1002.33 1615.79 1002.76 1618.87 1002.78 1622.09 C 1003.02 1653.62 988.966 1681.11 967.191 1703.23 C 920.498 1750.66 849.092 1774.04 783.715 1774.24 C 736.042 1774.39 701.191 1764.28 667.105 1730.3 C 661.326 1723.77 656.498 1716.76 651.646 1709.52 C 668.946 1722.26 685.731 1732.25 706.461 1738.46 C 772.377 1758.21 849 1743.64 908.587 1711.42 C 949.141 1689.49 987.721 1658.39 1001.37 1612.71 z"/>
<path transform="translate(0,0)" fill="rgb(245,244,241)" d="M 486.179 1823.85 C 487.269 1824.94 486.866 1824.4 487.678 1825.84 C 495.469 1839.7 504.527 1852.54 516.98 1862.61 C 566.979 1903.03 648.527 1917.02 711.049 1910.13 C 762.172 1904.48 822.544 1884.93 855.848 1843.49 C 853.638 1851.74 850.811 1859.34 847.215 1867.09 C 843.864 1873.2 840.004 1879.24 835.782 1884.78 C 807.895 1921.38 756.561 1935.4 712.978 1940.96 C 652.887 1948.62 579.667 1937.27 531.074 1899.27 C 506.411 1879.99 490.109 1855.28 486.179 1823.85 z"/>
<path transform="translate(0,0)" fill="rgb(245,244,241)" d="M 987.435 1526.89 C 1002.09 1526.84 1017.93 1529.7 1032.16 1532.82 C 1068.99 1540.91 1116.89 1561.15 1137.51 1594.87 C 1141.7 1601.73 1143.89 1609.42 1141.66 1617.35 C 1137.13 1633.5 1116.96 1645.41 1103.44 1653.32 C 1072.79 1669.04 1039.13 1676.98 1004.99 1680.42 C 1011.45 1665.4 1016.26 1650.92 1017.14 1634.46 C 1018.47 1609.6 1015.26 1570.56 1003.57 1548.27 C 999.307 1540.14 993.568 1533.65 987.435 1526.89 z"/>
<path transform="translate(0,0)" fill="rgb(245,244,241)" d="M 978.497 1476.41 C 984.973 1475.75 991.718 1475.86 998.231 1475.82 C 1055.25 1475.48 1118.4 1495.69 1159.4 1536.54 C 1175.98 1553.07 1190.98 1576.23 1190.57 1600.51 C 1190.21 1621.38 1179.27 1639.43 1164.76 1653.72 C 1120.88 1696.94 1040.21 1713.41 980.537 1712.83 L 987.808 1704.21 C 992.69 1698.41 997.015 1692.28 1001.38 1686.1 A 89.3874 89.3874 0 0 0 1004.3 1686.07 C 1052.73 1684.62 1109.1 1669.73 1143 1633.24 C 1152.76 1622.74 1158.67 1609.34 1157.89 1594.8 C 1156.87 1575.95 1143.55 1560.31 1129.84 1548.57 C 1085.76 1510.81 1019.5 1500.82 963.472 1505.18 C 951.63 1497.74 939.461 1491.26 927.063 1484.79 C 943.64 1479.82 961.286 1477.59 978.497 1476.41 z"/>
<path transform="translate(0,0)" fill="rgb(245,244,241)" d="M 618.088 1674.2 L 621.368 1673.92 C 625 1676.79 630.615 1700.2 632.551 1705.75 C 621.354 1707.67 610.03 1709.1 599.041 1712.05 C 574.32 1718.71 546.906 1733.63 529.805 1752.96 C 520.522 1763.45 514.303 1776.52 515.407 1790.83 C 516.81 1809.02 528.72 1823.98 541.911 1835.59 C 581.177 1870.17 645.395 1881.14 696.135 1877.62 C 732.08 1875.13 792.55 1859.61 816.698 1830.93 C 827.981 1817.52 826.323 1804.08 824.671 1787.85 A 269.242 269.242 0 0 0 858.32 1781.42 C 861.503 1794.7 860.491 1804.37 857.438 1817.5 C 855.46 1822.58 853.353 1827.71 850.629 1832.44 C 831.03 1866.43 789.019 1883.8 752.851 1893.61 C 685.891 1911.76 607.266 1905.59 546.569 1870.34 C 520.653 1855.3 494.66 1833.22 486.949 1802.95 C 481.778 1782.65 489.275 1762.18 499.793 1744.86 C 523.252 1706.24 575.933 1684.28 618.088 1674.2 z"/>
<path transform="translate(0,0)" fill="rgb(245,244,241)" d="M 631.933 1733.42 C 636.915 1732.96 642.1 1733.19 647.11 1733.14 C 650.91 1737.31 655.013 1741.29 659.046 1745.24 C 700.92 1786.28 754.249 1789.59 809.718 1789 C 811.561 1792.8 813.263 1796.99 814.142 1801.12 C 815.972 1809.73 813.543 1818.18 808.512 1825.24 C 789.584 1851.78 746.162 1862.54 715.938 1867.7 A 199.028 199.028 0 0 1 712.685 1868.18 C 661.595 1875.32 596.557 1867.13 554.483 1835.02 C 544.303 1827.25 534.879 1817.13 533.473 1803.81 C 532.282 1792.52 537.285 1781.36 544.352 1772.82 C 564.84 1748.05 600.973 1736.19 631.933 1733.42 z"/>
<path transform="translate(0,0)" fill="rgb(245,244,241)" d="M 170.589 1522.15 C 175.122 1518.68 179.536 1515.5 184.683 1512.99 C 200.877 1505.1 218.166 1499.13 234.981 1492.66 A 3677.24 3677.24 0 0 1 307.727 1464.96 C 341.123 1452.61 373.875 1438.34 408.461 1429.51 C 431.232 1423.69 464.324 1417.6 487.385 1420.7 C 492.199 1421.35 496.577 1422.27 499.996 1425.94 C 501.998 1430.57 500.524 1436.13 498.711 1440.62 C 490.907 1459.95 468.871 1475.77 455.019 1491.15 C 412.963 1537.86 396.406 1606.3 420.078 1665.5 C 426.664 1681.97 435.67 1697.44 445.279 1712.32 C 451.864 1722.51 460.115 1733.22 464.512 1744.59 C 465.937 1748.27 466.573 1751.41 465.131 1755.18 C 459.667 1761.06 450.478 1761.34 442.909 1761.6 C 399.407 1763.1 356.214 1751.91 315.706 1736.95 C 294.133 1728.99 272.75 1720.18 250.28 1715.02 C 213.637 1706.59 176.04 1708.42 139.107 1703.24 C 157.453 1663.45 197.892 1632.89 235.521 1612.51 C 266.37 1595.8 278.986 1594.49 305.402 1568.11 C 310.526 1563 316.199 1557.86 320.543 1552.06 C 310.955 1537.26 295.273 1532.26 278.792 1528.78 C 254.065 1523.57 208.751 1529.71 191.237 1523.9 L 187.29 1519.9 C 181.748 1520.72 176.177 1521.73 170.589 1522.15 z"/>
<path transform="translate(0,0)" fill="rgb(70,64,64)" d="M 380.676 1541.45 C 383.074 1543.23 384.294 1545.07 385.377 1547.81 C 390.355 1560.43 388.545 1578.48 382.806 1590.65 C 371.066 1615.52 344.365 1624.25 320.266 1632.41 L 316.594 1632.88 L 315.144 1631.4 C 318.857 1622.29 346.006 1613 354.605 1607.11 C 378.578 1590.71 375.549 1567.37 380.446 1542.57 L 380.676 1541.45 z"/>
<path transform="translate(0,0)" fill="rgb(70,64,64)" d="M 289.008 1651.3 C 319.777 1648.75 355.868 1656.99 383.76 1670.12 C 389.128 1672.65 406.113 1680.8 408.027 1686.07 L 406.513 1687.18 L 401.76 1685.99 C 377.923 1677.53 353.405 1667.17 328.311 1663.33 C 313.938 1661.12 294.518 1663.36 281.162 1659.11 C 278.881 1658.38 278.808 1658.06 277.891 1656.02 L 278.603 1654.18 C 281.642 1652.03 285.415 1651.84 289.008 1651.3 z"/>
<path transform="translate(0,0)" fill="rgb(70,64,64)" d="M 429.298 1456.18 C 432.209 1455.78 435.034 1455.58 437.978 1455.73 C 441.098 1455.89 444.592 1456.27 446.739 1458.74 L 446.513 1460.87 C 441.656 1465.33 427.58 1467.48 421.029 1469.83 C 388.712 1481.41 356.632 1503.43 341.941 1535.16 C 340.33 1540.04 339.32 1543.72 335.096 1547 L 333.586 1546.68 C 331.373 1538.08 336.657 1523.64 341.088 1516.24 C 357.378 1489.01 399.144 1463.88 429.298 1456.18 z"/>
<path transform="translate(0,0)" fill="rgb(70,64,64)" d="M 238.145 1667.41 C 245.579 1666.76 253.186 1667.03 260.615 1667.64 C 282.506 1669.41 364.821 1686.12 378.977 1702.7 L 378.525 1704.15 C 372.855 1704.53 366.69 1702.01 361.258 1700.47 C 323.291 1690.26 285.136 1680.62 245.812 1677.75 C 240.381 1677.36 216.68 1677.62 213.523 1674.09 L 214.405 1672.47 C 221.378 1668.43 230.287 1668.06 238.145 1667.41 z"/>
<path transform="translate(0,0)" fill="rgb(70,64,64)" d="M 187.29 1519.9 C 212.963 1514.11 239.203 1506.11 263.929 1497 C 290.886 1487.08 437.518 1420.09 457.403 1434.52 C 458.298 1435.17 458.705 1435.86 459.313 1436.71 L 458.76 1438.58 C 438.388 1444.05 417.919 1447.18 397.808 1453.99 C 355.619 1468.27 315.205 1487.72 273.266 1502.44 C 246.49 1511.83 218.93 1518.13 191.237 1523.9 L 187.29 1519.9 z"/>
<path transform="translate(0,0)" fill="rgb(70,64,64)" d="M 206.398 1685.42 C 272.002 1682.15 304.175 1721.86 363.636 1730.05 C 372.683 1731.3 382.409 1731.89 391.476 1730.51 C 400.029 1729.21 420.442 1719.62 427.984 1723.51 L 427.764 1725.49 C 420.556 1733.16 409.274 1736.47 399.456 1739.28 C 361.83 1746.68 325.623 1732.45 292.243 1716.4 C 275.828 1708.51 259.58 1700.3 241.474 1697.05 A 153.287 153.287 0 0 0 218.504 1694.93 C 208.511 1694.7 172.805 1697.64 166.058 1693.43 L 166.728 1692.25 C 176.818 1685.46 194.571 1686.37 206.398 1685.42 z"/>
<path transform="translate(0,0)" fill="rgb(245,244,241)" d="M 839.492 1489.41 C 839.851 1489.35 840.207 1489.28 840.568 1489.24 C 882.996 1485.07 932.055 1498.38 964.961 1525.88 C 980.449 1538.82 994.111 1557.28 995.898 1577.97 C 998.388 1606.76 986.189 1633.73 967.967 1655.35 C 928.513 1702.16 853.714 1732.24 793.339 1737.59 C 793.148 1737.62 792.958 1737.66 792.765 1737.67 C 749.474 1741.53 701.513 1735.72 666.455 1707.98 C 651.765 1696.35 640.414 1681.16 638.439 1662.01 C 635.03 1628.97 652.276 1595.48 672.716 1570.79 C 714.932 1519.8 774.74 1495.57 839.492 1489.41 z"/>
<path transform="translate(0,0)" fill="rgb(70,64,64)" d="M 843.215 1519.41 C 874.5 1517.82 908.58 1521.55 934.562 1540.55 C 948.378 1550.65 961.349 1565.44 963.73 1582.97 C 966.386 1602.52 956.441 1622.74 944.556 1637.61 C 910.425 1680.29 843.446 1707.95 790.242 1713.79 C 753.805 1716.88 714.999 1712.6 685.948 1688.04 C 675.197 1678.95 668.031 1666.58 667.021 1652.39 C 665.381 1629.33 677.76 1607.32 692.263 1590.38 C 730.834 1545.35 785.149 1523.77 843.215 1519.41 z"/>
<path transform="translate(0,0)" fill="rgb(245,244,241)" d="M 842.046 1527.42 C 858.218 1525.77 876.439 1527.36 892.216 1531.3 C 915.369 1537.08 936.452 1548.27 948.98 1569.18 C 926.08 1554.74 904.02 1543.07 877.001 1538.25 C 826.394 1529.23 776.882 1546.44 735.606 1575 C 704.623 1598.29 686.597 1619.53 676.614 1657.14 C 675.361 1632.52 684.854 1612.41 700.506 1593.85 C 735.642 1552.2 789.011 1531.93 842.046 1527.42 z"/>
<path transform="translate(0,0)" fill="rgb(245,244,241)" d="M 841.611 1544.42 C 871.4 1541.12 908.047 1552.42 932.904 1568.52 C 941.587 1574.15 949.082 1581.47 950.989 1592.04 C 953.276 1604.72 948.312 1618.12 941.075 1628.38 C 912.061 1669.55 847.198 1696.63 798.913 1704.7 C 768.568 1708.53 728.996 1707.87 703.648 1688.02 C 695.209 1681.42 689.415 1672.48 688.359 1661.68 C 686.512 1642.78 697.679 1623.46 709.373 1609.48 C 741.575 1570.99 792.396 1549.02 841.611 1544.42 z"/>
<path transform="translate(0,0)" fill="rgb(70,64,64)" d="M 1376.59 75.4154 C 1389.68 74.1203 1403.71 75.1418 1416.76 76.3817 C 1484.82 82.8489 1549.17 109.584 1608.97 141.526 C 1712.83 196.998 1851.12 310.42 1904.82 417.449 C 1913.3 434.347 1919.16 453.389 1924.53 471.503 C 1933.73 502.534 1938.31 534.294 1944.05 566.07 A 1361.69 1361.69 0 0 0 1954.71 616.643 C 1957.26 628.124 1959.42 639.899 1962.92 651.133 L 1963.36 652.535 C 1944.46 676.457 1912.47 691.962 1887.01 708.195 C 1842.42 736.623 1798.94 766.328 1752.98 792.589 C 1737.91 801.203 1722.88 810.009 1707.55 818.152 C 1680.32 832.622 1653.21 845.796 1627.73 863.37 C 1585.38 892.585 1554.98 932.747 1520.72 970.245 C 1499.35 993.639 1476.43 1015.21 1450.77 1033.84 A 411.231 411.231 0 0 1 1374.16 1077.06 C 1331.51 1095.65 1285.17 1109.61 1248.64 1139.47 C 1234.46 1151.07 1223.76 1166.77 1213.22 1181.59 C 1184.79 1221.58 1156.66 1256.19 1111.21 1277.63 C 1095.95 1274.58 1080.61 1269.24 1065.6 1265.02 A 2187.98 2187.98 0 0 1 965.736 1235.2 C 946.738 1242.53 927.967 1253.91 909.941 1263.42 A 7080.6 7080.6 0 0 0 795.485 1325.27 C 778.589 1334.51 761.486 1345.39 743.672 1352.6 C 728.099 1349.36 722.395 1341.52 713.168 1329.6 C 708.322 1329.79 703.201 1330.06 698.36 1329.6 C 680.711 1327.92 670.054 1316.15 659.115 1303.69 C 653.684 1302.17 648.273 1301.86 642.718 1301.1 C 624.836 1298.64 618.008 1289.25 607.818 1275.89 C 602.015 1275.74 596.07 1275.76 590.311 1274.99 C 571.572 1272.5 562.146 1262.26 551.176 1248.16 C 543.933 1247.56 536.723 1247.08 529.595 1245.6 C 528.506 1245.34 527.435 1245.03 526.362 1244.71 C 508.374 1239.38 500.421 1229.76 491.727 1213.81 C 483.108 1214.03 473.938 1214.83 465.594 1212.3 C 454.204 1208.84 448.505 1199.75 443.355 1189.79 C 436.695 1190.31 429.988 1190.94 423.341 1189.97 C 405.6 1187.38 395.624 1177.08 385.401 1163.47 C 369.123 1162.18 356.987 1162.12 346.022 1148.53 C 343.372 1145.25 341.302 1141.58 338.511 1138.4 L 337.165 1136.89 C 327.694 1137.34 318.791 1137.52 309.787 1134.05 C 297.815 1129.42 292.186 1121.39 287.012 1110.29 C 280.084 1110.64 272.846 1111.26 265.961 1110.22 C 252.486 1108.19 245.58 1099.77 238.111 1089.39 C 231.048 1089.01 223.485 1088.88 216.728 1086.63 C 208.046 1083.74 204.25 1078.46 200.484 1070.61 C 196.076 1069.58 191.734 1068.49 187.542 1066.74 C 177.869 1062.7 172.919 1055.92 169.221 1046.4 C 155.325 1043.55 137.876 1039.21 126.368 1030.55 C 123.951 1028.74 121.347 1026.21 121.28 1022.97 C 121.207 1019.51 123.563 1015.12 126.326 1013.11 C 136.97 1005.37 157.745 999.488 170.514 994.085 C 191.311 985.283 211.845 975.863 232.685 967.164 L 316.08 932.262 C 331.735 925.7 364.818 915.127 376.809 904.684 C 371.734 896.828 349.466 895.9 341.23 887.926 C 339.094 885.858 337.685 882.459 337.841 879.481 C 338.45 867.896 358.949 855.401 367.57 848.118 C 357.629 842.118 344.989 837.623 336.625 829.489 C 334.135 827.066 331.993 823.822 332.366 820.188 C 333.481 809.327 352.93 798.311 361.014 792.436 C 351.053 785.87 337.39 782.109 329.282 773.187 C 327.081 770.765 325.819 768.173 326.128 764.808 C 327.036 754.9 348.075 743.058 355.7 737.681 C 346.844 732.994 335.882 728.404 328.768 721.262 C 326.043 718.526 323.949 715.127 324.402 711.106 C 325.612 700.373 347.294 686.898 355.511 680.018 C 346.19 674.623 334.112 670.157 326.754 662.14 C 324.589 659.781 322.94 656.978 323.363 653.645 C 324.614 643.799 344.937 633.438 352.542 628.182 C 344.43 620.57 334.382 614.988 326.557 607.171 C 324.077 604.693 321.268 601.309 321.662 597.554 C 322.7 587.656 345.802 576.402 353.437 570.6 C 345.023 564.919 332.408 558.258 326.658 549.661 C 324.563 546.527 323.451 543.049 324.585 539.324 C 327.646 529.271 350.731 520.961 359.607 516.611 C 350.879 509.356 338.203 504.333 331.846 494.678 C 330.09 492.011 328.932 488.869 329.815 485.662 C 332.671 475.286 355.678 467.352 364.515 463.175 C 355.582 454.758 335.687 445.397 330.799 435.141 C 329.125 431.631 327.555 426.997 329.337 423.237 C 330.508 420.767 332.806 419.315 335.303 418.448 C 354.846 411.666 440.497 438.619 461.2 447.84 C 473.669 445.363 486.18 441.221 498.535 438.094 A 1202.37 1202.37 0 0 1 565.966 423.44 C 641.188 409.824 720.382 405.897 791.671 375.901 C 821.729 363.253 849.277 346.506 875.083 326.632 C 892.246 313.414 908.625 298.809 927.352 287.775 C 946.975 276.213 967.336 265.046 988.094 255.64 C 1006.43 247.329 1025.62 240.613 1044.28 233.051 C 1077.28 219.685 1110.67 204.936 1141.91 187.863 A 357.297 357.297 0 0 0 1189.36 157.134 C 1219.8 133.821 1237.33 115.404 1274.12 99.0611 C 1306.55 84.658 1341.39 78.0574 1376.59 75.4154 z"/>
<path transform="translate(0,0)" fill="rgb(245,244,241)" d="M 504.924 1033.15 C 508.424 1036.95 511.473 1042.22 514.496 1046.48 C 505.063 1044.59 498.384 1044.14 489.613 1048.4 C 487.282 1049.89 485.262 1050.92 482.67 1051.89 L 482.783 1050.69 C 489.66 1044.25 497.394 1038.78 504.924 1033.15 z"/>
<path transform="translate(0,0)" fill="rgb(245,244,241)" d="M 724.604 1127.3 L 737.26 1126.59 C 724.309 1133.77 710.639 1140.12 697.266 1146.5 C 694.74 1147.28 693.794 1147.97 691.137 1147.27 L 691.623 1145.88 C 698.476 1140.73 716.902 1129.74 724.604 1127.3 z"/>
<path transform="translate(0,0)" fill="rgb(245,244,241)" d="M 500.844 1054.96 C 516.846 1058.91 526.55 1066.77 537.774 1078.31 L 536.458 1079.01 C 523.497 1073.56 509.324 1067.94 497.458 1060.41 C 497.635 1057.75 499.123 1056.89 500.844 1054.96 z"/>
<path transform="translate(0,0)" fill="rgb(245,244,241)" d="M 638.145 1123.34 C 660.631 1125.23 682.873 1126.99 705.462 1126.7 L 698.159 1130.73 C 694.298 1132.59 690.166 1134.89 686.017 1135.99 C 672.673 1139.54 649.931 1130.1 638.145 1123.34 z"/>
<path transform="translate(0,0)" fill="rgb(245,244,241)" d="M 782.563 682.982 L 784.301 683.283 L 785.862 685.655 C 785.159 687.328 784.593 688.402 782.991 689.415 C 776.911 693.261 769.804 695.412 763.451 698.797 C 742.46 709.981 720.587 727.882 711.481 750.409 L 710.26 750.497 C 710.559 746.347 711.378 742.383 712.794 738.46 C 723.415 709.025 756.241 694.842 782.563 682.982 z"/>
<path transform="translate(0,0)" fill="rgb(245,244,241)" d="M 496.808 997.02 C 499.079 1000.18 500.329 1017.91 501.764 1023.56 C 490.699 1029.34 481.6 1037.64 470.856 1043.69 C 468.034 1045.28 466.956 1044.85 463.913 1043.99 C 461.95 1042.49 458.746 1040.57 457.716 1038.28 C 456.707 1036.03 457.237 1032.79 457.963 1030.52 C 462.721 1015.64 484.192 1004.07 496.808 997.02 z"/>
<path transform="translate(0,0)" fill="rgb(245,244,241)" d="M 880.707 851.828 C 888.753 858.223 895.872 867.28 903.524 874.377 A 415.193 415.193 0 0 0 958.151 916.422 C 972.148 925.591 1002.99 939.984 1011.81 953.197 C 1004.45 950.902 997.222 946.588 990.305 943.123 C 961.396 928.639 933.263 912.687 909.304 890.68 C 899.777 881.931 881.291 865.54 880.707 851.828 z"/>
<path transform="translate(0,0)" fill="rgb(245,244,241)" d="M 664.986 785.796 C 670.81 790.714 674.904 800.317 680.161 806.286 C 698.058 826.614 724.409 840.685 749.089 850.838 L 740.119 859.076 L 731.948 867.463 C 724.648 864.521 717.661 860.414 711.147 856.021 C 685.871 838.976 670.82 815.695 664.986 785.796 z"/>
<path transform="translate(0,0)" fill="rgb(245,244,241)" d="M 715.11 914.746 L 713.635 925.71 A 436.535 436.535 0 0 0 693.286 926.702 C 644.762 930.428 603.326 945.004 571.118 982.659 C 567.359 987.556 563.999 992.746 560.227 997.651 L 561.116 994.368 C 564.015 983.549 568.776 974.432 575.915 965.766 C 606.104 929.116 652.841 919.816 697.748 915.425 C 703.315 914.625 709.461 914.921 715.11 914.746 z"/>
<path transform="translate(0,0)" fill="rgb(245,244,241)" d="M 806.883 715.803 C 811.285 719.36 815.004 725.55 818.574 730.064 C 825.957 739.401 833.509 748.803 842.341 756.829 C 857.748 770.829 875.563 784.851 893.032 796.253 C 905.011 804.073 919.803 810.728 930.168 820.474 C 938.403 828.216 944.668 839.171 950.971 848.527 C 940.394 845.544 925.755 835.199 916.036 829.474 C 879.013 807.663 817.663 757.527 806.883 715.803 z"/>
<path transform="translate(0,0)" fill="rgb(188,186,177)" d="M 731.935 902.608 C 734.55 909.971 732.508 921.809 734.711 930.403 C 748.664 984.836 788.631 1032.11 835.211 1062.23 C 845.137 1068.65 856.196 1072.32 866.294 1078.25 L 864.743 1078.25 A 387.845 387.845 0 0 1 839.926 1069.05 C 797.3 1051.36 753.369 1015.06 735.609 971.593 C 726.508 949.322 722.32 925.31 731.935 902.608 z"/>
<path transform="translate(0,0)" fill="rgb(245,244,241)" d="M 801.228 674.647 C 813.997 681.716 887.047 763.074 899.821 778.755 C 905.298 785.478 910.527 792.369 914.413 800.147 C 905.06 795.999 895.533 788.664 887.159 782.716 C 851.529 757.407 808.893 719.886 801.228 674.647 z"/>
<path transform="translate(0,0)" fill="rgb(245,244,241)" d="M 857.658 798.6 C 864.844 801.459 891.479 826.757 899.135 833.207 C 912.528 844.489 925.769 856.144 940.125 866.189 C 952.04 874.527 966.926 881.476 977.318 891.568 C 987.689 901.638 994.984 918.881 1001.91 931.648 C 1001.62 931.537 1001.33 931.441 1001.05 931.316 C 991.943 927.274 982.535 919.846 974.073 914.425 C 929.07 885.599 879.772 848.676 857.658 798.6 z"/>
<path transform="translate(0,0)" fill="rgb(188,186,177)" d="M 1092.84 1168.05 C 1102.23 1178.08 1107.05 1236.68 1107 1251.63 C 1080.33 1246.52 1054.5 1238.68 1028.57 1230.75 C 1016.3 1227.24 1003.79 1224.35 991.383 1221.38 C 1025.99 1205.54 1058.38 1184.45 1092.84 1168.05 z"/>
<path transform="translate(0,0)" fill="rgb(245,244,241)" d="M 767.787 857.823 L 768.137 858.158 C 768.268 858.66 768.585 859.148 768.531 859.664 C 768.246 862.362 757.494 874.118 756.528 888.177 C 753.95 925.696 788.842 975.782 812.551 1003.63 C 853.077 1051.24 911.642 1085.62 974.597 1090.81 C 970.622 1092.79 967.042 1094.39 962.688 1095.34 C 958.729 1095.06 954.78 1094.75 950.855 1094.15 C 933.753 1091.55 917.325 1086.56 900.957 1081.11 C 848.552 1063.68 808.11 1039.42 775.127 993.848 C 757.605 969.636 737.738 932.645 742.96 901.593 C 745.702 885.291 754.052 867.596 767.787 857.823 z"/>
<path transform="translate(0,0)" fill="rgb(188,186,177)" d="M 816.489 855.719 C 817.391 864.227 816.874 872.783 817.812 881.302 C 823.408 932.096 897.784 996.2 939.283 1023.29 C 958.717 1035.97 979.58 1046.52 1000.8 1055.87 C 1008.65 1059.33 1016.62 1062.72 1024.72 1065.54 C 1034.11 1068.79 1057.52 1073.37 1064.22 1078.71 L 1063.66 1079.88 L 1060.7 1079.55 A 332.14 332.14 0 0 1 951.203 1052.77 C 898.823 1030.13 838.886 981.134 817.891 927.252 C 808.654 903.547 806.027 879.33 816.489 855.719 z"/>
<path transform="translate(0,0)" fill="rgb(245,244,241)" d="M 531.12 1046.52 C 540.089 1050.54 548.491 1058.28 557.286 1063.18 C 609.526 1092.31 697.448 1091.88 755.473 1082.63 C 774.497 1079.6 792.847 1074.59 811.338 1069.27 C 820.689 1074.7 830.42 1079.1 840.385 1083.26 L 832.137 1086.99 C 763.431 1115.03 680.526 1123.92 608.26 1105.61 C 582.969 1099.2 568.104 1089.32 550.258 1070.45 C 543.217 1063 536.415 1055.33 531.12 1046.52 z"/>
<path transform="translate(0,0)" fill="rgb(245,244,241)" d="M 839.5 829.827 C 839.611 831.312 839.685 830.762 839.373 832.122 C 836.043 846.666 837.042 857 842.767 870.582 C 867.052 928.2 916.934 978.507 971.731 1007.84 C 997.591 1021.69 1025.62 1031.93 1052.74 1043.01 C 1053.21 1043.66 1053.67 1044.32 1054.11 1045 C 1057.08 1049.61 1065.66 1066 1064.5 1071.04 L 1058.91 1069.58 C 999.55 1050.76 953.3 1028.83 905.643 987.841 C 872.624 959.444 829.991 916.168 826.942 870.869 C 825.906 855.472 829.134 841.674 839.5 829.827 z"/>
<path transform="translate(0,0)" fill="rgb(245,244,241)" d="M 773.02 652.063 C 778.172 655.487 786.948 660.809 788.761 666.855 C 784.496 673.07 766.36 677.819 759.071 681.37 C 735.431 692.888 709.572 712.139 701.134 738.222 C 697.192 750.406 699.198 762.411 704.96 773.601 C 718.998 800.863 753.015 818.494 781.115 827.09 C 794.729 831.254 808.756 833.862 822.321 838.228 C 815.034 838.422 807.692 837.611 800.432 837.036 C 787.024 836.948 775.598 839.142 763.04 843.787 A 321.319 321.319 0 0 1 739.595 834.718 C 712.711 822.84 682.778 801.585 671.978 773.003 C 665.615 756.167 667.243 738.117 674.773 721.965 C 692.876 683.136 735.202 665.556 773.02 652.063 z"/>
<path transform="translate(0,0)" fill="rgb(245,244,241)" d="M 790.134 850.13 C 796.144 849.797 801.91 850.688 807.847 851.503 C 802.466 860.265 799.152 869.403 798.037 879.63 C 792.108 933.986 834.723 988.219 874.823 1020.25 C 894.174 1035.71 917.023 1048.99 939.354 1059.68 C 946.716 1063.21 987.823 1078.47 989.672 1080.79 C 989.477 1081.01 989.311 1081.26 989.086 1081.45 C 985.955 1084.1 979.323 1083.89 975.443 1083.87 A 273.426 273.426 0 0 1 936.319 1076.49 C 875.005 1060.01 819.655 1007.11 788.528 953.138 C 776.634 932.514 759.765 900.128 766.929 875.472 C 770.554 862.997 779.42 856.299 790.134 850.13 z"/>
<path transform="translate(0,0)" fill="rgb(245,244,241)" d="M 856.474 820.492 C 861.659 824.295 869.461 838.694 873.648 844.63 C 872.485 849.502 871.888 854.427 871.222 859.384 C 871.326 859.668 871.426 859.952 871.534 860.235 C 889.487 907.511 977.386 948.749 1022.07 968.985 C 1031.23 986.66 1041.47 1006.58 1047.66 1025.43 C 1048.32 1027.43 1048.74 1027.39 1047.77 1029.28 L 1043.99 1028.68 C 1015.87 1018.31 987.469 1005.83 961.801 990.253 C 920.078 964.926 858.997 904.036 847.767 855.844 C 844.218 840.614 848.619 832.952 856.474 820.492 z"/>
<path transform="translate(0,0)" fill="rgb(245,244,241)" d="M 786.674 696.959 C 789.982 702.096 792.474 716.308 795.383 723.097 C 805.863 747.553 824.251 768.092 842.932 786.587 C 842.703 796.456 844.016 802.529 848.379 811.384 C 839.277 815.773 830.928 821.21 822.791 827.17 C 811.091 824.465 799.445 822.502 787.944 818.919 C 767.842 812.471 731.406 796.791 720.835 777.812 C 717.345 771.547 717.245 764.743 719.323 757.984 C 728.473 728.211 761.185 710.728 786.674 696.959 z"/>
<path transform="translate(0,0)" fill="rgb(245,244,241)" d="M 518.522 939.848 C 519.577 939.999 518.99 939.786 520.064 940.912 C 517.665 944.124 515.238 946.774 511.811 948.934 C 501.11 955.681 488.053 960.434 476.569 965.886 C 440.611 982.957 403.95 998.708 367.651 1015.06 C 355.386 1020.58 337.78 1026.1 327.744 1035.08 C 327.17 1037.5 327.109 1038.82 328.337 1041.08 C 331.228 1046.42 338.397 1050.39 343.619 1053.22 C 363.762 1064.13 385.09 1073.52 405.688 1083.63 L 549.393 1154.26 L 647.938 1204.32 C 671.134 1216.26 695.983 1230.97 720.96 1238.58 C 736.304 1233.51 752.185 1221.75 766.248 1213.61 C 790.179 1199.77 814.402 1186.19 838.605 1172.83 L 944.2 1115.55 C 963.706 1105.16 986.278 1095.81 1003.85 1082.49 C 1010.01 1084.39 1016.25 1085.63 1022.57 1086.89 A 2423.06 2423.06 0 0 1 999.363 1101.06 C 970.321 1116.31 942.358 1133.42 913.475 1148.93 C 881.215 1166.25 848.054 1181.81 816.134 1199.8 A 2869.35 2869.35 0 0 0 760.804 1232.22 C 749.867 1238.74 738.86 1246.23 727.163 1251.27 C 713.545 1246.39 699.98 1238.14 686.928 1231.74 L 585.107 1181.22 L 375.318 1078.11 C 348.905 1065.16 321.543 1053.93 295.497 1040.29 C 368.859 1004.81 444.827 974.684 518.522 939.848 z"/>
<path transform="translate(0,0)" fill="rgb(245,244,241)" d="M 711.341 880.438 C 716.189 880.447 721.073 880.724 725.922 880.873 L 718.036 903.187 C 689.058 904.995 660.967 907.335 633.075 916.282 C 603.433 925.79 571.058 945.577 556.64 974.279 C 550.947 985.612 548.491 998.792 552.924 1011 C 558.477 1026.29 572.709 1035.84 586.841 1042.4 C 637.387 1065.88 722.531 1063.35 774.995 1043.91 C 782.71 1051.09 791.42 1057.4 800.244 1063.14 L 786.063 1067.1 A 342.257 342.257 0 0 1 732.742 1076.37 C 669.938 1081.89 588.195 1081.66 537.834 1038.73 C 526.75 1029.28 519.944 1016.69 519.058 1002.02 C 517.902 982.862 527.718 963.505 540.188 949.498 C 571.668 914.137 663.901 883.334 711.341 880.438 z"/>
<path transform="translate(0,0)" fill="rgb(245,244,241)" d="M 696.802 935.42 C 701.78 934.812 707.104 934.872 712.128 934.632 C 716.365 978.973 735.948 1009.31 769.348 1037.82 C 727.336 1047.1 683.76 1052.94 640.76 1047.48 C 613.819 1044.39 583.298 1036.21 564.945 1015.04 C 567.554 1004.38 572.976 993.751 579.99 985.311 C 607.511 952.19 655.774 939.414 696.802 935.42 z"/>
<path transform="translate(0,0)" fill="rgb(188,186,177)" d="M 392.485 453.534 C 407.704 456.41 423.526 462.863 438.323 467.69 C 429.003 565.505 434.06 665.549 447.321 762.755 C 452.31 799.323 459.733 835.448 464.978 871.978 C 447.295 879.439 429.651 886.279 411.388 892.194 C 399.229 884.608 385.449 880.602 371.993 875.922 C 380.156 868.034 388.795 862.704 394.93 852.811 C 396.964 822.547 372.755 831.851 365.811 820.253 L 368.102 817.745 C 375.434 812.829 383.279 808.179 388.558 800.916 C 391.115 797.399 392.943 792.999 391.932 788.598 C 388.976 775.72 367.378 769.704 357.104 763.672 C 365.823 758.48 380.923 750.486 385.655 741.32 C 387.096 738.528 387.194 735.917 386.216 732.968 C 382.903 722.984 369.518 718.793 361.338 714.135 C 359.243 712.942 357.519 712.17 356.826 709.778 C 360.627 699.628 378.208 696.819 383.881 686.251 C 385.489 683.256 385.645 679.975 384.501 676.788 C 380.373 665.289 365.867 659.63 355.704 655.012 C 362.728 649.903 370.769 645.893 377.099 639.879 C 380.679 636.478 384.361 631.632 383.857 626.377 C 382.697 614.281 362.197 605.857 353.545 599.418 L 352.495 598.625 C 362.499 593.481 377.588 589.183 384.129 579.385 C 386.007 576.571 386.964 573.401 386.265 570.012 C 383.906 558.586 365.713 550.009 356.441 544.346 C 366.314 539.341 380.968 533.698 387.35 524.429 C 389.619 521.134 390.49 517.324 389.556 513.407 C 386.797 501.836 372.61 494.814 363.344 488.79 C 372.999 483.931 385.227 480.824 393.38 473.526 C 396.123 471.07 398.335 467.895 398.26 464.057 C 398.171 459.488 395.372 456.688 392.485 453.534 z"/>
<path transform="translate(0,0)" fill="rgb(245,244,241)" d="M 502.746 965.005 C 504.388 967.67 499.186 982.751 498.28 987.221 C 481.606 993.285 464.03 1002.11 452.891 1016.44 C 448.715 1021.81 445.788 1028.16 446.957 1035.08 C 448.061 1041.62 452.696 1046.85 457.713 1050.86 C 468.974 1059.87 483.567 1065.81 496.428 1072.16 C 543.623 1095.47 592.333 1115.19 640.582 1136.17 C 657.185 1143.39 675.915 1149.82 690.919 1159.95 L 692.245 1160.85 C 701.387 1157.06 710.108 1151.39 718.811 1146.64 C 736.124 1137.2 753.926 1127.66 771.892 1119.52 C 783.568 1114.23 796.791 1111.04 808.967 1106.95 C 824.73 1101.65 839.745 1095.43 854.898 1088.6 C 882.657 1100.97 912.554 1101.58 942.209 1104.43 C 929.481 1112.97 915.357 1119.97 901.905 1127.29 L 840.495 1160.85 A 3311.43 3311.43 0 0 0 779.722 1194.79 C 759.678 1206.35 739.846 1218.62 718.777 1228.25 C 700.243 1221.65 681.815 1210.09 664.323 1201.05 L 571.013 1153.9 L 408.224 1073.51 C 385.004 1062.02 360.764 1051.68 338.166 1039.05 C 393.424 1015.27 447.39 988.418 502.746 965.005 z"/>
<path transform="translate(0,0)" fill="rgb(188,186,177)" d="M 464.277 475.632 C 490.987 485.476 517.252 498.425 542.768 510.995 C 594.977 536.714 644.837 564.308 693.93 595.599 C 714.019 608.404 735.293 621.024 753.101 636.937 A 192.884 192.884 0 0 0 687.535 677.76 C 660.481 702.999 649.78 729.229 648.553 765.964 C 648.133 776.665 649.039 787.456 650.491 798.049 C 596.599 817.865 543.9 840.82 489.936 860.522 C 482.488 828.507 477.626 795.479 473.063 762.947 C 459.789 668.304 453.324 570.932 464.277 475.632 z"/>
<path transform="translate(0,0)" fill="rgb(188,186,177)" d="M 658.035 819.974 C 658.315 819.929 658.592 819.847 658.876 819.837 C 659.13 819.828 661.379 819.969 661.389 819.977 C 663.672 821.773 673.231 839.373 676.006 843.216 C 681.089 850.256 686.763 855.911 693.291 861.608 C 664.439 864.808 635.064 873.436 607.794 883.197 C 576.357 894.45 551.7 913.298 522.093 927.496 C 496.563 939.739 470.148 950.493 444.187 961.824 A 3181.28 3181.28 0 0 0 344.698 1006.73 C 326.929 1014.95 307.715 1022.05 290.724 1031.71 C 287.329 1033.64 283.633 1035.69 281.905 1039.34 C 282.211 1040.4 282.342 1041.09 282.996 1042.08 C 288.086 1049.73 375.493 1089.79 390.926 1097.16 A 12394.3 12394.3 0 0 1 520.425 1161.2 L 631.907 1215.34 C 650.705 1224.69 669.665 1233.93 688.283 1243.62 C 700.768 1250.11 713.707 1258.72 727.094 1262.98 C 765.85 1241.98 802.747 1217.65 841.72 1196.87 C 866.628 1183.6 891.988 1171.22 916.989 1158.14 C 936.032 1148.17 954.644 1137.35 973.494 1127.03 C 995.007 1115.24 1016.79 1103.88 1037.32 1090.42 C 1049.41 1092.11 1061.39 1094.37 1073.39 1096.58 A 1124.35 1124.35 0 0 1 1087.41 1143.06 C 1067.37 1157.49 1038.55 1171 1016.33 1182.43 C 981.253 1199.33 947.734 1219.14 913.525 1237.69 L 748.469 1326.74 C 745.097 1322.27 741.473 1317.32 737.178 1313.7 C 728.254 1306.19 723.338 1310.67 713.318 1310.87 C 695.84 1311.2 696.623 1294.89 687.738 1287.45 C 678.756 1279.92 664.683 1281.43 653.872 1282.02 C 642.899 1272.68 637.581 1259.79 624.766 1252.1 C 613.258 1251.21 601.474 1253.5 590.091 1255.04 C 582.636 1246.69 578.043 1235.33 569.484 1228.12 C 560.753 1220.76 550.894 1225.76 541.001 1226.46 C 523.085 1227.74 526.44 1207.94 517.286 1200.03 C 506.931 1191.09 489.786 1193.6 477.138 1194.34 C 473.07 1187.14 469.265 1179.55 463.24 1173.76 C 453.146 1164.05 446.536 1170.65 435.067 1170.69 C 411.303 1170.76 419.946 1154.22 410.761 1146.28 C 403.262 1139.81 386.554 1143.04 377.443 1144.14 C 373.213 1137.28 369.044 1130.15 363.304 1124.42 C 351.498 1112.64 347.712 1117.72 333.377 1117.25 C 312.589 1116.57 318.85 1101.39 312.466 1095.45 C 304.285 1087.83 285.469 1089.97 275.036 1090.05 C 271.753 1085.8 269.591 1080.69 266.027 1076.67 C 258.721 1068.41 246.938 1069.8 236.885 1069.29 C 235.262 1065.97 233.686 1062.29 231.522 1059.28 C 225.584 1051.04 214.722 1050.87 205.595 1049.69 C 197.794 1016.67 172.268 1035.9 161.291 1023.61 C 173.933 1015.68 190.35 1010.29 204.096 1004.25 A 4353.76 4353.76 0 0 1 313.776 957.842 A 27765.1 27765.1 0 0 1 658.035 819.974 z"/>
<path transform="translate(0,0)" fill="rgb(245,244,241)" d="M 1375.82 100.569 C 1480.78 92.8553 1603.59 159.373 1685.99 219.451 C 1770.03 280.723 1863.94 365.243 1897.69 466.472 C 1909.56 502.076 1914.17 540.392 1921.3 577.185 C 1925.69 599.845 1932.11 622.304 1935.67 645.079 C 1911.4 667.879 1880.04 685.212 1851.85 702.732 C 1826.34 718.585 1801.59 735.617 1776.06 751.4 C 1757.35 762.97 1737.98 773.618 1718.82 784.429 C 1679.72 806.493 1638.7 824.4 1602.15 850.879 C 1538.48 897.019 1498.15 968.398 1434.39 1015.21 A 360.415 360.415 0 0 1 1368.9 1053.18 C 1321.97 1074.33 1273.52 1088.53 1233.22 1122.28 C 1192.07 1156.74 1176.22 1204.95 1130.27 1238.82 C 1128.04 1216.28 1124.98 1194.43 1120.21 1172.27 C 1114.22 1141.47 1104.61 1111.18 1094.71 1081.45 A 1020.69 1020.69 0 0 0 870.385 709.382 C 837.656 674.592 804.331 643.141 765.682 614.909 A 1413.53 1413.53 0 0 0 562.698 493.398 C 540.565 482.294 517.764 472.597 495.596 461.542 C 525.614 459.149 561.746 449.076 592.094 443.525 C 669.582 429.353 739.44 423.786 813.367 391.956 C 866.556 369.055 898.844 331.584 946.691 303.531 C 983.841 281.75 1025.03 267.177 1064.67 250.65 A 1330.6 1330.6 0 0 0 1166.35 202.038 C 1208.31 179.391 1238.54 141.779 1282.59 121.971 C 1312.69 108.44 1342.96 101.963 1375.82 100.569 z"/>
<path transform="translate(0,0)" fill="rgb(70,64,64)" d="M 1818.43 410.614 C 1819.83 410.944 1821.04 411.326 1822.25 412.157 C 1839.94 424.328 1858.7 471.887 1862.84 492.858 L 1860.72 492.411 C 1851.31 485.037 1836.9 445.08 1830.42 431.864 C 1826.83 424.546 1822.67 417.565 1818.43 410.614 z"/>
<path transform="translate(0,0)" fill="rgb(70,64,64)" d="M 1385.7 138.913 C 1386.19 138.892 1386.67 138.855 1387.16 138.851 C 1397.31 138.771 1418.05 148.279 1428.18 152.286 C 1510.46 184.823 1621.83 246.181 1686.56 306.266 C 1742.4 358.108 1789.17 424.209 1815.74 495.878 C 1821.45 511.274 1825.61 527.396 1829.87 543.235 C 1836.17 566.626 1842.23 590.512 1843.18 614.815 C 1829.67 627.698 1809.84 637.466 1794.09 647.651 C 1778.07 658.007 1762.54 669.044 1746.6 679.491 C 1728.77 691.165 1710.6 702.293 1693.05 714.375 C 1666.75 732.481 1644.35 755.732 1616.56 771.699 C 1591.4 786.156 1564.61 796.99 1538.8 810.129 A 445.697 445.697 0 0 0 1485.64 842.597 C 1441.7 873.22 1404.54 912.327 1369.3 952.327 C 1355.75 967.705 1343.98 986.476 1327.88 999.238 C 1309.09 1014.13 1283 1020.84 1261.41 1031.16 C 1240.66 1041.08 1220.79 1052.61 1200.6 1063.58 C 1199.08 1064.07 1197.07 1064.92 1195.49 1065 C 1187.67 1065.36 1185.44 1050.35 1183.66 1044.63 C 1175.32 1017.66 1162.84 992.271 1150.64 966.88 C 1130.5 924.952 1108.66 882.076 1083.59 842.851 C 1017.88 740.026 940.981 638.786 840.505 567.628 C 820.13 553.198 797.586 538.869 775.205 527.817 C 767.608 524.066 751.522 521.327 746.405 515.055 C 744.869 513.172 744.194 511.022 744.793 508.624 C 746.252 502.788 754.818 498.386 759.77 495.957 C 835.611 458.755 913.965 424.8 986.483 381.281 C 1024.56 358.428 1059.81 330.829 1097.14 306.668 C 1120.66 291.45 1145.01 277.997 1169.36 264.176 L 1271.05 206.19 C 1296.61 191.427 1321.81 175.951 1347.22 160.919 C 1359.9 153.42 1372.46 145.362 1385.7 138.913 z"/>
<path transform="translate(0,0)" fill="rgb(245,244,241)" d="M 1387.88 150.145 C 1453.31 172.587 1524.37 206.206 1582.64 243.62 C 1619.08 267.011 1654.32 291.561 1686.11 321.112 C 1743.49 374.447 1789.14 447.747 1811.92 522.641 A 521.051 521.051 0 0 1 1825.77 578.591 C 1827.59 588.351 1828.38 598.313 1830.54 607.989 L 1830.8 609.12 C 1778.81 643.545 1725.73 676.984 1674.76 712.884 C 1655.62 726.359 1639.92 744.089 1619.99 756.429 C 1593.5 772.836 1565.03 784.422 1537.22 798.248 A 418.187 418.187 0 0 0 1475.98 835.477 C 1434.06 866.182 1398.63 903.535 1364.18 942.156 C 1348.8 959.403 1334.87 981.414 1316.09 994.913 C 1301.37 1005.49 1281.19 1010.14 1264.67 1017.69 C 1242.79 1027.71 1221.56 1039.31 1200.38 1050.71 L 1198.5 1050.46 C 1194.5 1043.88 1192.55 1034.21 1189.64 1026.87 C 1183.13 1010.47 1175.86 994.274 1168.58 978.198 A 1314.71 1314.71 0 0 0 1092.74 836.864 A 1260.81 1260.81 0 0 0 1021.52 734.075 C 1006.89 714.924 992.404 695.631 976.662 677.369 C 931.4 624.861 877.316 576.342 818.145 540.023 C 798.581 528.015 779.143 515.109 756.59 509.682 C 775.763 497.632 797.978 489.975 818.385 480.236 C 865.605 457.701 913.447 434.935 959.396 409.9 C 1020.01 376.873 1073.55 333.848 1132.53 298.254 C 1165.11 278.588 1198.59 260.809 1231.74 242.157 A 6303.73 6303.73 0 0 0 1332.36 183.437 C 1350.96 172.456 1369.77 161.916 1387.88 150.145 z"/>
<path transform="translate(0,0)" fill="rgb(70,64,64)" d="M 1318.64 504.828 C 1319.83 505.705 1320.63 506.474 1321.62 507.57 C 1347.24 535.927 1363.26 578.543 1366.82 616.256 C 1368.17 630.579 1367.49 644.728 1366.71 659.048 C 1365.79 659.557 1364.71 659.64 1363.69 659.843 C 1359.41 655.713 1358.14 625.747 1357.04 618.037 C 1353.39 592.533 1345.85 565.213 1335.54 541.64 C 1330.22 529.493 1322.41 517.471 1318.64 504.828 z"/>
<path transform="translate(0,0)" fill="rgb(70,64,64)" d="M 1211.01 786.392 C 1223.98 790.028 1279.77 864.338 1292.55 879.531 C 1297.6 885.547 1303.47 890.758 1308.62 896.677 L 1307.75 898.152 C 1307.41 898.088 1307.07 898.029 1306.74 897.961 L 1305.06 897.607 C 1299.83 896.537 1295.64 894.885 1291.05 892.153 C 1260.63 874.042 1234.1 840.065 1217.51 809.394 C 1214.72 804.234 1210.23 797.46 1209.08 791.712 C 1208.58 789.19 1209.68 788.426 1211.01 786.392 z"/>
<path transform="translate(0,0)" fill="rgb(70,64,64)" d="M 1102.87 723.02 C 1103.78 723.314 1104.08 723.362 1105.01 723.941 C 1114.46 729.86 1133.44 750.318 1142.47 759.257 C 1182.49 798.915 1221 836.762 1248.95 886.337 C 1255.19 897.392 1261.46 908.547 1265.05 920.781 C 1263.63 920.607 1261.99 920.463 1260.67 919.888 C 1250.13 915.297 1130.63 766.015 1115.39 744.619 C 1110.71 738.052 1105.19 730.831 1102.87 723.02 z"/>
<path transform="translate(0,0)" fill="rgb(70,64,64)" d="M 1636.9 342.036 C 1638.12 342.037 1639.2 342.051 1640.4 342.336 C 1665.34 348.287 1715.29 392.193 1732.6 411.39 A 203.385 203.385 0 0 1 1760.55 450.284 C 1786 495.759 1796.65 552.518 1782.43 603.416 C 1781.94 604.466 1781.18 605.271 1780.46 606.171 C 1776.91 602.262 1774.49 576.803 1773.08 569.661 C 1765.95 533.363 1758.36 499.675 1742.04 466.172 C 1729.28 439.959 1712.52 416.377 1692.92 394.871 C 1685.42 386.644 1677.54 378.435 1669.38 370.874 C 1662.09 364.123 1640.28 349.755 1636.9 342.036 z"/>
<path transform="translate(0,0)" fill="url(#Gradient2)" d="M 1091.7 464.356 C 1136.96 459.761 1212.28 475.378 1253.24 494.649 C 1287.84 510.928 1314.38 534.866 1327.27 571.569 C 1330.93 582.002 1333.44 592.984 1335.19 603.892 C 1337.59 618.833 1343.05 677.481 1335.68 689.027 C 1333.94 691.754 1333.18 691.621 1330.18 692.31 C 1330.03 692.021 1329.89 691.731 1329.73 691.443 C 1326.28 684.899 1329.35 661.084 1329.06 652.929 C 1328.77 644.92 1327.86 636.753 1326.63 628.839 C 1312.76 539.491 1215.46 496.03 1135.99 479.418 C 1124.69 477.056 1087.31 472.705 1080.78 467.905 L 1081.05 466.646 C 1084.13 464.884 1088.2 464.792 1091.7 464.356 z"/>
<path transform="translate(0,0)" fill="rgb(70,64,64)" d="M 1305.03 269.405 C 1318.75 268.188 1333.77 270.33 1346.93 274.245 C 1382.1 284.704 1406.81 311.306 1423.6 342.991 C 1460.58 412.758 1473.11 497.795 1468.54 575.83 C 1467.85 587.52 1466.95 599.273 1465.3 610.868 C 1463.68 622.293 1460.86 634.519 1461.08 646.088 C 1461.22 653.631 1464.27 661.676 1465.1 669.312 C 1468.5 700.338 1470.23 734.296 1461 764.364 C 1458.59 754.943 1457.54 745.029 1455.98 735.434 L 1448.27 690.119 C 1439.66 723.852 1431.12 765.717 1403.74 789.667 C 1393.75 798.404 1380.5 803.672 1367.11 802.527 C 1354.29 801.43 1342.3 793.727 1334.25 783.942 C 1323.42 770.777 1319.21 753.18 1321.18 736.409 C 1323.32 718.128 1332.46 706.467 1346.38 695.446 C 1350.1 693.269 1353.68 692.214 1357.79 691.07 C 1372.73 649.218 1381.11 605.624 1380.77 561.087 A 512.948 512.948 0 0 0 1271.69 436.005 C 1260.49 426.697 1242.21 416.854 1233.06 407.844 L 1233.44 406.293 C 1234.61 405.951 1234.8 405.82 1236.2 405.84 C 1243.2 405.942 1253.3 411.214 1259.52 414.205 C 1306.92 436.995 1344.5 473.526 1379.86 511.565 C 1377.79 469.487 1372.65 429.259 1359.61 389.084 C 1334.51 389.283 1308.02 382.269 1287.52 367.39 C 1272.17 356.238 1260.08 339.218 1257.46 320.122 C 1255.87 308.479 1258.06 296.062 1265.48 286.698 C 1275.21 274.417 1290.28 270.907 1305.03 269.405 z"/>
<path transform="translate(0,0)" fill="rgb(245,244,241)" d="M 1308.62 294.401 C 1317.87 293.484 1328.58 294.866 1337.57 297.237 C 1365.65 304.635 1383.81 325.536 1397.73 349.892 C 1437.11 418.79 1449.74 509.566 1442.43 587.949 C 1439.14 623.237 1431.14 658.795 1421.74 692.918 C 1415.54 715.44 1401.44 766.742 1380.72 777.678 C 1376.06 780.132 1370.69 780.696 1365.7 778.95 C 1357.73 776.161 1351.99 768.467 1348.85 760.935 C 1344.31 750.049 1344.24 738.97 1348.58 728.105 L 1349.11 726.806 C 1350.92 724.388 1352.88 722.065 1354.78 719.716 C 1360.61 717.649 1366.3 716.927 1372.41 716.183 C 1375.24 713.323 1377.41 709.976 1379.29 706.43 C 1384.65 696.323 1387.86 685.143 1391.03 674.201 C 1395.02 660.44 1398.61 646.609 1400.79 632.43 C 1411.87 560.395 1405.69 454.652 1384.59 384.914 C 1378.25 363.961 1367.1 327.874 1345.98 317.377 C 1342.18 315.488 1336.26 314.269 1332.2 316.112 C 1329.95 317.137 1328.36 318.406 1327.62 320.873 C 1324.88 330.083 1338.07 343.767 1342.73 351.05 C 1345.52 355.399 1347.73 360.288 1350.05 364.904 C 1337.96 362.788 1325.84 359.295 1314.65 354.211 C 1302.13 348.515 1288.23 338.377 1283.63 324.879 C 1280.48 315.619 1282.99 307.814 1287.03 299.417 C 1294.15 296.192 1300.95 295.156 1308.62 294.401 z"/>
</svg>