<svg version="1.1" xmlns="http://www.w3.org/2000/svg" style="display: block;" viewBox="0 0 2048 2048" width="1024" height="1024">
<path transform="translate(0,0)" fill="rgb(254,254,254)" d="M 0 0 L 2048 0 L 2048 2048 L 0 2048 L 0 0 z"/>
<path transform="translate(0,0)" fill="rgb(6,13,28)" d="M 1034.67 90.4024 C 1057.76 86.001 1091.43 95.0267 1112.54 104.105 C 1191.19 137.923 1245.32 213.933 1280.74 289.035 C 1302.85 335.897 1316.2 385.807 1328.93 435.832 L 1365.39 584.293 A 12423.3 12423.3 0 0 0 1451.91 909.018 L 1500 1078.91 L 1557.51 1282.77 C 1570.29 1327.1 1581.63 1371.3 1598.3 1414.41 C 1612.51 1451.16 1630.43 1487.18 1653.87 1518.96 C 1690.47 1568.57 1731.07 1592.58 1781.63 1625.19 L 1864.17 1679.08 L 1939.32 1728.03 C 1952.79 1736.66 1967.49 1744.61 1980.21 1754.27 C 1982.99 1756.38 1986.72 1759.6 1987.6 1763.18 C 1988.2 1765.65 1987.55 1766.55 1986.31 1768.49 C 1976.05 1774.44 1904.89 1784.87 1888.78 1787.78 A 11947 11947 0 0 1 1742.71 1814.35 L 977.216 1950.86 C 971.923 1951.82 966.586 1952.59 961.272 1953.43 L 831.903 1855.07 C 799.463 1830.42 765.066 1806.22 736.631 1776.91 C 708.982 1748.4 687.819 1714.81 671.477 1678.72 C 644.437 1619 628.987 1552.89 612.007 1489.78 A 13904.1 13904.1 0 0 0 539.514 1224.37 C 498.656 1233.18 456.615 1238.72 415.386 1245.78 C 383.442 1251.25 351.169 1258.74 319.009 1262.45 C 298.756 1264.78 280.26 1255.09 264.825 1242.81 C 145.944 1148.22 86.581 819.831 70.2874 670.131 C 58.4739 561.593 52.5212 350.138 124.296 261.698 C 136.763 246.336 152.245 234.913 171.407 229.448 C 184.051 225.842 197.729 224.464 210.72 222.44 L 280.991 211.777 L 502.566 176.213 L 815.522 125.888 L 947.58 104.373 C 976.473 99.5521 1005.55 93.4518 1034.67 90.4024 z"/>
<path transform="translate(0,0)" fill="rgb(254,254,254)" d="M 489.465 1037.8 C 493.109 1043.34 499.715 1073.43 501.606 1081.33 C 499.88 1083.19 498.206 1083.13 495.8 1083.7 L 482.544 1086 C 485.776 1070.11 487.444 1053.89 489.465 1037.8 z"/>
<path transform="translate(0,0)" fill="rgb(254,254,254)" d="M 524.602 1186.33 C 526.479 1185.91 527.248 1185.85 529.031 1186.6 C 532.514 1193.03 533.775 1200.99 535.616 1208.06 L 414.23 1228.06 L 402.693 1229.32 C 414.244 1221.27 423.445 1211.64 432.967 1201.39 C 444.921 1200.74 456.994 1198.13 468.776 1196.07 L 524.602 1186.33 z"/>
<path transform="translate(0,0)" fill="rgb(3,6,17)" d="M 976.823 125.797 C 985.973 123.454 1008.82 130.413 1018.12 133.324 C 1022.21 134.606 1024.8 136.221 1029.23 136.391 L 1029.84 139.453 C 1027.75 142.023 1024.47 142.518 1021.35 143.044 C 1009.42 145.052 997.303 145.793 985.359 147.631 L 813.88 172.961 L 689.241 192.648 C 679.868 194.077 670.302 194.472 660.89 195.666 C 655.723 196.321 650.748 198.101 645.621 198.703 C 589.645 205.276 533.929 215.697 478.27 224.765 L 329.372 247.818 C 312.441 250.524 294.625 254.649 277.554 255.868 C 272.484 256.231 267.998 251.13 263.402 252.224 C 270.608 260.867 280.394 267.232 288.18 276.261 C 312.768 304.775 332.223 339.712 348.254 373.661 C 377.584 435.775 399.823 502.484 420.463 567.909 C 458.9 689.744 489.561 813.807 524.406 936.689 A 9388.54 9388.54 0 0 1 584.337 1156.75 L 598.79 1210.85 C 601.306 1220.24 604.672 1230.21 605.933 1239.82 L 604.767 1240.73 C 600.897 1232.83 597.246 1212.11 594.684 1202.34 L 565.471 1091.11 L 481.99 790.073 C 452.599 682.489 424.019 575.014 385.465 470.216 C 368.684 424.601 351.049 378.985 327.031 336.605 C 303.818 295.645 279.646 263.538 238.711 238.521 L 242.954 234.137 C 253.413 241.207 264.53 247.374 274.366 255.322 C 298.035 249.551 323.544 247.089 347.668 243.298 L 490.634 220.699 A 40597.7 40597.7 0 0 1 1030.37 139.89 C 1013.1 132.949 995.142 128.782 976.823 125.797 z"/>
<path transform="translate(0,0)" fill="rgb(5,53,107)" d="M 500.68 1089.26 L 503.351 1089.32 C 505.916 1093.11 525.538 1168.62 528.17 1178.3 A 5308.59 5308.59 0 0 0 464.23 1189.03 C 455.686 1190.25 447.235 1192.02 438.772 1193.71 C 459.031 1161.54 472.213 1129.34 481.603 1092.48 C 487.977 1091.81 494.371 1090.4 500.68 1089.26 z"/>
<path transform="translate(0,0)" fill="rgb(254,254,254)" d="M 432.212 835.818 C 432.583 836.229 433.014 836.593 433.326 837.051 C 439.818 846.56 480.879 1003.89 481.759 1019.12 C 483.203 1044.11 477.84 1073.75 471.906 1098.06 C 459.975 1146.94 434.954 1200.36 390.484 1227.29 C 380.295 1232.59 369.522 1235.82 358.542 1239 C 365.987 1231.23 373.346 1223.45 380.003 1214.97 C 440.417 1138.03 442.587 1013.86 438.324 920.579 C 437.033 892.316 435.658 863.909 432.212 835.818 z"/>
<path transform="translate(0,0)" fill="rgb(5,53,107)" d="M 242.954 234.137 L 242.822 233.9 L 243.681 233.023 C 299.453 225.761 355.117 216.298 410.68 207.545 L 743.323 154.841 C 790.684 147.555 837.897 139.003 885.329 132.274 C 904.962 129.489 925.247 125.855 945.028 124.958 C 955.537 124.481 966.287 125.64 976.823 125.797 C 995.142 128.782 1013.1 132.949 1030.37 139.89 A 40597.7 40597.7 0 0 0 490.634 220.699 L 347.668 243.298 C 323.544 247.089 298.035 249.551 274.366 255.322 C 264.53 247.374 253.413 241.207 242.954 234.137 z"/>
<path transform="translate(0,0)" fill="rgb(5,53,107)" d="M 1509.8 1372.38 L 1513 1372.15 C 1514.1 1372.88 1514.81 1373.51 1515.34 1374.75 C 1518.43 1382.01 1520.38 1390.27 1522.85 1397.79 A 938.353 938.353 0 0 0 1537.7 1439.7 C 1544.76 1457.88 1552.85 1475.69 1560.9 1493.46 A 8805.8 8805.8 0 0 1 1388.35 1524.37 L 1089.31 1578.01 A 14142.3 14142.3 0 0 1 849.051 1620.73 C 812.632 1627.09 776.218 1634.55 739.615 1639.7 C 737.591 1640.11 735.609 1640.35 733.555 1640.55 C 724.803 1633.5 694.297 1538.37 688.598 1520.29 C 801.282 1503.45 913.587 1480.82 1025.64 1460.18 L 1509.8 1372.38 z"/>
<path transform="translate(0,0)" fill="rgb(5,53,107)" d="M 1427.4 1081.28 L 1429.54 1081.04 C 1435.88 1085.7 1463.46 1188.33 1468.48 1205.51 C 1425.93 1210.91 1383.43 1219.05 1341.17 1226.4 A 22206.7 22206.7 0 0 0 1097.23 1270.45 L 782.321 1326.46 A 10136.6 10136.6 0 0 0 649.211 1349.97 C 646.489 1350.63 644.511 1351.23 641.716 1350.44 C 637.008 1339.04 634.536 1325.94 631.395 1313.97 C 623.859 1285.26 617.176 1256.02 608.464 1227.66 C 634.136 1221.16 668.985 1216.89 695.827 1212.33 A 11097.1 11097.1 0 0 0 838.633 1186.73 L 1208.98 1120.51 C 1281.85 1107.57 1354.68 1095.12 1427.4 1081.28 z"/>
<path transform="translate(0,0)" fill="rgb(254,254,254)" d="M 1461.84 1213.37 C 1464.7 1212.89 1466.95 1212.33 1469.75 1213.41 C 1475.19 1226.17 1477.51 1241.81 1481.2 1255.34 C 1491.12 1291.74 1500.38 1328.39 1511.28 1364.51 C 1474.89 1372.62 1437.73 1378.18 1401.05 1384.94 A 16774 16774 0 0 1 1156.03 1429.1 C 1002.75 1456.65 849.739 1487.19 695.957 1511.75 C 693.63 1512.13 691.314 1512.36 688.969 1512.6 C 688.441 1512.29 687.827 1512.09 687.384 1511.67 C 683.847 1508.29 648.145 1372.63 644.305 1358.02 C 685.917 1349.13 728.499 1343.15 770.431 1335.79 L 1006.27 1293.92 L 1298.42 1241.53 C 1352.8 1231.88 1407.21 1221.47 1461.84 1213.37 z"/>
<path transform="translate(0,0)" fill="rgb(254,254,254)" d="M 965.919 118.033 C 1031.39 110.132 1063.58 93.2224 1126.54 129.552 C 1184.02 162.726 1230.73 223.86 1259.29 282.983 C 1304.76 377.108 1321.6 481.433 1347.36 581.974 A 17240.8 17240.8 0 0 0 1500.06 1142.81 L 1544.35 1299.29 C 1556.38 1341.43 1568 1384.01 1584.18 1424.78 C 1599.2 1462.64 1617.94 1498.27 1642.07 1531.15 C 1654.46 1548.05 1668.89 1564.39 1684.7 1578.12 C 1713.2 1602.89 1746.51 1622.77 1777.95 1643.55 L 1953.77 1758.45 C 1911.41 1764.64 1869.34 1773.74 1827.22 1781.45 L 1601.34 1822.26 L 966.249 1935.62 C 956.174 1929.15 947 1921.26 937.504 1913.99 L 887.451 1875.97 L 817.299 1822.59 C 780.141 1794.13 742.694 1765.9 716.593 1726.23 C 671.251 1657.32 653.595 1575.37 631.878 1496.96 L 571.88 1275.12 L 452.981 829.528 A 4355.63 4355.63 0 0 0 423.87 725.549 C 418.093 706.448 410.491 687.508 405.603 668.199 C 395.422 627.979 388.428 586.881 378.283 546.581 C 355.676 456.775 319.188 333.76 251.693 267.185 C 240.064 255.714 227.426 246.789 213.477 238.45 C 221.935 237.053 230.744 234.385 238.711 238.521 C 279.646 263.538 303.818 295.645 327.031 336.605 C 351.049 378.985 368.684 424.601 385.465 470.216 C 424.019 575.014 452.599 682.489 481.99 790.073 L 565.471 1091.11 L 594.684 1202.34 C 597.246 1212.11 600.897 1232.83 604.767 1240.73 C 617.474 1297.47 634.707 1353.6 650.209 1409.66 C 671.262 1485.79 690.274 1564.47 722.953 1636.63 C 724.895 1640.92 727.147 1648.15 730.299 1651.33 C 733.92 1660.92 739.809 1670.65 744.911 1679.55 C 781.001 1742.51 839.042 1780.9 896.66 1822.23 C 921.482 1840.04 945.742 1858.62 970.514 1876.51 C 989.565 1871.76 1009.22 1868.88 1028.54 1865.38 L 1162.45 1842.2 L 1645.11 1755.91 L 1752.67 1736.55 C 1777.34 1732.26 1802.92 1728.83 1827.12 1722.45 C 1799.07 1706.65 1772.02 1689.51 1744.97 1672.07 C 1693.93 1639.18 1647.21 1607.02 1609.48 1558.56 C 1595.57 1540.7 1584.88 1521.19 1573.29 1501.85 C 1561.98 1478.86 1551.17 1455.97 1541.97 1432.04 C 1521.35 1378.43 1506.97 1322.48 1492.2 1267.06 A 6449.39 6449.39 0 0 0 1455.74 1136.37 C 1437.81 1074.56 1416.56 1013.61 1397.87 951.997 C 1376 879.89 1356.6 806.667 1337.19 733.851 A 6492.36 6492.36 0 0 1 1295.02 568.983 C 1265.74 448.444 1239.89 329.269 1158.97 230.91 C 1109.77 171.106 1044.74 125.658 965.919 118.033 z"/>
<path transform="translate(0,0)" fill="rgb(3,6,17)" d="M 1567.42 1504.51 L 1568.27 1503.73 C 1586.01 1534 1602.14 1559.75 1625.3 1586.33 C 1629.23 1590.85 1633.9 1597.44 1639.29 1600.11 C 1641.35 1601.13 1642.35 1602.18 1643.9 1603.85 C 1644.13 1604.1 1644.36 1604.35 1644.59 1604.61 L 1646.49 1604.59 L 1647.71 1603.15 C 1632.9 1592.11 1592.89 1544.52 1586.37 1527.79 C 1582.9 1518.88 1575.72 1511.26 1571.7 1502.44 L 1573.29 1501.85 C 1584.88 1521.19 1595.57 1540.7 1609.48 1558.56 C 1647.21 1607.02 1693.93 1639.18 1744.97 1672.07 C 1772.02 1689.51 1799.07 1706.65 1827.12 1722.45 C 1802.92 1728.83 1777.34 1732.26 1752.67 1736.55 L 1645.11 1755.91 L 1162.45 1842.2 L 1028.54 1865.38 C 1009.22 1868.88 989.565 1871.76 970.514 1876.51 C 945.742 1858.62 921.482 1840.04 896.66 1822.23 C 839.042 1780.9 781.001 1742.51 744.911 1679.55 C 739.809 1670.65 733.92 1660.92 730.299 1651.33 C 732.022 1651.45 732.199 1651.9 733.534 1652.9 C 736.225 1652.88 736.039 1652.46 738.018 1650.85 L 738.599 1648.58 C 745.718 1644.95 758.094 1644.59 766.209 1643.1 L 862.327 1626.25 L 1225.47 1561.37 A 18879.4 18879.4 0 0 1 1444.84 1521.68 A 4266.8 4266.8 0 0 1 1524.24 1507.85 C 1536.31 1505.81 1548.94 1502.8 1561.1 1501.7 C 1564.74 1501.37 1564.89 1502.23 1567.42 1504.51 z"/>
<path transform="translate(0,0)" fill="rgb(5,53,107)" d="M 1655 1626.36 C 1657.7 1625.86 1660.87 1625.03 1663.5 1626.06 C 1671.75 1629.3 1704.09 1653.97 1714.04 1660.67 C 1744.29 1681.05 1775.59 1699.93 1805.93 1720.24 C 1735.29 1730.75 1664.97 1745.18 1594.62 1757.59 A 60151.9 60151.9 0 0 1 990.89 1864.61 C 984.71 1865.99 978.577 1866.89 972.298 1867.67 C 957.185 1858.03 943.031 1846.57 928.695 1835.81 C 900.298 1814.52 870.721 1791.92 841.43 1772 C 897.369 1760.69 953.95 1751.63 1010.12 1741.47 L 1332.4 1683.62 L 1524.26 1649.44 C 1567.76 1641.51 1611.23 1632.73 1655 1626.36 z"/>
<path transform="translate(0,0)" fill="rgb(254,254,254)" d="M 738.018 1650.85 L 738.599 1648.58 C 745.718 1644.95 758.094 1644.59 766.209 1643.1 L 862.327 1626.25 L 1225.47 1561.37 A 18879.4 18879.4 0 0 1 1444.84 1521.68 A 4266.8 4266.8 0 0 1 1524.24 1507.85 C 1536.31 1505.81 1548.94 1502.8 1561.1 1501.7 C 1564.74 1501.37 1564.89 1502.23 1567.42 1504.51 C 1569.83 1512.7 1575.81 1521.42 1580.35 1528.68 C 1601.6 1562.67 1626.02 1591.11 1655.46 1618.26 C 1637.13 1622.63 1618.34 1625.52 1599.81 1628.9 A 5550.69 5550.69 0 0 1 1504.66 1645.86 L 1279.4 1685.73 L 985.29 1738.51 C 934.691 1747.64 884.086 1757.42 833.291 1765.37 C 789.147 1732.17 763.929 1698.93 738.018 1650.85 z"/>
<path transform="translate(0,0)" fill="rgb(254,254,254)" d="M 174.738 247.269 C 182.615 246.721 189.949 247.526 197.452 250.001 C 240.407 264.166 277.674 324.742 297.038 363.651 C 340.113 450.201 363.332 548.821 382.908 642.997 C 398.655 718.754 411.961 796.31 418.586 873.47 C 423.102 926.074 424.752 982.789 420.732 1035.41 C 418.143 1069.31 412.016 1104.38 401.18 1136.64 C 388.185 1175.32 364.312 1222.58 326.033 1241.63 C 323.716 1242.59 321.379 1243.54 318.952 1244.18 C 308.228 1247.01 297.425 1244.05 287.994 1238.74 C 217.637 1199.1 165.768 1046.68 145.713 972.684 C 98.5766 798.776 61.9753 584.096 90.2398 404.941 C 96.4098 365.832 105.72 323.662 125.716 289.159 C 137.177 269.384 152.149 253.301 174.738 247.269 z"/>
<path transform="translate(0,0)" fill="rgb(6,13,28)" d="M 214.589 546.13 C 219.788 545.884 224.537 545.799 229.558 547.442 C 251.171 554.515 266.56 580.171 276.417 599.133 C 315.589 674.484 336.444 813.565 310.08 895.207 C 304.333 913.003 296.123 930.655 278.785 939.607 C 271.049 940.876 265.021 940.209 258.015 936.479 C 227.085 920.014 205.968 861.343 196.068 828.668 C 176.069 762.663 154.169 631.175 188.064 569.039 C 194.242 557.715 202.048 549.879 214.589 546.13 z"/>
<path transform="translate(0,0)" fill="rgb(154,154,153)" d="M 216.375 563.024 C 218.231 562.93 220.158 563.014 221.991 563.344 C 234.728 565.633 246.455 581.229 253.194 591.455 C 296.553 657.256 314.981 795.132 298.784 871.977 C 295.148 889.23 290.019 911.5 274.372 921.764 C 272.614 922.335 270.898 922.709 269.031 922.504 C 259.289 921.43 247.963 905.073 243.006 897.276 C 199.009 828.073 175.342 682.766 193.213 602.905 C 196.699 587.325 202.248 571.892 216.375 563.024 z"/>
<path transform="translate(0,0)" fill="rgb(254,254,254)" d="M 1038.09 146.357 C 1046.22 144.748 1060.44 155.384 1067.55 159.927 C 1188.18 236.99 1236.43 365.445 1269.98 498.388 A 3729.7 3729.7 0 0 1 1290.02 581.116 C 1256.59 592.533 1223.12 603.561 1188.58 611.15 C 1133.9 623.166 1078.71 628.19 1023.09 633.401 L 835.039 650.571 A 2426.21 2426.21 0 0 0 522.48 700.803 A 1928.56 1928.56 0 0 0 469.94 713.979 C 444.865 625.928 419.446 537.975 387.019 452.288 C 374.264 418.586 361.339 385.171 344.809 353.098 C 327.832 320.158 307.489 287.634 281.739 260.864 L 1038.09 146.357 z"/>
<path transform="translate(0,0)" fill="rgb(5,53,107)" d="M 698.258 198.232 C 721.214 207.756 822.433 312.988 843.439 336.786 C 891.814 331.402 940.15 323.856 988.444 317.592 C 1008.34 315.011 1028.42 311.67 1048.45 310.42 C 1029.55 327.384 1011.62 345.396 993.393 363.07 A 7057.95 7057.95 0 0 0 925.421 429.173 C 937.596 447.117 953.269 463.384 967.45 479.809 C 994.25 510.85 1021.47 541.788 1046.61 574.203 L 907.746 528.502 C 885.988 521.623 864.457 513.933 842.753 506.862 C 825.682 521.939 809.353 537.881 792.737 553.457 C 765.324 579.154 738.02 604.705 711.814 631.659 C 716.348 573.153 717.148 514.435 719.304 455.808 C 708.789 453.083 698.276 448.517 687.997 444.874 L 625.953 422.999 A 4512.13 4512.13 0 0 0 560.551 400.528 C 544.675 395.287 528.527 390.62 512.894 384.698 C 529.355 380.996 546.407 378.826 563.061 376.057 C 614.29 367.54 666.322 360.968 717.176 350.512 C 716.975 313.698 715.085 275.388 708.398 239.115 C 705.927 225.712 700.886 212.885 698.469 199.469 L 698.258 198.232 z"/>
<path transform="translate(0,0)" fill="rgb(254,254,254)" d="M 731.026 249.683 C 741.487 256.694 752.988 271.133 762.104 280.437 A 4935.02 4935.02 0 0 1 836.089 356.782 C 856.729 352.808 878.155 350.938 899.013 348.281 C 929.825 344.355 960.733 339.947 991.713 337.618 C 980.726 349.105 968.412 359.627 956.845 370.551 A 6012.6 6012.6 0 0 0 897.251 428.313 C 928.678 464.88 961.429 500.345 992.555 537.153 A 5426.14 5426.14 0 0 1 895.082 504.947 A 2088.1 2088.1 0 0 0 837.787 485.756 C 804.647 516.492 771.004 546.971 737.276 577.07 A 12803.6 12803.6 0 0 1 739.938 444.645 C 689.507 424.783 637.638 408.129 586.302 390.771 C 635.727 379.682 686.982 375.997 736.799 366.676 C 736.737 327.485 734.147 288.715 731.026 249.683 z"/>
<path transform="translate(0,0)" fill="rgb(5,53,107)" d="M 745.001 278.458 C 752.035 282.578 820.693 356.826 830.821 368.097 C 848.621 365.052 867.126 363.632 885.073 361.343 C 908.992 358.292 933.083 354.475 957.131 352.72 C 948.07 362.43 937.489 371.1 927.678 380.078 A 1460.06 1460.06 0 0 0 880.21 425.202 C 903.963 456.737 934.957 482.993 958.507 514.568 C 932.619 506.866 907.322 497.25 881.746 488.583 C 865.266 483.1 848.503 477.654 832.559 470.762 C 803.829 495.734 776.952 523.607 749.284 549.77 C 748.883 512.007 751.507 474.248 750.571 436.432 C 715.535 419.077 668.798 410.888 632.792 394.627 C 644.484 391.99 656.837 390.982 668.709 389.105 A 4718.41 4718.41 0 0 0 749.19 375.824 A 1391.71 1391.71 0 0 0 745.001 278.458 z"/>
<path transform="translate(0,0)" fill="rgb(254,254,254)" d="M 1291.25 589.198 C 1293.85 592.239 1319.89 698.285 1323.73 713.039 A 6306.24 6306.24 0 0 0 1428.4 1074.22 C 1407.95 1077.6 1387.68 1082 1367.27 1085.6 A 15310.8 15310.8 0 0 0 1214.9 1112.22 L 609.227 1219.7 L 607.453 1218.89 C 600.72 1200.34 596.41 1180.05 591.55 1160.9 A 4175.67 4175.67 0 0 0 566.751 1065.55 A 22182.7 22182.7 0 0 1 471.88 721.579 C 589.384 688.966 711.715 670.405 832.923 658.487 L 1009.58 642.252 C 1064.97 637.324 1120.88 632.816 1175.45 621.737 C 1214.92 613.724 1252.91 601.308 1291.25 589.198 z"/>
<path transform="translate(0,0)" fill="rgb(5,53,107)" d="M 835.033 742.409 C 838.417 741.864 842.097 741.916 845.532 741.708 C 855.835 774.561 865.136 807.684 875.896 840.404 C 886.518 839.75 897.096 837.981 907.63 836.503 L 915.347 866.323 L 895.825 868.301 A 982.624 982.624 0 0 1 854.476 872.751 A 1516.63 1516.63 0 0 0 832.199 793.295 C 827.278 777.039 821.804 760.801 817.75 744.308 A 803.283 803.283 0 0 1 835.033 742.409 z"/>
<path transform="translate(0,0)" fill="rgb(5,53,107)" d="M 909.268 734.404 C 912.976 733.814 916.986 733.805 920.746 733.525 A 4339.94 4339.94 0 0 0 950.368 834.308 C 962.791 831.919 975.713 830.835 988.277 829.257 C 990.387 839.151 993.464 848.852 996.294 858.56 L 983.069 859.745 C 964.871 861.108 946.539 862.716 928.439 865.045 C 918.321 821.739 902.721 779.676 893.252 736.26 C 898.514 735.229 903.933 734.911 909.268 734.404 z"/>
<path transform="translate(0,0)" fill="rgb(5,53,107)" d="M 1253.57 885.536 L 1254.46 885.473 C 1255.1 890.763 1249.9 901.095 1248.4 906.692 C 1243.92 923.431 1237.31 949.486 1240.9 966.63 C 1243.93 981.073 1252.53 999.696 1257.53 1014.06 C 1247.11 1015.95 1236.07 1016.57 1225.52 1017.7 C 1220.4 995.83 1216.07 970.576 1201.94 952.655 A 774.704 774.704 0 0 0 1150.81 896.807 C 1162.35 895.178 1173.91 893.245 1185.56 892.607 C 1194.77 905.246 1205.08 917.1 1214.63 929.496 C 1215.76 916.096 1217.89 902.636 1219.57 889.283 C 1230.86 887.705 1242.22 886.659 1253.57 885.536 z"/>
<path transform="translate(0,0)" fill="rgb(5,53,107)" d="M 608.801 950.235 C 615.48 949.929 623.046 949.103 629.318 951.84 C 641.648 957.22 647.61 982.575 652.952 995.002 C 645.762 989.171 638.53 983.426 629.3 981.248 C 623.737 979.935 617.356 980.112 612.495 983.447 C 607.388 986.95 604.786 993.096 603.78 999.02 C 601.678 1011.39 606.181 1024.12 613.463 1034.06 C 619.491 1042.29 628.219 1049.51 638.629 1050.88 C 650.521 1052.43 656.632 1045.75 665.141 1038.92 L 668.497 1051.23 C 670.647 1058.53 673.357 1065.65 675.986 1072.79 C 670.347 1076.54 663.727 1079.68 657.154 1081.31 C 643.122 1084.8 628.713 1080.8 616.546 1073.58 C 595.584 1061.15 581.417 1040.01 575.731 1016.51 C 571.887 1000.63 571.739 982.579 580.823 968.352 C 587.477 957.93 597.043 952.793 608.801 950.235 z"/>
<path transform="translate(0,0)" fill="rgb(5,53,107)" d="M 1127.86 709.144 C 1140.4 708.221 1150.48 710.349 1162.46 713.927 A 1502.08 1502.08 0 0 0 1164.22 748.443 C 1162.7 746.852 1161.17 745.255 1159.54 743.774 C 1154.48 739.176 1147.55 735.866 1140.55 736.342 C 1137.13 736.575 1132.87 738.288 1130.74 741.093 C 1129.31 742.964 1128.48 744.944 1129.05 747.318 C 1131.27 756.465 1163.84 762.827 1175.58 772.317 C 1185.66 780.474 1191.28 791.801 1192.21 804.687 C 1192.88 814.059 1191.47 825.329 1185 832.624 C 1176.58 842.13 1163.75 843.765 1151.85 844.628 C 1142.26 844.332 1133.05 843.434 1123.7 841.198 C 1119.33 828.861 1118.34 814.634 1116.37 801.718 C 1126.48 809.513 1137.74 818.268 1151.38 816.354 C 1154.81 815.872 1158.57 814.582 1160.38 811.376 C 1161.98 808.525 1162.34 804.844 1160.99 801.819 C 1157.07 793.025 1134.37 788.997 1125.71 784.605 C 1113.79 778.567 1105.59 769.256 1101.64 756.435 C 1098.69 746.876 1097.11 734.435 1102.36 725.482 C 1108.03 715.808 1117.53 711.773 1127.86 709.144 z"/>
<path transform="translate(0,0)" fill="rgb(5,53,107)" d="M 1302 877.227 C 1313.73 876.303 1324.78 879.433 1336.05 882.202 C 1336.03 893.091 1336.69 904.014 1337.12 914.894 C 1331.55 909.766 1326.72 906.079 1318.85 905.216 C 1315.02 904.796 1309.02 905.247 1306.23 908.382 C 1304.19 910.68 1304.22 911.638 1304.11 914.538 C 1309.68 926.309 1333.34 923.44 1347.6 935.635 C 1358.44 944.895 1366.28 959.857 1366.99 974.109 C 1367.45 983.333 1364.67 992.4 1358.06 999.024 C 1348.51 1008.59 1335.25 1009.2 1322.61 1009.26 C 1311.61 1007.95 1301.84 1005.14 1292.01 1000.04 C 1292.55 988.506 1293.45 976.99 1291.59 965.545 C 1300.34 974.028 1310.13 981.567 1322.96 981.561 C 1326.56 981.56 1331.02 980.559 1333.42 977.616 C 1334.86 975.841 1336.27 973.398 1335.82 971.033 C 1333.47 958.487 1303.64 954.194 1293.44 947.582 C 1283.29 940.996 1276.04 931.066 1273.66 919.16 C 1271.56 908.661 1271.34 899.464 1277.72 890.288 C 1283.51 881.962 1292.44 878.919 1302 877.227 z"/>
<path transform="translate(0,0)" fill="rgb(5,53,107)" d="M 754.692 751.394 C 757.489 750.71 761.157 750.911 764.074 750.769 C 790.288 792.523 819.297 832.782 847.086 873.515 C 835.736 874.892 824.33 875.864 812.967 877.167 C 810.375 872.91 808.059 868.443 805.639 864.083 L 801.102 856.906 C 787.07 859.039 772.944 860.602 758.901 862.738 C 757.737 869.65 757.423 876.734 756.904 883.72 C 747.407 883.836 738.071 885.187 728.67 886.416 C 734.38 842.99 734.745 797.802 734.949 753.978 C 741.409 752.726 748.153 752.2 754.692 751.394 z"/>
<path transform="translate(0,0)" fill="rgb(254,254,254)" d="M 760.128 794.848 C 768.047 801.529 781.174 821.765 785.865 831.249 L 784.785 832.799 C 776.53 834.472 768.109 835.336 759.755 836.376 A 2414.58 2414.58 0 0 1 760.128 794.848 z"/>
<path transform="translate(0,0)" fill="rgb(5,53,107)" d="M 1029.76 721.431 C 1031.45 721.118 1032.71 720.808 1034.42 721.228 C 1036.23 721.668 1037.81 724.489 1038.8 725.941 C 1049.09 741.044 1058.49 756.99 1068.37 772.386 A 3411.82 3411.82 0 0 0 1116.71 845.667 C 1106.2 846.843 1095.79 847.482 1085.38 849.555 C 1081.26 843.472 1077.81 836.876 1074.21 830.477 L 1072.98 829.415 C 1062.47 827.963 1040.96 831.953 1029.48 833.139 C 1029.37 840.195 1029.58 847.28 1029.64 854.338 L 998.861 858.191 C 1001.59 844.302 1001.46 829.198 1002.09 815.065 A 1974.24 1974.24 0 0 0 1004 724.253 L 1029.76 721.431 z"/>
<path transform="translate(0,0)" fill="rgb(254,254,254)" d="M 1029.99 760.507 C 1030.31 760.759 1030.64 760.988 1030.94 761.263 C 1034.87 764.942 1057.09 798.928 1057.42 802.793 C 1048.25 803.986 1039.06 804.618 1029.84 805.187 A 2265.19 2265.19 0 0 1 1029.99 760.507 z"/>
<path transform="translate(0,0)" fill="rgb(5,53,107)" d="M 984.603 916.427 C 995.351 915.747 1006.64 917.308 1015.36 924.066 C 1025.38 931.826 1029.02 943.038 1030.8 955.047 C 1028.53 960.972 1025.66 965.075 1021.48 969.769 C 1028.33 972.405 1035.14 974.772 1040.9 979.496 C 1048.61 985.823 1052.86 994.703 1053.8 1004.56 C 1054.64 1013.31 1052.85 1022.61 1046.86 1029.31 C 1040.64 1036.29 1030.89 1039.21 1021.82 1039.98 C 1008.4 1042.23 994.325 1042.92 980.768 1044.43 C 969.294 1002.62 955.477 961.33 944.751 919.344 A 1801.03 1801.03 0 0 1 984.603 916.427 z"/>
<path transform="translate(0,0)" fill="rgb(254,254,254)" d="M 978.558 941.186 C 983.82 941.007 989.099 941.059 994.365 941.026 C 997.799 944.155 1002.56 948.166 1003.46 953.02 C 1004.26 957.286 1003.15 959.381 1000.87 962.79 C 996.324 964.495 991.823 965.118 987.05 965.84 C 984.436 957.57 981.363 949.398 978.558 941.186 z"/>
<path transform="translate(0,0)" fill="rgb(254,254,254)" d="M 993.677 986.125 C 1002.28 985.732 1009.88 986.119 1017.33 990.985 C 1020.3 992.926 1022.63 995.917 1022.89 999.577 C 1023.18 1003.66 1021.29 1006.92 1019.02 1010.12 C 1013.46 1012.98 1007.75 1013.32 1001.64 1013.88 C 998.667 1004.69 995.683 995.596 993.677 986.125 z"/>
<path transform="translate(0,0)" fill="rgb(5,53,107)" d="M 633.569 767.402 C 646.753 764.65 662.489 768.762 673.846 775.545 C 693.43 787.24 707.656 808.399 713.012 830.382 C 716.518 844.769 717.241 861.507 708.887 874.408 C 701.497 885.821 690.52 889.436 678.051 892.409 C 662.916 894.814 647.507 895.96 632.25 897.288 C 626.874 853.285 609.254 813.678 598.483 771.17 L 633.569 767.402 z"/>
<path transform="translate(0,0)" fill="rgb(254,254,254)" d="M 633.262 794.818 C 644.562 794.171 654.542 794.931 664.184 801.545 C 674.869 808.875 682.226 821.549 684.186 834.275 C 685.689 844.031 683.489 852.284 677.756 860.204 C 670.988 865.83 664.28 867.228 655.921 869.102 C 648.116 844.408 641.362 819.433 633.262 794.818 z"/>
<path transform="translate(0,0)" fill="rgb(5,53,107)" d="M 921.556 921.589 C 926.236 921.096 930.977 920.968 935.677 920.716 A 3222.68 3222.68 0 0 0 937.623 1048.83 C 927.775 1050.73 917.813 1051.41 907.833 1052.23 C 898.364 1026.68 883.051 1003.06 869.358 979.575 C 870.686 1004.99 872.412 1030.42 873.282 1055.85 C 864.219 1057.78 854.514 1058.32 845.296 1059.4 C 839.498 1047.34 831.686 1035.84 824.678 1024.45 A 3280.01 3280.01 0 0 0 790.378 969.439 C 783.967 958.879 777.98 948.221 770.674 938.228 A 497.902 497.902 0 0 1 801.92 935.763 C 806.486 945.587 813.082 955.127 818.585 964.49 A 1920.67 1920.67 0 0 1 846.023 1012.66 A 3601.43 3601.43 0 0 0 841.706 930.242 L 867.998 928.327 C 881.191 954.492 895.458 980.324 909.715 1005.93 C 909.846 978.242 907.222 950.701 906.865 923.046 C 911.694 922.27 916.683 922.029 921.556 921.589 z"/>
<path transform="translate(0,0)" fill="rgb(5,53,107)" d="M 1098.11 898.336 C 1113.39 896.682 1128.7 902.189 1140.91 911.159 C 1159.55 924.847 1173.18 948.875 1176.55 971.665 C 1178.75 986.538 1175.63 1002.46 1166.41 1014.55 C 1157.3 1026.48 1144.79 1030.92 1130.47 1032.79 C 1113.3 1033.4 1099.28 1028.52 1085.51 1018.45 C 1067.18 1005.06 1055.32 983.879 1051.98 961.546 C 1049.66 946.048 1053.18 928.981 1062.79 916.391 C 1071.57 904.884 1084.21 900.026 1098.11 898.336 z"/>
<path transform="translate(0,0)" fill="rgb(254,254,254)" d="M 1100.13 931.29 C 1106.74 930.449 1112.32 930.421 1118.62 932.884 C 1130.25 937.435 1139.17 946.966 1143.89 958.436 C 1147.67 967.631 1149.3 979.082 1145.01 988.399 C 1141.56 995.891 1136.44 999.299 1129.01 1002.27 C 1123.07 1003.05 1117.7 1003.04 1111.93 1001.17 C 1100.67 997.516 1091.59 988.995 1086.42 978.433 C 1081.95 969.288 1080.05 957.717 1083.65 947.964 C 1086.78 939.476 1092.25 935.15 1100.13 931.29 z"/>
<path transform="translate(0,0)" fill="rgb(5,53,107)" d="M 708.182 940.305 A 74.3964 74.3964 0 0 1 755.666 954.082 A 84.1918 84.1918 0 0 1 790.526 1010.1 C 792.941 1025.13 791.258 1042.01 781.828 1054.46 C 772.863 1066.3 760.415 1070.82 746.225 1072.65 C 729.636 1074.63 710.711 1066.21 697.759 1056.48 C 679.827 1043.03 666.406 1022.15 663.456 999.735 C 661.504 984.903 665.146 969.494 674.646 957.766 C 683.232 947.165 694.884 941.83 708.182 940.305 z"/>
<path transform="translate(0,0)" fill="rgb(254,254,254)" d="M 712.321 969.225 C 719.842 968.873 726.371 969.763 733.228 973.037 C 745.93 979.103 755.155 990.326 759.608 1003.58 C 762.299 1011.59 763.728 1021.25 759.653 1029.06 C 756.126 1035.82 750.402 1038.98 743.411 1041.23 C 735.851 1042.01 729.057 1041.9 721.945 1038.88 C 710.092 1033.84 701.452 1023.91 696.669 1012.11 C 693.038 1003.15 691.31 992.135 695.482 983.052 C 698.894 975.623 704.877 971.816 712.321 969.225 z"/>
</svg>