<svg version="1.1" xmlns="http://www.w3.org/2000/svg" style="display: block;" viewBox="0 0 2048 2048" width="1024" height="1024">
<path transform="translate(0,0)" fill="rgb(249,248,238)" d="M 0 0 L 2.51 0 L 2048 0 L 2048 2048 L 2.36957 2048 L 0 2048 L 0 0 z"/>
<path transform="translate(0,0)" fill="rgb(236,249,254)" d="M 0 0 L 2.51 0 L 2.42876 1416.29 L 2.98551 1826.27 L 2.63209 1974.31 C 2.51585 1997.39 0.207261 2025.42 2.36957 2048 L 0 2048 L 0 0 z"/>
<path transform="translate(0,0)" fill="rgb(8,46,89)" d="M 979.55 92.425 C 986.831 91.828 994.411 91.9344 1001.72 91.9384 C 1083.04 91.9833 1151.29 117.351 1215.28 166.355 A 501.929 501.929 0 0 1 1311.59 265.843 C 1400.68 385.884 1434.33 525.389 1466 668.514 L 1494.06 792.373 A 10837.4 10837.4 0 0 0 1554.3 1034.8 L 1582.48 1138.76 C 1592.06 1175.39 1602.59 1211.48 1613.73 1247.66 C 1623.26 1278.62 1632.76 1311.79 1648.31 1340.3 C 1668.95 1378.14 1699.93 1404.71 1731.69 1432.71 A 5577.07 5577.07 0 0 0 1790.96 1484.23 C 1818.33 1507.71 1845.18 1531.77 1872.98 1554.74 C 1887.46 1566.7 1901.63 1579 1915.96 1591.12 C 1923.69 1597.66 1932.33 1603.8 1939.33 1611.11 C 1941.63 1613.51 1943.76 1615.8 1943.71 1619.29 C 1940.28 1622.82 1831.75 1671.75 1817.11 1678.49 A 30791.8 30791.8 0 0 1 1303.69 1912.29 C 1266.52 1929.06 1230.72 1949.45 1192.25 1963.3 C 1158.82 1935.45 1128.61 1903.16 1096.48 1873.74 C 1083.93 1861.93 1070.99 1850.55 1058.54 1838.64 C 1046.66 1827.27 1035.23 1815.41 1023.13 1804.27 C 994.186 1777.59 956.469 1745.35 933.202 1714.36 C 904.264 1675.83 889.65 1633.3 875.231 1587.98 A 2855.82 2855.82 0 0 1 851.445 1510.53 A 14164.6 14164.6 0 0 1 795.8 1325.51 C 783.567 1283.14 773.426 1238.14 757.97 1196.96 C 717.026 1212.58 676.412 1230.76 636.23 1248.26 C 601.881 1263.22 553.77 1288.76 516.634 1291.33 C 466.62 1294.79 415.233 1268.7 378.253 1236.49 C 236.284 1112.86 151.934 863.603 139 679.711 C 131.851 578.064 138.641 444.401 209.331 363.878 C 220.741 350.881 234.316 339.42 249.893 331.763 C 285.553 314.233 324.776 302.363 362.324 289.492 L 494.154 243.326 L 728.321 160.938 C 810.023 132.485 892.414 97.917 979.55 92.425 z"/>
<path transform="translate(0,0)" fill="rgb(1,3,11)" d="M 1022.14 587.512 C 1021.93 590.044 1022.16 591.926 1020.74 594.084 C 1018.01 587.673 1015.36 566.826 1017.77 560.36 L 1020.07 560.263 L 1020.92 562.702 C 1021.39 570.96 1022 579.242 1022.14 587.512 z"/>
<path transform="translate(0,0)" fill="rgb(10,29,59)" d="M 963.786 899.485 C 966.341 897.746 967.337 897.017 970.474 897.582 C 978.395 899.006 998.109 906.024 1002.2 913.143 C 1003.62 915.612 1002.84 924.079 1001.65 926.915 C 1001.54 927.181 1001.38 927.426 1001.25 927.681 C 998.778 923.694 999.036 918.196 998.857 913.666 L 998.71 913.118 C 995.101 908.192 970.558 901.726 963.786 899.485 z"/>
<path transform="translate(0,0)" fill="rgb(249,248,238)" d="M 901.571 124.449 C 930.986 122.881 968.968 125.169 996.364 135.637 C 979.83 145.668 958.1 151.557 939.981 158.669 A 6648.05 6648.05 0 0 1 794.24 214.004 L 780.846 218.785 C 755.684 204.558 728.87 188.212 700.787 180.692 C 738.285 168.506 775.285 154.683 812.634 142.002 C 827.165 137.068 842.304 130.155 857.367 127.337 C 871.695 124.658 887.033 124.955 901.571 124.449 z"/>
<path transform="translate(0,0)" fill="rgb(249,248,238)" d="M 687.619 949.407 C 695.053 960.178 720.38 1064.36 725.906 1084.2 C 735.263 1117.8 745.652 1151.23 755.695 1184.65 C 726.021 1199.17 695.107 1211.96 664.618 1224.72 L 616.386 1244.83 C 683.535 1163.13 689.407 1050.35 687.619 949.407 z"/>
<path transform="translate(0,0)" fill="rgb(249,248,238)" d="M 630.553 205.071 C 644.767 204.011 701.12 230.796 717.323 239.767 C 707.358 245.785 695.639 249.788 684.858 254.201 A 2690.43 2690.43 0 0 1 620.369 279.628 C 576.954 296.539 533.991 315.283 490.008 330.611 C 487.277 331.563 485.761 332.428 483.101 331.119 C 456.488 311.773 422.046 298.43 390.46 290.406 C 407.726 284.539 424.543 277.476 441.719 271.357 C 472.568 260.368 503.633 250.041 534.372 238.73 C 566.178 227.026 598.009 214.541 630.553 205.071 z"/>
<path transform="translate(0,0)" fill="rgb(249,248,238)" d="M 1773.63 1599.09 C 1783.66 1605.31 1793.03 1616.36 1801.68 1624.47 A 831.291 831.291 0 0 0 1837.21 1656.12 C 1808.44 1673.02 1776.52 1685.76 1746.2 1699.74 C 1697.85 1722.04 1649.78 1744.61 1600.98 1765.95 C 1577.71 1749.05 1557.2 1727.07 1535.68 1707.94 C 1549.19 1702.94 1562.26 1696.45 1575.36 1690.46 L 1641.15 1660.28 L 1722.35 1623.2 C 1739.5 1615.37 1756.97 1607.93 1773.63 1599.09 z"/>
<path transform="translate(0,0)" fill="rgb(249,248,238)" d="M 1481.21 1730.14 C 1489.34 1734.94 1497.57 1743.81 1504.62 1750.16 C 1518.81 1762.94 1533.21 1775.6 1546.91 1788.9 C 1538.07 1794.63 1527.74 1799.12 1518.24 1803.69 A 4658.94 4658.94 0 0 1 1462.61 1829.56 L 1283.24 1910.51 C 1282.7 1910.75 1281.39 1910.72 1280.78 1910.77 C 1258.88 1893.25 1238.99 1871.75 1218.87 1852.2 C 1248.38 1836.9 1279.22 1823.84 1309.43 1810.01 C 1341.2 1795.46 1372.56 1780.03 1404.26 1765.34 C 1429.87 1753.47 1455.81 1742.46 1481.21 1730.14 z"/>
<path transform="translate(0,0)" fill="rgb(249,248,238)" d="M 1129.58 949.829 C 1132.48 954.904 1140.99 990.993 1143.61 1000.02 C 1156.07 1042.94 1169.58 1085.55 1182.35 1128.37 L 1251.8 1360.94 C 1264.6 1404.14 1276.34 1463.87 1298.22 1501.47 C 1320.5 1539.76 1370.21 1579.22 1403.97 1608.29 L 1474.99 1670.2 C 1513.1 1703.88 1549.54 1739.64 1589.32 1771.39 C 1582.92 1774.34 1576.43 1777.12 1569.99 1779.98 L 1560.39 1784.08 C 1538.68 1766.8 1518.06 1746.78 1497.37 1728.23 L 1390.45 1632.54 C 1360.33 1605.46 1308.71 1567.22 1286.54 1536.03 C 1261.48 1500.78 1251.05 1455.28 1239.53 1414.26 A 6392.77 6392.77 0 0 0 1219.23 1343.87 L 1159.58 1140.71 L 1134.43 1053.36 C 1127.27 1028 1120.68 1002.62 1112.17 977.654 C 1118.13 968.481 1124.67 959.628 1129.58 949.829 z"/>
<path transform="translate(0,0)" fill="rgb(249,248,238)" d="M 1020.92 562.702 C 1033.4 577.049 1043.67 594.457 1054.39 610.157 C 1080.26 648.035 1104.98 686.834 1131.18 724.452 C 1148.49 714.901 1167.43 707.874 1185.64 700.216 C 1217.53 686.808 1249.48 673.709 1281.15 659.767 C 1262.23 693.785 1240.72 726.406 1220.15 759.432 C 1207.22 780.182 1195.29 802.501 1180.72 822.112 L 1280.18 977.902 L 1177.56 940.655 C 1158.77 933.86 1139.89 926.005 1120.61 920.807 C 1108.25 937.55 1098.18 956.295 1087.2 973.969 L 1015.12 1090.99 C 1018.89 1024.75 1019.9 958.036 1021.39 891.705 C 987.208 881.213 953.52 869.35 919.489 858.423 C 899.467 851.994 878.445 846.87 858.833 839.351 C 876.659 829.61 896.06 821.91 914.645 813.649 L 1025.96 765.46 C 1027.33 724.271 1025.1 682.855 1023.97 641.667 C 1023.55 626.284 1024.92 601.774 1022.14 587.512 C 1022 579.242 1021.39 570.96 1020.92 562.702 z"/>
<path transform="translate(0,0)" fill="rgb(10,29,59)" d="M 1036.26 608.083 C 1038.77 611.168 1041.13 614.409 1043.55 617.57 L 1040.98 618.585 C 1038.69 626.91 1041.54 674.025 1038.61 676.572 L 1038.22 676.596 A 1913.31 1913.31 0 0 1 1036.26 608.083 z"/>
<path transform="translate(0,0)" fill="rgb(10,29,59)" d="M 1193.67 713.574 C 1210.95 705.874 1228.15 696.408 1245.63 689.468 C 1217.68 734.503 1191.3 780.991 1162.04 825.146 C 1176.52 843.407 1188.91 863.245 1201.81 882.618 C 1211.16 896.644 1221.33 910.402 1229.79 924.981 L 1227.67 925.385 C 1223.29 923.075 1166.33 836.689 1157.91 824.188 C 1175.03 800.141 1188.21 774.164 1203.65 749.074 C 1209.04 740.317 1229.38 710.701 1231.44 704.41 C 1231.85 703.164 1231.74 702.791 1231.67 701.642 C 1228.04 699.959 1208.57 711.916 1202.47 713.704 C 1198.39 714.901 1197.4 715.627 1193.67 713.574 z"/>
<path transform="translate(0,0)" fill="rgb(8,46,89)" d="M 1043.55 617.57 C 1070.45 659.564 1098.62 701.215 1124.05 744.086 C 1147.17 733.768 1170.26 723.208 1193.67 713.574 C 1197.4 715.627 1198.39 714.901 1202.47 713.704 C 1208.57 711.916 1228.04 699.959 1231.67 701.642 C 1231.74 702.791 1231.85 703.164 1231.44 704.41 C 1229.38 710.701 1209.04 740.317 1203.65 749.074 C 1188.21 774.164 1175.03 800.141 1157.91 824.188 C 1166.33 836.689 1223.29 923.075 1227.67 925.385 L 1229.79 924.981 C 1235.29 932.601 1240.9 940.217 1245.84 948.22 C 1228.07 943.107 1209.22 937.112 1192.31 929.625 L 1113.4 902.073 C 1096.6 934.515 1071.55 973.948 1050.28 1003.92 C 1044.21 1015.21 1038.01 1028.16 1029.29 1037.63 C 1033.08 1014.62 1032.7 991.205 1033.33 967.967 C 1033.57 959.202 1032.82 948.717 1034.88 940.208 C 1034.93 920.491 1035.88 900.764 1035.97 881.03 C 1024.42 877.182 1012.99 873.189 1001.63 868.78 C 988.362 866.607 969.909 858.574 956.399 854.133 C 938.078 848.11 919.449 843.103 901.133 837.062 C 912.553 830.339 926.288 825.614 938.477 820.241 C 972.173 805.39 1006.4 791.827 1040.1 776.99 A 4693.3 4693.3 0 0 0 1038.22 676.596 L 1038.61 676.572 C 1041.54 674.025 1038.69 626.91 1040.98 618.585 L 1043.55 617.57 z"/>
<path transform="translate(0,0)" fill="rgb(1,3,11)" d="M 1001.63 868.78 C 1009.36 865.185 1022.7 871.56 1030.45 874.438 C 1034.02 875.76 1036.58 877.379 1039.2 880.128 C 1041.56 892.393 1040.35 921.708 1038.69 934.385 L 1038.24 934.754 C 1037.57 920.033 1038.35 905.3 1037.64 890.586 C 1037.15 901.88 1039.15 931.887 1034.88 940.208 C 1034.93 920.491 1035.88 900.764 1035.97 881.03 C 1024.42 877.182 1012.99 873.189 1001.63 868.78 z"/>
<path transform="translate(0,0)" fill="rgb(1,3,11)" d="M 1050.28 1003.92 C 1050.26 1001.88 1050.31 1000.32 1051.23 998.436 C 1061.96 976.5 1078.17 957.105 1090.55 936.015 C 1093.3 931.333 1108.95 900.041 1112.19 899.311 C 1115.43 898.581 1119.01 899.512 1122.15 900.323 C 1129.47 902.208 1136.24 905.606 1143.35 908.076 C 1158.49 913.33 1177.26 917.368 1191.13 925.076 C 1193.06 926.149 1193.4 926.134 1193.98 928.335 L 1192.31 929.625 L 1113.4 902.073 C 1096.6 934.515 1071.55 973.948 1050.28 1003.92 z"/>
<path transform="translate(0,0)" fill="rgb(249,248,238)" d="M 969.659 102.433 C 973.923 102.124 978.167 102.063 982.439 102.012 C 1034.78 101.384 1083.83 108.104 1132.42 128.583 C 1178.9 148.17 1219.64 179.989 1254.5 216.025 C 1324.1 287.955 1366.77 365.104 1399.64 459.416 C 1434.97 560.761 1453.33 667.252 1477.59 771.569 A 8853.68 8853.68 0 0 0 1575.33 1155.98 C 1584.8 1190.95 1594.59 1225.64 1605.37 1260.24 C 1614.98 1291.08 1624.79 1323.31 1640.84 1351.49 C 1670.5 1403.55 1753.16 1466.98 1800.12 1506.05 A 8000.61 8000.61 0 0 1 1863.69 1560.44 C 1884.84 1578.61 1906.15 1596.43 1926.12 1615.91 C 1911.01 1622.3 1896.3 1629.9 1881.54 1637.05 C 1873.7 1640.83 1865.67 1644.24 1857.71 1647.74 C 1836.22 1624.53 1811.91 1603.69 1788.66 1582.29 C 1765.4 1560.88 1742.8 1538.87 1719.12 1517.87 C 1678.62 1481.94 1626.14 1439.28 1597.19 1393.75 C 1571.91 1353.99 1559.47 1294.41 1547.18 1248.99 C 1539.52 1220.7 1531.1 1192.68 1523.68 1164.31 C 1495.78 1057.59 1465.15 951.544 1438.11 844.609 A 7201.92 7201.92 0 0 1 1403.84 704.504 C 1371.15 562.705 1337.99 418.884 1251.13 298.896 C 1190.02 214.475 1103.61 142.583 1000.72 117.062 C 977.11 111.205 952.61 111.197 928.677 107.358 C 942.27 104.301 955.798 103.265 969.659 102.433 z"/>
<path transform="translate(0,0)" fill="rgb(249,248,238)" d="M 356.747 301.178 C 401.238 306.939 442.099 327.318 479.017 351.92 C 578.721 418.361 648.817 534.842 688.333 645.871 C 704.714 691.898 716.156 739.54 729.458 786.497 L 788.841 997.201 L 922.125 1456.51 A 5274.31 5274.31 0 0 0 953.472 1561.88 C 963.168 1593.1 972.647 1625.62 988.992 1654.12 C 1008.53 1688.19 1039.88 1714.3 1067.65 1741.46 L 1167.88 1837.59 C 1197.06 1865.45 1228.25 1898.6 1258.97 1923.85 C 1241.57 1931.37 1224.23 1938.95 1206.62 1945.99 L 1194.89 1950.71 C 1181.53 1940.55 1169.42 1928.17 1157.19 1916.68 L 1100.02 1862.9 L 1026.32 1792.7 C 1002.63 1770.5 977.936 1748.6 955.785 1724.88 A 232.728 232.728 0 0 1 929.885 1691.37 C 905.998 1653.11 893.99 1610.87 880.615 1568.29 A 7642.8 7642.8 0 0 1 845.073 1451.62 A 19682.7 19682.7 0 0 1 684.987 892.896 C 677.796 866.89 673.133 840.185 666.924 813.923 C 650.756 745.534 632.405 676.623 604.737 611.905 C 573.005 537.683 530.383 469.113 473.667 411.385 C 428.266 365.174 371.318 320.363 303.557 319.733 C 321.338 313.929 338.768 306.17 356.747 301.178 z"/>
<path transform="translate(0,0)" fill="rgb(249,248,238)" d="M 287.726 328.222 C 327.271 324.215 365.923 342.143 398.853 362.243 C 435.691 384.73 467.93 417.073 495.265 450.207 C 575.871 547.91 616.87 652.418 646.432 774.236 C 655.571 811.896 665.651 850.227 671.171 888.622 C 675.591 919.374 676.871 950.862 677.085 981.902 C 677.624 1060.05 669.436 1142.89 627.486 1211.05 C 604.931 1247.7 576.353 1267.94 534.535 1277.87 C 487.829 1285.99 448.135 1272.37 409.166 1246.89 C 321.364 1189.49 249.317 1055.98 212.427 960.284 A 1060.67 1060.67 0 0 1 167.159 806.732 C 142.567 687.251 127.8 500.557 198.918 393.631 C 220.635 360.978 248.548 336.147 287.726 328.222 z"/>
<path transform="translate(0,0)" fill="rgb(8,46,89)" d="M 612.083 1087.48 C 613.598 1087.72 615.248 1087.92 616.702 1088.41 C 619.191 1089.26 619.925 1090.08 620.878 1092.44 C 620.317 1099.31 617.414 1106.02 615.24 1112.53 C 605.53 1141.6 591.933 1170.71 569.682 1192.39 C 546.286 1215.19 517.096 1225.37 484.669 1225.02 C 482.74 1224.43 480.979 1223.65 479.147 1222.8 C 477.434 1220.51 475.897 1219.19 475.523 1216.3 C 479.779 1212.23 497.678 1213.93 504.471 1213.02 C 517.128 1211.32 529.328 1207.64 540.545 1201.46 C 582.453 1178.4 599.537 1130.72 612.083 1087.48 z"/>
<path transform="translate(0,0)" fill="rgb(8,46,89)" d="M 314.222 411.3 C 330.543 410.096 345.063 411.303 360.547 416.937 C 398.638 430.795 428.607 458.054 454.976 487.942 C 460.468 494.166 468.34 501.762 471.487 509.477 C 472.483 511.919 472.696 513.144 471.722 515.568 C 465.728 517.965 460.731 509.812 457.346 505.736 C 428.853 471.431 397.833 441.72 355.259 425.651 C 339.115 420.858 322.84 419 306.384 423.457 C 271.323 432.953 247.587 467.657 237.06 500.629 C 233.993 510.234 232.409 524.803 226.934 533.063 C 225.543 535.162 224.651 535.762 222.237 536.233 C 220.051 534.859 219.612 534.461 218.911 531.778 C 215.019 516.89 241.671 463.679 251.234 450.813 C 266.161 430.73 289.406 415.171 314.222 411.3 z"/>
<path transform="translate(0,0)" fill="rgb(8,46,89)" d="M 591.837 1068.94 C 593.771 1069.55 595.594 1070.31 597.465 1071.07 C 598.915 1073.41 598.939 1073.98 598.746 1076.75 C 598.236 1084.05 595.31 1091.64 593.054 1098.58 C 583.126 1129.1 568.674 1157.41 543.622 1178.26 C 523.666 1194.86 498.959 1200.23 473.445 1197.88 C 420.013 1192.94 374.803 1148.84 342.108 1109.59 C 340.611 1107.56 339.548 1105.83 338.535 1103.49 C 339.121 1101.01 339.278 1100.71 341.078 1098.91 C 344.384 1098.55 346.261 1099.82 348.666 1102.04 C 354.197 1107.13 358.455 1113.82 363.614 1119.37 C 382.002 1139.15 403.12 1159.32 426.745 1172.58 C 451.134 1186.26 481.58 1192.5 508.852 1184.52 C 545.188 1173.9 569.768 1138.47 580.867 1103.92 C 584.015 1094.13 585.964 1078.98 590.88 1070.52 C 591.189 1069.99 591.518 1069.47 591.837 1068.94 z"/>
<path transform="translate(0,0)" fill="rgb(8,46,89)" d="M 301.686 361.388 C 307.532 360.807 313.594 360.916 319.454 361.247 C 376.746 364.478 423.99 402.794 460.32 444.089 C 467.865 452.666 497.382 486.007 496.772 495.642 C 496.115 496.297 495.888 496.592 495 497.097 C 494.505 497.378 491.554 498.364 491.267 498.33 C 488.712 498.025 460.233 459.634 455.937 454.773 C 420.491 414.663 381.285 381.487 327.064 372.246 L 320.432 371.592 C 251.446 365.463 212.223 426.994 194.272 485.025 C 190.987 495.642 188.079 506.599 185.962 517.51 C 184.719 523.91 184.398 530.853 182.274 537.032 C 181.581 539.048 180.744 540.944 178.94 542.206 C 177.677 543.091 176.723 542.526 175.314 542.296 C 173.58 540.698 173.05 540.343 172.683 537.899 C 171.691 531.285 174.74 522.185 176.176 515.699 C 184.812 476.692 197.927 438.349 223.045 406.657 C 243.309 381.089 268.942 365.027 301.686 361.388 z"/>
<path transform="translate(0,0)" fill="rgb(8,46,89)" d="M 633.892 1083.74 C 637.058 1083.94 639.464 1083.91 642.178 1085.78 C 643.323 1088.46 643.201 1090.57 642.884 1093.4 C 642 1101.29 639.435 1109.38 637.42 1117.07 C 626.682 1158.03 606.984 1202.49 572.375 1228.83 A 115.376 115.376 0 0 1 486.69 1250.94 C 412.803 1240.62 358.745 1176.62 316.512 1120.51 C 314.428 1117.78 312.719 1115.63 312.472 1112.05 C 312.248 1108.79 312.11 1108.58 314.223 1106.07 L 312.47 1107.72 L 313.467 1106.26 C 317.663 1106.05 321.237 1110.35 323.562 1113.49 C 361.31 1164.4 410.896 1222.89 475.11 1238.01 C 503.988 1244.81 533.591 1240.95 558.932 1225.12 C 588.517 1206.63 609.417 1169.74 620.195 1137.46 C 626.03 1119.99 629.742 1101.68 633.892 1083.74 z"/>
<path transform="translate(0,0)" fill="rgb(8,46,89)" d="M 350.215 559.264 C 373.154 557.061 395.315 565.909 413.717 579.098 C 484.63 629.925 527.847 734.453 541.84 818.443 C 551.622 877.155 552.566 964.007 516.802 1013.37 C 503.748 1031.39 486.181 1044.28 463.949 1047.7 C 441.792 1050.14 421.086 1042.26 403.11 1029.75 C 327.41 977.076 289.541 872.983 273.769 785.844 C 262.716 724.779 261.099 645.545 298.194 592.689 C 311.023 574.41 328.215 563.149 350.215 559.264 z"/>
<path transform="translate(0,0)" fill="rgb(249,248,238)" d="M 352.275 569.235 C 372.246 567.893 389.987 574.049 406.271 585.482 C 474.428 633.335 517.538 734.698 531.327 814.807 C 541.398 873.323 544.964 957.537 508.972 1007.59 C 498.06 1022.77 483.851 1033.69 465.199 1036.88 C 443.677 1039.95 426.307 1033.22 408.608 1021.51 C 340.452 976.421 301.616 877.899 285.987 800.219 C 273.984 740.558 268.954 653.607 304.045 601.669 C 315.954 584.043 331.394 573.356 352.275 569.235 z"/>
<path transform="translate(0,0)" fill="rgb(8,46,89)" d="M 359.379 593.279 C 378.127 591.65 397.596 601.312 412.248 612.128 C 470.871 655.403 508.683 754.104 519.244 824.585 C 526.606 873.719 528.168 953.259 497.782 993.87 C 487.015 1008.26 473.173 1017.32 455.247 1019.8 C 437.514 1020.65 420.374 1012.71 406.321 1002.52 C 341.858 955.759 305.831 852.394 294.141 776.386 C 286.621 727.496 285.852 661.16 316.463 619.912 C 327.24 605.39 341.335 595.959 359.379 593.279 z"/>
<path transform="translate(0,0)" fill="rgb(249,248,238)" d="M 359.108 603.215 C 374.371 602.608 387.457 606.837 399.886 615.525 C 397.879 618.819 395.876 622.133 394.057 625.536 C 364.684 680.489 369.636 765.117 387.494 822.935 C 406.976 886.01 440.709 938.726 500.357 970.225 C 492.103 986.349 482.431 998.202 466.241 1006.59 C 463.561 1007.55 460.77 1008.4 457.965 1008.9 C 442.126 1011.68 424.491 1002.65 411.658 994.187 C 356.683 957.948 320.713 862.176 308.065 799.638 C 297.556 747.679 292.019 674.266 322.957 628.47 C 331.833 615.333 343.329 606.327 359.108 603.215 z"/>
<path transform="translate(0,0)" fill="rgb(249,248,238)" d="M 1076.06 166.335 C 1106.66 180.387 1141.76 209.391 1166.34 232.554 C 1285.49 344.829 1327.4 482.629 1364.88 636.462 L 1416.93 858.824 C 1424.88 891.888 1434.63 924.599 1443.41 957.461 A 16344.1 16344.1 0 0 0 1505.74 1188.49 L 1528.48 1271.91 C 1539.88 1314.31 1550.33 1359.12 1572.51 1397.4 C 1603.99 1451.72 1679.11 1514.16 1727.76 1556.36 C 1705.06 1566.21 1682.73 1577.09 1660.16 1587.27 A 5821.56 5821.56 0 0 1 1485.28 1663.7 C 1459.36 1642.74 1434.71 1619.78 1409.76 1597.67 C 1378.24 1569.74 1337.5 1538.67 1314.11 1503.97 C 1290.36 1468.75 1282.05 1423.21 1270.14 1382.95 L 1230.09 1245.22 A 12328.6 12328.6 0 0 0 1172.99 1056.45 C 1162.6 1022.6 1153.3 988.553 1142.06 954.938 C 1165.7 962.226 1188.49 971.703 1211.71 980.19 C 1233.6 988.198 1255.91 995.241 1277.92 1002.96 C 1297.41 1009.79 1317.05 1017.34 1337.16 1022.17 C 1321.02 1001.33 1306.98 978.718 1292.88 956.482 A 4965.47 4965.47 0 0 0 1239.02 872.516 C 1228.96 856.853 1219.47 840.683 1208.71 825.497 C 1213.57 815.722 1219.77 806.541 1225.41 797.202 A 3137.77 3137.77 0 0 1 1257.35 744.947 A 4607.65 4607.65 0 0 0 1338.96 610.421 C 1312.94 619.958 1287.55 631.24 1261.91 641.75 L 1138.25 692.748 C 1128.54 676.823 1117.4 661.642 1106.98 646.16 L 1030.27 533.975 C 1017.52 515.394 1004.05 496.995 992.545 477.62 C 992.985 488.716 994.669 499.861 995.597 510.941 A 3328.9 3328.9 0 0 1 999.573 568.929 A 5388.13 5388.13 0 0 1 1006.92 746.047 C 968.677 759.901 931.476 778.506 894.07 794.591 L 825.344 823.887 C 812.191 829.473 798.848 834.536 786.075 840.973 C 811.419 851.888 838.816 858.833 865.062 867.307 C 898.017 877.947 930.488 889.883 963.786 899.485 C 970.558 901.726 995.101 908.192 998.71 913.118 L 998.857 913.666 C 996.185 930.206 997.452 959.675 996.982 977.289 C 996.473 996.36 995.439 1015.42 995.122 1034.49 C 994.432 1076.05 994.436 1118.27 990.344 1159.64 C 1008.11 1140.61 1022.85 1115.7 1037.24 1094.02 L 1104.13 991.988 C 1111.03 1019.67 1120.58 1046.91 1128.42 1074.39 A 21719 21719 0 0 0 1195.66 1303.91 L 1227.59 1413.99 C 1234.06 1437.04 1239.58 1460.58 1247.68 1483.12 C 1255.09 1503.71 1263.54 1523.38 1276.19 1541.37 C 1294.43 1567.28 1320.56 1587.37 1344.28 1608.05 C 1373.97 1633.94 1404.13 1659.62 1432.54 1686.92 L 1338.42 1730.4 A 5861.5 5861.5 0 0 1 1170.7 1806.59 C 1145.62 1784.33 1121.7 1760.66 1097.41 1737.53 C 1067.86 1709.38 1032.12 1680.98 1010.92 1645.7 C 993.03 1615.93 984.237 1581.08 974.033 1548.14 L 936.047 1421.23 A 23592.9 23592.9 0 0 1 786.087 905.348 A 10117.2 10117.2 0 0 0 738.157 735.04 C 724.186 685.966 711.578 638.115 690.411 591.419 C 661.992 528.722 625.482 466.825 579.681 415.146 C 566.673 400.469 552.441 386.931 538.227 373.439 L 708.577 306.191 C 726.435 299.16 766.08 286.555 780.431 277.089 C 793.336 287.788 807.717 296.605 820.58 307.482 C 880.221 357.913 922.057 414.092 959.233 482.655 C 962.303 480.846 965.107 478.569 967.949 476.422 A 80.1065 80.1065 0 0 0 966.958 474.167 C 956.389 451.233 941.548 430.336 927.125 409.715 A 569.07 569.07 0 0 0 695.012 216.257 C 679.787 209.525 663.662 204.898 648.042 199.16 A 1235.56 1235.56 0 0 1 683.444 185.209 C 685.396 185.72 687.301 186.324 689.214 186.964 C 817.172 229.74 935.083 350.153 994.493 469.002 L 1004.85 463.802 C 999.554 451.581 991.745 439.763 984.913 428.34 A 627.664 627.664 0 0 0 838.092 260.199 C 849.326 253.978 861.88 249.642 873.837 244.989 L 929.316 223.676 L 1076.06 166.335 z"/>
</svg>