<svg version="1.1" xmlns="http://www.w3.org/2000/svg" style="display: block;" viewBox="0 0 2048 2048" width="1024" height="1024">
<path transform="translate(0,0)" fill="rgb(248,246,239)" d="M 0 0 L 2048 0 L 2048 2048 L 0 2048 L 0 0 z"/>
<path transform="translate(0,0)" fill="rgb(90,46,52)" d="M 791.102 1711.44 C 849.116 1709.94 951.107 1715.57 994.89 1755.65 C 1010.86 1770.27 1016.14 1788.5 1016.86 1809.64 C 1017.66 1832.73 1010.35 1852.13 994.42 1868.87 C 942.266 1923.68 811.665 1953.3 738.676 1955.13 C 674.937 1957.36 587.959 1954.71 537.685 1910.25 C 522.28 1896.62 513.569 1875.99 512.583 1855.6 C 511.523 1833.68 520.04 1814.18 534.71 1798.16 C 591.058 1736.62 710.911 1715.33 791.102 1711.44 z"/>
<path transform="translate(0,0)" fill="rgb(206,142,134)" d="M 998.906 1816.9 C 998.995 1818.15 999.073 1818.71 999.037 1819.9 C 998.538 1836.31 988.607 1850.61 976.921 1861.33 C 911.97 1920.94 771.017 1941.4 685.002 1937.9 C 638.358 1936 575.477 1926.5 542.734 1890.91 C 535.438 1881.65 532.749 1871.96 530.029 1860.67 C 557.219 1888.89 619.103 1895.96 657.381 1898.64 C 757.214 1905.62 921.105 1884.53 998.906 1816.9 z"/>
<path transform="translate(0,0)" fill="rgb(206,142,134)" d="M 782.177 1728.43 C 833.247 1725.1 903.681 1730.77 951.092 1750.47 C 972.209 1759.25 988.771 1769.2 997.78 1791.04 L 997.052 1792.6 C 994.805 1797.47 992.551 1801.47 988.93 1805.47 C 945.168 1853.86 811.742 1879.16 747.835 1882.18 C 696.528 1886.78 582.527 1883.07 541.572 1850.79 C 537.105 1847.27 532.368 1842.22 531.987 1836.22 C 531.396 1826.91 541.646 1814.79 547.554 1808.19 C 597.04 1752.9 710.852 1731.9 782.177 1728.43 z"/>
<path transform="translate(0,0)" fill="rgb(90,46,52)" d="M 792.916 1749.44 C 824.382 1747.63 862.801 1752.99 891.526 1765.82 C 905.894 1772.24 916.031 1780.57 921.773 1795.61 C 919.626 1804.11 915.992 1810.9 910.108 1817.39 C 871.777 1859.71 785.896 1867.79 731.416 1870.85 C 697.412 1871.06 638.271 1866.95 612.166 1844.78 C 606.217 1839.73 601.485 1832.96 601.002 1824.95 C 600.455 1815.86 604.986 1807.99 611.026 1801.57 C 647.758 1762.54 740.715 1751.36 792.916 1749.44 z"/>
<path transform="translate(0,0)" fill="rgb(206,142,134)" d="M 778.203 1761.42 C 786.583 1760.88 795.169 1760.88 803.568 1761.11 C 832.642 1761.9 888.207 1766.96 908.523 1788.47 L 907.179 1787.63 C 857.803 1757.37 759.843 1764.89 704.361 1777.83 C 703.876 1777.93 703.399 1778.06 702.92 1778.19 C 677.402 1784.77 637.9 1795.6 620.71 1816.08 C 617.146 1820.33 616.086 1827.04 613.211 1831.93 L 611.222 1831.72 L 609.905 1830.02 C 609.692 1823.83 614.228 1814.89 618.398 1810.32 C 649.222 1776.53 733.429 1764.5 778.203 1761.42 z"/>
<path transform="translate(0,0)" fill="rgb(206,142,134)" d="M 803.144 1778.46 C 829.684 1778.13 879.841 1781.54 900.999 1798.59 C 903.635 1800.71 904.134 1802.38 904.438 1805.65 C 903.463 1808.35 902.407 1810.19 900.379 1812.25 C 865.2 1847.97 776.996 1859.04 727.49 1859.95 C 701.115 1860.09 649.898 1856.84 628.724 1841.83 C 626.062 1839.94 623.775 1837.54 623.471 1834.11 C 623.128 1830.25 626.067 1826.47 628.574 1823.85 C 637.844 1814.17 651.365 1808.44 663.578 1803.58 C 708.639 1785.63 755.061 1780.38 803.144 1778.46 z"/>
<path transform="translate(0,0)" fill="rgb(90,46,52)" d="M 305.709 1442.46 C 384.606 1440.45 502.317 1457.06 562.731 1511.31 C 580.041 1526.85 592.276 1545.65 593.272 1569.44 C 594.074 1588.6 587.876 1606.93 574.735 1621.01 C 527.824 1671.3 421.814 1684.48 355.759 1686.43 C 278.252 1687.46 149.928 1669.35 91.4332 1614.78 C 76.186 1600.55 66.0766 1580.2 65.4624 1559.19 C 64.8726 1539.01 71.8597 1518.35 85.8777 1503.66 C 131.15 1456.25 242.766 1443.98 305.709 1442.46 z"/>
<path transform="translate(0,0)" fill="rgb(206,142,134)" d="M 82.9607 1558.88 C 124.963 1598.5 190.131 1613.18 245.694 1622.19 C 334.303 1636.56 444.893 1636.55 530.164 1605.78 C 546.552 1599.86 561.869 1593.64 576.088 1583.39 C 573.104 1593.12 569.797 1601.51 563.142 1609.42 C 517.611 1653.01 434.368 1665.52 373.204 1668.1 C 300.999 1671.15 225.283 1662.22 158.316 1633.95 C 139.725 1626.1 120.439 1616.4 105.535 1602.56 C 92.2191 1590.19 83.7333 1577.45 82.9607 1558.88 z"/>
<path transform="translate(0,0)" fill="rgb(206,142,134)" d="M 290.733 1459.44 C 371.214 1456.17 490.43 1470.18 552.317 1524.96 C 560.91 1532.56 571.944 1543.61 572.207 1555.79 C 572.325 1561.25 569.947 1566.11 566.167 1569.94 C 541.849 1594.58 463.555 1607.62 428.611 1611.51 C 410.607 1613.52 392.609 1614.21 374.511 1614.83 C 302.193 1615.52 163.854 1604.25 106.239 1557.81 C 99.3366 1552.25 90.2095 1544.02 89.5844 1534.65 C 89.1567 1528.24 92.7589 1522.54 96.8546 1517.92 C 136.259 1473.53 233.836 1462.38 290.733 1459.44 z"/>
<path transform="translate(0,0)" fill="rgb(90,46,52)" d="M 304.988 1478.45 C 356.979 1475.64 440.51 1484.28 480.371 1519.29 C 487.546 1525.59 493.554 1533.76 493.932 1543.63 C 494.244 1551.77 490.641 1558.9 485.152 1564.71 C 455.688 1595.89 392.779 1598.89 352.084 1600.56 C 306.11 1602.72 211.991 1590.08 177.46 1559.83 C 170.844 1554.03 163.212 1545.05 162.914 1535.85 C 162.683 1528.69 166.706 1522.25 171.447 1517.21 C 199.241 1487.67 265.609 1480.18 304.988 1478.45 z"/>
<path transform="translate(0,0)" fill="rgb(206,142,134)" d="M 320.015 1488.46 C 365.842 1489.07 437.674 1495.81 472.532 1526.75 C 477.537 1531.19 483.18 1537.39 483.276 1544.52 C 483.35 1550.05 479.937 1554.85 476.136 1558.54 C 446.746 1587.1 373.983 1590.9 333.757 1589.56 C 290.194 1588.1 212.606 1580.06 182.153 1547.51 C 183.742 1544.18 185.375 1540.88 187.975 1538.22 C 215.154 1510.34 292.181 1506.27 330.721 1506.19 C 370.966 1508.32 411.896 1511.96 448.325 1530.86 C 454.31 1533.97 475.86 1550.24 476.299 1550.35 L 478.722 1547.85 L 478.666 1547.07 L 476.743 1546.98 L 478.393 1545.92 C 475.249 1537.13 466.009 1526.41 457.768 1522.24 A 243.891 243.891 0 0 0 388.94 1500.09 C 340.41 1491.73 266.174 1493.2 219.477 1508.99 C 204.447 1514.08 184.447 1522.5 177.285 1537.69 C 176.397 1539.58 176.3 1540.07 174.688 1541.49 C 173.411 1540.12 173.41 1540.62 173.318 1538.98 C 172.993 1533.2 174.821 1528.69 178.76 1524.58 C 207.296 1494.81 280.025 1489.34 320.015 1488.46 z"/>
<path transform="translate(0,0)" fill="rgb(90,46,52)" d="M 1099.88 94.4721 A 1103.07 1103.07 0 0 1 1167.47 95.575 C 1189.86 96.8495 1212.35 99.1614 1234.78 99.4327 C 1245.45 99.5617 1287.81 96.4596 1293.13 98.0597 C 1295.93 98.9012 1298.12 101.215 1299.11 103.935 C 1301.32 109.986 1294.86 118.697 1292.27 124.192 C 1303.18 128.331 1326.32 129.822 1333.48 134.289 C 1335.81 135.743 1337.03 137.572 1337.47 140.309 C 1338.68 147.827 1332.03 155.32 1328.28 161.123 C 1340.02 166.459 1352.92 168.873 1365.04 173.212 C 1370.24 175.072 1376.63 178.065 1378.7 183.612 C 1381.13 190.117 1373.96 199.553 1370.93 205.392 C 1384.05 208.194 1412.64 211.276 1420.5 222.713 C 1422.17 229.1 1414.4 239.421 1411.58 245.399 C 1423.8 250.8 1436.46 254.156 1448.95 258.686 C 1452.8 260.082 1457.25 262.501 1458.59 266.69 C 1461.04 274.336 1454.29 282.553 1450.4 288.498 C 1460.87 292.55 1498.6 306.002 1502.95 315.484 C 1505.24 320.494 1498.94 331.101 1496.69 335.738 L 1502.69 338.083 C 1511.92 341.713 1535.17 348.726 1538.37 358.776 C 1540.38 365.069 1533.37 372.684 1530.39 378.058 C 1541.74 385.426 1556 386.616 1567.06 393.785 C 1570.18 395.806 1572.48 398.427 1572.93 402.279 C 1573.68 408.614 1568.21 413.893 1564.51 418.373 C 1575.44 422.82 1590.66 426.036 1600.08 432.908 C 1602.57 434.725 1604.72 437.647 1604.8 440.845 C 1604.91 445.851 1599.87 449.739 1596.63 452.974 C 1607.12 458.517 1620.88 459.783 1630.31 466.504 C 1633 468.416 1634.98 470.956 1635.29 474.357 C 1635.99 481.876 1629.58 488.322 1625.28 493.76 C 1645.43 502.742 1665.46 510.306 1687.5 512.976 C 1708.48 515.518 1730.83 514.724 1751.47 510.097 C 1762.86 507.544 1773.81 503.759 1784.54 499.202 C 1790.43 496.702 1796.55 493.409 1802.7 491.642 C 1805.21 490.922 1809.05 490.101 1811.62 491.002 C 1813.2 491.558 1814.31 491.951 1814.9 493.576 C 1819.46 506.045 1804.19 547.84 1799.35 561.604 L 1809.29 566.946 C 1816.43 570.829 1826.9 575.683 1829.03 584.275 C 1831.69 595.039 1814.94 617.637 1809.36 627.604 C 1810.18 628.021 1810.99 628.439 1811.8 628.878 C 1821.47 634.174 1844.52 643.713 1847.31 655.148 C 1850.36 667.68 1834.16 686.456 1828.16 696.729 C 1836.24 704.535 1862.94 718.586 1864.91 728.288 C 1867.11 739.136 1851.74 757.437 1845.88 766.127 C 1852.44 772.738 1880.39 793.5 1882.04 799.749 C 1884.84 810.383 1870.43 828.521 1864.71 837.46 C 1874.48 846.468 1907.09 868.862 1907.36 881.646 C 1907.53 889.798 1891.66 903.188 1886.46 909.504 C 1895.72 920.279 1928.56 945.102 1929.17 958.316 C 1929.48 965.05 1912.73 978.608 1908 983.708 C 1915.99 996.771 1933 1009.29 1943.47 1021.38 C 1947.48 1026.01 1950.91 1030.75 1950.47 1037.09 C 1946.03 1045.97 1935.72 1052 1928.15 1058.22 C 1935.55 1067.43 1967.95 1100.65 1966.6 1110.33 C 1965.56 1117.73 1948.33 1127.26 1942.3 1131.32 C 1951.86 1143.77 1975.81 1165.82 1981.21 1177.15 C 1982.2 1179.22 1983.47 1182.7 1982.39 1184.89 C 1978.73 1192.33 1965.04 1195.98 1957.7 1198.79 C 1966.16 1216.04 1999.26 1248.8 1997.32 1265.94 C 1996.94 1269.26 1995.55 1271.07 1992.88 1273.04 C 1988.49 1274.25 1985.01 1273.16 1980.75 1271.78 C 1961.25 1265.51 1942.26 1255.64 1923.69 1247.03 C 1901.63 1236.81 1879.42 1227.29 1857.12 1217.63 C 1844.7 1212.26 1832.56 1206.24 1819.88 1201.52 L 1808.28 1211 C 1815.89 1221.37 1829.51 1233.07 1834.11 1244.8 C 1835.55 1248.46 1835.88 1252.26 1834.13 1255.88 C 1830.43 1263.57 1821.07 1266.4 1813.72 1269.28 C 1822.45 1282.41 1834.18 1294.04 1842.11 1307.58 C 1844.33 1311.37 1846.67 1316.65 1845.02 1321.11 C 1841.38 1330.87 1829.47 1330.51 1821.42 1334.31 C 1818.87 1342.57 1842.74 1369.7 1845.78 1380.09 C 1846.75 1383.42 1846.75 1386.83 1844.89 1389.85 C 1839.91 1397.93 1827.81 1399.83 1819.35 1402.27 C 1825.01 1415.17 1843.25 1436.65 1844.31 1448.73 C 1845.83 1466.05 1824.13 1458.05 1817.48 1466.25 C 1817.56 1474.44 1829 1487.27 1832.82 1494.98 C 1836.31 1502.04 1840.6 1518.53 1837.46 1526.12 C 1836.46 1528.54 1835.08 1529.84 1832.52 1530.54 C 1822.9 1533.18 1750.84 1494.24 1738.43 1488.04 A 159.952 159.952 0 0 1 1723.4 1496.75 C 1652.19 1533.3 1579.63 1567.61 1507.85 1603.07 L 1413.6 1650.03 C 1401.6 1655.96 1389.75 1662.59 1377.52 1667.98 C 1373.47 1669.77 1369.46 1671.21 1364.95 1670.89 C 1351.56 1669.93 1330.77 1659.41 1317.43 1654.8 C 1282.67 1642.78 1247.85 1631.07 1213.24 1618.58 C 1181.2 1607.01 1149.08 1594.58 1116.68 1584.1 C 1098.6 1593.29 1081.9 1604.33 1063.25 1612.55 C 1055.53 1615.85 1047.8 1619.17 1039.88 1621.98 C 1011.05 1632.21 976.161 1639.96 947.249 1625.93 C 929.793 1617.46 915.181 1601.92 908.806 1583.49 C 897.305 1550.26 911.26 1513.74 925.812 1483.9 L 858.775 1459.78 C 845.706 1455.21 831.564 1451.5 819.091 1445.56 C 816.464 1444.31 814.519 1443.38 812.871 1440.88 C 812.077 1437.39 811.39 1434.1 813.561 1430.9 C 816.104 1427.14 846.162 1421.86 852.634 1420.3 C 842.814 1416.66 822.362 1412.01 816.877 1402.93 C 815.422 1400.53 815.654 1399.28 816.21 1396.63 C 824.345 1386.23 847.164 1381.16 859.284 1376.88 C 849.819 1373.68 827.918 1368.63 822.667 1360.04 C 821.424 1358.01 821.139 1355.88 822.015 1353.64 C 825.573 1344.54 851.342 1337.57 860.004 1334.33 C 850.782 1330.83 826.887 1324.24 822.876 1315.06 C 821.782 1312.56 821.805 1310.68 823.015 1308.23 C 827.46 1299.22 848.022 1293.37 856.833 1290.56 C 845.044 1286.44 831.259 1285.86 822.138 1276.59 C 814.622 1283.47 807.925 1291.35 800.833 1298.67 C 782.002 1318.1 762.864 1338.12 742.332 1355.76 C 737.344 1360.04 731.007 1365.75 724.044 1365.23 C 711.406 1358.27 711.923 1340.89 706.405 1329 C 706.221 1328.6 706.027 1328.21 705.838 1327.82 C 701.176 1331.44 696.759 1336.31 691.353 1338.78 C 687.209 1340.68 682.736 1341.94 678.364 1339.98 C 668.565 1335.58 662.964 1314.42 659.397 1304.85 C 651.253 1309.65 645.602 1316.61 635.932 1318.97 C 619.45 1322.99 621.317 1289.71 612.312 1284.07 C 605.468 1286.17 598.519 1292.36 591.995 1295.85 C 588.11 1294.91 583.793 1293.91 580.371 1291.78 C 569.876 1285.25 568.055 1269.88 565.14 1258.85 C 559.344 1263.07 549.207 1272.09 542.003 1272.65 C 539.253 1272.86 536.852 1272.12 534.671 1270.45 C 524.308 1262.55 522.161 1247.53 520.282 1235.63 C 513.149 1239.93 506.186 1245.88 498.01 1248.04 C 494.101 1249.08 490.134 1248.89 486.611 1246.77 C 477.175 1241.07 475.396 1225.38 473.221 1215.42 C 468.028 1219.03 462.632 1223.37 456.801 1225.87 C 453.064 1227.48 448.473 1228.95 444.577 1226.98 C 436.633 1222.97 432.343 1202.52 429.325 1194.43 C 422.969 1199.4 416.492 1205.37 408.309 1206.9 C 404.561 1207.61 401.204 1206.9 398.13 1204.57 C 390.226 1198.58 388.833 1182.52 387.273 1173.33 C 379.416 1177.32 373.134 1184.41 363.965 1185.6 C 360.747 1186.02 357.683 1185.27 355.222 1183.08 C 348.587 1177.15 347.183 1162.87 346.395 1154.52 C 341.426 1157.67 336.095 1161.32 330.636 1163.53 C 326.508 1165.2 321.489 1166.25 317.297 1164.23 C 307.63 1159.57 305.962 1141.83 303.117 1132.49 C 297.035 1137 290.88 1142.55 283.19 1143.81 C 279.529 1144.41 275.81 1143.69 272.932 1141.26 C 264.889 1134.46 265.136 1119.65 264.533 1110.06 C 257.066 1114.01 249.588 1120.32 240.967 1121.27 C 237.661 1121.63 234.315 1120.89 231.759 1118.69 C 224.827 1112.74 225.366 1099.42 224.986 1091.04 C 212.712 1093.36 187.089 1101.44 176.598 1094.37 C 175.404 1092.49 174.759 1091.16 174.927 1088.86 C 175.651 1078.99 184.382 1067.53 189.631 1059.23 C 216.113 1017.39 263.774 954.939 301.431 923.59 C 300.242 920.472 298.724 917.146 300.284 913.856 C 304.026 905.963 323.457 900.441 331.154 896.728 C 329.226 894.052 327.149 891.331 325.531 888.453 C 323.775 885.331 322.88 881.237 324.128 877.78 C 327.082 869.599 343.521 865.89 351.023 863.227 C 348.444 859.749 344.89 856.487 343.006 852.562 C 341.756 849.96 341.174 846.16 342.327 843.459 C 345.208 836.714 364.587 831.253 371.475 827.781 C 369.098 820.359 362.035 808.363 366.228 800.685 C 370.242 793.334 386.077 791.635 393.693 789.902 C 391.664 781.571 385.57 768.244 389.287 760.175 C 393.328 751.404 409.242 749.534 417.738 746.818 C 415.881 741.711 413.478 736.486 412.007 731.275 C 410.775 726.913 409.908 721.296 412.459 717.219 C 417.171 709.688 432.339 708.768 440.399 707.241 C 438.078 701.366 435.163 695.384 433.683 689.238 C 432.493 684.295 431.968 678.573 434.939 674.129 C 440.385 665.986 456.584 664.345 465.555 662.124 C 463.178 657.72 461.028 653.284 459.734 648.421 C 458.424 643.496 458.366 637.955 461.283 633.573 C 467.359 624.447 483.751 622.586 493.791 620.288 C 491.361 610.9 484.263 598.377 488.746 588.764 C 493.036 579.566 511.253 576.185 520.253 572.938 C 517.496 565.121 512.789 559.118 512.222 550.501 C 511.997 547.094 512.697 544.276 515.102 541.725 C 520.88 535.596 539.923 535.356 548.067 534.756 C 545.019 526.865 539.311 515.565 542.119 507.157 C 545.322 497.565 567.732 492.626 576.423 487.832 L 577.755 487.088 C 574.107 479.925 567.221 470.378 569.841 461.973 C 572.973 451.921 596.46 447.069 605.296 442.34 L 606.654 441.605 C 604.987 433.602 597.079 419.837 598.558 412.328 C 599.009 410.04 599.818 409.181 601.84 407.991 C 606.451 405.279 616.076 407.228 621.083 407.932 C 655.716 412.801 679.751 422.847 712.267 433.74 C 705.988 418.431 696.1 404.159 687.407 390.113 A 2100.79 2100.79 0 0 0 629.571 301.805 C 618.428 285.738 604.848 269.179 596.995 251.275 C 597.436 249.63 597.778 248.219 599.034 246.965 C 603.482 242.522 792.583 182.944 817.261 174.017 C 870.556 154.737 919.324 126.696 974.269 111.73 C 1015.59 100.475 1057.18 95.7172 1099.88 94.4721 z"/>
<path transform="translate(0,0)" fill="rgb(248,246,239)" d="M 978.449 1087.56 C 980.565 1089.32 982.231 1089.9 982.257 1092.94 C 982.492 1120.25 878.129 1217.36 855.182 1240.37 L 854.118 1241.47 C 853.683 1239.49 859.91 1233.39 861.431 1231.65 C 870.207 1221.62 879.624 1212.15 888.411 1202.1 C 906.207 1181.77 923.283 1160.7 940.388 1139.78 C 954.013 1123.12 968.775 1106.92 978.449 1087.56 z"/>
<path transform="translate(0,0)" fill="rgb(206,142,134)" d="M 1133.37 787.679 C 1137.81 804.174 1130.03 848.379 1128.8 867.32 C 1125.32 870.113 1121.6 872.651 1118 875.269 L 1114.88 866.784 C 1111.56 854.063 1108.2 841.389 1104.36 828.815 C 1112.79 814.553 1124.24 801.665 1133.37 787.679 z"/>
<path transform="translate(0,0)" fill="rgb(248,246,239)" d="M 874.77 1424 C 898.287 1430.74 921.595 1439.57 944.534 1448.06 C 941.101 1454.44 937.262 1460.63 933.577 1466.87 L 923.686 1463.88 C 897.781 1456.63 872.669 1446.44 847.522 1436.95 C 848.447 1436.72 849.373 1436.48 850.29 1436.21 C 858.16 1433.9 870.609 1431.55 874.77 1424 z"/>
<path transform="translate(0,0)" fill="rgb(248,246,239)" d="M 1282.62 1422.49 A 1835.79 1835.79 0 0 1 1361.7 1450.26 C 1361.1 1456.45 1362.62 1463.84 1360.08 1469.51 C 1357.35 1470.99 1355.96 1469.97 1353.01 1469.23 C 1343.98 1465.78 1334.39 1463.25 1325.19 1460.18 A 2016.5 2016.5 0 0 0 1269.87 1441.94 L 1282.62 1422.49 z"/>
<path transform="translate(0,0)" fill="rgb(248,246,239)" d="M 1539.69 1112.7 C 1556.02 1113.45 1625.47 1134.25 1642.97 1140.19 C 1640.82 1144.39 1638.78 1147.81 1635.55 1151.26 C 1635.16 1151.51 1634.78 1151.77 1634.4 1152.01 C 1624.75 1158.09 1614.66 1158.26 1603.84 1155.6 C 1579.69 1149.66 1552.92 1134.34 1539.69 1112.7 z"/>
<path transform="translate(0,0)" fill="rgb(206,142,134)" d="M 1259.94 1058.79 C 1276.44 1059.88 1293.29 1063.5 1309.62 1066.13 C 1322.99 1094.23 1335.9 1121.48 1353.09 1147.53 C 1348.66 1146.01 1344.12 1141.56 1340.45 1138.68 C 1311.04 1115.61 1283.37 1087.86 1259.94 1058.79 z"/>
<path transform="translate(0,0)" fill="rgb(248,246,239)" d="M 1309.11 1374.46 C 1313.72 1376.47 1317.99 1379.5 1322.52 1381.76 L 1360.78 1400.52 A 2082.47 2082.47 0 0 1 1360.59 1431.34 L 1346.52 1427.06 C 1328.25 1421.32 1310.35 1414.19 1291.83 1409.28 L 1309.11 1374.46 z"/>
<path transform="translate(0,0)" fill="rgb(248,246,239)" d="M 1077.99 467.544 C 1087.99 480.556 1102.8 553.08 1108.69 573.661 L 1099.32 570.013 L 1067.93 558.646 C 1064.24 530.154 1067.71 494.231 1077.99 467.544 z"/>
<path transform="translate(0,0)" fill="rgb(206,142,134)" d="M 1114.73 966.787 C 1116.82 982.734 1098.13 1011.67 1099.51 1030.02 C 1101.58 1032.74 1105.14 1033.09 1108.29 1033.92 C 1096 1052.34 1086.69 1075.34 1070.72 1090.75 C 1070.64 1090.76 1070.56 1090.78 1070.48 1090.78 C 1068.88 1090.74 1067.84 1090.99 1066.62 1089.82 C 1062.41 1085.8 1062.28 1076 1062.49 1070.62 C 1063.65 1041.15 1093.48 986.666 1114.73 966.787 z"/>
<path transform="translate(0,0)" fill="rgb(206,142,134)" d="M 1120.28 926.724 C 1121.93 931.968 1119.31 939.619 1118.17 944.929 C 1087.95 976.259 1056.48 1024.34 1052.13 1068.64 C 1051.17 1078.37 1050.79 1090.74 1057.62 1098.53 C 1060.7 1102.05 1065.06 1104.41 1069.77 1104.63 C 1077.61 1104.99 1084.11 1100.23 1089.53 1095.16 C 1093.99 1101.1 1097.98 1107.41 1102.08 1113.6 L 1094.06 1118.88 C 1087.34 1122.9 1080.08 1127.09 1072.07 1127.46 C 1065.61 1127.76 1059.67 1125.09 1054.97 1120.75 C 1046.79 1113.21 1044.54 1101.98 1044.23 1091.31 C 1043.16 1054.66 1058.49 1010.33 1077.92 979.454 C 1090.09 960.134 1104.72 943.299 1120.28 926.724 z"/>
<path transform="translate(0,0)" fill="rgb(248,246,239)" d="M 877.547 1381.12 C 909.527 1390.66 941.091 1402.07 973.283 1410.8 C 967.196 1417.83 961.81 1425.67 956.331 1433.18 L 946.381 1430.36 C 913.291 1419.92 880.59 1408.33 847.41 1398.21 C 858.897 1394.02 869.727 1391.12 877.547 1381.12 z"/>
<path transform="translate(0,0)" fill="rgb(248,246,239)" d="M 1259.94 1455.73 C 1271.03 1457.73 1282.12 1462.22 1292.81 1465.83 C 1314.27 1473.08 1335.8 1480.93 1357.66 1486.86 C 1357.9 1497.13 1358.55 1507.4 1359.06 1517.66 L 1345.5 1513 A 4375.53 4375.53 0 0 1 1285.37 1492.69 C 1270.39 1487.59 1255.41 1482.08 1239.89 1478.84 C 1245.92 1470.61 1253.02 1463.22 1259.94 1455.73 z"/>
<path transform="translate(0,0)" fill="rgb(248,246,239)" d="M 1531.22 1387.37 C 1538.25 1390.85 1545.69 1393.72 1552.91 1396.82 C 1535.87 1405.18 1517.76 1412.1 1500.26 1419.51 L 1393.25 1464.49 L 1378.78 1470.42 L 1378.94 1449.5 C 1428.63 1426.51 1481.67 1410.69 1531.22 1387.37 z"/>
<path transform="translate(0,0)" fill="rgb(248,246,239)" d="M 876.599 1336.16 C 882.864 1335.81 987.962 1371.76 1003.99 1376.81 C 998.626 1381.67 989.575 1394.48 982.924 1395.79 C 964.651 1392.28 945.725 1384.5 928.018 1378.72 C 902.962 1370.53 876.537 1363.27 852.283 1352.98 C 859.946 1347.96 872.595 1344.71 876.599 1336.16 z"/>
<path transform="translate(0,0)" fill="rgb(248,246,239)" d="M 1470.61 1364.02 C 1484.33 1367.95 1497.79 1373.33 1511 1378.7 C 1476.63 1394.01 1440.71 1406.33 1406.01 1421.01 L 1378.97 1432.11 C 1379.05 1422.17 1378.69 1412.55 1377.85 1402.64 C 1407.93 1387.94 1440.96 1379.79 1470.61 1364.02 z"/>
<path transform="translate(0,0)" fill="rgb(248,246,239)" d="M 1228.6 1490.79 C 1241.49 1497.98 1262.75 1502.9 1277.08 1507.63 C 1304.5 1516.69 1331.71 1526.38 1359.05 1535.69 L 1359.09 1561.12 L 1348.46 1556.96 C 1302.4 1541.18 1256.87 1523.57 1210.34 1509.29 C 1216.75 1503.35 1222.8 1497.33 1228.6 1490.79 z"/>
<path transform="translate(0,0)" fill="rgb(248,246,239)" d="M 1321.37 1323.73 C 1353.5 1328.96 1418.41 1344.4 1447.97 1356.75 L 1421.23 1367.07 C 1405.9 1374.02 1389.56 1378.59 1374.24 1385.79 C 1354.41 1377.03 1334.81 1367.77 1314.91 1359.18 C 1318.34 1347.49 1320.08 1335.83 1321.37 1323.73 z"/>
<path transform="translate(0,0)" fill="rgb(248,246,239)" d="M 875.668 1290.17 C 906.271 1298.52 936.446 1310.08 966.642 1319.88 C 990.535 1327.64 1015.73 1333.87 1039.16 1342.72 C 1031.97 1349.13 1025.31 1355.54 1018.87 1362.73 C 962.786 1347.52 907.376 1327.5 852.214 1309.22 C 856.359 1306.48 860.826 1304.51 865.153 1302.1 C 870.912 1298.89 873.843 1296.66 875.668 1290.17 z"/>
<path transform="translate(0,0)" fill="rgb(248,246,239)" d="M 1194.07 1522.61 C 1212.75 1525.88 1232.44 1533.98 1250.43 1540.19 C 1286.34 1552.6 1321.96 1565.86 1358.15 1577.42 L 1358.26 1607.43 L 1342.22 1602.11 C 1318.51 1593.39 1294.52 1585.52 1270.81 1576.83 C 1238.3 1564.91 1205.75 1552.01 1172.32 1542.93 A 1035.24 1035.24 0 0 1 1194.07 1522.61 z"/>
<path transform="translate(0,0)" fill="rgb(248,246,239)" d="M 872.969 1249.61 C 894.137 1252.87 916.346 1261.23 936.927 1267.21 L 1082.17 1310.29 C 1075.83 1314.56 1069.68 1319.12 1063.47 1323.58 L 1054.94 1329.62 C 988.514 1310.13 923.629 1285.18 856.917 1266.82 C 861.807 1260.7 867.489 1255.2 872.969 1249.61 z"/>
<path transform="translate(0,0)" fill="rgb(248,246,239)" d="M 1156.31 1554.78 C 1171.92 1557.73 1188.23 1565.44 1203.45 1570.52 C 1255.18 1587.78 1306.41 1606.6 1357.79 1624.9 L 1357.13 1650.02 L 1341.24 1645.11 C 1326.01 1639.1 1310.1 1634.25 1294.65 1628.8 L 1200.21 1595.49 C 1177.7 1587.69 1154.91 1580.39 1132.65 1571.9 C 1140.88 1566.74 1148.55 1560.62 1156.31 1554.78 z"/>
<path transform="translate(0,0)" fill="rgb(248,246,239)" d="M 1573.71 1405.99 C 1582.15 1406.8 1593.37 1413.6 1601.2 1417.17 C 1589.56 1423.82 1576.94 1429.03 1564.72 1434.49 A 4347.24 4347.24 0 0 1 1504.79 1460.89 C 1468.96 1476.46 1433.8 1493.33 1397.75 1508.48 C 1390.72 1511.4 1383.84 1514.75 1376.94 1517.96 L 1376.63 1488.88 C 1427.02 1467.45 1477.78 1447.09 1527.96 1425.1 C 1542.95 1418.53 1559.31 1413.61 1573.71 1405.99 z"/>
<path transform="translate(0,0)" fill="rgb(248,246,239)" d="M 1621.78 1427.96 C 1629.53 1429.83 1638.17 1435.2 1645.48 1438.63 C 1636.38 1443.83 1625.49 1447.4 1615.81 1451.59 L 1558.39 1476.85 C 1502.4 1501.49 1447.11 1527.05 1391.75 1553.06 L 1377.08 1560.22 C 1376.94 1551.76 1377.15 1543.28 1377.26 1534.82 C 1459.35 1500.85 1540.43 1463.72 1621.78 1427.96 z"/>
<path transform="translate(0,0)" fill="rgb(206,142,134)" d="M 1118.67 1049.57 C 1123.57 1053.66 1141.65 1085.89 1147.49 1094.26 C 1172.14 1129.55 1204.25 1163.37 1239.1 1188.77 A 356.946 356.946 0 0 0 1281.65 1215.14 C 1288.75 1218.93 1296.37 1222.12 1303.25 1226.26 C 1305.21 1227.43 1306.48 1227.8 1307.44 1229.9 C 1303.35 1231.55 1298.28 1231.22 1293.9 1231.38 C 1291.51 1231.23 1289.13 1231.09 1286.76 1230.74 C 1234.77 1223.04 1176.02 1170.35 1141.64 1131.59 C 1127.27 1115.39 1114.35 1098.01 1101.5 1080.61 C 1106.74 1069.96 1112.65 1059.79 1118.67 1049.57 z"/>
<path transform="translate(0,0)" fill="rgb(206,142,134)" d="M 1401.36 1085.78 L 1516.4 1107.29 C 1529.92 1128.65 1544.6 1143.72 1565.25 1158.13 C 1562.88 1159.82 1560.38 1161.35 1557.94 1162.94 C 1542.31 1170.85 1526.6 1172.3 1509.43 1169.44 C 1461.28 1161.42 1428.27 1123.26 1401.36 1085.78 z"/>
<path transform="translate(0,0)" fill="rgb(248,246,239)" d="M 1707.21 1470.94 C 1711.13 1471.07 1717.58 1475.47 1721.17 1477.31 C 1706.91 1485.87 1691.41 1492.65 1676.48 1499.93 L 1610.28 1532.67 L 1385.18 1645.01 L 1374.73 1650.07 L 1374.83 1624.56 C 1391.99 1617.73 1408.32 1608.28 1425.03 1600.35 C 1458.07 1584.68 1491.47 1569.49 1524.8 1554.46 L 1634.54 1504.58 C 1658.69 1493.81 1684.32 1484.21 1707.21 1470.94 z"/>
<path transform="translate(0,0)" fill="rgb(248,246,239)" d="M 1664.61 1448.96 C 1671.18 1450.08 1680.84 1457.83 1686.73 1461.53 C 1675.96 1468.32 1663.53 1472.87 1651.9 1478.03 L 1591.41 1504.93 L 1389.39 1599 C 1384.42 1601.19 1379.82 1603.95 1375.15 1606.68 L 1375.25 1580.4 C 1397.49 1567.78 1421.25 1557.5 1444.38 1546.62 A 6575.84 6575.84 0 0 1 1604.13 1474.91 C 1624.21 1466.11 1644.74 1458.22 1664.61 1448.96 z"/>
<path transform="translate(0,0)" fill="rgb(206,142,134)" d="M 1331.19 1070.54 L 1378.04 1080.9 C 1383.79 1088.77 1388.94 1097.11 1394.62 1105.03 C 1431.79 1156.79 1462.63 1179.73 1525.86 1190.1 C 1522.95 1191.83 1519.96 1193.4 1516.99 1195.01 C 1514.12 1196.28 1511.18 1197.42 1508.23 1198.5 C 1483.19 1207.71 1452.34 1205.13 1428.32 1193.95 C 1416.72 1188.55 1406.52 1180.97 1396.66 1172.91 C 1361.53 1144.23 1346.33 1112.37 1331.19 1070.54 z"/>
<path transform="translate(0,0)" fill="rgb(206,142,134)" d="M 1090.63 848.794 C 1097.24 857.352 1098.19 876.699 1103.91 887.287 C 1105.53 890.291 1107.79 892.689 1111.19 893.573 C 1117.45 895.203 1123.66 890.922 1128.75 887.851 C 1127.49 894.996 1126.02 901.993 1124.23 909.024 C 1114.98 916.54 1105.68 924.129 1097.42 932.741 C 1061.78 969.913 1026.32 1040.65 1027.97 1092.78 C 1028.5 1109.43 1034.47 1122.74 1046.62 1134.22 C 1049.49 1136.43 1052.12 1137.79 1053.53 1141.21 L 1052.46 1143.59 C 1051.52 1144.05 1050.83 1144.47 1049.74 1144.64 C 1045.8 1145.25 1040.98 1143.39 1037.73 1141.31 C 1022.47 1131.57 1014.25 1109.67 1010.34 1092.9 C 1004.69 1068.75 1002.47 1038.39 1007.16 1014.05 C 1010.27 997.925 1017.11 983.086 1023.84 968.227 C 1042.88 926.188 1066.18 887.831 1090.63 848.794 z"/>
<path transform="translate(0,0)" fill="rgb(248,246,239)" d="M 1114.47 1129.94 C 1119.04 1131.1 1144.86 1162.77 1151.21 1168.66 C 1179.1 1194.54 1210.22 1219.11 1244.13 1236.5 C 1225.06 1239.22 1207.23 1244.21 1189.11 1250.61 A 2594.45 2594.45 0 0 0 1144.85 1236.32 C 1124.97 1229.4 1104.54 1224.1 1084.23 1218.63 C 1056.52 1211.17 1028.95 1204 1000.73 1198.65 C 1036.68 1169.22 1074.19 1151.84 1114.47 1129.94 z"/>
<path transform="translate(0,0)" fill="rgb(206,142,134)" d="M 1290.68 1285.45 C 1291.6 1286.41 1292.44 1287.29 1293.17 1288.41 C 1303.52 1304.14 1306.24 1322.28 1301.84 1340.46 C 1283.96 1414.27 1216.77 1480.44 1160.43 1528.06 C 1138.32 1546.75 1115.92 1564.97 1091.04 1579.9 C 1052.61 1602.95 999.892 1625.59 954.838 1614.44 C 949.246 1612.14 944.038 1609.19 939.692 1604.92 C 937.825 1603.09 937.277 1601.99 937.196 1599.43 C 937.651 1599.02 938.011 1598.46 938.562 1598.2 C 940.994 1597.01 952.371 1597.82 955.844 1597.61 A 144.99 144.99 0 0 0 982.992 1593.64 C 1034.8 1581.01 1081.15 1550.44 1123.68 1519.49 C 1146.87 1502.61 1167.78 1483.08 1187.87 1462.66 C 1201.23 1449.1 1214.9 1435.53 1226.89 1420.73 C 1237.13 1408.07 1245.61 1394.54 1253.87 1380.55 C 1272.1 1349.7 1285.07 1321.19 1290.68 1285.45 z"/>
<path transform="translate(0,0)" fill="rgb(248,246,239)" d="M 996.419 1107.74 C 998.351 1110.28 999.44 1115.21 1000.66 1118.34 C 1007.54 1135.95 1015.01 1147.07 1031.34 1157.1 C 1019.72 1163.81 976.616 1191.79 970.347 1200.98 C 969.019 1202.93 969.715 1203.39 970.187 1205.56 C 972.08 1208 973.847 1209.35 976.917 1210.15 C 1003.65 1217.14 1031.26 1221.88 1058.14 1228.63 C 1094.39 1237.74 1129.58 1248.93 1165.43 1259.38 C 1146.68 1270.16 1127.73 1279.34 1109.73 1291.5 L 1099.98 1297.94 C 1069.83 1288.31 1039.31 1279.73 1009 1270.61 A 3897.19 3897.19 0 0 0 885.982 1234.48 C 898.91 1219.16 914.441 1205.75 928.85 1191.83 C 955.238 1166.36 977.729 1139.41 996.419 1107.74 z"/>
<path transform="translate(0,0)" fill="rgb(206,142,134)" d="M 1136.36 1040.7 C 1167.36 1043.04 1206.28 1048.29 1236.19 1055.53 C 1272.57 1099.83 1294.4 1125.13 1342.84 1158.19 C 1353.25 1165.29 1364.77 1170.56 1375.15 1177.59 C 1383.2 1183.05 1390.32 1189.97 1398.12 1195.8 C 1412.55 1206.58 1428.29 1212.98 1444.94 1219.43 C 1441.99 1220.81 1438.83 1221.78 1435.76 1222.85 C 1413.44 1229.05 1385.57 1235 1362.7 1229.67 C 1347.62 1226.16 1332.76 1218.51 1318.61 1212.24 A 378.243 378.243 0 0 1 1168.07 1090.04 C 1156.51 1074.27 1146.58 1057.35 1136.36 1040.7 z"/>
<path transform="translate(0,0)" fill="rgb(248,246,239)" d="M 1661.82 1145.87 C 1677.26 1149.47 1692.3 1154.53 1707.34 1159.53 C 1726.72 1229.81 1740.33 1309.12 1729.84 1381.95 C 1711.2 1372.07 1693.18 1361.03 1674.66 1350.94 C 1642.46 1333.4 1609.26 1316.78 1576.14 1301.08 C 1526.56 1277.93 1475.34 1260.28 1424.19 1241.21 C 1427.31 1240.65 1430.42 1240.15 1433.51 1239.44 C 1446.73 1236.4 1459.6 1230.7 1472.31 1226.03 C 1492.11 1218.76 1515.89 1213.26 1532.72 1200.01 C 1536.16 1197.29 1538.45 1193.12 1540.73 1189.43 C 1556.6 1183.8 1568.28 1176.41 1579.47 1163.79 C 1589.42 1166.49 1599.77 1168.7 1610.12 1168.72 C 1631.05 1168.77 1647.28 1160.42 1661.82 1145.87 z"/>
<path transform="translate(0,0)" fill="rgb(90,46,52)" d="M 1534.84 1201.15 C 1562.42 1203.7 1614.79 1222.66 1637.25 1239.46 L 1637.33 1241.07 C 1618.04 1235.48 1599.36 1227.93 1580.32 1221.59 C 1566.54 1217 1552.19 1213.76 1538.61 1208.66 C 1537.05 1208.08 1535.94 1207.35 1534.63 1206.35 C 1533.76 1203.81 1533.93 1203.72 1534.84 1201.15 z"/>
<path transform="translate(0,0)" fill="rgb(90,46,52)" d="M 1536.69 1223.82 C 1537.95 1223.95 1539.2 1224.13 1540.44 1224.32 C 1575.74 1229.71 1620.4 1255.55 1646.94 1279.14 C 1661.99 1292.5 1676.14 1309.13 1687.99 1325.38 C 1678.58 1320.55 1670.43 1310.54 1661.99 1303.88 C 1651.03 1295.21 1639.26 1287.51 1627.63 1279.79 A 864.963 864.963 0 0 0 1580.91 1250.91 C 1566.08 1242.41 1549.88 1234.74 1536.69 1223.82 z"/>
<path transform="translate(0,0)" fill="rgb(248,246,239)" d="M 1727.74 1167.56 C 1751.48 1174.95 1774.87 1183.86 1798.06 1192.8 C 1794.28 1194.79 1788.65 1197.1 1785.67 1200.06 C 1783.82 1201.89 1783.41 1203.27 1783.37 1205.85 C 1783.21 1216.24 1809.81 1241.34 1817.78 1249.12 C 1813.53 1250.47 1809.04 1251.72 1804.99 1253.58 C 1800.96 1255.43 1793.93 1259.31 1793.07 1264.25 C 1791.69 1272.22 1819.22 1307.53 1824.47 1314.8 C 1820.42 1315.88 1816.33 1316.93 1812.51 1318.66 C 1807.68 1320.84 1803 1324.24 1801.29 1329.48 C 1797.35 1341.57 1819.78 1369.27 1826.27 1380.92 C 1821.36 1382.65 1816 1384.2 1811.35 1386.54 C 1806.6 1388.94 1801.49 1392.75 1800.02 1398.14 C 1797.17 1408.57 1817.57 1434.24 1823.02 1444.6 C 1811.94 1448.76 1804.21 1450.41 1795.77 1459.65 C 1800.3 1476.31 1811.12 1492.27 1819.56 1507.31 C 1777.67 1491.72 1739.87 1466.05 1700.14 1445.91 C 1625.31 1407.97 1549.42 1373.52 1470.53 1344.85 C 1420.39 1328.87 1371.88 1316.64 1320.5 1305.45 C 1312.19 1285.34 1300.08 1269.63 1289.16 1251.24 L 1288.55 1250.2 C 1303.78 1247.59 1317.19 1245.21 1331.76 1239.69 C 1343.55 1243.18 1355.66 1247.93 1367.94 1249.17 C 1377.33 1250.12 1387.73 1247.34 1396.82 1250.06 C 1481.02 1275.26 1565.71 1313.18 1643.43 1354.12 C 1663.69 1364.78 1684.29 1375.38 1704.23 1386.6 C 1711.7 1390.81 1718.58 1396.38 1726.22 1400.21 C 1729.16 1401.68 1733.54 1403.42 1736.9 1402.94 C 1741.67 1402.27 1743.79 1398.96 1746.66 1395.46 A 604.355 604.355 0 0 0 1727.74 1167.56 z"/>
<path transform="translate(0,0)" fill="rgb(206,142,134)" d="M 1244.67 1253.33 C 1244.79 1253.31 1244.92 1253.28 1245.05 1253.26 C 1252.61 1252.34 1261.63 1251.21 1267.93 1256.45 C 1272.9 1260.58 1274.57 1267.45 1275 1273.62 C 1278.43 1322.66 1235.17 1390.98 1203.24 1427.84 C 1149.4 1490 1038.94 1577.14 954.307 1583.11 C 944.31 1583.15 935.854 1582.51 926.241 1579.7 C 924.538 1575.2 922.951 1570.39 922.235 1565.62 C 916.402 1526.66 951.53 1466.47 973.911 1435.58 C 1030.21 1357.88 1148.54 1268.38 1244.67 1253.33 z"/>
<path transform="translate(0,0)" fill="rgb(90,46,52)" d="M 1192.64 1305.28 C 1200.59 1304.38 1209.45 1305.31 1216.16 1309.99 C 1222.86 1314.65 1225.44 1322.18 1226.56 1329.97 C 1230.71 1358.92 1210.1 1390.83 1193.71 1412.75 C 1153.23 1466.9 1082.57 1526.08 1014.58 1536.01 C 1005.25 1536.3 996.342 1535.69 988.246 1530.52 C 982.285 1526.71 978.489 1521.04 977.225 1514.09 C 972.324 1487.13 994.016 1452.07 1008.91 1431.43 C 1047.73 1377.59 1126.51 1315.88 1192.64 1305.28 z"/>
<path transform="translate(0,0)" fill="rgb(206,142,134)" d="M 995.039 1518 C 993.058 1515.91 991.868 1513.81 991.223 1511 C 987.846 1496.26 1000.75 1467.42 1008.18 1454.46 C 1039.97 1399.03 1116.02 1338.38 1178.23 1321.88 C 1185.66 1319.91 1203.73 1315.64 1210.6 1319.63 L 1210.9 1320.9 C 1206.3 1321.59 1201.72 1321.05 1197.1 1321.53 C 1185.23 1322.77 1172.89 1326.99 1162.06 1331.93 A 376.758 376.758 0 0 0 1020.84 1446.42 C 1012.57 1457.57 1003.94 1469.66 999.169 1482.82 C 995.989 1491.58 995.304 1498.86 999.287 1507.39 L 999.829 1508.52 L 998.661 1509.22 C 995.222 1503.91 994.929 1500.04 994.582 1493.89 C 993.006 1495.77 991.483 1505.3 991.998 1507.81 C 992.614 1510.81 994.616 1514.67 996.242 1517.25 L 995.039 1518 z"/>
<path transform="translate(0,0)" fill="rgb(206,142,134)" d="M 999.829 1508.52 C 1002.42 1509.68 1004.12 1510.94 1007 1510.66 C 1009.44 1500.53 1008.26 1491.01 1012.61 1480.87 C 1016.47 1471.91 1023.43 1462.75 1029.25 1454.93 A 372.068 372.068 0 0 1 1135.72 1359.43 C 1149.07 1351.33 1191.57 1329.66 1206.34 1332.83 C 1208.88 1333.38 1210.91 1334.43 1212.28 1336.75 C 1216.42 1343.74 1212.21 1355.6 1209.56 1362.62 C 1205.79 1372.58 1199.87 1381.89 1194.06 1390.8 C 1162.05 1439.9 1109.62 1486.26 1056.25 1510.47 C 1042.88 1516.53 1013.45 1526.8 999.401 1521.16 C 997.591 1520.44 996.215 1519.55 995.039 1518 L 996.242 1517.25 C 994.616 1514.67 992.614 1510.81 991.998 1507.81 C 991.483 1505.3 993.006 1495.77 994.582 1493.89 C 994.929 1500.04 995.222 1503.91 998.661 1509.22 L 999.829 1508.52 z"/>
<path transform="translate(0,0)" fill="rgb(248,246,239)" d="M 1109.55 111.446 C 1165.42 109.132 1221.58 117.772 1277.62 116.77 C 1275.9 119.929 1273.92 123.228 1272.87 126.688 C 1271.95 129.743 1272.52 132.866 1274.28 135.534 C 1280.28 144.597 1306.3 146.684 1316.5 148.664 C 1314.73 152.165 1312.93 155.67 1311.31 159.24 C 1309.93 162.265 1307.76 167.572 1309.33 170.799 C 1314.08 180.547 1348.87 188.605 1359.65 192.039 C 1357.65 195.812 1355.18 199.827 1353.82 203.865 C 1352.69 207.21 1353.07 211.988 1354.92 215.012 C 1360.66 224.385 1388.01 229.002 1398.33 231.979 C 1395.19 238.343 1389.42 247.293 1389.49 254.472 C 1395.18 263.064 1427.64 271.327 1438.73 274.985 C 1435.28 281.099 1429.4 288.843 1430.44 296.156 C 1437.28 306.85 1470.84 317.843 1483.56 323.379 C 1480.77 328.299 1477.26 333.013 1474.99 338.21 C 1473.91 340.684 1473.45 342.698 1474.38 345.309 C 1483.3 356.653 1505.98 360.52 1519.13 366.177 C 1516.34 372.344 1508.7 380.241 1508.16 386.743 C 1513.55 396.324 1541.84 403.746 1552.6 407.994 C 1550.16 411.598 1546.9 414.695 1544.68 418.434 C 1543.05 421.174 1541.87 425.6 1543.05 428.67 C 1545.43 434.882 1575.13 444.147 1582.3 447.56 C 1579.72 452.898 1576.43 457.87 1578.26 463.975 C 1583.95 470.755 1595.81 472.524 1603.64 476.218 C 1606.83 477.725 1609.72 479.216 1610.95 482.632 L 1609.46 484.237 C 1604.7 485.665 1599.94 485.079 1595.37 483.103 C 1583.12 477.794 1571.53 470.286 1560.06 463.492 A 1391.79 1391.79 0 0 0 1519.6 440.56 C 1490.55 424.869 1460.69 413.454 1430.23 400.96 C 1417.76 379.894 1404.53 359.877 1389.9 340.233 C 1356.57 295.5 1318.41 253.637 1282.03 211.375 C 1273.6 201.592 1252.18 173.659 1242.86 167.533 C 1226.52 156.791 1108.72 172.023 1084.8 175.777 C 1046.34 183.756 1008.35 192.886 971.236 205.886 C 933.961 218.944 897.939 235.181 860.788 248.544 C 831.785 258.975 802.821 269.761 773.526 279.338 C 755.155 285.344 736.024 290.02 717.901 296.541 C 713.573 298.098 709.075 300.849 707.422 305.366 C 707.139 306.141 706.725 308.904 706.851 309.561 C 707.841 314.726 743.938 352.758 749.622 359.161 C 782.022 395.651 817.467 437.389 843.492 478.472 C 830.422 474.004 817.62 468.815 804.552 464.351 C 781.961 456.634 759.258 449.658 737.001 440.953 C 729.917 426.319 721.245 412.183 713.056 398.119 C 684.71 349.438 652.824 303.643 620.098 257.834 C 658.536 246.248 696.567 233.177 734.696 220.609 C 766.454 210.141 798.531 200.265 829.85 188.54 C 860.529 177.055 889.31 162.227 919.387 149.522 C 983.255 122.543 1040.65 113.776 1109.55 111.446 z"/>
<path transform="translate(0,0)" fill="rgb(248,246,239)" d="M 1190.98 182.435 C 1204.03 181.578 1217.16 182.38 1230.2 183.138 C 1256.52 207.38 1279.84 237.298 1302.89 264.665 C 1337.37 305.607 1373 346.251 1401.82 391.482 C 1359.9 376.269 1316.49 365.982 1273.17 355.712 C 1230.24 345.537 1186.17 335.218 1142.44 329.224 C 1137.32 323.829 1131.77 319.558 1125.55 315.494 C 1054.24 268.918 958.612 262.6 876.932 279.683 C 900.49 285.018 925.11 283.586 949.107 284.341 C 1003.74 286.058 1054.37 298.579 1103.69 321.974 C 1047.7 308.963 986.085 299.558 929.451 313.831 C 909.435 318.876 855.83 338.352 845.489 355.803 C 909.858 330.398 957.02 318.605 1027.05 325.58 C 1032.27 348.324 1042.23 370.646 1050.89 392.278 C 1057.84 409.65 1064.28 427.275 1071.83 444.396 C 1054.47 477.488 1049.29 514.974 1049.22 551.911 C 1029.55 543.98 1009.14 537.537 989.115 530.549 C 967.913 523.149 946.921 515.172 925.742 507.714 C 907.962 501.453 889.404 496.378 872.351 488.278 C 830.117 426.507 782.963 364.95 730.148 311.766 A 2172.02 2172.02 0 0 0 869.238 264.71 C 921.981 244.684 974.689 221.862 1029.15 207.075 A 734.297 734.297 0 0 1 1190.98 182.435 z"/>
<path transform="translate(0,0)" fill="rgb(90,46,52)" d="M 1077.91 231.149 C 1094.5 233.679 1111.32 238.519 1127.67 242.473 C 1181.79 255.563 1249.54 272.351 1297.37 301.712 C 1246.81 294.508 1121.04 255.709 1077.91 231.149 z"/>
<path transform="translate(0,0)" fill="rgb(248,246,239)" d="M 1045.65 329.155 C 1145.91 349.733 1248 364.278 1346.58 392.242 A 1003.48 1003.48 0 0 1 1457.43 431.015 C 1477.95 439.395 1498.52 448.469 1517.97 459.153 C 1547.52 475.392 1575.63 493.839 1606.66 507.298 C 1670.78 535.114 1729.16 541.839 1795.12 515.753 C 1790.27 533.598 1781.24 550.112 1774.8 567.408 C 1785.44 574.992 1797.42 580.637 1809.01 586.61 C 1802.19 601.741 1791.45 615.723 1786.85 631.693 C 1798.4 643.576 1814.95 649.427 1827.52 660.289 C 1821.41 674.71 1811.5 686.688 1805.99 701.69 C 1817.61 713.838 1833.84 722.52 1847.12 732.897 C 1840.08 741.846 1825.85 756.68 1826.02 768.441 C 1826.16 778.524 1853.69 796.482 1861.8 803.982 C 1855.94 815.803 1846.53 825.295 1841.13 837.527 C 1849.22 852.282 1873.65 868.902 1886.75 881.33 C 1880.41 888.752 1873.19 896.624 1868.26 905.044 C 1866.11 908.694 1864.07 913.274 1865.67 917.532 C 1866.69 920.268 1869.27 921.257 1871.73 922.336 C 1880.44 926.147 1900.43 950.162 1907.41 958.233 C 1901.87 963.32 1886.13 977.314 1886.6 985.136 C 1887.04 992.43 1922.32 1024.51 1929.3 1032.31 C 1919.4 1040.97 1911.61 1048.11 1906.94 1060.83 C 1916.9 1077.17 1933.11 1092.3 1945.92 1106.6 C 1938.55 1112.49 1925.39 1121.12 1922.14 1130.37 C 1920.98 1133.66 1921.39 1135.73 1922.99 1138.72 C 1936.55 1150.66 1947.98 1164.69 1960.31 1177.84 C 1953.81 1181.07 1936.91 1187.35 1933.64 1193.59 C 1936.62 1205.02 1960.62 1235.69 1968.83 1247.66 C 1941.84 1236.41 1916.05 1221.73 1889.12 1210.14 A 2450.65 2450.65 0 0 0 1670.01 1127.92 C 1653.26 1122.54 1636.64 1116.55 1619.73 1111.73 C 1583.42 1101.39 1545.94 1094.54 1508.95 1087.05 A 12170.5 12170.5 0 0 0 1338.9 1053.46 C 1291.7 1044.24 1244.35 1036.71 1196.88 1029.15 C 1173.17 1025.37 1148.12 1019.39 1124.2 1018.8 C 1130.79 979.299 1139.88 940.038 1144.86 900.302 C 1150.72 853.539 1154.1 805.188 1152.84 758.051 C 1150.09 655.727 1127 552.114 1094.23 455.442 C 1079.72 412.63 1060.53 371.801 1045.65 329.155 z"/>
<path transform="translate(0,0)" fill="rgb(90,46,52)" d="M 1150.88 418.925 C 1164.24 419.531 1178 422.356 1191.24 424.334 A 842.074 842.074 0 0 1 1415.64 490.626 C 1442.15 502.855 1467.47 517.482 1493.51 530.662 C 1563.39 566.036 1635.34 593.322 1714.53 593.096 C 1719.73 593.082 1723.38 592.251 1727.31 596.157 C 1729.96 606.105 1727.6 618.399 1728.85 628.883 C 1732.68 660.838 1738.44 694.426 1746.96 725.413 C 1752.41 745.215 1757.88 765.193 1764.82 784.529 C 1781.91 832.15 1803.37 878.28 1821.1 925.71 C 1838.49 972.256 1851.59 1020.6 1862.61 1069.01 C 1865.95 1083.65 1872.8 1111.46 1870.54 1125.7 C 1869.99 1129.15 1868.69 1132.68 1865.48 1134.51 C 1862.54 1136.18 1859.76 1135.25 1856.73 1134.49 C 1830.83 1125.28 1806.21 1112.09 1780.68 1101.85 C 1761.39 1094.1 1741.62 1087.36 1722.07 1080.29 C 1677.96 1064.33 1633.99 1049.37 1588.47 1037.82 C 1542.04 1026.05 1495.02 1016.8 1448.1 1007.3 C 1410.14 999.624 1372.33 991.487 1334.25 984.4 A 4351.09 4351.09 0 0 0 1277.18 974.046 C 1263.79 971.829 1250.18 970.176 1236.92 967.254 C 1231.76 966.117 1226.41 964.345 1222.29 960.922 C 1218.76 957.988 1216.38 953.891 1216.51 949.214 C 1216.91 935.141 1222.7 916.061 1224.58 900.964 C 1230.54 853.132 1233.73 804.764 1229.63 756.629 A 827.38 827.38 0 0 0 1195.4 582.464 A 3505.86 3505.86 0 0 0 1171.66 509.939 C 1165.9 493.311 1145.6 442.945 1145.35 428.028 C 1145.28 424.23 1148.48 421.503 1150.88 418.925 z"/>
<path transform="translate(0,0)" fill="rgb(248,246,239)" d="M 1638.98 603.846 C 1661.69 608.38 1683.81 611.439 1706.99 612.402 A 924.181 924.181 0 0 0 1753.1 808.994 C 1767.37 848.778 1785 887.207 1800.41 926.51 A 930.979 930.979 0 0 1 1837.26 1041.59 C 1842.94 1064.51 1848.1 1087.36 1849.19 1111.04 A 1767.43 1767.43 0 0 0 1795.26 1088.93 C 1727.62 1061.55 1657.43 1034.44 1586.16 1018.23 C 1585.88 1013.91 1585.15 1008.86 1585.84 1004.59 C 1588.59 987.611 1603.98 969.869 1613.28 955.766 C 1676.11 860.566 1660.79 710.041 1638.98 603.846 z"/>
<path transform="translate(0,0)" fill="rgb(90,46,52)" d="M 1687.9 754.594 C 1692.84 767.112 1695.01 782.243 1697.47 795.504 C 1708.86 856.874 1712.57 919.139 1699.42 980.456 C 1698.41 984.748 1696.62 988.763 1694.97 992.84 C 1697.75 913.538 1691.62 833.771 1687.9 754.594 z"/>
<path transform="translate(0,0)" fill="rgb(248,246,239)" d="M 1167.43 439.406 C 1248.92 450.063 1333.75 472.435 1408.5 507.077 C 1438.22 520.852 1466.63 537.33 1496.01 551.806 A 766.832 766.832 0 0 0 1618.49 599.222 C 1620.77 607.011 1622.4 614.944 1623.98 622.897 C 1641.71 712.267 1650.38 826.51 1614.26 912.495 C 1605.57 933.183 1593.35 951.785 1580.91 970.344 C 1572.22 984.196 1566.93 997.148 1565.59 1013.56 C 1521.67 1001.28 1476.43 993.048 1431.68 984.318 A 7599.46 7599.46 0 0 0 1235.26 948.445 C 1242.03 918.444 1245.04 888.518 1247.11 857.876 C 1254.71 745.308 1235.96 654.133 1203.37 546.882 C 1196.42 524.035 1188.63 501.673 1180.65 479.166 C 1176.31 466.92 1170.41 453.675 1167.75 441.005 C 1167.64 440.473 1167.54 439.939 1167.43 439.406 z"/>
<path transform="translate(0,0)" fill="rgb(90,46,52)" d="M 1491.07 902.316 L 1491.54 902.86 C 1468.83 923.346 1390.02 941.649 1359.39 946.356 C 1343.37 948.819 1326.69 950.275 1310.46 950.001 L 1310.32 949.926 L 1310.13 949.194 C 1314.98 947.078 1320.17 946.296 1325.22 944.782 C 1343.78 939.213 1362.63 934.923 1381.43 930.234 C 1418.04 921.099 1454.3 910.9 1491.07 902.316 z"/>
<path transform="translate(0,0)" fill="rgb(90,46,52)" d="M 1281.66 550.651 C 1282.75 551.591 1283.62 552.638 1284.45 553.807 C 1312.99 593.635 1340.15 682.587 1344.7 730.389 C 1346.48 749.115 1345.62 767.254 1342.4 785.762 L 1341.82 787.253 C 1339.02 781.097 1338.36 759.964 1337.09 751.595 C 1334.33 733.34 1331.35 714.857 1326.99 696.92 C 1321.29 673.519 1315.23 649.914 1307.74 627.014 C 1299.37 601.454 1289.63 576.341 1281.66 550.651 z"/>
<path transform="translate(0,0)" fill="rgb(90,46,52)" d="M 1367.19 589.159 C 1379.34 588.618 1391.04 593.677 1400.94 600.387 C 1437.61 625.269 1463.43 675.557 1471.28 718.289 C 1479.15 761.099 1471.43 805.619 1446.44 841.636 C 1418.68 881.651 1371.66 913.398 1323.54 922.285 C 1318.75 923.015 1313.9 923.039 1309.07 923.202 C 1364.75 901.494 1412.71 869.455 1443.03 816.587 C 1416.36 791.203 1379.32 721.711 1364.88 686.761 C 1356.1 665.514 1340.29 626.289 1350.4 603.639 C 1353.91 595.789 1359.32 592.049 1367.19 589.159 z"/>
<path transform="translate(0,0)" fill="rgb(206,142,134)" d="M 1366.78 602.121 C 1370.28 601.946 1373.86 601.706 1377.27 602.657 C 1399.84 608.945 1418.75 636.617 1429.52 655.813 C 1455.48 702.113 1464.14 749.945 1449.82 801.447 L 1448.32 801.32 C 1420.89 766.66 1355.32 654.849 1360.99 612.017 C 1361.62 607.291 1363 605.001 1366.78 602.121 z"/>
<path transform="translate(0,0)" fill="rgb(90,46,52)" d="M 1378.7 628.769 C 1385.1 628.422 1389.92 629.505 1395.36 633.001 C 1410.96 643.042 1424.7 667.107 1427.89 685.106 C 1428.89 690.729 1429.08 694.124 1425.8 698.953 C 1422.73 699.882 1420.04 699.758 1417 698.817 C 1402.94 694.461 1391.39 677.399 1384.87 664.928 C 1379.07 653.838 1374.84 641.138 1378.7 628.769 z"/>
<path transform="translate(0,0)" fill="rgb(206,142,134)" d="M 1388.02 641.72 C 1388.98 642.181 1388.94 642.137 1390.02 642.807 C 1402.95 650.823 1413.77 671.557 1417.13 686.01 C 1404.69 675.616 1391.79 657.709 1388.02 641.72 z"/>
<path transform="translate(0,0)" fill="rgb(248,246,239)" d="M 620.667 424.868 C 644.173 428.682 666.118 436.5 688.575 444.091 A 6390.88 6390.88 0 0 1 754.73 466.55 A 11499.7 11499.7 0 0 1 1026.86 562.843 A 2927.4 2927.4 0 0 1 1081.82 583.023 C 1092.32 587.026 1102.67 591.6 1113.36 595.068 C 1125.79 645.841 1133.83 708.418 1133.03 760.665 C 1123.96 773.367 1113.91 785.377 1104.81 798.083 C 1064.36 854.556 1028.07 912.567 1000.36 976.438 C 989.938 1000.47 981.248 1025.34 972.95 1050.18 C 969.289 1061.13 966.571 1076.52 960.918 1086.27 C 952.534 1100.72 934.474 1119.01 923.095 1132.94 C 863.223 1206.23 800.767 1280.46 729.912 1343.47 C 726.981 1334.81 725.264 1324.75 719.541 1317.4 C 716.623 1313.65 712.83 1310.98 708.003 1310.54 C 698.526 1309.67 690.073 1317.33 683.265 1322.9 C 680.167 1312.44 677.4 1298.53 669.479 1290.67 C 666.384 1287.6 662.36 1285.62 657.928 1285.94 C 649.228 1286.55 643.4 1293.76 638.165 1299.88 C 633.943 1287.63 629.792 1277.24 620.541 1267.88 C 617.962 1266.38 615.695 1265.03 612.641 1264.73 C 605.342 1264 595.865 1273.18 590.322 1277.47 C 586.521 1267.59 584.296 1256.36 578.022 1247.61 C 575.724 1244.41 572.63 1241.9 568.613 1241.41 C 558.835 1240.22 549.18 1249.33 542.054 1254.98 C 539.938 1244.67 538.415 1232.32 532.045 1223.7 C 529.493 1220.24 525.874 1217.48 521.498 1217.01 C 511.657 1215.96 503.124 1224.3 496.158 1230.06 C 493.127 1221.43 491.634 1211.05 486.179 1203.55 C 483.858 1200.35 480.686 1197.86 476.674 1197.38 C 467.156 1196.25 458.735 1204.87 452.07 1210.42 C 450.169 1201.94 448.122 1190.17 443.145 1182.96 C 440.908 1179.72 437.83 1177.39 433.84 1176.93 C 424.761 1175.89 416.729 1183.44 410.04 1188.46 C 408.602 1180.23 407.589 1170.79 402.884 1163.71 C 400.417 1160 396.827 1157.28 392.384 1156.52 C 382.39 1154.8 373.02 1162.05 365.293 1167.32 C 365.162 1159.34 364.742 1151.67 360.231 1144.75 C 357.687 1140.86 353.894 1138.09 349.237 1137.41 C 339.874 1136.05 332.535 1142.35 325.446 1147.41 C 323.015 1138.95 322.171 1129.05 317.283 1121.56 C 315.196 1118.36 312.226 1115.87 308.346 1115.31 C 299.394 1114 291.179 1121.7 284.633 1126.66 C 282.974 1118.14 283.674 1109.14 279.298 1101.32 C 277.562 1098.22 275.021 1095.93 271.548 1095.01 C 262.081 1092.51 250.693 1100.3 243.067 1104.95 C 242.473 1097.38 243.241 1082.04 236.328 1076.91 C 228.375 1071.01 210.722 1076.38 201.165 1076.91 C 219.521 1038.63 261.127 989.165 290.765 957.774 C 302.269 945.59 314.648 934.366 325.857 921.885 C 332.394 914.606 343.369 910.052 348.5 901.791 C 349.362 900.403 349.997 898.839 350.057 897.185 C 350.221 892.734 346.195 888.551 343.651 885.223 C 351.223 882.167 361.074 879.96 367.624 875.074 C 370.273 873.098 371.74 870.871 372 867.48 C 372.524 860.664 365.428 854.229 361.392 849.534 C 365.468 848.406 369.557 847.29 373.591 846.023 C 379.052 844.308 385.313 841.376 387.836 835.887 C 391.521 827.869 387.166 818.129 384.306 810.52 C 388.241 809.566 392.239 808.658 396.096 807.423 C 401.567 805.671 407.438 802.629 409.965 797.167 C 414.034 788.369 408.142 776.766 405.025 768.58 C 411.404 766.941 418.28 766.171 424.388 763.704 C 428.668 761.976 432.842 759.431 434.578 754.925 C 437.789 746.588 431.894 735.733 428.644 728.203 C 433.156 727.335 437.775 726.558 442.202 725.325 C 447.676 723.799 454.275 721.408 456.956 715.922 C 461.134 707.374 453.578 692.194 450.615 683.842 C 459.609 681.133 470.062 680.799 478.162 675.629 C 481.525 673.482 484.129 670.497 484.815 666.473 C 486.279 657.886 479.361 649.251 474.795 642.663 C 481.149 640.564 487.822 639.309 494.267 637.481 C 500.224 635.791 506.449 633.806 509.388 627.878 C 513.364 619.858 506.023 603.708 503.386 595.686 C 511.171 594.83 520.473 593.3 527.557 589.801 C 531.619 587.795 535.138 584.787 536.509 580.344 C 539.161 571.75 533.509 561.95 529.905 554.422 C 538.437 553.855 548.441 553.99 556.483 550.842 C 560.201 549.386 563.546 547.009 565.12 543.226 C 568.845 534.276 561.851 521.622 558.39 513.287 C 567.614 509.559 577.351 507.104 586.507 503.245 C 590.924 501.383 594.519 498.929 596.07 494.211 C 598.631 486.422 591.625 474.388 588.521 467.583 C 595.767 465.195 603.383 464.034 610.514 461.223 C 616.356 458.919 621.987 455.245 624.306 449.141 C 627.377 441.059 623.913 432.311 620.667 424.868 z"/>
<path transform="translate(0,0)" fill="rgb(90,46,52)" d="M 646.838 491.945 C 657.495 493.568 668.004 499.011 678.031 502.866 C 692.203 508.314 706.513 513.448 720.757 518.705 A 10742.9 10742.9 0 0 1 1026.54 634.777 L 1075.91 654.368 C 1084.7 657.819 1095.99 660.521 1103.64 666.013 C 1106.01 667.708 1108.57 670.416 1108.71 673.487 C 1109.06 680.985 1099.46 689.936 1094.84 695.354 A 1119.26 1119.26 0 0 0 922.565 966.378 C 914.01 985.899 905.059 1005.37 897.437 1025.28 C 890.19 1044.21 883.07 1072.9 872.404 1089.06 C 863.663 1102.3 833.076 1124.78 819.272 1139.03 C 789.294 1169.98 761.982 1203.33 734.71 1236.64 C 729.249 1242.72 723.988 1247.97 716.886 1252.13 C 700.437 1245.59 684.463 1237.02 668.565 1229.22 L 598.749 1194.96 A 12073.6 12073.6 0 0 0 395.608 1096.02 C 365.002 1081.8 334.522 1068.17 303.168 1055.64 C 298.515 1053.78 290.993 1051.8 287.441 1048.24 C 286.212 1047 285.536 1046.18 285.729 1044.47 C 287.32 1030.31 381.267 921.602 395.641 906.376 C 404.275 897.229 415.14 890.427 423.578 881.343 C 432.913 871.292 465.797 795.291 474.499 777.987 C 483.773 759.545 494.272 741.619 504.249 723.539 A 3932.29 3932.29 0 0 1 610.542 544.699 C 620.218 529.378 633.492 503.44 646.838 491.945 z"/>
<path transform="translate(0,0)" fill="rgb(248,246,239)" d="M 653.252 511.637 C 699.543 530.551 746.691 547.383 793.574 564.749 L 950.172 623.628 A 3853.7 3853.7 0 0 1 1032.8 656.236 C 1049.76 663.059 1068.2 669.129 1083.86 678.515 C 1078.06 687.352 1070.79 695.541 1064.29 703.913 A 3173.48 3173.48 0 0 0 1031.78 746.926 C 995.612 795.586 961.528 846.689 933.391 900.47 C 915.06 935.506 899.166 972.974 884.817 1009.82 C 877.665 1028.18 865.161 1067.82 855.845 1081.97 C 851.332 1088.82 816.123 1116.19 806.334 1126.32 C 778.148 1155.48 753.205 1187.22 727.058 1218.15 A 435.886 435.886 0 0 1 713.553 1233.33 L 484.924 1119.63 C 448.988 1101.73 412.734 1084.99 376.287 1068.18 C 354.196 1057.99 332.027 1046.61 309.081 1038.53 C 321.821 1021.18 336.178 1004.52 349.618 987.678 C 364.213 969.385 378.457 950.203 394.332 933.001 C 406.91 919.372 432.345 900.735 440.988 887.301 C 450.723 872.17 457.719 854.404 465.507 838.195 A 3020.38 3020.38 0 0 1 506.731 755.681 C 550.297 673.113 601.248 589.283 653.252 511.637 z"/>
<path transform="translate(0,0)" fill="rgb(90,46,52)" d="M 665.159 1094.34 C 685.521 1094.31 793.143 1091.32 803.155 1096.84 L 800.79 1098.25 C 775.19 1101.95 685.317 1106.93 665.159 1094.34 z"/>
<path transform="translate(0,0)" fill="rgb(90,46,52)" d="M 632.811 711.126 L 633.349 712.196 C 626.023 719.904 615.851 725.953 607.141 732.076 C 580.457 750.835 553.803 769.651 523.839 782.894 C 523.246 782.266 523.605 782.756 523.506 781.103 C 541.908 758.659 605.125 722.171 632.811 711.126 z"/>
<path transform="translate(0,0)" fill="rgb(90,46,52)" d="M 876.506 643.554 C 881.561 646.813 886.164 652.325 890.215 656.709 C 920.074 689.02 934.699 730.853 949.22 771.39 C 947.084 769.962 946.061 768.324 944.774 766.155 C 932.025 744.67 920.861 722.066 908.476 700.335 C 898.148 682.213 884.372 662.503 876.506 643.554 z"/>
<path transform="translate(0,0)" fill="rgb(90,46,52)" d="M 679.541 666.154 L 680.632 666.513 C 671.653 673.09 660.122 677.922 650.193 683.022 A 1336 1336 0 0 1 549.451 729.728 L 548.715 729.686 L 548.434 728.301 C 577.864 700.494 640.53 677.619 679.541 666.154 z"/>
<path transform="translate(0,0)" fill="rgb(90,46,52)" d="M 814.954 1061.45 C 816.822 1061.18 817.363 1061.18 819.282 1061.67 C 800.086 1075.05 672.797 1084.49 644.377 1084.69 A 285.337 285.337 0 0 1 596.126 1080.87 C 592.234 1080.31 588.546 1079.07 584.797 1077.92 A 4208.34 4208.34 0 0 1 814.954 1061.45 z"/>
<path transform="translate(0,0)" fill="rgb(90,46,52)" d="M 796.335 620.706 C 817.49 628.803 851.01 668.816 863.795 687.691 C 901.566 743.454 922.306 815.489 909.379 882.521 L 908.701 884.012 C 905.384 875.035 905.725 859.156 904.354 849.047 C 902.548 835.736 899.861 822.457 897.01 809.335 C 885.616 756.891 863.686 703.95 830.985 661.127 C 820.465 647.35 807.197 635.63 797.013 621.657 C 796.784 621.342 796.561 621.023 796.335 620.706 z"/>
<path transform="translate(0,0)" fill="rgb(90,46,52)" d="M 740.28 695.411 C 760.906 694.682 783.638 701.623 799.541 714.924 C 817.992 730.355 827.856 754.66 829.77 778.208 C 834.799 840.12 796.637 904.813 757.51 950.423 C 718.2 996.246 657.357 1047.32 595.297 1052.09 C 574.105 1052.31 552.219 1047.67 535.656 1033.73 C 515.739 1016.97 505.735 991.456 503.521 966.037 C 498.446 907.76 534.018 838.472 570.618 795.245 C 612.174 746.167 674.926 700.788 740.28 695.411 z"/>
<path transform="translate(0,0)" fill="rgb(206,142,134)" d="M 768.511 714.581 C 780.896 717.676 791.783 727.177 798.942 737.56 C 813.51 758.689 815.533 787.341 810.861 811.922 C 796.067 889.748 730.288 966.028 665.469 1009.32 C 638.035 1027.64 606.397 1039.1 573.249 1032.59 C 559.285 1029.2 549.215 1023.07 539.685 1012.25 C 569.458 1008.33 593.655 997.514 618.693 981.142 C 684.01 938.431 763.289 850.114 779.138 772.308 C 783.622 750.294 781.01 733.386 768.511 714.581 z"/>
<path transform="translate(0,0)" fill="rgb(206,142,134)" d="M 730.284 713.381 C 736.88 712.587 743.398 713.924 749.076 717.462 C 756.682 722.201 760.413 730.533 762.116 739.065 C 769.177 774.441 745.544 819.544 726.69 848.428 C 691.81 901.862 616.207 981.305 552.231 994.845 C 551.89 994.896 551.55 994.953 551.209 994.998 C 543.573 995.993 537.077 996.291 530.795 991.164 C 524.041 985.652 521.914 975.879 520.86 967.627 C 514.228 915.704 544.721 852.252 575.974 811.948 C 613.301 763.813 668.581 721.325 730.284 713.381 z"/>
<path transform="translate(0,0)" fill="rgb(90,46,52)" d="M 703.896 743.295 C 714.645 742.526 725.542 742.412 734.56 749.284 C 741.75 754.763 745.501 763.278 746.624 772.075 C 749.099 791.487 742.128 813.195 730.352 828.518 C 734.643 805.534 742.336 797.79 739.296 771.693 C 721.119 772.775 704.279 777.183 687.977 785.337 C 641.953 808.356 607.761 855.047 591.543 903.007 C 587.677 919.944 586.666 934.621 596.043 950.069 L 612.498 950.349 A 170.748 170.748 0 0 1 605.605 952.107 C 594.107 954.736 576.765 954.098 566.87 947.46 C 560.24 943.012 556.831 935.909 555.48 928.214 C 549.487 894.078 572.108 859.232 590.779 832.547 C 615.789 796.804 659.266 751.238 703.896 743.295 z"/>
<path transform="translate(0,0)" fill="rgb(206,142,134)" d="M 716.553 753.231 C 720.41 752.92 724.447 752.602 728.115 754.105 C 731.769 755.603 735.504 758.265 737.018 761.903 C 733.107 766.341 719.278 763.902 713.327 764.539 C 710.617 764.829 707.871 765.844 705.284 766.681 C 655.748 782.709 615.602 823.015 592.482 868.798 C 580.007 893.5 576.079 916.12 584.702 942.62 L 589.836 950.308 C 586.194 949.135 581.702 948.07 578.491 945.974 C 573.713 942.854 570.454 936.914 569.458 931.407 C 564.257 902.661 587.789 862.051 603.431 839.666 C 628.337 804.025 671.943 761.116 716.553 753.231 z"/>
</svg>