<svg version="1.1" xmlns="http://www.w3.org/2000/svg" style="display: block;" viewBox="0 0 2048 2048" width="1024" height="1024">
<defs>
	<linearGradient id="Gradient1" gradientUnits="userSpaceOnUse" x1="479.355" y1="257.893" x2="1376.84" y2="1991.33">
		<stop class="stop0" offset="0" stop-opacity="1" stop-color="rgb(3,0,13)"/>
		<stop class="stop1" offset="1" stop-opacity="1" stop-color="rgb(35,1,37)"/>
	</linearGradient>
	<linearGradient id="Gradient2" gradientUnits="userSpaceOnUse" x1="994.453" y1="540.27" x2="992.157" y2="533.523">
		<stop class="stop0" offset="0" stop-opacity="1" stop-color="rgb(1,0,11)"/>
		<stop class="stop1" offset="1" stop-opacity="1" stop-color="rgb(6,0,31)"/>
	</linearGradient>
	<linearGradient id="Gradient3" gradientUnits="userSpaceOnUse" x1="981.283" y1="226.349" x2="984.413" y2="238.472">
		<stop class="stop0" offset="0" stop-opacity="1" stop-color="rgb(0,0,0)"/>
		<stop class="stop1" offset="1" stop-opacity="1" stop-color="rgb(4,0,25)"/>
	</linearGradient>
	<linearGradient id="Gradient4" gradientUnits="userSpaceOnUse" x1="1114.49" y1="1337.03" x2="1104.16" y2="1342.61">
		<stop class="stop0" offset="0" stop-opacity="1" stop-color="rgb(3,0,13)"/>
		<stop class="stop1" offset="1" stop-opacity="1" stop-color="rgb(15,0,32)"/>
	</linearGradient>
	<linearGradient id="Gradient5" gradientUnits="userSpaceOnUse" x1="1046.16" y1="904.614" x2="1112.14" y2="884.199">
		<stop class="stop0" offset="0" stop-opacity="1" stop-color="rgb(4,0,15)"/>
		<stop class="stop1" offset="1" stop-opacity="1" stop-color="rgb(10,0,34)"/>
	</linearGradient>
</defs>
<path transform="translate(0,0)" fill="rgb(239,236,224)" d="M 0 0 L 2048 0 L 2048 2048 L 0 2048 L 0 0 z"/>
<path transform="translate(0,0)" fill="rgb(1,0,6)" d="M 1003.4 150.823 C 1013.14 157.902 1020.88 166.677 1028.89 175.605 L 1024.01 177.457 C 1016.94 170.282 1008.7 163.944 1001.93 156.582 C 1001.01 154.522 1001.53 155.119 999.999 153.702 C 999.661 153.39 999.302 153.101 998.954 152.801 L 1003.4 150.823 z"/>
<path transform="translate(0,0)" fill="rgb(1,0,6)" d="M 1057.28 222.117 C 1061.01 224.779 1065.05 228.033 1069.34 229.702 C 1077.79 232.994 1097.31 234.631 1099.25 245.268 C 1100.3 250.983 1097.59 257.159 1094.14 261.589 C 1090.93 265.72 1087.35 267.593 1082.56 269.482 C 1087.16 274.413 1091.39 271.403 1093.49 279.541 C 1092.82 283.449 1091.02 285.982 1088.85 289.245 L 1082.56 286.781 C 1084.32 282.041 1085.66 279.664 1083.72 274.769 C 1079.51 270.664 1071.39 269.508 1065.78 267.814 C 1069.28 264.027 1074.75 264.311 1079.48 263.289 C 1085.16 262.061 1086.84 259.339 1089.87 254.662 C 1083.37 250.392 1076.86 246.096 1073.56 238.785 C 1065.88 237.178 1059.38 231.961 1053.86 226.678 L 1057.28 222.117 z"/>
<path transform="translate(0,0)" fill="rgb(183,125,132)" d="M 1073.56 238.785 C 1078.4 240.05 1088.1 241.513 1090.74 246.172 C 1092.3 248.928 1091.01 252.01 1089.87 254.662 C 1083.37 250.392 1076.86 246.096 1073.56 238.785 z"/>
<path transform="translate(0,0)" fill="rgb(26,0,29)" d="M 744.632 1910.86 C 763.773 1912.33 784.488 1916.48 801.2 1926.35 C 811.402 1932.37 818.552 1939.77 821.334 1951.6 C 823.286 1959.91 824.239 1970.52 819.332 1977.96 C 813.365 1987.01 796.164 1990.23 786.258 1992.42 C 737.969 2003.11 664.463 2007.05 622.104 1979.57 C 595.733 1962.46 575.708 1936.11 553.621 1914.13 C 541.466 1902.04 527.015 1890.74 516.505 1877.23 C 513.61 1873.51 511.065 1869.41 510.221 1864.69 C 509.106 1858.47 511.351 1852.79 514.317 1847.43 C 522.875 1831.97 531.675 1815.86 542.517 1801.88 C 552.77 1788.66 565.322 1776.81 573.664 1762.23 C 580.661 1750 592.526 1712.54 598.35 1705.74 C 600.511 1703.22 604.541 1703.61 607.626 1703.48 C 607.364 1707.47 606.261 1710.27 604.201 1713.69 C 624.231 1732.72 653.752 1741.92 680.478 1746.21 C 677.987 1753.84 675.121 1761.52 673.271 1769.33 L 671.675 1769.22 C 658.042 1768.22 634.109 1761.35 622.41 1762.59 C 620.528 1765.31 620.7 1769.68 621.33 1772.84 C 621.898 1775.7 623.348 1777.68 625.55 1779.54 L 626.431 1779.28 C 635.153 1786.58 658.316 1789.21 669.64 1788.04 C 672.204 1787.77 672.512 1787.72 674.099 1785.84 L 676.607 1784.73 L 677.936 1785.66 C 678.227 1788.37 678.284 1791.01 678.291 1793.73 L 681.085 1795.83 C 680.966 1797.14 680.88 1797.49 681.06 1798.98 C 684.971 1831.32 719.576 1890.61 744.632 1910.86 z"/>
<path transform="translate(0,0)" fill="rgb(239,236,224)" d="M 744.534 1919.42 C 766.452 1919.35 792.353 1929.19 808.763 1943.68 C 787.894 1951.89 764.168 1954.16 741.959 1956.34 C 721.577 1958.85 699.962 1958.69 679.448 1957.86 C 681.255 1952.62 683.204 1947.63 686.553 1943.13 C 699.676 1925.53 724.285 1921.99 744.534 1919.42 z"/>
<path transform="translate(0,0)" fill="rgb(239,236,224)" d="M 524.726 1845.54 C 533.286 1850.79 541.193 1860.94 548.067 1868.33 C 574.896 1897.18 603.689 1936.54 639.657 1953.32 C 685.872 1974.88 765.321 1967.38 812.554 1949.88 C 813.028 1954.85 813.786 1960.08 813.608 1965.07 C 813.433 1970.02 811.931 1972.78 808.209 1975.97 C 775.882 1993.67 695.1 1994.87 659.933 1986.16 A 113.588 113.588 0 0 1 621.299 1968.62 C 598.996 1952.67 579.31 1928.14 559.958 1908.37 C 549.219 1897.4 537.398 1887.37 527.084 1876 C 523.272 1871.8 520.056 1867.55 517.124 1862.69 C 519.108 1856.58 521.519 1851.11 524.726 1845.54 z"/>
<path transform="translate(0,0)" fill="rgb(144,192,157)" d="M 529.031 1838.61 A 240.851 240.851 0 0 1 550.502 1805.9 C 559.093 1795.01 568.762 1784.72 576.304 1773.06 C 583.739 1761.58 588.851 1749.05 593.933 1736.41 C 596.155 1730.88 600.221 1723.31 601.106 1717.49 C 601.201 1716.87 601.197 1716.23 601.243 1715.6 L 603.117 1715.5 C 603.175 1713.92 602.934 1714.54 603.522 1713.56 L 604.201 1713.69 C 624.231 1732.72 653.752 1741.92 680.478 1746.21 C 677.987 1753.84 675.121 1761.52 673.271 1769.33 L 671.675 1769.22 C 658.042 1768.22 634.109 1761.35 622.41 1762.59 C 620.528 1765.31 620.7 1769.68 621.33 1772.84 C 621.898 1775.7 623.348 1777.68 625.55 1779.54 L 625.533 1779.96 C 624.22 1780.82 622.854 1781.83 622.395 1783.43 C 621.662 1786 622.442 1787.07 623.564 1789.27 C 632.542 1793.82 661.324 1795.22 672.319 1794.07 L 675.452 1808.97 C 666.403 1809.42 640.817 1812.17 633.432 1808.59 L 632.754 1805.54 C 630.531 1804.11 630.944 1804.45 628.56 1804.79 C 627.445 1805.93 626.98 1806.14 626.543 1807.75 C 625.634 1811.11 626.478 1818.12 628.098 1821.02 C 630.31 1821.99 629.919 1822.27 632.414 1821.5 C 632.951 1819.84 633.488 1818.35 634.311 1816.82 C 648.428 1815.26 662.757 1817.38 677.13 1815.64 L 682.573 1832.76 C 670.895 1834.76 648.692 1838.98 638.054 1833.56 C 637.781 1833.42 637.512 1833.27 637.241 1833.13 C 634.955 1833.74 634.841 1834.02 633.294 1835.85 C 632.541 1838.99 632.65 1841.21 633.723 1844.29 C 635.216 1848.58 637.898 1853.62 642.074 1855.74 L 643.492 1854.79 C 644.225 1850.58 642.624 1846.94 641.344 1842.98 C 656.064 1843.02 671.41 1843.16 685.946 1840.7 C 688.707 1846.23 691.126 1851.98 693.686 1857.61 C 685.387 1858.82 676.375 1860.9 668.004 1861.05 C 662.534 1861.14 654.118 1859.08 649.04 1860.95 C 647.708 1861.44 646.76 1862.24 646.431 1863.62 C 645.651 1866.87 647.603 1871.69 649.634 1874.23 C 651.229 1876.23 652.576 1876.5 654.985 1876.8 L 656.23 1875.49 C 656.161 1873.88 656.058 1872.47 655.677 1870.89 C 655.577 1870.48 655.457 1870.07 655.346 1869.66 C 656.329 1869.08 691.282 1865.7 696.913 1864.52 L 706.692 1880.86 C 694.788 1881.75 672.088 1880.12 661.877 1883.72 C 659.699 1884.49 658.928 1884.91 657.913 1887.07 C 658.021 1887.37 658.092 1887.68 658.237 1887.96 C 659.732 1890.88 662.979 1892.27 665.965 1893.07 C 668.538 1892.18 668.67 1891.33 670.211 1889.04 C 676.107 1887.46 682.741 1888.79 688.822 1888.55 C 696.335 1888.26 703.94 1887.41 711.457 1886.91 A 490.882 490.882 0 0 0 732.44 1912.45 C 723.081 1914.7 713.679 1916.81 704.765 1920.52 C 686.462 1928.15 678.616 1939.05 671.316 1956.9 C 618.958 1943.73 589.855 1899.36 554.493 1862.59 C 546.596 1854.38 538.293 1845.25 529.031 1838.61 z"/>
<path transform="translate(0,0)" fill="url(#Gradient1)" d="M 890.667 79.5831 C 892.387 75.9189 894.104 72.1641 896.88 69.1655 C 902.895 62.6675 911.451 59.3854 920.214 59.2334 C 932.206 59.0254 940.451 64.1291 948.816 71.9892 C 952.401 67.6916 956.735 64.5596 962.039 62.6729 A 24.1092 24.1092 0 0 1 981.676 64.1778 C 991.695 69.5297 996.047 79.0329 999.039 89.3877 C 999.593 89.158 1000.14 88.9225 1000.7 88.6987 C 1009.7 85.0802 1019.16 85.7945 1027.91 89.9265 C 1035.7 93.6052 1042.23 100.23 1044.88 108.527 C 1046.74 114.359 1046.97 122.181 1043.88 127.662 C 1036.81 140.218 1016.46 145.733 1003.51 149.317 L 1003.4 150.823 L 998.954 152.801 C 999.302 153.101 999.661 153.39 999.999 153.702 C 1001.53 155.119 1001.01 154.522 1001.93 156.582 C 1008.7 163.944 1016.94 170.282 1024.01 177.457 L 1028.89 175.605 C 1029.11 175.85 1029.32 176.101 1029.55 176.34 C 1033.48 180.484 1039.24 180.847 1042.65 184.574 C 1041.5 186.25 1040.31 187.37 1038.76 188.676 C 1038.46 196.352 1048.37 203.145 1051.97 209.489 C 1054 213.073 1053.48 217.805 1056.18 220.931 C 1056.53 221.34 1056.91 221.722 1057.28 222.117 L 1053.86 226.678 C 1059.38 231.961 1065.88 237.178 1073.56 238.785 C 1076.86 246.096 1083.37 250.392 1089.87 254.662 C 1086.84 259.339 1085.16 262.061 1079.48 263.289 C 1074.75 264.311 1069.28 264.027 1065.78 267.814 C 1071.39 269.508 1079.51 270.664 1083.72 274.769 C 1085.66 279.664 1084.32 282.041 1082.56 286.781 L 1088.85 289.245 C 1091.81 291.075 1094.53 292.402 1096.19 295.62 C 1096.37 299.382 1093.81 302.085 1091.57 304.85 C 1097.3 311.467 1102.85 317.982 1104.32 326.934 C 1105.96 332.213 1104.44 339.817 1101.88 344.669 C 1096.44 354.974 1084.09 359.913 1073.47 362.868 C 1055.36 367.905 1036.51 370.111 1017.87 372.06 C 1012.27 396.732 1005.92 421.736 1003.75 446.98 C 1023.85 457.092 1076.72 493.911 1083.79 515.314 C 1088.53 529.639 1087.94 545.834 1087.81 560.735 C 1113.16 589.551 1137.81 619.245 1135.45 660.028 C 1134.34 679.162 1126.62 693.524 1116.48 709.32 C 1117.74 725.233 1115.85 741.482 1115.55 757.448 C 1115.22 775.365 1117.18 801.317 1113.88 818.143 C 1135.58 867.06 1164.47 911.987 1186.02 960.947 C 1195.55 982.603 1203.4 1005.1 1211.49 1027.33 A 2005.03 2005.03 0 0 1 1272.64 1225.24 C 1286.56 1278.03 1300.6 1331.62 1308.81 1385.64 C 1311.39 1402.59 1312.6 1419.92 1314.3 1436.99 A 6220.64 6220.64 0 0 1 1325.41 1561.28 C 1327.51 1586.75 1328.97 1612.73 1332.31 1638.06 L 1338.67 1642.78 C 1339.34 1652.93 1346.02 1695.04 1341.3 1700.75 C 1339.56 1702.86 1337.41 1703.74 1335.01 1704.9 A 294.647 294.647 0 0 1 1330.31 1707.18 C 1332.44 1715.43 1346.91 1762.47 1351.14 1766.62 C 1351.81 1767.28 1352.74 1767.59 1353.54 1768.07 C 1363.43 1773.95 1360.34 1776.35 1365.27 1785.19 C 1369.55 1792.86 1384.13 1800.26 1392.15 1803.35 C 1425.52 1816.2 1466.37 1821.05 1501.94 1819.19 C 1538.1 1817.3 1604.07 1789.59 1631.83 1826.04 C 1635.16 1830.41 1638.62 1835.35 1640.02 1840.72 C 1641.01 1844.47 1640.89 1848.62 1638.81 1852 C 1632.98 1861.49 1617.82 1868.59 1608.26 1873.92 C 1554.65 1903.81 1501.11 1922.3 1443.56 1942.38 C 1411.63 1953.53 1378.5 1966.06 1345.16 1972.28 C 1339.24 1973.38 1331.97 1974.34 1326.82 1970.51 C 1303.78 1953.36 1297.66 1885.22 1285.38 1857.26 C 1282.55 1850.81 1279.38 1844.68 1275.44 1838.84 C 1270.63 1831.69 1259.39 1819.55 1256.97 1812.01 C 1256.37 1810.16 1257.59 1808.27 1258.72 1806.86 C 1260.27 1804.94 1262.19 1803.17 1263.93 1801.44 C 1252.45 1777.21 1239.42 1753.89 1227.3 1730 C 1214.91 1729.7 1178.47 1730.59 1170.63 1722.04 C 1164.18 1715.02 1148.69 1675.37 1149.65 1666.04 C 1150.01 1662.52 1151.52 1659.29 1150.52 1655.72 C 1148.73 1649.32 1145.03 1642.74 1142.43 1636.56 A 738.317 738.317 0 0 1 1126.36 1595.99 L 1076.94 1459.69 C 1069.08 1438.56 1062.52 1416.81 1052.63 1396.51 C 1039.79 1370.12 1019.88 1346.67 1004.61 1321.6 C 985.589 1368.76 967.822 1417.56 941.934 1461.49 C 909.009 1517.35 854.498 1574.11 812.087 1623.62 C 806.886 1629.69 788.497 1648.07 786.368 1654.22 C 785.831 1655.77 786.475 1657.4 786.991 1658.81 C 788.107 1661.86 787.589 1664.44 786.18 1667.28 C 780.653 1678.43 759.23 1701.51 747.464 1705.25 C 737.761 1708.34 727.361 1705.27 717.774 1703.09 C 706.611 1718.16 679.133 1753.33 682.134 1771.39 C 683.313 1778.49 686.676 1788.08 682.142 1794.59 C 681.831 1795.03 681.464 1795.44 681.085 1795.83 L 678.291 1793.73 C 678.284 1791.01 678.227 1788.37 677.936 1785.66 L 676.607 1784.73 L 674.099 1785.84 C 672.512 1787.72 672.204 1787.77 669.64 1788.04 C 658.316 1789.21 635.153 1786.58 626.431 1779.28 L 625.55 1779.54 C 623.348 1777.68 621.898 1775.7 621.33 1772.84 C 620.7 1769.68 620.528 1765.31 622.41 1762.59 C 634.109 1761.35 658.042 1768.22 671.675 1769.22 L 673.271 1769.33 C 675.121 1761.52 677.987 1753.84 680.478 1746.21 C 653.752 1741.92 624.231 1732.72 604.201 1713.69 C 606.261 1710.27 607.364 1707.47 607.626 1703.48 C 608.387 1693.24 625.29 1658.1 629.718 1645.66 C 621.148 1633.62 612.528 1626.03 618.683 1610.34 C 625.226 1593.67 635.634 1578.07 643.845 1562.14 L 700.832 1452.13 C 707.41 1439.61 715.83 1427.15 721.11 1414.05 C 725.942 1402.06 724.993 1386.41 725.737 1373.6 A 2589.1 2589.1 0 0 1 739.322 1215.45 C 742.636 1185.12 747.911 1154.31 749.229 1123.89 C 740.258 1121.15 731.681 1117.17 723.434 1112.72 C 686.189 1092.65 615.566 1028.41 603.398 987.939 C 609.973 962.238 648.944 901.96 665.046 876.917 C 646.038 863.574 619.709 846.428 608.793 825.399 C 602.885 814.018 605.513 803.875 609.015 792.227 C 615.737 769.875 626.817 748.776 636.993 727.847 C 654.638 691.555 673.439 655.887 691.794 619.955 C 703.329 597.374 733.353 532.817 748.277 516.378 C 771.938 490.316 806.255 475.196 836.826 458.881 C 836.168 455.945 835.45 452.961 835.049 449.977 C 834.598 446.611 834.625 443.16 836.958 440.458 C 842.224 434.36 877.502 409.128 884.417 408.516 C 886.106 408.366 884.98 408.541 886.874 408.206 L 890.354 407.589 C 893.658 403.87 895.043 398.673 896.779 394.071 C 861.765 394.682 838.485 385.034 812.129 361.887 C 805.411 360.891 798.672 359.937 791.982 358.77 C 778.84 356.479 766.789 352.215 758.747 340.923 C 751.927 342.178 744.936 343.364 738 342.419 C 731.426 341.524 725.184 338.777 721.364 333.145 C 716.27 325.635 717.058 317.428 718.449 309.007 C 706.017 311.279 692.322 312.983 681.155 305.574 C 674.822 301.373 670.776 294.794 669.527 287.331 C 667.427 274.778 673.018 264.545 680.004 254.709 C 676.736 253.055 673.557 251.205 670.357 249.421 C 666.704 243.575 664.772 238.059 666.126 231.108 C 668.898 216.881 682.716 206.248 693.96 198.496 C 691.047 194.373 688.141 190.434 687.599 185.26 C 687.008 179.61 689.289 174.223 692.781 169.895 C 705.452 154.187 730.369 144.682 749.859 142.291 L 746.691 131.126 C 751.184 119.722 757.936 111.811 769.009 106.352 C 784.877 98.5292 800.538 98.926 816.958 104.658 C 815.777 97.5413 816.071 91.9208 819.686 85.4761 C 824.502 76.8895 833.713 71.9046 843.039 69.7075 C 860.095 65.6895 876.262 70.4716 890.667 79.5831 z"/>
<path transform="translate(0,0)" fill="rgb(201,199,183)" d="M 1432.77 1837.8 C 1433.2 1834.03 1432.48 1830.2 1433.06 1826.47 C 1433.41 1824.18 1433.66 1823.99 1435.41 1822.66 L 1438.81 1823.56 L 1439.4 1825.28 C 1439.23 1829.9 1438.99 1834.53 1438.93 1839.16 C 1436.24 1839.71 1435.22 1838.81 1432.77 1837.8 z"/>
<path transform="translate(0,0)" fill="rgb(207,104,91)" d="M 873.796 983.775 L 882.964 992.518 L 877.131 999.665 C 875.799 1001.73 874.886 1003.16 872.872 1004.65 L 871.725 1003.14 C 871.371 996.709 872.812 990.128 873.796 983.775 z"/>
<path transform="translate(0,0)" fill="rgb(233,212,194)" d="M 1404.78 1817.24 C 1407.21 1815.8 1407.13 1816.39 1409.72 1817.05 C 1411.07 1818.94 1411.19 1819.39 1410.86 1821.84 C 1410.14 1827.1 1407.59 1832.15 1406.65 1837.48 C 1403.86 1836.66 1401.45 1836.1 1399.21 1834.13 L 1404.78 1817.24 z"/>
<path transform="translate(0,0)" fill="rgb(233,212,194)" d="M 1415.47 1835.28 C 1416.27 1831.32 1416.38 1822.91 1418.74 1819.96 C 1421.74 1820.31 1423.07 1820.55 1425.59 1822.4 C 1426.75 1826.08 1425.9 1830.22 1424.3 1833.81 C 1423.93 1834.62 1423.58 1834.94 1423.03 1835.54 C 1423.94 1837.22 1423.8 1836.55 1423.99 1838.32 C 1424.19 1840.11 1423.41 1840.37 1422.36 1841.71 C 1419.53 1842.81 1419.49 1842.9 1416.6 1842.03 C 1414.62 1839.34 1415.2 1838.51 1415.47 1835.28 z"/>
<path transform="translate(0,0)" fill="rgb(1,0,6)" d="M 1444.27 1825.81 C 1446.02 1824.78 1446.83 1824.6 1448.85 1824.69 C 1450.61 1826.49 1451.05 1826.72 1450.75 1829.41 C 1450.69 1829.91 1450.53 1830.39 1450.42 1830.89 C 1452.98 1832.95 1453.51 1833.61 1453.87 1836.91 C 1454.1 1839.01 1454.09 1841.17 1454.14 1843.28 C 1454.17 1845.05 1453.94 1846.61 1453.69 1848.36 C 1451.56 1850.61 1451.31 1850.73 1448.28 1851.42 C 1445.8 1850.87 1444.07 1850.16 1442.15 1848.52 C 1439.24 1846.04 1439.23 1842.68 1438.93 1839.16 C 1438.99 1834.53 1439.23 1829.9 1439.4 1825.28 L 1444.27 1825.81 z"/>
<path transform="translate(0,0)" fill="rgb(233,212,194)" d="M 1444.27 1825.81 C 1446.02 1824.78 1446.83 1824.6 1448.85 1824.69 C 1450.61 1826.49 1451.05 1826.72 1450.75 1829.41 C 1450.69 1829.91 1450.53 1830.39 1450.42 1830.89 C 1449.9 1834.64 1449.57 1839.17 1446.59 1841.77 L 1445.32 1840.6 C 1443.63 1835.47 1443.94 1831.08 1444.27 1825.81 z"/>
<path transform="translate(0,0)" fill="rgb(26,0,29)" d="M 1469.42 1826.06 C 1472.57 1826.36 1475.78 1826.8 1478.94 1826.88 C 1479.42 1830.16 1479.25 1833.34 1481.55 1835.81 L 1488.08 1837.52 C 1485.35 1842.46 1482.04 1846.16 1476.45 1847.88 C 1473.81 1848.69 1470.97 1848.64 1468.66 1846.99 C 1465.13 1844.46 1465.1 1840.22 1464.75 1836.3 C 1465.27 1831.59 1465.62 1829.16 1469.42 1826.06 z"/>
<path transform="translate(0,0)" fill="rgb(233,212,194)" d="M 1469.42 1826.06 C 1472.57 1826.36 1475.78 1826.8 1478.94 1826.88 C 1477.91 1830.68 1477.96 1834.91 1476.4 1838.56 C 1475.55 1840.53 1475.4 1841 1473.34 1841.7 C 1470.16 1837.33 1470.04 1831.28 1469.42 1826.06 z"/>
<path transform="translate(0,0)" fill="rgb(222,173,108)" d="M 1108.47 725.731 C 1109.12 737.672 1107.95 750.197 1107.81 762.201 C 1107.7 771.412 1109.01 782.086 1107.46 791.068 C 1106.13 789.396 1106.13 787.461 1105.79 785.391 C 1103.28 775.177 1099.76 765.556 1095.74 755.846 C 1099.62 745.754 1103.58 735.378 1108.47 725.731 z"/>
<path transform="translate(0,0)" fill="rgb(144,192,157)" d="M 626.431 1779.28 C 626.862 1776.11 626.761 1772.83 628.714 1770.27 C 643.076 1771.52 657.433 1774.46 671.777 1776.2 C 673.22 1778.73 672.912 1780.27 672.701 1783.07 L 674.099 1785.84 C 672.512 1787.72 672.204 1787.77 669.64 1788.04 C 658.316 1789.21 635.153 1786.58 626.431 1779.28 z"/>
<path transform="translate(0,0)" fill="rgb(177,93,97)" d="M 1064.73 771.152 C 1070.49 770.153 1085.46 764.797 1090.01 767.424 C 1095.62 781.84 1096.92 797.482 1102 811.973 C 1096.73 813.171 1091.06 814.288 1085.64 813.976 C 1084.03 813.426 1084.5 811.402 1084.71 810.062 C 1086.25 799.967 1087.04 787.929 1080.65 779.195 C 1076.52 773.557 1071.3 772.296 1064.73 771.152 z"/>
<path transform="translate(0,0)" fill="rgb(1,0,6)" d="M 617.488 987.036 C 615.509 986.513 615.65 986.097 614.486 984.519 C 614.618 982.566 614.329 982.87 615.104 981.551 C 616.319 979.48 617.366 977.879 618.214 975.573 C 625.245 956.455 641.143 940.738 648.88 921.949 C 651.46 915.685 668.458 887.399 673.521 885.23 L 675.829 886.285 C 667.227 907.842 653.003 927.507 641.032 947.382 C 633.162 960.449 625.921 974.393 617.488 987.036 z"/>
<path transform="translate(0,0)" fill="rgb(177,93,97)" d="M 1008.84 779.441 C 1011.11 779.186 1012.61 778.962 1014.77 779.797 C 1015.53 788.942 1013.23 798.377 1012.9 807.551 C 1012.59 816.066 1013.67 824.558 1012.6 833.05 C 1009.97 834.423 1006.48 834.029 1003.51 834.074 C 1000.71 833.807 999.501 834.108 997.361 832.198 C 995.243 815.523 996.957 796.943 996.862 780.056 L 1008.84 779.441 z"/>
<path transform="translate(0,0)" fill="rgb(239,236,224)" d="M 937.308 517.393 C 956.605 523.931 976.45 529.068 996.79 524.013 C 1007.88 521.257 1021.12 514.46 1027.01 504.431 C 1028.01 502.717 1028.02 502.459 1029.74 501.283 L 1033.94 506.302 C 1030.78 516.264 1028.12 521.711 1019.16 527.732 C 1018.39 528.252 1017.63 528.79 1016.86 529.314 C 1013.74 530.197 1010.88 531.211 1007.91 532.5 C 997.202 535.37 988.108 536.533 977.016 536.222 C 964.753 535.756 953.393 533.497 942.099 528.736 C 940.311 525.056 938.862 521.18 937.308 517.393 z"/>
<path transform="translate(0,0)" fill="rgb(222,173,108)" d="M 1002.82 455.645 C 1017.17 460.647 1047.92 486.823 1059.79 497.669 C 1077.68 514.001 1078.47 526.554 1079.57 549.4 C 1065.32 540.874 1030.43 481.565 1007.57 464.808 C 1003.55 461.861 1003.62 460.296 1002.82 455.645 z"/>
<path transform="translate(0,0)" fill="rgb(177,93,97)" d="M 942.104 827.708 C 954.853 811.596 965.247 794.281 975.776 776.705 L 977.197 777.696 C 980.616 780.04 986.634 780.057 990.738 780.198 A 569.409 569.409 0 0 0 989.721 831.116 L 985.57 832.657 C 985.372 834.945 985.112 833.934 986.163 835.733 C 977.879 835.489 969.505 834.494 961.237 833.833 L 960.285 841.135 C 960.227 838.648 960.536 836.095 958.985 834.01 L 956.623 833.869 C 951.638 832.01 944.345 832.158 938.917 831.03 C 939.852 829.751 940.953 828.79 942.104 827.708 z"/>
<path transform="translate(0,0)" fill="rgb(26,0,29)" d="M 938.917 831.03 C 939.852 829.751 940.953 828.79 942.104 827.708 A 763.606 763.606 0 0 1 960.75 828.958 L 961.237 833.833 L 960.285 841.135 C 960.227 838.648 960.536 836.095 958.985 834.01 L 956.623 833.869 C 951.638 832.01 944.345 832.158 938.917 831.03 z"/>
<path transform="translate(0,0)" fill="rgb(39,0,25)" d="M 960.75 828.958 C 970.339 829.715 980.114 830.937 989.721 831.116 L 985.57 832.657 C 985.372 834.945 985.112 833.934 986.163 835.733 C 977.879 835.489 969.505 834.494 961.237 833.833 L 960.75 828.958 z"/>
<path transform="translate(0,0)" fill="rgb(144,192,157)" d="M 916.089 476.241 C 941.018 487.625 963.296 502.439 992.097 496.03 C 1001.16 494.014 1008.22 489.494 1013.26 481.73 C 1015.97 484.648 1020.53 488.596 1022.02 492.254 C 1023.64 496.194 1022.74 498.304 1021.08 501.908 C 1014.58 509.796 1006.86 514.459 997.054 517.214 C 976.463 522.998 951.365 519.436 932.802 509.103 C 926.475 498.679 921.388 487.22 916.089 476.241 z"/>
<path transform="translate(0,0)" fill="rgb(207,104,91)" d="M 938.917 831.03 C 944.345 832.158 951.638 832.01 956.623 833.869 C 948.853 871.147 948.757 893.783 928.533 928.645 A 400.425 400.425 0 0 1 881.601 891.146 C 900.336 877.267 926.335 850.943 938.917 831.03 z"/>
<path transform="translate(0,0)" fill="rgb(239,236,224)" d="M 1568.61 1816.4 C 1579.46 1815.35 1593.76 1814.79 1604.3 1817.94 C 1607.47 1818.89 1608.78 1819.91 1610.27 1822.82 C 1610.04 1824 1609.95 1824.78 1609.36 1825.91 C 1602.64 1838.6 1553.05 1860.75 1538.29 1867.26 C 1527.48 1871.72 1516.71 1875.94 1505.64 1879.69 C 1506.55 1862.51 1510.8 1842.21 1518.04 1826.59 C 1534.2 1821.53 1551.8 1818.03 1568.61 1816.4 z"/>
<path transform="translate(0,0)" fill="rgb(145,77,95)" d="M 711.125 909.661 C 718.97 913.39 726.455 918.532 733.903 923.022 C 711.502 967.716 690.58 1013.63 670.223 1059.29 L 669.814 1059.45 C 664.324 1057.64 652.407 1042.6 647.757 1037.39 C 654.23 1016.73 698.285 925.475 711.125 909.661 z"/>
<path transform="translate(0,0)" fill="rgb(193,150,146)" d="M 637.078 1652.78 A 228.883 228.883 0 0 0 709.654 1700.26 C 699.841 1711.88 691.58 1724.78 683.395 1737.57 C 682.783 1737.74 682.188 1737.99 681.559 1738.08 C 667.858 1740.02 625.033 1720.23 612.871 1712.56 C 621.152 1692.67 627.404 1672.09 637.078 1652.78 z"/>
<path transform="translate(0,0)" fill="rgb(222,173,108)" d="M 675.829 886.285 L 677.3 885.467 C 686.538 890.498 695.204 897.591 703.755 903.723 C 681.274 944.875 660.094 988.006 642.62 1031.53 C 633.384 1020.19 620.206 1007.19 614.862 993.628 C 615.425 991.109 616.306 989.301 617.488 987.036 C 625.921 974.393 633.162 960.449 641.032 947.382 C 653.003 927.507 667.227 907.842 675.829 886.285 z"/>
<path transform="translate(0,0)" fill="rgb(193,150,146)" d="M 867.01 888.029 C 884.198 904.774 904.827 922.038 925.697 933.679 C 916.571 949.231 901.804 974.268 888.16 985.465 L 886.383 984.903 C 865.427 968.532 847.203 951.362 823.471 938.62 C 834.804 920.217 850.919 902.309 867.01 888.029 z"/>
<path transform="translate(0,0)" fill="rgb(145,77,95)" d="M 830.673 846.709 C 837.816 848.819 858.127 872 865.151 878.639 C 846.334 893.13 819.204 926.907 810.961 948.836 L 797.575 944.022 A 388.778 388.778 0 0 1 759.703 926.602 C 778.257 897.036 801.78 866.612 830.673 846.709 z"/>
<path transform="translate(0,0)" fill="rgb(193,150,146)" d="M 1321.3 1711 L 1322.04 1711.23 C 1325.77 1717.53 1327.16 1727.39 1329.59 1734.58 C 1333.68 1746.65 1338.32 1758.56 1342.84 1770.48 C 1318.38 1777.82 1295.81 1789.99 1272.94 1801.13 L 1269.26 1792.65 C 1259.27 1771.32 1247.89 1750.72 1236.52 1730.11 C 1266.05 1729.39 1293.93 1721.58 1321.3 1711 z"/>
<path transform="translate(0,0)" fill="rgb(207,104,91)" d="M 644.141 1581.54 C 645.777 1585.47 648.162 1588.74 650.857 1592 C 677.772 1624.55 734.75 1661.25 776.79 1665.46 C 769.48 1675.33 761.345 1684.68 752.024 1692.7 C 750.784 1693.54 750.837 1693.55 749.323 1694.36 C 740.855 1698.93 729.349 1696.48 720.599 1693.75 C 687.977 1683.58 640.229 1652.7 624.133 1621.81 C 630.332 1608.17 636.584 1594.49 644.141 1581.54 z"/>
<path transform="translate(0,0)" fill="rgb(239,236,224)" d="M 1619.33 1825.86 C 1622.21 1827.38 1624.54 1830.42 1626.44 1833.03 C 1629.17 1836.78 1632.98 1842.2 1632.15 1847.08 C 1625.65 1856.07 1613.41 1861.76 1603.87 1867.11 C 1554.12 1894.99 1501.93 1912.77 1448.28 1931.32 C 1411.57 1944.02 1373.67 1957.82 1335.37 1964.73 C 1333.74 1964.39 1332.09 1963.9 1330.58 1963.17 C 1324.12 1960.07 1321.88 1950.81 1319.7 1944.6 C 1381.42 1930.26 1586.97 1874.15 1619.33 1825.86 z"/>
<path transform="translate(0,0)" fill="rgb(222,173,108)" d="M 740.043 926.41 L 781.443 946.718 C 759.141 982.178 742.507 1023.17 730.934 1063.33 C 727.53 1075.14 725.71 1087.45 722.128 1099.15 L 720.542 1099.6 C 704.262 1090.37 688.642 1078.98 675.828 1065.34 C 683.365 1043.97 694.446 1023.45 704.105 1002.96 C 716.135 977.449 727.496 951.687 740.043 926.41 z"/>
<path transform="translate(0,0)" fill="rgb(207,104,91)" d="M 1328.76 1648.12 C 1328.86 1648.21 1328.97 1648.27 1329.05 1648.37 C 1331.77 1651.83 1333.76 1689.29 1334.32 1695.72 C 1294.26 1716.17 1245.89 1723.95 1201.33 1719.91 C 1194.47 1719.29 1186.65 1719.31 1180.05 1717.29 C 1176.49 1716.2 1175.74 1714.9 1174.07 1711.64 C 1168.51 1698.85 1163.8 1685.57 1159.06 1672.45 C 1197.14 1678.85 1247.51 1673.39 1284.98 1663.16 C 1299.88 1659.09 1314.25 1653.38 1328.76 1648.12 z"/>
<path transform="translate(0,0)" fill="rgb(145,77,95)" d="M 836.508 466.914 C 838.39 469.035 859.531 537.558 864.258 548.77 C 867.196 550.576 870.473 551.954 873.59 553.437 C 875.976 581.903 876.808 609.688 873.499 638.132 C 867.058 693.512 850.321 744.285 818.968 790.748 C 814.734 797.021 809.662 806.949 803.785 811.59 L 801.419 810.282 C 795.116 804.833 788.998 799.139 782.807 793.563 C 795.189 779.4 806.7 764.954 815.195 748.048 C 821.745 735.014 826.194 721.007 830.632 707.148 C 848.044 652.775 854.301 599.236 842.891 542.88 C 838.183 519.626 829.696 497.019 822.251 474.533 L 836.508 466.914 z"/>
<path transform="translate(0,0)" fill="rgb(222,173,108)" d="M 819.356 946.271 C 825.581 949.641 831.607 953.591 837.674 957.25 C 811.237 1008.67 799.867 1066.6 777.218 1119.48 C 766.517 1118.54 756.058 1115.4 745.832 1112.27 C 739.887 1109.96 734.085 1107.16 728.269 1104.55 C 740.35 1046.17 758.18 1001.08 786.736 948.889 C 794.22 951.383 806.423 957.635 814.038 954.363 C 817.001 953.09 818.163 949.034 819.356 946.271 z"/>
<path transform="translate(0,0)" fill="rgb(222,173,108)" d="M 880.016 418.061 C 881.046 419.108 882.066 420.662 882.752 421.963 C 886.286 428.662 888.962 436.055 892.211 442.924 C 902.224 464.093 912.082 485.531 922.743 506.371 C 955.999 571.382 997.982 639.867 990.379 715.965 C 988.8 731.764 984.609 746.841 980.249 762.039 C 977.883 747.499 971.893 735.454 965.209 722.535 C 949.135 692.433 931.051 665.056 910.611 637.766 C 919.615 615.917 933.424 593.344 938.252 570.259 C 930.617 566.741 922.29 564.288 914.437 561.246 C 899.6 555.499 884.992 549.366 869.956 544.131 A 474.909 474.909 0 0 1 841.031 446.198 C 854.059 436.881 866.718 426.984 880.016 418.061 z"/>
<path transform="translate(0,0)" fill="rgb(144,192,157)" d="M 1352.94 1777.16 L 1358.1 1786.99 C 1353.11 1788.05 1348.62 1788.6 1344.43 1791.67 L 1344.19 1793.32 C 1350.15 1796.53 1356.48 1793.8 1362.52 1792.09 L 1369.21 1799.24 L 1359.41 1809 C 1359.99 1810.82 1360.54 1812.31 1360.65 1814.22 L 1362.15 1811.77 C 1362.74 1812.87 1363.29 1814 1363.97 1815.04 C 1366.87 1811.77 1369.09 1807.69 1372.79 1805.26 C 1377.17 1804.93 1382.47 1807.45 1386.57 1808.96 L 1387.66 1807.49 C 1389.36 1807.89 1391.15 1808.13 1392.66 1809.02 L 1391.6 1809.39 C 1395.1 1811.95 1397.56 1813.99 1402.02 1814.3 C 1403.06 1815.26 1403.98 1816.07 1404.78 1817.24 L 1399.21 1834.13 C 1401.45 1836.1 1403.86 1836.66 1406.65 1837.48 C 1406.92 1841.43 1406.93 1844.68 1410.06 1847.55 C 1412.61 1849.89 1415.82 1851.1 1419.28 1850.83 C 1423.09 1850.54 1427.03 1848.52 1429.52 1845.61 C 1431.47 1843.33 1432.11 1840.64 1432.77 1837.8 C 1435.22 1838.81 1436.24 1839.71 1438.93 1839.16 C 1439.23 1842.68 1439.24 1846.04 1442.15 1848.52 C 1444.07 1850.16 1445.8 1850.87 1448.28 1851.42 C 1451.31 1850.73 1451.56 1850.61 1453.69 1848.36 C 1453.94 1846.61 1454.17 1845.05 1454.14 1843.28 C 1455.03 1838.29 1453.49 1832.32 1455.75 1827.79 C 1458.19 1826.07 1458.89 1826.1 1461.91 1825.84 C 1464.32 1828.69 1464.21 1832.64 1464.75 1836.3 C 1465.1 1840.22 1465.13 1844.46 1468.66 1846.99 C 1470.97 1848.64 1473.81 1848.69 1476.45 1847.88 C 1482.04 1846.16 1485.35 1842.46 1488.08 1837.52 L 1488.86 1828.04 C 1495.47 1827.94 1502.1 1827.29 1508.68 1826.8 C 1502.27 1844.91 1498.16 1863.75 1497.58 1882.97 A 2338.34 2338.34 0 0 1 1391 1916.62 C 1366.65 1923.79 1342.13 1930.26 1317.91 1937.84 C 1298.38 1889.73 1304.44 1854.04 1265.35 1811.78 C 1295.99 1802.76 1320.55 1782.66 1352.94 1777.16 z"/>
<path transform="translate(0,0)" fill="rgb(1,0,6)" d="M 1391.6 1809.39 C 1395.1 1811.95 1397.56 1813.99 1402.02 1814.3 C 1403.06 1815.26 1403.98 1816.07 1404.78 1817.24 L 1399.21 1834.13 C 1398.66 1836.15 1398.04 1838.71 1396.74 1840.38 C 1395.15 1842.42 1393.04 1842.66 1390.66 1842.88 C 1387.82 1841.74 1387.56 1841.63 1385.86 1839.12 C 1385.74 1836.44 1386.08 1835.28 1387.36 1832.93 C 1384.79 1831.53 1382.95 1829.78 1380.87 1827.77 L 1385.1 1820.88 C 1386.99 1816.88 1389.31 1813.17 1391.6 1809.39 z"/>
<path transform="translate(0,0)" fill="rgb(184,187,175)" d="M 1385.1 1820.88 C 1387.86 1823.07 1388.89 1823.74 1392.56 1823.83 C 1391.46 1827.48 1389.64 1829.91 1387.36 1832.93 C 1384.79 1831.53 1382.95 1829.78 1380.87 1827.77 L 1385.1 1820.88 z"/>
<path transform="translate(0,0)" fill="rgb(201,199,183)" d="M 1391.6 1809.39 C 1395.1 1811.95 1397.56 1813.99 1402.02 1814.3 C 1401.86 1814.53 1401.7 1814.75 1401.55 1814.98 C 1397.63 1821.03 1395.98 1828.83 1392.9 1835.42 C 1393.02 1830.94 1393.64 1826.76 1394.46 1822.37 L 1394.01 1821.96 L 1392.56 1823.83 C 1388.89 1823.74 1387.86 1823.07 1385.1 1820.88 C 1386.99 1816.88 1389.31 1813.17 1391.6 1809.39 z"/>
<path transform="translate(0,0)" fill="rgb(8,0,16)" d="M 1360.65 1814.22 L 1362.15 1811.77 C 1362.74 1812.87 1363.29 1814 1363.97 1815.04 C 1366.87 1811.77 1369.09 1807.69 1372.79 1805.26 C 1377.17 1804.93 1382.47 1807.45 1386.57 1808.96 L 1387.66 1807.49 C 1389.36 1807.89 1391.15 1808.13 1392.66 1809.02 L 1391.6 1809.39 C 1389.31 1813.17 1386.99 1816.88 1385.1 1820.88 L 1380.87 1827.77 C 1379.66 1828.85 1378.33 1830.28 1376.67 1830.61 C 1372.33 1831.46 1365.05 1828.24 1361.73 1825.57 C 1358.91 1823.3 1356.14 1819.81 1356.03 1816.03 C 1355.95 1812.96 1357.58 1811.19 1359.41 1809 C 1359.99 1810.82 1360.54 1812.31 1360.65 1814.22 z"/>
<path transform="translate(0,0)" fill="rgb(144,192,157)" d="M 1360.65 1814.22 L 1362.15 1811.77 C 1362.74 1812.87 1363.29 1814 1363.97 1815.04 C 1366.87 1811.77 1369.09 1807.69 1372.79 1805.26 C 1377.17 1804.93 1382.47 1807.45 1386.57 1808.96 C 1383.07 1814.04 1379.87 1819.81 1375.93 1824.53 C 1370.97 1822.71 1363.96 1821.17 1361.49 1816.07 C 1361.19 1815.47 1360.93 1814.84 1360.65 1814.22 z"/>
<path transform="translate(0,0)" fill="rgb(207,104,91)" d="M 844.562 960.796 L 856.131 968.997 C 839.512 1019.19 826.435 1071.34 814.413 1122.81 C 792.246 1217.73 774.797 1313.01 767.36 1410.32 L 768.921 1411.25 C 769.378 1416.34 768.055 1421.96 768.108 1427.25 C 770.066 1425.33 770.965 1421.95 770.965 1419.24 C 770.965 1418.26 770.84 1417.34 770.742 1416.36 L 771.705 1415.84 L 772.243 1416.13 C 772.239 1419.83 772.28 1423.4 770.714 1426.83 C 762.724 1444.33 750.546 1460.99 740.838 1477.65 C 718.067 1516.73 695.135 1556.13 675.345 1596.81 L 670.406 1595.58 L 669.26 1597.11 L 667.544 1597.26 C 660.023 1591.76 653.495 1584.07 646.789 1577.57 C 665.27 1543.81 682.426 1509.2 700.267 1475.08 C 709.031 1458.32 725.565 1431.21 730.589 1414.53 C 735.996 1396.58 735.049 1374.76 736.216 1356.05 A 3456.06 3456.06 0 0 1 740.869 1293.64 A 4433.23 4433.23 0 0 1 759.292 1126.26 C 764.893 1127.66 773.846 1130.4 779.443 1128.49 C 783.164 1127.22 784.572 1123.88 786.179 1120.53 C 793.957 1104.34 799.277 1086 804.939 1068.97 C 816.926 1032.91 828.3 995.148 844.562 960.796 z"/>
<path transform="translate(0,0)" fill="rgb(1,0,6)" d="M 767.36 1410.32 L 768.921 1411.25 C 769.378 1416.34 768.055 1421.96 768.108 1427.25 C 770.066 1425.33 770.965 1421.95 770.965 1419.24 C 770.965 1418.26 770.84 1417.34 770.742 1416.36 L 771.705 1415.84 L 772.243 1416.13 C 772.239 1419.83 772.28 1423.4 770.714 1426.83 C 762.724 1444.33 750.546 1460.99 740.838 1477.65 C 718.067 1516.73 695.135 1556.13 675.345 1596.81 L 670.406 1595.58 C 676.381 1580.07 685.42 1564.89 693.27 1550.2 C 708.3 1522.07 723.826 1493.64 740.266 1466.31 C 747.795 1453.79 761.305 1436.82 766.066 1423.77 C 767.458 1419.95 767.163 1414.4 767.36 1410.32 z"/>
<path transform="translate(0,0)" fill="rgb(222,173,108)" d="M 880.715 555.912 C 896.527 563.223 913.407 568.449 929.035 575.935 C 919.831 596.946 910.675 617.937 900.585 638.544 C 922 666.348 964.11 728.608 971.711 761.003 C 963.277 790.45 921.065 839.889 900.332 863.526 C 894.61 870.049 887.456 880.014 879.805 884.172 C 877.733 885.298 878.657 885.075 876.285 884.596 C 872.822 880.625 871.084 876.007 867.973 871.868 C 863.263 865.603 849.633 855.613 847.149 848.967 L 845.318 846.613 L 844.015 847.282 C 832.131 836.654 818.426 827.219 807.342 815.907 C 820.644 798.72 833.816 781.408 844.296 762.305 C 878.363 700.205 887.091 625.426 880.715 555.912 z"/>
<path transform="translate(0,0)" fill="rgb(1,0,6)" d="M 845.318 846.613 C 850.147 833.93 859.652 822.177 866.473 810.411 C 877.067 792.14 886.571 772.876 895.557 753.757 C 899.234 745.932 915.841 703.135 917.923 700.812 L 919.448 700.587 C 923.86 717.812 880.089 799.52 869.704 817.087 C 863.33 827.868 856.448 840.499 847.149 848.967 L 845.318 846.613 z"/>
<path transform="translate(0,0)" fill="rgb(239,236,224)" d="M 1033.94 506.302 L 1037.26 510.458 C 1049.13 528.695 1063.41 545.436 1077.58 561.907 C 1104.22 592.871 1135.26 625.274 1125.46 669.9 C 1121.39 688.469 1109.43 702.416 1101.03 718.92 C 1094.87 731.028 1091.06 744.012 1086.87 756.879 C 1052.42 765.879 1017.19 773.106 981.479 773.106 C 988.473 756.67 993.615 740.675 997.39 723.188 C 1015.93 716.853 1091.45 683.343 1102.2 670.191 L 1102.33 668.06 C 1099.7 667.298 1098.34 668.016 1095.92 669.101 C 1079.81 676.342 1064.29 685.942 1048.62 694.178 C 1032.31 702.745 1015.14 710.195 998.202 717.421 C 1001.99 641.979 981.058 601.383 946.468 537.263 C 957.11 539.373 967.851 541.392 978.697 542.071 L 977.016 536.222 C 988.108 536.533 997.202 535.37 1007.91 532.5 C 1010.88 531.211 1013.74 530.197 1016.86 529.314 C 1017.63 528.79 1018.39 528.252 1019.16 527.732 C 1028.12 521.711 1030.78 516.264 1033.94 506.302 z"/>
<path transform="translate(0,0)" fill="rgb(8,0,16)" d="M 1007.91 532.5 C 1010.88 531.211 1013.74 530.197 1016.86 529.314 C 1020.8 530.642 1022.95 529.083 1026.92 529.419 C 1021.68 533.64 1015.57 535.908 1009.26 538.072 L 1007.91 532.5 z"/>
<path transform="translate(0,0)" fill="rgb(1,0,6)" d="M 1038.26 723.704 C 1044.68 719.429 1051.46 716.103 1058.65 713.357 C 1061.17 715.014 1063.11 715.522 1066 716.059 C 1056.78 720.081 1048.22 722.316 1038.26 723.704 z"/>
<path transform="translate(0,0)" fill="rgb(26,0,29)" d="M 1033.94 506.302 L 1037.26 510.458 C 1036.05 517.731 1034.19 524.27 1027.91 528.816 C 1027.6 529.042 1027.25 529.218 1026.92 529.419 C 1022.95 529.083 1020.8 530.642 1016.86 529.314 C 1017.63 528.79 1018.39 528.252 1019.16 527.732 C 1028.12 521.711 1030.78 516.264 1033.94 506.302 z"/>
<path transform="translate(0,0)" fill="url(#Gradient2)" d="M 977.016 536.222 C 988.108 536.533 997.202 535.37 1007.91 532.5 L 1009.26 538.072 C 999.001 540.737 989.289 541.897 978.697 542.071 L 977.016 536.222 z"/>
<path transform="translate(0,0)" fill="rgb(26,0,29)" d="M 1058.65 713.357 C 1065.2 710.128 1098.15 690.505 1101.6 691.033 C 1098.97 699.805 1084.68 706.601 1076.91 710.762 C 1073.35 712.67 1069.67 714.381 1066 716.059 C 1063.11 715.522 1061.17 715.014 1058.65 713.357 z"/>
<path transform="translate(0,0)" fill="rgb(207,104,91)" d="M 1008.21 1312.28 A 3095.38 3095.38 0 0 1 1029.5 1252.86 C 1033.87 1240.96 1039.02 1228.9 1042.41 1216.69 C 1042.79 1215.32 1042.36 1215.94 1043.78 1215.05 L 1047.38 1220.96 C 1075.29 1269.4 1100.25 1319.41 1125.66 1369.18 C 1132.61 1382.79 1143.16 1396.06 1148.06 1410.44 C 1152.02 1422.06 1151.41 1435.46 1154.03 1447.53 C 1155.1 1467.74 1161.52 1489.32 1166.31 1508.96 C 1178.55 1559.11 1193.9 1616.49 1211.41 1664.9 C 1203.27 1669.61 1175.65 1666.56 1165.15 1665.85 C 1153.84 1646.83 1146.52 1623.6 1138.61 1602.86 C 1120.06 1554.27 1103.45 1504.98 1085.41 1456.2 C 1077.9 1435.88 1071.52 1414.81 1062.25 1395.21 C 1049.06 1367.35 1025.79 1337.85 1008.21 1312.28 z"/>
<path transform="translate(0,0)" fill="rgb(193,150,146)" d="M 946.808 151.688 C 959.791 149.439 969.829 153.135 982.526 154.128 C 986.913 154.471 991.75 153.315 995.872 153.779 C 997.98 154.016 1000.13 155.53 1001.93 156.582 C 1008.7 163.944 1016.94 170.282 1024.01 177.457 L 1028.89 175.605 C 1029.11 175.85 1029.32 176.101 1029.55 176.34 C 1033.48 180.484 1039.24 180.847 1042.65 184.574 C 1041.5 186.25 1040.31 187.37 1038.76 188.676 C 1038.46 196.352 1048.37 203.145 1051.97 209.489 C 1054 213.073 1053.48 217.805 1056.18 220.931 C 1056.53 221.34 1056.91 221.722 1057.28 222.117 L 1053.86 226.678 C 1059.38 231.961 1065.88 237.178 1073.56 238.785 C 1076.86 246.096 1083.37 250.392 1089.87 254.662 C 1086.84 259.339 1085.16 262.061 1079.48 263.289 C 1074.75 264.311 1069.28 264.027 1065.78 267.814 C 1071.39 269.508 1079.51 270.664 1083.72 274.769 C 1085.66 279.664 1084.32 282.041 1082.56 286.781 L 1088.85 289.245 C 1091.81 291.075 1094.53 292.402 1096.19 295.62 C 1096.37 299.382 1093.81 302.085 1091.57 304.85 C 1097.3 311.467 1102.85 317.982 1104.32 326.934 C 1102.41 326.288 1102.13 326.685 1101.21 324.678 C 1101.04 324.312 1100.92 323.926 1100.78 323.55 L 1096.18 325.276 C 1096.48 333.43 1095.54 340.233 1089.63 346.304 C 1077.59 358.659 1034.55 363.327 1017 364.633 C 1008.62 365.256 999.769 364.705 991.522 365.94 C 989.021 366.315 987.594 366.878 985.942 368.82 L 986.617 370.344 C 993.907 372.346 1002.75 371.795 1010.33 372.092 C 1003.42 394.671 989.297 451.435 999.268 471.762 C 1001.03 475.35 1004.82 477.4 1005.62 481.269 C 1004.03 484.937 1001.97 486.744 998.25 488.205 C 983.237 494.093 959.478 492.592 945.066 485.549 C 905.768 466.342 908.813 460.689 891.107 424.64 C 897.742 412.266 902.726 398.979 907.826 385.916 L 908.861 383.83 A 28.1511 28.1511 0 0 0 922.397 389.356 C 929.505 390.305 936.087 388.099 941.69 383.7 C 949.255 377.761 954.514 368.637 955.477 359.036 C 956.181 352.006 954.369 343.347 949.466 338.013 C 945.628 333.837 939.309 330.284 933.63 329.937 C 934.954 326.115 935.115 323.354 934.732 319.374 C 938.631 300.432 917.784 268.999 910.995 251.06 C 903.254 230.604 906.621 201.763 915.61 182.196 C 922.109 168.049 932.052 157.222 946.808 151.688 z"/>
<path transform="translate(0,0)" fill="url(#Gradient3)" d="M 978.798 231.42 A 1284.39 1284.39 0 0 1 1001.23 219.93 C 1004.48 220.667 1006.45 221.296 1009.07 223.38 C 999.58 227.357 988.105 230.956 980.555 238.085 L 980.866 242.189 C 970.392 243.434 960.219 247.296 949.672 248.865 C 958.624 242.283 969.176 237.01 978.798 231.42 z"/>
<path transform="translate(0,0)" fill="rgb(1,0,6)" d="M 1073.17 303.357 C 1067.44 304.447 1053.31 308.147 1048.49 306.068 L 1048.25 304.163 C 1051.06 300.409 1055.32 299.346 1058.97 296.649 C 1061.9 294.483 1064.34 291.535 1066.89 288.932 C 1070.07 285.683 1073.07 281.726 1078 281.678 C 1081.01 283.281 1081.06 283.855 1082.56 286.781 L 1088.85 289.245 C 1091.81 291.075 1094.53 292.402 1096.19 295.62 C 1096.37 299.382 1093.81 302.085 1091.57 304.85 C 1097.3 311.467 1102.85 317.982 1104.32 326.934 C 1102.41 326.288 1102.13 326.685 1101.21 324.678 C 1101.04 324.312 1100.92 323.926 1100.78 323.55 L 1096.18 325.276 C 1094.5 320.189 1092.04 316.319 1089.06 311.939 C 1083.76 312.72 1077.85 313.812 1072.82 311.446 L 1073.26 310.007 C 1073.84 307.353 1073.92 305.979 1073.17 303.357 z"/>
<path transform="translate(0,0)" fill="rgb(183,125,132)" d="M 1073.17 303.357 L 1074.56 302.85 C 1078.77 301.278 1082.23 299.571 1085.98 297.018 C 1086.24 297.494 1086.73 303.115 1088.31 306.797 C 1086.21 309.188 1083.49 308.874 1080.38 309.06 C 1077.9 309.208 1075.62 309.168 1073.26 310.007 C 1073.84 307.353 1073.92 305.979 1073.17 303.357 z"/>
<path transform="translate(0,0)" fill="rgb(8,0,16)" d="M 1028.89 175.605 C 1029.11 175.85 1029.32 176.101 1029.55 176.34 C 1033.48 180.484 1039.24 180.847 1042.65 184.574 C 1041.5 186.25 1040.31 187.37 1038.76 188.676 C 1038.46 196.352 1048.37 203.145 1051.97 209.489 C 1054 213.073 1053.48 217.805 1056.18 220.931 C 1056.53 221.34 1056.91 221.722 1057.28 222.117 L 1053.86 226.678 C 1051.48 224.288 1049.19 221.786 1046.47 219.772 C 1051.02 234.561 1057.09 249.932 1055.84 265.645 C 1054.25 269.478 1052.34 273.379 1049.12 276.119 C 1047.37 277.614 1045.11 278.702 1042.74 278.208 C 1034.24 276.435 1029.42 261.887 1025.65 255.363 C 1025.47 255.047 1025.26 254.747 1025.07 254.439 C 1019.63 253.784 1012.53 254.081 1007.56 251.815 C 1001.85 249.214 1000.66 243.461 998.784 238.05 L 980.866 242.189 L 980.555 238.085 C 988.105 230.956 999.58 227.357 1009.07 223.38 C 1006.45 221.296 1004.48 220.667 1001.23 219.93 A 1284.39 1284.39 0 0 0 978.798 231.42 C 983.495 221.656 1003.13 221.729 1007.09 212.03 L 1006.06 210.838 C 992.519 208.52 979.483 218.37 968.686 218.351 C 968.037 218.35 967.388 218.301 966.739 218.277 C 952.83 220.485 940.442 226.856 925.941 228.044 A 169.98 169.98 0 0 1 936.694 222.868 C 950.311 216.871 978.56 203.952 991.729 201.235 C 1000.84 199.356 1019.35 199.402 1028.11 202.418 C 1034.22 204.521 1033.99 210.834 1038.78 212.701 L 1038.95 211.683 L 1037.55 210.817 L 1038.76 210.265 L 1037.06 209.69 L 1038.18 207.503 C 1035.26 196.978 1031.41 185.634 1024.01 177.457 L 1028.89 175.605 z"/>
<path transform="translate(0,0)" fill="rgb(207,104,91)" d="M 966.739 218.277 C 986.246 210.64 1002.29 205.979 1023.58 209.786 L 1024.35 210.652 C 1017.16 214.538 1008.72 216.176 1001.23 219.93 A 1284.39 1284.39 0 0 0 978.798 231.42 C 983.495 221.656 1003.13 221.729 1007.09 212.03 L 1006.06 210.838 C 992.519 208.52 979.483 218.37 968.686 218.351 C 968.037 218.35 967.388 218.301 966.739 218.277 z"/>
<path transform="translate(0,0)" fill="rgb(207,104,91)" d="M 1019.14 219.52 C 1024.25 217.574 1028.65 215.779 1033.98 218.137 C 1039.02 220.36 1041.53 226.431 1042.99 231.31 C 1046.21 242.097 1047.55 254.105 1048.53 265.302 C 1047.65 266.66 1046.91 267.659 1045.71 268.773 C 1044.29 270.104 1044.12 269.681 1042.3 269.615 C 1033.8 264.18 1030.71 244.063 1028.14 234.597 C 1026.64 230.783 1024.25 227.522 1021.99 224.127 L 1021.13 222.524 L 1019.82 222.207 L 1019.14 219.52 z"/>
<path transform="translate(0,0)" fill="rgb(1,0,6)" d="M 1009.07 223.38 C 1012.45 222.511 1015.88 220.814 1019.14 219.52 L 1019.82 222.207 L 1021.13 222.524 L 1021.99 224.127 C 1024.25 227.522 1026.64 230.783 1028.14 234.597 C 1030.71 244.063 1033.8 264.18 1042.3 269.615 C 1044.12 269.681 1044.29 270.104 1045.71 268.773 C 1046.91 267.659 1047.65 266.66 1048.53 265.302 L 1049.48 266.223 C 1048.88 268.695 1047.89 269.516 1046.03 271.185 C 1044.38 271.489 1043.22 272.039 1041.59 271.377 C 1033.27 267.993 1030.48 245.959 1026.64 238.028 L 1025.11 238.146 C 1023.77 242.53 1025.95 248.593 1025.22 253.548 C 1025.17 253.846 1025.12 254.142 1025.07 254.439 C 1019.63 253.784 1012.53 254.081 1007.56 251.815 C 1001.85 249.214 1000.66 243.461 998.784 238.05 L 980.866 242.189 L 980.555 238.085 C 988.105 230.956 999.58 227.357 1009.07 223.38 z"/>
<path transform="translate(0,0)" fill="rgb(222,173,108)" d="M 1011.28 232.577 L 1011.76 233.548 C 1011.8 237.562 1012.18 240.774 1013.69 244.522 C 1014.23 245.847 1014.71 247.181 1015.19 248.527 L 1013.65 248.998 C 1010.93 248.003 1008.76 246.842 1006.97 244.476 C 1005.65 242.738 1004.56 240.033 1005.24 237.86 C 1006.25 234.583 1008.52 234.05 1011.28 232.577 z"/>
<path transform="translate(0,0)" fill="rgb(8,0,16)" d="M 1021.99 224.127 C 1024.25 227.522 1026.64 230.783 1028.14 234.597 C 1022.84 237.654 1017.38 234.99 1011.76 233.548 L 1011.28 232.577 L 1016 228.797 L 1015.85 227.663 L 1021.99 224.127 z"/>
<path transform="translate(0,0)" fill="rgb(236,158,80)" d="M 1009.07 223.38 C 1012.45 222.511 1015.88 220.814 1019.14 219.52 L 1019.82 222.207 L 1021.13 222.524 L 1021.99 224.127 L 1015.85 227.663 C 1003.69 229.88 992.692 236.023 980.555 238.085 C 988.105 230.956 999.58 227.357 1009.07 223.38 z"/>
<path transform="translate(0,0)" fill="rgb(222,173,108)" d="M 781.636 499.757 C 789.659 491.237 804.87 483.921 815.373 478.64 C 823.191 499.101 831.092 520.022 835.559 541.503 C 848.979 606.042 837.629 678.017 810.862 737.793 C 802.449 756.581 790.417 773.082 778.639 789.842 C 773.583 785.365 768.673 780.991 764.278 775.849 L 764.834 774.005 C 774.172 743.75 813.075 673.604 814.577 647.23 L 813.946 646.074 C 806.894 651.756 770.128 737.809 765.359 750.596 C 762.44 758.424 759.825 766.742 758.607 775.028 C 749.452 774.978 740.828 775.649 731.846 777.487 C 717.87 780.347 674.029 794.117 665.112 804.678 C 664.746 805.111 664.573 805.676 664.304 806.176 L 665.438 807.512 C 673.788 807.787 684.037 800.23 691.87 797.024 C 713.145 788.316 736.89 780.599 760.048 781.968 C 778.923 804.446 803.87 821.395 825.781 840.626 C 803.307 857.515 765.606 897.998 753.78 924.57 C 727.984 909.877 621.681 843.865 615.193 817.203 C 613.182 808.939 615.283 800.942 617.957 793.123 C 634.387 745.076 665.902 691.456 689.113 645.503 A 6220.6 6220.6 0 0 1 727.893 568.619 C 734.608 555.58 740.915 541.94 748.793 529.572 C 753.639 521.965 768.004 506.18 776.451 503.529 C 777.309 503.26 777.727 503.382 778.524 503.486 L 781.636 499.757 z"/>
<path transform="translate(0,0)" fill="rgb(1,0,6)" d="M 781.636 499.757 C 809.924 519.938 824.651 540.496 830.384 575.487 A 82.2177 82.2177 0 0 1 831.522 587.479 C 826.747 580.615 825.169 572.209 822.589 564.365 C 812.99 535.181 802.81 521.72 778.524 503.486 L 781.636 499.757 z"/>
<path transform="translate(0,0)" fill="rgb(1,0,6)" d="M 720.587 759.39 C 728.856 758.099 743.245 757.79 750.283 762.643 C 751.538 764.898 751.657 764.872 751.177 767.384 C 749.252 767.859 749.677 768.034 748.126 767.663 C 746.243 767.211 744.387 766.582 742.503 766.113 C 718.291 760.089 680.675 774.742 660.017 787.14 C 651.143 793.16 643.533 798.464 633.074 801.268 C 633.303 800.969 633.529 800.666 633.762 800.371 C 652.569 776.577 691.434 762.699 720.587 759.39 z"/>
<path transform="translate(0,0)" fill="rgb(145,77,95)" d="M 763.717 331.008 C 756.467 332.984 749.665 334.709 742.065 334.57 C 737.114 334.48 731.193 333.646 727.86 329.533 C 723.183 323.762 725.806 314.807 726.79 308.209 C 727.261 305.054 727.481 303.279 725.537 300.7 C 717.273 299.165 707.802 303.356 699.095 302.555 C 692.768 301.974 684.198 300.273 680.162 294.804 C 677.229 290.828 677.303 285.465 677.934 280.797 C 680.527 261.6 688.337 259.885 701.85 248.828 C 703.978 247.086 705.445 246.063 705.78 243.24 L 704.199 242.172 C 697.778 242.328 691.982 246.17 685.718 247.392 C 682.883 247.946 679.471 246.414 677.208 244.692 C 674.921 242.952 673.849 240.678 673.496 237.856 C 672.146 227.052 687.158 211.353 695.937 206.046 C 701.586 202.631 712.068 200.802 716.227 196.044 C 713.561 192.558 703.247 193.299 698.982 190.905 C 697.186 189.897 695.302 188.368 695.038 186.182 C 694.49 181.634 697.42 176.556 700.318 173.258 C 716.919 154.369 746.527 150.447 769.941 149.341 L 770.819 147.239 C 767.639 141.559 758.758 142.477 755.256 135.016 C 754.902 130.324 756.976 127.403 759.915 123.99 C 771.67 110.338 789.64 106.148 806.807 109.934 C 812.939 111.286 819.386 113.846 825.688 113.254 C 827.464 111.445 827.266 110.934 827.595 108.375 C 825.733 104.156 823.911 99.7979 824.459 95.0877 C 824.999 90.4396 827.729 86.6781 831.348 83.8565 C 843.965 74.0212 863.065 74.5822 876.882 81.4371 C 881.845 83.8992 889.53 89.8715 895.053 90.0382 C 898.123 90.1309 903.428 73.7836 907.966 70.2508 C 911.171 67.7553 915.161 66.6475 919.172 66.4681 C 938.817 65.5895 943.3 86.745 953.197 87.6596 C 955.509 84.3991 952.929 79.9741 954.853 76.2505 C 957.536 71.0566 962.703 70.0737 967.837 68.5688 C 983.26 72.0675 987.418 78.5811 990.909 93.3778 C 991.668 96.5952 992.008 99.6929 994.044 102.393 C 999.294 103.125 1004.3 94.8779 1009.99 93.8426 C 1014.25 93.0678 1022.43 94.7154 1026.07 97.0303 C 1032.07 100.853 1036.6 107.576 1037.74 114.616 C 1041.96 140.693 992.158 139.052 985.972 147.885 C 985.624 148.382 985.296 148.893 984.958 149.396 L 984.923 149.285 C 983.005 150.521 976.272 147.756 973.915 146.963 C 961.231 142.695 948.044 138.166 934.451 138.859 C 889.003 141.178 840.587 174.988 811.259 207.767 C 790.599 230.858 774.242 261.803 770.65 292.874 C 770.155 297.154 769.232 302.734 769.881 306.992 C 770.257 309.461 770.92 310.577 773.007 311.968 C 776.269 309.192 780.233 276.928 783.198 269.28 A 183.546 183.546 0 0 1 825.253 204.554 C 857.279 172.525 901.578 147.668 947.661 147.53 L 948.854 149.766 L 947.439 147.535 L 949.583 149.289 L 949.518 147.675 L 950.379 148.725 L 946.6 150.804 L 946.808 151.688 C 932.052 157.222 922.109 168.049 915.61 182.196 C 906.621 201.763 903.254 230.604 910.995 251.06 C 917.784 268.999 938.631 300.432 934.732 319.374 C 935.115 323.354 934.954 326.115 933.63 329.937 C 939.309 330.284 945.628 333.837 949.466 338.013 C 954.369 343.347 956.181 352.006 955.477 359.036 C 954.514 368.637 949.255 377.761 941.69 383.7 C 936.087 388.099 929.505 390.305 922.397 389.356 A 28.1511 28.1511 0 0 1 908.861 383.83 L 907.826 385.916 C 903.641 383.845 893.185 387.066 887.71 387.051 C 860.848 386.976 836.503 374.147 817.824 355.466 C 804.695 351.758 789.815 353.206 777.303 347.36 C 769.261 343.603 766.518 338.984 763.717 331.008 z"/>
<path transform="translate(0,0)" fill="rgb(1,0,6)" d="M 934.732 319.374 C 933.851 313.638 931.04 307.675 928.949 302.257 C 917.753 273.261 899.971 251.274 901.729 218.721 C 902.992 195.336 911.206 173.491 929.181 157.933 C 934.53 153.304 939.378 150.282 946.6 150.804 L 946.808 151.688 C 932.052 157.222 922.109 168.049 915.61 182.196 C 906.621 201.763 903.254 230.604 910.995 251.06 C 917.784 268.999 938.631 300.432 934.732 319.374 z"/>
<path transform="translate(0,0)" fill="rgb(1,0,6)" d="M 903.752 336.352 C 891.582 334.671 880.455 332.033 869.696 325.855 C 859.724 320.128 847.762 310.398 845.014 298.78 C 844.115 294.978 844.306 290.966 846.478 287.613 C 850.187 281.887 858.229 279.287 864.603 278.284 C 872.607 277.025 880.918 278.2 888.835 279.552 C 934.645 287.375 920.083 320.124 933.63 329.937 C 939.309 330.284 945.628 333.837 949.466 338.013 C 954.369 343.347 956.181 352.006 955.477 359.036 C 954.514 368.637 949.255 377.761 941.69 383.7 C 936.087 388.099 929.505 390.305 922.397 389.356 A 28.1511 28.1511 0 0 1 908.861 383.83 C 903.632 377.591 898.885 370.652 897.193 362.555 C 895.202 353.024 898.581 344.25 903.752 336.352 z"/>
<path transform="translate(0,0)" fill="rgb(222,173,108)" d="M 921.34 335.177 C 925.533 334.892 929.83 335.184 933.799 336.641 A 20.8081 20.8081 0 0 1 945.803 348.442 C 948.2 354.512 947.935 361.682 945.183 367.592 C 942.019 374.384 937.165 377.623 930.31 380.081 C 925.633 380.521 920.886 380.674 916.574 378.558 A 22.3665 22.3665 0 0 1 905.197 365.388 C 903.082 359.028 903.576 351.626 906.856 345.744 C 910.269 339.626 914.802 337.061 921.34 335.177 z"/>
<path transform="translate(0,0)" fill="rgb(1,0,6)" d="M 921.889 338.973 C 924.049 338.884 926.109 338.82 928.237 339.278 C 932.682 340.235 936.899 343.358 939.319 347.186 C 941.756 351.042 942.518 355.518 941.41 359.958 C 939.958 365.775 936.079 368.623 931.126 371.461 C 929.074 371.717 927.599 371.839 925.524 371.476 C 921.345 370.744 917.563 367.413 915.403 363.897 C 912.695 359.491 911.951 353.789 913.289 348.805 C 914.614 343.872 917.636 341.435 921.889 338.973 z"/>
<path transform="translate(0,0)" fill="rgb(145,77,95)" d="M 926.828 343.999 C 929.383 344.481 930.317 344.844 931.774 347.099 C 934.326 351.048 936.077 355.495 934.521 360.24 C 933.5 363.35 930.392 364.869 927.772 366.496 C 926.603 366.545 925.425 366.409 924.259 366.331 C 922.198 359.612 918.617 356.751 919.956 349.068 C 921.745 345.965 923.694 345.308 926.828 343.999 z"/>
<path transform="translate(0,0)" fill="rgb(193,150,146)" d="M 868.359 283.338 C 880.005 282.639 893.71 284.445 903.937 290.269 C 914.202 296.114 923.175 310.459 925.817 321.965 C 926.406 324.529 926.331 325.628 924.926 327.802 C 915.713 329.135 912.527 322.548 904.654 319.446 C 901.684 318.276 899.048 317.581 896.079 318.92 L 897.793 319.8 C 900.51 321.101 903.245 322.394 905.903 323.811 C 908.483 325.186 910.028 326.343 910.905 329.148 L 909.24 330.425 C 897.448 331.772 884.821 327.004 874.703 321.189 C 866.423 316.43 853.779 308.314 851.528 298.5 C 850.875 295.655 851.253 293.383 852.92 290.943 C 856.042 286.371 863.331 284.483 868.359 283.338 z"/>
<path transform="translate(0,0)" fill="rgb(1,0,6)" d="M 884.151 297.28 C 889.758 297.925 893.191 298.565 897.474 302.353 L 897.062 303.682 C 893.263 304.399 889.413 302.646 885.818 301.502 C 881.367 302.549 880.342 304.026 877.069 307.104 L 875.425 306.781 C 874.623 304.293 875.137 303.062 875.942 300.634 C 878.564 298.218 880.728 298.12 884.151 297.28 z"/>
<path transform="translate(0,0)" fill="rgb(207,104,91)" d="M 1056.54 774.313 C 1059.48 772.412 1061.28 771.752 1064.73 771.152 C 1071.3 772.296 1076.52 773.557 1080.65 779.195 C 1087.04 787.929 1086.25 799.967 1084.71 810.062 C 1084.5 811.402 1084.03 813.426 1085.64 813.976 C 1091.06 814.288 1096.73 813.171 1102 811.973 C 1105.14 817.563 1111.3 824.278 1110.45 831.022 C 1110.54 831.29 1110.62 831.56 1110.71 831.828 C 1120.37 860.856 1139.65 888.045 1153.97 914.966 A 784.978 784.978 0 0 1 1198.53 1017.03 A 2458.87 2458.87 0 0 1 1271.89 1260.98 C 1282.66 1303.4 1294.15 1346.28 1300.12 1389.69 C 1308.61 1451.4 1312.3 1514.34 1317.57 1576.4 C 1319.38 1597.67 1320.51 1619.25 1323.3 1640.39 C 1288.69 1655.02 1254.53 1661.54 1217.39 1665.2 C 1214.52 1665.79 1214.11 1665.94 1211.41 1664.9 C 1193.9 1616.49 1178.55 1559.11 1166.31 1508.96 C 1161.52 1489.32 1155.1 1467.74 1154.03 1447.53 C 1151.41 1435.46 1152.02 1422.06 1148.06 1410.44 C 1143.16 1396.06 1132.61 1382.79 1125.66 1369.18 C 1100.25 1319.41 1075.29 1269.4 1047.38 1220.96 L 1051.49 1219.01 C 1049.42 1215.61 1047.31 1212.29 1045.01 1209.04 L 1068.48 1139.24 C 1074.07 1122.52 1079.23 1105.58 1085.96 1089.26 C 1100.38 1080.91 1141.42 1046.71 1147.07 1030.82 L 1146.32 1029.41 C 1143.8 1029.8 1142.17 1030.99 1140.27 1032.61 C 1135.38 1036.75 1131.28 1042.41 1126.92 1047.14 C 1116 1058.96 1102.22 1072.11 1088.29 1080.26 A 909.384 909.384 0 0 1 1118.57 1021.45 C 1126.63 1007.22 1135.76 992.946 1142.25 977.94 C 1143.7 974.59 1145.04 971.632 1144.5 967.922 L 1142.81 966.769 C 1142.21 966.992 1141.56 967.099 1141.02 967.44 C 1138.6 968.973 1102.39 1032.52 1099.02 1038.88 C 1093.43 1049.43 1088.42 1060.38 1083.5 1071.25 C 1068.48 1104.35 1058.38 1140.5 1046.82 1174.97 A 3621.1 3621.1 0 0 1 988.66 1336.55 C 971.556 1380.37 953.953 1425.42 928.863 1465.4 C 917.575 1483.39 903.966 1499.94 890.797 1516.56 C 852.833 1564.48 811.23 1609.18 772.233 1656.23 C 761.821 1653.87 751.946 1651.03 742.097 1646.87 C 728.235 1641.02 682.303 1616.13 674.284 1603.44 C 673.533 1602.25 673.305 1601.42 673.754 1600 C 674.001 1599.21 674.933 1597.57 675.345 1596.81 C 695.135 1556.13 718.067 1516.73 740.838 1477.65 C 750.546 1460.99 762.724 1444.33 770.714 1426.83 C 772.28 1423.4 772.239 1419.83 772.243 1416.13 C 774.887 1407.78 775.039 1385.06 776.034 1374.94 A 1615.65 1615.65 0 0 1 785.272 1301.26 A 2071.84 2071.84 0 0 1 835.394 1061.68 C 843.467 1031.86 851.285 1001.88 861.951 972.861 C 863.859 974.304 865.695 975.863 867.557 977.366 C 865.872 983.018 864.741 988.432 864.183 994.304 C 863.594 1000.51 861.365 1014.53 865.535 1019.58 C 867.184 1019.23 867.163 1019.44 868.289 1018.67 C 877.306 1012.46 885.894 1000.35 893.19 992.114 C 916.516 965.782 940.07 933.226 949.998 899.024 C 955.482 880.134 957.735 860.578 960.285 841.135 L 961.237 833.833 C 969.505 834.494 977.879 835.489 986.163 835.733 C 987.507 835.862 988.751 836.192 990.061 836.505 C 990.216 837.118 990.42 837.72 990.526 838.344 C 990.639 839.015 990.651 839.699 990.714 840.377 C 991.623 840.912 991.825 841.08 992.966 841.464 A 28.305 28.305 0 0 0 1014.22 840.063 C 1018.55 837.989 1019.77 835.149 1021.35 830.9 L 1021.33 827.031 C 1019.98 811.354 1021.19 794.742 1021.39 779.006 C 1032.92 777.016 1045.26 777.287 1056.54 774.313 z"/>
<path transform="translate(0,0)" fill="rgb(8,0,16)" d="M 1098.48 969.858 L 1103.94 969.337 C 1104.36 973.902 1104.89 978.491 1105.15 983.065 L 1100.75 990.118 L 1098.48 969.858 z"/>
<path transform="translate(0,0)" fill="rgb(26,0,29)" d="M 1102 811.973 C 1105.14 817.563 1111.3 824.278 1110.45 831.022 A 1463.24 1463.24 0 0 1 1103.38 817.736 C 1098.72 818.145 1094.22 819.514 1089.53 818.993 C 1088.48 817.218 1086.93 815.589 1085.64 813.976 C 1091.06 814.288 1096.73 813.171 1102 811.973 z"/>
<path transform="translate(0,0)" fill="rgb(1,0,6)" d="M 1105.15 983.065 C 1105.96 990.214 1108.9 1003.71 1104.93 1009.99 C 1103.02 1009.1 1103.73 1009.8 1102.87 1007.47 C 1100.91 1002.16 1101.1 995.74 1100.75 990.118 L 1105.15 983.065 z"/>
<path transform="translate(0,0)" fill="rgb(26,0,29)" d="M 1089.54 864.371 A 3979.55 3979.55 0 0 1 1101.5 947.746 C 1102.35 954.867 1103.62 962.185 1103.94 969.337 L 1098.48 969.858 C 1097.15 964.289 1096.95 957.831 1096.24 952.105 L 1083.99 864.621 L 1089.54 864.371 z"/>
<path transform="translate(0,0)" fill="rgb(1,0,6)" d="M 980.056 869.375 C 981.154 869.846 982.235 870.06 982.965 871.081 C 986.842 876.499 984.901 895.89 984.716 902.498 C 982.944 965.905 958.594 1027.55 912.069 1071.29 L 910.33 1071.9 L 908.963 1071.14 C 910.256 1066.82 929.66 1046.18 933.999 1040.08 C 957.825 1006.58 974.084 964.449 978.328 923.502 C 980.192 905.517 979.838 887.428 980.056 869.375 z"/>
<path transform="translate(0,0)" fill="rgb(26,0,29)" d="M 1154.03 1447.53 C 1154.61 1445.85 1154.91 1444.79 1154.8 1442.99 C 1154.5 1437.82 1154.55 1435.39 1157.04 1430.68 C 1164.21 1480.08 1176.5 1527.57 1189.96 1575.58 C 1198.38 1605.65 1206.69 1635.83 1217.39 1665.2 C 1214.52 1665.79 1214.11 1665.94 1211.41 1664.9 C 1193.9 1616.49 1178.55 1559.11 1166.31 1508.96 C 1161.52 1489.32 1155.1 1467.74 1154.03 1447.53 z"/>
<path transform="translate(0,0)" fill="url(#Gradient4)" d="M 1047.38 1220.96 L 1051.49 1219.01 C 1060.26 1232.5 1067.8 1246.88 1075.56 1260.97 C 1093.95 1294.3 1111.05 1328.21 1128.44 1362.06 C 1136 1376.78 1146.59 1390.97 1152.69 1406.25 C 1155.68 1413.77 1156.81 1422.62 1157.04 1430.68 C 1154.55 1435.39 1154.5 1437.82 1154.8 1442.99 C 1154.91 1444.79 1154.61 1445.85 1154.03 1447.53 C 1151.41 1435.46 1152.02 1422.06 1148.06 1410.44 C 1143.16 1396.06 1132.61 1382.79 1125.66 1369.18 C 1100.25 1319.41 1075.29 1269.4 1047.38 1220.96 z"/>
<path transform="translate(0,0)" fill="url(#Gradient5)" d="M 1056.54 774.313 C 1059.48 772.412 1061.28 771.752 1064.73 771.152 C 1071.3 772.296 1076.52 773.557 1080.65 779.195 C 1087.04 787.929 1086.25 799.967 1084.71 810.062 C 1084.5 811.402 1084.03 813.426 1085.64 813.976 C 1086.93 815.589 1088.48 817.218 1089.53 818.993 C 1088.07 819.785 1085.68 820.49 1085.19 822.148 C 1082.81 830.115 1088.18 854.804 1089.54 864.371 L 1083.99 864.621 L 1078.07 822.852 C 1071.36 825.897 1065 827.284 1057.79 828.566 C 1062.17 859.138 1069.06 889.3 1073.97 919.793 C 1078.51 948.045 1081.01 976.638 1084.27 1005.06 C 1084.81 1009.7 1086.87 1013.6 1087.32 1018.13 C 1085.68 1020.09 1085.39 1020.32 1082.97 1021.14 L 1080.94 1020.03 C 1075.88 1012.38 1076.12 997.19 1075.1 988.224 C 1071.58 957.471 1067.69 926.966 1062.46 896.445 C 1058.75 874.724 1051.96 850.849 1051.75 828.909 C 1042.08 831.406 1031.26 831.25 1021.35 830.9 L 1021.33 827.031 C 1019.98 811.354 1021.19 794.742 1021.39 779.006 C 1032.92 777.016 1045.26 777.287 1056.54 774.313 z"/>
<path transform="translate(0,0)" fill="rgb(222,173,108)" d="M 1055.55 798.039 L 1058.23 799.062 L 1058.38 800.409 L 1058.77 803.799 C 1059.1 806.66 1059.3 808.358 1061.14 810.722 C 1064.19 811.672 1066.49 811.173 1069.32 809.7 C 1072.44 808.076 1073.98 805.076 1076.57 802.873 C 1075.66 807.107 1074.81 811.084 1071.25 813.907 C 1068.52 816.065 1064.4 817.287 1060.97 816.498 C 1058.35 815.895 1056.07 814.316 1054.75 811.949 C 1052.27 807.479 1054 802.475 1055.55 798.039 z"/>
<path transform="translate(0,0)" fill="rgb(236,158,80)" d="M 1055.55 798.039 C 1058.17 793.741 1061.51 788.549 1066.78 787.256 C 1069.6 786.564 1071.13 786.856 1073.74 787.985 C 1076.45 790.734 1077.01 792.581 1076.99 796.326 C 1076.98 798.478 1077.01 800.762 1076.57 802.873 C 1073.98 805.076 1072.44 808.076 1069.32 809.7 C 1066.49 811.173 1064.19 811.672 1061.14 810.722 C 1059.3 808.358 1059.1 806.66 1058.77 803.799 L 1058.38 800.409 L 1058.23 799.062 L 1055.55 798.039 z"/>
<path transform="translate(0,0)" fill="rgb(177,93,97)" d="M 1056.54 774.313 L 1061.91 776.22 L 1062.29 777.773 C 1052.91 786.701 1046.63 790.857 1046.03 804.811 C 1045.84 809.037 1046.12 815.628 1048.92 819.053 C 1050.19 820.599 1052.63 821.935 1054.38 822.823 L 1053.89 823.733 C 1053.44 824.051 1053 824.386 1052.54 824.688 C 1050.27 826.176 1047.74 826.171 1045.13 826.502 C 1043.52 826.706 1042.48 827.048 1041.07 827.83 L 1041.22 828.974 C 1044.45 828.33 1048.46 826.906 1051.62 827.966 L 1051.75 828.909 C 1042.08 831.406 1031.26 831.25 1021.35 830.9 L 1021.33 827.031 C 1019.98 811.354 1021.19 794.742 1021.39 779.006 C 1032.92 777.016 1045.26 777.287 1056.54 774.313 z"/>
<path transform="translate(0,0)" fill="rgb(26,0,29)" d="M 1021.33 827.031 C 1032.15 826.733 1043.09 824.698 1053.89 823.733 C 1053.44 824.051 1053 824.386 1052.54 824.688 C 1050.27 826.176 1047.74 826.171 1045.13 826.502 C 1043.52 826.706 1042.48 827.048 1041.07 827.83 L 1041.22 828.974 C 1044.45 828.33 1048.46 826.906 1051.62 827.966 L 1051.75 828.909 C 1042.08 831.406 1031.26 831.25 1021.35 830.9 L 1021.33 827.031 z"/>
</svg>