<svg version="1.1" xmlns="http://www.w3.org/2000/svg" style="display: block;" viewBox="0 0 2048 2048" width="1024" height="1024">
<defs>
	<linearGradient id="Gradient1" gradientUnits="userSpaceOnUse" x1="1170.09" y1="1604.61" x2="985.873" y2="1595.89">
		<stop class="stop0" offset="0" stop-opacity="1" stop-color="rgb(106,102,99)"/>
		<stop class="stop1" offset="1" stop-opacity="1" stop-color="rgb(89,97,109)"/>
	</linearGradient>
	<linearGradient id="Gradient2" gradientUnits="userSpaceOnUse" x1="1247.89" y1="1614.28" x2="1248.21" y2="1621.91">
		<stop class="stop0" offset="0" stop-opacity="1" stop-color="rgb(79,73,31)"/>
		<stop class="stop1" offset="1" stop-opacity="1" stop-color="rgb(106,97,64)"/>
	</linearGradient>
	<linearGradient id="Gradient3" gradientUnits="userSpaceOnUse" x1="1160.62" y1="1865.03" x2="1085.37" y2="1578.87">
		<stop class="stop0" offset="0" stop-opacity="1" stop-color="rgb(152,146,109)"/>
		<stop class="stop1" offset="1" stop-opacity="1" stop-color="rgb(177,173,130)"/>
	</linearGradient>
</defs>
<path transform="translate(0,0)" fill="rgb(0,0,0)" d="M 0 0 L 123.306 0 L 217.246 0 L 265.393 0 L 281.629 0 L 457.258 0 L 536.141 0 L 615.722 0 L 630.689 0 L 696.927 0 L 712.5 0 L 776.082 0 L 831.927 0 L 852.571 0 L 885.332 0 L 1027.71 0 L 1201.72 0 L 1250.26 0 L 1259.18 0 L 1335.23 0 L 1356.48 0 L 1394.39 0 L 1459.28 0 L 1554.17 0 L 1588.41 0 L 1598.27 0 L 1643.69 0 L 1817.94 0 L 1900.08 0 L 1917.45 0 L 1948.6 0 L 1990.41 0 L 2048 0 L 2048 1029.18 L 2048 1779.51 L 2048 2048 L 997.99 2048 L 909.042 2048 L 653.484 2048 L 0 2048 L 0 1847.51 L 0 1536.12 L 0 1534.56 L 0 1253.35 L 0 1169.23 L 0 0 z"/>
<path transform="translate(0,0)" fill="rgb(248,239,238)" d="M 802.844 1451.21 L 806.626 1445.16 C 807.701 1443.46 807.22 1444.07 809.018 1442.86 L 807.7 1444.15 L 810.924 1444 C 810.303 1447.9 809.026 1451.57 805.956 1454.27 C 804.933 1452.49 804.523 1452.26 802.844 1451.21 z"/>
<path transform="translate(0,0)" fill="rgb(54,74,88)" d="M 794.49 1446.63 C 797.309 1445.9 799.972 1445.07 802.892 1444.89 C 802.15 1446.3 802.371 1445.94 801.298 1447.6 C 799.483 1450.41 796.76 1453.71 793.469 1454.38 C 792.291 1451.59 793.649 1449.46 794.49 1446.63 z"/>
<path transform="translate(0,0)" fill="rgb(87,141,146)" d="M 832.466 1454.21 C 833.334 1460.06 833.316 1465.98 833.444 1471.88 L 824.914 1454.7 C 826.408 1455.5 827.662 1456.41 829.419 1456.42 C 830.765 1456.43 831.555 1455.09 832.466 1454.21 z"/>
<path transform="translate(0,0)" fill="rgb(41,50,57)" d="M 794.49 1446.63 C 796.975 1443 799.572 1436.37 803.17 1434.1 C 805.119 1435.44 804.732 1435.33 805.362 1437.42 C 804.482 1439.9 803.651 1442.37 802.892 1444.89 C 799.972 1445.07 797.309 1445.9 794.49 1446.63 z"/>
<path transform="translate(0,0)" fill="rgb(157,153,113)" d="M 1876.42 1206.23 C 1877.22 1203.41 1877.41 1200.28 1879.88 1198.63 C 1882.35 1200.65 1884.68 1202.77 1887.02 1204.94 C 1885.24 1206.07 1883.45 1207.29 1881.57 1208.24 C 1879.61 1209.24 1878.36 1209.84 1876.25 1209.04 L 1876.42 1206.23 z"/>
<path transform="translate(0,0)" fill="rgb(54,74,88)" d="M 791.76 1795.7 C 797.303 1794.9 802.832 1794.32 808.407 1793.79 C 808.235 1797.06 808.591 1799 806.711 1801.72 C 801.399 1802.37 796.296 1798.3 791.76 1795.7 z"/>
<path transform="translate(0,0)" fill="rgb(32,105,103)" d="M 665.473 863.823 C 677.899 865.131 692.952 872.792 701.905 881.252 C 692.824 879.916 671.494 870.461 665.473 863.823 z"/>
<path transform="translate(0,0)" fill="rgb(87,141,146)" d="M 1770.54 1189.8 C 1772.4 1203.64 1775.76 1218.93 1775.69 1232.87 L 1774.06 1232.01 C 1773.98 1230.58 1774.19 1227.89 1773.56 1226.67 C 1773.2 1228.8 1773.02 1232.96 1772.06 1234.73 L 1768.33 1200.96 L 1769.79 1198.41 C 1769.75 1195.37 1769.88 1192.78 1770.54 1189.8 z"/>
<path transform="translate(0,0)" fill="rgb(224,213,183)" d="M 802.844 1451.21 C 804.523 1452.26 804.933 1452.49 805.956 1454.27 C 803.273 1457.06 800.706 1459.73 797.609 1462.06 C 794.383 1464.32 791.106 1467.02 787.429 1468.48 L 786.972 1467.05 C 788.844 1465.84 790.072 1465.23 791.409 1463.44 C 786.77 1464.94 780.284 1469.1 777.24 1472.93 L 776.934 1475.49 C 778.938 1477.82 782.494 1478.4 785.337 1479.3 C 780.032 1479.14 774.578 1477.93 769.329 1477.11 C 777.425 1470.61 785.118 1463.95 794.201 1458.82 L 802.844 1451.21 z"/>
<path transform="translate(0,0)" fill="rgb(87,141,146)" d="M 318.447 798.604 L 319.608 799.609 C 321.284 808.319 304.772 836.409 300.192 845.829 C 299.022 841.065 297.843 836.414 298.283 831.456 C 299.39 818.989 309.319 806.607 318.447 798.604 z"/>
<path transform="translate(0,0)" fill="rgb(85,113,132)" d="M 526.753 876.909 C 530.265 881.289 532.518 891.399 534.445 896.934 C 524.184 898.528 513.683 899.416 503.361 900.611 C 500.977 900.924 499.247 900.975 496.884 900.512 C 507.14 892.934 517.067 885.205 526.753 876.909 z"/>
<path transform="translate(0,0)" fill="rgb(144,135,99)" d="M 1827.29 1153.4 C 1833.7 1156.23 1840.65 1158.3 1847.27 1160.64 L 1828.61 1188.51 L 1820.38 1201.13 C 1824.13 1185.52 1825.56 1169.33 1827.29 1153.4 z"/>
<path transform="translate(0,0)" fill="rgb(106,173,152)" d="M 1782.12 1444.17 C 1792.14 1444.06 1802.37 1445.51 1812.34 1446.41 C 1804.91 1451.22 1797.34 1455.62 1789.63 1459.96 L 1768.07 1471.39 C 1770.25 1464.19 1770.76 1453.58 1774.85 1447.41 C 1776.77 1444.52 1778.98 1444.79 1782.12 1444.17 z"/>
<path transform="translate(0,0)" fill="rgb(105,107,108)" d="M 363.997 884.936 C 369.386 889.772 374.372 894.636 379.116 900.109 C 365.82 908.425 353.34 917.967 339.783 925.884 L 328.916 931.37 C 343.059 918.191 354.443 901.634 363.997 884.936 z"/>
<path transform="translate(0,0)" fill="rgb(85,113,132)" d="M 318.426 820.614 C 321.39 823.364 323.433 832.256 325.65 836.365 C 330.73 845.779 336.779 854.277 343.361 862.688 L 331.244 857.87 C 322.098 854.034 313.188 851.393 303.45 849.493 C 307.452 839.51 313.266 830.046 318.426 820.614 z"/>
<path transform="translate(0,0)" fill="rgb(85,113,132)" d="M 534.53 835.061 C 534.669 835.046 534.81 834.995 534.949 835.016 C 540.671 835.913 558.97 866.851 562.113 872.192 C 557.355 870.309 552.681 868.666 547.768 867.22 C 532.058 862.567 522.377 852.567 511.621 840.827 C 519.418 839.756 526.995 837.257 534.53 835.061 z"/>
<path transform="translate(0,0)" fill="rgb(106,173,152)" d="M 715.212 952.329 C 720.736 952.636 726.181 953.598 731.643 954.442 C 736.185 960.168 744.074 969.405 745.61 976.432 C 746.191 979.091 745.812 979.927 744.302 982.094 C 740.721 983.716 737.513 982.648 733.777 981.95 L 717.366 979.632 C 712.02 970.704 704.686 962.448 698.166 954.329 C 703.845 953.92 709.557 953.029 715.212 952.329 z"/>
<path transform="translate(0,0)" fill="rgb(106,173,152)" d="M 644.861 1013.03 C 647.238 1016.02 649.133 1019.66 650.933 1023.02 C 654.618 1029.91 658.769 1040.48 656.059 1048.19 C 654.985 1051.25 652.974 1052.98 649.996 1054.1 C 644.058 1056.34 637.228 1052.53 631.9 1050.23 C 627.834 1047.84 623.944 1044.98 620.02 1042.35 A 294.359 294.359 0 0 1 616.884 1015.52 C 621.215 1017.39 625.78 1019.68 630.573 1019.82 C 636.764 1020 640.486 1017.02 644.861 1013.03 z"/>
<path transform="translate(0,0)" fill="rgb(105,107,108)" d="M 380.366 906.079 C 387.386 905.754 393.726 907.168 400.509 908.722 C 383.251 927.323 366.961 940.109 341.453 944.013 C 333.774 943.494 327.171 941.268 320.045 938.587 C 328.575 934.452 337.404 931.273 345.733 926.653 C 357.482 920.136 368.507 912.437 380.366 906.079 z"/>
<path transform="translate(0,0)" fill="rgb(106,173,152)" d="M 675.546 987.704 L 675.712 986.411 C 677.487 971.349 669.497 959.179 670.177 954.499 C 676.047 952.445 687.626 955.647 693.9 956.582 C 696.318 959.008 699.089 961.411 701.166 964.129 C 706.425 970.782 716.413 982.099 716.078 991.103 C 714.759 993.379 714.538 993.812 711.772 994.465 C 700.23 997.191 686.849 988.393 675.546 987.704 z"/>
<path transform="translate(0,0)" fill="rgb(105,107,108)" d="M 1196.32 1685.11 C 1198.68 1685.14 1201.01 1685.53 1203.29 1686.13 C 1214.28 1689.04 1220.27 1700.28 1225.7 1709.29 A 80.9145 80.9145 0 0 0 1222.51 1707.49 C 1217.7 1704.94 1210.94 1701.45 1205.43 1703.8 C 1198.61 1706.71 1195.74 1719.02 1193.27 1725.53 C 1192.76 1725.93 1192.27 1726.38 1191.73 1726.75 C 1184.12 1731.88 1169.68 1728.17 1161.26 1726.81 C 1168.74 1718.49 1171.38 1713.4 1172 1701.99 C 1179.8 1695.39 1186.81 1689.11 1196.32 1685.11 z"/>
<path transform="translate(0,0)" fill="rgb(106,173,152)" d="M 636.763 979.183 C 645.356 984.488 656.312 992.044 666.806 991.949 C 670.73 991.913 672.844 990.341 675.546 987.704 C 681.307 994.476 686.522 999.552 689.436 1008.35 C 690.873 1012.69 691.558 1018.36 688.88 1022.38 C 686.995 1025.22 684.027 1026.67 680.721 1027.1 C 672.957 1028.11 657.626 1022.66 651.2 1018.02 C 645.802 1008.26 643.318 992.2 636.763 979.183 z"/>
<path transform="translate(0,0)" fill="rgb(105,107,108)" d="M 791.76 1795.7 C 785.641 1795.91 781.121 1796.95 775.685 1799.88 C 764.79 1805.75 755.474 1817.6 752.131 1829.52 C 752.028 1829.89 751.933 1830.26 751.834 1830.62 L 750.294 1830.91 C 747.965 1827.88 748.137 1824.83 748.395 1821.09 C 749.543 1804.45 755.822 1789.7 768.632 1778.72 C 779.795 1769.16 789.184 1768.98 803.061 1770.15 C 807.358 1778.3 808.241 1784.77 808.407 1793.79 C 802.832 1794.32 797.303 1794.9 791.76 1795.7 z"/>
<path transform="translate(0,0)" fill="rgb(157,153,113)" d="M 754.507 1833.63 C 759.205 1822.44 765.856 1810.89 776.313 1804.13 C 792.452 1793.69 793.052 1807.75 803.979 1809.99 C 807.304 1809.45 809.43 1807.57 812.043 1805.62 L 814.018 1805.08 C 811.542 1816.26 810.42 1827.03 810.06 1838.47 C 799.833 1839.21 761.861 1838.38 754.507 1833.63 z"/>
<path transform="translate(0,0)" fill="rgb(106,173,152)" d="M 795.967 967.846 C 796.247 967.872 796.528 967.887 796.806 967.923 C 814.793 970.287 877.578 990.769 887.877 1004.26 C 891.049 1008.41 891.269 1011.61 890.482 1016.6 C 889.224 1017.07 888.862 1017.24 887.686 1017.57 C 875.686 1020.96 833.303 1007.87 822.194 1001.52 C 816.749 987.091 808.718 976.552 795.967 967.846 z"/>
<path transform="translate(0,0)" fill="rgb(106,173,152)" d="M 838.009 1013.81 C 847.848 1015.19 876.36 1021.51 884.606 1025.54 C 891.253 1028.78 897.298 1034.26 902.596 1039.36 C 910.324 1046.79 925.416 1060.96 925.657 1072.36 L 924.704 1072.66 C 907.398 1078.27 877.674 1059.34 862.189 1051.72 C 859.72 1034.23 851.78 1024.18 838.009 1013.81 z"/>
<path transform="translate(0,0)" fill="rgb(106,173,152)" d="M 621.29 1048.68 C 625.248 1051.25 629.424 1053.88 633.701 1055.89 C 644.025 1060.74 651.677 1058.23 661.75 1054.64 C 672.836 1066.16 683.375 1085.32 686.183 1101.13 C 683.163 1103.56 680.429 1106.06 676.441 1106.58 C 660.133 1108.72 639.934 1091.48 627.615 1082.51 C 624.998 1071.37 623.288 1059.95 621.29 1048.68 z"/>
<path transform="translate(0,0)" fill="rgb(85,113,132)" d="M 1119.32 1435.84 C 1130.82 1436.06 1142.28 1436.89 1153.8 1437.03 C 1165.72 1450.55 1180.2 1462.55 1193.47 1474.77 C 1195.27 1490.06 1194 1506.2 1198.76 1520.92 C 1181.67 1510.41 1135.1 1453.96 1119.32 1435.84 z"/>
<path transform="translate(0,0)" fill="rgb(106,173,152)" d="M 736.797 954.54 C 754.141 959.338 774.355 959.651 790.451 967.981 C 801.091 973.487 813.258 986.466 816.571 998.307 C 817.843 1002.85 816.285 1006.24 814.077 1010.11 C 812.105 1010.76 810.102 1011.49 808.012 1011.65 C 791.844 1012.95 759.973 995.395 748.64 984.651 C 749.147 983.549 749.661 982.547 749.95 981.349 C 751.944 973.093 741.284 960.774 736.797 954.54 z"/>
<path transform="translate(0,0)" fill="rgb(85,113,132)" d="M 1161.06 1436.38 C 1173.99 1436.69 1187.08 1436.02 1200.02 1435.74 C 1210.05 1453.11 1224.56 1466.42 1238.6 1480.49 C 1260.05 1501.99 1282.59 1522.49 1303.68 1544.29 C 1297.68 1542.83 1290.7 1537.35 1285.3 1534.25 C 1239.12 1507.69 1198.46 1474.16 1161.06 1436.38 z"/>
<path transform="translate(0,0)" fill="rgb(106,173,152)" d="M 1663.53 1370.22 A 54.2726 54.2726 0 0 1 1666.09 1370.19 C 1698.22 1370.5 1721.44 1373.64 1744.71 1398.31 C 1748.85 1402.7 1752.95 1407.57 1752.81 1413.92 C 1752.35 1414.3 1752.02 1415.01 1751.43 1415.06 C 1748.69 1415.26 1730.08 1401.26 1720.54 1400.91 L 1719.62 1402.1 C 1722.01 1405.24 1726.16 1406.26 1729.72 1407.63 C 1737.62 1411.73 1744.49 1416.42 1751.23 1422.24 L 1747.72 1433.61 C 1725.85 1426.99 1707 1416.05 1689.08 1401.95 C 1682.49 1396.77 1662.64 1379.99 1661.65 1371.8 L 1663.53 1370.22 z"/>
<path transform="translate(0,0)" fill="rgb(106,173,152)" d="M 1853.82 1366.34 C 1860.15 1366.01 1866.24 1366.17 1872.57 1366.6 C 1872.13 1367.59 1871.66 1368.57 1871.16 1369.54 C 1853.68 1403.38 1812.01 1428.44 1776.6 1439.28 C 1779.01 1431.14 1780.68 1422.67 1782.64 1414.4 C 1791.39 1407.71 1814.4 1405.73 1819.56 1398.77 L 1819.37 1397.53 C 1806.77 1394.89 1794.03 1408.91 1783.54 1408.02 L 1782.9 1406.58 C 1783.66 1404.28 1784.68 1402.64 1786.17 1400.71 C 1804.61 1376.73 1825.09 1370.08 1853.82 1366.34 z"/>
<path transform="translate(0,0)" fill="rgb(106,173,152)" d="M 675.177 1066.79 C 688.726 1074.31 705.395 1083.91 721.409 1083.72 C 728.587 1083.63 733.212 1081.57 738.265 1076.57 C 752.239 1092.36 766.988 1115.42 769.651 1136.74 C 769.311 1137.06 768.992 1137.4 768.63 1137.69 C 763.849 1141.54 757.288 1142.03 751.426 1141.27 C 730.342 1138.52 702.864 1121.04 689.882 1104.51 C 689.427 1090.04 682.286 1079.06 675.177 1066.79 z"/>
<path transform="translate(0,0)" fill="rgb(106,173,152)" d="M 802.389 1046.65 L 815.317 1051.53 C 828.211 1056.34 845.385 1063.82 858.873 1057.66 C 879.808 1076.59 903.268 1103.91 906.825 1133.16 C 890.102 1137.77 843.707 1108.87 825.137 1102.58 A 100.149 100.149 0 0 0 826.275 1095.91 C 828.725 1077.26 813.119 1060.34 802.389 1046.65 z"/>
<path transform="translate(0,0)" fill="rgb(106,173,152)" d="M 630.124 1090.43 C 641.42 1097.32 652.733 1106.86 665.763 1110.24 C 674.241 1112.44 679.856 1110.97 687.283 1106.75 C 703.519 1128.93 720.242 1157.77 723.117 1185.63 C 722.277 1188.05 721.765 1188.87 719.659 1190.35 C 714.144 1191.21 709.629 1189.37 704.746 1186.89 C 694.528 1181.69 684.717 1174.66 675.6 1167.7 C 643.953 1143.54 641.768 1126.72 630.124 1090.43 z"/>
<path transform="translate(0,0)" fill="rgb(85,113,132)" d="M 637.779 736.338 C 638.09 738.824 636.446 740.891 634.945 742.795 C 610.132 774.264 566.806 790.908 527.914 794.915 C 538.005 805.279 553.04 816.621 564.35 827.559 L 551.803 827.902 C 542.623 819.733 532.82 812.521 522.577 805.755 C 516.646 802.296 510.556 799.092 504.519 795.82 C 513.912 792.109 523.022 787.825 532.493 784.267 C 534.179 784.75 535.56 784.99 537.313 785.03 L 537.954 783.507 C 537.734 783.113 537.551 782.696 537.295 782.325 C 531.798 774.339 508.134 772.239 498.5 770.381 C 520.391 764.334 541.191 753.875 563.284 748.745 C 587.727 743.07 613.195 742.148 637.779 736.338 z"/>
<path transform="translate(0,0)" fill="rgb(106,173,152)" d="M 1193.47 1474.77 C 1208.34 1487.24 1224.23 1498.5 1238.96 1511.05 C 1254.77 1524.52 1268.69 1540.66 1283.83 1554.96 C 1298.96 1569.26 1315.35 1582 1330.2 1596.67 C 1288.96 1583.73 1253.12 1567.73 1219.32 1540.22 C 1212.53 1534.69 1203.88 1528.04 1198.76 1520.92 C 1194 1506.2 1195.27 1490.06 1193.47 1474.77 z"/>
<path transform="translate(0,0)" fill="rgb(248,239,211)" d="M 1319.98 1303.71 C 1359.95 1314.29 1402.1 1316.29 1443.23 1313.91 C 1441.8 1327.25 1440.04 1340.7 1439.3 1354.09 C 1438.96 1360.24 1440.37 1378.3 1437.85 1382.83 C 1397.43 1365.45 1356.23 1329.19 1319.98 1303.71 z"/>
<path transform="translate(0,0)" fill="rgb(106,173,152)" d="M 657.396 1157.62 C 661.599 1160.44 665.314 1164.85 669.203 1168.19 C 680.429 1177.83 701.13 1195.31 716.569 1195.78 C 721.203 1195.92 723.19 1194.01 726.279 1190.94 C 743.634 1218.43 759.374 1249.33 757.946 1282.58 C 756.613 1285.38 756.486 1286.03 753.897 1287.65 C 752.369 1287.7 751.072 1287.63 749.628 1287.06 C 742.763 1284.35 736.737 1277.68 731.665 1272.48 C 701.446 1241.5 673.212 1198 657.396 1157.62 z"/>
<path transform="translate(0,0)" fill="rgb(87,141,146)" d="M 1101.14 1434.85 A 190.234 190.234 0 0 1 1106.09 1434.88 C 1108.08 1434.92 1110.17 1434.67 1111.9 1435.81 C 1119.09 1440.57 1131.07 1457.72 1137.37 1465.12 C 1149.04 1478.82 1162.13 1491.46 1173.41 1505.45 C 1179.31 1512.77 1184.25 1520.82 1189.96 1528.28 C 1206.01 1549.27 1222.74 1570.34 1241.05 1589.39 C 1238.17 1588.93 1235.33 1587.81 1232.59 1586.8 C 1222.72 1583.17 1213.13 1578.23 1204.27 1572.57 C 1186.56 1561.26 1140.38 1525.28 1130.55 1508.32 C 1125.08 1498.87 1122.01 1487.18 1118.3 1476.92 A 508.174 508.174 0 0 0 1101.14 1434.85 z"/>
<path transform="translate(0,0)" fill="rgb(106,173,152)" d="M 1003.86 1426.63 C 1018.62 1430.61 1035.36 1430.29 1050.59 1432.13 A 382.704 382.704 0 0 1 1115.39 1600.41 C 1114.89 1602.17 1114.5 1604.12 1113.7 1605.75 C 1096.7 1558.82 1066.25 1514.47 1037.47 1474.14 C 1026.26 1458.44 1013.75 1443.19 1003.86 1426.63 z"/>
<path transform="translate(0,0)" fill="rgb(106,173,152)" d="M 1645.95 1288.49 C 1646.3 1288.56 1646.65 1288.62 1647 1288.7 C 1682.45 1296.17 1727.8 1316.19 1747.84 1347.41 C 1759.19 1365.08 1762.9 1378.71 1758.36 1399.56 C 1750.36 1385.63 1741.97 1368.54 1729.02 1358.53 C 1726.98 1356.96 1725.68 1356 1723.04 1356.25 L 1722.27 1357.87 C 1731.83 1367.87 1754.18 1392.06 1756.84 1405.23 L 1755.96 1405.68 C 1744.78 1389.13 1731.85 1381.5 1715.08 1371.7 C 1679.05 1350.65 1658.68 1329.03 1645.95 1288.49 z"/>
<path transform="translate(0,0)" fill="rgb(144,135,99)" d="M 302.243 856.109 C 323.772 854.853 345.482 869.284 361.395 882.222 C 349.23 900.483 335.876 923.369 316.404 934.647 C 312.958 936.644 309.021 939.016 305.038 937.958 C 303.404 926.175 326.664 910.786 331.673 900.243 C 333.592 896.203 334.846 889.597 333.472 885.336 L 332.224 885.579 L 331.698 890.535 C 325.824 905.609 315.227 912.701 306.047 925.095 C 295.561 939.252 294.487 956.238 297.058 973.044 C 291.616 962.459 283.616 953.694 277.246 943.704 C 268.497 929.983 266.438 916.317 270.119 900.598 A 72.7153 72.7153 0 0 1 302.243 856.109 z"/>
<path transform="translate(0,0)" fill="rgb(106,173,152)" d="M 1895.81 1258.06 C 1896.68 1258.68 1896.11 1258.19 1896.98 1259.97 C 1889.74 1292.16 1862.78 1338.5 1835.36 1357.74 C 1816.7 1370.84 1800.92 1377.01 1786.13 1395.35 L 1784.93 1393.89 C 1784.88 1376.88 1789.33 1355.8 1796.73 1340.42 C 1816.22 1299.93 1854.4 1272.72 1895.81 1258.06 z"/>
<path transform="translate(0,0)" fill="rgb(106,173,152)" d="M 769.442 1003.66 C 782.065 1007.2 795.243 1018.38 808.983 1015.73 C 815.033 1014.56 817.76 1010.97 820.957 1006.04 C 822.731 1006.96 824.368 1007.94 826.039 1009.04 C 837.079 1016.33 856.666 1032.16 858.396 1046.34 C 858.712 1048.92 858.176 1051.29 856.331 1053.23 C 854.906 1054.72 852.783 1055.45 850.778 1055.64 C 835.839 1057.04 797.428 1041 786.172 1031.76 C 796.766 1051.4 813.165 1062.72 822.136 1085.86 C 822.961 1089.93 823.547 1095.15 821.418 1098.92 C 819.742 1101.89 816.694 1103.43 813.451 1104.04 C 796.841 1107.2 754.12 1084.02 740.047 1074.75 C 736.581 1058.53 729.664 1046.86 719.464 1033.98 C 726.978 1037.7 734.74 1041.14 742.647 1043.93 C 752.639 1047.45 766.533 1052.42 776.623 1047.19 C 783.302 1043.73 785.4 1038.03 787.736 1031.38 C 783.102 1020.87 776.552 1012.55 769.442 1003.66 z"/>
<path transform="translate(0,0)" fill="rgb(106,173,152)" d="M 717.422 984.723 C 727.752 985.327 738.286 987.511 748.531 989.043 C 759.333 997.382 773.52 1011.62 779.613 1023.9 C 781.577 1027.86 782.9 1032.74 781.138 1037.02 C 779.84 1040.16 777.104 1042.41 773.951 1043.57 C 756.352 1050.05 716.209 1027.58 699.808 1019.54 C 712.982 1030.89 722.322 1042.49 730.61 1057.83 C 731.897 1060.88 733.386 1064.21 733.979 1067.47 C 734.522 1070.45 734.101 1073.83 732.035 1076.19 C 729.469 1079.1 725.129 1079.66 721.472 1079.59 C 701.525 1079.19 674.827 1065.14 661.355 1050.79 C 660.965 1040.95 658.777 1032.99 655.528 1023.74 C 663.732 1028.06 676.077 1033.48 685.296 1030.2 C 688.526 1029.06 691.061 1026.75 692.443 1023.6 C 696.55 1014.26 691.071 1003.5 687.561 994.904 C 699.448 998.837 707.124 998.84 719.248 996.599 C 718.875 992.621 718.081 988.664 717.422 984.723 z"/>
<path transform="translate(0,0)" fill="rgb(248,239,211)" d="M 980.242 1422.57 L 997.005 1425.27 C 1006.38 1446.05 1022.51 1464.24 1035.42 1482.89 C 1062.36 1521.79 1087.88 1562.12 1105.78 1606.06 C 1099.73 1608.62 1086.53 1605.24 1079.71 1604.59 C 1075.9 1603.04 1069.78 1603.05 1065.59 1602.49 C 1057.2 1601.02 1048.43 1600.41 1039.95 1599.39 L 1024 1597.36 C 1022.18 1598.75 1020.8 1599.96 1018.56 1600.56 C 1013.48 1599.64 1008.64 1599.15 1003.5 1598.89 L 1005.48 1595.86 C 1014.18 1581.12 1021.26 1566.14 1028.68 1550.77 C 1031.48 1544.96 1035.47 1538.99 1037.08 1532.74 A 16.4382 16.4382 0 0 0 1037.05 1524.3 C 1032.61 1507.3 1015.62 1493.36 1006.55 1478.62 C 995.867 1461.25 987.22 1441.72 980.242 1422.57 z"/>
<path transform="translate(0,0)" fill="rgb(75,68,36)" d="M 1005.48 1595.86 C 1011.72 1596.11 1017.81 1596.54 1024 1597.36 C 1022.18 1598.75 1020.8 1599.96 1018.56 1600.56 C 1013.48 1599.64 1008.64 1599.15 1003.5 1598.89 L 1005.48 1595.86 z"/>
<path transform="translate(0,0)" fill="rgb(106,173,152)" d="M 1643.77 1170.46 C 1658.6 1180.19 1674.51 1195.7 1687.88 1207.76 A 229.919 229.919 0 0 1 1764.63 1369.15 C 1760.67 1365.77 1750.72 1340.73 1743.35 1332.42 C 1730.31 1317.73 1715.01 1312.95 1700.56 1301.48 C 1679.44 1284.71 1657.48 1234.67 1650.28 1208.32 C 1646.88 1195.89 1645.22 1183.23 1643.77 1170.46 z"/>
<path transform="translate(0,0)" fill="rgb(106,173,152)" d="M 1878.77 1130.88 C 1879 1131.29 1879.28 1131.68 1879.45 1132.11 C 1880.95 1135.91 1880.27 1144.01 1880.16 1148.18 C 1879.25 1184.81 1868.58 1219.34 1853.93 1252.59 C 1850.57 1260.21 1847.3 1268.38 1842.73 1275.35 C 1837.6 1283.17 1830.24 1289.22 1823.5 1295.57 C 1808.29 1309.91 1798.46 1324.7 1790.16 1343.85 C 1788.03 1340.6 1788.81 1316.92 1789.03 1311.76 C 1791.45 1256.57 1838.37 1168.34 1878.77 1130.88 z"/>
<path transform="translate(0,0)" fill="rgb(248,239,211)" d="M 1134.57 1519.86 C 1152.96 1543.06 1189.39 1571.49 1216.29 1584.83 C 1229.33 1591.3 1243.2 1595.79 1256.93 1600.55 C 1248.63 1589.49 1238.26 1579.92 1229.21 1569.46 C 1215.83 1553.98 1203.18 1537.67 1190.45 1521.65 C 1205.98 1534.97 1220.21 1548.73 1237.09 1560.49 C 1263.75 1579.05 1290.64 1590.36 1321.54 1599.46 C 1327.11 1601.11 1335.66 1604.59 1341.43 1603.57 L 1341.48 1602.03 C 1330.52 1584.57 1304.78 1566.96 1288.93 1553.28 C 1277.02 1543 1265.43 1531.63 1254.42 1520.39 C 1271.3 1531.7 1289.04 1541.25 1306.26 1551.97 C 1316.83 1558.56 1326.86 1566 1337.41 1572.62 C 1353.72 1582.86 1371.26 1591.68 1388.79 1599.61 C 1380.07 1602.17 1367.06 1603.33 1359.29 1607.56 C 1344.31 1610.47 1329.46 1613.8 1314.24 1615.22 C 1285.09 1618.96 1253.78 1619.28 1224.43 1617.97 C 1210.32 1617.34 1196.22 1615.63 1182.1 1615.27 L 1179.3 1618.56 A 486.233 486.233 0 0 1 1159.17 1615.49 L 1158.28 1613.07 C 1151.13 1581.77 1144.38 1550.46 1134.57 1519.86 z"/>
<path transform="translate(0,0)" fill="rgb(75,68,36)" d="M 1158.28 1613.07 C 1166.27 1613.54 1174.16 1614.33 1182.1 1615.27 L 1179.3 1618.56 A 486.233 486.233 0 0 1 1159.17 1615.49 L 1158.28 1613.07 z"/>
<path transform="translate(0,0)" fill="rgb(106,173,152)" d="M 751.508 1086.81 C 767.136 1094.73 784.465 1104.92 801.649 1108.55 C 810.391 1110.39 815.312 1109.82 822.763 1104.97 C 828.816 1111.17 834.762 1117.41 840.139 1124.22 C 847.839 1133.97 871.006 1171.33 869.701 1182.82 C 868.718 1184.29 868.536 1185.16 866.791 1185.81 C 848.122 1192.77 787.969 1147.45 770.855 1139.16 C 770.453 1138.96 770.045 1138.78 769.639 1138.59 C 786.582 1153.93 799.01 1174.61 807.405 1195.75 C 811.355 1206.92 815.759 1218.81 817.23 1230.61 C 817.798 1235.17 818.023 1239.39 815.065 1243.16 C 813.389 1244.07 812.328 1244.51 810.369 1244.56 C 790.732 1244.97 743.152 1202.79 727.21 1188.16 C 724.862 1164.81 715.386 1145.57 705.127 1124.84 A 175.731 175.731 0 0 0 730.63 1139.54 C 740.23 1144.01 755.722 1149.39 766.014 1145.07 C 768.984 1143.82 770.674 1141.76 771.714 1138.76 C 776.618 1124.63 758.078 1099.12 751.508 1086.81 z"/>
<path transform="translate(0,0)" fill="rgb(106,173,152)" d="M 1025.29 1157.86 C 1037.95 1159.03 1054.78 1166.55 1067.29 1170.23 C 1083.05 1174.87 1099.05 1178.75 1114.35 1184.79 C 1149.64 1198.74 1182.18 1217.42 1214.2 1237.55 C 1234.63 1250.39 1255.17 1263.16 1274.9 1277.06 C 1312.98 1303.88 1349.31 1332.91 1387.02 1360.24 C 1379.85 1358.55 1371.81 1353.58 1365.06 1350.43 A 2947.95 2947.95 0 0 0 1322.02 1330.85 C 1245.14 1296.78 1167.76 1257.25 1087.61 1231.37 C 1074.06 1196.78 1056.38 1177.68 1025.29 1157.86 z"/>
<path transform="translate(0,0)" fill="rgb(106,173,152)" d="M 1768.33 1200.96 C 1750.71 1113.06 1781.99 1028.1 1787.28 940.861 C 1815.27 1006.18 1827.1 1072.54 1822.87 1143.42 C 1821.65 1163.86 1819.68 1184.6 1814.92 1204.53 C 1811.04 1220.79 1804.01 1236.35 1798.35 1252.04 C 1794.06 1263.95 1790.85 1276.16 1787.67 1288.39 C 1786.9 1274.41 1777.72 1190.42 1772.32 1183.73 L 1771 1183.81 C 1769.73 1186.11 1770.28 1187.28 1770.54 1189.8 C 1769.88 1192.78 1769.75 1195.37 1769.79 1198.41 L 1768.33 1200.96 z"/>
<path transform="translate(0,0)" fill="rgb(106,173,152)" d="M 1670.12 1010.4 C 1671.52 1011.24 1672.6 1012 1673.71 1013.22 C 1686.28 1026.93 1695.95 1044.2 1705.93 1059.89 C 1730.11 1097.88 1751.49 1142.17 1760.03 1186.71 C 1765.03 1212.82 1766.26 1239.42 1767.24 1265.93 C 1768.22 1292.33 1768.73 1319.01 1767.48 1345.41 L 1767.32 1345.35 C 1764.21 1341.83 1761.46 1322.28 1759.82 1315.88 C 1756.69 1303.67 1753.23 1291.37 1748.26 1279.76 C 1741.46 1263.85 1732.38 1249.52 1721.48 1236.13 C 1714.5 1227.56 1706.57 1219 1700.9 1209.48 C 1685.15 1182.99 1673.97 1093.47 1671.47 1060.89 C 1670.18 1044.05 1669.97 1027.28 1670.12 1010.4 z"/>
<path transform="translate(0,0)" fill="rgb(248,239,211)" d="M 814.369 1449.33 C 818.653 1457.89 822.553 1470.67 830.072 1476.65 C 832.58 1475.36 831.389 1472.56 834.332 1473.68 C 834.767 1473.84 836.434 1474.82 836.892 1475.09 C 838.487 1473.76 838.463 1473.57 838.602 1471.55 C 838.987 1465.91 837.463 1459.1 836.78 1453.44 C 852.077 1477.24 873.906 1497.66 894.989 1516.47 C 907.071 1527.24 922.691 1538.62 931.312 1552.38 C 937.457 1562.2 940.792 1574.8 943.041 1586.04 C 925.531 1584.68 908.411 1579.65 891.011 1577.33 C 880.786 1575.22 870.211 1573.93 859.889 1572.3 C 845.318 1569.04 830.032 1567.15 815.24 1564.95 A 2732.29 2732.29 0 0 0 733.819 1553.95 C 734.379 1551.77 734.605 1549.18 736.089 1547.46 C 741.273 1541.46 764.558 1533.38 775.796 1521.49 C 766.437 1520.01 758.008 1518.53 749.087 1515.17 L 748.167 1513.13 C 760.853 1512.83 770.509 1510.9 781.844 1505.05 C 776.495 1500.16 771.167 1495.62 765.26 1491.42 C 769.157 1490.14 773.498 1489.74 777.544 1489.07 C 782.188 1487.95 786.187 1486.98 789.772 1483.66 C 791.312 1482.24 792.633 1481.48 792.76 1479.36 C 790.658 1479.52 788.756 1479.68 786.65 1479.47 C 786.211 1479.43 785.775 1479.36 785.337 1479.3 C 782.494 1478.4 778.938 1477.82 776.934 1475.49 L 777.24 1472.93 C 780.284 1469.1 786.77 1464.94 791.409 1463.44 C 790.072 1465.23 788.844 1465.84 786.972 1467.05 L 787.429 1468.48 L 787.943 1469.57 C 798.702 1467.34 808.22 1457.99 814.369 1449.33 z"/>
<path transform="translate(0,0)" fill="rgb(144,135,99)" d="M 1657.95 1471.39 C 1660.93 1473.58 1669.29 1467.47 1672.34 1465.87 C 1693.3 1454.83 1715.26 1453.3 1738.59 1454.31 C 1712.99 1511.04 1666.44 1553.11 1608.64 1575.13 C 1571.57 1589.25 1537.01 1590.77 1498.7 1581.25 C 1511.4 1566.39 1523.96 1551.28 1538.62 1538.27 C 1542.66 1534.68 1570.08 1515.14 1570.96 1513.56 C 1591.49 1495.23 1631.94 1482.71 1657.95 1471.39 z"/>
<path transform="translate(0,0)" fill="rgb(106,173,152)" d="M 887.141 999.506 C 903.639 1003.34 938.762 1027.1 955.808 1036.35 C 973 1045.67 990.973 1053.62 1008.4 1062.51 C 1042.6 1079.93 1076.85 1098.83 1109.15 1119.57 C 1133.29 1135.08 1157.93 1151.27 1181.08 1168.2 C 1202.18 1183.64 1222.59 1200.8 1245.01 1214.26 C 1265.65 1226.65 1287.13 1237.26 1308.67 1247.97 C 1353.79 1270.41 1398.75 1290.01 1445.72 1308.24 C 1440.41 1308.73 1435.07 1308.87 1429.75 1309.11 C 1402.34 1310.98 1341.5 1308.13 1316.32 1297.82 C 1300.36 1291.28 1279.56 1272.68 1264.36 1262.67 C 1216.27 1230.99 1167.86 1200.37 1114.16 1179 C 1108.62 1158.16 1090.65 1137.71 1074.17 1124.48 C 1069.81 1120.98 1064.65 1118.66 1060.37 1115.09 C 1060.39 1114.61 1060.44 1114.13 1060.44 1113.64 C 1060.42 1108.69 1052.21 1101.53 1048.87 1098.11 C 1023.08 1071.79 986.913 1055.31 952.277 1043.59 C 938.081 1038.78 896.667 1030.35 887.851 1021.28 L 888.716 1020.56 L 895.294 1021.77 C 895.445 1013.49 893.503 1006.75 888.042 1000.52 L 887.141 999.506 z"/>
<path transform="translate(0,0)" fill="url(#Gradient1)" d="M 1055.51 1432.25 C 1068.61 1433.27 1081.77 1433.68 1094.9 1434.23 A 946.711 946.711 0 0 1 1133.87 1538.65 C 1140.56 1560.39 1173.32 1698.34 1166.48 1714.33 C 1161.31 1726.44 1144.19 1738.01 1131.99 1742.15 C 1112.39 1748.79 1089.67 1749.09 1069.11 1750.03 C 1057.02 1750.58 1042.3 1749.89 1031.06 1754.82 C 1023.86 1757.98 1018.05 1764.4 1012.53 1769.83 C 1016.03 1755.13 1021.48 1741.06 1034.89 1732.5 C 1062.93 1714.63 1091.55 1733.87 1116.3 1697.25 L 1115.15 1697.95 C 1107.77 1702.55 1100.96 1709.44 1092.94 1712.69 C 1072.79 1720.86 1052.12 1716.67 1031.53 1727.65 C 1017.02 1725.24 1004.11 1724.94 991.592 1734.05 C 986.048 1738.08 980.372 1743.72 976.935 1749.66 C 978.834 1733.6 983.599 1720.01 996.76 1709.45 C 999.292 1707.42 1001.99 1705.74 1004.8 1704.13 C 1023.65 1703.01 1038.18 1710.43 1056.21 1713.8 C 1047.46 1708.51 1037.97 1704.88 1028.46 1701.21 C 1032.07 1699.82 1036.04 1698.04 1039.88 1697.55 C 1065.15 1694.33 1108.05 1708.56 1121.77 1678.36 C 1132.23 1655.36 1120.78 1627.97 1113.7 1605.75 C 1114.5 1604.12 1114.89 1602.17 1115.39 1600.41 L 1116.92 1601.05 C 1123.27 1586.63 1100.98 1522.25 1094.23 1504.98 C 1084.3 1479.58 1070.88 1454.77 1055.51 1432.25 z"/>
<path transform="translate(0,0)" fill="rgb(85,113,132)" d="M 577.021 602.006 C 577.175 619.626 555.694 664.284 548.125 681.764 C 536.484 687.893 482.838 711.639 478.807 718.793 C 479.081 718.865 479.347 718.975 479.628 719.008 C 488.209 720.033 620.804 649.035 638.489 638.359 C 651.69 630.391 663.835 621.418 675.932 611.899 C 658.366 662.115 631.916 705.379 584.085 731.598 C 561.815 744.11 505.068 767.967 480.025 769.315 C 481.081 768.869 482.143 768.435 483.185 767.956 C 490.595 764.555 510.508 756.026 513.539 748.022 L 512.508 746.232 C 507.442 744.859 502.068 745.771 496.863 745.684 C 480.62 745.414 466.471 743.259 450.232 746.087 C 459.012 737.609 466.535 728.249 474.243 718.815 C 458.17 726.305 441.894 732.913 424.175 735.44 C 409.148 737.583 400.988 734.79 385.899 741.47 C 412.377 722.349 439.84 704.112 467.141 686.18 C 505.689 660.862 545.158 635.762 577.021 602.006 z"/>
<path transform="translate(0,0)" fill="rgb(106,173,152)" d="M 582.498 1252.34 C 610.689 1313.28 659.809 1355.99 721.285 1381.7 C 739.841 1389.46 766.819 1394.22 781.52 1407.47 C 788.332 1413.61 794.058 1421.61 799.857 1428.71 C 794.543 1440.69 787.712 1452.39 779.175 1462.37 C 774.598 1467.72 762.969 1473.22 761.094 1478.92 C 757.56 1481.76 752.17 1482.84 747.875 1484.21 C 741.992 1486.77 735.487 1503.38 731.673 1509.22 C 729.625 1512.36 726.878 1515.25 724.387 1518.05 C 712.182 1531.76 698.326 1542.1 682.088 1550.62 C 686.768 1528.18 686.429 1506.58 683.694 1483.91 A 239.253 239.253 0 0 0 659.909 1405.87 C 646.758 1380.24 629.945 1356.07 614.394 1331.83 C 607.05 1320.38 598.69 1308.88 593.264 1296.39 C 587.223 1282.49 583.861 1267.39 582.498 1252.34 z"/>
<path transform="translate(0,0)" fill="rgb(106,173,152)" d="M 790.812 1266.81 C 799.21 1270.54 813.76 1284.11 822.549 1290.09 C 854.279 1311.68 898.179 1335.47 935.287 1345.15 C 934.011 1340.76 932.482 1336.44 931.043 1332.11 C 959.296 1348.47 989.804 1361.06 1020.33 1372.47 C 1097.03 1401.15 1174.09 1419.36 1255.75 1425.92 C 1258.97 1425.94 1262.07 1425.82 1265.18 1426.75 C 1254.28 1429.71 1225.18 1428.87 1212.34 1429.36 C 1103.6 1433.49 984.228 1427.79 880.883 1390.94 L 880.244 1389.55 C 871.751 1370.75 854.575 1352.3 842.039 1335.59 C 824.883 1312.72 808.225 1289.49 790.812 1266.81 z"/>
<path transform="translate(0,0)" fill="rgb(174,169,128)" d="M 1388.79 1599.61 C 1391.09 1600.45 1393.21 1601.32 1395.39 1602.45 C 1420.57 1612.38 1445.78 1621.19 1471.9 1628.31 C 1468.17 1632.51 1464.52 1637.27 1460.21 1640.87 C 1457.02 1640.95 1452.85 1645.7 1450.06 1647.78 C 1443.28 1652.81 1439.05 1660.12 1432.86 1665.55 C 1402.28 1668.14 1371.57 1670.78 1340.92 1672.44 C 1320.01 1673.57 1218.16 1675.28 1204.82 1680.83 C 1202.59 1680.66 1200.32 1680.47 1198.08 1680.55 C 1187.21 1680.97 1179.35 1690.35 1172.36 1697.51 C 1168.37 1670.19 1162.62 1642.82 1159.17 1615.49 A 486.233 486.233 0 0 0 1179.3 1618.56 L 1182.1 1615.27 C 1196.22 1615.63 1210.32 1617.34 1224.43 1617.97 C 1253.78 1619.28 1285.09 1618.96 1314.24 1615.22 C 1329.46 1613.8 1344.31 1610.47 1359.29 1607.56 C 1367.06 1603.33 1380.07 1602.17 1388.79 1599.61 z"/>
<path transform="translate(0,0)" fill="rgb(91,81,50)" d="M 1388.79 1599.61 C 1391.09 1600.45 1393.21 1601.32 1395.39 1602.45 A 798.122 798.122 0 0 1 1355.66 1611.38 L 1359.29 1607.56 C 1367.06 1603.33 1380.07 1602.17 1388.79 1599.61 z"/>
<path transform="translate(0,0)" fill="rgb(75,68,36)" d="M 1314.24 1615.22 C 1329.46 1613.8 1344.31 1610.47 1359.29 1607.56 L 1355.66 1611.38 C 1341.43 1614.25 1325.8 1618.68 1311.34 1619.18 C 1313.13 1617.98 1313.51 1617.23 1314.24 1615.22 z"/>
<path transform="translate(0,0)" fill="url(#Gradient2)" d="M 1182.1 1615.27 C 1196.22 1615.63 1210.32 1617.34 1224.43 1617.97 C 1253.78 1619.28 1285.09 1618.96 1314.24 1615.22 C 1313.51 1617.23 1313.13 1617.98 1311.34 1619.18 C 1294.85 1626.78 1201.06 1621.92 1179.3 1618.56 L 1182.1 1615.27 z"/>
<path transform="translate(0,0)" fill="rgb(105,107,108)" d="M 761.094 1478.92 C 766.651 1481.8 773.789 1483.89 777.544 1489.07 C 773.498 1489.74 769.157 1490.14 765.26 1491.42 C 771.167 1495.62 776.495 1500.16 781.844 1505.05 C 770.509 1510.9 760.853 1512.83 748.167 1513.13 L 749.087 1515.17 L 746.541 1517.73 L 746.627 1519.64 C 751.367 1522.66 757.027 1523.21 762.13 1525.5 C 757.047 1530.25 751.516 1535.06 744.908 1537.54 C 740.043 1539.36 733.812 1539.17 729.669 1542.36 L 729.798 1543.55 C 729.992 1545.5 730.428 1548.08 729.786 1549.97 C 727.403 1557 716.032 1571.75 711.209 1579.2 C 694.323 1605.3 677.806 1631.7 660.428 1657.46 C 651.772 1670.29 634.909 1689.56 631.563 1704.26 C 638.545 1696.69 644.931 1688.63 651.395 1680.62 C 666.205 1676.42 688.145 1663.07 702.706 1671.72 C 712.052 1677.26 716.718 1687.6 721.064 1697.07 C 715.648 1691.59 711.082 1688.2 703.089 1688.36 C 693.31 1688.57 683.698 1694.7 675.667 1699.82 C 678.848 1702.72 683.809 1706.16 685.698 1709.97 C 683.403 1712.85 679.959 1714.09 676.3 1714.56 C 660.006 1716.64 647.648 1712.14 631.465 1719.64 C 621.812 1725.63 611.899 1732.19 601.011 1735.7 C 570.323 1745.58 544.264 1739.03 520.815 1766.4 C 531.818 1714.93 555.803 1734.95 566.865 1721.83 C 565.881 1720.47 566.449 1721.12 565.14 1719.92 L 564.144 1720.59 C 558.892 1720.55 553.695 1721.44 548.538 1722.34 C 520.789 1727.19 494.731 1730.75 477.419 1755.45 C 476.916 1748.85 476.847 1742.84 479.111 1736.51 C 487.913 1711.91 518.574 1701.04 542.807 1704.36 C 551.221 1705.51 558.861 1710.55 567.474 1710.8 C 576.96 1711.07 584.679 1708.13 593.099 1704.31 C 584.928 1704.11 577.162 1706.63 568.857 1705.79 C 562.541 1705.16 556.164 1703.08 550.022 1701.51 C 530.171 1696.43 516.618 1699 498.267 1707.07 C 490.535 1704.61 484.115 1704.68 476.205 1706.83 C 462.516 1710.56 454.479 1719.21 447.475 1730.93 C 445.185 1730.49 445.463 1730.17 444.086 1728.44 C 443.204 1723.49 445.472 1717.89 447.507 1713.43 C 454.602 1697.89 470.363 1684.83 487.64 1682.88 C 495.792 1681.96 504.018 1683.23 512.116 1684.11 C 538.435 1686.97 563.686 1691.02 589.195 1681.45 C 633.209 1664.94 663.299 1597.65 681.677 1556.92 C 693.718 1550.19 706.291 1543.13 716.511 1533.76 C 726.606 1524.5 747.206 1498.07 747.875 1484.21 C 752.17 1482.84 757.56 1481.76 761.094 1478.92 z"/>
<path transform="translate(0,0)" fill="rgb(0,0,0)" d="M 748.167 1513.13 C 747.77 1511.32 747.767 1512.01 747.945 1510.25 C 748.423 1505.54 758.183 1509.25 760.845 1507.03 C 758.956 1505.63 757.55 1504.14 755.976 1502.41 L 756.285 1501.45 C 760.289 1501.79 762.981 1503.84 766.711 1504.88 C 768.635 1505.42 770.028 1505.02 771.642 1503.97 C 769.946 1500.83 767.148 1499.27 764.449 1497.09 C 762.185 1495.26 760.971 1494.74 760.719 1491.75 C 762.486 1490.92 763.352 1491.27 765.26 1491.42 C 771.167 1495.62 776.495 1500.16 781.844 1505.05 C 770.509 1510.9 760.853 1512.83 748.167 1513.13 z"/>
<path transform="translate(0,0)" fill="rgb(105,107,108)" d="M 1002.96 1485.33 L 1003.83 1486.7 C 1012.14 1499.65 1034.45 1516.2 1031.32 1532.57 C 1029.47 1542.22 1023.49 1551.9 1019.05 1560.68 C 995.984 1606.28 962.896 1649.17 931.039 1688.9 C 913.424 1710.88 893.5 1732.84 879.496 1757.37 C 887.645 1750.85 893.308 1742.28 900.98 1735.43 L 901.553 1736.72 C 903.122 1740.31 903.98 1742.86 904.207 1746.73 C 904.359 1749.32 903.911 1752.03 905.795 1753.86 C 917.116 1746.21 920.294 1730.55 937.812 1734.31 C 944.225 1735.68 948.264 1742.84 951.404 1748.13 C 954.402 1753.18 958.4 1759.51 958.807 1765.42 C 956.725 1765.33 957.909 1765.66 955.935 1764.02 C 951.98 1760.72 945.979 1759.64 941.077 1758.49 C 921.594 1764.74 884.995 1798.12 865.694 1811.25 C 847.45 1823.66 829.31 1815.31 817.316 1838.19 A 182.988 182.988 0 0 0 814.284 1844.3 C 814.861 1830.06 813.906 1808.95 825.103 1798.51 C 834.687 1789.58 851.213 1786.9 859.043 1776.1 L 858.949 1774.32 C 854.727 1774.98 832.093 1787.26 827.673 1790.22 C 823.78 1792.83 820.151 1795.82 817.294 1799.56 C 815.985 1801.27 814.974 1803.15 814.018 1805.08 L 812.043 1805.62 C 814.168 1792.4 813.336 1782.81 808.978 1770.1 C 825.017 1765.47 839.524 1760.48 856.323 1759.57 L 856.501 1758.83 C 842.618 1753.82 820.647 1763.67 806.982 1767.54 C 798.409 1764.14 786.905 1762.72 778.246 1766.5 C 771.918 1769.27 766.422 1774.67 761.168 1779.12 C 750.916 1776.17 740.278 1774.2 730.327 1779.48 C 723.746 1782.98 718.597 1789.83 716.523 1796.94 C 715.486 1800.5 714.913 1804.24 714.303 1807.89 C 713.688 1792.37 713.271 1777.08 724.514 1764.79 C 746.636 1740.6 790.794 1751.42 819.603 1739.18 C 869.212 1718.08 918.747 1650.81 946.725 1605.15 L 946.093 1606.24 C 971.203 1599.58 987.95 1579.34 1000.45 1557.62 C 1010.47 1540.22 1015.2 1524.04 1009.75 1504.09 C 1008 1497.69 1005.4 1491.49 1002.96 1485.33 z"/>
<path transform="translate(0,0)" fill="rgb(106,173,152)" d="M 947.754 1197.76 C 960.825 1201.15 973.555 1207.12 986.412 1211.41 C 1006.14 1218 1026.42 1223.34 1046.48 1228.84 C 1053.77 1230.84 1061.03 1232.84 1068.53 1233.91 C 1076.87 1235.09 1085.44 1234.95 1093.47 1237.67 C 1110.4 1243.41 1127.09 1251.08 1143.64 1257.86 C 1192.08 1277.7 1239.68 1299.3 1287.4 1320.78 C 1350.22 1349.06 1414.25 1375.35 1475.21 1407.58 C 1467.59 1407.86 1439.84 1401.37 1429.65 1399.84 C 1338.93 1386.18 1247.29 1362.04 1160.41 1332.66 C 1109.76 1315.53 1059.87 1296.04 1009.82 1277.23 C 993.137 1245.8 975.404 1220.59 947.754 1197.76 z"/>
<path transform="translate(0,0)" fill="rgb(106,173,152)" d="M 1772.06 1234.73 C 1773.02 1232.96 1773.2 1228.8 1773.56 1226.67 C 1774.19 1227.89 1773.98 1230.58 1774.06 1232.01 L 1775.69 1232.87 C 1778.05 1248.87 1778.75 1265.29 1779.95 1281.41 C 1786.6 1370.67 1779.41 1465.64 1724.44 1539.96 C 1688.61 1588.41 1628.24 1618.7 1569.24 1627.08 C 1503.32 1636.43 1434.57 1614.97 1375.8 1586.35 C 1357.45 1577.41 1339.59 1568.04 1323.32 1555.59 C 1299.45 1537.32 1278.59 1513.83 1257.47 1492.47 C 1239.29 1474.08 1219.06 1456.09 1203.89 1435.11 L 1239.76 1433.64 C 1304.08 1494.19 1380.01 1547.02 1463.59 1576.99 C 1489.48 1586.27 1517.83 1594.01 1545.48 1593.31 C 1603.67 1591.82 1661.59 1563.36 1701.05 1521.11 C 1766.87 1450.61 1777.2 1356.5 1773.75 1264.68 A 1319.07 1319.07 0 0 0 1772.06 1234.73 z"/>
<path transform="translate(0,0)" fill="rgb(106,173,152)" d="M 880.217 1254.7 C 890.519 1257.46 901.589 1265.69 911.354 1270.4 C 935.199 1281.92 982.801 1302.17 1008.05 1306.41 C 1011.98 1307.07 1015.38 1307.62 1018.77 1305.16 C 1020.45 1299.92 1013.58 1286.84 1011.39 1281.38 C 1145.14 1339.17 1304.32 1389.33 1448.82 1407.55 L 1468.34 1411.13 C 1411.34 1415.85 1354.35 1423.85 1297.06 1423.81 C 1246.17 1423.77 1194.34 1416.05 1144.68 1405.39 C 1082.06 1391.94 1019.39 1369.84 961.022 1343.71 C 952.016 1339.67 933.942 1333.53 928.881 1325.21 C 913.658 1300.2 901.899 1275.37 880.217 1254.7 z"/>
<path transform="translate(0,0)" fill="rgb(174,169,128)" d="M 1528.39 1428.36 A 195.226 195.226 0 0 1 1526.33 1412 C 1525.09 1395.45 1531.06 1380.11 1541.97 1367.8 C 1550.2 1358.51 1561.53 1351.77 1574.33 1354.26 C 1578.07 1354.99 1581.86 1356.99 1585.65 1356.78 C 1582.96 1339.13 1583.06 1328.56 1591.85 1312.55 C 1598.42 1300.56 1609.38 1289.68 1622.81 1286.01 C 1626.42 1285.02 1637.81 1283.73 1640.46 1287.24 C 1642.91 1290.48 1644.79 1300.25 1646.5 1304.45 C 1656.39 1328.66 1671.5 1352.36 1694.36 1365.93 C 1680.74 1365.87 1667.5 1364.81 1654.47 1369.4 L 1655.06 1370.58 C 1671.3 1402.22 1712.76 1428.42 1745.73 1438.84 C 1743.81 1443.65 1742.2 1448.85 1739.01 1452.97 L 1738.59 1454.31 C 1715.26 1453.3 1693.3 1454.83 1672.34 1465.87 C 1669.29 1467.47 1660.93 1473.58 1657.95 1471.39 C 1631.94 1482.71 1591.49 1495.23 1570.96 1513.56 C 1567.1 1514.9 1563.32 1517.82 1559.87 1520.04 C 1534.79 1536.23 1516.1 1558.32 1496.92 1580.74 A 334.648 334.648 0 0 1 1444 1563.29 C 1441.94 1552.71 1441.86 1539.67 1443.84 1529.01 C 1447.55 1508.97 1460.74 1493.95 1477.17 1482.77 C 1484.83 1477.55 1508.61 1461.87 1517.17 1460.93 C 1518.62 1460.77 1521.51 1461.74 1523.05 1462.03 C 1523.49 1451.7 1522.2 1439.33 1527.46 1429.92 C 1527.76 1429.39 1528.08 1428.88 1528.39 1428.36 z"/>
<path transform="translate(0,0)" fill="rgb(91,81,50)" d="M 1657.95 1471.39 C 1686.91 1456.09 1705.44 1448.6 1739.01 1452.97 L 1738.59 1454.31 C 1715.26 1453.3 1693.3 1454.83 1672.34 1465.87 C 1669.29 1467.47 1660.93 1473.58 1657.95 1471.39 z"/>
<path transform="translate(0,0)" fill="rgb(248,239,211)" d="M 482.373 1122.74 C 490.372 1119.58 497.966 1116.16 505.313 1111.67 C 488.613 1150.92 494.164 1202.7 509.795 1241.45 C 513.901 1251.62 519.118 1260.98 524.946 1270.26 A 1660.13 1660.13 0 0 1 530.246 1232.83 C 538.716 1259.22 553.142 1288.24 579.193 1301.42 C 583.112 1303.41 588.809 1305.07 591.869 1308.24 C 601.447 1318.18 610.028 1336.42 617.482 1348.5 C 629.194 1367.5 642.031 1385.97 652.43 1405.73 A 212.582 212.582 0 0 1 665.869 1436.62 C 676.024 1466.21 684.635 1513.27 677.506 1544.3 A 2394.26 2394.26 0 0 0 529.166 1523.69 C 519.572 1503.32 514.318 1480.79 509.216 1458.93 C 488.698 1371.01 484.295 1282.56 482.111 1192.7 C 481.573 1170.56 484.219 1145.13 482.488 1123.96 C 482.454 1123.55 482.412 1123.14 482.373 1122.74 z"/>
<path transform="translate(0,0)" fill="rgb(85,113,132)" d="M 877.12 1389.74 C 863.012 1384.55 848.884 1379.48 835.346 1372.91 C 740.076 1326.63 643.141 1240.1 598.153 1143.03 C 573.831 1090.55 559.528 1030.53 563.298 972.55 C 564.093 960.322 565.186 946.579 569.641 935.037 C 571.408 930.459 573.745 926.614 578.378 924.598 C 585.732 921.397 595.673 922.16 603.521 922.37 C 643.052 923.427 679.982 933.368 716.793 947.222 C 694.463 952.616 674.154 951.03 651.835 946.384 C 640.805 944.088 629.915 941.478 618.553 942.291 L 618.608 943.251 C 624.314 944.92 630.145 945.251 635.975 946.287 C 645.667 948.009 655.394 950.732 664.769 953.718 C 668.426 960.594 674.208 974.739 672.669 982.475 C 672.123 985.221 671.072 985.696 668.938 987.151 C 658.351 988.482 643.774 979.875 635.527 973.474 C 632.305 970.973 629.58 967.906 626.396 965.383 C 630.905 976.58 645.747 999.598 641.109 1011.66 C 640.276 1013.83 638.781 1015.09 636.621 1015.74 C 630.52 1017.55 621.668 1013.58 616.362 1010.68 C 614.953 1001.85 614.053 993.099 613.387 984.184 C 610.282 992.984 612.588 1006.56 613.355 1015.82 C 618.428 1077.1 633.24 1119.1 659.622 1174.37 C 673.332 1203.1 720.289 1281.42 749.688 1292.61 C 751.685 1293.37 753.91 1293.58 755.838 1292.53 C 759.429 1290.57 761.154 1286.72 761.95 1282.86 C 766.89 1258.89 749.031 1224.55 738.282 1203.68 C 751.902 1217.22 789.346 1248.78 808.906 1249.35 C 812.404 1249.45 815.275 1248.61 817.949 1246.26 C 821.324 1243.3 822.029 1237.66 821.925 1233.46 C 821.748 1226.33 819.355 1218.84 817.554 1211.96 C 810.378 1190.29 800.079 1172.09 787.451 1153.23 C 804.009 1165.82 841.478 1191.77 862.9 1191.28 C 866.291 1191.2 869.77 1190.13 871.9 1187.3 C 873.948 1184.59 874.592 1180.61 874.234 1177.3 C 873.158 1167.34 851.923 1133.08 845.517 1124.73 C 841.073 1118.93 836.244 1114.18 830.74 1109.4 C 849.234 1119.12 880.637 1138.08 901.217 1138.26 C 904.187 1138.28 907.56 1137.75 909.53 1135.28 C 910.868 1133.6 911.134 1131.54 910.998 1129.46 C 910.646 1124.11 907.753 1118.05 905.617 1113.17 C 895.575 1090.23 881.323 1072.57 862.436 1056.35 C 878.105 1065.25 898.152 1078.43 916.642 1078.73 C 923.558 1078.84 926.455 1076.84 931.344 1072.16 C 924.85 1055.4 913.66 1043.79 900.82 1031.61 C 956.719 1052.83 1014.85 1062.58 1055.34 1112.05 C 1040.73 1106.78 1024.7 1104.4 1009.55 1100.98 C 980.16 1094.34 950.8 1087.71 921.893 1079.19 C 950.423 1095.37 987.022 1101.09 1018.84 1107.71 C 1030.5 1110.14 1043.06 1111.74 1054.07 1116.37 C 1073.77 1124.66 1102.4 1157.42 1110.35 1177.48 L 978.264 1140.49 C 959.922 1135.48 941.764 1129.46 923.233 1125.21 C 951.256 1140.02 984.449 1143.09 1012.75 1156.65 C 1043.98 1171.62 1072.14 1199.42 1083.71 1232.36 C 1065.45 1230.78 1046.75 1224.35 1029.23 1219.18 C 997.412 1209.79 965.858 1199.97 934.995 1187.7 C 915.738 1180.04 897.588 1170.32 877.511 1164.78 C 894.219 1175.33 913.411 1181.6 930.377 1191.69 C 963.443 1211.36 988.083 1243.77 1005.26 1277.61 C 1008.96 1284.9 1013.29 1293.13 1015.29 1301.04 L 1013.94 1301.86 C 993.095 1301.73 931.482 1274.74 910.854 1264.71 A 569.362 569.362 0 0 1 861.515 1237.52 C 847.658 1228.86 835.612 1217.43 821.543 1209.24 C 821.21 1209.05 820.873 1208.86 820.537 1208.67 C 824.294 1216.14 860.617 1241.84 869.883 1250.48 C 896.268 1275.08 916.393 1306.93 930.253 1340.15 C 886.409 1322.98 832.899 1296.39 795.973 1267.05 C 788.573 1261.17 782.718 1253.93 775.642 1247.8 C 794.624 1277.31 814.107 1305.59 835.244 1333.64 C 849.043 1351.95 865.567 1370.07 877.12 1389.74 z"/>
<path transform="translate(0,0)" fill="rgb(0,0,0)" d="M 596.325 941.732 L 597.46 942.914 C 594.118 952.581 591.953 961.644 591.261 971.874 C 587.038 1034.39 606.651 1125.07 641.165 1177.98 C 654.055 1197.74 671.527 1214.64 687.06 1232.3 C 686.924 1232.23 686.786 1232.16 686.651 1232.08 C 678.463 1227.46 671.168 1219.07 664.885 1212.18 C 633.519 1177.82 615.659 1139.48 603.31 1095.09 C 593.007 1058.05 576.997 975.837 596.325 941.732 z"/>
<path transform="translate(0,0)" fill="url(#Gradient3)" d="M 1024 1597.36 L 1039.95 1599.39 C 1048.43 1600.41 1057.2 1601.02 1065.59 1602.49 C 1069.78 1603.05 1075.9 1603.04 1079.71 1604.59 C 1086.53 1605.24 1099.73 1608.62 1105.78 1606.06 L 1106.71 1609.95 C 1115.36 1628.62 1124.53 1654.43 1116.86 1674.5 C 1114.31 1681.17 1109.85 1686.39 1103.21 1689.2 C 1077.73 1699.99 1045.68 1683.61 1023.55 1699.12 C 1013.39 1697.12 1003.67 1697.61 994.921 1703.68 C 984.251 1711.08 976.249 1726.58 974.101 1739.31 C 972.621 1748.08 973.868 1755.02 976.673 1763.25 C 982.61 1750.75 988.118 1738.2 1002.19 1733.17 C 1010.86 1730.08 1018.42 1731.11 1027.2 1732.56 C 1020.41 1740.91 1007.19 1759.96 1007.96 1771.39 C 1008.13 1773.97 1008.33 1774.44 1010.11 1776.05 C 1016.91 1774.95 1026.92 1760.53 1037.15 1757.54 C 1045.98 1754.95 1056.52 1755.66 1065.67 1755.34 C 1096.11 1754.28 1136.41 1753.71 1159.44 1731.09 C 1169.62 1732.9 1186.26 1737.49 1195.31 1731.3 C 1203.12 1725.96 1198.29 1706.26 1211.67 1708.31 C 1218.12 1709.29 1230.99 1719.8 1234.63 1719.51 C 1235.71 1717.2 1236.06 1716.18 1235.24 1713.67 C 1231.57 1702.47 1217.67 1686.3 1206.85 1681.64 A 47.0663 47.0663 0 0 0 1204.82 1680.83 C 1218.16 1675.28 1320.01 1673.57 1340.92 1672.44 C 1371.57 1670.78 1402.28 1668.14 1432.86 1665.55 C 1439.05 1660.12 1443.28 1652.81 1450.06 1647.78 C 1452.85 1645.7 1457.02 1640.95 1460.21 1640.87 L 1459.02 1642.42 C 1451.87 1651.58 1442.84 1659.57 1435.28 1668.47 C 1404.58 1704.6 1381.69 1744.4 1380 1793.06 C 1338.64 1784.11 1309.48 1787.73 1273.01 1811.25 C 1257.47 1821.27 1246.06 1833.74 1234.76 1848.2 C 1225.53 1846.44 1213.89 1847.7 1204.41 1847.78 L 1142.55 1848.38 C 1099.67 1848.78 848.378 1848.2 829.686 1839.33 C 828.711 1837.91 827.737 1836.54 826.652 1835.2 L 825.747 1834.11 C 827.489 1831.31 830.419 1829.11 832.87 1826.91 C 840.044 1825.78 847.267 1825.31 854.145 1822.84 C 871.269 1816.67 905.76 1788.23 921.47 1776.37 C 925.686 1773.19 932.438 1766.78 937.544 1765.57 C 945.321 1763.71 950.988 1768.33 957.517 1771.55 C 959.646 1772.6 960.83 1773.51 963.172 1772.7 C 963.564 1771.72 963.878 1771.11 963.975 1769.99 C 964.841 1760.02 953.242 1740.9 946.587 1733.6 C 943.417 1730.11 938.609 1728.22 933.935 1728.22 C 924.315 1728.21 917.18 1734.4 910.662 1740.65 C 909.745 1738.05 908.804 1734.13 906.752 1732.31 C 904.654 1730.44 906.814 1733.08 904.663 1730.12 C 915.059 1714.18 929.326 1699.69 941.159 1684.7 C 963.189 1656.78 983.714 1628.42 1003.5 1598.89 C 1008.64 1599.15 1013.48 1599.64 1018.56 1600.56 C 1020.8 1599.96 1022.18 1598.75 1024 1597.36 z"/>
<path transform="translate(0,0)" fill="rgb(75,68,36)" d="M 1079.71 1604.59 C 1086.53 1605.24 1099.73 1608.62 1105.78 1606.06 L 1106.71 1609.95 C 1098.27 1608.45 1088.93 1608.77 1080.32 1608.08 L 1079.71 1604.59 z"/>
<path transform="translate(0,0)" fill="rgb(91,81,50)" d="M 1024 1597.36 L 1039.95 1599.39 C 1048.43 1600.41 1057.2 1601.02 1065.59 1602.49 C 1069.78 1603.05 1075.9 1603.04 1079.71 1604.59 L 1080.32 1608.08 L 1061.04 1605.8 C 1051.59 1605.33 1041.9 1603.56 1032.49 1602.39 L 1018.56 1600.56 C 1020.8 1599.96 1022.18 1598.75 1024 1597.36 z"/>
<path transform="translate(0,0)" fill="rgb(224,213,183)" d="M 406.83 910.724 C 437.174 919.23 461.608 944.983 476.732 971.709 C 495.508 1004.89 499.35 1041.26 488.884 1077.88 C 482.274 1101.01 470.765 1112.44 451.939 1126.49 C 462.15 1125.93 472.405 1125.14 482.373 1122.74 C 482.412 1123.14 482.454 1123.55 482.488 1123.96 C 484.219 1145.13 481.573 1170.56 482.111 1192.7 C 484.295 1282.56 488.698 1371.01 509.216 1458.93 C 514.318 1480.79 519.572 1503.32 529.166 1523.69 C 514.782 1522.34 450.801 1518.43 442.027 1515.05 C 440.688 1510.78 439.129 1506.46 436.893 1502.57 C 430.368 1491.21 422.789 1494.66 412.844 1490.87 C 406.7 1488.53 408.174 1478.42 405.121 1472.9 C 403.563 1470.09 401.194 1467.83 398 1467 C 387.929 1464.38 376.976 1471.89 368.852 1476.83 C 369.613 1472.1 370.652 1466.72 369.849 1461.96 C 368.699 1455.15 365.723 1448.79 359.749 1444.98 C 354.72 1441.77 347.127 1440.59 341.387 1442.15 C 338.921 1442.81 335.704 1442.94 333.49 1444.09 C 333.249 1444.21 333.036 1444.38 332.809 1444.53 C 332.67 1437.09 336.961 1430.14 336.304 1422.57 C 334.56 1402.47 323.2 1385.48 307.461 1373.37 C 307.159 1373.14 306.849 1372.91 306.547 1372.68 C 305.666 1372.01 304.79 1371.33 303.9 1370.67 L 305.103 1369.81 C 310.452 1359.05 312.604 1339.75 315.132 1327.57 C 341.176 1202.08 349.172 1072.77 359.224 945.231 C 378.236 937.247 392.275 925.116 406.83 910.724 z"/>
<path transform="translate(0,0)" fill="rgb(106,173,152)" d="M 381.959 777.656 C 399.064 766.252 411.827 748.542 430.718 739.451 C 439.526 735.212 449.896 733.769 459.18 730.494 C 449.928 741.142 438.49 749.688 429.636 760.582 C 436.715 757.778 443.16 753.607 450.406 751.128 C 468.022 745.101 488.524 749.903 506.894 750.113 C 497.084 756.148 487.15 762.614 476.378 766.816 C 464.86 771.309 452.974 774.122 442.08 780.15 C 480.928 775.979 486.495 769.878 528.077 780.754 C 514.749 787.425 500.575 792.144 487.159 798.655 C 510.883 802.304 528.92 813.417 546.725 829.181 C 531.953 832.435 516.965 837.306 501.91 838.672 C 513.42 848.798 523.284 859.094 536.516 867.156 C 517.859 875.761 503.222 892.298 484.943 902.417 C 489.131 910.605 493.286 918.716 498.156 926.529 C 497.04 919.326 494.782 913.067 492.044 906.363 C 508.358 905.927 525.153 903.044 541.367 901.154 C 538.289 891.775 534.082 882.9 529.986 873.936 C 532.782 873.08 535.628 872.15 538.513 871.647 C 550.822 869.502 561.772 876.225 571.313 883.025 C 565.805 865.482 553.892 849.038 542.717 834.668 C 553.287 831.383 563.25 831.972 574.136 832.261 C 565.131 819.074 550.689 808.056 538.131 798.414 C 557.462 795.671 574.228 789.395 592.42 782.515 C 628.233 800.954 673.185 842.785 696.619 875.186 C 681.06 860.619 658.968 855.861 638.207 855.991 C 645.328 859.426 653.114 861.23 660.122 864.921 C 660.576 865.16 661.019 865.419 661.472 865.66 C 666.723 868.455 673.131 884.391 678.815 890.823 C 698.56 913.166 719.064 932.177 742.05 951.095 C 725.733 944.442 709.526 937.561 692.647 932.44 C 667.232 924.729 596.446 907.578 573.481 921.028 C 566.966 924.844 564.302 934.704 562.703 941.618 C 544.75 1019.27 575.616 1121.84 616.941 1188.33 C 659.992 1257.6 723.659 1314.42 792.978 1356.51 C 807.936 1365.59 822.876 1374.71 838.953 1381.71 C 881.585 1400.25 926.244 1410.92 971.351 1421.44 C 976.914 1436.92 984.453 1451.53 991.663 1466.27 C 1002.29 1488 1014.52 1514.02 1005.93 1538.42 C 996.797 1564.39 976.248 1588.59 951.389 1600.47 C 954.062 1557.84 929.573 1537.28 900.403 1511.78 C 877.596 1491.84 848.78 1466.47 836.43 1438.39 C 834.299 1433.55 833.257 1428.15 832.078 1423.01 C 831.828 1433.43 832.124 1443.8 832.466 1454.21 C 831.555 1455.09 830.765 1456.43 829.419 1456.42 C 827.662 1456.41 826.408 1455.5 824.914 1454.7 C 816.606 1440.59 805.912 1427.48 795.739 1414.69 C 755.644 1364.26 708.711 1320.53 664.631 1273.71 C 652.057 1260.35 638.105 1239.55 624.931 1228.68 C 638.462 1252.68 659.406 1274.25 678.011 1294.44 A 6701.25 6701.25 0 0 0 726.925 1347.03 C 741.819 1362.65 757.096 1377.84 771.304 1394.1 C 749.55 1386.31 727.543 1378.65 706.875 1368.23 C 651.19 1340.16 606.743 1298.91 583.013 1240.26 C 580.291 1233.53 578.74 1226.6 576.471 1219.73 C 574.381 1245.94 579.258 1275.11 587.981 1299.69 C 571.123 1290.73 557.505 1278.3 547.748 1261.77 C 524.359 1222.15 533.374 1184.83 543.907 1143.14 C 526.798 1171.34 525.431 1222.53 521.37 1256.04 C 502.1 1214.88 493.842 1162.1 508.326 1118.39 C 514.679 1099.23 529.535 1079.73 525.244 1058.61 L 523.904 1059.67 L 524.3 1058.78 C 522.671 1070.6 521.002 1083.1 514.796 1093.54 C 505.248 1109.61 484.278 1116.32 467.234 1120.79 C 484.436 1106.94 492.274 1091.17 496.699 1069.65 A 144.519 144.519 0 0 0 475.73 959.139 C 451.826 923.184 426.711 908.01 385.267 899.509 C 368.637 872.946 324.563 848.942 322.973 815.091 C 322.485 804.708 327.036 795.969 333.903 788.477 C 347.018 774.172 378.318 748.202 396.437 741.861 C 405.341 738.746 414.55 738.614 423.86 738.205 C 408.105 749.364 392.497 761.223 381.959 777.656 z"/>
<path transform="translate(0,0)" fill="rgb(0,0,0)" d="M 399.145 793.368 C 408.348 792.473 419.996 792.823 428.26 797.294 C 433.038 799.88 436.589 803.888 437.94 809.208 C 440.355 818.718 435.995 829.984 431.23 838.209 C 423.723 851.167 413.101 858.961 398.809 862.853 A 53.0384 53.0384 0 0 1 396.709 863.248 C 387.023 864.857 374.652 864.869 366.555 858.675 C 361.473 854.788 358.973 848.884 358.142 842.676 A 45.0869 45.0869 0 0 1 366.9 809.952 C 375.4 798.893 385.794 794.9 399.145 793.368 z"/>
<path transform="translate(0,0)" fill="rgb(254,238,158)" d="M 376.594 806.926 C 382.305 801.129 391.436 800.302 399.088 799.428 C 398.922 804.383 399.083 809.756 396.917 814.308 C 395.262 810.734 393.958 807.915 390.525 805.946 L 387.539 806.967 C 383.2 807.71 381.273 808.796 378.474 812.332 L 376.594 806.926 z"/>
<path transform="translate(0,0)" fill="rgb(248,239,211)" d="M 399.088 799.428 C 407.605 799.286 425.583 799.236 431.556 806.264 C 433.99 809.129 434.117 812.874 433.496 816.394 C 431.25 829.126 421.361 843.564 410.739 850.536 C 401.58 856.55 388.977 859.26 378.247 856.579 C 373.079 855.287 368.434 852.33 365.829 847.583 C 362.038 840.679 362.443 832.152 364.888 824.874 C 367.2 817.991 371.144 811.719 376.594 806.926 L 378.474 812.332 C 381.273 808.796 383.2 807.71 387.539 806.967 L 390.525 805.946 C 393.958 807.915 395.262 810.734 396.917 814.308 C 399.083 809.756 398.922 804.383 399.088 799.428 z"/>
<path transform="translate(0,0)" fill="rgb(0,0,0)" d="M 387.539 806.967 L 390.525 805.946 C 393.958 807.915 395.262 810.734 396.917 814.308 C 397.828 822.653 400.21 833.514 394.302 840.615 C 392.619 842.638 390.201 844.179 388.056 845.677 C 385.852 846.3 384.323 846.247 382.054 846.007 C 379.857 844.666 378.609 843.575 377.554 841.246 C 373.872 833.119 375.646 820.55 378.474 812.332 C 381.273 808.796 383.2 807.71 387.539 806.967 z"/>
<path transform="translate(0,0)" fill="rgb(182,169,2)" d="M 378.474 812.332 C 381.273 808.796 383.2 807.71 387.539 806.967 C 382.614 814.818 378.667 821.846 380.783 831.444 C 381.942 836.699 385.198 841.208 388.056 845.677 C 385.852 846.3 384.323 846.247 382.054 846.007 C 379.857 844.666 378.609 843.575 377.554 841.246 C 373.872 833.119 375.646 820.55 378.474 812.332 z"/>
<path transform="translate(0,0)" fill="rgb(248,239,211)" d="M 536.141 0 L 615.722 0 L 630.689 0 L 696.927 0 L 712.5 0 L 776.082 0 L 831.927 0 C 834.639 29.1454 834.111 58.9517 835.034 88.2186 L 840.547 242.682 A 14129.6 14129.6 0 0 1 854.83 810.095 C 855.04 866.191 851.887 922.29 851.757 978.333 C 831.534 970.776 810.913 965.756 790.262 959.65 C 778.394 956.705 764.825 954.567 753.703 949.46 C 728.707 937.98 691.752 895.667 672.791 874.944 C 691.416 881.529 707.944 890.161 725.428 899.281 C 715.494 876.01 662.687 826.975 642.492 810.183 A 426.621 426.621 0 0 0 599.524 778.647 C 622.904 766.527 638.484 747.862 651.716 725.507 C 642.043 728.266 632.667 731.758 622.849 734.117 C 605.5 738.284 587.507 740.786 569.922 743.847 C 582.351 738.241 594.757 732.301 605.827 724.261 C 629.024 707.413 651.685 677.574 664.897 652.383 C 669.401 643.795 686.16 607.076 683.591 598.844 C 678.244 601.659 673.629 608.016 668.898 611.991 C 662.413 617.442 655.397 622.399 648.351 627.103 C 620.419 645.75 583.676 664.663 553.32 679.705 C 569.062 647.84 579.434 617.071 587.21 582.43 C 578.374 591.324 571.033 601.531 561.912 610.313 C 535.08 636.148 502.445 658.024 471.013 677.737 C 468.918 673.07 474.853 620.55 475.495 611.629 A 9652.6 9652.6 0 0 1 487.387 444.126 A 14988.3 14988.3 0 0 1 503.155 279.832 A 4432.37 4432.37 0 0 1 526.522 73.451 C 529.767 49.0641 532.03 24.2327 536.141 0 z"/>
<path transform="translate(0,0)" fill="rgb(224,213,183)" d="M 615.722 0 L 630.689 0 L 696.927 0 L 712.5 0 L 776.082 0 L 831.927 0 C 834.639 29.1454 834.111 58.9517 835.034 88.2186 L 840.547 242.682 A 14129.6 14129.6 0 0 1 854.83 810.095 C 855.04 866.191 851.887 922.29 851.757 978.333 C 831.534 970.776 810.913 965.756 790.262 959.65 L 791.168 959.014 C 792.979 954.569 795.223 802.237 795.598 781.506 A 4958.39 4958.39 0 0 0 792.852 543.123 C 791.73 512.996 792.964 481.118 788.439 451.4 C 781.538 406.09 765.026 359.11 749.934 315.9 C 741.716 292.375 733.876 268.214 722.711 245.868 C 714.094 228.623 696.412 215.665 685.407 199.689 C 639.351 132.829 625.943 79.3168 615.722 0 z"/>
<path transform="translate(0,0)" fill="rgb(248,239,211)" d="M 630.689 0 L 696.927 0 C 696.803 74.1105 700.66 134.042 716.093 206.796 C 655.699 132.198 644.248 93.6677 630.689 0 z"/>
<path transform="translate(0,0)" fill="rgb(248,239,211)" d="M 712.5 0 L 776.082 0 A 12482.9 12482.9 0 0 0 781.01 129.618 C 784.71 203.102 789.546 277.147 788.912 350.72 C 779.041 313.966 762.035 278.549 749.783 242.464 C 721.624 159.531 714.443 86.9796 712.5 0 z"/>
<path transform="translate(0,0)" fill="rgb(224,213,183)" d="M 1461.91 144.294 C 1472.54 152.737 1484.1 159.91 1495.13 167.804 C 1515.19 182.169 1540.82 202.953 1557.23 221.068 C 1574.12 237.47 1592.21 256.329 1605.21 275.947 C 1614.19 287.812 1627.14 303.627 1633.28 316.964 C 1646.04 335.623 1676.21 388.504 1681.68 409.386 C 1685.32 423.311 1685.29 439.851 1686.57 454.232 A 5406.61 5406.61 0 0 0 1693.66 526.858 A 9856.44 9856.44 0 0 1 1717.94 811.261 L 1726.53 945.044 L 1734.19 1058.31 C 1734.91 1068.51 1738.43 1092.82 1737.46 1101.85 C 1737.36 1102.79 1737.09 1103.16 1736.68 1103.91 C 1732.19 1094.37 1727.63 1084.93 1722.4 1075.77 C 1714.97 1062.76 1679.45 1005.89 1668.68 1000.68 L 1666.93 1001.33 C 1663.47 1009.43 1664.9 1021.32 1664.98 1030.02 C 1665.42 1082.9 1674.79 1158.36 1693.9 1207.27 C 1679.16 1192.94 1656.01 1170.92 1639.31 1160.71 C 1636.75 1212.17 1661.73 1255.67 1688.67 1297.27 C 1677.89 1293.33 1667.13 1289.21 1656.15 1285.87 C 1639.05 1282.47 1624.06 1280.53 1608.52 1290.76 C 1594.51 1299.99 1585.84 1316.39 1582.84 1332.6 C 1581.46 1340.09 1581.55 1346.63 1582.28 1354.16 C 1570.57 1351.5 1561.13 1350.85 1550.41 1357.48 C 1537.18 1365.68 1527.77 1380.33 1524.6 1395.4 C 1522.36 1405.99 1525.4 1415.65 1524.64 1426.08 C 1523.86 1436.86 1520.1 1446.91 1519.72 1458.02 C 1496.12 1463.97 1461.63 1486.26 1449.1 1507.59 C 1439.1 1524.62 1439.38 1543.74 1442.57 1562.68 C 1434.27 1559.3 1425.89 1556.07 1417.96 1551.85 A 592.143 592.143 0 0 1 1299.97 1477.96 C 1281.53 1463.23 1264.24 1446.68 1244.87 1433.17 C 1260.85 1432.93 1276.99 1431.4 1292.96 1430.47 C 1340.03 1427.75 1386.46 1423.67 1433.33 1418.57 C 1444.17 1414.47 1485.88 1413.67 1498.3 1415.46 C 1478.97 1403.16 1458.18 1393.34 1437.85 1382.83 C 1440.37 1378.3 1438.96 1360.24 1439.3 1354.09 C 1440.04 1340.7 1441.8 1327.25 1443.23 1313.91 C 1448.87 1313.57 1457.7 1314.06 1462.47 1311.01 L 1461.95 1309.56 C 1456.64 1306.36 1449.77 1304.7 1443.87 1302.75 C 1443.82 1277.38 1446.49 1251.83 1447.71 1226.46 L 1454.37 1077.36 A 8613.46 8613.46 0 0 0 1462.9 738.427 A 31436 31436 0 0 0 1461.23 341.586 L 1459.94 209.411 C 1459.92 188.277 1457.96 165.051 1461.91 144.294 z"/>
<path transform="translate(0,0)" fill="rgb(248,239,211)" d="M 1557.23 221.068 C 1574.12 237.47 1592.21 256.329 1605.21 275.947 C 1596.11 299.37 1587.16 323.096 1579.14 346.91 C 1573.04 365.028 1566.28 392.805 1556.97 408.802 C 1555.63 364.451 1557.08 319.673 1557.08 275.276 A 1046.99 1046.99 0 0 0 1556.78 243.522 C 1556.6 237.444 1555.48 229.96 1556.24 223.99 C 1556.41 222.644 1556.71 222.168 1557.23 221.068 z"/>
<path transform="translate(0,0)" fill="rgb(248,239,211)" d="M 1633.28 316.964 C 1646.04 335.623 1676.21 388.504 1681.68 409.386 C 1685.32 423.311 1685.29 439.851 1686.57 454.232 A 5406.61 5406.61 0 0 0 1693.66 526.858 A 9856.44 9856.44 0 0 1 1717.94 811.261 L 1726.53 945.044 L 1734.19 1058.31 C 1734.91 1068.51 1738.43 1092.82 1737.46 1101.85 C 1737.36 1102.79 1737.09 1103.16 1736.68 1103.91 C 1732.19 1094.37 1727.63 1084.93 1722.4 1075.77 C 1714.97 1062.76 1679.45 1005.89 1668.68 1000.68 L 1666.93 1001.33 C 1663.47 1009.43 1664.9 1021.32 1664.98 1030.02 C 1665.42 1082.9 1674.79 1158.36 1693.9 1207.27 C 1679.16 1192.94 1656.01 1170.92 1639.31 1160.71 C 1636.75 1212.17 1661.73 1255.67 1688.67 1297.27 C 1677.89 1293.33 1667.13 1289.21 1656.15 1285.87 C 1654.51 1273.16 1638.97 1242.59 1633.54 1228.49 C 1594.83 1128.03 1587.61 1032.55 1578.14 926.818 A 4888.16 4888.16 0 0 1 1561.4 618.038 L 1559.69 548.629 C 1559.43 538.604 1557.84 526.04 1559.52 516.188 C 1561.56 504.296 1570.28 490.1 1575.27 479.066 A 669.667 669.667 0 0 0 1590.9 441.862 C 1600.93 415.869 1611.55 389.507 1620.03 362.979 C 1624.72 348.285 1627.11 330.869 1633.28 316.964 z"/>
<path transform="translate(0,0)" fill="rgb(174,169,128)" d="M 68.6434 1284.19 C 59.2965 1264.49 48.8933 1240.62 56.3417 1218.59 C 58.0095 1213.66 61.1088 1209.45 65.8971 1207.18 C 70.6633 1204.93 75.6678 1204.42 80.5722 1206.51 C 91.2114 1211.04 100.854 1224.27 104.619 1234.84 C 107.098 1241.79 107.493 1250.86 111.126 1257.15 C 116.251 1254.09 118.601 1251.79 125.034 1253.39 C 129.218 1254.43 132.3 1257.09 134.476 1260.76 C 140.201 1270.39 140.742 1286.55 137.787 1297.23 A 111.941 111.941 0 0 1 135.773 1303.7 L 136.226 1305.25 C 143.413 1304.18 151.161 1302.46 158.406 1302.43 C 172.74 1302.35 191.849 1312.24 203.116 1320.65 C 211.979 1327.28 219.592 1334.91 225.622 1344.2 L 226.464 1345.47 C 230.366 1339.44 235.285 1332.69 242.841 1331.29 C 247.668 1330.39 253.125 1332.21 257.262 1334.66 C 269.602 1344.12 275.149 1359.32 281.055 1363.95 C 284.785 1366.88 297.436 1367.14 303.9 1370.67 C 304.79 1371.33 305.666 1372.01 306.547 1372.68 C 306.849 1372.91 307.159 1373.14 307.461 1373.37 C 323.2 1385.48 334.56 1402.47 336.304 1422.57 C 336.961 1430.14 332.67 1437.09 332.809 1444.53 C 333.036 1444.38 333.249 1444.21 333.49 1444.09 C 335.704 1442.94 338.921 1442.81 341.387 1442.15 C 347.127 1440.59 354.72 1441.77 359.749 1444.98 C 365.723 1448.79 368.699 1455.15 369.849 1461.96 C 370.652 1466.72 369.613 1472.1 368.852 1476.83 C 376.976 1471.89 387.929 1464.38 398 1467 C 401.194 1467.83 403.563 1470.09 405.121 1472.9 C 408.174 1478.42 406.7 1488.53 412.844 1490.87 C 422.789 1494.66 430.368 1491.21 436.893 1502.57 C 439.129 1506.46 440.688 1510.78 442.027 1515.05 C 450.801 1518.43 514.782 1522.34 529.166 1523.69 A 2394.26 2394.26 0 0 1 677.506 1544.3 L 676.848 1549.26 C 664.943 1583.95 626.455 1659.77 593.712 1675.7 C 567.489 1688.46 538.386 1683.13 510.646 1679.92 C 501.272 1678.84 491.64 1677.51 482.279 1679.46 C 473.641 1681.27 465.623 1685.95 458.954 1691.64 C 452.279 1697.33 446.686 1704.4 443.706 1712.72 C 439.486 1724.5 440.761 1736.99 443.484 1748.93 C 449.513 1734.21 456.565 1720.18 472.162 1713.59 C 479.444 1710.51 486.1 1710.37 493.863 1710.69 C 482.887 1719.5 474.525 1730.27 473.056 1744.76 C 472.189 1753.31 473.87 1761.56 476.632 1769.62 C 488.398 1747.97 497.413 1740.8 520.763 1733.84 C 524.278 1732.8 527.802 1731.74 531.356 1730.83 C 522.251 1743.91 514.428 1760.2 517.528 1776.64 C 517.759 1777.87 518.151 1778.57 518.981 1779.48 C 520.533 1779.06 530.603 1761.25 540.462 1755.98 C 557.518 1746.86 581.903 1747.74 600.782 1741.41 C 615.996 1736.31 628.457 1723.83 643.759 1719.95 C 654.509 1717.22 664.922 1720.54 675.624 1719.43 C 681.278 1718.84 687.026 1717.77 690.042 1712.65 C 690.037 1710.05 689.885 1708.65 688.103 1706.64 C 686.416 1704.73 683.579 1703 681.526 1701.47 C 689.193 1697.83 702.842 1690.45 711.433 1694.47 C 715.898 1696.56 718.433 1703.87 722.389 1704.92 C 724.131 1702.87 724.948 1701.86 724.808 1699.07 C 724.287 1688.64 714.532 1675.85 706.73 1669.9 C 699.924 1664.71 694.018 1663.38 685.556 1664.82 C 674.259 1666.74 664.231 1673.06 653.272 1676.22 C 673.305 1649.72 692.078 1621.58 710.096 1593.68 C 716.154 1584.3 724.922 1565.63 731.571 1558.6 C 732.774 1557.15 733.149 1555.71 733.819 1553.95 A 2732.29 2732.29 0 0 1 815.24 1564.95 C 830.032 1567.15 845.318 1569.04 859.889 1572.3 C 870.211 1573.93 880.786 1575.22 891.011 1577.33 C 908.411 1579.65 925.531 1584.68 943.041 1586.04 L 941.611 1586.91 L 941.94 1588.86 C 943.956 1590.92 944.154 1592.06 943.99 1594.97 C 943.333 1606.62 913.577 1646.4 905.12 1657.01 C 875.394 1658.45 830.333 1665.22 801.447 1672.57 C 792.375 1674.88 784.198 1679.06 775.093 1681.24 L 775.948 1681.79 C 816.556 1668.81 861.082 1661.58 903.592 1658.73 C 895.723 1668.25 887.433 1677.56 878.271 1685.86 C 864.575 1686.1 850.544 1685.9 836.909 1687.29 C 830.611 1687.93 824.506 1689.68 818.224 1690.39 C 810.386 1691.28 798.363 1694.25 791.52 1698.29 C 806.009 1694.02 860.736 1682.67 873.413 1688.65 C 874.475 1689.15 874.439 1689.2 875.188 1689.86 L 874.801 1690.87 C 866.316 1692.97 856.966 1693.1 848.264 1693.93 C 828.993 1695.75 805.248 1698.41 787.31 1705.56 L 786.975 1705.42 C 787.276 1705.48 787.572 1705.57 787.878 1705.61 C 791.307 1705.95 820.475 1699.5 826.754 1698.57 A 433.729 433.729 0 0 1 870.278 1694.31 C 853.12 1711.05 833.191 1728.65 810.479 1737.09 C 781.491 1747.85 737.471 1736.86 718.055 1766.52 C 713.323 1773.75 710.723 1782.72 710.576 1791.34 C 710.397 1801.77 713.79 1810.24 718.799 1819.11 C 718.19 1808.98 718.35 1798.22 725.402 1790.11 C 730.139 1784.66 737.008 1782.04 743.828 1780.29 C 748.46 1781.65 753.175 1782.88 757.668 1784.65 C 748.197 1798.2 742.482 1811.94 745.768 1828.93 C 746.943 1835.01 749.296 1840.28 752.093 1845.73 C 752.852 1841.7 753.507 1837.61 754.507 1833.63 C 761.861 1838.38 799.833 1839.21 810.06 1838.47 C 810.617 1843.65 811.728 1848.44 813.054 1853.47 C 817.669 1847.38 821.602 1840.53 825.747 1834.11 L 826.652 1835.2 C 827.737 1836.54 828.711 1837.91 829.686 1839.33 C 848.378 1848.2 1099.67 1848.78 1142.55 1848.38 L 1204.41 1847.78 C 1213.89 1847.7 1225.53 1846.44 1234.76 1848.2 C 1226.09 1860.21 1219.16 1873.63 1216.44 1888.35 C 1192.19 1879.81 1156.58 1885.86 1133.83 1896.61 C 1113.1 1906.41 1101.94 1917.85 1087.2 1934.75 C 1086.04 1936.09 1083.12 1939.56 1081.26 1938.96 C 1078.14 1937.96 1075.44 1934.49 1072.59 1932.7 C 1058.96 1924.16 1038.87 1924.67 1024.54 1930.67 C 999.005 1941.36 979.32 1968.38 969.834 1993.64 C 968.315 1997.69 968.106 2001.79 967.464 2006 C 967.233 2007.51 967.218 2007.08 966.074 2008.62 C 961.995 2009.84 957.795 2009.74 953.825 2010.98 C 935.711 2016.65 918.09 2031.47 909.042 2048 L 653.484 2048 L 0 2048 L 0 1847.51 L 0 1536.12 L 0 1534.56 L 0 1253.35 C 10.9852 1254.51 14.1254 1260.32 21.7855 1261.98 C 22.4934 1260.2 22.608 1259.62 22.7973 1257.84 C 23.0453 1255.5 23.5987 1254.2 24.7563 1252.19 C 26.9013 1250.73 27.4989 1250.33 30.2473 1250.61 C 42.3232 1251.86 61.0375 1275 68.6434 1284.19 z"/>
<path transform="translate(0,0)" fill="rgb(75,68,36)" d="M 0 1534.56 C 15.4298 1532.88 30.4008 1528.4 45.7814 1526.79 L 45.8537 1527.85 L 42.8331 1528.24 C 45.4264 1529.48 47.6288 1528.72 50.1842 1529.96 C 33.9127 1532.18 16.3884 1536.25 0 1536.12 L 0 1534.56 z"/>
<path transform="translate(0,0)" fill="rgb(75,68,36)" d="M 733.819 1553.95 A 2732.29 2732.29 0 0 1 815.24 1564.95 C 830.032 1567.15 845.318 1569.04 859.889 1572.3 C 870.211 1573.93 880.786 1575.22 891.011 1577.33 C 908.411 1579.65 925.531 1584.68 943.041 1586.04 L 941.611 1586.91 L 941.94 1588.86 C 929.208 1590 902.663 1582.9 888.787 1580.55 C 879.413 1578.72 869.88 1577.51 860.433 1576.09 A 5911.77 5911.77 0 0 0 731.571 1558.6 C 732.774 1557.15 733.149 1555.71 733.819 1553.95 z"/>
<path transform="translate(0,0)" fill="rgb(157,153,113)" d="M 68.6434 1284.19 C 59.2965 1264.49 48.8933 1240.62 56.3417 1218.59 C 58.0095 1213.66 61.1088 1209.45 65.8971 1207.18 C 70.6633 1204.93 75.6678 1204.42 80.5722 1206.51 C 91.2114 1211.04 100.854 1224.27 104.619 1234.84 C 107.098 1241.79 107.493 1250.86 111.126 1257.15 C 116.251 1254.09 118.601 1251.79 125.034 1253.39 C 129.218 1254.43 132.3 1257.09 134.476 1260.76 C 140.201 1270.39 140.742 1286.55 137.787 1297.23 A 111.941 111.941 0 0 1 135.773 1303.7 L 136.226 1305.25 C 143.413 1304.18 151.161 1302.46 158.406 1302.43 C 172.74 1302.35 191.849 1312.24 203.116 1320.65 C 211.979 1327.28 219.592 1334.91 225.622 1344.2 L 226.464 1345.47 C 230.366 1339.44 235.285 1332.69 242.841 1331.29 C 247.668 1330.39 253.125 1332.21 257.262 1334.66 C 269.602 1344.12 275.149 1359.32 281.055 1363.95 C 284.785 1366.88 297.436 1367.14 303.9 1370.67 C 304.79 1371.33 305.666 1372.01 306.547 1372.68 C 306.849 1372.91 307.159 1373.14 307.461 1373.37 C 323.2 1385.48 334.56 1402.47 336.304 1422.57 C 336.961 1430.14 332.67 1437.09 332.809 1444.53 C 333.036 1444.38 333.249 1444.21 333.49 1444.09 C 335.704 1442.94 338.921 1442.81 341.387 1442.15 C 347.127 1440.59 354.72 1441.77 359.749 1444.98 C 365.723 1448.79 368.699 1455.15 369.849 1461.96 C 370.652 1466.72 369.613 1472.1 368.852 1476.83 C 376.976 1471.89 387.929 1464.38 398 1467 C 401.194 1467.83 403.563 1470.09 405.121 1472.9 C 408.174 1478.42 406.7 1488.53 412.844 1490.87 C 422.789 1494.66 430.368 1491.21 436.893 1502.57 C 439.129 1506.46 440.688 1510.78 442.027 1515.05 C 450.801 1518.43 514.782 1522.34 529.166 1523.69 A 2394.26 2394.26 0 0 1 677.506 1544.3 L 676.848 1549.26 C 662.501 1548.36 647.764 1545.36 633.49 1543.44 A 7923.91 7923.91 0 0 0 553.349 1533.41 A 1981 1981 0 0 0 368.181 1519.61 C 317.993 1517.84 267.551 1517 217.391 1519.72 L 103.085 1526.92 C 85.5251 1528.02 67.7715 1529.74 50.1842 1529.96 C 47.6288 1528.72 45.4264 1529.48 42.8331 1528.24 L 45.8537 1527.85 L 45.7814 1526.79 C 30.4008 1528.4 15.4298 1532.88 0 1534.56 L 0 1253.35 C 10.9852 1254.51 14.1254 1260.32 21.7855 1261.98 C 22.4934 1260.2 22.608 1259.62 22.7973 1257.84 C 23.0453 1255.5 23.5987 1254.2 24.7563 1252.19 C 26.9013 1250.73 27.4989 1250.33 30.2473 1250.61 C 42.3232 1251.86 61.0375 1275 68.6434 1284.19 z"/>
<path transform="translate(0,0)" fill="rgb(91,81,50)" d="M 172.02 1477.59 C 178 1459.59 183.576 1441.34 186.197 1422.49 C 187.239 1414.99 189.478 1396.83 183.594 1391.12 C 181.892 1389.46 179.691 1388.95 177.387 1389.31 C 162.698 1391.6 149.648 1447.72 146.838 1461.92 C 145.603 1468.15 146.579 1477.98 143.713 1483.21 C 142.469 1480.66 143.079 1476.99 143.401 1474.2 C 145.721 1454.1 155.794 1400.94 172.219 1388.98 C 174.92 1387.01 178.463 1386 181.739 1387.05 C 183.814 1387.71 185.485 1389.34 186.5 1391.22 C 196.51 1409.84 182.325 1452.62 175.885 1471.51 C 190.631 1461.06 207.903 1452.76 225.695 1449.21 C 236.447 1447.07 252.91 1446.69 262.263 1452.88 C 263.556 1454.98 264.37 1455.82 263.817 1458.41 C 259.553 1478.39 197.467 1504.57 179.778 1515.83 L 179.058 1516.3 C 228.169 1512.64 277.555 1509.54 326.835 1510.94 A 3081.79 3081.79 0 0 1 393.376 1513.24 C 409.313 1514.04 426.151 1516.06 442.027 1515.05 C 450.801 1518.43 514.782 1522.34 529.166 1523.69 A 2394.26 2394.26 0 0 1 677.506 1544.3 L 676.848 1549.26 C 662.501 1548.36 647.764 1545.36 633.49 1543.44 A 7923.91 7923.91 0 0 0 553.349 1533.41 A 1981 1981 0 0 0 368.181 1519.61 C 317.993 1517.84 267.551 1517 217.391 1519.72 L 103.085 1526.92 C 85.5251 1528.02 67.7715 1529.74 50.1842 1529.96 C 47.6288 1528.72 45.4264 1529.48 42.8331 1528.24 L 45.8537 1527.85 L 45.7814 1526.79 C 55.5079 1522.95 107.062 1521.03 122.437 1519 C 103.815 1503.99 81.8057 1493.07 66.6174 1474.04 C 61.4226 1467.52 52.8012 1455.03 54.5243 1446.44 C 55.0923 1443.6 56.0351 1442.07 58.4012 1440.4 C 62.1826 1437.73 68.1578 1438.27 72.3877 1439.25 C 92.5265 1443.9 131.795 1476.5 142.529 1494.22 C 137.34 1491.25 132.434 1485.21 128.019 1480.99 C 111.991 1465.67 89.8173 1443.92 67.0234 1440.22 C 63.7955 1439.7 61.6306 1439.94 58.8915 1441.89 C 57.246 1444.31 56.8994 1446.37 57.1058 1449.25 C 59.1329 1477.51 105.707 1501.48 125.026 1519.07 C 144.681 1518.52 164.857 1520.28 182.857 1511.44 C 198.393 1503.8 256.354 1474.38 260.474 1459.04 C 260.837 1457.69 260.552 1456.76 259.712 1455.62 C 256.736 1451.6 251.543 1450.25 246.79 1450.06 C 222.834 1449.09 190.12 1460.03 172.827 1476.79 C 172.555 1477.05 172.289 1477.33 172.02 1477.59 z"/>
<path transform="translate(0,0)" fill="rgb(144,135,99)" d="M 98.2706 1857.23 C 100.091 1833.71 99.0057 1796.61 118.456 1779.19 C 121.846 1776.16 125.898 1774.57 130.472 1774.82 C 138.864 1775.28 146.5 1781.03 151.605 1787.33 C 173.234 1814.02 178.705 1869.09 173.478 1901.91 C 173.217 1903.55 172.787 1905 172.3 1906.59 L 173.156 1907.66 C 173.419 1907.46 173.679 1907.25 173.946 1907.05 C 188.132 1896.61 205.418 1895.11 222.257 1897.95 C 237.169 1900.45 254.454 1912.65 262.966 1924.98 C 263.641 1925.96 264.088 1926.88 264.66 1927.94 L 265.676 1928.16 C 266.974 1919.92 265.854 1911.48 267.312 1903.29 C 271.014 1882.48 285.544 1844.54 303.439 1832.03 C 307.932 1828.89 312.645 1827.2 318.113 1828.29 C 322.804 1829.23 326.215 1832.27 328.603 1836.3 C 335.633 1848.19 334.861 1865.08 332.524 1878.19 C 332.235 1879.81 332.319 1879.2 332.735 1881.12 C 334.842 1880.76 336.192 1880.07 338.041 1879.09 C 341.516 1877.24 344.312 1876.54 348.2 1877.73 C 350.136 1878.32 351.868 1879.47 352.788 1881.3 C 354.485 1884.66 353.628 1887.82 352.378 1891.17 C 349.877 1897.87 344.663 1906.28 339.681 1911.45 C 351.808 1907.05 366.859 1901.76 379.488 1907.37 C 383.845 1909.3 386.898 1912.48 388.402 1917.03 C 389.751 1921.12 388.62 1933.08 390.671 1935.2 C 398.636 1936.09 406.648 1935.81 414.608 1936.76 C 440.503 1939.85 470.803 1950.17 487.331 1971.59 C 496.091 1982.94 497.649 1995.35 497.491 2009.17 C 547.455 1999.97 605.165 2014.61 646.891 2043.16 C 649.144 2044.7 651.388 2046.25 653.484 2048 L 0 2048 L 0 1847.51 C 7.7314 1844.01 15.9047 1843.16 24.0205 1846.05 C 36.0257 1850.33 42.0123 1861.51 50.7539 1864.8 L 49.653 1861.81 L 50.4038 1861.96 C 47.6876 1846.38 47.6459 1833.22 57.1819 1819.71 C 59.5172 1816.4 62.8211 1812.96 67.1569 1812.79 C 72.4113 1812.6 77.1066 1816.91 80.3607 1820.53 C 89.4158 1830.63 94.5859 1844.39 98.2706 1857.23 z"/>
<path transform="translate(0,0)" fill="rgb(224,213,183)" d="M 0 0 L 123.306 0 L 217.246 0 L 265.393 0 L 281.629 0 L 457.258 0 L 536.141 0 C 532.03 24.2327 529.767 49.0641 526.522 73.451 A 4432.37 4432.37 0 0 0 503.155 279.832 A 14988.3 14988.3 0 0 0 487.387 444.126 A 9652.6 9652.6 0 0 0 475.495 611.629 C 474.853 620.55 468.918 673.07 471.013 677.737 C 441.86 697.661 411.885 716.705 383.581 737.823 C 367.666 750.253 351.988 762.598 337.449 776.64 C 334.178 779.799 323.27 793.546 320.608 795.054 C 319.308 795.79 316.499 795.184 315.075 795.829 C 305.774 800.046 294.514 819.626 293.302 829.039 C 292.276 837.011 293.983 844.715 296.331 852.298 C 278.793 866.078 266.311 883.466 263.641 906.039 C 260.587 931.87 275.342 953.401 290.733 972.72 C 293.33 975.98 295.85 978.378 299.449 980.487 L 301.858 980.499 C 304.059 975.579 299.823 962.797 300.127 956.73 C 300.32 952.869 301.684 948.834 302.9 945.183 L 316.586 941.189 C 326.198 948.05 335.734 950.359 347.405 948.358 C 351.367 947.678 355.39 946.431 359.224 945.231 C 349.172 1072.77 341.176 1202.08 315.132 1327.57 C 312.604 1339.75 310.452 1359.05 305.103 1369.81 L 303.9 1370.67 C 297.436 1367.14 284.785 1366.88 281.055 1363.95 C 275.149 1359.32 269.602 1344.12 257.262 1334.66 C 253.125 1332.21 247.668 1330.39 242.841 1331.29 C 235.285 1332.69 230.366 1339.44 226.464 1345.47 L 225.622 1344.2 C 219.592 1334.91 211.979 1327.28 203.116 1320.65 C 191.849 1312.24 172.74 1302.35 158.406 1302.43 C 151.161 1302.46 143.413 1304.18 136.226 1305.25 L 135.773 1303.7 A 111.941 111.941 0 0 0 137.787 1297.23 C 140.742 1286.55 140.201 1270.39 134.476 1260.76 C 132.3 1257.09 129.218 1254.43 125.034 1253.39 C 118.601 1251.79 116.251 1254.09 111.126 1257.15 C 107.493 1250.86 107.098 1241.79 104.619 1234.84 C 100.854 1224.27 91.2114 1211.04 80.5722 1206.51 C 75.6678 1204.42 70.6633 1204.93 65.8971 1207.18 C 61.1088 1209.45 58.0095 1213.66 56.3417 1218.59 C 48.8933 1240.62 59.2965 1264.49 68.6434 1284.19 C 61.0375 1275 42.3232 1251.86 30.2473 1250.61 C 27.4989 1250.33 26.9013 1250.73 24.7563 1252.19 C 23.5987 1254.2 23.0453 1255.5 22.7973 1257.84 C 22.608 1259.62 22.4934 1260.2 21.7855 1261.98 C 14.1254 1260.32 10.9852 1254.51 0 1253.35 L 0 1169.23 L 0 0 z"/>
<path transform="translate(0,0)" fill="rgb(248,239,211)" d="M 217.246 0 L 265.393 0 C 246.937 70.8319 233.252 145.868 231.101 219.166 C 230.416 242.499 230.082 266.059 230.278 289.402 C 230.387 302.448 232.359 316.635 230.538 329.516 C 228.21 345.978 215.996 376.097 210.452 393.268 C 201.912 419.715 194.916 446.252 188.073 473.181 A 9276.41 9276.41 0 0 1 205.593 119.807 C 208.474 79.7886 214.671 39.9985 217.246 0 z"/>
<path transform="translate(0,0)" fill="rgb(248,239,211)" d="M 281.629 0 L 457.258 0 C 456.762 10.4012 455.382 21.7985 453.105 31.9599 C 433.202 51.7919 410.818 69.2688 390.565 88.804 C 344.628 133.114 305.63 180.277 274.473 236.199 C 263.784 255.384 254.486 275.31 244.733 294.976 C 239.344 204.586 256.839 87.341 281.629 0 z"/>
<path transform="translate(0,0)" fill="rgb(248,239,211)" d="M 0 0 L 123.306 0 C 119.735 19.2649 118.245 39.1891 115.701 58.6337 A 4258.23 4258.23 0 0 0 99.3413 191.323 C 74.9295 401.578 62.2997 612.828 44.5186 823.664 C 39.3786 884.61 36.5923 945.736 29.4048 1006.51 C 25.8991 1036.15 20.4254 1065.54 15.1963 1094.91 C 11.3105 1116.74 6.53581 1148.46 0 1169.23 L 0 0 z"/>
<path transform="translate(0,0)" fill="rgb(248,239,211)" d="M 446.3 86.8316 C 439.971 144.786 431.774 202.58 425.299 260.538 A 16828.6 16828.6 0 0 0 393.628 593.25 L 386.477 680.939 C 384.929 699.569 381.784 719.149 383.581 737.823 C 367.666 750.253 351.988 762.598 337.449 776.64 C 334.178 779.799 323.27 793.546 320.608 795.054 C 319.308 795.79 316.499 795.184 315.075 795.829 C 305.774 800.046 294.514 819.626 293.302 829.039 C 292.276 837.011 293.983 844.715 296.331 852.298 C 278.793 866.078 266.311 883.466 263.641 906.039 C 260.587 931.87 275.342 953.401 290.733 972.72 C 293.33 975.98 295.85 978.378 299.449 980.487 L 301.858 980.499 C 304.059 975.579 299.823 962.797 300.127 956.73 C 300.32 952.869 301.684 948.834 302.9 945.183 L 316.586 941.189 C 326.198 948.05 335.734 950.359 347.405 948.358 C 351.367 947.678 355.39 946.431 359.224 945.231 C 349.172 1072.77 341.176 1202.08 315.132 1327.57 C 312.604 1339.75 310.452 1359.05 305.103 1369.81 L 303.9 1370.67 C 297.436 1367.14 284.785 1366.88 281.055 1363.95 C 275.149 1359.32 269.602 1344.12 257.262 1334.66 C 246.314 1296.93 238.073 1257.55 230.423 1219.02 A 2046.3 2046.3 0 0 1 200.986 645.283 A 1246.2 1246.2 0 0 1 227.981 475.746 C 236.498 440.387 247.333 405.764 258.521 371.183 C 272.137 329.1 288.017 284.697 310.088 246.225 C 343.862 187.353 394.191 130.048 446.3 86.8316 z"/>
<path transform="translate(0,0)" fill="rgb(224,213,183)" d="M 831.927 0 L 852.571 0 L 885.332 0 L 1027.71 0 L 1201.72 0 L 1250.26 0 L 1259.18 0 L 1335.23 0 L 1356.48 0 L 1357.28 3.17796 C 1368.48 28.8919 1382.35 52.6008 1398.43 75.5536 C 1399.87 77.7676 1402.2 80.6067 1403.06 83.0399 C 1420.06 104.777 1438.9 128.701 1461.91 144.294 C 1457.96 165.051 1459.92 188.277 1459.94 209.411 L 1461.23 341.586 A 31436 31436 0 0 1 1462.9 738.427 A 8613.46 8613.46 0 0 1 1454.37 1077.36 L 1447.71 1226.46 C 1446.49 1251.83 1443.82 1277.38 1443.87 1302.75 C 1399.16 1285.22 1355.9 1263.51 1312.73 1242.55 C 1289.1 1232.25 1265.66 1220.32 1243.95 1206.37 C 1207.48 1182.93 1173.76 1155.19 1137.54 1131.2 C 1107.37 1111.22 1075.88 1091.5 1043.93 1074.5 C 1024.25 1064.02 1003.82 1054.92 983.986 1044.72 C 939.47 1022.62 898.901 995.251 851.757 978.333 C 851.887 922.29 855.04 866.191 854.83 810.095 A 14129.6 14129.6 0 0 0 840.547 242.682 L 835.034 88.2186 C 834.111 58.9517 834.639 29.1454 831.927 0 z"/>
<path transform="translate(0,0)" fill="rgb(248,239,211)" d="M 1357.28 3.17796 C 1368.48 28.8919 1382.35 52.6008 1398.43 75.5536 C 1387.85 87.1904 1354.37 137.879 1347.18 152.416 C 1353.99 121.947 1355.66 74.0748 1356.04 42.4361 C 1356.13 35.3164 1354.34 8.59046 1357.28 3.17796 z"/>
<path transform="translate(0,0)" fill="rgb(248,239,211)" d="M 1201.72 0 L 1250.26 0 A 337.918 337.918 0 0 1 1203.14 153.051 L 1201.72 0 z"/>
<path transform="translate(0,0)" fill="rgb(248,239,211)" d="M 885.332 0 L 1027.71 0 C 1028.57 76.445 1027.35 152.767 1026.87 229.194 C 1015.26 200.052 1004.1 169.8 987.477 143.092 C 967.333 110.726 940.909 83.4981 918.265 53.0454 C 905.929 36.4557 895.686 17.8715 885.332 0 z"/>
<path transform="translate(0,0)" fill="rgb(248,239,211)" d="M 1259.18 0 L 1335.23 0 A 714.407 714.407 0 0 1 1333.04 56.5682 C 1326.12 147.404 1299.9 219.936 1240.21 289.663 C 1229.66 301.998 1218.82 315.438 1206.51 326.024 C 1204.82 298.376 1205.61 270.07 1205.14 242.352 C 1204.89 227.221 1202.34 186.811 1205.18 174.661 C 1207.87 163.13 1217.18 151.388 1221.99 140.31 C 1241.49 95.4615 1257.98 49.4219 1259.18 0 z"/>
<path transform="translate(0,0)" fill="rgb(248,239,211)" d="M 831.927 0 L 852.571 0 C 865.951 30.9021 880.556 61.7065 898.547 90.248 C 905.421 101.154 914.021 111.08 921.369 121.694 C 941.401 150.633 959.158 181.369 972.242 214.094 C 988.064 253.67 1000.45 295.041 1012.56 335.865 C 1018.24 354.998 1025.38 374.865 1028.38 394.553 C 1030.05 405.527 1029.92 417.101 1030.31 428.211 L 1032.07 489.69 C 1033.48 538.957 1033.51 587.762 1033.1 637.028 C 1032.71 683.247 1031.84 729.699 1028.15 775.787 A 1625.3 1625.3 0 0 1 1004.35 950.69 C 999.814 975.399 994.401 999.678 988.494 1024.09 C 986.911 1030.63 986.13 1038.56 983.986 1044.72 C 939.47 1022.62 898.901 995.251 851.757 978.333 C 851.887 922.29 855.04 866.191 854.83 810.095 A 14129.6 14129.6 0 0 0 840.547 242.682 L 835.034 88.2186 C 834.111 58.9517 834.639 29.1454 831.927 0 z"/>
<path transform="translate(0,0)" fill="rgb(248,239,211)" d="M 1208.08 392.487 C 1218.5 380.403 1229.8 369.13 1239.99 356.816 C 1268.66 322.165 1292.37 284.729 1313.52 245.117 C 1319.21 234.462 1324.69 223.756 1328.75 212.355 C 1333.15 200.052 1336.38 186.908 1341.63 174.971 C 1344.2 169.104 1398.63 87.6824 1403.06 83.0399 C 1420.06 104.777 1438.9 128.701 1461.91 144.294 C 1457.96 165.051 1459.92 188.277 1459.94 209.411 L 1461.23 341.586 A 31436 31436 0 0 1 1462.9 738.427 A 8613.46 8613.46 0 0 1 1454.37 1077.36 L 1447.71 1226.46 C 1446.49 1251.83 1443.82 1277.38 1443.87 1302.75 C 1399.16 1285.22 1355.9 1263.51 1312.73 1242.55 C 1311.21 1228.19 1304.92 1214.04 1300.46 1200.38 C 1297.64 1191.75 1295.56 1182.96 1293.43 1174.15 A 2516.9 2516.9 0 0 1 1255.9 995.7 C 1228.21 844.259 1215.44 678.782 1210.92 524.965 C 1209.62 480.763 1207.57 436.735 1208.08 392.487 z"/>
<path transform="translate(0,0)" fill="rgb(144,135,99)" d="M 1356.48 0 L 1394.39 0 L 1459.28 0 L 1554.17 0 L 1588.41 0 L 1598.27 0 L 1643.69 0 L 1817.94 0 L 1900.08 0 L 1917.45 0 L 1948.6 0 L 1990.41 0 L 2048 0 L 2048 1029.18 L 2048 1779.51 L 2048 2048 L 997.99 2048 L 909.042 2048 C 918.09 2031.47 935.711 2016.65 953.825 2010.98 C 957.795 2009.74 961.995 2009.84 966.074 2008.62 C 967.218 2007.08 967.233 2007.51 967.464 2006 C 968.106 2001.79 968.315 1997.69 969.834 1993.64 C 979.32 1968.38 999.005 1941.36 1024.54 1930.67 C 1038.87 1924.67 1058.96 1924.16 1072.59 1932.7 C 1075.44 1934.49 1078.14 1937.96 1081.26 1938.96 C 1083.12 1939.56 1086.04 1936.09 1087.2 1934.75 C 1101.94 1917.85 1113.1 1906.41 1133.83 1896.61 C 1156.58 1885.86 1192.19 1879.81 1216.44 1888.35 C 1220.89 1882.07 1222.69 1872.49 1225.94 1865.36 C 1234.96 1845.54 1254.15 1825.52 1272.26 1813.54 C 1309.83 1788.66 1338.7 1785.91 1381.46 1794.7 C 1382.16 1723.03 1429.83 1677.12 1474.45 1627.98 C 1520.61 1637.92 1565.75 1637.53 1611.05 1623.34 C 1670.03 1604.87 1715.58 1571 1746.46 1517.4 C 1753.94 1504.42 1759.3 1490.25 1766.26 1476.98 C 1777.95 1471.95 1814.5 1455.41 1819.63 1445.97 C 1819.48 1445.71 1819.36 1445.43 1819.17 1445.2 C 1814.65 1439.71 1794.69 1440.11 1787.6 1439.68 C 1789.02 1439.32 1790.42 1438.93 1791.83 1438.54 C 1796.58 1437.24 1800.89 1435.34 1805.34 1433.26 C 1829.39 1422 1868.01 1395.9 1876.26 1369.13 C 1877.1 1366.38 1876.9 1365.27 1875.62 1362.77 C 1866.52 1358.56 1848.5 1362.06 1838.79 1363.47 C 1860.71 1344.53 1878.92 1319.71 1891.1 1293.45 C 1894.07 1287.04 1905.02 1259.43 1902.91 1253.6 C 1902.05 1253.14 1901.61 1252.82 1900.55 1252.69 C 1888.57 1251.22 1860.25 1268.5 1849.16 1274.96 C 1859.99 1255.19 1867.63 1234.8 1874.8 1213.48 C 1879.35 1211.05 1885.47 1209.41 1889.06 1205.67 L 1887.02 1204.94 L 1880.42 1194.07 C 1880.95 1189.28 1880.94 1178.53 1883.91 1175.04 L 1892.05 1174.7 L 1890.06 1173.91 L 1892.07 1174.64 C 1889.64 1174.6 1887.44 1174.04 1885.09 1173.48 C 1880.97 1168.91 1886.69 1137.01 1882.09 1127.68 C 1881.22 1125.92 1881.69 1126.56 1879.51 1125.86 C 1867.07 1129.64 1860.52 1149.98 1852.15 1154.9 C 1845.08 1159.06 1834.5 1154.61 1827.2 1152.67 A 394.3 394.3 0 0 0 1802.25 963.847 C 1798.11 953.306 1793.62 939.591 1786.82 930.616 L 1785.52 930.665 C 1782.72 935.002 1780.48 967.621 1779.32 975.404 C 1773.73 1012.66 1764.31 1049.28 1760.62 1086.81 A 578.515 578.515 0 0 0 1758.11 1124.5 C 1757.87 1134.75 1758.35 1145.12 1757.53 1155.33 L 1757.45 1156.35 C 1752.74 1141.82 1744.21 1116.32 1736.68 1103.91 C 1737.09 1103.16 1737.36 1102.79 1737.46 1101.85 C 1738.43 1092.82 1734.91 1068.51 1734.19 1058.31 L 1726.53 945.044 L 1717.94 811.261 A 9856.44 9856.44 0 0 0 1693.66 526.858 A 5406.61 5406.61 0 0 1 1686.57 454.232 C 1685.29 439.851 1685.32 423.311 1681.68 409.386 C 1676.21 388.504 1646.04 335.623 1633.28 316.964 C 1627.14 303.627 1614.19 287.812 1605.21 275.947 C 1592.21 256.329 1574.12 237.47 1557.23 221.068 C 1540.82 202.953 1515.19 182.169 1495.13 167.804 C 1484.1 159.91 1472.54 152.737 1461.91 144.294 C 1438.9 128.701 1420.06 104.777 1403.06 83.0399 C 1402.2 80.6067 1399.87 77.7676 1398.43 75.5536 C 1382.35 52.6008 1368.48 28.8919 1357.28 3.17796 L 1356.48 0 z"/>
<path transform="translate(0,0)" fill="rgb(75,68,36)" d="M 1794.15 1683.21 C 1794.65 1676.22 1794.85 1669.19 1795.48 1662.23 L 1795.62 1663.62 L 1794.41 1663.6 L 1796.27 1665.06 C 1797.63 1694.82 1796.09 1725.51 1795.59 1755.35 C 1795.41 1766.45 1796.97 1778.04 1795.51 1789.04 C 1791.26 1754.11 1793.85 1718.36 1794.15 1683.21 z"/>
<path transform="translate(0,0)" fill="rgb(224,213,183)" d="M 1900.08 0 L 1917.45 0 C 1914.66 11.0976 1911.89 22.1019 1906.93 32.4738 C 1903.03 26.3291 1901.49 7.78862 1900.08 0 z"/>
<path transform="translate(0,0)" fill="rgb(0,0,0)" d="M 1766.66 1780.6 C 1769.06 1766.02 1769.76 1750.98 1772.27 1736.29 C 1776.87 1709.34 1784.79 1682.75 1792.95 1656.69 L 1793.75 1657.81 L 1794.27 1653.93 C 1794.63 1656.42 1794.06 1658.26 1793.4 1660.62 L 1793.11 1661.63 C 1765.13 1744.84 1762.03 1820.41 1774.05 1906.85 C 1777.52 1872.12 1784.42 1824.02 1796.43 1791.77 C 1800.92 1781.28 1803.23 1768.7 1809.62 1759.21 C 1809.54 1762.12 1798.29 1794.02 1796.75 1798.9 C 1785.92 1833.17 1772.33 1892.64 1776.92 1928.95 C 1780.81 1910.33 1779.74 1891.31 1782.09 1872.49 C 1786 1841.02 1796.88 1809.62 1807 1779.71 C 1810.04 1770.73 1812.63 1760.47 1817.1 1752.12 C 1820.43 1745.9 1821.54 1738.7 1825.37 1732.8 L 1827.4 1734.68 L 1826.36 1733.34 C 1825.37 1739.98 1820.95 1746.22 1818.47 1752.42 C 1815.59 1759.59 1813.32 1767.11 1810.91 1774.45 C 1835.86 1769.32 1887.04 1768.92 1912.95 1772.59 C 1906.69 1764.31 1901.38 1756.15 1898.01 1746.24 C 1891.73 1727.74 1891.3 1709.67 1892.67 1690.48 C 1892.93 1686.87 1892.61 1682.61 1894.21 1679.35 L 1895.33 1680.18 C 1899.3 1695.67 1920.28 1726.62 1920.47 1737.97 C 1911.54 1719.54 1900.69 1700.67 1893.88 1681.43 C 1893.45 1716.23 1892.7 1745.64 1916.21 1773.59 C 1886.81 1772.01 1839.04 1770.47 1810.21 1776.12 C 1800.04 1808.21 1787.78 1840.78 1783.89 1874.35 C 1781.31 1896.66 1779.51 1919.41 1777.93 1941.82 C 1777.14 1953.15 1778.3 1966.07 1775.22 1977 C 1775.12 1961.76 1775.36 1946.44 1774.26 1931.23 C 1772.9 1912.44 1770.05 1893.82 1768.39 1875.06 C 1766.72 1856.25 1765.91 1837.37 1764.17 1818.57 C 1767.09 1806.72 1765.15 1792.86 1766.66 1780.6 z"/>
<path transform="translate(0,0)" fill="rgb(248,239,211)" d="M 1394.39 0 L 1459.28 0 C 1459.41 12.7286 1461.04 73.9683 1457.89 81.6267 C 1431.69 57.6936 1410.52 31.7488 1394.39 0 z"/>
<path transform="translate(0,0)" fill="rgb(174,169,128)" d="M 1774.05 1906.85 C 1762.03 1820.41 1765.13 1744.84 1793.11 1661.63 C 1794.75 1668.71 1793.69 1676.02 1794.15 1683.21 C 1793.85 1718.36 1791.26 1754.11 1795.51 1789.04 L 1796.43 1791.77 C 1784.42 1824.02 1777.52 1872.12 1774.05 1906.85 z"/>
<path transform="translate(0,0)" fill="rgb(248,239,211)" d="M 1817.94 0 L 1900.08 0 C 1901.49 7.78862 1903.03 26.3291 1906.93 32.4738 C 1884.34 86.4848 1847.03 133.228 1830.43 189.943 C 1826.61 163.504 1826.45 136.043 1824.64 109.358 C 1822.18 73.0199 1818.34 36.432 1817.94 0 z"/>
<path transform="translate(0,0)" fill="rgb(224,213,183)" d="M 1459.28 0 L 1554.17 0 L 1588.41 0 L 1598.27 0 C 1594.83 22.5757 1592.46 45.1263 1587.22 67.396 C 1579.88 98.5108 1567.39 126.475 1554.96 155.683 C 1521.95 132.489 1488.29 108.163 1457.89 81.6267 C 1461.04 73.9683 1459.41 12.7286 1459.28 0 z"/>
<path transform="translate(0,0)" fill="rgb(248,239,211)" d="M 1554.17 0 L 1588.41 0 C 1581.01 44.6715 1573.67 88.8007 1555.22 130.494 A 5046.95 5046.95 0 0 1 1554.17 0 z"/>
<path transform="translate(0,0)" fill="rgb(248,239,211)" d="M 1598.27 0 L 1643.69 0 C 1647.04 42.952 1652.19 85.7933 1656.58 128.65 C 1659.26 154.796 1661.07 181.022 1663.68 207.172 C 1666.25 233.04 1669.72 258.675 1671.5 284.644 C 1641.95 234.077 1600.34 192.196 1554.96 155.683 C 1567.39 126.475 1579.88 98.5108 1587.22 67.396 C 1592.46 45.1263 1594.83 22.5757 1598.27 0 z"/>
<path transform="translate(0,0)" fill="rgb(248,239,211)" d="M 1903.42 109.913 C 1905.59 120.304 1904.43 132.911 1904.15 143.557 C 1903.57 166.138 1902.08 188.696 1901.95 211.287 L 1900.09 399.5 C 1899.72 460.71 1900.33 521.916 1899.2 583.12 C 1898.88 600.694 1899.07 752.371 1896.39 756.835 C 1895.79 757.824 1895.07 758.471 1894.28 759.267 C 1888.77 725.569 1885.53 691.177 1881.45 657.259 A 10848.2 10848.2 0 0 1 1857.95 442.836 L 1848.66 356.444 C 1846.21 331.758 1843.62 307.213 1845.71 282.381 C 1849.79 233.981 1861.45 194.266 1881.8 150.343 C 1888.18 136.555 1894.78 122.448 1903.42 109.913 z"/>
<path transform="translate(0,0)" fill="rgb(224,213,183)" d="M 1948.6 0 L 1990.41 0 L 2048 0 L 2048 1029.18 C 2035.33 1032.04 2021.79 1035.27 2009.92 1040.61 C 2005.87 1041.55 2001.09 1044.2 1997.21 1045.89 C 1973.65 1056.14 1957.53 1070.9 1942.5 1091.43 A 6151.07 6151.07 0 0 0 1915.34 903.971 C 1910.15 871.058 1904.95 838.23 1900.33 805.228 C 1898.19 789.993 1895.47 774.598 1894.28 759.267 C 1895.07 758.471 1895.79 757.824 1896.39 756.835 C 1899.07 752.371 1898.88 600.694 1899.2 583.12 C 1900.33 521.916 1899.72 460.71 1900.09 399.5 L 1901.95 211.287 C 1902.08 188.696 1903.57 166.138 1904.15 143.557 C 1904.43 132.911 1905.59 120.304 1903.42 109.913 C 1920.47 78.2016 1946.15 36.3995 1948.6 0 z"/>
<path transform="translate(0,0)" fill="rgb(248,239,211)" d="M 1990.41 0 L 2048 0 L 2048 1029.18 C 2035.33 1032.04 2021.79 1035.27 2009.92 1040.61 C 2007.75 1034.3 2005 989.78 2003.81 979.003 C 1988.92 843.693 1989.21 707.467 1987.81 571.551 A 14762.8 14762.8 0 0 1 1990.41 0 z"/>
<path transform="translate(0,0)" fill="rgb(174,169,128)" d="M 1975.49 1598 C 1975.71 1609.99 1973.64 1622.08 1972.65 1634.02 C 1971.82 1643.96 1971.71 1654 1970.14 1663.86 C 1968.6 1673.51 1961.19 1699.05 1961.94 1706.77 L 1962.39 1707.17 L 1963.02 1706.16 C 1971.19 1693.13 1982.49 1678.79 1991.93 1666.59 C 1994.64 1663.08 1999.44 1658.87 2001.32 1655.13 C 2000.54 1691.37 1980.99 1749.92 1956.9 1776.49 C 1978.41 1776.43 2000.33 1776.82 2021.81 1777.76 C 2030.49 1778.13 2039.36 1779.66 2048 1779.51 L 2048 2048 L 997.99 2048 C 998.18 2047.79 998.361 2047.58 998.559 2047.38 C 1004.89 2041.04 1013.7 2035.45 1021.14 2030.49 C 1052.02 2009.87 1088.46 1992.19 1124.22 1982.03 C 1132.79 1979.59 1141.88 1978.53 1150.62 1976.73 C 1155.37 1975.75 1159.95 1973.93 1164.75 1973.18 C 1173.57 1971.8 1182.82 1971.79 1191.74 1971.23 C 1197.5 1970.87 1202.99 1969.31 1208.65 1969 C 1222.43 1968.24 1236.44 1969.04 1250.24 1968.97 C 1253.32 1968.96 1261.35 1969.27 1263.6 1967.34 C 1268.54 1963.11 1276.76 1943.99 1281.02 1937.43 C 1285.05 1931.22 1290.12 1925.78 1295.35 1920.56 C 1337.21 1878.7 1390.62 1861.69 1447.92 1854.49 C 1465.54 1852.28 1482.6 1850.36 1500.38 1850.35 C 1504.4 1843.41 1508 1837.04 1513.7 1831.3 C 1533.71 1811.14 1566.77 1810.32 1593.35 1810.34 C 1608.2 1825.18 1624.23 1839.65 1637.89 1855.57 C 1654.75 1875.24 1668.49 1896.65 1683.28 1917.84 C 1690.78 1928.59 1699.43 1938.74 1706.26 1949.87 C 1699.64 1945.29 1694.04 1939.45 1687.9 1934.27 C 1673.07 1921.77 1657.01 1910.09 1639.86 1901.02 C 1622.26 1891.71 1605.23 1885.07 1585.79 1881.15 C 1582.42 1880.47 1578.29 1878.92 1574.93 1879.97 L 1575.06 1881.51 C 1576.86 1882.42 1576.08 1882.34 1577.8 1882.23 C 1585.28 1881.76 1592.24 1884.81 1599.32 1886.87 C 1637.65 1898.02 1675.58 1923 1703.57 1951.71 A 220.089 220.089 0 0 1 1719.07 1969.58 C 1725.86 1978.28 1732.42 1992.23 1743.65 1996.07 L 1744.4 1995.37 C 1742.8 1990.02 1715.38 1950.37 1710.64 1943.82 C 1677.36 1897.73 1644.81 1850.52 1603.96 1810.71 C 1584.98 1792.2 1563.88 1776.59 1544.09 1759.04 C 1621.92 1785.2 1666.51 1802.23 1711.17 1875.64 C 1720.24 1890.55 1725.28 1908.47 1735.22 1922.69 C 1739.63 1928.98 1740.31 1936.38 1743.95 1942.9 C 1744.85 1944.52 1745.13 1945.29 1746.95 1945.8 L 1747.39 1944.32 C 1744.76 1940.2 1743.8 1935.22 1741.94 1930.68 C 1733.36 1909.73 1724.37 1889.11 1714.02 1868.96 C 1710.25 1861.62 1704.36 1855.27 1701.2 1847.86 C 1697.4 1838.95 1690.94 1830.68 1685.61 1822.6 C 1663.2 1788.58 1645.86 1766.98 1615.85 1739.13 C 1615.44 1738.75 1614.08 1737.41 1613.78 1737.21 C 1613.42 1736.96 1612.97 1736.86 1612.56 1736.68 C 1612.88 1736.64 1613.19 1736.53 1613.51 1736.54 C 1617.26 1736.68 1620.38 1739.66 1623.55 1741.33 C 1626.19 1742.72 1629.16 1743.4 1631.83 1744.87 C 1645.42 1752.34 1658.73 1763.79 1670.07 1774.43 C 1677.8 1781.68 1685.16 1789.69 1693.62 1796.1 C 1703.21 1803.37 1710.83 1813.81 1717.04 1824.01 C 1719.35 1827.8 1721.31 1833.17 1724.66 1836.04 L 1725.54 1835.16 C 1725.29 1833.42 1724.88 1832.77 1723.85 1831.26 C 1715.82 1819.47 1709.96 1807.73 1699.6 1797.61 L 1699.84 1796.67 C 1704.57 1791.8 1717.75 1785.09 1724.39 1784.86 C 1725.31 1784.83 1729.59 1785.05 1730.23 1785.68 C 1730.64 1786.08 1732.41 1883.16 1751.15 1902.11 C 1747.68 1894.42 1745.93 1885.84 1743.88 1877.67 C 1741.76 1869.16 1739.07 1860.33 1737.69 1851.69 C 1731.71 1814.28 1730.96 1768.94 1735.01 1731.4 C 1735.64 1725.58 1734.85 1717.27 1736.96 1711.94 C 1737.11 1711.55 1737.28 1711.17 1737.45 1710.79 L 1737.15 1711.2 C 1739.79 1714.48 1751.26 1766.88 1754.12 1775.79 L 1754.4 1776.63 C 1755.38 1789.11 1759.28 1807 1764.17 1818.57 C 1765.91 1837.37 1766.72 1856.25 1768.39 1875.06 C 1770.05 1893.82 1772.9 1912.44 1774.26 1931.23 C 1775.36 1946.44 1775.12 1961.76 1775.22 1977 C 1778.3 1966.07 1777.14 1953.15 1777.93 1941.82 C 1779.51 1919.41 1781.31 1896.66 1783.89 1874.35 C 1787.78 1840.78 1800.04 1808.21 1810.21 1776.12 C 1839.04 1770.47 1886.81 1772.01 1916.21 1773.59 C 1892.7 1745.64 1893.45 1716.23 1893.88 1681.43 C 1900.69 1700.67 1911.54 1719.54 1920.47 1737.97 C 1921.38 1740.82 1925.23 1746.32 1927.64 1748.07 C 1929.61 1746.35 1929.25 1744.98 1929.46 1742.51 C 1932.88 1700.88 1958.12 1637.09 1975.49 1598 z"/>
<path transform="translate(0,0)" fill="rgb(157,153,113)" d="M 1879.37 1957.55 C 1875.76 1950.56 1877.06 1938.73 1876.25 1930.73 C 1875.12 1919.5 1873.51 1899.15 1871.39 1888.9 C 1870.35 1883.86 1868.4 1879.14 1867.47 1874.02 L 1868.35 1872.78 L 1869.74 1873.42 C 1878.64 1885.86 1881.85 1912.7 1883.48 1928 C 1884.12 1934 1884.01 1940.68 1885.4 1946.5 C 1885.52 1946.99 1885.64 1947.49 1885.77 1947.98 L 1882.16 1945.46 L 1880.69 1945.96 C 1880.02 1949.98 1880.6 1953.6 1879.37 1957.55 z"/>
<path transform="translate(0,0)" fill="rgb(157,153,113)" d="M 1523.74 2003.27 C 1535.56 1999.39 1551.98 2004.96 1564.3 2005.49 L 1562.64 2003.05 L 1563.8 2002.63 C 1565.99 2003.13 1588.18 2013.67 1589.62 2015.03 C 1587.21 2016.45 1581.32 2015.54 1578.37 2015.49 C 1569.82 2011.87 1545.36 2014.41 1534.66 2013.32 C 1525.62 2012.39 1516.89 2009.26 1507.79 2008.25 C 1507.36 2008.2 1506.93 2008.16 1506.5 2008.12 L 1506.23 2007.16 C 1511.75 2004.45 1517.67 2003.73 1523.74 2003.27 z"/>
</svg>