<svg version="1.1" xmlns="http://www.w3.org/2000/svg" style="display: block;" viewBox="0 0 2048 2048" width="1024" height="1024">
<path transform="translate(0,0)" fill="rgb(75,28,59)" d="M 0 0 L 2048 0 L 2048 2048 L 1999.76 2048 L 1978.58 2048 L 1821.94 2048 L 1814.34 2048 L 1461.3 2048 L 1444.37 2048 L 1415.79 2048 L 1401.92 2048 L 1143.05 2048 L 1138.04 2048 L 933.152 2048 L 917.78 2048 L 849.75 2048 L 831.578 2048 L 683.849 2048 L 672.58 2048 L 484.712 2048 L 465.78 2048 L 453.637 2048 L 438.044 2048 L 210.876 2048 L 190.983 2048 L 0 2048 L 0 0 z"/>
<path transform="translate(0,0)" fill="rgb(245,245,243)" d="M 1251.45 1024.71 C 1252.12 1028.47 1253.74 1032.44 1254.2 1036.09 C 1254.58 1039.15 1253.75 1039.46 1251.8 1041.62 C 1249.79 1040.73 1249.27 1040.56 1247.89 1038.76 C 1247.37 1033.78 1249.69 1029.27 1251.45 1024.71 z"/>
<path transform="translate(0,0)" fill="rgb(245,245,243)" d="M 1341.78 656.393 C 1342.53 656.482 1343.89 656.6 1344.57 656.877 C 1346.74 657.762 1346.71 658.926 1347.16 660.94 C 1346.02 664.855 1343.98 667.325 1341.45 670.48 L 1340.4 671.461 L 1339.06 671.201 C 1338.37 665.968 1339.38 661.066 1341.78 656.393 z"/>
<path transform="translate(0,0)" fill="rgb(103,43,67)" d="M 1377.82 687.762 C 1380.82 689.346 1383.66 690.827 1386.88 691.879 C 1389.86 692.846 1392.73 694.403 1394.37 697.176 C 1395.09 698.389 1394.76 698.981 1394.61 700.286 C 1392.07 703.639 1383.36 707.968 1379.22 709.095 C 1374.46 707.206 1371.47 705.597 1368.19 701.604 L 1368.5 700.039 C 1370.76 698.991 1372.55 698.834 1374.99 698.689 C 1376.83 698.581 1378.26 698.512 1380.06 698.071 L 1380.27 697.228 C 1376.78 692.728 1370.58 695.465 1365.67 693.46 L 1365.63 692.189 L 1367.04 691.007 C 1368.53 691.08 1367.98 690.967 1369.3 691.335 C 1370.51 691.673 1371.73 692.078 1372.97 692.323 C 1375.29 692.783 1376.31 693.069 1378.33 691.62 L 1377.82 687.762 z"/>
<path transform="translate(0,0)" fill="rgb(245,245,243)" d="M 1364.78 666.149 C 1367.46 665.861 1369.24 665.89 1371.92 666.452 C 1378.11 667.747 1383.65 668.242 1389.96 668.354 C 1379.73 671.39 1370.7 673.962 1361.75 679.915 L 1352.23 687.93 C 1349.71 685.429 1347.6 682.53 1345.42 679.732 C 1351.37 672.325 1355.98 669.237 1364.78 666.149 z"/>
<path transform="translate(0,0)" fill="rgb(245,245,243)" d="M 1253.53 1018.99 C 1261.72 1009.78 1271.96 1003.84 1282.66 998.002 C 1280.66 1002.15 1279.13 1006.38 1278.79 1011.01 C 1278.16 1019.55 1282.2 1025.18 1287.46 1031.29 C 1286.65 1031.65 1285.84 1032 1285.02 1032.33 C 1280.11 1034.29 1269.9 1038.91 1264.89 1036.8 C 1261.88 1030.02 1258.93 1024.25 1253.53 1018.99 z"/>
<path transform="translate(0,0)" fill="rgb(245,245,243)" d="M 1333.29 977.118 L 1334.74 977.135 C 1338.85 982.076 1338.95 1001.35 1339.73 1008.32 C 1337.26 1010.43 1334.44 1012.71 1331.51 1014.12 C 1329.24 1015.22 1328.02 1015.08 1325.74 1014.26 C 1323.07 1012.15 1320.54 1009.79 1317.98 1007.54 C 1315.22 998.947 1314.78 991.817 1315.1 982.858 C 1321 980.418 1327.14 978.82 1333.29 977.118 z"/>
<path transform="translate(0,0)" fill="rgb(245,245,243)" d="M 1311.92 983.393 C 1309.18 991.359 1306.4 1001.28 1310.3 1009.36 C 1311 1010.82 1311.96 1012.18 1312.88 1013.51 L 1319.94 1019.45 C 1311.68 1022.06 1303.41 1024.94 1295.02 1027.09 C 1285.19 1019.17 1284.27 1009.84 1282.66 998.002 C 1290.75 991.238 1302.26 987.477 1311.92 983.393 z"/>
<path transform="translate(0,0)" fill="rgb(245,245,243)" d="M 386.955 498.85 C 386.96 506.843 362.722 552.363 356.544 559.643 C 347.781 562.501 338.564 564.227 329.498 565.795 L 329.547 563.789 C 338.81 550.653 374.764 508.611 386.955 498.85 z"/>
<path transform="translate(0,0)" fill="rgb(245,245,243)" d="M 1385.24 918.941 A 186.937 186.937 0 0 1 1388.3 923.118 C 1391.41 927.512 1393.85 932.29 1392.63 937.836 C 1388.13 958.343 1336.15 961.315 1319.18 967.612 C 1299.31 974.981 1281.29 984.4 1263.54 995.872 C 1262.58 996.708 1261.56 997.007 1260.39 997.48 C 1260.88 993.257 1265.6 987.564 1268.25 984.255 C 1298.72 946.167 1368.2 947.719 1385.24 918.941 z"/>
<path transform="translate(0,0)" fill="rgb(184,175,174)" d="M 627.49 1135.08 C 627.362 1139.14 624.395 1144.11 622.833 1147.87 C 613.689 1169.88 605.295 1192.71 599.438 1215.82 C 576.565 1306.08 571.887 1399.14 579.908 1491.64 C 582.39 1520.27 585.509 1550.14 593.542 1577.8 C 585.323 1581.03 577.307 1584.84 569.257 1588.47 L 563.566 1590.89 C 559.765 1568.82 558.969 1545.42 557.598 1523.03 C 551.727 1427.11 556.854 1339.67 579.027 1245.82 C 585.466 1218.57 599.574 1161.07 617.904 1141.8 C 620.487 1139.09 624.31 1137.05 627.49 1135.08 z"/>
<path transform="translate(0,0)" fill="rgb(245,245,243)" d="M 255.135 1458.55 C 259.379 1466.12 260.582 1480.4 262.667 1489.05 C 266.832 1506.35 270.928 1523.78 276.342 1540.73 C 290.248 1584.28 306.701 1628.16 326.726 1669.24 C 345.523 1707.8 367.46 1744.5 389.421 1781.3 C 399.85 1798.77 409.988 1820.3 423.69 1835.16 L 427.708 1863.77 L 420.848 1856.4 C 361.983 1794.45 300.439 1681.96 268.589 1602.17 A 891.673 891.673 0 0 1 251.173 1553.58 C 247.674 1542.7 244.821 1530.96 240.188 1520.55 C 240.052 1520.25 239.908 1519.94 239.769 1519.64 A 351.843 351.843 0 0 1 255.135 1458.55 z"/>
<path transform="translate(0,0)" fill="rgb(184,175,174)" d="M 1253.56 1235.17 L 1254.99 1235.37 C 1255.26 1235.97 1255.62 1236.54 1255.82 1237.17 C 1258.08 1244.42 1255.09 1293.57 1254.5 1303.35 A 784.661 784.661 0 0 1 1118.65 1702.37 L 1106.26 1689.64 C 1101.55 1684.78 1096.32 1680.28 1091.34 1675.68 C 1095.29 1672.24 1099.17 1668.63 1102.73 1664.78 C 1158.34 1604.59 1202.05 1468.42 1215.27 1387.96 A 754.923 754.923 0 0 0 1224.03 1241.47 C 1233.72 1238.95 1243.75 1237.23 1253.56 1235.17 z"/>
<path transform="translate(0,0)" fill="rgb(184,175,174)" d="M 656.69 1110.83 C 659.455 1112.91 661.929 1116.26 664.294 1118.83 C 656.593 1139.42 650.158 1159.48 645.299 1180.92 C 628.666 1254.3 624.028 1339.36 653.514 1410.1 C 663.479 1434.01 677.938 1456.08 691.237 1478.22 C 707.345 1505.03 723.189 1531.79 739.881 1558.26 C 721.625 1554.07 705.315 1553.98 686.763 1555.19 C 657.366 1558.61 630.151 1565.45 602.127 1574.88 C 596.504 1551.58 593.46 1527.05 590.852 1503.25 C 584.642 1446.58 583.014 1390.8 588.094 1333.97 C 593.314 1275.58 603.473 1217.49 624.022 1162.46 C 628.186 1151.3 632.231 1139.49 638.78 1129.48 C 643.727 1121.92 649.831 1116.57 656.69 1110.83 z"/>
<path transform="translate(0,0)" fill="rgb(184,175,174)" d="M 836.258 1615.29 C 856.969 1613.26 877.515 1612.01 898.333 1612.19 C 848.179 1682.95 856.483 1752.17 870.139 1832.43 C 876.368 1869.03 884.186 1906.18 892.847 1942.29 C 901.269 1977.41 910.709 2012.59 917.78 2048 L 849.75 2048 C 837.474 2000.97 827.477 1953.81 818.149 1906.11 C 807.396 1851.11 797.685 1795.21 793.396 1739.31 C 792.091 1722.3 789.978 1704.47 791.798 1687.44 C 792.942 1676.74 796.419 1667.64 801.784 1658.39 C 810.893 1642.68 823.03 1627.71 836.258 1615.29 z"/>
<path transform="translate(0,0)" fill="rgb(75,28,59)" d="M 821.177 1678.07 C 822.463 1677.97 823.752 1677.86 825.044 1677.85 C 829.183 1677.83 833.212 1679.71 836.105 1682.65 C 839.267 1685.86 840.604 1690 840.38 1694.47 C 840.071 1700.65 836.958 1703.97 832.516 1707.89 C 831.197 1708.28 829.381 1708.94 828.011 1708.88 C 825.295 1708.74 822.591 1707.32 820.634 1705.48 C 816.344 1701.43 814.606 1695.46 814.763 1689.67 C 814.909 1684.34 817.477 1681.59 821.177 1678.07 z"/>
<path transform="translate(0,0)" fill="rgb(75,28,59)" d="M 861.971 1956.94 C 863.408 1956.9 865.099 1956.77 866.542 1956.98 C 871.649 1957.73 875.382 1961.15 878.158 1965.33 C 881.447 1970.28 882.828 1976.64 881.374 1982.45 C 880.137 1987.38 877.933 1989.96 873.708 1992.62 C 872.134 1992.67 870.541 1992.71 868.971 1992.57 C 864.098 1992.12 860.624 1989.19 857.699 1985.45 A 21.304 21.304 0 0 1 853.429 1968.55 C 854.433 1962.96 857.395 1959.97 861.971 1956.94 z"/>
<path transform="translate(0,0)" fill="rgb(184,175,174)" d="M 823.025 988.661 C 832.777 1012.24 849.195 1038.78 869.323 1055.02 C 869.383 1055.07 869.415 1055.15 869.461 1055.21 C 871.698 1070.08 910.005 1101.54 922.127 1110.48 C 993.926 1163.46 1145.89 1213.08 1234.48 1219.92 C 1143.76 1231.7 1086.03 1256.76 1028.64 1330.98 L 1027.75 1332.13 C 1005.92 1323.66 986.751 1309.58 968.953 1294.58 C 907.057 1242.45 858.272 1171.6 825.549 1097.87 C 818.706 1082.45 812.784 1066.29 807.527 1050.27 C 805.282 1043.43 804.166 1032.33 800.608 1026.44 C 800.36 1026.03 800.092 1025.63 799.833 1025.23 C 812.252 1014.8 818.318 1003.99 823.025 988.661 z"/>
<path transform="translate(0,0)" fill="rgb(184,175,174)" d="M 1215.13 1243.3 C 1215.91 1243.78 1216.33 1244.53 1216.5 1245.46 C 1218.19 1254.93 1214.26 1304 1213.19 1316.41 C 1204.38 1419.28 1176.65 1518.39 1126.74 1609.06 C 1114.64 1631.05 1100.88 1652.02 1087.28 1673.1 C 1041.99 1635.25 997.446 1609.82 938.889 1597.27 C 912.323 1592.46 885.738 1593.29 858.965 1595.16 C 886.519 1574.5 916.825 1557.92 944.018 1536.66 C 1016.07 1480.34 1077.95 1409.71 1111.44 1323.56 C 1118.3 1305.91 1125.04 1287.73 1127.37 1268.87 C 1156.14 1256.25 1184.5 1249.46 1215.13 1243.3 z"/>
<path transform="translate(0,0)" fill="rgb(245,245,243)" d="M 238.205 1548.14 C 265.945 1647.27 317.976 1746.77 380.87 1827.96 C 390.669 1840.61 401.293 1852.42 412.252 1864.06 C 418.677 1870.89 425.931 1877.63 431.623 1885.05 C 438.76 1940.54 450.365 1994.27 465.78 2048 L 453.637 2048 L 438.044 2048 L 210.876 2048 C 212.835 2015.14 215.965 1982.35 217.862 1949.49 C 221.161 1892.34 223.069 1835 225.353 1777.8 C 228.397 1701.56 228.726 1623.9 238.205 1548.14 z"/>
<path transform="translate(0,0)" fill="rgb(75,28,59)" d="M 283.548 1814.63 C 289.408 1820.22 303.014 1850.34 307.814 1859.35 C 316.462 1875.59 325.18 1891.99 335.325 1907.36 C 352.13 1932.81 371.156 1958.45 394.12 1978.67 C 398.149 1982.22 402.475 1985.78 407.003 1988.67 C 410.544 1990.93 414.644 1992.37 417.697 1995.29 L 417.552 1995.92 L 418.091 1996.88 C 415.947 1996.89 414.025 1996.83 411.921 1996.36 C 378.465 1988.83 346.41 1943.99 328.765 1916.46 C 318.963 1901.17 280.605 1828.14 283.548 1814.63 z"/>
<path transform="translate(0,0)" fill="rgb(75,28,59)" d="M 263.309 1859.27 C 277.476 1876.97 288.938 1896.67 303.446 1914.24 C 333.745 1950.94 369.626 1986.65 407.405 2015.71 C 422.31 2027.17 438.701 2036.6 453.637 2048 L 438.044 2048 C 376.837 2016.07 317.245 1957.79 282.018 1898.55 C 275.015 1886.77 267.923 1874.27 263.86 1861.13 C 263.669 1860.51 263.493 1859.89 263.309 1859.27 z"/>
<path transform="translate(0,0)" fill="rgb(245,245,243)" d="M 718.202 1019.56 C 726.579 1023.91 735.298 1027.86 744.327 1030.65 C 764.658 1036.95 781.04 1035.05 799.833 1025.23 C 800.092 1025.63 800.36 1026.03 800.608 1026.44 C 804.166 1032.33 805.282 1043.43 807.527 1050.27 C 812.784 1066.29 818.706 1082.45 825.549 1097.87 C 858.272 1171.6 907.057 1242.45 968.953 1294.58 C 986.751 1309.58 1005.92 1323.66 1027.75 1332.13 C 1008.64 1357.02 994.731 1388.67 989.901 1419.69 C 1013.69 1392.32 1027.07 1354.22 1055.38 1330.14 C 1063.83 1331.24 1072.23 1334.01 1080.44 1336.24 C 1047.1 1422.56 978.253 1489.15 904.606 1541.97 C 866.831 1569.06 835.107 1588.31 802.383 1622.18 A 7518.63 7518.63 0 0 1 742.045 1525.78 C 732.256 1509.82 721.415 1493.89 713.243 1477.06 C 705.707 1461.54 699.965 1445.12 694.957 1428.63 C 673.111 1356.71 649.666 1251.6 666.251 1177.93 C 671.161 1156.12 681.018 1137.17 689.292 1116.69 C 694.855 1102.93 692.644 1095.24 700.927 1079.75 C 701.129 1090.84 702.186 1101.84 702.262 1112.97 C 721.858 1078.4 726.919 1058.44 718.202 1019.56 z"/>
<path transform="translate(0,0)" fill="rgb(75,28,59)" d="M 699.049 1230.55 C 700.162 1231.22 701.018 1231.77 701.591 1233.02 C 703.866 1237.99 704.883 1244.88 706.358 1250.21 A 711.649 711.649 0 0 0 716.797 1284.07 C 732.744 1330.16 751.808 1375.44 776.547 1417.56 C 785.227 1432.33 796.445 1445.68 804.872 1460.5 L 805.282 1461.24 C 803.125 1460.44 802.029 1459.62 800.298 1458.14 C 794.18 1452.88 789.266 1446.03 784.321 1439.7 C 746.428 1391.21 704.5 1291.93 699.049 1230.55 z"/>
<path transform="translate(0,0)" fill="rgb(245,245,243)" d="M 1461.3 2048 C 1461.4 2022.38 1461.61 1996.67 1463.99 1971.15 C 1476.99 1831.7 1531.24 1613.81 1633.58 1512.08 C 1658.6 1487.21 1691.95 1465.36 1727.64 1461.37 C 1843.75 1599.91 1929.07 1872.1 1978.58 2048 L 1821.94 2048 L 1814.34 2048 L 1461.3 2048 z"/>
<path transform="translate(0,0)" fill="rgb(103,43,67)" d="M 1623.36 1893.63 C 1623.04 1899.54 1622.74 1905.09 1620.97 1910.77 L 1621.65 1908.49 L 1620.48 1910.17 C 1617.39 1900.4 1617.78 1887.7 1618.88 1877.62 C 1619.31 1882.34 1618.55 1888.07 1620.31 1892.42 L 1623.36 1893.63 z"/>
<path transform="translate(0,0)" fill="rgb(75,28,59)" d="M 1618.88 1877.62 C 1618.43 1850.02 1624.14 1663.44 1630.16 1654.22 C 1632.35 1656.03 1632.86 1659.15 1633.05 1661.93 C 1633.61 1670.11 1633.11 1678.53 1633.27 1686.74 C 1634.17 1731.56 1631.53 1776.38 1628.76 1821.1 C 1627.3 1844.78 1627.19 1870.22 1623.36 1893.63 L 1620.31 1892.42 C 1618.55 1888.07 1619.31 1882.34 1618.88 1877.62 z"/>
<path transform="translate(0,0)" fill="rgb(75,28,59)" d="M 1645.38 1668.52 L 1647.1 1670.1 C 1657.63 1702.9 1644.7 1948.07 1636.87 1992.83 L 1636.36 1995.09 L 1635.16 1994.3 C 1631.63 1977.82 1634.41 1944.8 1634.87 1926.53 A 10044.2 10044.2 0 0 1 1642.12 1739.17 C 1643.01 1718.02 1640.93 1688.05 1645.38 1668.52 z"/>
<path transform="translate(0,0)" fill="rgb(75,28,59)" d="M 1761.71 1600.51 C 1762.91 1601.26 1763.07 1601.26 1764.15 1602.45 C 1768.75 1607.49 1775.57 1636.81 1777.72 1644.38 A 3211.78 3211.78 0 0 1 1839.98 1905.54 C 1843.84 1924.65 1854.85 1973.72 1852.65 1990.79 C 1852.3 1990.32 1851.73 1989.61 1851.43 1989.05 C 1847.59 1981.84 1846.34 1969.38 1844.52 1961.26 L 1826.29 1876.04 A 4587.74 4587.74 0 0 0 1783.8 1697.37 C 1779.49 1681.12 1759.22 1610.72 1761.71 1600.51 z"/>
<path transform="translate(0,0)" fill="rgb(75,28,59)" d="M 1814.34 2048 A 6114.86 6114.86 0 0 0 1778.96 1761.91 A 5292.89 5292.89 0 0 0 1765.92 1680.73 C 1761.8 1656.51 1757.04 1632.08 1755.86 1607.51 C 1761.3 1622.47 1764.23 1638.07 1767.52 1653.6 A 1685.56 1685.56 0 0 1 1780.58 1721.02 A 3414.25 3414.25 0 0 1 1821.94 2048 L 1814.34 2048 z"/>
<path transform="translate(0,0)" fill="rgb(245,245,243)" d="M 260.036 1444.94 C 268.955 1421 281.064 1400.58 297.851 1381.27 C 315.219 1361.29 335.62 1344.28 355.859 1327.32 C 410.157 1281.82 468.439 1241.22 527.238 1201.79 C 546.974 1188.55 566.385 1174.2 586.456 1161.56 C 537.394 1277.16 528.908 1425.17 540.255 1548.96 C 541.332 1560.72 544.687 1603.24 549.293 1612.32 C 550.579 1614.85 551.355 1614.77 553.916 1615.54 C 567.81 1612.06 580.952 1602.91 594.444 1597.74 C 630.758 1583.82 714.755 1559.6 749.085 1580.46 C 765.037 1590.15 781.213 1622.42 790.525 1639.01 C 783.582 1651.37 776.339 1664.17 774.316 1678.42 C 767.921 1723.48 778.74 1779.93 785.832 1824.6 A 2260.99 2260.99 0 0 0 831.578 2048 L 683.849 2048 L 672.58 2048 L 484.712 2048 C 472.263 2008.8 463.304 1966.99 456.119 1926.51 A 2965.4 2965.4 0 0 1 439.595 1818.09 C 435.806 1790.46 421.115 1640.04 407.152 1626.61 C 405.512 1627.73 406.029 1627 405.549 1629.26 C 401.271 1649.49 411.617 1717.72 414.161 1743 C 416.157 1762.83 417.339 1782.73 419.383 1802.55 C 406.707 1780.32 400.202 1753.09 392.854 1728.69 C 386.502 1707.6 379.816 1686.53 374.017 1665.28 C 368.963 1646.75 337.895 1506.86 331.533 1502.09 L 330.244 1502.92 C 329.214 1511.26 331.015 1520.77 331.949 1529.15 C 334.918 1555.76 340.259 1581.81 345.656 1608.01 C 353.774 1647.41 362.692 1686.86 376.407 1724.76 C 384.841 1748.06 395.798 1770.17 407.732 1791.85 C 410.007 1795.99 422.887 1815.81 421.008 1818.61 C 409.966 1807.82 393.2 1774.67 385.035 1759.87 C 361.415 1717.06 337.952 1673.53 318.499 1628.65 C 307.652 1603.63 298.429 1577.81 289.389 1552.08 C 277.161 1517.28 266.16 1481.35 260.036 1444.94 z"/>
<path transform="translate(0,0)" fill="rgb(75,28,59)" d="M 533.872 1738.51 C 535.739 1739.54 535.369 1739.07 536.541 1740.63 C 541.009 1746.56 562.696 1818.71 566.963 1831.37 C 581.93 1875.78 598.554 1920.1 615.456 1963.81 C 623.083 1983.54 632.569 2003.15 639.025 2023.25 L 636.578 2022.78 C 631.405 2017.95 627.681 2006.65 624.756 2000.25 C 595.504 1936.2 572.383 1868.57 551.683 1801.33 C 545.471 1781.15 537.192 1759.32 533.872 1738.51 z"/>
<path transform="translate(0,0)" fill="rgb(75,28,59)" d="M 544.321 1724.85 C 551.896 1737.83 556.423 1752.87 561.65 1766.93 L 582.105 1820.93 C 605.871 1883.06 631.729 1945.53 661.67 2004.94 C 668.857 2019.2 675.594 2034.37 683.849 2048 L 672.58 2048 C 660.285 2023.92 647.667 1999.94 636.384 1975.36 A 2095.03 2095.03 0 0 1 570.628 1810.36 C 561.336 1784.21 548.981 1751.8 544.321 1724.85 z"/>
<path transform="translate(0,0)" fill="rgb(245,245,243)" d="M 1378.73 1188.73 C 1400.62 1198.14 1421.88 1212.8 1442.07 1225.55 A 1475.78 1475.78 0 0 1 1657.57 1389.35 C 1680.64 1410.55 1703.26 1431.74 1723.19 1456 C 1683.45 1456.19 1649.19 1477.71 1621.92 1505.27 C 1519.52 1608.76 1465.41 1823.31 1450.91 1965.26 C 1435.22 1876.88 1453.51 1764.1 1484.72 1680.77 C 1503.86 1629.63 1533.36 1574.35 1564.58 1529.7 A 527.868 527.868 0 0 1 1590.95 1495.19 C 1595.32 1490.02 1603.25 1483.6 1606.47 1477.93 C 1606.83 1477.3 1606.62 1476.49 1606.7 1475.76 L 1604.34 1474.38 C 1598.49 1476.02 1592.87 1482.35 1588.57 1486.43 C 1555.98 1517.35 1531.18 1557.29 1509.31 1596.19 C 1455.77 1691.37 1425.52 1814.85 1433.23 1924.09 C 1434.32 1939.48 1436.24 1955.29 1439.56 1970.35 C 1441.82 1980.55 1445.35 1990.86 1446.49 2001.25 C 1447.55 2010.93 1446.88 2020.96 1446.58 2030.69 C 1426.44 1999.69 1417.24 1965.46 1408.66 1929.94 C 1381.68 1818.26 1378.56 1710.81 1387.94 1597.03 C 1389.27 1580.82 1399.24 1506.97 1396.06 1496.26 L 1394.44 1496.15 C 1388.39 1503.68 1387.02 1518.9 1385.05 1528.4 C 1380.4 1550.88 1377.88 1573.77 1375.42 1596.58 A 1017.39 1017.39 0 0 0 1374.61 1818.96 C 1381.05 1878.14 1403.85 2004.59 1444.37 2048 L 1415.79 2048 L 1401.92 2048 L 1143.05 2048 L 1138.04 2048 L 933.152 2048 A 6015.54 6015.54 0 0 1 902.443 1914.56 C 888.421 1850.08 867.377 1760.25 878.012 1695.46 C 883.045 1664.8 896.261 1639.29 911.449 1612.66 C 981.184 1620.31 1029.31 1648.75 1081.71 1693.4 C 1094.37 1704.19 1105.79 1718.63 1120 1727.25 C 1138.82 1711.17 1152 1689.05 1164.56 1668 C 1223.08 1569.92 1262.55 1439.78 1271.6 1325.77 C 1274.09 1294.36 1274.3 1263.64 1272.77 1232.2 C 1292.87 1229.43 1311.89 1225.47 1331.18 1219.14 C 1352.48 1233.01 1376.77 1243.8 1398.84 1256.6 A 1909.77 1909.77 0 0 1 1529.18 1340.3 A 2657.85 2657.85 0 0 1 1596.77 1389.94 C 1611.43 1401.08 1646.4 1432.15 1661.29 1437.34 L 1662.71 1436.89 C 1659.36 1426.81 1641.05 1413.89 1633.16 1407.07 A 1406.37 1406.37 0 0 0 1468.62 1285.86 C 1438.65 1266.65 1408.03 1247.64 1376.19 1231.7 A 2342.85 2342.85 0 0 0 1341.78 1214.99 C 1356.1 1208.46 1368.37 1200.75 1378.73 1188.73 z"/>
<path transform="translate(0,0)" fill="rgb(75,28,59)" d="M 1138.04 2048 C 1125.5 2035.86 1115.32 2021.3 1104.78 2007.43 A 1081.61 1081.61 0 0 1 990.695 1821.17 C 983.438 1806.37 971.849 1787.48 971.034 1770.87 L 971.614 1770.26 C 982.435 1783.74 990.658 1804.42 998.817 1820 A 1357.58 1357.58 0 0 0 1038.73 1890.69 C 1057.63 1921.7 1076.97 1952.81 1097.6 1982.7 C 1112.5 2004.3 1129.69 2025.52 1143.05 2048 L 1138.04 2048 z"/>
<path transform="translate(0,0)" fill="rgb(75,28,59)" d="M 1291.85 1816.3 C 1305.98 1833.66 1313.97 1858.15 1323.45 1878.31 A 1771.97 1771.97 0 0 0 1386.71 2001.01 C 1395.53 2016.63 1404.26 2034.22 1415.79 2048 L 1401.92 2048 C 1388.18 2030.71 1377.92 2010.94 1367.26 1991.7 C 1360.23 1979 1352.34 1966.76 1345.75 1953.83 C 1329.77 1922.48 1316.83 1889.96 1304.79 1856.94 C 1300.06 1843.96 1294.14 1829.93 1291.85 1816.3 z"/>
<path transform="translate(0,0)" fill="rgb(75,28,59)" d="M 990.467 1777.53 C 991.205 1777.64 992.37 1777.77 993.044 1778.03 C 993.286 1778.12 994.995 1779.11 995.268 1779.4 C 998.111 1782.4 1000.65 1789.03 1002.95 1792.86 L 1033.55 1843.41 C 1056.89 1881.56 1082.94 1917.49 1109.6 1953.34 C 1120.21 1967.61 1175.05 2034.31 1178.51 2044.17 C 1168 2038.58 1158.76 2028.49 1150.69 2019.89 C 1095.52 1961.05 1045.63 1886.34 1007.23 1815.49 C 1002.41 1806.59 990.165 1787.1 990.467 1777.53 z"/>
<path transform="translate(0,0)" fill="rgb(112,83,94)" d="M 947.636 112.469 C 955.596 112.237 963.584 112.391 971.549 112.424 C 915.633 126.498 891.251 139.056 847.668 176.078 C 842.115 180.795 828.754 191.899 828.146 199.424 C 834.647 197.335 839.449 190.544 845.304 186.823 C 854.078 181.246 864.669 177.85 874.538 174.787 C 948.673 151.779 1029.07 164.684 1105 165.796 C 1147.01 166.411 1170.96 160.118 1201.22 130.54 C 1193.65 154.373 1174.14 176.505 1151.67 187.429 C 1143.38 191.462 1134.09 193.916 1126.59 199.389 C 1125.91 201.604 1125.84 201.516 1126.81 203.609 C 1128.15 204.274 1128.09 204.32 1129.8 204.728 C 1135.39 206.057 1158.88 203.088 1164.35 201.423 C 1168.06 200.294 1171.63 197.826 1174.93 195.818 L 1175.73 196.352 C 1175.15 196.815 1174.59 197.29 1174 197.726 C 1165.25 204.151 1157.35 212.734 1149.26 220.071 C 1160.85 220.295 1172.72 218.642 1184.3 218.026 C 1224.56 215.883 1270.82 214.579 1307.98 232.385 C 1331.22 243.518 1353.98 261.906 1363.23 286.672 C 1365.74 293.367 1366.77 302.638 1368.84 307.794 C 1368.94 308.061 1369.09 308.312 1369.22 308.571 L 1368.76 309.111 C 1366.75 306.039 1365.69 302.14 1363.92 298.87 C 1358.77 289.323 1351.24 279.878 1343.41 272.369 C 1308.11 238.52 1278.1 245.404 1234.53 240.832 C 1222.5 239.569 1211.38 234.018 1199.08 234.301 L 1198.82 235.073 C 1211.63 242.709 1227.34 247.075 1241.09 253.084 C 1274.9 267.863 1308.67 294.994 1329.82 325.081 C 1352.7 357.644 1358.36 387.041 1351.57 425.804 C 1345.82 406.339 1338.98 386.104 1325.52 370.504 C 1301.36 342.506 1266.53 342.114 1232.52 339.85 A 82.8061 82.8061 0 0 0 1232.04 334.088 C 1229.94 317.091 1222.21 298.372 1208.51 287.676 C 1215.09 302.021 1221.63 316.134 1223.43 332.01 C 1227.26 365.661 1216.45 399.736 1195.43 426.076 C 1175 451.673 1147.99 467.326 1115.59 471.064 C 1133.75 461.383 1154.2 450.757 1164.34 431.966 C 1179.23 404.369 1175.66 367.961 1166.66 339.079 C 1156.77 307.368 1125.97 256.292 1095.55 240.345 C 1098.84 245.207 1102.01 250.072 1104.62 255.35 C 1121.44 289.452 1121.67 331.869 1111.73 367.987 C 1108.13 381.068 1102.62 393.618 1098.21 406.444 C 1098.08 386.44 1098.45 365.718 1093.32 346.239 C 1086.52 320.397 1039.78 247.954 1021.43 226.216 C 1025.24 238.365 1031.44 249.54 1036.82 261.04 C 1045.17 278.892 1052.11 298.31 1055.45 317.783 C 1062.72 360.234 1053.8 403.607 1028.94 438.9 C 1029.53 389.764 1019.52 361.115 1004.17 316.074 C 1001.2 307.354 999.289 296.377 994.687 288.554 L 993.301 288.248 C 990.208 292.096 988.575 300.732 987.144 305.637 C 975.233 346.467 973.437 386.726 977.359 428.894 C 971.375 419.596 965.419 410.185 960.757 400.139 C 949.927 376.8 945.044 338.516 952.376 313.485 C 954.91 304.832 960.649 297.251 963.453 288.734 C 964.104 286.757 964.461 286.228 963.551 284.29 C 958.799 286.635 954.968 291.415 952.253 295.861 C 944.389 308.742 942.729 323.179 938.564 337.37 C 934.871 349.953 930.604 362.078 927.789 374.943 C 916.615 425.992 924.201 472.944 936.278 522.669 C 924.941 516.033 914.138 508.969 904.674 499.779 C 877.244 473.144 862.442 431.869 867.723 393.845 C 868.504 388.226 874.722 372.133 872.957 368.001 L 871.28 368.428 C 861.193 378.943 858.258 402.022 853.879 415.614 C 852.386 420.251 849.907 424.387 848.323 428.957 C 833.349 472.155 833.441 513.789 864.217 549.766 C 876.11 563.669 890.422 575.613 903.313 588.596 C 908.578 593.9 918.877 602.61 921.417 609.432 C 922.246 611.659 922.55 613.434 921.405 615.553 C 916.527 614.598 911.844 611.738 907.344 609.666 C 899.409 606.013 891.271 602.821 883.389 599.042 C 874.948 594.995 865.931 589.373 856.938 586.864 C 855.609 586.493 856.316 586.568 854.594 587.517 C 855.361 592.629 878.667 607.175 884.076 611.57 C 891.905 617.932 900.215 624.248 907.048 631.675 C 924.437 650.574 934.975 678.767 937.582 704.04 C 912.373 680.464 888.551 651.341 857.024 635.825 C 863.939 647.683 875.923 656.426 884.22 667.391 C 891.081 676.458 896.179 686.917 901.18 697.091 C 916.791 728.852 926.033 757.666 925.739 793.438 C 907.661 767.644 887.216 740.022 860.282 723.008 C 866.904 732.88 874.961 741.734 881.39 751.762 C 901.766 783.547 911.073 821.875 910.796 859.295 C 895.404 839.381 883.299 815.187 871.139 793.114 C 849.046 755.137 816.746 717.775 783.698 688.798 C 789.433 703.121 800.997 714.384 810.747 726.114 C 844.928 767.239 885.588 812.511 885.978 869.07 C 875.548 854.964 834.222 789.203 824.849 783.89 L 823.551 784.527 C 828.979 801.316 834.852 817.553 838.125 834.97 C 822.275 810.363 801.262 784.538 776.88 767.946 A 321.899 321.899 0 0 0 774.984 763.227 C 770.979 753.492 759.547 727.564 749.322 723.324 C 747.228 729.331 759.107 749.852 761.453 757.202 C 762.905 761.755 763.566 766.609 764.309 771.32 A 291.919 291.919 0 0 0 735.871 740.091 C 714.058 719.012 685.72 698.113 653.91 698.884 C 634.284 699.36 616.323 706.71 602.834 721.103 C 570.356 755.755 573.826 818.416 587.247 860.242 C 594.285 882.178 605.279 903.359 618.118 922.459 C 629.779 939.807 653.492 959.862 659.721 977.369 C 669.614 1005.17 662.246 1031.32 663.1 1059.92 C 663.581 1076.04 666.926 1091.93 667.423 1108.07 L 667.472 1109.92 C 660.797 1099.54 655.085 1088.68 649.017 1077.95 C 646.672 1073.8 643.173 1069.56 641.576 1065.09 C 637.739 1054.36 635.743 1033.19 631.249 1025.06 L 630.202 1025.61 C 630.045 1026.18 629.873 1026.74 629.732 1027.3 C 624.683 1047.68 636.969 1071.93 646.722 1088.85 A 157.669 157.669 0 0 1 637.701 1083.53 C 612.372 1067.26 589.017 1038 580.532 1008.93 C 578.075 1000.51 577.776 992.289 575.95 983.896 L 574.58 983.524 C 572.769 984.313 572.069 984.393 570.776 985.993 C 567.849 989.613 567.004 994.764 566.008 999.2 C 560.746 1022.66 563.996 1044.71 567.471 1068.18 C 528.613 1040.27 520.8 1018.96 518.778 972.209 C 518.178 958.359 517.587 945.105 513.015 931.893 C 502.958 902.829 478.064 868.54 449.844 854.947 A 180.287 180.287 0 0 1 456.91 862.192 C 476.216 883.235 483.95 895.7 482.646 925.1 C 471.52 906.087 454.924 891.917 439.384 876.694 C 402.338 840.406 378.92 805.255 376.482 752.183 C 375.69 734.933 376.681 717.679 376.294 700.421 C 358.148 727.957 359.89 766.037 360.04 797.678 C 337.2 749.976 335.873 693.54 352.949 643.904 C 337.199 652.462 324.682 659.133 306.585 661.429 C 277.969 665.061 255.602 657.822 233.07 640.303 C 273.699 639.737 317.365 636.888 351.643 612.233 C 358.872 607.033 365.253 600.542 371.673 594.391 C 321.853 597.927 286.819 600.94 243.64 570.63 C 277.048 578.587 316.731 581.842 350.286 572.249 C 356.181 570.564 363.058 567.856 367.278 563.221 C 377.351 552.157 388.056 520.286 395.035 505.183 A 488.417 488.417 0 0 1 414.234 467.959 C 372.727 490.182 358.122 516.127 329.363 550.584 C 332.203 539.465 335.411 528.733 340.078 518.227 C 357.764 478.417 396.191 425.81 432.346 400.926 C 440.473 395.331 473.378 376.511 476.586 372.453 L 475.135 371.444 L 474.866 373.814 L 475.416 373.633 C 474.906 372.697 474.593 371.408 473.437 371.116 C 467.971 369.737 460.899 369.923 455.21 369.351 C 439.089 367.731 422.556 365.183 407.457 359.074 C 387.5 351 375.682 339.132 367.255 319.461 C 377.304 325.534 387.443 331.974 398.497 336.048 C 432.167 348.459 469.739 339.015 499.24 320.63 C 515.681 310.384 531.13 298.391 548.632 289.896 C 572.572 278.275 598.731 273.153 625.036 271.273 C 592.331 256.997 553.886 265.287 519.648 267.091 C 573.01 234.184 638.591 243.832 698.104 245.438 C 697.861 245.275 697.621 245.109 697.376 244.949 L 696.145 244.161 C 689.173 239.612 681.538 236.641 673.966 233.266 C 651.556 223.277 637.64 212.726 624.624 191.935 C 642.806 207.116 668.591 214.435 691.356 219.02 C 691.142 216.198 690.905 213.343 690.95 210.511 C 691.331 186.516 712.944 156.436 729.396 140.376 C 722.876 162.463 720.111 183.317 721.216 206.271 C 721.447 211.067 721.516 215.766 725.238 219.167 L 726.714 218.555 C 728.184 214.323 727.886 209.776 727.956 205.341 C 730.697 201.512 733.489 197.778 736.675 194.304 C 748.982 180.883 764.212 170.152 779.538 160.474 C 793.312 151.775 807.514 143.286 822.497 136.844 C 860.984 120.295 906.047 114.056 947.636 112.469 z"/>
<path transform="translate(0,0)" fill="rgb(75,28,59)" d="M 456.117 595.536 L 457.74 597.479 C 458.681 607.868 458.156 618.448 458.362 628.878 C 458.686 645.244 460.309 661.001 463.686 677.011 C 464.646 681.559 468.93 695.047 466.518 698.794 L 464.942 697.556 C 464.222 696.114 463.608 694.648 463.007 693.154 C 451.407 664.289 443.421 625.377 456.117 595.536 z"/>
<path transform="translate(0,0)" fill="rgb(75,28,59)" d="M 715.57 421.76 C 716.459 422.669 716.515 422.472 716.798 423.689 C 719.583 435.641 705.333 471.078 699.39 482.176 C 679.627 519.083 646.625 550.595 606.037 562.812 C 600.252 564.553 586.57 568.817 581.253 565.93 C 580.859 560.095 587.99 554.741 591.642 550.633 C 608.849 531.276 622.511 510.229 633.919 487.021 C 637.26 479.857 640.549 472.899 644.864 466.262 L 644.673 468.044 C 641.188 502.048 616.357 534.135 594.816 559.21 C 599.535 558.014 604.232 556.845 608.77 555.055 C 664.468 533.089 693.064 473.039 715.57 421.76 z"/>
<path transform="translate(0,0)" fill="rgb(245,245,243)" d="M 1120.63 273.441 C 1145.24 298.16 1164.95 350.418 1164.87 385.246 C 1164.81 407.088 1157.94 429.201 1141.99 444.66 C 1125.34 460.802 1104.6 467.932 1081.79 468.855 C 1094.12 478.163 1110.49 479.509 1125.4 477.461 C 1156.93 473.129 1188.05 451.927 1206.94 426.811 C 1224.43 403.552 1230.16 377.969 1232.26 349.58 L 1233.04 350.594 C 1240.58 360.154 1249.67 368.464 1256.88 378.265 C 1295.25 430.452 1325.17 488.762 1351.51 547.78 C 1358.58 563.623 1366.55 579.421 1371.32 596.158 C 1349.87 609.697 1339.22 637.564 1333.97 661.214 C 1333.14 664.984 1332.63 668.748 1332.28 672.594 C 1345.6 695.089 1362.37 715.513 1378.44 736.067 C 1389.43 750.122 1399.98 764.505 1410.93 778.584 C 1421.37 792.006 1432.4 805.162 1441.19 819.753 C 1446.35 828.321 1450.38 836.764 1452.57 846.575 C 1449.73 855.315 1446.06 862.502 1437.47 866.977 C 1426.88 872.497 1414.05 870.346 1403.26 866.556 C 1387.05 860.866 1372.6 851.572 1355.12 849.811 C 1348.05 849.099 1340.04 849.729 1333.07 851.147 C 1318.43 854.122 1292.05 865.755 1282.57 847.441 C 1278.74 840.028 1280.36 829.8 1283 822.279 C 1287.96 808.157 1301.65 793.291 1315.2 786.994 C 1315.66 786.779 1316.13 786.581 1316.59 786.374 C 1332.09 786.903 1346.41 791.547 1361.2 795.861 C 1351.12 787.848 1330.36 779.885 1317.41 780.904 C 1299.99 782.274 1279.82 803.356 1269.62 816.144 C 1230.29 865.423 1168.73 1003.76 1173.38 1066.82 L 1173.85 1065.46 C 1179.18 1049.57 1180.99 1032.57 1185.73 1016.47 A 697.706 697.706 0 0 1 1248.92 868.413 C 1254.12 859.133 1259.14 848.344 1265.77 840.048 L 1266.71 840.648 C 1266.73 840.982 1266.75 841.317 1266.78 841.652 C 1267.38 849.262 1271.45 854.915 1277.36 859.629 C 1288.62 868.616 1302.39 869.21 1316 867.306 C 1338.59 864.147 1361.12 863.97 1381.9 875.081 C 1378.89 881.023 1375.55 886.39 1371.75 891.855 C 1362.66 884.088 1352.33 878.009 1342.29 871.569 C 1342.57 871.868 1342.85 872.169 1343.14 872.465 C 1352.78 882.412 1378.02 898.76 1379.21 913.142 C 1379.48 916.401 1377.59 919.055 1375.33 921.17 C 1365.47 930.38 1347.85 935.202 1335.41 940.01 C 1318.67 946.481 1301.2 952.899 1285.93 962.435 C 1255.68 981.324 1233.41 1015.13 1231.13 1051.08 C 1230.64 1058.84 1231.35 1065.38 1235.49 1072.04 L 1239.33 1068.82 L 1237.29 1059.61 C 1268.52 1053.94 1354.86 1030.96 1380.71 1044.14 C 1384.31 1045.97 1387.55 1048.76 1388.73 1052.75 C 1389.54 1055.47 1389.44 1058.17 1387.79 1060.53 C 1383.6 1066.51 1371.16 1071.6 1364.84 1075.14 C 1347.48 1084.87 1326.25 1098.13 1316.04 1115.86 C 1315.82 1116.24 1315.61 1116.63 1315.39 1117.01 C 1333.36 1103.24 1348.46 1091.59 1368.91 1081.35 C 1367.71 1101.53 1380.38 1120.1 1379.84 1140.88 C 1379.42 1157.03 1372.23 1171.26 1360.6 1182.22 C 1337.6 1203.88 1297.9 1212.02 1267.3 1211.01 C 1223.16 1209.56 1177.76 1201.21 1134.92 1190.83 C 1037.39 1167.2 939.557 1129.74 869.461 1055.21 C 869.415 1055.15 869.383 1055.07 869.323 1055.02 C 849.195 1038.78 832.777 1012.24 823.025 988.661 C 824.908 955.799 810.089 928.115 791.763 901.61 C 799.472 931.704 824.011 967.162 805.066 997.944 C 798.873 1008.01 788.861 1014.26 777.356 1016.56 C 752.499 1021.53 726.102 1007.25 706.512 993.53 C 669.967 967.939 634.411 926.962 614.951 886.857 A 211.147 211.147 0 0 1 596.927 829.782 C 591.823 799.987 592.55 761.815 611.034 736.354 C 619.466 724.741 631.542 715.893 646.039 713.925 C 674.116 710.114 704.718 730.311 725.589 746.792 C 738.928 757.325 754.426 769.267 763.95 783.426 C 768.487 790.17 771.393 800.258 776.801 805.828 C 778.868 804.619 778.878 804.589 779.47 802.364 C 781.409 795.083 779.872 785.331 778.567 778.044 C 798.327 795.775 819.213 817.328 831.726 841.02 C 836.995 850.997 840.462 864.293 847.103 873.146 L 848.512 872.842 C 852.894 858.458 848.142 836.594 843.367 822.622 C 856.25 839.792 869.4 856.915 879.988 875.642 C 884.006 882.748 887.122 890.135 890.812 897.37 C 891.834 875.466 891.83 855.731 885.843 834.421 C 896.394 851.982 906.338 868.843 913.958 887.919 C 924.522 847.591 917.028 809.866 902.12 771.996 C 909.138 781.847 915.991 791.682 921.704 802.374 C 925.679 809.814 928.821 817.703 932.88 825.061 C 932.762 810.441 934.163 795.857 933.982 781.265 C 933.502 742.532 917.263 710.904 899.635 677.461 C 916.832 691.28 933.206 708.427 946.836 725.778 C 947.919 690.174 939.639 653.267 914.468 626.739 C 910.522 622.581 906.261 618.872 901.803 615.281 C 920.372 622.975 934.286 633.399 950.665 644.519 C 913.392 555.077 818.711 546.789 856.865 427.651 C 863.045 462.39 878.911 496.81 908.706 517.555 C 915.028 521.957 936.609 534.196 944.144 532.456 C 944.433 532.39 944.697 532.242 944.973 532.135 C 946.37 528.35 937.799 488.305 936.811 480.282 C 931.749 439.185 932.04 399.481 940.242 358.746 C 946.026 385.721 948.185 403.237 965.239 426.065 C 969.398 431.632 974.683 438.262 980.554 442.052 C 982.56 443.347 983.612 443.858 986.047 443.544 C 986.889 440.332 983.175 401.238 983.329 392.537 A 491.197 491.197 0 0 1 992.795 308.906 C 1009.9 364.54 1031.21 428.844 1006.72 485.417 C 1016.3 476.413 1022.8 465.661 1029.99 454.769 C 1053.03 419.873 1066.03 393.818 1067.25 350.825 C 1067.71 334.319 1065.81 318.167 1063.33 301.888 C 1082.89 335.896 1092.64 362.07 1089.29 401.8 C 1088.36 412.828 1086.35 423.718 1085.37 434.714 C 1114.07 400.969 1131.13 353.263 1127.67 308.816 C 1126.73 296.695 1123.71 285.151 1120.63 273.441 z"/>
<path transform="translate(0,0)" fill="rgb(75,28,59)" d="M 752.842 812.594 C 753.72 813.505 754.468 814.438 755.088 815.549 C 761.236 826.552 756.75 848.911 753.486 860.305 C 753.251 860.137 752.986 860.005 752.781 859.801 C 751.221 858.243 750.674 857.153 750.478 854.963 C 749.628 845.467 752.459 823.878 752.842 812.594 z"/>
<path transform="translate(0,0)" fill="rgb(75,28,59)" d="M 1243.38 452.105 C 1251.48 452.294 1260 454.188 1268.22 454.643 C 1278.72 455.224 1292.3 453.336 1302.29 455.548 L 1301.74 456.842 C 1295.61 458.63 1289.78 459.589 1283.39 459.778 C 1272.32 460.107 1251.89 460.157 1243.38 452.105 z"/>
<path transform="translate(0,0)" fill="rgb(75,28,59)" d="M 1331.01 591.365 C 1331.78 591.823 1332.26 592.032 1332.84 592.826 C 1336.43 597.733 1336.81 606.174 1335.53 611.877 C 1333.07 622.802 1326.93 631.051 1317.7 637.121 L 1315.88 637.747 C 1315.82 634.431 1325.05 624.403 1326.77 620.24 C 1330.57 611.044 1330.86 601.16 1331.01 591.365 z"/>
<path transform="translate(0,0)" fill="rgb(75,28,59)" d="M 1307.9 585.802 C 1308.25 586.034 1308.63 586.232 1308.96 586.499 C 1312.5 589.352 1313.14 595.435 1313.41 599.658 C 1314.35 614.174 1311.93 638.142 1301.89 649.245 L 1300.95 649.502 C 1299.79 646.047 1304.88 637.826 1305.5 633.581 C 1307.16 622.19 1307.31 609.008 1307.64 597.44 C 1307.75 593.485 1307.21 589.742 1307.9 585.802 z"/>
<path transform="translate(0,0)" fill="rgb(75,28,59)" d="M 1133.52 788.523 C 1151.97 796.308 1167.78 801.089 1187.94 801.12 C 1191.73 800.697 1195.59 800.324 1199.31 799.495 C 1204.01 798.45 1221.93 791.175 1224.94 793.334 C 1218.34 799.018 1203.74 804.124 1195.07 805.192 C 1194.73 805.258 1194.39 805.332 1194.05 805.39 C 1172.4 809.074 1150.96 800.803 1133.52 788.523 z"/>
<path transform="translate(0,0)" fill="rgb(75,28,59)" d="M 1192.31 1128.88 C 1204.67 1130.63 1216.59 1135.24 1229.16 1136.92 C 1246.78 1139.28 1265.64 1138.69 1282.93 1142.3 L 1283.43 1144.13 A 205.541 205.541 0 0 1 1265.9 1145.56 C 1244.32 1146.39 1209.08 1144.39 1192.31 1128.88 z"/>
<path transform="translate(0,0)" fill="rgb(75,28,59)" d="M 1239.33 1068.82 C 1243.94 1072.57 1248.14 1072.29 1253.89 1071.73 C 1277.16 1069.47 1298.68 1059 1322.59 1060.65 C 1323.33 1060.7 1324.07 1060.73 1324.81 1060.78 C 1306.89 1065.27 1271.34 1077.36 1254.71 1078.45 C 1249.48 1078.79 1244.08 1078.36 1239.56 1075.41 C 1238.13 1074.48 1236.7 1073.25 1235.49 1072.04 L 1239.33 1068.82 z"/>
<path transform="translate(0,0)" fill="rgb(75,28,59)" d="M 1198.08 465.127 C 1206.1 467.136 1213.81 470.865 1221.62 473.621 A 208.475 208.475 0 0 0 1268.54 484.392 C 1276.23 485.169 1309.06 482.081 1312.37 484.066 L 1310.92 485.116 A 100.082 100.082 0 0 1 1272.77 490.647 C 1252.85 489.57 1211.98 480.439 1198.08 465.127 z"/>
<path transform="translate(0,0)" fill="rgb(75,28,59)" d="M 1186.65 506.201 C 1195.36 507.316 1204.28 510.306 1212.87 512.303 C 1232.23 516.805 1252.28 520.754 1272.14 521.922 C 1279.65 522.363 1286.98 522.528 1294.47 521.674 C 1302.74 520.73 1318.35 515.802 1325.66 517.027 L 1325.28 519.265 C 1316.74 523.199 1308.18 525.672 1298.87 527.021 C 1273.96 530.626 1207.08 521.447 1186.65 506.201 z"/>
<path transform="translate(0,0)" fill="rgb(75,28,59)" d="M 1142.06 735.818 C 1163.1 747.149 1191.35 755.457 1215.07 748.514 C 1225.8 745.371 1242.22 738.073 1249.54 729.498 C 1249.83 728.053 1249.98 725.379 1250.61 724.145 C 1252.67 720.117 1266.27 709.718 1270.55 706.76 C 1272.38 705.496 1274.32 704.471 1276.27 703.421 C 1277.34 702.849 1278.38 702.252 1279.46 701.691 C 1271.49 710.357 1259.47 718.564 1253 728.084 C 1255.84 726.107 1267.19 717.113 1270.12 717.534 C 1254.13 736.802 1230.75 754.161 1205.04 756.845 C 1182.28 759.223 1156.26 751.412 1138.27 737.432 L 1142.06 735.818 z"/>
<path transform="translate(0,0)" fill="rgb(75,28,59)" d="M 1267.71 659.913 C 1261.97 663.684 1256.53 666.289 1249.85 668.11 C 1259.75 668.801 1269.84 667.673 1279.59 668.706 L 1279.48 669.706 C 1270.37 675.25 1259.12 675.754 1250.12 681.419 L 1249.29 680.339 L 1251.83 677.823 C 1250.02 675.501 1247.48 675.32 1244.64 675.008 C 1213.07 671.533 1160.88 690.062 1136.77 709.972 C 1129.04 716.349 1122.21 723.902 1114.33 730.053 C 1132.47 698.106 1163.21 681.773 1197.61 672.439 C 1220.76 666.158 1244.65 666.372 1267.71 659.913 z"/>
<path transform="translate(0,0)" fill="rgb(75,28,59)" d="M 1270.63 728.915 L 1271.17 729.749 C 1269.89 736.935 1256.69 744.825 1252.6 751.463 C 1253.67 752.501 1254.56 753.437 1255.5 754.571 C 1255.49 756.134 1255.44 757.471 1255.14 759.01 C 1249.16 790.079 1219.69 825.074 1193.67 841.508 C 1215.02 812.023 1239.34 785.208 1253.27 750.974 L 1241.55 760.799 A 64.6081 64.6081 0 0 1 1237.08 764.197 C 1220.56 775.789 1201.18 780.438 1181.28 776.989 C 1160.96 773.469 1143.4 763.591 1131.52 746.64 C 1147.1 759.7 1162.81 769.947 1183.61 771.66 C 1220.19 774.673 1244.5 750.964 1270.63 728.915 z"/>
<path transform="translate(0,0)" fill="rgb(75,28,59)" d="M 1250.12 681.419 C 1250.54 681.498 1250.96 681.587 1251.39 681.655 C 1258.31 682.773 1271.28 676.394 1277.03 680.025 C 1275.31 681.167 1276.3 680.845 1274.32 680.904 C 1264.02 681.211 1255.7 687.016 1246.85 691.792 L 1246.55 693.265 C 1252.8 697.009 1261.5 698.017 1268.55 696.314 C 1270.46 695.852 1272.34 695.175 1274.18 694.507 L 1275.04 694.945 C 1272.75 698.478 1266.81 699.71 1262.94 700.482 C 1257.65 701.54 1252.29 700.467 1247.04 699.608 C 1243.8 713.372 1240.66 727.835 1227.69 735.886 C 1222.78 738.931 1216.63 740.886 1210.86 739.473 C 1205.78 738.23 1201.86 734.259 1199.32 729.863 C 1195.05 722.496 1193.81 714.321 1193.4 705.945 A 536.101 536.101 0 0 0 1134.92 730.735 L 1142.06 735.818 L 1138.27 737.432 C 1136.15 735.916 1134.17 734.769 1131.82 733.634 C 1127.83 733.768 1124.73 735.661 1121.03 736.789 C 1118.61 737.525 1117.7 737.377 1115.6 736.089 C 1119.42 733.353 1123.7 731.531 1127.64 728.966 C 1155 711.144 1178.24 696.446 1210.57 687.844 C 1220.5 685.202 1240.55 684.284 1247.52 681.173 C 1248.12 680.907 1248.7 680.617 1249.29 680.339 L 1250.12 681.419 z"/>
<path transform="translate(0,0)" fill="rgb(75,28,59)" d="M 1266.76 571.585 C 1276.38 576.926 1285.21 586.729 1294.02 593.547 A 859.578 859.578 0 0 1 1286.61 581.88 L 1287.06 580.739 L 1288.74 580.641 C 1293.6 583.873 1301.21 596.61 1303.34 602.139 C 1306 609.028 1304.76 615.664 1301.97 622.292 C 1295.3 638.105 1287.49 646.38 1271.58 652.633 C 1236.23 666.518 1201.47 646.338 1169.6 632.391 C 1146.7 641.237 1123.3 647.315 1100.71 657.286 C 1091.91 660.878 1083.27 665.031 1074.6 668.922 L 1075.43 667.08 C 1076.34 665.06 1077.18 663.024 1078.29 661.102 C 1086.64 646.582 1104.57 634.46 1117.99 624.865 C 1132.09 614.782 1150.43 600.377 1167.16 596.032 C 1193.62 589.159 1262.33 620.006 1287.82 611.692 C 1290.86 610.7 1292.13 609.231 1293.59 606.486 C 1293.96 595.649 1274.41 581.399 1267.72 572.827 L 1266.76 571.585 z"/>
<path transform="translate(0,0)" fill="rgb(75,28,59)" d="M 646.263 737.331 C 651.659 737.224 657.451 737.862 662.685 739.218 C 690.704 746.475 720.483 773.617 734.877 798.065 C 735.237 808.892 733.513 819.953 730.988 830.456 C 727.757 843.893 718.078 861.325 723.291 875.064 C 727.509 886.181 737.216 889.537 747.141 894.049 C 752.583 896.524 760.364 901.029 762.036 907.343 C 762.722 909.937 762.643 912.099 761.124 914.388 C 757.365 920.058 747.04 922.447 740.706 923.98 C 733.469 925.732 725.268 927.664 718.537 923.572 C 715.154 919.554 717.199 913.971 713.873 910.333 C 702.942 898.377 680.745 887.898 677.333 870.403 C 673.692 851.739 694.976 833.76 703.708 819.238 C 705.326 816.548 705.752 814.796 704.898 811.8 C 699.231 808.199 692.55 812.841 686.49 812.996 L 686.75 811.504 C 693.709 804.76 708.136 802.438 717.376 800.784 C 705.131 782.565 688.812 768.845 670.337 757.31 C 659.862 785.747 660.073 816.308 656.363 845.991 C 655.798 836.9 655.95 827.85 656.074 818.75 C 657.081 796.461 658.266 775.421 664.642 753.895 C 656.132 751.327 647.152 749.531 638.558 752.781 C 630.896 755.679 625.645 761.991 622.5 769.381 C 612.17 793.649 614.38 831.305 623.985 855.485 C 637.866 890.434 670.826 919.288 702.97 937.195 C 716.29 944.616 730.504 950.464 744.509 956.454 C 718.904 954.658 694.764 943.316 674.121 928.513 C 641.053 904.799 614.296 870.488 607.732 829.515 C 604.036 806.447 602.702 772.148 617.602 752.398 C 625.15 742.394 634.319 738.862 646.263 737.331 z"/>
<path transform="translate(0,0)" fill="rgb(245,245,243)" d="M 0 0 L 2048 0 L 2048 2048 L 1999.76 2048 C 1992.96 2028.83 1988.09 2008.68 1982.42 1989.11 C 1971.51 1951.52 1960.38 1913.64 1947.97 1876.53 C 1899.14 1730.51 1834.7 1559.72 1735.32 1440.47 C 1720.03 1422.12 1702.48 1405.41 1685.24 1388.92 C 1615.77 1322.48 1531.78 1258.84 1450.41 1207.88 C 1430.58 1195.45 1409.63 1184.89 1389.54 1172.87 C 1398.28 1150.13 1398.09 1131.31 1391.21 1108.02 C 1388.98 1100.45 1385.93 1092.41 1387.55 1084.42 C 1388.97 1077.38 1401.33 1071.89 1405 1059.5 L 1405.39 1058.17 C 1403.95 1051.02 1402.38 1044.72 1397.49 1039.05 C 1387.73 1027.73 1371.6 1026.54 1357.72 1025.53 C 1360.13 1009.66 1355.48 990.39 1353.11 974.532 C 1366.06 972.258 1379.36 969.696 1390.63 962.542 C 1398.46 957.566 1407.32 949.857 1409.07 940.323 C 1412.13 923.679 1394.95 916.077 1386.99 904.493 C 1385.01 901.61 1382.83 899.474 1380.22 897.154 C 1384.22 891.718 1387.36 886.292 1390.43 880.289 C 1401.04 883.941 1412.14 886.983 1423.43 887.134 C 1436.47 887.308 1449.17 883.02 1458.41 873.586 C 1486.8 844.614 1445.64 796.484 1427.33 773.358 A 1118.61 1118.61 0 0 0 1391.39 730.058 C 1387.5 725.674 1376.83 717.403 1376.69 711.721 L 1379.22 709.095 C 1383.36 707.968 1392.07 703.639 1394.61 700.286 C 1394.76 698.981 1395.09 698.389 1394.37 697.176 C 1392.73 694.403 1389.86 692.846 1386.88 691.879 C 1383.66 690.827 1380.82 689.346 1377.82 687.762 L 1375.96 686.669 C 1381.67 678.136 1399.86 670.809 1408.48 664.102 C 1397.33 664.061 1386.93 663.527 1375.99 661.356 C 1374.76 656.385 1373.63 651.366 1372.05 646.492 C 1372.23 646.088 1372.4 645.682 1372.58 645.279 C 1383.02 622.05 1397.14 615.305 1386.74 587.372 C 1380.59 570.833 1371.78 555.346 1364.46 539.302 C 1343.63 493.614 1322.08 442.646 1293.52 401.232 C 1280.76 382.742 1264.96 367.483 1251.28 349.893 C 1278.93 353.008 1305.3 358.921 1323.45 381.699 C 1337.21 398.964 1347.12 423.949 1350.09 445.766 C 1363.03 424.035 1367.32 392.033 1360.99 367.55 C 1358.05 356.14 1352.81 345.359 1347.09 335.113 C 1327.34 299.79 1299.28 276.47 1264.71 256.522 A 301.796 301.796 0 0 0 1254.3 250.812 C 1287.95 251.223 1318.12 257.61 1342.53 282.354 C 1356.65 296.67 1366.4 316.822 1367.54 337.026 C 1367.79 341.453 1366.78 349.836 1368.95 353.569 C 1372.61 351.336 1374.22 341.976 1375.22 337.765 C 1380.85 314.169 1375.8 288.38 1363.1 267.925 C 1344.16 237.419 1311.33 220.77 1277.22 213.036 C 1242.88 205.249 1208.29 207.271 1173.55 210.392 C 1206.42 191.905 1232.78 169.848 1246.76 133.954 C 1239.15 141.005 1232.35 148.844 1224.71 155.837 C 1205.87 173.078 1182.79 185.719 1159.01 194.728 C 1181.09 179.55 1203.71 159.109 1208.79 131.363 C 1209.71 126.353 1211.71 114.045 1208.72 109.871 C 1208.53 109.604 1208.26 109.397 1208.04 109.16 C 1206.66 109.585 1191.71 127.999 1187.22 131.7 C 1174.21 142.412 1157.77 149.043 1141.45 152.704 C 1108.68 160.051 1073.31 155.475 1040.15 153.59 C 983.522 150.372 926.297 150.322 871.426 166.388 C 915.064 131.086 957.508 125.129 1008.16 108.176 C 926.724 95.0985 835.257 107.277 767.219 156.492 C 751.736 167.691 737.973 179.698 726.887 195.32 C 733.804 158.285 737.612 143.235 757.721 110.504 C 731.484 120.477 699.832 154.428 688.394 179.948 C 684.001 189.75 681.63 198.936 681.095 209.632 C 681.069 210.159 681.016 210.683 680.977 211.209 C 650.612 199.733 619.902 182.663 605.344 152.226 L 604.311 151.62 C 601.313 168.41 610.821 187.666 620.104 201.07 C 630.1 215.504 642.776 226.065 657.597 235.261 C 642.479 234.211 627.175 232.381 612.026 232.381 C 572.182 232.379 530.508 244.201 500.138 270.782 C 497.405 273.174 494.68 275.607 492.199 278.262 L 560.766 273.785 C 548.435 280.508 535.593 286.023 523.509 293.263 C 484.543 316.608 451.281 340.892 403.515 327.057 C 394.099 324.329 382.416 320.15 374.466 314.358 C 369.502 310.742 363.982 299.584 359.28 297.889 C 355.765 306.438 359.19 321.265 362.623 329.546 C 370.06 347.489 385.092 361.131 402.933 368.415 C 418.141 374.623 435.35 376.838 451.677 377.194 C 435.869 387.076 419.533 396.622 405.517 409.024 C 375.319 435.746 329.549 501.547 320.64 540.767 C 318.683 549.384 317.998 557.988 317.98 566.807 C 276.572 567.875 237.227 563.31 200.392 542.901 C 223.422 574.264 259.998 599.905 298.993 605.739 C 312.428 607.75 326.112 607.789 339.656 607.209 C 304.092 627.572 252.233 638.066 211.889 628.94 A 88.0403 88.0403 0 0 0 265.068 669.782 C 288.352 675.918 313.497 673.178 335.604 664.077 A 188.835 188.835 0 0 0 355.389 806.099 C 359.477 813.069 363.913 819.23 369.569 825.025 C 368.483 812.037 366.828 799.124 367.173 786.073 C 379.921 836.518 407.868 865.031 444.091 899.631 C 457.619 912.553 471.557 925.776 478.534 943.5 L 478.586 941.808 L 479.53 945.396 C 483.378 943.699 484.749 941.421 486.308 937.575 C 489.55 929.582 490.879 921.491 491.093 912.899 C 497.315 923.394 502.68 933.977 505.207 946.01 C 507.784 958.277 506.857 970.938 507.236 983.391 C 508.193 1014.9 520.425 1041.75 542.932 1063.63 C 555.473 1075.81 571.618 1086.5 588.692 1090.94 C 576.318 1065.64 571.506 1040.72 572.002 1012.5 C 584.759 1053.74 610.528 1077.85 645.935 1100.81 C 631.549 1108.31 621.434 1119.85 607.976 1128.25 C 529.96 1176.95 452.882 1226.97 380.223 1283.55 C 341.418 1313.76 302.752 1344.64 272.11 1383.47 C 253.882 1406.57 243.111 1433.63 234.423 1461.5 C 216.176 1520.04 213.717 1596.13 210.655 1657.69 C 206.101 1749.26 203.997 1840.96 198.972 1932.5 A 3106.5 3106.5 0 0 1 194.039 2009.3 C 193.111 2022.13 192.673 2035.26 190.983 2048 L 0 2048 L 0 0 z"/>
</svg>