<svg version="1.1" xmlns="http://www.w3.org/2000/svg" style="display: block;" viewBox="0 0 2048 2048" width="1024" height="1024">
<path transform="translate(0,0)" fill="rgb(225,226,217)" d="M 0 0 L 2048 0 L 2048 2048 L 0 2048 L 0 0 z"/>
<path transform="translate(0,0)" fill="rgb(191,193,184)" d="M 1169.58 642.407 C 1170.07 642.355 1170.56 642.293 1171.05 642.251 C 1186.56 640.921 1203.76 648.53 1215.22 658.529 C 1252.97 691.445 1258.76 749.744 1261.78 796.559 C 1271.59 782.743 1283.67 767.798 1301.3 764.326 A 30.4069 30.4069 0 0 1 1325.11 769.493 C 1340.04 780.121 1345.59 802.156 1345.91 819.575 C 1346.03 826.406 1344.59 833.86 1345.71 840.56 L 1346.71 840.23 C 1353.57 838.05 1359.71 838.137 1366.15 841.652 C 1372.56 845.146 1377.71 851.184 1379.72 858.231 C 1382.62 868.446 1383.51 881.971 1378.12 891.346 C 1374.29 893.57 1369.81 894.165 1365.45 894.566 C 1305.86 900.043 1245.42 900.509 1185.65 904.105 L 1099.33 909.157 C 1076.62 910.654 1052.76 913.321 1030.06 912.127 C 1027.34 911.984 1026.8 911.641 1025.07 909.56 C 1025.07 906.856 1025.27 906.655 1026.82 904.405 C 1030.08 902.597 1033.45 902.085 1037.13 901.726 C 1059.19 899.573 1081.8 899.65 1103.97 898.206 A 21175.4 21175.4 0 0 1 1317.75 885.402 A 3177.2 3177.2 0 0 1 1370.85 882.324 C 1370.97 875.812 1371.04 868.79 1369.19 862.489 C 1367.82 857.845 1365.26 852.85 1360.54 850.898 C 1349.8 846.453 1344.01 858.348 1336.27 862.266 C 1333.45 862.349 1333.25 862.575 1331.04 860.878 C 1329.29 853.238 1332.8 841.675 1333.13 833.468 C 1333.79 816.985 1333.24 795.728 1320.96 783.071 C 1316.78 778.767 1311.06 775.918 1304.99 775.989 C 1291.05 776.151 1277.06 794.214 1271 805.556 C 1267.55 812.012 1264.16 822.42 1258.83 827.272 C 1257.19 828.766 1257.21 828.704 1254.89 828.561 C 1252.16 826.208 1251.24 823.244 1250.52 819.803 C 1248.96 812.354 1249.21 804.125 1248.83 796.512 C 1248.05 780.69 1247.28 764.942 1244.5 749.324 C 1241.19 730.743 1235.83 711.699 1226.77 695.05 C 1218.09 679.089 1204.34 660.989 1186.01 656.083 C 1172.2 652.384 1157.79 655.278 1145.75 662.711 C 1100.11 690.888 1086.31 762.694 1086.63 811.917 C 1086.67 818.25 1086.62 824.677 1087.1 830.994 C 1087.66 838.412 1090.35 846.533 1088.66 853.88 C 1087.34 855.553 1086.37 856.473 1084.45 857.34 C 1082.13 858.382 1082.59 858.072 1080.45 857.259 C 1076.34 851.682 1075.78 843.745 1075.07 837.017 C 1069.34 782.655 1078.98 716.171 1114.56 672.701 C 1128.88 655.196 1147.02 644.633 1169.58 642.407 z"/>
<path transform="translate(0,0)" fill="rgb(191,193,184)" d="M 1730.13 129.402 C 1748.71 126.245 1773 128.682 1791.27 132.769 C 1825.14 140.345 1858.42 161.606 1877.11 191.205 C 1902.47 231.354 1902.03 273.946 1891.86 318.963 C 1908.62 304.039 1933.49 288.42 1956.82 288.955 C 1968.27 289.217 1974.9 294.078 1982.41 301.963 C 1984.78 309.578 1986.31 319.564 1983.44 327.273 C 1980.1 336.272 1971.73 350.981 1962.87 355.359 L 1961.92 354.108 C 1962.93 345.029 1967.38 336.394 1969.54 327.481 C 1970.99 321.486 1972.14 313.098 1968.49 307.638 C 1966.89 305.246 1964.41 303.872 1961.64 303.364 C 1939.72 299.353 1904.78 322.632 1889.38 336.421 C 1881.68 343.313 1874.98 352.568 1866.53 358.366 L 1865.28 357.953 C 1863.05 352.492 1873.68 326.13 1875.79 318.786 C 1886.44 281.71 1886.38 242.304 1867.2 207.956 C 1851.92 180.601 1824.14 160.736 1794.11 152.587 C 1738.88 137.603 1675.58 150.391 1626.7 178.34 C 1577.32 206.569 1532.55 250.137 1509.95 302.885 C 1504.36 315.928 1501.09 329.544 1497.33 343.178 C 1489.63 329.645 1489.08 315.299 1477.78 303.223 C 1464.74 289.298 1446.06 281.802 1427.14 281.235 C 1403.55 280.528 1382.34 288.996 1365.26 305.248 C 1337.93 331.254 1329.01 371.073 1328.1 407.404 A 5653.61 5653.61 0 0 1 1404.55 405.941 L 1779.05 396.89 C 1845.11 395.854 1911.19 393.478 1977.21 397.349 A 2353.43 2353.43 0 0 1 1900.97 404.319 C 1824.86 410.635 1747.69 410.671 1671.33 412.439 A 17178.3 17178.3 0 0 1 1332.61 420.189 C 1328.74 420.27 1321.11 421.188 1318.36 417.977 C 1312.72 411.371 1314.92 390.077 1315.82 381.855 C 1319.35 349.298 1335.08 310.39 1361.29 289.569 C 1383.82 271.674 1409.48 262.795 1438.29 266.418 C 1463.23 269.554 1480.52 282.165 1495.5 301.633 C 1503.6 277.53 1515.17 257.2 1531.2 237.416 A 294.599 294.599 0 0 1 1730.13 129.402 z"/>
<path transform="translate(0,0)" fill="rgb(191,193,184)" d="M 385.444 159.397 C 398.256 157.56 414.512 158.669 426.967 162.089 C 441.259 166.014 454.057 175.277 461.189 188.415 C 470.221 205.052 466.413 222.543 461.033 239.54 C 470.962 234.955 480.803 230.675 491.689 228.993 C 502.744 227.286 514.142 228.329 523.224 235.429 A 30.8979 30.8979 0 0 1 534.969 257.176 C 536.042 268.628 531.474 282.989 523.71 291.554 C 520.452 295.149 517.385 296.84 512.655 297.672 C 503.219 299.333 493.281 299.058 483.715 299.374 L 436.059 301.071 C 392.148 302.974 348.296 306.422 304.381 308.1 C 277.481 311.144 249.636 311.548 222.585 313.133 C 205.096 314.158 184.307 317.153 167.014 315.73 C 164.343 315.51 162.415 314.801 160.346 313.045 C 157.628 310.739 156.434 307.383 156.263 303.895 C 155.746 293.361 162.428 281.462 169.164 273.805 C 177.444 264.394 189.688 256.751 202.43 256.245 C 215.458 255.728 222.509 261.511 231.492 269.855 C 238.391 256.223 246.157 243.495 255.842 231.64 C 287.677 192.671 335.127 164.603 385.444 159.397 z"/>
<path transform="translate(0,0)" fill="rgb(225,226,217)" d="M 393.705 168.45 C 403.215 168.017 413.286 168.827 422.449 171.52 C 435.057 175.226 447.449 183.313 453.528 195.288 C 463.106 214.156 452.963 232.918 443.34 249.155 C 440.808 253.427 437.361 258.265 436.035 263.062 C 435.369 265.471 435.382 266.685 436.65 268.792 C 440.608 267.861 459.287 251.29 465.92 247.42 C 477.866 240.449 493.863 234.961 507.613 239.027 C 516.583 241.679 520.551 247.014 524.964 254.686 C 525.364 268.474 522.491 275.972 515.77 287.897 L 324.247 297.865 C 288.338 299.993 252.487 302.964 216.573 304.972 C 199.628 305.92 182.578 307.281 165.6 307.033 C 166.193 303.208 166.751 299.321 167.947 295.63 C 171.987 283.169 182.301 272.937 193.998 267.433 C 219.465 255.45 218.69 281.039 229.563 285.131 C 231.863 284.208 232.385 283.559 233.938 281.591 C 237.833 276.66 240.711 270.318 244.011 264.903 C 250.259 254.651 257.109 245.036 264.996 235.977 C 297.481 198.663 343.986 171.906 393.705 168.45 z"/>
<path transform="translate(0,0)" fill="rgb(0,0,0)" d="M 451.921 496.801 C 492.669 413.392 567.383 345.687 652.463 309.603 C 664.463 304.513 686.275 294.791 699.222 300.541 C 702.2 301.864 704.651 303.912 705.594 307.16 C 707.887 315.056 701.941 324.3 698.107 330.852 C 729.483 320.666 760.672 311.616 793.417 307.134 C 807.772 305.169 840.888 299.777 853.048 309.771 C 855.56 311.835 856.96 314.603 857.198 317.837 C 858.118 330.354 842.419 345.391 834.487 354.01 C 863.838 346.572 893.632 343.165 923.894 344.76 C 935.716 345.383 950.953 347.235 959.009 356.881 C 962.143 360.634 963.466 365.155 962.924 370.007 C 960.857 388.505 937.201 411.49 923.691 422.605 C 938.782 429.124 953.055 440.632 963.343 453.397 C 970.011 461.67 976.508 473.124 974.859 484.122 C 974.143 488.892 971.506 492.671 967.589 495.408 C 944.258 511.709 916.094 494.079 891.944 490.722 L 890.351 490.513 C 899.906 500.862 909.379 511.206 917.245 522.943 C 941.94 559.792 955.675 608.235 963.804 651.568 C 970.016 652.654 975.827 653.823 981.277 657.217 C 987.954 661.373 992.394 667.742 993.94 675.454 C 996.66 689.028 990.228 701.253 983.115 712.24 C 994.259 728.219 1009.12 764.352 1008.82 784.078 C 1008.76 787.662 1008.15 791.868 1005.04 794.153 C 1002.35 796.124 998.72 795.25 995.68 794.77 L 993.758 794.455 C 991.628 796.992 999.292 836.653 989.953 848.895 C 988.311 851.047 986.351 852.535 983.564 852.744 C 978.783 853.103 974.852 849.775 971.202 847.174 C 973.003 856.703 974.595 866.122 972.913 875.814 C 971.978 881.196 969.85 886.581 965.056 889.626 C 960.158 892.737 955.497 891.385 950.227 890.192 L 949.499 893.51 C 946.386 907.854 937.017 915.357 926.127 924.097 L 927.595 925.477 C 928.628 924.604 928.853 924.354 930.185 923.578 C 946.239 914.229 968.893 911.838 986.455 917.753 C 1010.89 925.983 1029.4 949.612 1030.91 975.368 C 1031.31 982.144 1028.69 991.447 1029.91 997.67 C 1030.61 1001.25 1039.1 1001.24 1040.89 1005.75 C 1043.35 1011.93 1040.53 1019.7 1037.95 1025.41 C 1035.86 1030.07 1033.46 1035.17 1028.46 1037 C 1027.26 1036.18 1026.78 1035.85 1025.32 1035.55 C 1015.66 1053.56 1012.14 1076.21 1005.44 1095.59 C 1011.17 1096.82 1015.45 1098.04 1019.96 1102.04 C 1032.57 1113.22 1009.84 1126.93 1008.7 1135.93 C 1008.48 1137.66 1015.97 1145.89 1015.99 1151.69 C 1016.03 1160.28 1008.94 1167.43 1003.1 1172.88 C 1006.67 1175.77 1009.54 1178.5 1010.68 1183.11 C 1014.79 1199.69 990.384 1207.54 984.608 1220.69 C 981.592 1227.56 979.792 1235.15 977.452 1242.29 C 973.451 1254.48 969.183 1266.58 965.287 1278.82 C 963.146 1285.54 961.313 1294.76 957.565 1300.56 L 955.522 1300.99 L 954.972 1299.27 L 955.512 1300.12 L 954.913 1294.88 L 953.097 1294.63 L 953.797 1293.74 C 950.992 1271.49 946.614 1249.99 942.684 1227.95 C 938.046 1228.11 929.689 1227.57 926.107 1230.31 C 926.976 1232.2 927.267 1233.35 927.262 1235.43 C 920.787 1248.11 859.918 1274.45 844.376 1281.43 C 845.062 1285.69 846.477 1291.08 845.729 1295.35 C 845.217 1298.28 843.408 1301.3 840.786 1302.8 C 834.342 1306.5 823.319 1303.79 816.463 1302.3 C 829.434 1345.37 852.842 1385.75 874.914 1424.66 C 907.176 1430.57 939.004 1436.72 969.843 1448.21 C 985.311 1453.97 1000.39 1461.19 1015.46 1467.92 C 1051.13 1457.4 1086.21 1443.13 1121.42 1431.06 C 1183.21 1409.89 1246.77 1390.9 1310.71 1377.35 C 1296.38 1350.79 1289.25 1322.96 1288.23 1292.82 C 1285.78 1220.94 1313.07 1136.71 1362.6 1084.02 C 1378.27 1067.36 1399.5 1050.72 1423.45 1050.36 C 1441.14 1050.09 1456.25 1059.22 1468.59 1071.1 C 1511.4 1112.36 1529.46 1185.62 1530.26 1243.55 C 1540.79 1224.23 1554.36 1207.94 1572.04 1194.76 C 1595.45 1177.31 1628.82 1163.28 1658.56 1167.98 C 1672.65 1170.21 1685.37 1176.83 1693.71 1188.69 C 1708.5 1209.75 1707.47 1237.76 1703.15 1261.87 C 1712.1 1254.71 1721.98 1247.73 1732.74 1243.59 C 1742.55 1239.81 1753.68 1238.89 1763.35 1243.63 C 1770.59 1247.18 1775.38 1253.3 1777.6 1261 C 1781.78 1275.47 1777.15 1288.2 1770.32 1300.8 C 1794.41 1297.45 1819.52 1295.6 1843.83 1294.8 C 1844.37 1228.34 1844.16 1161.17 1840.01 1094.84 A 531.645 531.645 0 0 1 1814.74 1095.41 C 1768 1094.99 1717.88 1077.15 1684.93 1043.31 C 1636.13 993.195 1620.64 919.042 1621.45 851.13 C 1622.84 734.025 1665.41 601.306 1751.1 518.432 C 1783.59 487.003 1822.97 461.158 1869.76 462.05 C 1903.36 462.69 1933.25 476.801 1956.4 500.79 C 1976.44 518.714 1988.7 540.427 1990.16 567.3 C 1991.62 594.273 1989.08 621.672 1988.32 648.68 C 1987.08 692.939 1986.58 737.338 1986.1 781.611 C 1985.5 837.388 1986.74 893.205 1985.62 948.967 C 1985.1 975.055 1985.54 1003.23 1980.84 1028.88 C 1968.49 1052.19 1929.53 1076.26 1904.99 1083.78 A 158.003 158.003 0 0 1 1892.99 1086.82 C 1899.6 1154.31 1902.03 1222.17 1908.27 1289.72 C 1920.56 1288.85 1969.62 1283.02 1977.48 1289.16 C 1976.42 1299.33 1981.74 1312.61 1983.32 1322.97 C 1985.72 1338.73 1987.18 1355.41 1987.24 1371.35 C 1987.42 1418.9 1981.22 1466.33 1980.95 1513.93 C 1980.63 1570.31 1984.11 1626.49 1984.07 1682.81 C 1984.04 1733.05 1980.6 1782.66 1977.47 1832.75 C 1976.47 1848.75 1978.41 1875.87 1974.81 1889.87 L 1975.13 1896.92 C 1975.21 1897.07 1975.31 1897.21 1975.38 1897.37 C 1980.79 1910.09 1980.14 1940.49 1975.14 1953.55 C 1951.45 1957.21 1927.1 1958.14 1903.18 1959.34 A 2303.28 2303.28 0 0 1 1727.91 1960.25 C 1695.05 1958.93 1662.04 1955.76 1629.16 1956.04 C 1590.61 1956.35 1553.72 1965.87 1515.78 1970.91 C 1482.28 1975.37 1447.91 1975.59 1414.16 1975.99 C 1293.03 1977.45 1171.95 1971.57 1050.95 1966.91 C 998.364 1964.88 945.831 1962.1 893.192 1961.9 A 2284.86 2284.86 0 0 0 778.076 1963.34 C 708.4 1966.4 639.167 1972.3 569.37 1973.84 A 3336.91 3336.91 0 0 1 354.804 1972.67 C 304.15 1970.47 253.587 1965.8 202.988 1962.59 C 173.172 1960.69 143.289 1958.7 113.449 1957.32 C 99.0373 1956.65 84.1951 1957.69 69.9221 1955.72 C 66.0949 1943.71 64.8999 1930.15 63.1595 1917.69 A 1112.07 1112.07 0 0 1 54.0489 1830.49 C 46.2733 1723.78 41.1247 1628.33 49.9796 1521.13 C 51.4532 1503.29 52.2124 1485.07 54.7369 1467.35 C 55.6559 1460.91 57.6349 1454.79 58.679 1448.45 C 58.7365 1448.1 58.772 1447.75 58.8185 1447.4 C 65.935 1442.48 88.4091 1442.19 97.6237 1441.3 C 97.2078 1428.51 94.1275 1392.16 100.295 1382.56 L 103.656 1383.65 C 102.684 1382.44 103.162 1382.94 101.983 1381.88 C 99.088 1379.27 95.1595 1376.08 93.5936 1372.41 C 90.4401 1365.01 90.2907 1285.04 93.1352 1276.86 C 106.381 1274.39 120.635 1274.14 134.108 1273.06 A 4652.25 4652.25 0 0 0 202.821 1267.12 L 442.642 1243.93 C 462.014 1135.33 518.229 970.666 608.319 900.626 C 600.514 893.195 591.49 886.113 585.444 877.148 C 577.74 884.018 569.929 889.551 560.034 892.756 C 537.511 900.051 512.397 894.578 491.868 883.901 C 462.732 868.746 448.627 843.491 439.182 813.144 C 438.921 812.96 438.662 812.772 438.398 812.593 C 416.787 797.972 400.571 759.557 394.612 735.079 C 379.082 671.285 394.842 603.053 428.672 547.739 C 413.322 548.299 394.242 549.041 380.456 541.09 C 374.9 537.886 370.125 532.937 368.552 526.57 C 367.432 522.038 368.231 517.446 370.732 513.516 C 374.305 507.899 380.619 504.528 387.071 503.443 C 400.493 501.185 412.602 508.165 423.241 515.387 C 418.482 503.338 414.312 491.105 413.024 478.14 C 411.685 464.658 413.037 447.686 422.349 437.128 C 424.818 434.328 428.277 431.769 432.186 431.817 C 434.846 431.849 437.246 433.166 439.148 434.938 C 453.027 447.871 450.846 479.763 451.921 496.801 z"/>
<path transform="translate(0,0)" fill="rgb(225,226,217)" d="M 910.426 1052.84 C 912.089 1053.5 914.407 1053.93 915.349 1055.51 C 917.548 1059.19 915.374 1064.4 914.335 1068.3 L 913.568 1068.06 C 911.425 1063.4 911.139 1057.89 910.426 1052.84 z"/>
<path transform="translate(0,0)" fill="rgb(191,193,184)" d="M 917.744 1039.7 C 924.525 1039.13 931.037 1039.41 937.818 1039.82 C 937.186 1043.62 936.824 1047.54 935.077 1051.01 C 934.518 1047.85 932.694 1045.06 931.139 1042.3 C 929.058 1041.13 927.828 1040.48 925.41 1040.46 C 922.782 1040.43 920.338 1040.1 917.744 1039.7 z"/>
<path transform="translate(0,0)" fill="rgb(191,193,184)" d="M 976.199 1048.79 C 975.927 1048.54 975.663 1048.28 975.383 1048.05 C 974.243 1047.07 973.114 1046.44 971.801 1045.74 C 970.55 1043.01 970.238 1042.55 970.616 1039.61 L 971.69 1038.39 C 974.465 1038.37 975.145 1038.97 977.591 1040.38 C 978.852 1043.26 978.545 1044.53 977.4 1047.51 C 977.223 1047.97 976.989 1048.4 976.784 1048.85 L 976.199 1048.79 z"/>
<path transform="translate(0,0)" fill="rgb(191,193,184)" d="M 926.43 1113.84 C 927.523 1113.84 928.618 1113.82 929.71 1113.87 C 932.66 1114.01 934.702 1114.34 936.737 1116.53 C 936.059 1118.7 935.592 1118.85 934.018 1120.38 C 931.213 1120.95 928.796 1121.45 925.907 1121.15 C 924.76 1118.38 925.753 1116.68 926.43 1113.84 z"/>
<path transform="translate(0,0)" fill="rgb(160,160,153)" d="M 971.837 1089.26 C 976.454 1089.35 981.109 1089.32 985.717 1089.62 C 984.578 1093.1 983.59 1096.74 982.153 1100.11 C 981.907 1098.93 981.467 1097.91 981.022 1096.79 C 977.94 1095.74 976.453 1097.41 973.31 1097.72 C 973.574 1096.79 974.207 1095.08 974.175 1094.05 C 974.097 1091.56 973.434 1090.94 971.837 1089.26 z"/>
<path transform="translate(0,0)" fill="rgb(160,160,153)" d="M 1003.97 1040.15 C 1007.12 1040.03 1010.06 1039.73 1013.1 1040.78 C 1013.98 1043.99 1012.37 1046.49 1011.29 1049.59 C 1008.15 1049.46 1005.03 1049.55 1002.06 1048.43 C 1001.24 1045.69 1002.98 1042.7 1003.97 1040.15 z"/>
<path transform="translate(0,0)" fill="rgb(191,193,184)" d="M 916.638 1071.33 C 920.444 1071.13 925.968 1070.1 929.365 1071.92 C 930.757 1075.13 929.948 1076.8 929.337 1080.18 C 925.035 1079.67 919.182 1079.57 916.29 1075.92 C 915.655 1073.46 915.343 1073.53 916.638 1071.33 z"/>
<path transform="translate(0,0)" fill="rgb(191,193,184)" d="M 953.793 1240.83 C 957.312 1240.77 960.342 1240.33 963.437 1242.08 C 964.655 1245.32 962.927 1249.53 962.059 1252.81 C 960.719 1253.71 959.964 1254.28 958.3 1254.4 C 956.756 1254.51 956.547 1253.8 955.469 1252.84 C 953.864 1248.73 953.852 1245.17 953.793 1240.83 z"/>
<path transform="translate(0,0)" fill="rgb(225,226,217)" d="M 991.631 1024.79 C 996.219 1025.26 1004.42 1024.96 1008.25 1027.11 C 1008.21 1029.83 1003.1 1033.57 1001.02 1035.59 C 1000.54 1035.58 1000.06 1035.6 999.579 1035.56 C 997.248 1035.36 995.407 1034.99 993.048 1035.26 C 992.442 1035.33 991.837 1035.41 991.232 1035.49 L 990.473 1034.52 L 992.712 1032.15 L 994.166 1032.46 L 994.504 1031.69 C 992.529 1029.15 991.862 1028.14 991.631 1024.79 z"/>
<path transform="translate(0,0)" fill="rgb(191,193,184)" d="M 928.66 1099.98 L 941.764 1101.47 L 939.167 1111.19 C 935.568 1111.22 931.638 1111.63 928.277 1110.21 C 926.941 1106.77 928.072 1103.56 928.66 1099.98 z"/>
<path transform="translate(0,0)" fill="rgb(191,193,184)" d="M 982.153 1100.11 L 981.229 1102.45 C 979.896 1103.29 979.085 1103.69 977.435 1103.64 C 974.561 1103.55 972.535 1102.36 970.748 1100.2 C 970.331 1099.7 969.934 1099.18 969.527 1098.67 C 967.7 1098.93 967.678 1099.37 966.407 1100.61 L 965.209 1098.98 C 965.759 1095.39 967.253 1092.86 969.04 1089.74 L 971.837 1089.26 C 973.434 1090.94 974.097 1091.56 974.175 1094.05 C 974.207 1095.08 973.574 1096.79 973.31 1097.72 C 976.453 1097.41 977.94 1095.74 981.022 1096.79 C 981.467 1097.91 981.907 1098.93 982.153 1100.11 z"/>
<path transform="translate(0,0)" fill="rgb(191,193,184)" d="M 988.958 1089.13 L 1001.86 1088.71 C 1000.43 1092.41 999.172 1095.77 996.811 1098.99 L 985.105 1102.41 L 988.958 1089.13 z"/>
<path transform="translate(0,0)" fill="rgb(225,226,217)" d="M 912.116 1024.38 C 914.771 1024.12 916.725 1024.09 919.389 1024.58 C 922.966 1026.89 924.406 1030.98 926.263 1034.68 C 922.399 1034.89 918.643 1035.28 914.84 1034.37 L 915.076 1032.51 C 914.419 1030.22 913.33 1028.55 912.089 1026.54 L 910.538 1026.2 C 909.281 1029.35 911.727 1031.12 910.395 1033.87 C 909.555 1033.45 909.183 1033.32 908.403 1032.65 C 906.411 1030.95 905.996 1029.5 905.858 1027.02 C 907.805 1024.41 908.981 1024.86 912.116 1024.38 z"/>
<path transform="translate(0,0)" fill="rgb(191,193,184)" d="M 917.905 1080.16 L 928.335 1082.14 L 925.334 1095.78 L 924.502 1097.29 C 921.867 1097.87 921.861 1097.78 919.428 1096.57 C 917.008 1093.08 918.112 1084.52 917.905 1080.16 z"/>
<path transform="translate(0,0)" fill="rgb(191,193,184)" d="M 997.853 1059.99 C 1001.42 1059.99 1004.74 1059.4 1007.57 1061.72 C 1008.48 1065.36 1006.41 1069.8 1005.32 1073.3 L 993.932 1072.39 L 997.853 1059.99 z"/>
<path transform="translate(0,0)" fill="rgb(191,193,184)" d="M 993.618 1073.9 C 997.457 1073.83 1000.72 1073.47 1003.94 1075.63 C 1004.95 1078.98 1002.86 1083.26 1001.81 1086.5 L 989.991 1086.92 L 993.618 1073.9 z"/>
<path transform="translate(0,0)" fill="rgb(225,226,217)" d="M 904.235 940.692 C 908.623 936.707 911.4 932.952 913.093 927.217 C 913.699 925.164 914.123 923.644 915.356 921.851 C 918.749 923.277 921.391 923.97 925.09 924.079 C 925.435 924.09 925.781 924.091 926.127 924.097 L 927.595 925.477 L 907.274 942.434 L 904.235 940.692 z"/>
<path transform="translate(0,0)" fill="rgb(225,226,217)" d="M 972.78 1023.97 C 977.241 1023.88 981.856 1023.57 985.121 1027.26 C 987.533 1029.99 987.408 1031.93 986.913 1035.28 C 981.99 1035.48 975.649 1036.68 971.551 1033.73 C 970.393 1030.3 971.777 1027.28 972.78 1023.97 z"/>
<path transform="translate(0,0)" fill="rgb(191,193,184)" d="M 931.46 1086.08 C 936.058 1087.19 941.209 1087.08 945.934 1087.35 L 942.061 1098.94 C 937.855 1099.12 933.429 1098.21 929.256 1097.66 L 931.46 1086.08 z"/>
<path transform="translate(0,0)" fill="rgb(225,226,217)" d="M 965.365 1224.22 L 967.183 1224.48 C 967.288 1224.97 967.405 1225.45 967.498 1225.94 C 968.142 1229.32 967.666 1234.57 965.146 1237.18 C 962.646 1239.76 960.254 1239.21 956.894 1239.41 C 956.732 1239.34 956.546 1239.32 956.41 1239.21 C 954.027 1237.28 954.648 1229.73 954.471 1226.55 L 965.365 1224.22 z"/>
<path transform="translate(0,0)" fill="rgb(225,226,217)" d="M 835.312 1285.99 L 836.175 1286.09 C 837.638 1287.8 838.197 1290.81 837.887 1293.1 C 837.673 1294.69 837.144 1295.82 835.82 1296.69 C 831.905 1299.26 825.004 1297.36 820.611 1296.71 C 819.129 1296.2 817.716 1295.51 816.286 1294.87 L 816.306 1293.51 C 821.225 1289.85 829.427 1288.2 835.312 1285.99 z"/>
<path transform="translate(0,0)" fill="rgb(191,193,184)" d="M 958.989 1053.9 C 960.198 1049.04 960.287 1044.04 962.754 1039.58 C 965.213 1039.01 965.087 1038.98 967.284 1040.22 C 968.005 1042.07 968.706 1044.53 969.807 1046.17 C 971.487 1048.66 973.521 1048.39 976.199 1048.79 L 976.784 1048.85 C 976.115 1051.53 976.04 1052.37 974.172 1054.35 C 969.322 1056.03 963.966 1054.61 958.989 1053.9 z"/>
<path transform="translate(0,0)" fill="rgb(225,226,217)" d="M 935.077 1051.01 C 934.955 1051.07 934.834 1051.14 934.709 1051.19 C 930.811 1052.9 925.736 1052.7 921.849 1051.05 C 918.375 1049.57 917.496 1047.87 916.183 1044.44 C 916.563 1042.56 916.832 1041.42 917.744 1039.7 C 920.338 1040.1 922.782 1040.43 925.41 1040.46 C 927.828 1040.48 929.058 1041.13 931.139 1042.3 C 932.694 1045.06 934.518 1047.85 935.077 1051.01 z"/>
<path transform="translate(0,0)" fill="rgb(191,193,184)" d="M 944.66 1102.43 L 960.984 1103.43 C 960.379 1105.79 959.634 1108.09 958.877 1110.41 C 956.179 1113.51 952.549 1114.12 948.752 1115.2 C 945.967 1116.27 943.182 1118.03 940.225 1117.47 L 940.398 1116 L 943.606 1114.86 C 943.96 1112.62 943.552 1111.55 942.967 1109.42 C 942.435 1107.48 944.022 1104.39 944.66 1102.43 z"/>
<path transform="translate(0,0)" fill="rgb(191,193,184)" d="M 919.172 1055.21 C 924.072 1055.37 928.976 1055.71 933.872 1055.98 L 931.52 1069.19 C 926.784 1069.6 922.103 1069.5 917.357 1069.44 C 918.316 1064.69 918.777 1060.02 919.172 1055.21 z"/>
<path transform="translate(0,0)" fill="rgb(191,193,184)" d="M 934.185 1071.57 L 950.223 1071.91 L 946.312 1084.6 C 941.972 1085.76 936.466 1084.96 931.948 1084.84 L 934.185 1071.57 z"/>
<path transform="translate(0,0)" fill="rgb(225,226,217)" d="M 951.225 1022.92 L 970.043 1023.25 C 968.461 1026.62 967.759 1030.09 966.937 1033.71 L 966.256 1034.57 C 963.978 1035.13 961.663 1035.69 959.305 1035.74 C 955.675 1035.81 953.951 1034.21 951.571 1031.85 C 950.218 1028.9 950.876 1026.03 951.225 1022.92 z"/>
<path transform="translate(0,0)" fill="rgb(191,193,184)" d="M 948.598 1087.87 C 954.122 1087.97 959.687 1088.57 965.199 1088.98 C 964.068 1092.96 962.815 1096.91 961.617 1100.87 C 956.082 1100.63 950.517 1100.06 944.99 1099.64 L 948.598 1087.87 z"/>
<path transform="translate(0,0)" fill="rgb(191,193,184)" d="M 977.281 1058.8 C 982.583 1060.36 988.869 1060.63 994.386 1061.33 L 990.814 1072.33 C 985.042 1072.39 979.241 1072.14 973.469 1071.99 L 977.281 1058.8 z"/>
<path transform="translate(0,0)" fill="rgb(225,226,217)" d="M 920.542 624.658 C 922.457 624.427 923.133 623.737 924.671 622.642 C 926.335 634.099 927.339 645.961 929.944 657.234 C 923.306 657.241 916.591 658.004 910.617 654.648 C 911.907 653.974 913.629 653.7 915.042 653.31 C 915.277 653.233 915.518 653.171 915.749 653.08 C 918.858 651.863 920.761 650.168 922.111 647.142 C 925.265 640.068 923.194 631.517 920.542 624.658 z"/>
<path transform="translate(0,0)" fill="rgb(191,193,184)" d="M 940.12 1045.15 C 941.204 1042.57 942.128 1040.1 944.987 1039.02 C 947.546 1038.05 951.337 1038.59 953.556 1040.32 C 955.443 1041.78 956.406 1045.12 957.268 1047.28 C 956.631 1049.99 956.618 1050.58 954.678 1052.51 C 951.361 1053.39 947.999 1054.51 944.555 1053.74 C 942.019 1053.18 940.51 1052.19 939.071 1050.11 L 940.12 1045.15 z"/>
<path transform="translate(0,0)" fill="rgb(191,193,184)" d="M 982.949 1039.22 C 986.867 1039.14 992.102 1038.44 995.862 1039.4 C 997.994 1039.94 998.232 1040.71 999.354 1042.43 C 999.186 1044.5 999.087 1045.9 998.101 1047.77 C 997.161 1049.56 996.496 1049.26 994.688 1049.79 C 991.767 1052.1 988.204 1052.94 984.664 1053.94 C 982.247 1053.41 982.237 1053.28 980.633 1051.37 C 979.649 1047.12 981.581 1043.22 982.949 1039.22 z"/>
<path transform="translate(0,0)" fill="rgb(191,193,184)" d="M 973.022 1073.86 C 978.823 1073.87 984.674 1074.35 990.47 1074.66 L 986.541 1086.93 C 980.725 1087.07 974.869 1086.86 969.05 1086.79 L 973.022 1073.86 z"/>
<path transform="translate(0,0)" fill="rgb(191,193,184)" d="M 953.626 1071.56 L 970.137 1073.66 C 968.43 1077.83 967.154 1082.23 965.746 1086.51 L 949.113 1085.81 C 950.425 1081.01 952.093 1076.29 953.626 1071.56 z"/>
<path transform="translate(0,0)" fill="rgb(191,193,184)" d="M 958.01 1056.78 L 974.659 1058.03 L 970.909 1071.2 C 965.123 1071.3 959.343 1070.96 953.563 1070.7 L 958.01 1056.78 z"/>
<path transform="translate(0,0)" fill="rgb(191,193,184)" d="M 937.962 1055.33 L 954.889 1056.32 L 950.873 1070.11 L 934.203 1070.15 C 935.319 1065.16 936.481 1060.24 937.962 1055.33 z"/>
<path transform="translate(0,0)" fill="rgb(225,226,217)" d="M 923.418 1023.68 C 931.361 1022.65 939.558 1022.88 947.564 1022.76 C 947.009 1026.25 946.466 1029.85 947.228 1033.36 C 947.311 1033.74 947.436 1034.12 947.541 1034.49 L 945.792 1034.29 C 941.536 1035.52 937.09 1035.74 932.862 1034.24 C 926.969 1032.15 925.903 1028.78 923.418 1023.68 z"/>
<path transform="translate(0,0)" fill="rgb(225,226,217)" d="M 1380.04 1636.22 C 1382.11 1637.58 1382.63 1638.36 1383.24 1640.8 C 1384.67 1646.49 1385.01 1650.45 1381.96 1655.54 C 1378.8 1656.99 1377.46 1655.91 1374.2 1654.95 C 1373.21 1654.68 1372.23 1654.41 1371.26 1654.08 C 1368.45 1653.15 1367.63 1652.92 1366.26 1650.25 C 1366.29 1648.3 1366.32 1646.89 1367.27 1645.12 C 1369.81 1640.39 1375.04 1637.41 1380.04 1636.22 z"/>
<path transform="translate(0,0)" fill="rgb(225,226,217)" d="M 142.54 1531.35 C 145.115 1531.07 146.489 1530.46 148.845 1531.72 C 150.745 1536.26 150.389 1540.5 149.084 1545.13 C 146.065 1547.31 141.848 1547.43 138.224 1547.94 C 135.714 1548.36 134.105 1548.55 131.562 1548.02 C 128.729 1544.09 129.825 1538.08 129.967 1533.31 L 142.54 1531.35 z"/>
<path transform="translate(0,0)" fill="rgb(117,115,113)" d="M 853.872 500.902 C 863.09 501.323 874.176 504.647 881.568 510.153 C 887.247 514.383 890.616 519.597 891.495 526.628 C 882.178 525.298 871.482 520.156 863.787 514.743 C 858.004 510.674 855.045 507.956 853.872 500.902 z"/>
<path transform="translate(0,0)" fill="rgb(225,226,217)" d="M 686.896 1507.78 C 695.551 1507.8 735.838 1509.03 741.013 1514.06 L 738.187 1514.64 A 1227.83 1227.83 0 0 0 690.902 1521.48 C 689.364 1516.99 688.179 1512.36 686.896 1507.78 z"/>
<path transform="translate(0,0)" fill="rgb(160,160,153)" d="M 625.8 921.832 C 631.428 927.555 635.523 935.81 639.992 942.493 C 647.307 953.429 661.049 968.823 674.09 972.493 C 675.992 973.029 677.8 973.758 679.65 974.454 L 680.133 976.035 L 677.378 978.338 L 670.937 984.128 A 55.6373 55.6373 0 0 1 660.612 977.979 C 642.542 964.55 629.238 944.166 625.8 921.832 z"/>
<path transform="translate(0,0)" fill="rgb(225,226,217)" d="M 1372.07 1610.93 C 1373.57 1610.78 1374.91 1610.96 1376.4 1611.1 L 1377.44 1612.95 C 1377.07 1622.44 1367.38 1632.66 1363.38 1641.27 C 1361.94 1644.39 1361.02 1647.83 1360.06 1651.13 L 1345.41 1647.26 L 1334.25 1643.95 C 1343.32 1628.57 1356.06 1618.3 1372.07 1610.93 z"/>
<path transform="translate(0,0)" fill="rgb(160,160,153)" d="M 864.393 1483.04 C 865.382 1483 866.372 1482.94 867.361 1482.97 C 883.115 1483.41 941.789 1498.21 951.526 1508.25 L 950.198 1508.9 C 937.772 1510.19 922.249 1508.7 910.619 1513.05 C 896.253 1501.36 880.615 1491.87 864.393 1483.04 z"/>
<path transform="translate(0,0)" fill="rgb(225,226,217)" d="M 141.758 1355.44 C 144.251 1355.09 144.566 1354.72 146.963 1355.8 C 149.155 1361.25 148.157 1368.2 148.112 1374.04 C 133.736 1375.91 118.716 1378.58 104.188 1378.08 C 97.6965 1372.03 97.4008 1365.31 96.8102 1356.97 C 112.063 1357.98 126.6 1356.9 141.758 1355.44 z"/>
<path transform="translate(0,0)" fill="rgb(225,226,217)" d="M 957.139 1514.42 C 958.353 1514.27 959.232 1514.11 960.494 1514.21 C 968.959 1514.88 980.246 1526.83 985.944 1532.54 C 971.55 1535.36 956.703 1536.02 942.165 1538.05 L 939.505 1539.12 C 933.097 1538.27 921.072 1522.56 915.323 1517.74 A 1928.54 1928.54 0 0 1 957.139 1514.42 z"/>
<path transform="translate(0,0)" fill="rgb(225,226,217)" d="M 1234.55 1581 C 1235.42 1580.88 1236.68 1580.7 1237.52 1580.71 C 1240.01 1580.75 1240.49 1580.96 1242.13 1582.61 C 1243.73 1589.84 1235.96 1600.41 1233.37 1607.39 L 1232.88 1608.73 L 1243.57 1595.46 L 1246.97 1624.77 L 1236.4 1622.3 C 1225 1618.85 1213.29 1616.24 1201.73 1613.37 C 1211.25 1599.47 1218.97 1588.51 1234.55 1581 z"/>
<path transform="translate(0,0)" fill="rgb(225,226,217)" d="M 105.071 1281.36 L 116.182 1281.08 C 114.598 1304.48 116.247 1327.56 115.62 1350.9 C 114.149 1352.92 112.526 1352.94 110.217 1353.68 C 106.683 1353.25 100.972 1353.43 98.3395 1350.93 C 97.807 1339.64 98.1389 1328.31 97.6707 1317.02 C 97.2084 1305.86 95.8432 1294.48 96.3373 1283.33 C 98.7443 1281.27 102.051 1281.56 105.071 1281.36 z"/>
<path transform="translate(0,0)" fill="rgb(225,226,217)" d="M 119.565 1465.47 C 120.837 1465.38 120.053 1465.29 121.644 1466.61 C 121.851 1468.23 122.04 1469.8 122.084 1471.43 C 122.275 1478.59 123.84 1526.68 121.68 1529.04 C 116.348 1530.45 110.824 1529.99 105.351 1529.89 C 100.841 1523.18 101.346 1476.77 101.005 1466.21 C 107.195 1466.2 113.384 1465.79 119.565 1465.47 z"/>
<path transform="translate(0,0)" fill="rgb(225,226,217)" d="M 752.538 1517.31 C 766.079 1519.44 779.626 1524.41 792.021 1530.16 C 770.659 1532.19 749.364 1534.26 728.224 1538.02 L 697.79 1543.59 C 696.559 1537.89 694.997 1532.23 693.563 1526.58 C 713.186 1523.26 732.997 1521.14 752.538 1517.31 z"/>
<path transform="translate(0,0)" fill="rgb(160,160,153)" d="M 751.447 975.604 C 770.184 994.11 780.886 1010.06 786.876 1035.98 C 783.662 1040.06 780.006 1043.04 775.981 1046.26 L 765.396 1054.07 C 762.151 1033.19 759.064 1013.07 749.212 994.097 L 751.447 975.604 z"/>
<path transform="translate(0,0)" fill="rgb(160,160,153)" d="M 739.628 1070.95 L 740.78 1071.1 C 743.792 1076.4 741.506 1093.68 741.364 1100.28 C 720.735 1106.34 700.428 1107.42 679.116 1107.36 C 679.066 1107.3 678.999 1107.24 678.966 1107.17 C 676.474 1101.61 681.861 1083.39 683.216 1076.62 C 703.058 1078.63 720.9 1078.22 739.628 1070.95 z"/>
<path transform="translate(0,0)" fill="rgb(225,226,217)" d="M 716.092 966.541 C 721.429 969.124 726.86 971.393 732.339 973.651 C 737.259 972.827 742.148 971.638 747.027 970.594 C 743.434 983.257 742.824 996.602 738.204 1009.08 C 735.731 1015.75 731.789 1023.57 724.785 1026.4 C 719.79 1028.42 716.378 1027.27 711.662 1025.15 C 706.621 1020.9 702.372 1015.87 700.518 1009.42 C 697.205 997.906 702.321 986.982 707.612 977.036 C 699.446 979.042 693.649 979.4 685.396 978.299 L 684.988 977.576 C 692.879 975.699 701.329 975.752 709.421 975.111 C 712.104 972.692 714.042 969.5 716.092 966.541 z"/>
<path transform="translate(0,0)" fill="rgb(160,160,153)" d="M 779.403 1305.2 L 780.656 1305.86 C 780.811 1306.61 781.073 1307.81 781.162 1308.51 C 784.782 1337.46 796.828 1367.49 811.756 1392.36 C 817.639 1402.16 824.417 1411.39 830.25 1421.22 C 824.427 1421.14 818.786 1420.58 813.009 1419.92 L 811.313 1418.99 C 812.476 1414.62 812.276 1414.55 808.935 1411.39 C 782.28 1386.23 768.531 1345.04 762.208 1309.64 L 779.403 1305.2 z"/>
<path transform="translate(0,0)" fill="rgb(160,160,153)" d="M 663.792 1308.69 C 692.494 1316.21 726.538 1316.08 755.577 1310.56 C 756.573 1315.42 757.36 1320.36 758.241 1325.25 L 746.342 1328.58 C 719.994 1335.22 693.621 1342.48 666.243 1342.59 L 663.792 1308.69 z"/>
<path transform="translate(0,0)" fill="rgb(117,115,113)" d="M 1902.25 670.211 C 1903.74 670.823 1904.5 671.08 1905.4 672.486 C 1914.88 687.279 1908.42 734.658 1904.99 751.382 C 1899.66 777.372 1891.48 796.322 1868.88 811.177 L 1867.6 811.584 C 1864.22 807.08 1863.93 785.469 1863.38 778.795 C 1867.14 777.867 1870.49 776.899 1873.62 774.523 C 1899.16 755.127 1897.31 700.065 1902.06 671.291 L 1902.25 670.211 z"/>
<path transform="translate(0,0)" fill="rgb(160,160,153)" d="M 739.426 1155.15 L 741.012 1155.3 C 744.535 1161.5 742.827 1177.25 742.857 1184.71 C 718.918 1192.34 694.593 1192.54 669.81 1190.82 C 668.99 1190.71 667.938 1190.22 667.148 1189.95 C 664.408 1184.2 668.4 1167.27 669.257 1160.6 C 694.078 1163.27 715.338 1161.3 739.426 1155.15 z"/>
<path transform="translate(0,0)" fill="rgb(225,226,217)" d="M 695.859 1011.57 C 699.516 1018.37 702.992 1024.64 709.706 1028.95 C 714.158 1031.8 719.425 1032.86 724.586 1031.56 C 733.359 1029.34 738.093 1021.93 742.191 1014.56 C 742.453 1030.11 744.471 1048.88 741.217 1064.16 C 724.327 1072.68 702.819 1072.51 684.434 1071.47 L 695.859 1011.57 z"/>
<path transform="translate(0,0)" fill="rgb(225,226,217)" d="M 740.909 1191.32 L 741.632 1191.7 C 744.457 1197.68 742.715 1218.76 745.23 1228.4 C 721.793 1234.19 699.957 1231.05 677.747 1222.44 C 673.114 1220.44 668.702 1217.98 664.249 1215.61 A 1015.35 1015.35 0 0 1 665.779 1194.7 C 692.768 1198.06 714.264 1195.95 740.909 1191.32 z"/>
<path transform="translate(0,0)" fill="rgb(225,226,217)" d="M 990.392 1537.49 C 998.941 1539.13 1020.61 1572.56 1026.32 1580.81 C 1010.03 1582.71 993.87 1584.89 977.786 1588.15 C 976.361 1588.57 974.912 1588.94 973.477 1589.33 C 971.42 1587.77 947.128 1550.85 941.742 1543.95 A 1350.56 1350.56 0 0 1 990.392 1537.49 z"/>
<path transform="translate(0,0)" fill="rgb(225,226,217)" d="M 1202.97 1835.02 C 1225.56 1825.33 1248.43 1816.22 1270.8 1806.01 C 1303.1 1791.29 1334.79 1775.38 1367.2 1760.89 C 1369.06 1765.11 1370.97 1769.27 1372.39 1773.67 C 1354.59 1782.11 1223.69 1841.91 1218.5 1847.33 L 1217.76 1849.75 L 1217.12 1849.69 C 1212.91 1844.18 1208.13 1839.65 1202.97 1835.02 z"/>
<path transform="translate(0,0)" fill="rgb(160,160,153)" d="M 434.938 1506.2 C 488.162 1530.45 552.308 1535.48 610.016 1538.54 C 617.94 1538.97 658.334 1538.88 663.087 1540.92 C 665.277 1543.97 665.118 1545.84 665.539 1549.52 C 612.216 1551.67 561.304 1548.45 508.778 1538.91 C 483.451 1534.32 459.645 1529.35 436.293 1518.03 C 435.936 1514.08 435.407 1510.14 434.938 1506.2 z"/>
<path transform="translate(0,0)" fill="rgb(225,226,217)" d="M 278.331 1664.59 C 284.163 1666.61 290.227 1668.18 296.15 1669.92 C 293.424 1701.44 293.913 1733.68 293.827 1765.29 C 293.777 1783.93 292.646 1803 294.043 1821.57 C 289.98 1826.82 287.313 1832.4 284.71 1838.44 C 283.715 1842.54 282.44 1846.59 281.256 1850.64 C 274.525 1823.92 277.66 1796.53 277.785 1769.22 L 278.331 1664.59 z"/>
<path transform="translate(0,0)" fill="rgb(160,160,153)" d="M 1150.75 1755.28 C 1156.33 1754.25 1162.01 1754.83 1167.65 1755.1 L 1168.07 1781.09 C 1141.14 1789.65 1114.32 1799.8 1088.27 1810.7 L 1080.14 1814.15 C 1077.46 1806.39 1075.45 1798.59 1073.52 1790.62 C 1073.87 1790.06 1074.21 1789.5 1074.58 1788.95 C 1086.75 1770.87 1130.49 1758.91 1150.75 1755.28 z"/>
<path transform="translate(0,0)" fill="rgb(225,226,217)" d="M 739.004 1106.24 L 740.179 1106.37 C 743.764 1112.53 742.003 1139.83 742.031 1148.09 C 741.79 1148.19 741.548 1148.3 741.308 1148.41 C 721.094 1157.74 695.36 1157.83 673.643 1155.67 L 671.193 1154.66 C 668.871 1149.08 675.25 1118.96 676.482 1111.01 C 698.072 1113.38 717.943 1110.66 739.004 1106.24 z"/>
<path transform="translate(0,0)" fill="rgb(225,226,217)" d="M 868.614 557.75 C 871.717 556.098 874.962 554.16 878.473 553.562 C 883.872 552.643 889.728 554.94 894.029 558.094 C 912.435 571.592 921.572 601.156 924.671 622.642 C 923.133 623.737 922.457 624.427 920.542 624.658 C 923.194 631.517 925.265 640.068 922.111 647.142 C 920.761 650.168 918.858 651.863 915.749 653.08 C 915.518 653.171 915.277 653.233 915.042 653.31 C 913.629 653.7 911.907 653.974 910.617 654.648 C 893.829 641.938 874.005 579.77 868.614 557.75 z"/>
<path transform="translate(0,0)" fill="rgb(0,0,0)" d="M 915.042 653.31 C 914.177 652.444 914.266 652.574 913.367 651.436 C 909.275 646.255 908.189 637.366 909.061 630.948 C 909.56 627.279 910.553 625.409 913.518 623.211 C 916.552 622.727 917.843 623.443 920.542 624.658 C 923.194 631.517 925.265 640.068 922.111 647.142 C 920.761 650.168 918.858 651.863 915.749 653.08 C 915.518 653.171 915.277 653.233 915.042 653.31 z"/>
<path transform="translate(0,0)" fill="rgb(160,160,153)" d="M 768.641 1365.9 C 773.192 1370.54 779.353 1385.92 782.778 1392.18 C 752.217 1411.13 719.857 1423.09 684.634 1429.75 L 674.377 1431.24 A 1705.19 1705.19 0 0 0 671.639 1401.9 C 704.783 1396.46 742.253 1387.67 768.641 1365.9 z"/>
<path transform="translate(0,0)" fill="rgb(160,160,153)" d="M 748.81 1000.56 C 760.584 1022.88 765.569 1139.14 769.096 1171.54 C 769.99 1179.75 776.464 1212.33 775.247 1217.65 C 774.94 1218.99 772.804 1219.5 771.652 1220.08 C 765.259 1222.78 758.701 1224.79 752.076 1226.83 C 749.833 1211.55 750.434 1195.05 749.999 1179.61 C 748.858 1139.09 749.092 1098.73 748.833 1058.2 C 748.723 1040.97 745.357 1016.63 748.81 1000.56 z"/>
<path transform="translate(0,0)" fill="rgb(160,160,153)" d="M 964.118 1808.39 C 975.312 1807.13 1003.91 1805.38 1013.13 1811.91 C 1017.03 1818.79 1015.86 1829.28 1015.92 1837.1 C 996.212 1840.02 976.044 1841.09 956.237 1843.73 C 941.459 1845.29 926.654 1847.85 911.932 1849.93 C 910.797 1840.2 910.462 1830.19 910.33 1820.41 C 927.148 1813.35 946.037 1809.93 964.118 1808.39 z"/>
<path transform="translate(0,0)" fill="rgb(225,226,217)" d="M 785.143 1396.97 C 786.484 1397.77 785.966 1397.29 786.992 1398.71 C 792.544 1406.37 797.986 1413.03 805.382 1419.02 C 796.639 1424.2 788.245 1429.86 779.23 1434.6 C 752.733 1448.55 722.812 1456.68 693.239 1460.68 L 678.422 1462.12 C 676.968 1453.61 675.951 1444.99 674.76 1436.43 C 714.286 1430.67 751.536 1418.96 785.143 1396.97 z"/>
<path transform="translate(0,0)" fill="rgb(160,160,153)" d="M 802.818 1298.15 C 804.264 1297.93 804.9 1298.1 806.292 1298.44 C 809.321 1301.66 818.573 1331.35 821.193 1337.44 C 828.753 1355.03 837.128 1372.9 846.312 1389.71 C 852.851 1401.67 860.179 1413.17 866.106 1425.47 L 851.039 1423.6 A 497.403 497.403 0 0 1 835.374 1421.92 C 810.214 1387.2 788.871 1347.14 783.534 1303.99 C 789.907 1301.9 796.395 1300.09 802.818 1298.15 z"/>
<path transform="translate(0,0)" fill="rgb(225,226,217)" d="M 1306.25 1737.36 C 1311.89 1736.9 1317.79 1737 1323.42 1737.55 C 1338.95 1739.07 1354.59 1745.09 1364.66 1757.4 C 1342.83 1764.78 1322.49 1774.96 1301.79 1784.99 A 3015.9 3015.9 0 0 1 1262.42 1802.95 C 1261.34 1798.67 1260.56 1794.26 1259.93 1789.88 C 1258.21 1777.84 1259.89 1762.72 1267.65 1753.03 C 1276.79 1741.61 1292.57 1738.93 1306.25 1737.36 z"/>
<path transform="translate(0,0)" fill="rgb(225,226,217)" d="M 756.773 1330.13 L 758.032 1330.37 C 761.26 1333.83 766.001 1354.7 767.78 1360.47 C 745.179 1381.08 705.031 1390.59 675.242 1395.68 C 674.101 1395.96 673.106 1395.74 671.95 1395.61 C 667.458 1387.56 667.291 1357.76 666.938 1347.46 C 697.449 1348.98 727.746 1337.82 756.773 1330.13 z"/>
<path transform="translate(0,0)" fill="rgb(191,193,184)" d="M 422.986 1498.38 C 424.698 1498.24 425.325 1498.33 426.918 1498.75 C 429.128 1502.65 428.43 1509.23 428.59 1513.78 C 384.639 1516.74 340.251 1523.56 296.483 1528.83 C 250.766 1534.33 204.684 1538.51 159.142 1545.22 L 155.02 1544.91 C 154.634 1544.44 154.174 1544.03 153.862 1543.51 C 152.344 1540.99 151.81 1535.4 153.459 1532.92 C 155.111 1530.44 158.63 1529.29 161.422 1528.79 C 169.702 1527.32 178.671 1527.28 187.099 1526.28 L 255.767 1518.07 L 422.986 1498.38 z"/>
<path transform="translate(0,0)" fill="rgb(160,160,153)" d="M 873.656 1161.75 C 874.623 1162.12 874.955 1162.21 875.81 1162.65 C 893.792 1172.09 915.459 1217.19 921.733 1235.46 C 908.931 1244.08 894.168 1250.87 880.384 1257.83 L 877.483 1258.83 C 872.872 1255.25 857.185 1204.14 833.909 1187.89 C 847.875 1180.33 860.215 1170.2 873.656 1161.75 z"/>
<path transform="translate(0,0)" fill="rgb(225,226,217)" d="M 103.656 1383.65 C 108.839 1383.03 113.815 1382.89 119.024 1382.92 C 118.993 1394.91 116.642 1436.4 122.089 1444.98 C 135.523 1448.86 171.894 1442.1 187.748 1440.46 C 213.66 1437.77 418.089 1414.92 425.635 1417.96 C 426.462 1420.49 426.152 1421.17 425.56 1423.81 C 424.057 1424.92 424.281 1425.02 422.255 1425.13 C 360.022 1433.23 297.429 1439.13 235.071 1446.24 C 191.671 1451.18 147.785 1458.3 104.189 1460.68 C 104.449 1434.99 103.592 1409.33 103.656 1383.65 z"/>
<path transform="translate(0,0)" fill="rgb(225,226,217)" d="M 1125.66 1826.34 C 1136.26 1824.7 1148.99 1825.66 1159.53 1827.63 C 1182.98 1832 1202.13 1841.62 1215.81 1861.54 C 1198.55 1863.91 1181.09 1865.35 1163.76 1867.18 C 1136.62 1871.5 1108.55 1873.02 1081.19 1876.2 C 1082.7 1863.91 1085.51 1852.51 1093.34 1842.56 C 1101.88 1831.7 1112.48 1827.98 1125.66 1826.34 z"/>
<path transform="translate(0,0)" fill="rgb(160,160,153)" d="M 919.064 425.909 C 932.331 428.936 955.133 451.155 962.256 462.758 C 966.099 469.019 969.107 476.944 967.109 484.342 C 966.058 488.236 963.556 491.298 960.034 493.246 C 946.932 500.494 926.604 494.324 913.238 490.503 C 904.886 487.385 895.835 486.071 887.073 484.614 C 876.814 476.691 867.447 466.86 857.478 458.432 C 879.132 449.01 899.251 438.79 919.064 425.909 z"/>
<path transform="translate(0,0)" fill="rgb(225,226,217)" d="M 1208.6 1868.41 C 1209.54 1868.28 1211.12 1868.06 1212.02 1868.05 C 1214.67 1868.01 1215.08 1868.39 1216.97 1870.04 C 1218.8 1874.13 1218.24 1879.08 1218.23 1883.49 C 1182.15 1890.92 1144.7 1892.26 1108.04 1894.61 A 3876.95 3876.95 0 0 1 1012.43 1900.43 C 980.93 1901.68 949.279 1901.66 917.755 1902.2 L 909.472 1902.56 C 908.658 1897.79 908.123 1892.96 907.501 1888.15 A 2084.38 2084.38 0 0 0 1081.76 1881.56 C 1124.12 1877.99 1166.27 1871.78 1208.6 1868.41 z"/>
<path transform="translate(0,0)" fill="rgb(225,226,217)" d="M 427.488 1326.43 C 429.62 1326.22 428.646 1325.96 430.406 1327.22 C 431.032 1333.03 429.764 1339.09 429.02 1344.85 C 417.476 1345.17 405.683 1346.89 394.18 1348.02 L 323.267 1355.39 C 268.255 1361.21 213.157 1366.07 158.233 1372.7 L 156.273 1372.5 C 153.682 1368.87 154.557 1358.89 154.432 1354.19 L 427.488 1326.43 z"/>
<path transform="translate(0,0)" fill="rgb(160,160,153)" d="M 434.424 1484.3 C 506.373 1505.39 579.345 1511.1 654.046 1510.91 C 656.457 1519.78 659.326 1528.4 662.332 1537.08 C 601.311 1536.21 488.083 1531.2 434.824 1502.6 C 434.19 1496.54 434.412 1490.39 434.424 1484.3 z"/>
<path transform="translate(0,0)" fill="rgb(117,115,113)" d="M 1096.04 1832.35 L 1096.55 1832.84 C 1094.07 1835.92 1091.16 1838.6 1088.59 1841.6 C 1080.29 1851.33 1075.75 1863.85 1076.71 1876.62 C 1058.19 1877.28 1039.65 1879.12 1021.13 1880.09 A 2328.53 2328.53 0 0 1 913.952 1883.16 L 913.302 1882.91 C 910.747 1879.04 912.954 1861.48 913.095 1856.11 C 959.515 1849.58 1006.15 1846 1052.52 1839.19 C 1067.05 1837.05 1081.69 1835.58 1096.04 1832.35 z"/>
<path transform="translate(0,0)" fill="rgb(117,115,113)" d="M 1263.98 1748.25 L 1264.47 1748.57 C 1253.06 1767.9 1251.95 1784.48 1257.33 1805.98 C 1237.41 1814.09 1217.77 1822.79 1197.98 1831.23 C 1162.51 1816.1 1137.17 1815.52 1099.78 1823.13 C 1094.36 1824.36 1088.46 1826.32 1083.06 1824.23 L 1082.29 1820.82 C 1083.94 1818.33 1084.69 1817.96 1087.39 1816.82 C 1113.19 1805.9 1140.24 1798.15 1166.31 1787.89 C 1199.07 1775 1230.5 1759.51 1263.98 1748.25 z"/>
<path transform="translate(0,0)" fill="rgb(160,160,153)" d="M 626.924 1293.29 C 636.903 1297.92 646.781 1302.4 657.144 1306.12 C 659.924 1328.53 659.969 1351.57 661.674 1374.11 C 665.129 1419.8 669.175 1468.2 681.087 1512.48 C 684.357 1524.64 689.301 1536.14 693.161 1548.09 C 687.666 1549.1 682.006 1549.21 676.434 1549.54 L 672.098 1549.04 C 664.333 1539.55 660.889 1521.92 657.582 1510.13 C 661.108 1510.08 665.533 1510.43 668.916 1509.43 C 670.956 1508.82 671.257 1508.53 672.329 1506.68 C 672.097 1506.43 671.893 1506.16 671.634 1505.94 C 667.738 1502.64 660.406 1503.94 655.643 1504.2 C 639.974 1434.69 633.754 1364.07 626.924 1293.29 z"/>
<path transform="translate(0,0)" fill="rgb(225,226,217)" d="M 98.7209 1570.26 C 141.062 1585.03 184.98 1595.54 228.002 1608.1 C 253.281 1615.47 283.707 1627.34 309.18 1631.14 C 314.092 1631.88 320.203 1630.41 325.116 1629.69 C 325.923 1644.48 326.776 1660.46 326.193 1675.23 C 326.054 1678.77 325.906 1679.87 323.312 1682.28 C 318.522 1683.55 314.517 1682.21 310.109 1680.15 C 306.423 1678.43 305.318 1676.78 303.929 1673.03 C 303.781 1664.76 305.412 1636.31 301.636 1630.29 C 301.127 1630.74 300.55 1631.12 300.109 1631.64 C 295.684 1636.83 297.468 1656.76 297.402 1663.72 C 272.826 1652.15 245.508 1644.79 219.707 1636.47 C 178.775 1623.27 137.647 1610.04 97.0074 1595.98 L 98.7209 1570.26 z"/>
<path transform="translate(0,0)" fill="rgb(225,226,217)" d="M 427.188 1519.46 C 430.808 1519.96 446.062 1529.04 450.993 1531.13 C 457.377 1533.82 463.955 1535.66 470.647 1537.42 A 6850.35 6850.35 0 0 0 284.803 1560.37 A 5572.05 5572.05 0 0 1 192.775 1572.3 C 177.42 1574.19 156.824 1578.94 141.976 1576.74 C 127.89 1572.73 111.872 1569.81 98.5707 1563.84 C 98.6719 1561.55 99.351 1560.62 100.669 1558.78 C 114.597 1554.08 131.182 1553.58 145.806 1551.95 L 224.107 1543.46 L 359.438 1527.42 C 382.013 1524.72 404.533 1521.41 427.188 1519.46 z"/>
<path transform="translate(0,0)" fill="rgb(225,226,217)" d="M 481.03 1542.4 C 490.867 1540.35 522.256 1548.54 534.432 1550.38 A 529.093 529.093 0 0 0 572.247 1554.85 C 536.841 1560.93 500.637 1564.51 464.977 1568.98 L 244.485 1595.65 C 211.141 1602 189.832 1588.74 158.052 1581.54 C 193.223 1579.77 228.557 1574.34 263.467 1569.83 C 290.818 1566.31 318.231 1563.24 345.556 1559.52 C 390.711 1553.37 435.647 1546.73 481.03 1542.4 z"/>
<path transform="translate(0,0)" fill="rgb(117,115,113)" d="M 1397.47 1107.35 C 1399.67 1107.77 1400.86 1108.13 1402.65 1109.5 C 1407.66 1122.74 1406.68 1140.94 1407.72 1155.03 A 3930.7 3930.7 0 0 1 1412.46 1223.52 C 1423.2 1210.18 1427.16 1198.04 1432.35 1182.01 C 1433.34 1178.95 1434 1175.81 1436.96 1174.28 C 1438.5 1174.63 1439.38 1174.37 1440.24 1175.85 C 1443 1180.61 1440.42 1190.73 1439.21 1195.98 C 1435.18 1213.58 1430.82 1225.58 1415.2 1235.42 C 1415.65 1243.08 1418.17 1304.98 1419.56 1307.16 C 1419.98 1307.83 1420.71 1308.26 1421.29 1308.8 C 1421.63 1308.78 1421.98 1308.79 1422.33 1308.74 C 1425.65 1308.19 1428.38 1304.88 1430.54 1302.53 C 1436 1296.54 1441.6 1288.22 1444.39 1280.6 C 1447.86 1271.1 1447.73 1256.73 1454.42 1248.97 C 1455.88 1247.28 1455.68 1247.71 1457.67 1247.61 C 1458.85 1248.91 1459.29 1250.05 1459.67 1251.73 C 1462.89 1265.96 1454.65 1286.85 1447.25 1298.91 C 1440.16 1310.47 1431.82 1318.07 1418.48 1321.3 A 3621.63 3621.63 0 0 1 1417.19 1415.25 A 4836.01 4836.01 0 0 1 1415.86 1476.78 C 1408.72 1478.87 1401.45 1480.59 1394.23 1482.43 C 1393.39 1460.37 1394 1438.12 1394.09 1416.03 A 11133.6 11133.6 0 0 0 1394.95 1270.62 C 1388.71 1269.11 1383.38 1267.11 1377.94 1263.63 C 1362.91 1254.02 1354.71 1237.91 1350.96 1220.91 C 1349.4 1213.81 1347.13 1202.16 1351.69 1195.92 C 1352.76 1194.45 1352.51 1194.94 1354.58 1194.8 C 1361.8 1201.49 1359.36 1229.97 1377.8 1246.22 C 1381.76 1249.71 1386.13 1253.28 1391.66 1252.91 C 1392.35 1252.33 1393.26 1251.94 1393.73 1251.17 C 1397.74 1244.69 1395.25 1156.64 1395.05 1143.1 C 1394.91 1133.44 1392.98 1119.73 1395.43 1110.63 C 1395.79 1109.27 1396.58 1108.39 1397.47 1107.35 z"/>
<path transform="translate(0,0)" fill="rgb(225,226,217)" d="M 962.86 920.388 C 969.611 920.074 976.626 920.699 983.092 922.705 C 998.894 927.608 1011.19 939.623 1018.5 954.225 C 1026.73 970.657 1026.83 989.077 1021.13 1006.3 C 1024.17 1007.07 1028.34 1007.27 1031.17 1008.54 C 1033.35 1009.52 1034.66 1010.67 1035.09 1013.14 C 1035.61 1016.12 1034.33 1020.07 1032.05 1022.01 C 1029.83 1023.88 1026.79 1024.39 1023.98 1024.36 C 1014.38 1024.25 1004.28 1020.65 994.744 1019.33 C 985.251 1018.02 975.192 1017.96 965.596 1017.25 C 938.416 1016.34 911.978 1019.76 884.95 1021.36 L 884.135 1020 C 885.757 1013.59 891.166 1008.92 893.14 1002.65 C 894.642 997.87 894.84 992.623 895.324 987.672 C 896.806 972.517 899.833 959.355 909.612 947.202 C 923.511 929.926 941.273 922.592 962.86 920.388 z"/>
<path transform="translate(0,0)" fill="rgb(0,0,0)" d="M 975.781 978.829 L 976.939 983.122 C 975.694 986.128 974.368 986.213 971.549 987.686 C 970.158 985.481 969.595 984.898 969.512 982.337 C 971.538 980.889 973.546 979.9 975.781 978.829 z"/>
<path transform="translate(0,0)" fill="rgb(0,0,0)" d="M 941.281 940.142 L 943.976 941.043 C 946.112 943.484 946.91 944.097 947.543 947.359 L 945.622 948.839 C 944.939 948.935 944.237 949.057 943.545 949.035 C 940.992 948.955 940.558 948.664 938.756 947.033 C 938.831 943.566 939.453 942.971 941.281 940.142 z"/>
<path transform="translate(0,0)" fill="rgb(0,0,0)" d="M 1009.43 976.504 C 1012.25 977.235 1012.58 977.571 1014.63 979.676 C 1015.61 982.879 1015.45 984.346 1014.74 987.623 C 1011.69 986.909 1010.47 986.255 1008.52 983.748 C 1007.73 980.564 1008.26 979.417 1009.43 976.504 z"/>
<path transform="translate(0,0)" fill="rgb(0,0,0)" d="M 946.48 961.608 C 949.522 962.037 950.812 962.383 953.339 964.325 C 954.58 966.944 954.571 967.407 954.288 970.309 C 953.564 970.492 952.66 970.747 951.927 970.797 C 949.404 970.97 948.839 970.547 946.9 969.138 C 945.757 966.164 946.012 964.655 946.48 961.608 z"/>
<path transform="translate(0,0)" fill="rgb(0,0,0)" d="M 973.258 938.848 C 974.225 938.872 975.545 939.27 976.505 939.469 C 978.025 941.436 978.186 941.278 977.907 943.714 C 975.556 946.665 975.079 946.195 971.48 946.634 L 967.501 946.816 L 966.223 945.573 L 966.545 943.24 C 969.097 939.983 969.5 939.991 973.258 938.848 z"/>
<path transform="translate(0,0)" fill="rgb(0,0,0)" d="M 917.348 983.054 C 918.443 983.603 920.019 984.267 920.972 985.098 C 922.917 986.793 924.537 989.598 924.663 992.256 C 924.786 994.827 924.875 995.259 923.098 997.079 C 920.215 995.757 919.99 994.123 918.565 991.359 C 917.931 989.4 918.167 989.228 916.446 987.898 C 913.924 988.669 911.8 989.15 909.147 989.375 C 911.246 986.062 913.954 984.86 917.348 983.054 z"/>
<path transform="translate(0,0)" fill="rgb(0,0,0)" d="M 996.374 953.289 C 997.157 953.279 998.665 953.823 999.445 954.027 C 1001.2 955.887 1001.91 956.932 1002.03 959.566 C 1002.19 962.895 1000.89 964.669 998.748 967.023 C 995.954 965.563 993.394 964.581 992.015 961.569 C 992.494 959.578 992.758 958.535 994.115 956.938 C 995.463 955.353 995.099 956.118 995.952 954.315 C 996.11 953.981 996.234 953.631 996.374 953.289 z"/>
<path transform="translate(0,0)" fill="rgb(225,226,217)" d="M 745.024 572.254 C 750.936 571.754 756.549 571.616 762.21 573.692 C 780.735 580.486 793.847 600.29 801.795 617.435 C 811.915 639.266 819.579 671.474 810.446 694.849 C 805.121 708.481 795.213 714.887 782.468 720.587 C 772.344 724.223 762.052 724.63 751.434 723.963 C 742.253 714.202 736.169 703.254 730.86 690.979 C 718.996 663.548 709.802 624.853 721.664 595.936 C 726.431 584.315 733.591 577.063 745.024 572.254 z"/>
<path transform="translate(0,0)" fill="rgb(0,0,0)" d="M 796.171 655.599 C 796.932 655.661 797.917 655.708 798.635 655.933 C 801.014 656.678 802.371 658.011 803.385 660.249 C 806.922 668.064 803.618 680.681 800.896 688.416 C 799.64 688.628 798.327 688.609 797.054 688.667 C 795.351 687.54 794.478 686.444 793.798 684.487 C 790.897 676.131 792.27 663.328 796.171 655.599 z"/>
<path transform="translate(0,0)" fill="rgb(225,226,217)" d="M 893.011 1071.71 C 893.67 1071.77 894.33 1071.82 894.988 1071.89 C 899.608 1072.38 903.488 1074.99 906.287 1078.65 C 913.253 1087.77 912.898 1104.61 909.977 1115.38 C 908.954 1119.15 906.119 1122.69 906.019 1126.63 C 905.978 1128.22 906.927 1128.73 907.886 1129.86 L 909.191 1129.6 L 911.202 1126.34 C 916.739 1126.5 922.184 1127.04 927.725 1126.51 C 947.499 1124.62 969.272 1115.09 987.736 1107.68 C 993.294 1105.45 1000.69 1101.12 1006.6 1101 C 1009.47 1100.94 1012.44 1101.57 1014.3 1103.97 C 1015.96 1106.09 1016.53 1109.46 1016.23 1112.08 C 1014.79 1124.42 997.666 1136.14 987.023 1140.83 C 982.194 1142.96 975.584 1143.72 971.593 1147.16 L 972.374 1148.32 C 981.965 1151.25 992.82 1144.19 1001.1 1140 C 1004.1 1141.27 1006.84 1142.3 1008.58 1145.24 C 1010.01 1147.65 1010.4 1150.32 1009.77 1153.03 C 1007.7 1161.82 998.77 1167.64 991.618 1172.09 C 987.237 1174.01 982.39 1175.87 978.46 1178.59 C 976.645 1179.84 973.308 1181.83 972.979 1184.04 C 980.661 1184.5 987.722 1179.05 994.655 1176.41 C 997.437 1175.34 998.551 1175.15 1001.25 1176.36 C 1003.17 1178.83 1004.33 1181.01 1004.77 1184.16 C 1005.48 1189.2 1002.28 1194.14 999.144 1197.87 C 983.824 1216.09 947.202 1220.93 924.896 1223.35 C 913.701 1198.73 898.75 1171.66 876.964 1154.99 C 877.043 1134.43 878.904 1111.77 882.515 1091.53 C 883.994 1083.23 885.859 1076.65 893.011 1071.71 z"/>
<path transform="translate(0,0)" fill="rgb(225,226,217)" d="M 787.487 1535.38 C 803.261 1533.36 813.775 1541.73 826.494 1549.62 C 802.699 1553.65 778.421 1556.04 754.522 1559.58 L 514.462 1594.52 C 461.803 1602.5 409.272 1611.29 356.438 1618.05 C 343.212 1619.74 329.74 1623.75 316.482 1624.31 C 305.667 1624.76 293.825 1619.92 283.502 1616.92 C 266.411 1612.05 249.344 1606.87 232.072 1602.68 C 253.38 1599.87 274.94 1598.53 296.306 1596.14 L 433.641 1579.52 C 486.442 1573.08 539.144 1564.39 592.006 1558.78 C 616.992 1556.13 643.063 1557.07 668.248 1556.12 C 674.921 1555.87 682.465 1556.7 688.976 1555.59 C 692.018 1555.07 697.351 1550.49 705.153 1548.76 C 732.224 1542.72 759.956 1538.66 787.487 1535.38 z"/>
<path transform="translate(0,0)" fill="rgb(191,193,184)" d="M 1021.69 1586.39 C 1024.29 1585.99 1026.12 1585.64 1028.67 1586.59 C 1036.9 1594.45 1041.35 1607.47 1045.61 1617.81 C 1066.91 1669.46 1074.91 1720.28 1078.87 1775.71 C 1077.04 1777.26 1075.18 1778.83 1073.6 1780.63 C 1062.34 1793.43 1076.63 1812.51 1077.34 1827.22 L 1077.4 1828.71 C 1064.21 1829.14 1051.21 1831.7 1038.23 1833.91 L 1020.99 1836.48 C 1021.17 1831.26 1021.46 1825.78 1020.69 1820.61 C 1019.86 1815.04 1018.07 1809.62 1017.96 1803.96 C 1017.62 1785.14 1017.94 1766.4 1016.77 1747.59 C 1013.37 1693.09 999.129 1641.99 975.122 1593.12 C 990.615 1590.72 1006.11 1588.13 1021.69 1586.39 z"/>
<path transform="translate(0,0)" fill="rgb(225,226,217)" d="M 422.85 1350.4 C 425.098 1350.03 426.546 1349.7 428.715 1350.52 C 429.612 1358.19 428.263 1366.72 427.837 1374.44 L 426.178 1410.87 C 414.197 1410.76 401.929 1412.64 389.99 1413.79 L 325.341 1420.17 L 131.238 1440.44 L 127.426 1440.82 L 126.211 1439.74 C 124.424 1420.97 125.607 1401.19 125.546 1382.31 A 5587.97 5587.97 0 0 1 264.808 1367.4 L 422.85 1350.4 z"/>
<path transform="translate(0,0)" fill="rgb(225,226,217)" d="M 419.212 1431.37 C 421.871 1431.1 423.296 1430.45 425.675 1431.84 C 428.685 1451.1 427.912 1472.92 427.876 1492.46 C 394.678 1492.27 358.871 1499.03 325.784 1502.75 C 262.202 1509.92 198.374 1516.35 135.129 1526.16 L 130.949 1526.71 C 128.499 1524.05 127.607 1473.62 126.731 1464.64 A 23330.2 23330.2 0 0 0 419.212 1431.37 z"/>
<path transform="translate(0,0)" fill="rgb(225,226,217)" d="M 498.501 724.218 C 515.785 722.994 531.404 727.141 545.538 737.329 C 571.863 756.306 591.033 792.5 595.811 824.196 C 598.083 839.264 595.427 853.273 586.084 865.619 C 575.339 879.815 561.237 885.428 544.234 887.87 C 524.159 889.226 503.544 882.785 487.021 871.479 C 466.509 857.444 451.33 833.925 446.903 809.49 C 443.15 788.78 446.849 765.035 459.123 747.644 C 468.869 733.834 482.351 727.122 498.501 724.218 z"/>
<path transform="translate(0,0)" fill="rgb(0,0,0)" d="M 509.013 761.179 C 518.629 760.406 527.203 762.869 535.52 767.697 C 554.578 778.759 565.937 795.972 571.575 816.912 C 567.102 813.28 562.28 808.641 556.709 806.881 C 551.1 805.109 544.332 805.691 539.112 808.392 C 533.539 811.275 529.714 816.525 527.816 822.425 C 521.849 840.964 529.11 844.369 536.582 858.517 L 534.641 859.114 C 533.549 858.685 532.543 858.293 531.572 857.62 C 523.302 851.895 521.367 844.121 519.959 834.806 C 520.478 826.324 521.632 817.983 526.463 810.721 C 533.942 799.477 543.01 801.304 554.382 799.161 C 556.493 798.763 555.712 799.267 556.881 797.566 C 548.968 786.975 537.747 775.392 525.486 769.957 C 517.645 766.482 508.846 766.547 500.928 769.771 C 492.686 773.127 485.377 779.699 481.953 787.955 C 481.041 790.153 480.592 791.584 478.806 793.244 C 476.787 792.383 476.71 791.388 475.634 789.544 C 475.476 786.921 475.621 785.244 476.99 782.944 C 483.832 771.451 496.287 764.018 509.013 761.179 z"/>
<path transform="translate(0,0)" fill="rgb(225,226,217)" d="M 429.608 1251.4 C 433.39 1250.63 437.836 1250.86 441.719 1250.68 C 437.359 1273.52 435.398 1296.46 431.726 1319.34 C 358.046 1327.62 284.212 1334.07 210.463 1341.64 C 184.596 1344.3 158.539 1346.15 132.761 1349.52 L 122.531 1350.67 C 122.71 1328.47 124.366 1302.9 119.636 1281.2 C 149.345 1277.73 179.372 1275.87 209.164 1273.04 L 429.608 1251.4 z"/>
<path transform="translate(0,0)" fill="rgb(225,226,217)" d="M 886.278 935.094 C 887.517 936.742 888.814 938.568 890.52 939.76 C 894.81 942.755 899.47 941.661 904.235 940.692 L 907.274 942.434 C 889.128 959.939 893.77 976.75 889.079 998.475 C 888.968 998.988 888.836 999.496 888.719 1000.01 C 886.756 1008.57 877.268 1014.23 877.407 1023.02 C 883.022 1033.08 892.078 1024.55 899.43 1028.48 C 904.193 1039.42 907.129 1062.3 909.82 1074.79 C 905.836 1071.63 901.416 1068.52 896.158 1068.33 C 892.099 1068.18 888.353 1069.83 885.53 1072.71 C 872.332 1086.21 869.807 1137.37 870.105 1156.76 C 862.073 1162.9 833.249 1180 829.633 1186.71 C 829.648 1187.23 829.746 1189.89 829.667 1190.35 C 828.886 1194.89 787.665 1213.23 782.073 1215.85 C 775.589 1164.86 769.419 1113.08 766.731 1061.72 C 774.052 1056.5 782.867 1051.24 788.898 1044.57 C 792.344 1040.76 793.761 1036.99 793.406 1031.84 C 791.798 1008.42 771.296 983.754 754.694 968.761 C 763.405 964.235 767.916 958.171 773.168 950.194 C 774.715 957.608 777.411 964.098 783.833 968.648 C 793.104 975.216 809.056 972.419 818.212 966.992 C 822.098 964.689 827.032 959.693 831.36 959.044 C 832.339 960.628 833.449 962.895 834.768 964.177 C 836.76 966.112 839.792 965.725 842.34 965.47 C 859.912 963.717 875.616 947.774 886.278 935.094 z"/>
<path transform="translate(0,0)" fill="rgb(225,226,217)" d="M 825.296 1555.34 C 827.21 1555 828.951 1555.02 830.896 1554.99 C 845.995 1562.08 863.347 1585.15 871.229 1599.7 A 848.791 848.791 0 0 0 837.18 1603.88 C 835.884 1595.33 835.38 1580.4 830.295 1573.5 L 828.452 1573.35 C 824.936 1579.15 828.869 1597.4 829.282 1604.91 C 760.7 1617.14 691.424 1625.84 622.523 1636.04 A 21990.9 21990.9 0 0 1 401.017 1669.71 C 377.68 1672.4 354.235 1676.22 331.087 1680.24 C 332.32 1663.13 332.516 1645.89 330.197 1628.87 L 825.296 1555.34 z"/>
<path transform="translate(0,0)" fill="rgb(117,115,113)" d="M 1835.26 597.424 C 1836.77 597.902 1838.34 598.417 1839.63 599.389 C 1851.28 608.194 1855.13 727.893 1856.89 750.164 L 1866.54 860.715 C 1868.45 881.844 1869.36 903.755 1873.05 924.633 C 1903.43 905.436 1914.98 877.099 1923.57 843.284 C 1925.76 834.658 1926.77 824.335 1930.56 816.346 L 1932.07 816.436 C 1932.57 817.273 1932.85 817.658 1933.23 818.512 C 1940.87 836.086 1932.18 866.109 1925.5 882.843 C 1916.07 906.474 1899.01 937.251 1874.43 947.797 C 1878.08 972.164 1879.7 997.114 1881.98 1021.65 A 5784.87 5784.87 0 0 1 1895.07 1194.44 C 1899.58 1264.64 1906.21 1334.6 1909.97 1404.89 C 1889.31 1405.43 1868.62 1407.74 1848.02 1409.26 L 1848.11 1391.34 C 1849.37 1327.35 1851.23 1263.18 1849.86 1199.19 C 1847.76 1100.64 1841.16 1001.93 1835.63 903.527 C 1806.72 900.421 1781.53 888.535 1761.69 867.017 C 1737.8 841.103 1726.34 800.403 1728.12 765.669 C 1728.36 760.952 1728.88 752.309 1732.42 749.076 C 1736.67 749.473 1739.35 754.783 1740.63 758.533 C 1742.98 765.471 1741.99 774.631 1743.12 781.992 C 1747.37 809.657 1761.4 838.651 1781.59 858.144 C 1791.04 867.268 1814.91 883.871 1828.55 883.039 C 1829.84 882.96 1831.54 882.583 1832.49 881.563 C 1836.19 877.588 1834.1 854.791 1833.87 848.78 L 1827.65 697.84 C 1826.79 672.197 1824.18 644.926 1827.2 619.481 C 1828.18 611.205 1829.58 603.866 1835.26 597.424 z"/>
<path transform="translate(0,0)" fill="rgb(191,193,184)" d="M 1387.02 1364.16 L 1389.07 1364.21 C 1390.66 1366.74 1390.01 1471.93 1390.13 1484.2 C 1336.73 1497.48 1284.24 1514.67 1232.05 1532.01 C 1194.36 1544.54 1156.49 1556.65 1119.37 1570.8 C 1107.34 1550.33 1094.18 1532.79 1077.71 1515.72 C 1060.55 1497.91 1040.04 1484.01 1019.47 1470.52 C 1068.95 1455.22 1117.82 1437.7 1167.42 1422.86 C 1240.16 1401.1 1313.44 1382.72 1387.02 1364.16 z"/>
<path transform="translate(0,0)" fill="rgb(191,193,184)" d="M 1837.8 1300.43 C 1840.03 1300.15 1841.45 1299.76 1843.46 1300.93 C 1845.38 1311.56 1844 1324.55 1843.85 1335.39 L 1842.49 1409.98 A 2509.93 2509.93 0 0 0 1426.24 1474.31 C 1424.46 1474.79 1423.37 1474.82 1421.56 1474.79 C 1419 1469.25 1422.81 1372.54 1422.8 1357.74 C 1465.8 1350.22 1508.49 1341.18 1551.63 1334.31 A 3874.33 3874.33 0 0 1 1837.8 1300.43 z"/>
<path transform="translate(0,0)" fill="rgb(0,0,0)" d="M 1635.91 1403.32 L 1638.16 1404.34 C 1640.58 1410.06 1635.98 1421.25 1634.29 1426.99 C 1633.3 1426.29 1633.19 1426.42 1632.73 1425.28 C 1630.53 1419.86 1633.66 1408.58 1635.91 1403.32 z"/>
<path transform="translate(0,0)" fill="rgb(0,0,0)" d="M 1610.09 1401.52 C 1610.64 1401.97 1611.07 1402.23 1611.43 1402.85 C 1613.91 1407.15 1613.12 1424.89 1611.66 1429.54 C 1610.34 1428.71 1609.12 1428.41 1608.57 1426.87 C 1606.15 1420.07 1607.33 1408.09 1610.09 1401.52 z"/>
<path transform="translate(0,0)" fill="rgb(225,226,217)" d="M 848.29 461.083 C 850.121 460.759 850.842 460.556 852.495 461.55 C 859.751 465.911 867.051 474.51 873.098 480.532 C 919.82 527.057 942.339 588.431 954.786 651.918 L 934.111 654.802 C 931.12 625.332 927.353 594.502 910.499 569.284 C 904.735 560.659 896.835 551.002 886.035 549.205 C 878.437 547.94 873.161 550.174 867.078 554.485 C 862.515 543 860.351 530.409 857.883 518.331 C 866.209 523.795 877.917 530.547 888.046 530.863 C 891.088 530.958 894.504 530.356 896.593 527.926 C 898.3 525.94 898.408 523.869 898.001 521.393 C 896.867 514.481 889.231 507.427 883.816 503.433 C 876.678 498.167 862.2 493.688 853.495 495.428 C 850.713 495.985 848.719 497.086 847.186 499.54 C 845.22 502.688 848.192 505.873 849.659 508.671 C 854.727 518.336 855.872 532.137 858.54 542.88 C 865.272 569.979 881.246 625.113 897.376 647.204 C 901.469 652.811 906.509 657.707 913.015 660.384 C 925.166 665.385 939.266 661.083 951.733 659.642 C 959.731 658.717 970.097 658.067 977.09 662.619 C 982.664 666.247 985.428 673.318 986.412 679.649 C 987.89 689.157 982.243 700.204 976.685 707.556 C 968.363 718.562 955.079 725.185 941.522 726.765 C 928.853 728.242 911.077 726.011 900.368 718.699 C 895.219 715.183 891.11 710.043 886.007 706.389 C 883.997 704.949 882.871 704.585 880.511 705.123 C 879.984 706.566 879.563 707.092 879.852 708.67 C 881.292 716.552 893.977 724.225 900.165 728.459 A 206.044 206.044 0 0 1 893.192 731.143 C 879.123 736.274 868.308 731.899 854.193 732.3 C 846.627 732.515 839.541 735.017 832.31 737.024 C 811.222 742.88 796.947 736.376 778.031 727.654 L 777.773 726.381 C 786.675 724.166 794.886 720.765 802.028 714.909 C 813.539 705.472 818.715 691.666 819.789 677.191 C 822.04 646.838 808.877 611.239 788.834 588.544 C 779.803 578.318 767.372 568.696 753.2 568.217 C 743.802 567.9 734.999 571.608 728.409 578.265 C 715.446 591.359 711.611 610.581 711.91 628.383 C 712.419 658.674 723.054 701.294 745.466 723 C 712.713 722.292 696.558 732.963 671.063 751.919 A 1706.75 1706.75 0 0 1 639.432 774.568 C 588.779 747.433 615.142 675.115 598.057 628.789 C 589.914 606.708 574.979 593.079 554 583.336 C 574.59 579.914 594.346 575.564 612.849 565.44 C 621.975 560.447 631.253 553.431 634.011 542.881 C 635.478 537.267 635.125 530.233 631.879 525.261 C 626.869 517.586 615.95 516.228 607.76 514.281 C 687.242 493.506 768.641 483.994 848.29 461.083 z"/>
<path transform="translate(0,0)" fill="rgb(0,0,0)" d="M 728.797 515.081 C 730.826 515.032 732.915 515.051 734.917 515.406 C 738.654 516.07 743.91 517.517 745.874 521.126 C 747.008 523.21 746.832 525.6 746.349 527.823 C 742.163 547.084 717.777 564.934 702.027 574.714 C 697.483 576.282 694.094 576.431 689.51 574.941 C 688.18 573.61 687.287 573.047 686.673 571.217 C 684.426 564.521 688.889 554.879 692.089 549.021 C 700.217 534.145 712.093 520.044 728.797 515.081 z"/>
<path transform="translate(0,0)" fill="rgb(117,115,113)" d="M 728.316 521.034 C 731.58 520.704 733.831 520.783 737.011 521.627 C 738.897 523.34 739.961 523.877 739.693 526.709 C 738.57 538.549 712.649 560.011 702.761 566.255 C 701.676 566.915 700.393 567.817 699.2 568.308 C 696.725 569.329 696.375 569.39 694.042 568.434 C 692.989 565.936 693.444 563.836 694.278 561.355 C 699.715 545.193 713.189 528.729 728.316 521.034 z"/>
<path transform="translate(0,0)" fill="rgb(160,160,153)" d="M 806.522 1424.76 C 828.282 1427.18 850.214 1428.63 871.886 1431.76 C 943.814 1442.16 1014.54 1465.73 1068.3 1516.39 C 1128.79 1573.39 1156.1 1667.68 1158.5 1749.09 C 1132.26 1752.17 1108.74 1759.93 1085.66 1772.87 C 1083.08 1693.63 1061.33 1598.95 1005.1 1539.94 C 967.769 1500.76 906.352 1476.17 852.393 1474.99 C 848.874 1474.92 844.914 1474.71 842.226 1477.31 L 842.551 1479.19 C 846.261 1482.39 851.221 1483.86 855.727 1485.65 C 880.05 1494.96 905.042 1515.14 923.195 1533.67 C 993.867 1605.83 1011.26 1706.71 1010.53 1803.84 C 979.285 1800.22 950.793 1803.04 920.432 1810.81 A 977.786 977.786 0 0 0 922.134 1787.37 C 926.572 1714.32 908.498 1624.41 858.673 1568.76 C 825.155 1531.32 774.036 1510.77 725.145 1503.39 C 712.039 1501.41 698.651 1500.94 685.431 1500.17 C 682.999 1489.6 681.412 1478.67 679.485 1467.99 C 723.148 1466.22 772.598 1453.35 806.522 1424.76 z"/>
<path transform="translate(0,0)" fill="rgb(117,115,113)" d="M 1420.38 1054.3 C 1421.9 1054.09 1423.34 1054.05 1424.87 1054.05 C 1441.45 1053.96 1455.79 1063.4 1467.02 1074.82 C 1508.71 1117.24 1527.38 1197.19 1527.25 1255.56 C 1540.43 1232.27 1554.57 1213.45 1576.71 1197.98 C 1599.94 1181.74 1630.44 1168.04 1659.41 1173.44 C 1672.44 1175.86 1683.54 1182.19 1690.82 1193.47 C 1705.36 1215.97 1702.99 1246.37 1698.03 1271.36 C 1707.75 1259.86 1721.63 1250.9 1736.1 1246.58 C 1745.05 1243.92 1754.78 1243.94 1763.04 1248.7 C 1769.04 1252.17 1773.39 1257.81 1774.89 1264.61 C 1777.81 1277.84 1772.39 1290.2 1765.25 1301 C 1748.45 1304.07 1730.25 1304.67 1713.21 1306.58 A 3956.29 3956.29 0 0 0 1611.65 1319.5 A 2873.41 2873.41 0 0 0 1501.62 1337.58 C 1475.27 1342.48 1449.06 1348.12 1422.59 1352.33 L 1422.2 1323.63 C 1431.91 1320.28 1439.07 1315.65 1445.55 1307.64 C 1456.45 1294.18 1465.98 1271.65 1463.79 1254.06 C 1463.32 1250.27 1462.21 1245.81 1458.89 1243.53 C 1457.44 1242.53 1456.65 1243.03 1455.02 1243.23 C 1444.41 1251.19 1444.54 1267.9 1440.13 1279.68 C 1435.88 1290.52 1430.24 1298.53 1421.79 1306.44 C 1419.86 1283.42 1420.01 1260.23 1417.85 1237.18 C 1421.33 1235.44 1424.9 1233.29 1427.64 1230.5 C 1438.16 1219.79 1445.47 1196.46 1445.04 1181.55 C 1444.93 1177.61 1444.4 1174.79 1441.44 1171.94 C 1439.49 1171.23 1438.24 1171.06 1436.23 1171.52 C 1433.64 1172.12 1431.77 1173.12 1430.33 1175.44 C 1428.6 1178.24 1428.76 1183.66 1427.74 1187.03 C 1424.67 1197.23 1420.73 1206.53 1415.33 1215.71 C 1414.85 1196.71 1412.77 1177.6 1411.35 1158.65 C 1410.24 1143.89 1410.13 1128.2 1407.1 1113.73 C 1406.56 1111.16 1405.72 1108.25 1403.62 1106.48 C 1401.76 1104.91 1399.86 1104.56 1397.49 1104.92 C 1394.78 1105.33 1393.4 1107.07 1392.46 1109.46 C 1390.17 1115.32 1391.88 1126.58 1391.83 1133.1 L 1391.93 1219.28 C 1391.95 1225.73 1393.45 1240.86 1391.91 1246.25 C 1391.69 1247.03 1391.09 1247.66 1390.68 1248.37 C 1389.61 1248.55 1388.59 1248.79 1387.48 1248.67 C 1368.7 1246.63 1363.24 1196.38 1355.84 1191.01 C 1353.89 1189.59 1353.36 1189.7 1351.23 1190.22 C 1349.37 1191.91 1347.92 1193.34 1346.99 1195.72 C 1342.74 1206.57 1348.29 1228.53 1352.79 1238.81 C 1360.52 1256.45 1373.15 1266.95 1390.92 1273.79 C 1391.03 1302.31 1389.98 1330.85 1389.98 1359.38 C 1365.31 1363.89 1341.19 1371.8 1316.46 1375.68 C 1304.82 1360.27 1299.18 1339.23 1296.18 1320.46 C 1285.31 1252.53 1308.6 1163.41 1348.91 1107.76 C 1366.31 1083.74 1389.87 1059.21 1420.38 1054.3 z"/>
<path transform="translate(0,0)" fill="rgb(160,160,153)" d="M 610.94 906.584 C 615.37 907.237 618.762 910.845 621.728 913.901 C 622.411 922.012 623.329 930.044 625.701 937.859 C 632.62 960.664 648.442 977.508 669.176 988.542 C 659.918 1006.09 652.631 1024.36 644.945 1042.62 C 630.767 1026.14 619.226 1007.65 605.612 990.746 C 597.92 981.195 589.217 973.183 580.761 964.412 C 584.827 956.14 589.917 948.274 595.442 940.906 C 598.995 936.167 603.681 931.565 606.134 926.164 C 594.098 934.388 583.763 951.873 577.018 964.666 C 577.925 966.168 578.868 967.559 579.92 968.967 C 587.931 979.688 596.826 989.752 605.03 1000.33 C 614.973 1013.15 624.171 1027.48 635.679 1038.89 C 638.976 1042.17 643.305 1046.22 648.054 1046.89 C 654.237 1042.16 662.371 1015.29 666.396 1006.62 C 669.983 998.891 673.796 991.55 678.574 984.491 L 697.09 986.238 C 689.783 1006.69 685.973 1028.84 681.446 1050.03 C 670.133 1102.99 660.47 1156.03 656.708 1210.13 L 655.776 1209.23 C 618.992 1173.37 603.164 1120.59 599.612 1070.43 C 598.479 1054.43 598.907 1038.21 598.761 1022.17 C 597.866 1024.67 597.1 1027.15 596.516 1029.74 C 585.322 1079.42 601.837 1146.11 628.81 1188.35 C 644.945 1213.61 668.75 1230.51 698.148 1236.79 C 747.111 1247.25 794.778 1220.49 834.518 1194.89 C 850.661 1213.67 863.616 1238.56 870.281 1262.37 C 825.728 1284.45 773.41 1303.54 723.553 1307.18 A 252.296 252.296 0 0 1 699.699 1306.91 C 659.315 1304.12 622.054 1289.38 595.23 1258.18 C 554.747 1211.09 540.315 1141.22 542.723 1080.55 C 543.379 1064.01 546.815 1048.04 547.94 1031.63 L 548.019 1030.34 C 534.486 1068.91 533.603 1110.87 540.986 1150.85 C 549.06 1194.57 565.587 1241.19 598.562 1272.49 C 606.383 1279.91 615.304 1285.86 624.152 1291.96 C 626.121 1309.99 626.869 1328.23 628.681 1346.31 C 634.016 1399.53 640.879 1451.89 651.94 1504.26 C 580.359 1503.98 504.337 1499.69 435.996 1476.88 C 434.236 1465.34 434.54 1452.98 434.223 1441.3 A 1041.97 1041.97 0 0 1 444.271 1276.28 A 933.139 933.139 0 0 1 466.954 1168.74 C 489.786 1087.76 541.536 957.905 610.94 906.584 z"/>
<path transform="translate(0,0)" fill="rgb(0,0,0)" d="M 569.073 1348.42 L 570.901 1349.13 C 571.484 1350.06 571.691 1350.25 571.958 1351.49 C 575.209 1366.48 560.164 1409.01 552.848 1423.12 C 547.272 1433.88 539.883 1445.29 527.86 1449.15 C 526.78 1447.96 525.991 1447.09 525.389 1445.56 C 524.394 1443.03 530.203 1434.07 531.764 1431.22 C 538.926 1418.14 545.736 1405.1 551.573 1391.37 C 557.623 1377.14 562.704 1362.52 569.073 1348.42 z"/>
<path transform="translate(0,0)" fill="rgb(117,115,113)" d="M 1840 1092.2 C 1808.42 1091.94 1778.67 1089.35 1748.74 1078.15 C 1702.84 1060.97 1671.16 1027.16 1651.35 982.905 C 1611.39 893.598 1625.09 768.01 1658.99 678.663 C 1688.11 601.927 1738.53 513.729 1816.77 478.982 C 1853.72 462.57 1896.47 462.757 1931.69 483.724 C 1937.37 487.107 1950.86 499.251 1955.45 500.624 C 1955.76 500.717 1956.09 500.735 1956.4 500.79 C 1976.44 518.714 1988.7 540.427 1990.16 567.3 C 1991.62 594.273 1989.08 621.672 1988.32 648.68 C 1987.08 692.939 1986.58 737.338 1986.1 781.611 C 1985.5 837.388 1986.74 893.205 1985.62 948.967 C 1985.1 975.055 1985.54 1003.23 1980.84 1028.88 L 1980.03 1027.93 C 1978.17 1028.44 1960.11 1046.73 1955.79 1050.17 C 1936.73 1065.36 1916.1 1077.01 1892.68 1083.99 C 1887.3 1039.65 1885.86 994.221 1878.62 950.158 A 92.6432 92.6432 0 0 0 1886.8 944.997 C 1913.13 926.575 1932.71 886.623 1937.8 855.638 C 1939.72 843.971 1941.1 821.043 1933.73 810.901 C 1929.22 811.668 1928.04 813.23 1926.33 817.441 C 1923.29 824.932 1922.58 833.994 1920.53 841.85 C 1912.61 872.244 1901.67 900.473 1875.42 919.42 C 1872.48 885.098 1870.12 850.713 1866.85 816.423 C 1878.57 809.576 1889.86 800.364 1896.57 788.317 C 1911.49 761.562 1918.74 703.415 1909.78 674.242 C 1908.82 671.12 1907.4 668.204 1904.28 666.786 C 1902.62 666.031 1902.22 666.591 1900.62 667.141 C 1896.05 673.093 1893.67 714.237 1892.02 724.477 C 1890.63 733.076 1888.72 741.585 1885.69 749.764 C 1881.55 760.915 1876.29 770.307 1865.05 775.433 C 1857.21 770.491 1859.67 619.733 1842.84 598.441 C 1841.27 596.444 1839.24 594.987 1836.59 594.966 C 1834.03 594.945 1832.13 596.103 1830.39 597.878 C 1825.15 603.2 1823.96 614.611 1823.3 621.81 C 1820.73 649.583 1823 679.194 1823.98 707.053 C 1826.02 765.045 1829.86 823.259 1830.41 881.26 C 1823.56 879.261 1816.96 877.012 1810.61 873.73 C 1777.76 856.736 1756.62 823.769 1748.59 788.333 C 1746.22 777.875 1746.71 766.421 1743.19 756.304 C 1741.84 752.416 1739.54 748.539 1735.4 747.191 C 1733.32 746.515 1730.96 746.778 1729.18 748.082 C 1726.12 750.328 1725.53 754.45 1724.92 757.924 C 1719.32 789.576 1731.7 835.312 1750.56 861.145 C 1771.8 890.251 1798.21 901.977 1832.72 907.404 C 1833.46 968.945 1838.67 1030.6 1840 1092.2 z"/>
<path transform="translate(0,0)" fill="rgb(160,160,153)" d="M 683.231 306.221 C 686.772 305.909 692.298 304.851 695.532 306.566 C 697.636 307.681 698.889 309.403 699.229 311.774 C 700.514 320.733 687.814 333.967 681.273 338.677 C 675.285 342.988 668.792 345.05 662.292 348.291 C 647.276 355.779 624.057 368.913 613.33 381.048 C 623.255 377.815 643.322 363.811 654.511 358.122 A 440.123 440.123 0 0 1 773.452 317.251 C 787.981 314.379 838.995 305.403 848.875 314.341 C 850.744 316.032 851.518 317.247 851.433 319.786 C 851.29 324.092 846.386 330.387 843.835 333.859 C 838.07 341.704 831.303 350.186 823.545 356.157 C 817.742 360.623 810.321 363.407 803.718 366.504 C 786.656 374.506 766.815 382.692 752.396 394.936 C 752.084 395.201 751.777 395.474 751.468 395.743 C 772.949 386.923 793.114 375.004 814.752 366.429 C 847.124 353.6 902.097 346.741 936.512 352.753 C 942.401 353.781 950.463 355.852 953.663 361.497 C 955.572 364.866 955.033 369.657 954.07 373.247 C 950.874 385.166 940.643 396.258 932.085 404.742 C 888.121 448.326 828.402 461.238 769.967 473.173 L 693.512 488.621 C 657.949 495.817 622.906 504.448 587.621 512.826 C 575.343 515.742 540.04 522.976 530.325 528.306 L 531.933 529.272 L 532.749 528.211 C 556.692 524.006 597.124 513.567 619.958 522.569 C 624.06 524.186 627.262 526.503 628.782 530.802 C 630.407 535.399 628.081 541.827 625.701 545.754 C 608.889 573.508 548.492 576.14 519.821 583.223 L 518.4 583.582 C 530.753 586.83 543.633 585.533 555.685 590.559 C 564.562 594.261 572.681 600.628 578.985 607.843 C 613.579 647.439 589.363 703.752 607.523 748.402 C 613.361 762.758 622.48 772.868 636.865 778.814 C 629.881 789.471 626.787 798.099 624.879 810.632 C 629.804 800.563 633.287 789.596 639.908 780.431 C 643.556 775.38 681.379 749.653 689.486 744.149 C 710.021 730.207 730.17 726.398 754.766 727.978 C 762.184 728.454 769.717 728.982 776.69 731.749 C 786.536 735.656 795.027 742.957 805.696 744.739 C 822.542 747.553 835.586 738.638 851.528 736.734 C 863.178 735.343 874.586 740.295 886.026 738.086 C 892.834 736.771 899.179 733.906 904.85 729.974 C 911.434 732.14 918.322 734.15 925.208 735.027 C 945.653 737.631 962.355 730.781 978.235 718.429 A 140.231 140.231 0 0 1 980.501 722.136 C 989.032 736.382 1006.29 773.457 1002.04 790.301 C 1001.14 791.226 1000.91 791.983 999.501 791.946 C 991.794 791.745 985.482 778.314 980.934 772.977 L 980.035 771.936 C 985.331 798.459 994.278 822.222 982.95 848.745 C 975.526 844.391 969.125 838.367 962.749 832.655 C 963.784 845.391 972.025 870.833 964.293 882.346 C 962.925 884.383 961.146 885.634 958.635 885.825 C 952.199 886.314 946.226 880.077 941.77 876.219 C 943.475 880.65 945.714 884.851 947.836 889.093 C 943.703 896.917 939.451 904.236 932.614 910.066 C 928.885 913.245 924.444 916.892 919.402 916.484 C 915.657 913.466 913.329 905.329 911.439 900.778 L 911.448 900.815 L 910.271 899.237 C 907.582 906.838 912.584 916.411 910.289 923.861 C 908.623 929.269 902.949 935.813 897.426 937.523 C 895.46 938.132 895.092 938.068 893.408 937.041 C 889.114 929.214 895.714 912.166 897.107 903.352 C 887.458 924.897 876.068 946.462 852.88 956.106 C 849.262 957.611 842.292 960.028 838.615 958.596 C 835.618 948.212 843.5 931.49 843.52 919.397 L 843.517 917.817 C 836.621 929.856 834.985 946.111 824.523 955.947 C 817.141 962.888 805.686 966.387 795.674 965.708 C 790.308 965.345 784.741 963.681 781.191 959.4 C 772.68 949.135 779.489 931.588 780.174 919.695 L 780.239 918.363 C 773.583 929.94 771.25 944.289 762.812 954.792 C 754.733 964.849 743.263 966.36 731.266 967.447 C 726.637 965.464 719.347 963.255 716.572 958.775 C 712.022 951.429 718.981 938.411 721.055 930.74 L 720.021 929.444 C 713.127 932.798 708.459 949.559 706.052 956.454 C 700.319 956.852 694.383 957.483 688.667 956.656 C 678.204 955.142 671.557 950.267 665.191 942.092 C 663.894 929.715 664.214 917.427 666.861 905.238 C 668.188 899.127 675.247 886.186 674.722 881.507 L 673.417 880.583 C 673.101 880.746 672.764 880.874 672.469 881.072 C 659.516 889.792 660.078 920.307 657.569 933.868 L 656.015 934.826 C 653.054 934.493 650.944 933.651 648.358 932.145 C 638.36 926.321 630.266 916.887 627.65 905.458 C 622.471 882.828 636.034 858.012 647.176 839.303 C 644.131 841.24 641.073 843.17 638.491 845.714 C 624.634 859.372 621.516 881.179 621.491 899.71 C 610.936 890.549 599.627 881.534 590.61 870.84 C 596.959 860.463 601.706 850.995 602.306 838.621 C 603.83 807.156 587.482 769.898 566.38 747.031 C 551.061 730.431 529.714 717.615 506.647 716.923 A 61.0112 61.0112 0 0 0 462.298 733.717 C 442.974 752.291 438.299 776.465 437.956 802.184 C 424.513 784.118 413.029 766.71 406.075 745.101 C 383.486 674.901 405.466 602.769 437.821 539.845 C 425.827 544.005 407.158 542.515 395.007 539.175 C 388.583 537.41 380.993 534.385 377.755 528.091 C 376.326 525.313 375.667 521.64 376.963 518.692 C 378.652 514.85 382.851 512.249 386.697 511.031 C 408.438 504.148 424.369 527.799 441.445 536.133 C 441.796 536.303 442.151 536.462 442.504 536.626 C 439.429 530.335 434.335 525.561 431.176 519.369 C 422.252 501.877 418.077 477.113 420.267 457.597 C 420.831 452.576 422.317 444.161 427.162 441.323 C 428.527 440.523 430.186 440.04 431.747 440.36 C 434.66 440.957 436.708 442.94 438.285 445.355 C 446.722 458.278 446.696 495.142 445.296 510.822 C 444.66 517.952 443.054 524.875 441.419 531.83 C 451.215 513.979 459.216 495.479 469.846 478.008 C 508.408 414.633 558.721 366.188 624.054 331.084 C 643.256 320.767 661.909 311.428 683.231 306.221 z"/>
<path transform="translate(0,0)" fill="rgb(0,0,0)" d="M 430.47 634.617 C 432.939 641.749 428.552 662.663 428.135 671.259 C 426.934 696.012 430.757 720.285 431.671 744.924 C 421.331 713.537 422.128 666.48 430.47 634.617 z"/>
<path transform="translate(0,0)" fill="rgb(0,0,0)" d="M 718.59 761.369 C 722.383 762.37 726.333 765.518 729.815 767.455 C 740.454 773.371 750.314 778.099 762.256 780.754 C 786.581 786.163 815.163 787.565 839.673 782.467 C 854.402 779.403 869.822 774.181 885.013 775.184 C 896.709 775.956 907.967 780.297 915.532 789.531 C 922.631 798.196 926.583 810.811 925.074 821.981 C 923.261 835.402 912.874 845.953 902.488 853.541 C 888.18 862.154 870.726 867.484 854.408 870.582 C 814.192 878.217 768.235 875.966 733.489 852.098 C 719.781 842.682 711.1 830.211 708.243 813.704 C 705.245 796.389 708.468 775.874 718.59 761.369 z"/>
<path transform="translate(0,0)" fill="rgb(191,193,184)" d="M 798.917 819.257 C 807.524 818.531 814.717 818.75 822.511 822.946 C 837.807 831.179 844.32 849.301 849.033 864.909 C 844.889 865.78 840.572 866.116 836.367 866.624 C 827.922 867.618 819.466 867.947 810.978 868.312 C 808.523 858.17 804.807 848.223 799.545 839.195 C 796.883 834.627 791.404 829.551 790.174 824.579 C 792.431 821.789 795.73 820.699 798.917 819.257 z"/>
<path transform="translate(0,0)" fill="rgb(191,193,184)" d="M 726.437 807.145 C 739.565 805.903 752.606 808 764.466 813.872 C 786.676 824.869 798.582 845.971 806.107 868.662 L 795.425 867.922 C 772.735 864.962 749.793 858.865 731.441 844.521 C 720.451 835.932 715.095 826.326 713.414 812.658 C 717.738 810.359 721.788 808.65 726.437 807.145 z"/>
<path transform="translate(0,0)" fill="rgb(58,57,55)" d="M 720.888 770.487 C 751.299 791.67 798.42 797.589 834.294 790.915 C 851.646 787.687 872.195 780.621 889.901 784.045 C 898.435 785.695 906.556 789.801 911.374 797.269 C 916.265 804.851 918.433 816.123 916.165 824.91 C 913.049 836.982 903.346 844.518 893.149 850.543 C 881.156 856.554 868.842 860.516 856.021 864.278 C 853.631 854.748 850.346 845.084 845.202 836.668 C 838.21 825.228 827.285 816.153 814.019 813.192 C 802.121 810.537 793.512 813.595 783.712 819.984 C 776.62 813.928 768.953 809.465 760.181 806.323 C 744.465 800.691 729.43 799.083 713.935 806.351 C 714.989 793.822 717.221 782.52 720.888 770.487 z"/>
<path transform="translate(0,0)" fill="rgb(191,193,184)" d="M 1977.48 1289.16 C 1976.42 1299.33 1981.74 1312.61 1983.32 1322.97 C 1985.72 1338.73 1987.18 1355.41 1987.24 1371.35 C 1987.42 1418.9 1981.22 1466.33 1980.95 1513.93 C 1980.63 1570.31 1984.11 1626.49 1984.07 1682.81 C 1984.04 1733.05 1980.6 1782.66 1977.47 1832.75 C 1976.47 1848.75 1978.41 1875.87 1974.81 1889.87 C 1867.31 1830.18 1753.54 1782.92 1638.25 1740.62 A 3128.87 3128.87 0 0 0 1386.49 1659.16 C 1386.69 1654.93 1387 1650.62 1386.86 1646.39 C 1386.71 1642.15 1386.02 1637.3 1382.77 1634.29 C 1379.78 1633.91 1377.84 1634.88 1375.21 1636.13 C 1375.01 1636.23 1374.8 1636.34 1374.6 1636.44 C 1372.99 1630.42 1385.05 1621.59 1384.66 1613.65 C 1384.53 1611.07 1383.05 1608.54 1381.09 1606.93 C 1378.6 1604.88 1375.64 1604.62 1372.6 1605.24 C 1354.52 1608.97 1338.99 1628.74 1329 1642.81 C 1312.9 1639.81 1296.91 1635.1 1280.93 1631.42 C 1273.03 1629.6 1258.94 1627.99 1252.21 1624.85 C 1251.87 1624.69 1250.43 1623.79 1250.39 1623.49 C 1249.68 1617.52 1259.1 1602.98 1256.68 1597.32 C 1253.05 1601.59 1251.22 1606.81 1249.23 1611.96 C 1248.15 1605.48 1248.19 1599.18 1247.88 1592.64 C 1247.65 1587.72 1247.94 1580.2 1243.56 1576.98 C 1241.09 1575.16 1238.41 1574.97 1235.51 1575.7 C 1219.41 1579.76 1206.39 1599 1198.18 1612.05 C 1176.6 1607.44 1155.09 1603.09 1133.38 1599.13 A 1073.8 1073.8 0 0 1 1123.14 1576.67 C 1163.39 1561.28 1204.74 1548.36 1245.73 1535.1 C 1318.95 1511.41 1392.42 1489.49 1467.49 1472.35 C 1628.38 1435.62 1793.15 1418.08 1957.58 1406.99 C 1962.33 1406.67 1971.78 1406.99 1974.95 1403.36 L 1972.89 1401.66 C 1972.87 1401.66 1972.84 1401.66 1972.82 1401.65 C 1962.33 1398.68 1927.45 1402.57 1915.04 1403.93 C 1915.54 1367.89 1911.25 1330.9 1908.78 1294.92 C 1920.4 1294.77 1970.6 1294.13 1977.48 1289.16 z"/>
<path transform="translate(0,0)" fill="rgb(0,0,0)" d="M 1811.41 1495.25 L 1813.44 1496.42 C 1815.21 1503.09 1809.09 1516.4 1806.45 1522.79 L 1804.02 1520.42 C 1802.12 1513.24 1808.44 1501.91 1811.41 1495.25 z"/>
<path transform="translate(0,0)" fill="rgb(0,0,0)" d="M 1649.25 1596.44 C 1650.64 1596.9 1651.58 1597.42 1652.83 1598.17 C 1658.93 1608.58 1662 1626.74 1660.32 1638.59 C 1660.01 1638.37 1659.68 1638.18 1659.39 1637.93 C 1658.18 1636.88 1649.44 1600.04 1649.25 1596.44 z"/>
<path transform="translate(0,0)" fill="rgb(0,0,0)" d="M 1786.91 1480.42 C 1788.37 1481.02 1788.65 1480.85 1789.46 1481.9 C 1794.34 1488.25 1796.2 1508.19 1795.09 1515.76 C 1793.4 1515.13 1792.93 1515.03 1792.07 1513.41 C 1788.7 1507.07 1784.59 1487.2 1786.91 1480.42 z"/>
<path transform="translate(0,0)" fill="rgb(0,0,0)" d="M 1754.31 1482.65 C 1754.69 1482.76 1755.07 1482.83 1755.43 1482.98 C 1765.53 1487.18 1781.82 1513.62 1785.48 1523.51 C 1785.13 1523.42 1784.77 1523.36 1784.42 1523.24 C 1776.99 1520.56 1758.35 1490.33 1754.31 1482.65 z"/>
<path transform="translate(0,0)" fill="rgb(0,0,0)" d="M 1616.38 1597.51 C 1618.03 1597.77 1619.42 1597.99 1620.82 1598.97 C 1632.38 1607.11 1645.65 1627.81 1648 1641.54 C 1646.24 1641.03 1645.54 1640.77 1644.33 1639.32 C 1639.53 1633.55 1635.62 1625.28 1631.39 1618.95 C 1626.55 1611.69 1620.69 1605.11 1616.38 1597.51 z"/>
<path transform="translate(0,0)" fill="rgb(0,0,0)" d="M 1790.06 1705.96 C 1794.43 1706.63 1797.35 1707.36 1800.14 1710.99 C 1812.47 1726.97 1806.8 1763.9 1804.38 1782.39 C 1806.99 1778 1809.62 1773.72 1812.83 1769.74 C 1818.13 1763.17 1828.99 1751.3 1837.92 1751.17 C 1840.45 1751.14 1842.59 1751.78 1844.26 1753.8 C 1846.2 1756.13 1846.55 1759.41 1846.42 1762.32 C 1845.66 1778.61 1828.02 1800.12 1816.72 1810.77 C 1820.78 1794.23 1834.54 1781.97 1839.41 1765.75 C 1840.3 1762.78 1840.6 1760.82 1839.08 1758.08 C 1821.28 1755.81 1808.44 1791.23 1800.52 1797.2 C 1796.55 1792.14 1799.86 1770.64 1800.34 1764.02 C 1800.54 1753.77 1800.68 1743.35 1799.97 1733.11 C 1799.47 1725.83 1798.47 1717.18 1792.62 1712.16 C 1791 1711.79 1790.89 1711.44 1789.36 1712.35 C 1777.04 1719.63 1773.8 1771.01 1772.42 1785.73 C 1766.1 1774.36 1759.4 1761.98 1749.73 1753.04 C 1746.84 1750.37 1744.5 1748.73 1740.5 1748.85 C 1734.72 1755.8 1741.85 1767.82 1742.44 1775.91 L 1741.54 1776.49 C 1740.51 1775.79 1739.54 1775.15 1738.68 1774.24 C 1733.73 1769.03 1731.92 1759.98 1732.25 1753.02 C 1732.41 1749.55 1733.22 1745.67 1736.28 1743.56 C 1738.47 1742.04 1741.27 1741.97 1743.78 1742.57 C 1755.94 1745.46 1762.97 1759.29 1768.9 1769.18 C 1769.45 1756.4 1770.16 1743.15 1773.49 1730.77 C 1776.31 1720.3 1780.43 1711.56 1790.06 1705.96 z"/>
<path transform="translate(0,0)" fill="rgb(191,193,184)" d="M 69.9221 1955.72 C 66.0949 1943.71 64.8999 1930.15 63.1595 1917.69 A 1112.07 1112.07 0 0 1 54.0489 1830.49 C 46.2733 1723.78 41.1247 1628.33 49.9796 1521.13 C 51.4532 1503.29 52.2124 1485.07 54.7369 1467.35 C 55.6559 1460.91 57.6349 1454.79 58.679 1448.45 C 58.7365 1448.1 58.772 1447.75 58.8185 1447.4 C 60.5904 1449.7 60.8603 1450.57 63.9393 1450.91 C 74.4146 1452.06 87.6522 1448.66 98.2072 1447.47 L 98.2021 1449.02 C 98.084 1464.03 89.5604 1520.98 100.499 1532.35 C 104.194 1536.19 117.765 1534.32 122.908 1534 L 125.211 1533.86 L 124.825 1548.82 C 116.836 1548.99 102.864 1548.56 96.9654 1554.65 C 91.2873 1560.51 92.3377 1584.14 92.7305 1592.66 C 92.854 1595.34 93.1434 1598.01 94.7432 1600.23 C 111.315 1609.83 131.853 1615.02 149.984 1621.17 C 190.944 1635.06 232.889 1647.41 273.224 1662.89 C 270.165 1715.04 272.796 1767.32 271.135 1819.52 C 261.025 1797.47 242.73 1756.41 218.405 1747.25 C 214.96 1745.95 210.556 1745.49 207.128 1747.14 C 202.903 1749.17 201.035 1752.82 199.892 1757.17 C 193.575 1781.22 207.915 1818.75 215.125 1841.81 C 208.238 1834.7 192.254 1816.55 181.372 1817.48 C 178.815 1817.7 176.765 1819.03 175.41 1821.19 C 172.555 1825.74 174.005 1831.87 175.518 1836.61 C 181.769 1856.17 195.24 1869.94 208.966 1884.51 C 191.395 1882.32 164.29 1878.21 149.037 1889.49 C 147.747 1890.44 147.665 1890.62 146.742 1891.65 L 147.401 1892.76 C 156.933 1893.66 167.92 1890.53 177.644 1890.07 C 193.775 1889.31 209.727 1890.9 225.77 1892.38 C 212.925 1879.4 178.317 1845.7 180.202 1826.66 C 180.354 1825.12 180.452 1825.06 180.922 1823.82 C 182.835 1822.82 182.09 1822.74 183.91 1823.28 C 200.536 1828.21 226.521 1873.55 243.448 1887.19 C 237.828 1876.04 231.711 1865.07 227.052 1853.48 C 220.587 1837.39 198.942 1770.06 205.338 1756.16 C 206.363 1753.93 207.399 1752.52 209.952 1752.11 C 216.136 1751.13 222.821 1756.64 226.883 1760.59 C 250.419 1783.49 265.97 1818.39 275.01 1849.37 C 278.782 1862.29 281.26 1875.85 286.542 1888.26 C 286.253 1879.58 284.449 1870.82 284.554 1862.22 C 284.683 1851.72 289.679 1834.1 296.872 1826.19 C 298.557 1824.34 299.939 1823.64 302.414 1823.07 C 305.249 1823.97 306.657 1824.89 308.094 1827.57 C 316.61 1843.47 311.284 1883.64 314.561 1885.05 C 320.856 1876.03 325.837 1858.45 338.61 1856.46 C 341.233 1856.05 342.792 1857.29 344.804 1858.74 C 346.026 1861.23 346.246 1862.49 345.409 1865.22 C 342.867 1873.49 336.89 1880.09 334.352 1888.8 C 341.172 1883.75 349.004 1873.03 350.306 1864.51 C 350.813 1861.19 350.388 1857.82 348.305 1855.08 C 346.694 1852.97 344.444 1852.09 341.877 1851.78 C 336.72 1851.15 330.444 1855.16 326.862 1858.48 C 324.564 1860.61 322.473 1863.21 320.483 1865.62 C 319.797 1854.94 320.056 1830.4 312.149 1822.96 C 308.921 1819.92 303.919 1817.98 299.802 1816.47 C 298.611 1800.31 299.897 1783.71 300.301 1767.5 C 301.008 1739.09 301.673 1710.31 300.838 1681.89 C 305.565 1684.85 310.589 1688.18 316.399 1688.12 C 334.671 1687.92 354.624 1683.4 372.747 1680.85 A 10518.1 10518.1 0 0 0 499.948 1662.02 L 681.436 1634.13 A 5067.88 5067.88 0 0 0 823.983 1612.61 C 840.753 1609.91 857.772 1607.71 874.455 1604.56 C 911.959 1668.03 917.502 1740.1 913.707 1812.06 C 909.996 1814.19 905.78 1815.88 904.378 1820.24 C 900.097 1833.56 909.924 1849.78 909.028 1863.57 C 908.988 1864.17 908.971 1864.78 908.929 1865.38 C 908.091 1877.5 902.094 1887.65 903.338 1899.99 C 903.398 1900.59 903.445 1901.19 903.509 1901.78 C 903.547 1902.14 903.6 1902.5 903.645 1902.85 C 877.939 1902.99 851.64 1903.31 826.021 1905.56 C 834.575 1908.93 856.56 1907.86 866.911 1908.17 A 2294.16 2294.16 0 0 0 1034.51 1907.11 C 1085.4 1904.75 1136.24 1900.24 1187.12 1898.28 C 1207.53 1897.5 1228.07 1897.35 1248.5 1897.29 C 1261.09 1897.25 1273.47 1897.8 1286.03 1896.5 C 1258.07 1893.09 1229.79 1896.27 1202.03 1893.32 C 1209.43 1892.26 1218.99 1892.05 1223.97 1885.56 C 1226.83 1881.83 1226.66 1876.92 1225.82 1872.55 C 1224.27 1864.51 1221.05 1856.83 1217.12 1849.69 L 1217.76 1849.75 L 1219.58 1850.18 L 1218.53 1850.63 C 1219.26 1850.83 1219.96 1851.26 1220.71 1851.24 C 1225.9 1851.15 1365.41 1786.72 1376.63 1780.59 C 1378 1779.84 1379.32 1778.97 1380.61 1778.09 C 1378.63 1763.67 1374.61 1751.58 1362.51 1742.38 C 1345.91 1729.76 1321.59 1726.9 1301.51 1730.07 C 1266.81 1735.54 1207.79 1763.25 1173.97 1778.32 C 1173.83 1773.31 1174.63 1755.16 1171.25 1752.17 C 1169.81 1750.9 1168.35 1750.13 1166.67 1749.25 C 1163.92 1739.32 1164.42 1719.17 1162.75 1707.21 A 449.29 449.29 0 0 0 1135.13 1604.15 A 3542.03 3542.03 0 0 1 1599.81 1734.77 A 2929.69 2929.69 0 0 1 1732.55 1784.74 A 2787.92 2787.92 0 0 1 1895.94 1857.7 C 1909.44 1864.2 1923 1870.47 1936.27 1877.44 C 1948.66 1883.95 1961.7 1892.95 1975.13 1896.92 C 1975.21 1897.07 1975.31 1897.21 1975.38 1897.37 C 1980.79 1910.09 1980.14 1940.49 1975.14 1953.55 C 1951.45 1957.21 1927.1 1958.14 1903.18 1959.34 A 2303.28 2303.28 0 0 1 1727.91 1960.25 C 1695.05 1958.93 1662.04 1955.76 1629.16 1956.04 C 1590.61 1956.35 1553.72 1965.87 1515.78 1970.91 C 1482.28 1975.37 1447.91 1975.59 1414.16 1975.99 C 1293.03 1977.45 1171.95 1971.57 1050.95 1966.91 C 998.364 1964.88 945.831 1962.1 893.192 1961.9 A 2284.86 2284.86 0 0 0 778.076 1963.34 C 708.4 1966.4 639.167 1972.3 569.37 1973.84 A 3336.91 3336.91 0 0 1 354.804 1972.67 C 304.15 1970.47 253.587 1965.8 202.988 1962.59 C 173.172 1960.69 143.289 1958.7 113.449 1957.32 C 99.0373 1956.65 84.1951 1957.69 69.9221 1955.72 z"/>
<path transform="translate(0,0)" fill="rgb(0,0,0)" d="M 1819.42 1920.25 C 1822 1921.06 1822.64 1920.99 1824.26 1923.1 C 1822.88 1925.77 1821.22 1926.46 1818.75 1928.11 C 1817.52 1927.98 1816.81 1927.6 1815.7 1927.08 C 1815.71 1924.02 1817.59 1922.62 1819.42 1920.25 z"/>
<path transform="translate(0,0)" fill="rgb(0,0,0)" d="M 1609.88 1839.21 C 1611.54 1839.87 1612.03 1840.26 1613.28 1841.44 C 1615.13 1846.96 1613.32 1850.98 1611.45 1856.3 C 1610.43 1856.57 1611.13 1856.49 1609.42 1855.75 C 1608.01 1850.8 1608.92 1844.19 1609.88 1839.21 z"/>
<path transform="translate(0,0)" fill="rgb(0,0,0)" d="M 1783.27 1915.67 C 1786.27 1915.87 1788.79 1916.57 1790.96 1918.77 C 1793.85 1921.69 1794.94 1925.46 1794.98 1929.46 L 1793.52 1929.37 C 1788.91 1926.86 1785.77 1920.18 1783.27 1915.67 z"/>
<path transform="translate(0,0)" fill="rgb(0,0,0)" d="M 1809.51 1908.21 C 1810.95 1908.93 1812.87 1909.36 1813.58 1910.91 C 1815.85 1915.84 1811.61 1924 1809.83 1928.75 L 1808.24 1928.86 L 1807.17 1927.53 C 1806.85 1921.26 1808.51 1914.43 1809.51 1908.21 z"/>
<path transform="translate(0,0)" fill="rgb(0,0,0)" d="M 524.852 1908.8 C 529.66 1909.02 532.494 1911.25 536.099 1914.23 C 540.912 1918.21 545.748 1923.57 546.301 1929.99 C 545.817 1929.72 545.317 1929.49 544.849 1929.19 C 542.015 1927.43 526.645 1913.65 525.681 1911.88 C 525.172 1910.95 525.129 1909.82 524.852 1908.8 z"/>
<path transform="translate(0,0)" fill="rgb(0,0,0)" d="M 595.12 1743.69 C 599.182 1744.01 601.319 1745.63 604.229 1748.35 C 611.01 1754.69 619.123 1766.82 619.255 1776.2 C 611.219 1767.29 605.074 1756.74 596.676 1747.91 C 595.378 1746.55 595.497 1745.5 595.12 1743.69 z"/>
<path transform="translate(0,0)" fill="rgb(0,0,0)" d="M 561.96 1906.9 C 566.044 1906.83 568.744 1907.19 571.832 1909.98 C 575.645 1913.43 578.143 1921.6 578.426 1926.62 L 577.523 1926.98 C 573.518 1923.6 571.132 1917.89 567.923 1913.64 L 564.49 1911.78 C 558.841 1912.94 557.741 1922.35 554.663 1926.83 C 553.471 1924.89 553.709 1922.73 553.953 1920.47 C 554.571 1914.77 557.662 1910.46 561.96 1906.9 z"/>
<path transform="translate(0,0)" fill="rgb(0,0,0)" d="M 636.239 1727.62 L 637.098 1728.45 C 639.28 1733.13 629.874 1768.91 628.216 1776.56 C 627.461 1775.15 626.986 1774.01 626.729 1772.42 C 624.725 1760.03 629.428 1737.76 636.239 1727.62 z"/>
<path transform="translate(0,0)" fill="rgb(0,0,0)" d="M 1546.56 1812.97 C 1548.69 1813.52 1550.34 1814.17 1552.12 1815.45 C 1565 1824.71 1580.82 1844.28 1583.9 1859.87 L 1582.3 1859.58 C 1575.63 1854.26 1570.49 1843.87 1565.21 1836.96 C 1559.9 1830.01 1552.29 1823.57 1547.59 1816.42 C 1546.88 1815.34 1546.75 1814.21 1546.56 1812.97 z"/>
<path transform="translate(0,0)" fill="rgb(0,0,0)" d="M 369.654 1879.44 C 389.288 1877.99 412.945 1881.8 431.669 1887.78 C 422.373 1887.69 413.041 1887.05 403.752 1886.63 C 381.943 1884.56 359.922 1885.88 338.127 1887.33 C 348.904 1882.14 357.786 1880.34 369.654 1879.44 z"/>
</svg>