<svg version="1.1" xmlns="http://www.w3.org/2000/svg" style="display: block;" viewBox="0 0 2048 2048" width="1024" height="1024">
<defs>
	<linearGradient id="Gradient1" gradientUnits="userSpaceOnUse" x1="1434.96" y1="1894.92" x2="1412.36" y2="1906.44">
		<stop class="stop0" offset="0" stop-opacity="1" stop-color="rgb(0,0,7)"/>
		<stop class="stop1" offset="1" stop-opacity="1" stop-color="rgb(4,4,36)"/>
	</linearGradient>
	<linearGradient id="Gradient2" gradientUnits="userSpaceOnUse" x1="1267.22" y1="243.458" x2="1248.87" y2="336.043">
		<stop class="stop0" offset="0" stop-opacity="1" stop-color="rgb(3,3,17)"/>
		<stop class="stop1" offset="1" stop-opacity="1" stop-color="rgb(13,13,39)"/>
	</linearGradient>
	<linearGradient id="Gradient3" gradientUnits="userSpaceOnUse" x1="1611.65" y1="1801.83" x2="1595.87" y2="1784.99">
		<stop class="stop0" offset="0" stop-opacity="1" stop-color="rgb(0,0,0)"/>
		<stop class="stop1" offset="1" stop-opacity="1" stop-color="rgb(4,3,31)"/>
	</linearGradient>
	<linearGradient id="Gradient4" gradientUnits="userSpaceOnUse" x1="397.112" y1="1743.39" x2="500.017" y2="1759.07">
		<stop class="stop0" offset="0" stop-opacity="1" stop-color="rgb(0,0,5)"/>
		<stop class="stop1" offset="1" stop-opacity="1" stop-color="rgb(3,1,27)"/>
	</linearGradient>
	<linearGradient id="Gradient5" gradientUnits="userSpaceOnUse" x1="1554.22" y1="1857.75" x2="1525.92" y2="1898.05">
		<stop class="stop0" offset="0" stop-opacity="1" stop-color="rgb(0,0,3)"/>
		<stop class="stop1" offset="1" stop-opacity="1" stop-color="rgb(2,1,33)"/>
	</linearGradient>
	<linearGradient id="Gradient6" gradientUnits="userSpaceOnUse" x1="293.709" y1="1657.62" x2="311.706" y2="1694.19">
		<stop class="stop0" offset="0" stop-opacity="1" stop-color="rgb(0,0,0)"/>
		<stop class="stop1" offset="1" stop-opacity="1" stop-color="rgb(2,0,28)"/>
	</linearGradient>
	<linearGradient id="Gradient7" gradientUnits="userSpaceOnUse" x1="861.183" y1="372.466" x2="842.249" y2="377.146">
		<stop class="stop0" offset="0" stop-opacity="1" stop-color="rgb(3,3,19)"/>
		<stop class="stop1" offset="1" stop-opacity="1" stop-color="rgb(10,8,40)"/>
	</linearGradient>
	<linearGradient id="Gradient8" gradientUnits="userSpaceOnUse" x1="983.751" y1="1014.89" x2="1064.97" y2="1048.38">
		<stop class="stop0" offset="0" stop-opacity="1" stop-color="rgb(0,0,1)"/>
		<stop class="stop1" offset="1" stop-opacity="1" stop-color="rgb(2,1,25)"/>
	</linearGradient>
	<linearGradient id="Gradient9" gradientUnits="userSpaceOnUse" x1="1058.4" y1="878.637" x2="1143.74" y2="914.009">
		<stop class="stop0" offset="0" stop-opacity="1" stop-color="rgb(171,178,169)"/>
		<stop class="stop1" offset="1" stop-opacity="1" stop-color="rgb(197,196,197)"/>
	</linearGradient>
	<linearGradient id="Gradient10" gradientUnits="userSpaceOnUse" x1="973.272" y1="971.872" x2="963.999" y2="962.479">
		<stop class="stop0" offset="0" stop-opacity="1" stop-color="rgb(0,0,6)"/>
		<stop class="stop1" offset="1" stop-opacity="1" stop-color="rgb(7,6,43)"/>
	</linearGradient>
</defs>
<path transform="translate(0,0)" fill="rgb(229,230,220)" d="M 0 0 L 2048 0 L 2048 2048 L 0 2048 L 0 0 z"/>
<path transform="translate(0,0)" fill="url(#Gradient1)" d="M 1441.14 1961.18 C 1439.8 1960.2 1438.48 1958.24 1437.5 1956.93 C 1420.29 1934.02 1400.09 1873.46 1404.74 1845.06 C 1405.19 1842.34 1405.8 1842.36 1407.97 1840.84 L 1411.54 1842.65 C 1412.02 1844.43 1412.08 1844.96 1411.84 1846.89 C 1407.01 1858.45 1427.48 1916.37 1433.03 1929.98 C 1435.41 1935.8 1437.94 1942.93 1442.15 1947.7 C 1443.45 1948.02 1444.76 1948.4 1446.08 1948.64 L 1444.35 1952 L 1445.08 1953.8 C 1445.58 1955.25 1446.01 1956.75 1446.66 1958.14 L 1441.14 1961.18 z"/>
<path transform="translate(0,0)" fill="rgb(1,0,17)" d="M 1154.7 136.039 C 1155.9 133.151 1156.99 129.203 1159.71 127.458 L 1158.93 132.005 C 1164.33 137.647 1173.73 141.023 1180.14 145.828 C 1204.8 164.293 1232.54 195.935 1231.9 228.511 L 1231.86 229.837 C 1232.15 230.091 1232.42 230.357 1232.71 230.6 C 1233.87 231.571 1234.92 232.184 1236.2 232.949 C 1239.93 235.183 1241.41 237.393 1242.43 241.59 C 1242.55 242.077 1242.63 242.572 1242.73 243.063 C 1242.11 243.145 1241.49 243.163 1240.88 243.31 C 1239.54 243.637 1238.59 244.45 1237.1 244.41 C 1232.77 244.294 1225.91 240.779 1222.71 238.001 C 1224.88 233.881 1226.57 232.1 1230.36 229.427 C 1219.6 202.194 1204.58 177.546 1182.27 158.247 C 1173.35 150.524 1163.63 143.765 1154.7 136.039 z"/>
<path transform="translate(0,0)" fill="url(#Gradient2)" d="M 1170.92 207.677 C 1180.56 205.699 1191.28 212.038 1199.18 217.198 C 1206.04 221.682 1219.18 230.508 1222.71 238.001 C 1225.91 240.779 1232.77 244.294 1237.1 244.41 C 1238.59 244.45 1239.54 243.637 1240.88 243.31 C 1241.49 243.163 1242.11 243.145 1242.73 243.063 L 1244.53 245.308 C 1255.3 246.111 1266.07 243.249 1277.03 244.005 C 1277.46 244.034 1277.89 244.05 1278.32 244.078 C 1278.57 244.095 1278.83 244.118 1279.08 244.138 C 1284.35 248.047 1288 251.64 1288.85 258.44 C 1290.11 268.517 1284.52 278.796 1278.15 286.201 C 1275.91 288.805 1273.13 290.561 1270.14 292.193 C 1275.63 300.122 1279.96 307.071 1283.21 316.197 C 1284.53 319.89 1285.29 324.018 1286.94 327.533 C 1291.76 337.803 1292.8 334.22 1295.33 347.997 L 1286.93 347.971 C 1285.9 342.506 1283.85 337.475 1280.12 333.322 C 1279.14 332.224 1277.88 331.222 1276.8 330.241 L 1278.18 327.53 C 1277.46 315.399 1267.23 301.463 1260.78 291.582 C 1264.69 281.87 1278.74 277.159 1281.42 265.78 C 1282.2 262.437 1281.75 259.726 1279.85 256.915 C 1273.64 247.737 1245.22 253.653 1233.56 251.53 L 1231.91 251.221 C 1229.42 250.458 1226.92 249.959 1224.38 249.425 C 1221.98 245.737 1219.58 242.005 1216.92 238.5 C 1207.83 226.517 1192.59 212.212 1177.07 210.207 L 1171.12 208.405 L 1170.92 207.677 z"/>
<path transform="translate(0,0)" fill="url(#Gradient3)" d="M 1569.6 1816.52 C 1581.95 1803.94 1607.63 1762.6 1625.19 1762.18 C 1627.39 1762.13 1629.06 1762.78 1631.07 1763.59 C 1632.93 1765.64 1633.93 1766.48 1634.01 1769.43 C 1634.39 1782.68 1610.17 1807.86 1600.46 1815.78 C 1596.06 1819.38 1584.98 1824.08 1582.41 1827.3 C 1588.13 1826.73 1593.88 1826.01 1599.61 1825.74 L 1599.97 1826.5 C 1599.68 1826.63 1599.41 1826.79 1599.11 1826.9 C 1594.18 1828.77 1583.8 1829.48 1578.95 1827.37 C 1577.1 1826.56 1575.6 1826.54 1573.61 1826.44 L 1572.59 1826.39 L 1568.19 1826.68 L 1566.22 1827.65 C 1566.53 1825.32 1569.44 1823.36 1571.13 1821.7 C 1569.71 1819.63 1569.76 1819.06 1569.6 1816.52 z"/>
<path transform="translate(0,0)" fill="rgb(229,230,220)" d="M 1571.13 1821.7 C 1576.62 1816.95 1582.11 1812.17 1586.93 1806.72 C 1599.76 1792.18 1608.98 1776.91 1627.75 1769.49 C 1617.61 1791.11 1598.63 1816.73 1575.38 1825.41 A 92.6288 92.6288 0 0 1 1572.59 1826.39 L 1568.19 1826.68 L 1566.22 1827.65 C 1566.53 1825.32 1569.44 1823.36 1571.13 1821.7 z"/>
<path transform="translate(0,0)" fill="rgb(10,10,36)" d="M 1873.72 1802.81 C 1876.67 1803.6 1879.79 1805.35 1882.69 1805.74 C 1883.02 1810.42 1882 1812.38 1879.02 1815.94 C 1864.68 1833.05 1821.53 1859.77 1801.16 1870.26 C 1772.54 1885 1741.69 1896.86 1711.62 1908.33 C 1681.76 1919.72 1652.32 1930.78 1621.77 1940.23 C 1610.05 1943.85 1597.33 1948.75 1585.26 1950.56 C 1545.35 1962.37 1496.49 1978.89 1454.66 1978.02 C 1449.69 1972.67 1445.39 1967.11 1441.14 1961.18 L 1446.66 1958.14 C 1450.4 1963.34 1454.34 1968.12 1458.62 1972.87 C 1478.41 1969.57 1498.34 1966.57 1517.89 1962.01 C 1537.16 1957.51 1556.13 1951.53 1575.23 1946.35 C 1583.97 1941.82 1606.78 1936.54 1618.03 1932.97 C 1646.91 1923.81 1674.15 1914.25 1701.82 1901.74 C 1739.22 1884.83 1774.46 1864.51 1810.09 1844.27 C 1827.07 1834.63 1843.98 1823.47 1861.85 1815.73 C 1866.57 1813.68 1873.64 1811.41 1875.58 1806.4 L 1873.72 1802.81 z"/>
<path transform="translate(0,0)" fill="rgb(1,0,6)" d="M 1458.62 1972.87 C 1478.41 1969.57 1498.34 1966.57 1517.89 1962.01 C 1537.16 1957.51 1556.13 1951.53 1575.23 1946.35 L 1576.34 1948.54 C 1575.96 1948.49 1575.59 1948.4 1575.21 1948.38 C 1571.19 1948.21 1526.57 1961.88 1517.27 1964.04 C 1510.82 1965.53 1498.57 1966.11 1493.49 1969.37 L 1493.01 1971.99 L 1493.47 1972.54 C 1500 1971.38 1506.84 1970.72 1513.25 1969.15 C 1524.15 1966.48 1579.29 1948.22 1585.26 1950.56 C 1545.35 1962.37 1496.49 1978.89 1454.66 1978.02 C 1449.69 1972.67 1445.39 1967.11 1441.14 1961.18 L 1446.66 1958.14 C 1450.4 1963.34 1454.34 1968.12 1458.62 1972.87 z"/>
<path transform="translate(0,0)" fill="url(#Gradient4)" d="M 394.538 1728.78 C 395.643 1730.21 395.455 1730.93 395.655 1732.68 L 397.483 1732.67 L 398.652 1731.21 C 396.027 1716.1 404.51 1718.77 409.333 1706.6 C 409.755 1710.78 409.012 1711.99 406.412 1715.23 C 402.929 1719.58 399.381 1723.67 396.414 1728.43 C 426.636 1715.43 458.112 1698.75 491.568 1711.75 C 496.546 1713.69 501.031 1717.39 503.168 1722.38 C 504.268 1724.95 504.735 1728.02 503.797 1730.71 C 502.374 1734.8 499.036 1736.71 495.212 1738.15 C 472.107 1746.87 444.7 1745.31 420.466 1750.6 C 436.612 1755.72 488.698 1774.15 495.986 1787.96 C 496.908 1789.7 497.387 1792.1 496.75 1793.98 C 495.635 1797.28 493.018 1798.92 489.94 1800.18 C 473.475 1806.88 454.025 1799.92 438.936 1793 C 423.469 1785.91 410.26 1777.13 398.848 1764.39 C 398.646 1763.75 398.451 1763.11 398.241 1762.47 C 397.951 1761.59 397.293 1759.92 397.221 1758.99 C 397.016 1756.36 398.091 1755.74 399.858 1754.2 L 398.861 1750.1 L 397.946 1743.31 C 398.178 1740.61 401.166 1737.32 402.705 1735.12 L 397.909 1734.52 C 395.703 1735.65 395.439 1735.72 394.27 1737.88 L 392.452 1737.24 L 393.939 1729.78 L 394.538 1728.78 z"/>
<path transform="translate(0,0)" fill="rgb(229,230,220)" d="M 398.861 1750.1 C 412.324 1754.15 476.595 1779.35 484.324 1789.49 L 484.329 1791.51 C 480.549 1794.43 474.611 1793.45 470.154 1792.88 C 446.16 1789.77 428.458 1775.86 410.209 1761.46 C 406.53 1758.55 403.041 1758.09 399.858 1754.2 L 398.861 1750.1 z"/>
<path transform="translate(0,0)" fill="rgb(229,230,220)" d="M 402.705 1735.12 C 425.264 1722.46 459.639 1711.9 485.569 1718.95 C 488.443 1719.73 489.851 1721.28 491.567 1723.57 C 491.686 1725.01 492.143 1725.98 491.199 1727.22 C 489.135 1729.92 484.971 1730.83 481.846 1731.67 C 472.223 1734.25 461.744 1735.06 451.888 1736.63 C 439.09 1738.68 426.557 1741.5 414.015 1744.78 C 408.371 1742.93 403.753 1740.86 397.946 1743.31 C 398.178 1740.61 401.166 1737.32 402.705 1735.12 z"/>
<path transform="translate(0,0)" fill="rgb(1,0,17)" d="M 476.838 1501.35 A 1622.15 1622.15 0 0 1 494.585 1492.48 C 493.634 1494.3 493.278 1495.63 493.026 1497.67 C 494.853 1497.88 493.767 1497.96 495.944 1496.93 C 498.404 1495.76 499.658 1495.77 502.274 1496.47 C 496.496 1499.23 490.791 1501.8 484.768 1503.98 C 485.648 1537.99 500.717 1588.5 515.737 1618.65 C 521.283 1629.79 528.181 1639.71 534.867 1650.13 C 533.225 1651.75 533.268 1651.7 533.075 1653.99 C 537.994 1662.74 563.86 1690.08 572.386 1693.05 C 584.349 1691.08 618.812 1674.35 629.634 1667.52 C 629.744 1667.45 629.871 1667.41 629.989 1667.36 L 630.467 1669.26 C 618.14 1679.19 587.53 1689.56 571.824 1695.77 C 556.442 1686.17 542.435 1669.35 530.699 1655.54 L 529.421 1656.08 C 515.719 1661.75 500.67 1665.01 486.514 1669.51 C 465.267 1676.26 445.005 1684.22 424.517 1692.97 C 419.202 1695.24 411.145 1697.33 406.932 1701.08 C 407.262 1703.34 408.132 1704.69 409.333 1706.6 C 404.51 1718.77 396.027 1716.1 398.652 1731.21 L 397.483 1732.67 L 395.655 1732.68 C 395.455 1730.93 395.643 1730.21 394.538 1728.78 C 393.841 1728.84 393.145 1728.92 392.448 1728.97 C 380.742 1729.9 367.813 1736.77 357.709 1735.68 L 358.14 1734.79 C 369.044 1732.36 380.091 1727.91 391.247 1727.12 C 393.142 1726.99 394.453 1726.97 396.219 1726.18 C 396.127 1723.98 396.66 1723.03 395.02 1721.44 C 388.03 1720.44 367.525 1723.23 361.065 1725.76 C 358.474 1726.77 356.925 1727.49 354.194 1726.69 C 368.03 1716.55 392.588 1724.48 402.623 1713.7 C 404.795 1711.37 404.805 1709.92 404.623 1706.97 C 402.817 1704.32 402.747 1704.02 399.767 1702.93 C 399.256 1702.75 398.718 1702.63 398.232 1702.38 C 395.38 1700.94 392.242 1697.78 389.729 1695.74 C 366.961 1677.3 349.839 1650.56 341.27 1622.73 L 340.454 1618.12 L 343.011 1617.47 C 346.292 1618.31 347.86 1621.06 349.852 1623.59 C 374.036 1607.7 399.959 1593.94 425.395 1580.14 C 444.903 1569.56 464.539 1558.23 485.061 1549.75 C 481.261 1533.67 477.455 1517.92 476.838 1501.35 z"/>
<path transform="translate(0,0)" fill="rgb(204,146,140)" d="M 486.009 1558.87 C 488.558 1559.76 488.455 1563.43 488.899 1565.71 C 495.063 1597.28 507.748 1623.29 525.615 1649.74 C 481.526 1657.44 442.381 1673.33 403.98 1696.13 L 397.937 1691.27 C 377.106 1673.15 362.887 1653.65 350.921 1628.86 C 364.98 1622.85 378.503 1615.19 392.04 1608.09 C 423.308 1591.68 454.236 1574.26 486.009 1558.87 z"/>
<path transform="translate(0,0)" fill="rgb(229,230,220)" d="M 1599.61 1825.74 C 1609.8 1821.99 1631.31 1819.93 1642.97 1817.77 C 1669.34 1812.88 1695.91 1807.11 1721.94 1800.66 C 1731.33 1798.34 1740.41 1794.23 1749.53 1791.03 C 1770.8 1783.58 1792.33 1776.62 1814.52 1772.52 C 1825.91 1770.42 1842.35 1767.76 1853.43 1772.54 C 1864.8 1777.45 1878.52 1794.29 1882.69 1805.74 C 1879.79 1805.35 1876.67 1803.6 1873.72 1802.81 L 1875.58 1806.4 C 1873.64 1811.41 1866.57 1813.68 1861.85 1815.73 C 1843.98 1823.47 1827.07 1834.63 1810.09 1844.27 C 1774.46 1864.51 1739.22 1884.83 1701.82 1901.74 C 1674.15 1914.25 1646.91 1923.81 1618.03 1932.97 C 1606.78 1936.54 1583.97 1941.82 1575.23 1946.35 C 1556.13 1951.53 1537.16 1957.51 1517.89 1962.01 C 1498.34 1966.57 1478.41 1969.57 1458.62 1972.87 C 1454.34 1968.12 1450.4 1963.34 1446.66 1958.14 C 1446.01 1956.75 1445.58 1955.25 1445.08 1953.8 L 1444.35 1952 L 1446.08 1948.64 C 1463.53 1944.94 1481.27 1943.84 1498.7 1939.35 C 1580.43 1918.31 1657.57 1879.95 1733.3 1843.57 C 1730.77 1834.7 1729.32 1826.12 1728.83 1816.91 C 1682.81 1828.37 1620.87 1850.75 1573.82 1838.34 L 1574.64 1835.18 C 1578.12 1833.96 1581.08 1833.01 1584.72 1834.4 C 1585.29 1834.62 1585.86 1834.86 1586.43 1835.1 L 1587.36 1833.94 C 1579.02 1832.1 1574.5 1832.86 1568.19 1826.68 L 1572.59 1826.39 L 1573.61 1826.44 C 1575.6 1826.54 1577.1 1826.56 1578.95 1827.37 C 1583.8 1829.48 1594.18 1828.77 1599.11 1826.9 C 1599.41 1826.79 1599.68 1826.63 1599.97 1826.5 L 1599.61 1825.74 z"/>
<path transform="translate(0,0)" fill="rgb(1,0,17)" d="M 1599.61 1825.74 C 1609.8 1821.99 1631.31 1819.93 1642.97 1817.77 C 1669.34 1812.88 1695.91 1807.11 1721.94 1800.66 C 1731.33 1798.34 1740.41 1794.23 1749.53 1791.03 C 1770.8 1783.58 1792.33 1776.62 1814.52 1772.52 C 1825.91 1770.42 1842.35 1767.76 1853.43 1772.54 C 1864.8 1777.45 1878.52 1794.29 1882.69 1805.74 C 1879.79 1805.35 1876.67 1803.6 1873.72 1802.81 C 1873.44 1802.56 1873.16 1802.31 1872.9 1802.05 C 1862.03 1790.92 1859.53 1778.87 1841.42 1777.83 C 1811.8 1776.13 1770.3 1793.48 1741.7 1802.14 C 1735.36 1815.82 1736.48 1826.27 1740.91 1840.39 C 1764 1830.84 1786.8 1819.61 1809.09 1808.33 C 1819.79 1802.92 1830.57 1796.26 1841.62 1791.75 C 1845.55 1790.14 1852.75 1786.9 1856.77 1788.25 C 1851.76 1794.4 1828.91 1804.03 1821.09 1808.39 C 1785.96 1828 1750.14 1844.82 1713.82 1862.05 C 1642.65 1895.81 1537.99 1944.64 1459.69 1952.86 C 1454.85 1953.37 1449.95 1953.82 1445.08 1953.8 L 1444.35 1952 L 1446.08 1948.64 C 1463.53 1944.94 1481.27 1943.84 1498.7 1939.35 C 1580.43 1918.31 1657.57 1879.95 1733.3 1843.57 C 1730.77 1834.7 1729.32 1826.12 1728.83 1816.91 C 1682.81 1828.37 1620.87 1850.75 1573.82 1838.34 L 1574.64 1835.18 C 1578.12 1833.96 1581.08 1833.01 1584.72 1834.4 C 1585.29 1834.62 1585.86 1834.86 1586.43 1835.1 L 1587.36 1833.94 C 1579.02 1832.1 1574.5 1832.86 1568.19 1826.68 L 1572.59 1826.39 L 1573.61 1826.44 C 1575.6 1826.54 1577.1 1826.56 1578.95 1827.37 C 1583.8 1829.48 1594.18 1828.77 1599.11 1826.9 C 1599.41 1826.79 1599.68 1826.63 1599.97 1826.5 L 1599.61 1825.74 z"/>
<path transform="translate(0,0)" fill="rgb(168,126,125)" d="M 1729.16 1807.38 C 1729.97 1808.01 1729.48 1807.5 1729.8 1809.37 C 1725.6 1812.74 1714.98 1814.22 1709.47 1815.65 C 1670.72 1825.77 1631.35 1834.51 1591.12 1834.96 L 1590.11 1834.1 L 1590.26 1832.7 C 1610.34 1829.51 1630.71 1828.17 1650.76 1824.42 C 1677.04 1819.51 1702.78 1812.12 1729.16 1807.38 z"/>
<path transform="translate(0,0)" fill="rgb(204,146,140)" d="M 1411.84 1846.89 C 1424.2 1846.18 1436.43 1844.8 1448.45 1841.71 C 1467.66 1836.76 1495.03 1827.46 1505.71 1809.44 C 1530.29 1823.73 1546.8 1830 1573.82 1838.34 C 1620.87 1850.75 1682.81 1828.37 1728.83 1816.91 C 1729.32 1826.12 1730.77 1834.7 1733.3 1843.57 C 1657.57 1879.95 1580.43 1918.31 1498.7 1939.35 C 1481.27 1943.84 1463.53 1944.94 1446.08 1948.64 C 1444.76 1948.4 1443.45 1948.02 1442.15 1947.7 C 1437.94 1942.93 1435.41 1935.8 1433.03 1929.98 C 1427.48 1916.37 1407.01 1858.45 1411.84 1846.89 z"/>
<path transform="translate(0,0)" fill="url(#Gradient5)" d="M 1537.4 1851.28 C 1543.38 1851.61 1549.17 1852.57 1554.37 1855.73 C 1560.98 1859.75 1565.67 1866.23 1567.11 1873.87 A 25.6679 25.6679 0 0 1 1562.84 1893.66 C 1558.04 1900.28 1551.41 1903.26 1543.58 1904.57 C 1537.8 1904.54 1532.1 1903.96 1526.98 1901.07 C 1520.74 1897.54 1516.26 1891.92 1514.44 1884.98 A 25.5797 25.5797 0 0 1 1517.23 1865.21 C 1521.72 1857.67 1529.1 1853.41 1537.4 1851.28 z"/>
<path transform="translate(0,0)" fill="rgb(229,230,220)" d="M 1538.77 1858.02 C 1541.89 1858.35 1545.43 1858.49 1548.35 1859.7 C 1553.5 1861.84 1557.88 1866.98 1559.7 1872.17 C 1561.4 1877.01 1561.24 1882.37 1558.81 1886.94 C 1555.75 1892.7 1550.78 1895 1544.76 1896.64 C 1540.47 1896.75 1536.41 1896.6 1532.43 1894.84 C 1527.6 1892.71 1523.65 1888.68 1521.94 1883.65 A 18.3185 18.3185 0 0 1 1523.23 1868.88 C 1526.7 1862.57 1532.14 1859.97 1538.77 1858.02 z"/>
<path transform="translate(0,0)" fill="rgb(1,0,6)" d="M 315.857 1629.44 C 323.955 1625.39 332.124 1621.67 340.454 1618.12 L 341.27 1622.73 C 349.839 1650.56 366.961 1677.3 389.729 1695.74 C 392.242 1697.78 395.38 1700.94 398.232 1702.38 C 398.718 1702.63 399.256 1702.75 399.767 1702.93 C 402.747 1704.02 402.817 1704.32 404.623 1706.97 C 404.805 1709.92 404.795 1711.37 402.623 1713.7 C 392.588 1724.48 368.03 1716.55 354.194 1726.69 C 356.925 1727.49 358.474 1726.77 361.065 1725.76 C 367.525 1723.23 388.03 1720.44 395.02 1721.44 C 396.66 1723.03 396.127 1723.98 396.219 1726.18 C 394.453 1726.97 393.142 1726.99 391.247 1727.12 C 380.091 1727.91 369.044 1732.36 358.14 1734.79 L 357.709 1735.68 C 367.813 1736.77 380.742 1729.9 392.448 1728.97 C 393.145 1728.92 393.841 1728.84 394.538 1728.78 L 393.939 1729.78 L 392.452 1737.24 L 394.27 1737.88 C 395.439 1735.72 395.703 1735.65 397.909 1734.52 L 402.705 1735.12 C 401.166 1737.32 398.178 1740.61 397.946 1743.31 L 398.861 1750.1 L 399.858 1754.2 C 398.091 1755.74 397.016 1756.36 397.221 1758.99 C 397.293 1759.92 397.951 1761.59 398.241 1762.47 C 398.451 1763.11 398.646 1763.75 398.848 1764.39 C 400.196 1768.85 403.036 1773.14 404.87 1777.47 C 416.341 1804.54 428.851 1837.37 446.303 1861.06 C 451.995 1860.44 457.235 1859.98 462.943 1860.96 C 491.403 1865.84 574 1905.99 590.457 1929.64 C 596.469 1938.28 601.115 1951.43 599.223 1962 C 596.459 1965.92 590.965 1967.07 586.516 1968.11 C 520.709 1983.45 433.48 1974.48 366.483 1965.14 C 354.689 1963.49 333.585 1962.72 323.756 1955.9 C 316.647 1950.96 310.591 1939.53 306.523 1932.05 C 293.048 1907.27 282.584 1880.18 271.126 1854.36 A 2894.28 2894.28 0 0 1 230.353 1759.19 C 222.124 1738.77 212.923 1716.92 208.323 1695.41 C 233.683 1669.08 283.01 1645.55 315.857 1629.44 z"/>
<path transform="translate(0,0)" fill="rgb(195,152,134)" d="M 424.031 1835.53 C 425.854 1838.47 427.202 1841.09 428.321 1844.37 L 427.151 1845.84 C 424.618 1845.31 422.879 1845.07 420.779 1843.46 C 420.56 1840.13 422.345 1838.35 424.031 1835.53 z"/>
<path transform="translate(0,0)" fill="rgb(204,146,140)" d="M 393.246 1723.07 L 393.769 1722.84 L 394.735 1723.37 L 394.238 1724.71 C 388.698 1727.23 381.119 1727.09 375.069 1728.45 C 368.882 1729.84 362.749 1731.95 356.708 1733.88 C 355.506 1733.39 356.161 1733.82 355.24 1732.04 C 355.524 1731.29 355.641 1730.8 356.239 1730.16 C 363.399 1722.47 381.965 1725.55 391.671 1723.44 C 392.197 1723.32 392.721 1723.19 393.246 1723.07 z"/>
<path transform="translate(0,0)" fill="rgb(204,146,140)" d="M 406.779 1800.71 C 411.174 1804.52 414.595 1813.94 417.247 1819.26 L 403.25 1818.88 L 389.189 1818.28 L 406.779 1800.71 z"/>
<path transform="translate(0,0)" fill="rgb(195,152,134)" d="M 378.468 1847.42 C 387.464 1848.14 396.661 1847.92 405.689 1848.07 L 395.764 1858.62 C 392.379 1862.11 389.426 1865.35 386.86 1869.53 C 383.844 1862.33 380.272 1855.01 378.468 1847.42 z"/>
<path transform="translate(0,0)" fill="rgb(195,152,134)" d="M 355.906 1738.91 C 368.629 1736.07 381.099 1732.04 393.939 1729.78 L 392.452 1737.24 L 391.535 1739.62 C 385.235 1745.59 365.182 1749.09 356.262 1752.36 L 355.906 1738.91 z"/>
<path transform="translate(0,0)" fill="rgb(195,152,134)" d="M 398.203 1790.95 C 400.112 1790.94 400.861 1791.04 402.433 1792.15 C 402.446 1792.48 402.507 1792.81 402.47 1793.13 C 401.577 1800.93 377.648 1820.09 371.078 1824.56 C 368.371 1818.2 366.585 1811.68 364.745 1805.03 L 398.203 1790.95 z"/>
<path transform="translate(0,0)" fill="rgb(195,152,134)" d="M 356.661 1758.67 C 367.913 1755.15 378.991 1750.95 390.099 1746.99 C 391.521 1749.47 390.88 1752.57 390.716 1755.33 L 392.046 1760.71 C 385.49 1766.85 378.744 1772.81 370.987 1777.41 L 366.062 1776.52 L 365.079 1773.81 C 363.042 1775.33 362.699 1776.25 360.075 1776.17 C 358.81 1774.07 358.39 1772.75 358.185 1770.29 C 357.86 1766.37 357.265 1762.55 356.661 1758.67 z"/>
<path transform="translate(0,0)" fill="rgb(10,10,36)" d="M 390.716 1755.33 L 392.046 1760.71 C 385.49 1766.85 378.744 1772.81 370.987 1777.41 L 366.062 1776.52 L 365.079 1773.81 C 373.693 1767.78 381.817 1760.92 390.716 1755.33 z"/>
<path transform="translate(0,0)" fill="rgb(195,152,134)" d="M 370.987 1777.41 C 378.744 1772.81 385.49 1766.85 392.046 1760.71 C 394.629 1769.46 397.773 1778.01 401.863 1786.18 C 387.932 1785.36 375.75 1793.36 363.83 1799.68 L 360.587 1783.47 C 364.044 1781.55 367.808 1779.76 370.987 1777.41 z"/>
<path transform="translate(0,0)" fill="rgb(195,152,134)" d="M 390.565 1824.4 C 397.536 1824.06 414.488 1823.26 420.197 1826.98 C 421.734 1827.99 421.414 1828.25 421.786 1829.9 C 419.125 1832.4 416.157 1834.88 414.038 1837.86 C 413.666 1838.39 413.331 1838.94 412.937 1839.45 C 411.182 1841.71 410.97 1841.67 408.25 1842.03 C 397.689 1841.67 387.114 1841.88 376.55 1841.97 L 372.086 1827.36 C 378.267 1825.87 384.238 1825.01 390.565 1824.4 z"/>
<path transform="translate(0,0)" fill="rgb(204,146,140)" d="M 432.355 1850.98 C 435.172 1855.32 438.474 1859.33 441.655 1863.4 A 419.657 419.657 0 0 0 410.969 1881.93 L 399.382 1889.35 C 395.787 1884.64 392.75 1879.65 389.664 1874.6 L 415.971 1849.95 C 421.379 1851.05 426.861 1850.93 432.355 1850.98 z"/>
<path transform="translate(0,0)" fill="rgb(229,230,220)" d="M 461.143 1864.95 C 503.803 1883.22 543.79 1904.7 584.35 1927.1 C 557.72 1926.28 530.964 1930.6 504.25 1930.81 C 461.915 1931.31 419.827 1930.5 377.848 1924.48 C 398.966 1896.89 429.852 1879.03 461.143 1864.95 z"/>
<path transform="translate(0,0)" fill="rgb(229,230,220)" d="M 236.052 1682 C 243.186 1690.28 249.869 1716.19 254.508 1727.94 C 270.252 1767.79 322.591 1898.87 349.641 1926.4 C 410.852 1941.07 523.518 1943.16 584.623 1931.09 C 588.672 1940.47 592.397 1949.11 593.267 1959.39 L 574.229 1962.39 C 497.759 1971.95 404.513 1967.38 329.357 1950.25 C 323.137 1940.6 316.75 1930.6 311.577 1920.36 C 301.451 1900.31 292.711 1879.33 283.476 1858.84 A 3816.19 3816.19 0 0 1 238.467 1757.4 C 231.426 1740.94 217.331 1713.15 213.861 1696.33 C 220.91 1691.07 228.458 1686.41 236.052 1682 z"/>
<path transform="translate(0,0)" fill="rgb(204,146,140)" d="M 341.27 1622.73 C 349.839 1650.56 366.961 1677.3 389.729 1695.74 C 392.242 1697.78 395.38 1700.94 398.232 1702.38 C 398.718 1702.63 399.256 1702.75 399.767 1702.93 C 401.188 1704.92 402.133 1706.22 402.703 1708.64 C 402.293 1712.09 398.993 1714.64 396.644 1717.03 C 384.47 1716.87 361.734 1717.15 352.102 1725.68 C 349.502 1727.98 348.829 1729.93 348.74 1733.34 C 347.678 1774.37 365.329 1863.32 393.396 1894.51 C 385.405 1903.63 376.822 1912.35 372.005 1923.64 C 365.144 1922.14 358.378 1920.63 351.677 1918.51 C 342.907 1905.71 336.213 1891.01 328.987 1877.27 C 303.191 1828.2 282.445 1777.26 261.543 1726 C 255.107 1710.22 250.037 1693.63 243.006 1678.17 C 268.4 1662.42 295.94 1650.34 320.805 1633.73 A 1251.52 1251.52 0 0 0 341.27 1622.73 z"/>
<path transform="translate(0,0)" fill="url(#Gradient6)" d="M 304.086 1653.26 C 306.172 1653.48 308.266 1653.75 310.283 1654.35 C 316.559 1656.22 323.967 1660.56 326.974 1666.59 C 328.997 1670.65 329.483 1675.37 327.956 1679.68 C 324.659 1688.98 313.528 1696.38 304.864 1700.29 C 303.397 1700.25 301.941 1700.23 300.487 1700 C 289.248 1698.27 282.921 1688.3 276.562 1679.98 C 278.601 1674.68 280.852 1669.17 284.181 1664.52 C 289.369 1657.28 295.591 1654.85 304.086 1653.26 z"/>
<path transform="translate(0,0)" fill="rgb(229,230,220)" d="M 301.307 1660.99 C 305.538 1661.04 307.723 1661.53 311.153 1664.03 C 315.248 1667.01 320.87 1670.43 321.74 1675.76 C 319.453 1682.22 311 1687.15 305.682 1691.25 C 304.252 1691.82 303.156 1692.04 301.652 1692.29 C 294.617 1689.51 290.551 1683.1 286.035 1677.35 L 286.47 1676.28 C 289.959 1667.9 292.857 1664.48 301.307 1660.99 z"/>
<path transform="translate(0,0)" fill="rgb(127,101,105)" d="M 987.416 46.573 C 985.149 44.648 982.368 42.91 981.548 39.9279 C 982.206 38.2329 981.906 37.9164 983.689 37.089 C 987.428 35.3532 992.64 35.5585 996.726 35.3966 C 1016.8 34.6012 1036.41 37.0511 1054.92 45.2008 C 1075.08 54.0771 1088.22 67.3608 1101.26 84.7567 C 1103.69 76.2564 1109.91 47.4768 1115.37 42.4778 C 1117.95 41.8125 1119.84 42.5165 1122.09 43.7725 C 1140.76 54.1845 1158.5 78.2637 1163.56 98.9613 C 1165.6 107.335 1166.56 118.014 1161.53 125.624 C 1160.85 126.652 1160.56 126.791 1159.71 127.458 C 1156.99 129.203 1155.9 133.151 1154.7 136.039 L 1152.21 136.262 C 1142.78 141.8 1121.85 144.62 1110.19 148.108 A 463.154 463.154 0 0 0 1069.1 162.915 A 224.571 224.571 0 0 0 1014.54 194.073 C 1007.99 199.191 1001.52 206.053 994.655 210.439 L 993.023 209.979 L 996.229 206.701 L 995.761 206.605 L 997.697 205.143 C 995.162 205.593 992.434 208.56 990.392 210.245 L 988.891 209.391 C 961.575 230.302 939.61 266.826 935.246 301.027 C 934.323 308.259 932.117 324.656 936.005 330.985 C 937.142 332.835 937.899 333.12 939.921 333.439 C 942.061 328.554 939.762 317.771 940.268 311.849 C 943.194 277.658 962.247 239.697 987.876 216.835 C 1009.26 251.24 1035.41 282.587 1057.43 316.512 C 1048.99 322.593 1040.19 328.838 1033.14 336.556 C 1021.32 330.924 1008.31 324.877 995.03 329.334 A 22.5953 22.5953 0 0 0 981.563 341.267 C 977.069 350.856 979.223 362.451 982.913 371.946 C 989.779 389.607 1003.61 402.981 1020.94 410.394 C 1029.49 414.048 1038.53 415.853 1047.84 415.068 C 1042.36 418.929 1041.89 422.49 1040.58 428.679 C 1033.85 425.106 1027.16 421.268 1019.91 418.855 C 1012.63 420.388 1005.12 422.272 997.681 422.652 C 974.648 423.829 946.586 417.35 924.812 410.729 C 903.421 404.226 890.387 397.334 879.577 377.051 C 877.538 381.398 875.005 385.896 873.886 390.572 L 872.854 394.964 C 874.84 394.04 875.79 393.187 877.375 391.721 L 878.306 392.114 L 876.453 395.309 C 874.655 396.326 872.947 397.452 871.218 398.582 C 868.888 400.105 867.032 401.185 864.19 401.449 C 860.975 401.749 858.178 400.695 855.784 398.585 C 846.576 390.47 844.495 374.058 843.97 362.582 A 185.027 185.027 0 0 1 839.726 368.249 C 832.421 377.558 819.15 380.928 807.812 382.196 C 800.454 383.019 790.786 383.254 784.84 378.075 C 782.209 375.783 780.921 372.602 780.74 369.162 C 779.759 350.557 802.712 327.337 813.817 314.083 C 802.126 318.438 788.702 323.65 776.02 322.938 C 770.242 322.614 764.114 320.994 760.378 316.255 C 756.79 311.705 756.352 305.371 756.967 299.823 C 759.844 273.857 782.465 247.729 802.023 232.083 A 209.237 209.237 0 0 1 794.495 233.103 C 781.132 234.641 765.886 233.519 755.2 224.416 C 752.116 221.79 749.929 218.337 749.759 214.211 C 749.463 207.029 754.825 200.138 759.356 195.067 C 787.448 163.633 844.593 137.45 886.277 135.162 C 879.954 130.014 873.164 124.907 868.551 118.094 C 867.527 116.729 866.286 115.246 865.676 113.628 C 864.689 111.016 865.254 108.687 866.422 106.262 C 869.387 103.394 872.117 102.307 876.171 101.531 C 902.32 96.5265 930.509 103.012 952.198 117.935 C 960.732 93.9474 976.508 71.1376 998.003 57.1465 C 994.665 53.4593 990.97 50.0548 987.416 46.573 z"/>
<path transform="translate(0,0)" fill="rgb(1,0,17)" d="M 994.682 72.1334 C 1003.32 75.2563 1009.04 80.3315 1015.72 86.3708 C 1014.87 88.2211 1014.5 89.4394 1012.91 90.7727 C 1005.91 85.179 998.891 79.8904 991.158 75.3486 L 994.682 72.1334 z"/>
<path transform="translate(0,0)" fill="url(#Gradient7)" d="M 840.753 359.043 C 842.586 354.264 846.235 348.171 850.264 345.005 L 852.013 344.99 C 854.328 350.467 849.987 355.952 849.847 361.675 C 849.629 370.52 854.395 389.188 862.795 393.22 C 864.952 394.255 867.762 394.351 869.961 393.394 C 871.446 392.748 872.675 391.615 873.886 390.572 L 872.854 394.964 C 874.84 394.04 875.79 393.187 877.375 391.721 L 878.306 392.114 L 876.453 395.309 C 874.655 396.326 872.947 397.452 871.218 398.582 C 868.888 400.105 867.032 401.185 864.19 401.449 C 860.975 401.749 858.178 400.695 855.784 398.585 C 846.576 390.47 844.495 374.058 843.97 362.582 L 841.491 362.664 L 839.574 364.732 C 839.938 363.29 840.261 361.874 840.521 360.407 L 840.753 359.043 z"/>
<path transform="translate(0,0)" fill="rgb(1,0,17)" d="M 987.416 46.573 C 985.149 44.648 982.368 42.91 981.548 39.9279 C 982.206 38.2329 981.906 37.9164 983.689 37.089 C 987.428 35.3532 992.64 35.5585 996.726 35.3966 C 1016.8 34.6012 1036.41 37.0511 1054.92 45.2008 C 1075.08 54.0771 1088.22 67.3608 1101.26 84.7567 C 1103.69 76.2564 1109.91 47.4768 1115.37 42.4778 C 1117.95 41.8125 1119.84 42.5165 1122.09 43.7725 C 1140.76 54.1845 1158.5 78.2637 1163.56 98.9613 C 1165.6 107.335 1166.56 118.014 1161.53 125.624 C 1160.85 126.652 1160.56 126.791 1159.71 127.458 C 1156.99 129.203 1155.9 133.151 1154.7 136.039 L 1152.21 136.262 C 1142.78 141.8 1121.85 144.62 1110.19 148.108 A 463.154 463.154 0 0 0 1069.1 162.915 A 224.571 224.571 0 0 0 1014.54 194.073 C 1007.99 199.191 1001.52 206.053 994.655 210.439 L 993.023 209.979 L 996.229 206.701 L 995.761 206.605 L 997.697 205.143 C 995.162 205.593 992.434 208.56 990.392 210.245 L 988.891 209.391 C 992.851 203.702 1004.33 196.195 1009.89 191.95 C 1043.58 166.207 1085.76 147.336 1126.94 137.67 C 1134.38 135.921 1143.31 133.191 1150.97 134.213 C 1154.98 127.059 1157.04 119.372 1159.21 111.518 C 1152.84 84.6195 1138.96 67.5588 1118.64 49.4256 C 1116.02 60.6214 1110.14 98.442 1103.96 105.473 C 1099.19 103.834 1095.63 90.836 1093.1 86.4391 C 1090.89 82.6107 1087.69 79.2344 1084.72 75.9888 C 1059.63 48.6153 1026.22 42.5286 990.589 41.0106 C 989.399 42.8189 988.401 44.6458 987.416 46.573 z"/>
<path transform="translate(0,0)" fill="rgb(10,10,36)" d="M 987.416 46.573 C 988.401 44.6458 989.399 42.8189 990.589 41.0106 C 1003.91 53.7677 1014.07 65.5772 1021.62 82.6133 C 1023.42 86.6772 1025.93 91.4899 1025.67 96.0533 C 1025.56 97.8874 1024.83 98.886 1023.79 100.299 L 1022.46 100.692 C 1019.13 97.4884 1016.53 93.6116 1012.91 90.7727 C 1014.5 89.4394 1014.87 88.2211 1015.72 86.3708 C 1009.04 80.3315 1003.32 75.2563 994.682 72.1334 L 991.158 75.3486 C 976.86 79.5975 961.198 125.404 954.074 126.687 C 953.564 126.779 950.881 125.51 950.414 125.238 C 944.596 121.842 939.232 116.669 933.101 113.93 C 919.631 107.912 892.183 104.317 877.757 106.835 C 874.649 107.378 872.677 108.249 870.71 110.704 C 871.266 112.134 871.819 113.491 872.494 114.871 C 876.216 117.134 879.054 120.735 882.54 123.388 C 891.865 130.486 902.091 136.513 912.478 141.905 C 870.808 141.397 842.799 150.766 807.143 171.336 C 793.125 179.423 778.864 188.724 767.278 200.113 C 763.744 203.586 758.987 208.63 758.83 213.91 C 758.753 216.494 760.06 218.622 761.973 220.23 C 771.045 227.854 789.413 227.962 800.678 226.562 C 811.263 225.246 816.259 217.977 825.559 216.443 L 826.059 217.56 C 822.937 222.913 812.02 230.168 807.12 235.103 C 794.779 247.531 760.494 288.613 766.059 307.587 C 766.842 310.258 768.708 312.231 771.22 313.379 C 779.147 317.001 795.347 313.593 803.23 310.412 C 815.606 305.417 822.022 291.788 830.54 288.684 L 831.706 289.772 C 830.284 311.058 784.49 353.826 789.539 370.184 C 791.978 372.672 794.614 372.982 797.942 373.034 C 807.791 373.189 829.185 371.108 836.464 364.007 C 838.022 362.487 839.394 360.739 840.753 359.043 L 840.521 360.407 C 840.261 361.874 839.938 363.29 839.574 364.732 L 841.491 362.664 L 843.97 362.582 A 185.027 185.027 0 0 1 839.726 368.249 C 832.421 377.558 819.15 380.928 807.812 382.196 C 800.454 383.019 790.786 383.254 784.84 378.075 C 782.209 375.783 780.921 372.602 780.74 369.162 C 779.759 350.557 802.712 327.337 813.817 314.083 C 802.126 318.438 788.702 323.65 776.02 322.938 C 770.242 322.614 764.114 320.994 760.378 316.255 C 756.79 311.705 756.352 305.371 756.967 299.823 C 759.844 273.857 782.465 247.729 802.023 232.083 A 209.237 209.237 0 0 1 794.495 233.103 C 781.132 234.641 765.886 233.519 755.2 224.416 C 752.116 221.79 749.929 218.337 749.759 214.211 C 749.463 207.029 754.825 200.138 759.356 195.067 C 787.448 163.633 844.593 137.45 886.277 135.162 C 879.954 130.014 873.164 124.907 868.551 118.094 C 867.527 116.729 866.286 115.246 865.676 113.628 C 864.689 111.016 865.254 108.687 866.422 106.262 C 869.387 103.394 872.117 102.307 876.171 101.531 C 902.32 96.5265 930.509 103.012 952.198 117.935 C 960.732 93.9474 976.508 71.1376 998.003 57.1465 C 994.665 53.4593 990.97 50.0548 987.416 46.573 z"/>
<path transform="translate(0,0)" fill="rgb(229,230,220)" d="M 1001.71 61.8758 C 1007.26 69.0666 1014.69 76.9829 1015.72 86.3708 C 1009.04 80.3315 1003.32 75.2563 994.682 72.1334 C 995.935 68.3744 999.275 65.0101 1001.71 61.8758 z"/>
<path transform="translate(0,0)" fill="rgb(10,10,36)" d="M 1152.21 136.262 L 1154.7 136.039 C 1163.63 143.765 1173.35 150.524 1182.27 158.247 C 1204.58 177.546 1219.6 202.194 1230.36 229.427 C 1226.57 232.1 1224.88 233.881 1222.71 238.001 C 1219.18 230.508 1206.04 221.682 1199.18 217.198 C 1191.28 212.038 1180.56 205.699 1170.92 207.677 L 1171.12 208.405 L 1177.07 210.207 C 1192.59 212.212 1207.83 226.517 1216.92 238.5 C 1219.58 242.005 1221.98 245.737 1224.38 249.425 C 1226.92 249.959 1229.42 250.458 1231.91 251.221 L 1233.56 251.53 C 1245.22 253.653 1273.64 247.737 1279.85 256.915 C 1281.75 259.726 1282.2 262.437 1281.42 265.78 C 1278.74 277.159 1264.69 281.87 1260.78 291.582 C 1267.23 301.463 1277.46 315.399 1278.18 327.53 L 1276.8 330.241 C 1277.88 331.222 1279.14 332.224 1280.12 333.322 C 1283.85 337.475 1285.9 342.506 1286.93 347.971 L 1295.33 347.997 C 1298.51 363.528 1299.98 380.633 1291.12 394.732 C 1281.16 410.569 1259.42 417.276 1242.04 420.828 C 1223.44 424.629 1204.75 424.932 1185.88 426.005 C 1176.36 435.067 1167.68 445.509 1159.74 455.976 C 1183.08 471.453 1214.78 508.003 1226.07 533.963 C 1212.99 566.751 1194.93 598.223 1177.35 628.777 C 1179.82 658.831 1179.21 691.407 1172.43 720.952 C 1169.67 756.464 1156.51 791.583 1147.96 826.036 C 1144.6 839.562 1140.71 853.583 1141 867.62 L 1141.65 868.362 C 1170.36 900.692 1183.93 902.855 1192.75 949.642 C 1195.64 964.974 1197.34 980.671 1196.44 996.276 C 1196.05 1002.88 1195.43 1009.48 1194.98 1016.08 C 1194.82 1018.29 1195.39 1019.97 1196.22 1021.98 C 1201.51 1034.63 1208.21 1046.89 1214.06 1059.3 C 1220.97 1073.98 1227.13 1088.93 1233.26 1103.94 C 1288.61 1239.56 1346.7 1374.46 1397.67 1511.79 C 1404.64 1530.57 1410 1549.77 1416.73 1568.57 C 1420.79 1567.27 1428.09 1563.98 1432.09 1566.19 C 1435.72 1568.2 1437.3 1572.06 1438.08 1575.96 C 1439.71 1584.08 1440.83 1591.83 1443.1 1599.84 C 1446.56 1612.01 1452.74 1625.83 1453.86 1638.33 C 1454.27 1643 1453.7 1647.1 1451.02 1651.03 C 1447.27 1656.53 1440.56 1658.98 1434.54 1661.2 C 1440.4 1679.82 1447.53 1697.74 1454.42 1715.98 C 1463.32 1739.56 1471.87 1762.91 1482.22 1785.9 C 1490.1 1789.04 1497.27 1793.97 1504.46 1798.41 C 1521.1 1808.7 1536.02 1818.58 1554.62 1825.12 A 612.12 612.12 0 0 0 1552.41 1812.93 C 1550.82 1807.27 1550.7 1802 1551.02 1796.19 C 1548.54 1778.19 1553.66 1753.44 1563.7 1738.17 C 1567.15 1732.93 1573.57 1725.34 1580.26 1724.43 C 1582.77 1724.09 1585.01 1724.73 1586.87 1726.5 C 1592.45 1731.81 1592.31 1744.2 1592.05 1751.39 C 1589.95 1768.87 1583.17 1785.86 1576.15 1801.93 C 1574.06 1806.7 1571.02 1811.55 1569.6 1816.52 C 1569.76 1819.06 1569.71 1819.63 1571.13 1821.7 C 1569.44 1823.36 1566.53 1825.32 1566.22 1827.65 L 1568.19 1826.68 C 1574.5 1832.86 1579.02 1832.1 1587.36 1833.94 L 1586.43 1835.1 C 1585.86 1834.86 1585.29 1834.62 1584.72 1834.4 C 1581.08 1833.01 1578.12 1833.96 1574.64 1835.18 L 1573.82 1838.34 C 1546.8 1830 1530.29 1823.73 1505.71 1809.44 C 1495.03 1827.46 1467.66 1836.76 1448.45 1841.71 C 1436.43 1844.8 1424.2 1846.18 1411.84 1846.89 C 1412.08 1844.96 1412.02 1844.43 1411.54 1842.65 L 1407.97 1840.84 L 1408.98 1840.63 C 1408.65 1835.5 1330.45 1708.44 1320.55 1694.46 C 1302.59 1701.25 1278.7 1703.42 1259.45 1702.86 C 1245.06 1686.16 1227.54 1661.72 1220.26 1640.57 C 1219.01 1636.94 1218.21 1633.75 1219.95 1630.17 C 1224.53 1625.95 1230.04 1625.36 1235.93 1624.39 C 1223.72 1612.55 1206.92 1583.86 1197.08 1568.72 L 1140.56 1482.12 C 1102.72 1423.95 1062.52 1367.48 1025.84 1308.51 C 1018.94 1325.38 1014.44 1343.66 1008.75 1361.03 C 994.842 1403.52 981.15 1445.66 964.598 1487.24 C 957.073 1506.14 949.494 1525.25 939.85 1543.19 C 935.493 1551.3 929.934 1561.37 922.015 1566.44 C 898.657 1581.38 828.265 1598.8 798.028 1608.52 A 2226.93 2226.93 0 0 0 675.929 1651.5 C 663.547 1656.19 641.573 1662.04 631.164 1668.79 C 630.928 1668.94 630.699 1669.11 630.467 1669.26 L 629.989 1667.36 C 629.871 1667.41 629.744 1667.45 629.634 1667.52 C 618.812 1674.35 584.349 1691.08 572.386 1693.05 C 563.86 1690.08 537.994 1662.74 533.075 1653.99 C 533.268 1651.7 533.225 1651.75 534.867 1650.13 C 528.181 1639.71 521.283 1629.79 515.737 1618.65 C 500.717 1588.5 485.648 1537.99 484.768 1503.98 C 490.791 1501.8 496.496 1499.23 502.274 1496.47 C 499.658 1495.77 498.404 1495.76 495.944 1496.93 C 493.767 1497.96 494.853 1497.88 493.026 1497.67 C 493.278 1495.63 493.634 1494.3 494.585 1492.48 C 494.788 1492.29 494.966 1492.08 495.194 1491.92 C 500.514 1488.34 539.075 1468.31 543.523 1468.47 C 544.476 1468.5 545.376 1468.92 546.302 1469.15 C 548.705 1471.44 548.729 1473.86 549.154 1476.97 L 549.203 1478.84 L 550.459 1479.61 C 579.644 1469.08 609.156 1458.4 638.871 1449.49 C 672.483 1439.42 706.396 1431.15 739.401 1419.07 C 738.34 1415.2 737.363 1411.31 736.654 1407.36 C 735.629 1401.65 735.461 1394.95 739.191 1390.1 C 743.855 1384.05 750.681 1383.71 757.654 1382.93 C 758.269 1371.93 760.099 1361.07 760.309 1350.01 C 761.149 1305.73 757.682 1261.35 759.075 1217.03 A 1000.99 1000.99 0 0 1 821.391 907.911 C 814.227 909.958 808.489 911.861 802.432 916.345 C 784.625 903.889 772.648 885.985 758.392 870.034 C 749.902 860.534 740.738 851.698 732.711 841.776 C 722.176 828.755 710.079 813.334 712.224 795.641 C 713.6 784.292 718.434 773.401 722.736 762.912 C 750.254 695.817 801.697 635.708 853.844 586.151 C 867.247 573.414 881.318 560.872 895.556 549.066 C 904.091 541.99 913.463 535.46 921.588 527.977 C 927.377 522.644 930.936 514.791 936.439 509.017 C 945.442 499.57 957.351 492.037 967.522 483.826 C 972.905 460.477 973.349 448.072 991.867 430.447 C 960.22 428.276 922.822 423.535 895.101 406.987 C 889.566 403.683 883.431 393.627 878.306 392.114 L 877.375 391.721 C 875.79 393.187 874.84 394.04 872.854 394.964 L 873.886 390.572 C 875.005 385.896 877.538 381.398 879.577 377.051 C 890.387 397.334 903.421 404.226 924.812 410.729 C 946.586 417.35 974.648 423.829 997.681 422.652 C 1005.12 422.272 1012.63 420.388 1019.91 418.855 C 1027.16 421.268 1033.85 425.106 1040.58 428.679 C 1041.89 422.49 1042.36 418.929 1047.84 415.068 C 1038.53 415.853 1029.49 414.048 1020.94 410.394 C 1003.61 402.981 989.779 389.607 982.913 371.946 C 979.223 362.451 977.069 350.856 981.563 341.267 A 22.5953 22.5953 0 0 1 995.03 329.334 C 1008.31 324.877 1021.32 330.924 1033.14 336.556 C 1040.19 328.838 1048.99 322.593 1057.43 316.512 C 1035.41 282.587 1009.26 251.24 987.876 216.835 C 962.247 239.697 943.194 277.658 940.268 311.849 C 939.762 317.771 942.061 328.554 939.921 333.439 C 937.899 333.12 937.142 332.835 936.005 330.985 C 932.117 324.656 934.323 308.259 935.246 301.027 C 939.61 266.826 961.575 230.302 988.891 209.391 L 990.392 210.245 C 992.434 208.56 995.162 205.593 997.697 205.143 L 995.761 206.605 L 996.229 206.701 L 993.023 209.979 L 994.655 210.439 C 1001.52 206.053 1007.99 199.191 1014.54 194.073 A 224.571 224.571 0 0 1 1069.1 162.915 A 463.154 463.154 0 0 1 1110.19 148.108 C 1121.85 144.62 1142.78 141.8 1152.21 136.262 z"/>
<path transform="translate(0,0)" fill="rgb(229,230,220)" d="M 1103.58 652.284 L 1107.57 653.804 L 1107.44 660.446 L 1105.6 661.25 C 1104.38 661.021 1102.63 660.829 1101.44 660.354 C 1099.31 659.504 1099.13 659.35 1098.3 657.24 C 1099.53 654.474 1101.08 653.708 1103.58 652.284 z"/>
<path transform="translate(0,0)" fill="rgb(254,239,195)" d="M 1152.2 587.219 C 1154.97 586.512 1155.93 585.809 1158.61 586.988 C 1160.01 589.598 1159.84 589.555 1159.16 592.465 C 1156.68 595.03 1155.64 595.049 1152.27 595.926 L 1152.2 587.219 z"/>
<path transform="translate(0,0)" fill="rgb(1,0,6)" d="M 1551.02 1796.19 C 1552.82 1795.75 1552.49 1796.06 1553.66 1795.16 C 1555.27 1793.93 1556.32 1792.89 1558.28 1792.17 C 1558.25 1798.04 1557.97 1804.03 1558.23 1809.88 L 1557.33 1816.55 C 1555.49 1815.43 1554.07 1814.29 1552.41 1812.93 C 1550.82 1807.27 1550.7 1802 1551.02 1796.19 z"/>
<path transform="translate(0,0)" fill="rgb(201,201,192)" d="M 1099.56 802.822 C 1108.66 802.598 1118.49 802.924 1127.41 804.837 C 1132.28 804.586 1136.91 803.764 1141.33 806.174 L 1140.9 807.363 C 1131.01 811.145 1109.75 807.912 1100.02 804.378 L 1099.56 802.822 z"/>
<path transform="translate(0,0)" fill="rgb(229,230,220)" d="M 1157.08 648.736 C 1160.9 648.273 1164.65 647.246 1168.39 646.362 C 1168.19 649.716 1168.59 651.476 1166.51 654.183 C 1161.35 656.551 1154.01 655.908 1148.21 657.461 C 1144.73 658.147 1141.18 659.03 1137.65 659.348 C 1137.89 659.14 1138.15 658.942 1138.38 658.726 C 1141.02 656.309 1141.03 655.16 1141.27 651.704 C 1142.88 650.7 1145.45 650.62 1147.33 650.299 L 1157.08 648.736 z"/>
<path transform="translate(0,0)" fill="rgb(168,126,125)" d="M 1066.9 330.088 C 1070.85 337.02 1081.66 346.316 1081.43 354.17 L 1079.77 355.729 C 1075.29 356.544 1070.92 355.012 1066.57 353.966 C 1059.58 351.769 1052.99 348.99 1046.29 346.022 C 1052.96 340.396 1059.83 335.2 1066.9 330.088 z"/>
<path transform="translate(0,0)" fill="rgb(1,0,6)" d="M 1121.39 267.505 C 1125.29 265.335 1129.92 261.525 1134.39 261.189 C 1137.52 262.216 1138.88 263.756 1140.44 266.627 C 1140.6 266.921 1140.74 267.229 1140.88 267.53 C 1138.26 267.444 1135.38 267.242 1132.95 268.387 C 1118.19 275.342 1100.64 292.222 1087.28 302.433 C 1081.5 306.847 1075.16 310.087 1069.69 314.988 C 1068.37 316.173 1068.76 315.784 1067.77 317.132 L 1066.01 316.359 C 1066.36 313.903 1066.73 311.449 1066.99 308.982 C 1084.42 295.016 1106.32 283.911 1121.39 267.505 z"/>
<path transform="translate(0,0)" fill="rgb(229,230,220)" d="M 1121.34 589.11 C 1126.67 588.51 1132.16 587.078 1137.43 586.019 C 1140.17 586.99 1143.37 587.822 1145.87 589.276 L 1152.2 587.219 L 1152.27 595.926 C 1138.48 600.685 1121.54 602.281 1107.07 604.512 L 1107.11 603.761 L 1105.73 604.496 C 1104.95 601.359 1104.89 598.004 1104.36 594.788 L 1103.84 592.507 L 1104.2 589.171 C 1109.36 591.326 1115.95 589.86 1121.34 589.11 z"/>
<path transform="translate(0,0)" fill="rgb(1,0,17)" d="M 1103.84 592.507 L 1104.2 589.171 C 1109.36 591.326 1115.95 589.86 1121.34 589.11 L 1121.77 594.694 C 1115.94 594.957 1110.19 594.959 1104.36 594.788 L 1103.84 592.507 z"/>
<path transform="translate(0,0)" fill="rgb(1,0,17)" d="M 1121.34 589.11 C 1126.67 588.51 1132.16 587.078 1137.43 586.019 C 1140.17 586.99 1143.37 587.822 1145.87 589.276 C 1137.87 591.385 1129.9 593.167 1121.77 594.694 L 1121.34 589.11 z"/>
<path transform="translate(0,0)" fill="rgb(204,146,140)" d="M 1127.22 509.208 C 1131.77 514.516 1136.83 519.307 1141.17 524.822 C 1132.93 543.312 1124.25 561.833 1112.28 578.231 L 1112.73 580.657 C 1110.07 581.145 1107.8 581.321 1105.09 581.288 C 1109.98 556.488 1121.46 533.776 1127.22 509.208 z"/>
<path transform="translate(0,0)" fill="rgb(229,230,220)" d="M 1558.28 1792.17 C 1559.18 1788.39 1559.01 1783.96 1559.52 1780.06 C 1561.05 1768.39 1564.6 1745.62 1575.13 1738.47 C 1577.42 1736.92 1578.74 1736.9 1581.4 1737.23 C 1583.41 1739.41 1583.53 1739.78 1584.09 1742.71 C 1582.44 1756.08 1567.99 1811.85 1559.75 1820.21 L 1559.02 1819.99 L 1558.99 1818.56 C 1558.91 1815.66 1558.54 1812.76 1558.23 1809.88 C 1557.97 1804.03 1558.25 1798.04 1558.28 1792.17 z"/>
<path transform="translate(0,0)" fill="rgb(168,126,125)" d="M 1143.33 272.987 C 1161.88 290.236 1191.03 302.855 1216.41 305.051 C 1210.8 310.625 1204.71 313.753 1196.73 314.33 C 1173.73 315.991 1149.02 297.61 1132.76 283.324 C 1136.74 280.1 1140.27 277.166 1143.33 272.987 z"/>
<path transform="translate(0,0)" fill="rgb(229,230,220)" d="M 1145.3 530.352 C 1151.98 546.955 1155.35 562.955 1158.64 580.467 A 641.919 641.919 0 0 1 1137.43 586.019 C 1132.16 587.078 1126.67 588.51 1121.34 589.11 C 1115.95 589.86 1109.36 591.326 1104.2 589.171 L 1105.29 584.44 L 1105.09 581.288 C 1107.8 581.321 1110.07 581.145 1112.73 580.657 C 1121.94 578.089 1125.63 573.772 1130.29 565.486 C 1136.43 554.574 1141.13 542.158 1145.3 530.352 z"/>
<path transform="translate(0,0)" fill="rgb(154,171,168)" d="M 1134.99 872.949 C 1182.1 912.692 1184.61 948.118 1189.93 1006.15 C 1179.05 988.487 1166.59 955.62 1158.37 935.694 C 1149.83 914.969 1139.23 895.148 1134.99 872.949 z"/>
<path transform="translate(0,0)" fill="rgb(204,146,140)" d="M 1154.34 460.456 C 1155.24 460.552 1155.47 460.546 1156.44 460.808 C 1168.9 464.193 1208.65 519.422 1216.22 532.575 C 1209.13 550.564 1199.2 568.139 1190.98 585.715 A 1122.25 1122.25 0 0 0 1179.83 607.801 C 1180.6 597.001 1182.41 586.332 1182.73 575.485 C 1183.63 544.921 1178.37 509.384 1164.8 481.926 C 1161.49 475.219 1156.16 470.438 1152.7 464.084 L 1154.34 460.456 z"/>
<path transform="translate(0,0)" fill="rgb(46,31,55)" d="M 1409.68 1662.41 L 1410.82 1661.82 L 1412.41 1665.95 C 1417.32 1667.72 1423.59 1663.49 1428.18 1661.83 C 1430.65 1667.38 1432.95 1673.79 1432.85 1679.95 C 1412.36 1687.79 1373.7 1717.3 1354.9 1731.17 C 1346.7 1718.65 1338.73 1704.78 1328.59 1693.77 C 1340.78 1690.32 1402.23 1674.65 1408.94 1668.14 C 1409.95 1667.15 1409.62 1663.85 1409.68 1662.41 z"/>
<path transform="translate(0,0)" fill="rgb(229,230,220)" d="M 1104.18 611.022 C 1124.02 609.315 1142.47 604.582 1161.59 599.289 A 1057.39 1057.39 0 0 0 1167.72 640.646 C 1168.27 642.715 1168.63 644.222 1168.39 646.362 C 1164.65 647.246 1160.9 648.273 1157.08 648.736 L 1147.33 650.299 C 1145.45 650.62 1142.88 650.7 1141.27 651.704 C 1141.03 655.16 1141.02 656.309 1138.38 658.726 C 1138.15 658.942 1137.89 659.14 1137.65 659.348 L 1136.61 659.478 C 1133.67 659.825 1130.92 659.705 1128.15 660.896 C 1127.77 660.9 1127.39 660.982 1127.02 660.907 C 1124.95 660.486 1124.59 659.803 1122.25 660.154 C 1119.61 660.553 1121.28 660.518 1118.56 660.519 C 1118.09 660.519 1117.61 660.497 1117.14 660.485 A 350.001 350.001 0 0 0 1107.44 660.446 L 1107.57 653.804 L 1103.58 652.284 C 1103.24 651.686 1103.09 650.392 1102.94 649.705 L 1100.94 648.894 C 1099.3 642.037 1103.34 619.338 1104.18 611.022 z"/>
<path transform="translate(0,0)" fill="rgb(1,0,17)" d="M 1135.78 645.885 C 1141.49 644.732 1147.48 644.23 1153.26 643.479 L 1155.6 644.353 C 1156.11 645.81 1156.64 647.258 1157.08 648.736 L 1147.33 650.299 C 1143.25 646.61 1141.17 646.227 1135.78 645.885 z"/>
<path transform="translate(0,0)" fill="rgb(46,31,55)" d="M 1167.72 640.646 C 1168.27 642.715 1168.63 644.222 1168.39 646.362 C 1164.65 647.246 1160.9 648.273 1157.08 648.736 C 1156.64 647.258 1156.11 645.81 1155.6 644.353 L 1153.26 643.479 C 1157.45 641.859 1163.23 641.487 1167.72 640.646 z"/>
<path transform="translate(0,0)" fill="rgb(1,0,6)" d="M 1102.94 649.705 C 1113.61 647.254 1124.88 646.669 1135.78 645.885 C 1141.17 646.227 1143.25 646.61 1147.33 650.299 C 1145.45 650.62 1142.88 650.7 1141.27 651.704 C 1136.78 652.016 1132.19 652.143 1127.76 652.882 C 1122.08 652.946 1113.96 652.117 1108.65 653.932 L 1107.57 653.804 L 1103.58 652.284 C 1103.24 651.686 1103.09 650.392 1102.94 649.705 z"/>
<path transform="translate(0,0)" fill="rgb(201,201,192)" d="M 1127.76 652.882 C 1132.19 652.143 1136.78 652.016 1141.27 651.704 C 1141.03 655.16 1141.02 656.309 1138.38 658.726 C 1138.15 658.942 1137.89 659.14 1137.65 659.348 L 1136.61 659.478 C 1133.67 659.825 1130.92 659.705 1128.15 660.896 C 1127.77 660.9 1127.39 660.982 1127.02 660.907 C 1124.95 660.486 1124.59 659.803 1122.25 660.154 C 1119.61 660.553 1121.28 660.518 1118.56 660.519 C 1118.09 660.519 1117.61 660.497 1117.14 660.485 A 350.001 350.001 0 0 0 1107.44 660.446 L 1107.57 653.804 L 1108.65 653.932 C 1113.96 652.117 1122.08 652.946 1127.76 652.882 z"/>
<path transform="translate(0,0)" fill="rgb(229,230,220)" d="M 1107.57 653.804 L 1108.65 653.932 L 1114.62 654.586 C 1116.07 656.624 1116.46 658.137 1117.14 660.485 A 350.001 350.001 0 0 0 1107.44 660.446 L 1107.57 653.804 z"/>
<path transform="translate(0,0)" fill="rgb(229,230,220)" d="M 1137.65 659.348 C 1141.18 659.03 1144.73 658.147 1148.21 657.461 L 1149.64 658.884 L 1146.88 661.433 C 1148.71 661.823 1150.6 662.132 1152.39 662.661 L 1168.06 659.494 C 1169.13 667.239 1169.22 696.614 1165.84 702.506 C 1163.89 702.824 1162.39 702.9 1160.42 702.646 L 1159.8 707.722 C 1149.02 709.564 1136.97 708.23 1126.01 708.327 C 1113.72 708.436 1101.19 709.582 1088.93 708.387 L 1093.09 705.365 L 1092.9 703.895 L 1089.35 701.731 C 1090.93 694.844 1094.7 669.557 1099.09 665.331 L 1102.47 665.404 L 1105.6 661.25 L 1107.44 660.446 A 350.001 350.001 0 0 1 1117.14 660.485 C 1117.61 660.497 1118.09 660.519 1118.56 660.519 C 1121.28 660.518 1119.61 660.553 1122.25 660.154 C 1124.59 659.803 1124.95 660.486 1127.02 660.907 C 1127.39 660.982 1127.77 660.9 1128.15 660.896 C 1130.92 659.705 1133.67 659.825 1136.61 659.478 L 1137.65 659.348 z"/>
<path transform="translate(0,0)" fill="rgb(1,0,6)" d="M 1137.65 659.348 C 1141.18 659.03 1144.73 658.147 1148.21 657.461 L 1149.64 658.884 L 1146.88 661.433 C 1148.71 661.823 1150.6 662.132 1152.39 662.661 C 1136.28 666.294 1118.88 667.808 1102.47 665.404 L 1105.6 661.25 L 1107.44 660.446 A 350.001 350.001 0 0 1 1117.14 660.485 C 1117.61 660.497 1118.09 660.519 1118.56 660.519 C 1121.28 660.518 1119.61 660.553 1122.25 660.154 C 1124.59 659.803 1124.95 660.486 1127.02 660.907 C 1127.39 660.982 1127.77 660.9 1128.15 660.896 C 1130.92 659.705 1133.67 659.825 1136.61 659.478 L 1137.65 659.348 z"/>
<path transform="translate(0,0)" fill="rgb(1,0,6)" d="M 1089.35 701.731 C 1110.53 702.159 1140.49 697.81 1160.42 702.646 L 1159.8 707.722 C 1149.02 709.564 1136.97 708.23 1126.01 708.327 C 1113.72 708.436 1101.19 709.582 1088.93 708.387 L 1093.09 705.365 L 1092.9 703.895 L 1089.35 701.731 z"/>
<path transform="translate(0,0)" fill="rgb(154,171,168)" d="M 1281.52 1628.56 L 1286.31 1628.39 C 1287.72 1630.87 1288.74 1632.88 1289.52 1635.65 C 1294.47 1649.93 1300.1 1663.83 1305.84 1677.81 L 1301.59 1679.63 A 901.333 901.333 0 0 0 1306.51 1690.31 C 1293.99 1695.99 1274.61 1694.99 1261.09 1695.04 C 1246.78 1676 1234.36 1653.29 1224.14 1631.79 C 1242.53 1635.04 1263.61 1633.95 1281.52 1628.56 z"/>
<path transform="translate(0,0)" fill="rgb(1,0,17)" d="M 1281.52 1628.56 L 1286.31 1628.39 C 1287.72 1630.87 1288.74 1632.88 1289.52 1635.65 L 1284.36 1636.98 C 1283.19 1634.2 1282.33 1631.45 1281.52 1628.56 z"/>
<path transform="translate(0,0)" fill="rgb(1,0,6)" d="M 1284.36 1636.98 L 1289.52 1635.65 C 1294.47 1649.93 1300.1 1663.83 1305.84 1677.81 L 1301.59 1679.63 A 557.474 557.474 0 0 1 1284.36 1636.98 z"/>
<path transform="translate(0,0)" fill="rgb(229,230,220)" d="M 1159.8 707.722 L 1164.06 708.28 C 1165.73 710.733 1165.36 712.122 1164.8 714.95 C 1164.73 715.296 1164.65 715.639 1164.59 715.986 C 1164.25 717.854 1164.22 719.101 1164.43 720.961 L 1161.89 721.432 L 1162.1 726.177 C 1163 732.873 1155.26 760.425 1152.69 767.692 C 1127.61 766.512 1103.53 761.596 1078.7 759.547 A 474.136 474.136 0 0 1 1066.86 757.081 C 1072.18 747.902 1075.64 731.053 1082.63 724.025 L 1083.36 719.384 C 1084.66 715.929 1085.74 710.348 1088.93 708.387 C 1101.19 709.582 1113.72 708.436 1126.01 708.327 C 1136.97 708.23 1149.02 709.564 1159.8 707.722 z"/>
<path transform="translate(0,0)" fill="rgb(1,0,6)" d="M 1083.36 719.384 C 1092 719.604 1159.01 720.07 1161.89 721.432 L 1162.1 726.177 C 1154.32 725.322 1146.06 725.98 1138.22 726.024 C 1119.85 726.128 1100.88 726.38 1082.63 724.025 L 1083.36 719.384 z"/>
<path transform="translate(0,0)" fill="rgb(201,201,192)" d="M 1159.8 707.722 L 1164.06 708.28 C 1165.73 710.733 1165.36 712.122 1164.8 714.95 C 1164.73 715.296 1164.65 715.639 1164.59 715.986 C 1164.25 717.854 1164.22 719.101 1164.43 720.961 L 1161.89 721.432 C 1159.01 720.07 1092 719.604 1083.36 719.384 C 1084.66 715.929 1085.74 710.348 1088.93 708.387 C 1101.19 709.582 1113.72 708.436 1126.01 708.327 C 1136.97 708.23 1149.02 709.564 1159.8 707.722 z"/>
<path transform="translate(0,0)" fill="rgb(1,0,6)" d="M 1177.07 210.207 C 1192.59 212.212 1207.83 226.517 1216.92 238.5 C 1219.58 242.005 1221.98 245.737 1224.38 249.425 C 1228.19 257.34 1234.48 267.378 1235.28 276.066 L 1233.2 278.624 L 1231.64 279.274 L 1225.86 281.326 C 1225.73 292.217 1223.85 297.057 1216.41 305.051 C 1191.03 302.855 1161.88 290.236 1143.33 272.987 C 1142.02 271.069 1141.27 269.837 1140.88 267.53 C 1140.74 267.229 1140.6 266.921 1140.44 266.627 C 1138.88 263.756 1137.52 262.216 1134.39 261.189 C 1129.92 261.525 1125.29 265.335 1121.39 267.505 C 1121.62 263.023 1126.32 257.813 1128.99 254.295 L 1128.98 252.582 C 1128.98 251.865 1129.01 250.706 1128.96 250.007 C 1128.29 241.233 1131.82 233.452 1135.67 225.647 C 1136.8 223.348 1137.45 221.799 1137.74 219.252 C 1140.16 217.033 1142.76 214.828 1146.08 214.8 L 1150.16 215.665 C 1159.03 213.566 1164.33 214.359 1172.98 216.532 C 1172.18 215.812 1171.39 215.073 1170.56 214.382 C 1169.14 213.205 1169 212.884 1168.29 211.23 C 1170.75 211.34 1172.97 211.421 1175.36 210.728 C 1175.93 210.563 1176.5 210.381 1177.07 210.207 z"/>
<path transform="translate(0,0)" fill="rgb(1,0,17)" d="M 1220.83 265.09 L 1229.51 270.829 C 1227.82 272.878 1226.03 274.853 1224.78 277.204 L 1222.37 274.667 L 1219.7 271.069 L 1220.83 265.09 z"/>
<path transform="translate(0,0)" fill="rgb(46,31,55)" d="M 1229.51 270.829 C 1231.38 272.733 1233.06 274.56 1235.28 276.066 L 1233.2 278.624 L 1231.64 279.274 L 1225.86 281.326 L 1224.78 277.204 C 1226.03 274.853 1227.82 272.878 1229.51 270.829 z"/>
<path transform="translate(0,0)" fill="rgb(229,230,220)" d="M 1152.98 259.304 C 1164.39 265.519 1176.46 271.687 1182.82 283.592 C 1173.81 280.09 1159.14 272.459 1153.84 264.19 C 1152.47 262.048 1152.52 261.656 1152.98 259.304 z"/>
<path transform="translate(0,0)" fill="rgb(254,239,195)" d="M 1177.07 210.207 C 1192.59 212.212 1207.83 226.517 1216.92 238.5 C 1219.58 242.005 1221.98 245.737 1224.38 249.425 C 1228.19 257.34 1234.48 267.378 1235.28 276.066 C 1233.06 274.56 1231.38 272.733 1229.51 270.829 L 1220.83 265.09 C 1219.9 263.379 1218.75 261.738 1217.71 260.087 C 1207.84 239.293 1193.36 226.648 1172.98 216.532 C 1172.18 215.812 1171.39 215.073 1170.56 214.382 C 1169.14 213.205 1169 212.884 1168.29 211.23 C 1170.75 211.34 1172.97 211.421 1175.36 210.728 C 1175.93 210.563 1176.5 210.381 1177.07 210.207 z"/>
<path transform="translate(0,0)" fill="rgb(254,239,195)" d="M 1137.74 219.252 C 1140.16 217.033 1142.76 214.828 1146.08 214.8 L 1150.16 215.665 C 1143.93 221.35 1141.12 227.152 1140.74 235.745 C 1140.13 249.644 1147.25 263 1156.74 272.747 C 1167.47 283.771 1189.12 293.769 1204.63 293.543 C 1209.4 293.474 1214.32 292.051 1217.75 288.578 C 1221.47 284.799 1222.28 279.757 1222.37 274.667 L 1224.78 277.204 L 1225.86 281.326 C 1225.73 292.217 1223.85 297.057 1216.41 305.051 C 1191.03 302.855 1161.88 290.236 1143.33 272.987 C 1142.02 271.069 1141.27 269.837 1140.88 267.53 C 1140.74 267.229 1140.6 266.921 1140.44 266.627 C 1138.88 263.756 1137.52 262.216 1134.39 261.189 C 1129.92 261.525 1125.29 265.335 1121.39 267.505 C 1121.62 263.023 1126.32 257.813 1128.99 254.295 L 1128.98 252.582 C 1128.98 251.865 1129.01 250.706 1128.96 250.007 C 1128.29 241.233 1131.82 233.452 1135.67 225.647 C 1136.8 223.348 1137.45 221.799 1137.74 219.252 z"/>
<path transform="translate(0,0)" fill="rgb(85,50,62)" d="M 1152.98 259.304 C 1152.65 259.082 1152.34 258.821 1151.98 258.639 C 1151.69 258.49 1150.37 258.077 1150.01 257.963 C 1145.11 252.537 1143.33 239.356 1143.85 232.266 C 1144.13 228.424 1145.47 224.655 1148.6 222.226 C 1153.27 218.609 1160.29 218.721 1165.81 219.651 C 1182.7 222.495 1198.3 236.31 1207.65 250.088 C 1210.26 253.931 1212.25 258.268 1214.15 262.496 L 1217.7 271.945 C 1218.31 276.807 1219.43 281.567 1216.08 285.703 C 1213.73 288.617 1209.98 289.693 1206.38 289.836 C 1199.14 290.123 1189.11 287.101 1182.82 283.592 C 1176.46 271.687 1164.39 265.519 1152.98 259.304 z"/>
<path transform="translate(0,0)" fill="rgb(204,146,140)" d="M 910.15 802.108 C 915.424 807.891 925.125 837.606 927.865 846.488 C 899.606 855.124 869.964 868.391 844.186 882.851 C 829.741 890.954 816.143 900.457 801.479 908.187 L 794.959 901.463 C 786.199 890.51 777.209 879.658 769.042 868.255 C 803.731 839.815 867.321 817.238 910.15 802.108 z"/>
<path transform="translate(0,0)" fill="rgb(46,31,55)" d="M 1119.19 1091.73 C 1120.57 1092.07 1122.18 1092.6 1123.61 1092.72 C 1117.09 1112.71 1087.18 1219.33 1091.8 1233.37 L 1090.37 1235.1 C 1088.5 1238.89 1086.51 1248.45 1087.88 1252.61 C 1088.19 1253.55 1088.45 1253.95 1088.91 1254.9 L 1086.79 1257.92 C 1080.39 1272 1075.8 1343.28 1074.92 1362.59 C 1073.34 1357.02 1036.75 1309.01 1029.93 1295.04 C 1040.8 1256.82 1053.74 1219.14 1065.67 1181.23 C 1072.35 1160 1080.72 1121.6 1091.74 1104.28 C 1097.26 1095.61 1109.89 1093.84 1119.19 1091.73 z"/>
<path transform="translate(0,0)" fill="rgb(195,152,134)" d="M 852.055 903.709 C 865.477 886.05 901.887 862.415 923.303 855.102 C 943.925 884.645 965.5 913.353 990.669 939.209 L 991.691 940.982 C 986.79 955.433 959.415 979.417 947.575 989.707 C 935.867 975.084 918.359 964.663 903.867 952.877 C 892.039 943.259 881.005 932.568 869.861 922.17 C 863.682 916.406 856.758 910.772 852.055 903.709 z"/>
<path transform="translate(0,0)" fill="rgb(154,171,168)" d="M 1286.31 1628.39 C 1287.38 1627.52 1288.27 1627 1289.62 1626.63 C 1325.06 1616.79 1359.92 1607.48 1394.18 1593.78 C 1400.51 1591.25 1406.85 1588.63 1412.55 1584.83 C 1416.93 1581.9 1422.35 1574.93 1427.2 1574.06 C 1430.44 1576.45 1444.39 1634.61 1445.99 1642.53 L 1443.27 1649.91 C 1432.72 1654.12 1421.76 1658.78 1410.82 1661.82 L 1409.68 1662.41 C 1395.45 1668.25 1322.5 1692.09 1311.49 1689.16 C 1311.31 1689.11 1311.16 1688.99 1310.99 1688.91 L 1306.51 1690.31 A 901.333 901.333 0 0 1 1301.59 1679.63 L 1305.84 1677.81 C 1300.1 1663.83 1294.47 1649.93 1289.52 1635.65 C 1288.74 1632.88 1287.72 1630.87 1286.31 1628.39 z"/>
<path transform="translate(0,0)" fill="rgb(1,0,17)" d="M 1305.84 1677.81 C 1307.7 1681.46 1309.42 1685.12 1310.99 1688.91 L 1306.51 1690.31 A 901.333 901.333 0 0 1 1301.59 1679.63 L 1305.84 1677.81 z"/>
<path transform="translate(0,0)" fill="rgb(195,152,134)" d="M 1354.9 1731.17 C 1373.7 1717.3 1412.36 1687.79 1432.85 1679.95 C 1436.18 1692.78 1441.13 1705.18 1445.64 1717.62 C 1453.41 1739.03 1461.32 1760.27 1470.96 1780.93 C 1476.46 1792.73 1483 1804.12 1488.27 1816 C 1469.72 1829.39 1440.36 1838.06 1417.65 1839.22 L 1417.02 1838.13 C 1411.42 1828.31 1406.96 1817.86 1401.56 1807.91 C 1388.99 1784.76 1369.95 1752.49 1354.9 1731.17 z"/>
<path transform="translate(0,0)" fill="rgb(154,171,168)" d="M 544.75 1477.28 C 544.916 1477.87 545.237 1478.44 545.247 1479.06 C 545.257 1479.67 544.949 1480.25 544.808 1480.86 C 543.165 1487.88 545.289 1496.84 546.386 1503.9 C 553.121 1547.3 569.947 1586.04 593.567 1622.85 C 603.107 1637.72 613.68 1651.9 624.161 1666.11 C 606.079 1671.9 588.59 1680.48 571.745 1689.17 C 558.908 1676.56 546.355 1664.01 534.867 1650.13 C 528.181 1639.71 521.283 1629.79 515.737 1618.65 C 500.717 1588.5 485.648 1537.99 484.768 1503.98 C 490.791 1501.8 496.496 1499.23 502.274 1496.47 C 516.634 1490.61 530.663 1483.78 544.75 1477.28 z"/>
<path transform="translate(0,0)" fill="rgb(204,146,140)" d="M 977.65 480.705 C 980.083 464.067 984.007 447.977 996.722 435.966 C 1002.34 430.661 1009.44 427.078 1017.33 427.536 C 1025.95 428.037 1036.27 434.943 1043.59 439.157 C 1071.41 455.177 1098.92 473.516 1121.1 496.962 C 1119.78 526.772 1099.87 552.726 1096.72 582.091 C 1096.87 585.577 1097.12 589.089 1097.15 592.577 C 1097.99 605.541 1095.1 620.857 1093.47 633.772 C 1084.79 702.35 1063.43 754.295 1023.81 810.763 C 1015.87 822.088 1008.21 834.169 999.191 844.66 C 1010.68 818.138 1023.61 792.233 1034.99 765.645 A 671.945 671.945 0 0 0 1077.14 633.302 C 1083.34 603.502 1090.86 558.206 1072.6 531.343 C 1052.27 501.418 1011.35 487.564 977.65 480.705 z"/>
<path transform="translate(0,0)" fill="rgb(154,171,168)" d="M 742.131 1423.32 C 744.795 1432.38 743.89 1443 748.515 1451.37 L 749.712 1450.95 C 756.626 1426.62 742.444 1412.93 742.856 1399.01 C 742.916 1396.99 743.665 1395.07 745.294 1393.85 C 748.846 1391.19 752.555 1391.96 756.677 1392.43 C 756.853 1392.87 757.025 1393.32 757.206 1393.76 C 759.846 1400.21 764.503 1405.83 767.259 1412.31 C 775.299 1431.23 780.736 1452.13 786.929 1471.76 C 787.187 1472.31 787.522 1472.83 787.704 1473.4 C 787.853 1473.88 787.841 1474.39 787.91 1474.88 L 792.279 1476.02 C 776.056 1477.7 759.599 1482.2 743.717 1485.95 A 1305.82 1305.82 0 0 0 580.208 1536.64 C 575.178 1538.54 569.091 1538.45 564.614 1541.33 L 563.764 1543.39 C 564.572 1545 565.295 1546.41 566.351 1547.87 L 564.199 1548.5 C 560.434 1542.66 548.335 1493.03 548.731 1485.28 C 549.964 1485.5 551.126 1485.68 552.381 1485.72 C 552.685 1485.73 552.99 1485.72 553.294 1485.72 L 553.951 1487.16 C 573.269 1481.06 591.865 1472.57 611.272 1466.63 C 655.086 1453.22 700.824 1443.71 742.131 1423.32 z"/>
<path transform="translate(0,0)" fill="rgb(1,0,17)" d="M 786.929 1471.76 C 787.187 1472.31 787.522 1472.83 787.704 1473.4 C 787.853 1473.88 787.841 1474.39 787.91 1474.88 L 792.279 1476.02 C 776.056 1477.7 759.599 1482.2 743.717 1485.95 A 1305.82 1305.82 0 0 0 580.208 1536.64 C 575.178 1538.54 569.091 1538.45 564.614 1541.33 L 563.764 1543.39 C 564.572 1545 565.295 1546.41 566.351 1547.87 L 564.199 1548.5 C 560.434 1542.66 548.335 1493.03 548.731 1485.28 C 549.964 1485.5 551.126 1485.68 552.381 1485.72 C 552.685 1485.73 552.99 1485.72 553.294 1485.72 L 553.951 1487.16 L 552.324 1488.33 C 549.838 1493.97 559.621 1529.54 561.873 1537.18 C 611.586 1520.97 660.38 1502.61 710.819 1488.65 A 1040.19 1040.19 0 0 1 761.577 1476.46 C 769.667 1474.81 779.364 1474.67 786.929 1471.76 z"/>
<path transform="translate(0,0)" fill="rgb(154,171,168)" d="M 1086.79 1257.92 C 1121.49 1320 1157.97 1380.89 1193.59 1442.42 C 1208.63 1468.38 1222.89 1494.8 1237.74 1520.88 C 1250.13 1542.64 1261.3 1565.24 1273.12 1587.34 C 1278.01 1596.49 1282.44 1606.86 1288.72 1615.14 C 1289.43 1616.94 1289.37 1616.03 1288.94 1617.86 C 1279.53 1622.8 1255.9 1623.41 1244.77 1624.8 C 1237.36 1616.86 1232.45 1604.03 1226.67 1594.62 C 1214.28 1574.47 1201.3 1554.63 1188.45 1534.78 A 7208.57 7208.57 0 0 0 1117.88 1428.21 C 1103.5 1407.03 1085.99 1385.64 1074.92 1362.59 C 1075.8 1343.28 1080.39 1272 1086.79 1257.92 z"/>
<path transform="translate(0,0)" fill="rgb(195,152,134)" d="M 1152.21 136.262 L 1154.7 136.039 C 1163.63 143.765 1173.35 150.524 1182.27 158.247 C 1204.58 177.546 1219.6 202.194 1230.36 229.427 C 1226.57 232.1 1224.88 233.881 1222.71 238.001 C 1219.18 230.508 1206.04 221.682 1199.18 217.198 C 1191.28 212.038 1180.56 205.699 1170.92 207.677 L 1171.12 208.405 L 1177.07 210.207 C 1176.5 210.381 1175.93 210.563 1175.36 210.728 C 1172.97 211.421 1170.75 211.34 1168.29 211.23 C 1169 212.884 1169.14 213.205 1170.56 214.382 C 1171.39 215.073 1172.18 215.812 1172.98 216.532 C 1164.33 214.359 1159.03 213.566 1150.16 215.665 L 1146.08 214.8 C 1142.76 214.828 1140.16 217.033 1137.74 219.252 C 1137.45 221.799 1136.8 223.348 1135.67 225.647 C 1131.82 233.452 1128.29 241.233 1128.96 250.007 C 1129.01 250.706 1128.98 251.865 1128.98 252.582 L 1128.99 254.295 C 1126.32 257.813 1121.62 263.023 1121.39 267.505 C 1106.32 283.911 1084.42 295.016 1066.99 308.982 C 1065.22 310.33 1063.41 311.613 1061.61 312.911 C 1053.99 305.108 991.714 217.251 991.412 214.305 L 994.655 210.439 C 1001.52 206.053 1007.99 199.191 1014.54 194.073 A 224.571 224.571 0 0 1 1069.1 162.915 A 463.154 463.154 0 0 1 1110.19 148.108 C 1121.85 144.62 1142.78 141.8 1152.21 136.262 z"/>
<path transform="translate(0,0)" fill="rgb(1,0,6)" d="M 1168.21 199.092 C 1167.26 196.063 1166.74 195.464 1167.78 192.367 C 1171.7 188.512 1176.21 187.542 1181.65 187.622 C 1187.32 187.705 1192.19 188.845 1196.43 192.686 C 1197.52 195.311 1197.47 195.52 1196.86 198.306 C 1192.48 202.38 1181.07 198.367 1174.37 202.78 C 1172.47 203.226 1171.16 203.491 1169.19 203.449 L 1169.16 201.961 L 1169.4 200.797 L 1168.21 199.092 z"/>
<path transform="translate(0,0)" fill="rgb(204,146,140)" d="M 1168.21 199.092 C 1172.65 194.759 1175.67 193.117 1182.06 193.404 C 1183.52 193.469 1183.59 193.52 1184.82 193.759 L 1183.94 193.862 C 1181.59 194.152 1179.79 194.493 1177.61 195.516 C 1176.29 197.934 1175.3 200.188 1174.37 202.78 C 1172.47 203.226 1171.16 203.491 1169.19 203.449 L 1169.16 201.961 L 1169.4 200.797 L 1168.21 199.092 z"/>
<path transform="translate(0,0)" fill="rgb(1,0,17)" d="M 1141.06 201.075 C 1151.16 199.683 1160.12 206.675 1169.16 201.961 L 1169.19 203.449 L 1168.64 205.622 L 1170.92 207.677 L 1171.12 208.405 L 1177.07 210.207 C 1176.5 210.381 1175.93 210.563 1175.36 210.728 C 1172.97 211.421 1170.75 211.34 1168.29 211.23 C 1169 212.884 1169.14 213.205 1170.56 214.382 C 1171.39 215.073 1172.18 215.812 1172.98 216.532 C 1164.33 214.359 1159.03 213.566 1150.16 215.665 L 1146.08 214.8 C 1142.76 214.828 1140.16 217.033 1137.74 219.252 C 1129.5 223.697 1125.98 235.11 1117.84 238.455 C 1116.39 239.052 1116.1 238.522 1114.8 237.934 C 1114.14 236.725 1113.98 236.551 1113.57 235.032 C 1112.21 230.041 1113.1 225.432 1115.48 221.005 C 1115.69 220.553 1115.9 220.096 1116.12 219.65 C 1121.09 209.82 1131.13 204.516 1141.06 201.075 z"/>
<path transform="translate(0,0)" fill="rgb(247,216,177)" d="M 1146.08 214.8 C 1148.25 214.142 1147.46 214.469 1149.31 213.615 C 1153.56 211.653 1159.42 208.547 1164.12 208.476 C 1166.45 208.441 1168.77 208.495 1171.12 208.405 L 1177.07 210.207 C 1176.5 210.381 1175.93 210.563 1175.36 210.728 C 1172.97 211.421 1170.75 211.34 1168.29 211.23 C 1169 212.884 1169.14 213.205 1170.56 214.382 C 1171.39 215.073 1172.18 215.812 1172.98 216.532 C 1164.33 214.359 1159.03 213.566 1150.16 215.665 L 1146.08 214.8 z"/>
<path transform="translate(0,0)" fill="rgb(1,0,6)" d="M 1115.48 221.005 C 1115.69 220.553 1115.9 220.096 1116.12 219.65 C 1121.09 209.82 1131.13 204.516 1141.06 201.075 L 1143.32 202.685 C 1142.98 205.298 1142.86 205.458 1140.64 207.167 C 1134.87 211.62 1124.01 220.031 1116.92 221.372 L 1115.48 221.005 z"/>
<path transform="translate(0,0)" fill="rgb(229,230,220)" d="M 980.63 489.364 C 1008.14 494.046 1050.31 513.366 1067.37 536.296 C 1080.98 554.58 1075.22 592.554 1071.58 613.241 A 699.718 699.718 0 0 1 1042.75 723.398 C 1034.84 745.511 1025.12 766.956 1015.66 788.434 L 966.558 897.551 C 956.373 884.661 938.856 866.152 932.528 851.598 C 933.931 850.138 934.72 849.841 936.55 849.083 C 935.328 843.708 920.156 800.294 917.955 796.245 C 917.075 794.627 915.791 793.81 914.361 792.739 C 907.913 787.914 907.252 779.895 905.54 772.525 C 918.521 756.628 931.422 740.728 944.982 725.314 C 973.281 693.147 1036.56 629.339 1043.65 588.515 C 1042.38 584.78 1043.12 581.646 1043.39 577.794 C 1044.36 563.564 1044.39 552.389 1037.31 539.768 C 1037.03 539.279 1036.79 538.773 1036.53 538.276 L 1036.29 539.884 C 1039.37 547.057 1040.24 553.229 1040.65 560.984 C 1040.92 565.921 1041.9 580.667 1038.67 584.247 L 1037.64 583.338 C 1039.1 571.971 1040.44 560.024 1037.55 548.775 C 1034.68 537.634 1027.81 529.489 1017.94 523.725 C 1001.03 513.849 976.402 509.345 957.424 514.308 C 954.546 513.721 953.239 513.263 950.875 511.356 L 946.007 513.554 C 954.187 503.927 966.979 495.042 978.674 490.173 L 979.892 489.658 C 980.137 489.557 980.384 489.462 980.63 489.364 z"/>
<path transform="translate(0,0)" fill="rgb(1,0,6)" d="M 950.875 511.356 C 969.97 503.622 992.226 506.771 1010.91 514.621 C 1024.32 520.255 1035.87 530.449 1041.4 544.136 C 1046.75 557.387 1047.53 574.787 1043.65 588.515 C 1042.38 584.78 1043.12 581.646 1043.39 577.794 C 1044.36 563.564 1044.39 552.389 1037.31 539.768 C 1037.03 539.279 1036.79 538.773 1036.53 538.276 L 1036.29 539.884 C 1039.37 547.057 1040.24 553.229 1040.65 560.984 C 1040.92 565.921 1041.9 580.667 1038.67 584.247 L 1037.64 583.338 C 1039.1 571.971 1040.44 560.024 1037.55 548.775 C 1034.68 537.634 1027.81 529.489 1017.94 523.725 C 1001.03 513.849 976.402 509.345 957.424 514.308 C 954.546 513.721 953.239 513.263 950.875 511.356 z"/>
<path transform="translate(0,0)" fill="rgb(195,152,134)" d="M 1224.38 249.425 C 1226.92 249.959 1229.42 250.458 1231.91 251.221 L 1233.56 251.53 C 1245.22 253.653 1273.64 247.737 1279.85 256.915 C 1281.75 259.726 1282.2 262.437 1281.42 265.78 C 1278.74 277.159 1264.69 281.87 1260.78 291.582 C 1267.23 301.463 1277.46 315.399 1278.18 327.53 L 1276.8 330.241 C 1277.88 331.222 1279.14 332.224 1280.12 333.322 C 1283.85 337.475 1285.9 342.506 1286.93 347.971 C 1289.53 361.535 1291.61 378.676 1283.46 390.785 C 1273.31 405.878 1246.75 411.344 1230 414.125 C 1184.52 421.676 1134.35 415.615 1091.1 400.15 C 1096.99 413.372 1109.39 424.372 1118.79 435.27 A 975.804 975.804 0 0 1 1143.03 464.536 C 1139.3 478.26 1135.71 491.742 1133.72 505.85 C 1115.17 472.911 1080.71 448.459 1047.6 431.567 C 1050 425.32 1051.26 421.609 1049.29 415.097 C 1053.08 413.951 1056.95 412.866 1060.27 410.634 C 1063.7 408.327 1067.48 404.147 1067.96 399.892 C 1068.13 398.363 1068.11 398.764 1067.15 397.675 C 1063.58 400.913 1059.31 406.342 1054.62 407.432 C 1040.53 410.706 1024.56 405.665 1012.66 397.932 C 999.769 389.552 990.458 376.719 987.495 361.507 C 986.196 354.836 986.836 348.707 990.818 343.033 C 1005.37 322.308 1039.41 350.054 1054.93 356.827 C 1065.38 361.391 1077.02 364.552 1088.48 362.778 C 1090.71 361.178 1090.68 361.313 1091.25 358.635 C 1088.47 347.558 1077.04 335.992 1070.16 326.957 C 1088.5 312.017 1107.92 299.396 1127.73 286.554 C 1144.43 296.859 1155.68 310.34 1175.02 317.634 C 1186.56 321.991 1200.76 324.44 1212.29 318.861 C 1225.26 312.588 1230.62 298.471 1235.12 285.74 C 1233.4 283.989 1232.79 282.402 1231.96 280.153 L 1231.64 279.274 L 1233.2 278.624 L 1235.28 276.066 C 1234.48 267.378 1228.19 257.34 1224.38 249.425 z"/>
<path transform="translate(0,0)" fill="rgb(1,0,17)" d="M 1276.8 330.241 C 1277.88 331.222 1279.14 332.224 1280.12 333.322 C 1274.37 339.432 1268.71 343.239 1261.15 346.839 L 1259.04 342.622 C 1266.1 339.364 1271.42 336.02 1276.8 330.241 z"/>
<path transform="translate(0,0)" fill="rgb(1,0,6)" d="M 1003.17 370.228 C 1002.95 369.626 1002.72 369.027 1002.51 368.423 C 1001.07 364.321 1000.25 358.94 1002.76 355.057 C 1004.01 353.126 1006.07 351.879 1008.26 351.327 C 1016.22 349.327 1024.19 353.348 1030.95 357.103 L 1026.67 360.501 C 1022.47 358.145 1016.43 354.591 1011.39 356.105 C 1008.71 356.912 1006.69 358.923 1005.57 361.45 C 1004.37 364.169 1003.66 367.311 1003.17 370.228 z"/>
<path transform="translate(0,0)" fill="rgb(204,146,140)" d="M 1003.17 370.228 C 1003.66 367.311 1004.37 364.169 1005.57 361.45 C 1006.69 358.923 1008.71 356.912 1011.39 356.105 C 1016.43 354.591 1022.47 358.145 1026.67 360.501 L 1030 364.291 C 1027.41 363.067 1025.32 361.515 1022.42 361.725 C 1022.19 364.066 1022.66 364.27 1024.12 366.02 C 1029.6 372.636 1038.85 372.845 1044.16 379.871 C 1031.63 378.131 1022.35 360.587 1009.3 361.784 C 1007.75 361.926 1007.6 362.622 1006.66 363.698 C 1006.44 366.494 1006.66 368.335 1007.47 371.029 C 1007.56 371.308 1007.64 371.585 1007.73 371.863 C 1005.38 371.97 1005.11 371.402 1003.17 370.228 z"/>
<path transform="translate(0,0)" fill="rgb(1,0,6)" d="M 1261.15 346.839 C 1248.65 351.211 1230.5 356.891 1217.29 356.052 C 1215.47 355.937 1215.72 355.634 1214.61 354.344 C 1216.01 352.608 1216.33 352.482 1218.39 351.864 C 1231.71 347.874 1245.11 347.387 1259.04 342.622 L 1261.15 346.839 z"/>
<path transform="translate(0,0)" fill="rgb(10,10,36)" d="M 1224.38 249.425 C 1226.92 249.959 1229.42 250.458 1231.91 251.221 C 1236.62 258.168 1244.92 269.738 1243.68 278.57 C 1243.31 281.24 1242.81 281.688 1240.97 283.463 L 1237.93 284.112 C 1235.66 282.503 1234.68 280.916 1233.2 278.624 L 1235.28 276.066 C 1234.48 267.378 1228.19 257.34 1224.38 249.425 z"/>
<path transform="translate(0,0)" fill="rgb(10,10,36)" d="M 1030.95 357.103 C 1037.86 362.367 1052.8 373.478 1054.87 382.17 C 1055.47 384.697 1053.97 385.825 1052.57 387.685 L 1050.67 387.916 C 1048.58 385.24 1046.75 382.042 1044.16 379.871 C 1038.85 372.845 1029.6 372.636 1024.12 366.02 C 1022.66 364.27 1022.19 364.066 1022.42 361.725 C 1025.32 361.515 1027.41 363.067 1030 364.291 L 1026.67 360.501 L 1030.95 357.103 z"/>
<path transform="translate(0,0)" fill="rgb(154,171,168)" d="M 828.401 915.131 C 843.534 929.73 861.161 942.144 878.48 953.985 C 877.582 956.71 876.878 959.489 876.139 962.26 L 879.884 965.902 C 870.302 999.089 860.781 1032.66 854.079 1066.56 C 837.759 1149.09 832.73 1234.58 828.971 1318.47 C 828.265 1364.86 820.108 1415.6 801.368 1458.27 C 798.922 1463.84 796.357 1471.49 792.279 1476.02 L 787.91 1474.88 C 787.841 1474.39 787.853 1473.88 787.704 1473.4 C 787.522 1472.83 787.187 1472.31 786.929 1471.76 C 780.736 1452.13 775.299 1431.23 767.259 1412.31 C 764.503 1405.83 759.846 1400.21 757.206 1393.76 C 757.025 1393.32 756.853 1392.87 756.677 1392.43 L 758.031 1392.49 L 759.494 1394.46 L 761.946 1393.92 L 759.374 1391.22 L 762.442 1390.91 C 772.148 1380.5 769.993 1345.39 769.989 1331.55 C 769.981 1298.64 768.437 1265.47 769.554 1232.61 A 1080.38 1080.38 0 0 1 797.128 1021.83 C 805.853 985.816 817.125 950.411 828.401 915.131 z"/>
<path transform="translate(0,0)" fill="rgb(1,0,6)" d="M 876.139 962.26 L 879.884 965.902 C 870.302 999.089 860.781 1032.66 854.079 1066.56 C 837.759 1149.09 832.73 1234.58 828.971 1318.47 C 828.265 1364.86 820.108 1415.6 801.368 1458.27 C 798.922 1463.84 796.357 1471.49 792.279 1476.02 L 787.91 1474.88 C 787.841 1474.39 787.853 1473.88 787.704 1473.4 C 787.522 1472.83 787.187 1472.31 786.929 1471.76 C 780.736 1452.13 775.299 1431.23 767.259 1412.31 C 764.503 1405.83 759.846 1400.21 757.206 1393.76 C 757.025 1393.32 756.853 1392.87 756.677 1392.43 L 758.031 1392.49 L 759.494 1394.46 L 761.946 1393.92 L 759.374 1391.22 L 762.442 1390.91 C 777.224 1413.73 782.104 1441.16 791.681 1466.19 A 348.386 348.386 0 0 0 822.506 1348.64 C 823.68 1335.38 823.127 1321.76 824.882 1308.6 L 825.042 1307.49 C 822.868 1286.51 826.645 1257.6 828.337 1236.25 C 833.094 1176.22 838.997 1115.41 851.286 1056.4 C 857.891 1024.69 867.01 993.329 876.139 962.26 z"/>
<path transform="translate(0,0)" fill="rgb(229,230,220)" d="M 946.007 513.554 L 950.875 511.356 C 953.239 513.263 954.546 513.721 957.424 514.308 C 976.402 509.345 1001.03 513.849 1017.94 523.725 C 1027.81 529.489 1034.68 537.634 1037.55 548.775 C 1040.44 560.024 1039.1 571.971 1037.64 583.338 L 1036.29 587.566 C 1023.78 627.301 992.026 658.377 964.87 688.708 A 894.438 894.438 0 0 0 923.294 737.675 C 915.49 747.546 905.84 757.891 900.314 769.239 C 896.248 777.59 901.221 787.501 903.925 795.58 C 890.141 800.887 875.834 804.881 862.027 810.198 C 828.377 823.157 793.169 840.379 763.823 861.395 C 754.583 851.995 745.477 842.296 737.406 831.861 C 729.328 821.415 720.582 809.079 722.74 795.186 C 724.409 784.45 729.687 773.725 733.837 763.76 C 769.597 677.884 868.917 577.057 944.392 522.949 C 944.364 519.088 943.912 516.88 946.007 513.554 z"/>
<path transform="translate(0,0)" fill="rgb(1,0,17)" d="M 946.007 513.554 L 950.875 511.356 C 953.239 513.263 954.546 513.721 957.424 514.308 C 953.035 517.126 948.637 519.916 944.392 522.949 C 944.364 519.088 943.912 516.88 946.007 513.554 z"/>
<path transform="translate(0,0)" fill="rgb(1,0,6)" d="M 768.799 769.323 L 769.425 766.345 C 776.139 760.522 789.626 758.83 798.279 757.636 L 799.142 758.954 C 797.995 759.361 796.128 759.651 795.419 760.644 C 798.358 761.304 801.46 761.827 804.31 762.781 C 795.547 764.148 786.742 765.388 778.013 766.957 C 774.26 766.293 772.108 767.661 768.799 769.323 z"/>
<path transform="translate(0,0)" fill="rgb(10,10,36)" d="M 798.279 757.636 C 818.344 751.938 863.719 758.891 881.961 769.318 C 884.331 770.673 885.61 771.533 886.502 774.12 C 882.956 778.718 872.197 779.288 866.718 779.994 C 836.019 783.946 795.48 787.702 768.799 769.323 C 772.108 767.661 774.26 766.293 778.013 766.957 C 786.742 765.388 795.547 764.148 804.31 762.781 C 801.46 761.827 798.358 761.304 795.419 760.644 C 796.128 759.651 797.995 759.361 799.142 758.954 L 798.279 757.636 z"/>
<path transform="translate(0,0)" fill="rgb(229,230,220)" d="M 804.31 762.781 C 828.488 763.718 852.671 764.693 875.904 772.032 C 853.554 774.463 796.209 779.018 778.013 766.957 C 786.742 765.388 795.547 764.148 804.31 762.781 z"/>
<path transform="translate(0,0)" fill="rgb(154,171,168)" d="M 1065 762.565 C 1068.6 763.421 1072.14 764.424 1075.87 764.457 C 1100.54 768.914 1124.81 773.781 1150 774.182 C 1147.96 783.217 1145.93 792.212 1143.37 801.116 L 1133.37 801.086 L 1132.26 803.375 L 1127.41 804.837 C 1118.49 802.924 1108.66 802.598 1099.56 802.822 L 1099.07 798.825 C 1098.75 797.504 1098.79 797.342 1098.11 796.058 C 1095.91 791.92 1091.9 791.178 1087.74 789.921 C 1088.48 792.121 1089.5 794.456 1089.99 796.713 C 1092.62 797.687 1093.05 797.818 1094.76 800.007 C 1095.15 802.979 1094.84 805.121 1094.22 807.99 L 1098.28 810.482 C 1111.75 812.413 1125.3 815.336 1138.96 814.871 C 1134.45 828.998 1129.49 845.783 1128.72 860.616 C 1128.53 864.129 1128.91 867.69 1127.35 870.923 C 1118.45 866.882 1110.36 863.126 1100.67 861.24 C 1109.26 867.432 1118.21 871.089 1128.05 874.858 C 1136.33 928.032 1171.12 990.43 1194.45 1039.1 C 1206.37 1063.97 1216.91 1089.3 1227.38 1114.81 L 1350.87 1416.18 L 1393.04 1523.8 C 1400.07 1542.01 1406.33 1560.78 1414.28 1578.61 C 1380.07 1591.94 1344.43 1605.02 1308.82 1614.1 L 1302.78 1602.29 C 1301.61 1603.89 1300.82 1605.03 1299.21 1606.22 A 201.08 201.08 0 0 0 1302.37 1614.27 C 1300.99 1616.25 1299.42 1616.6 1297.06 1616.87 C 1295.78 1617.01 1295.19 1616.95 1293.98 1616.91 C 1293.09 1615.89 1292.36 1615.06 1291.7 1613.86 L 1288.72 1615.14 C 1282.44 1606.86 1278.01 1596.49 1273.12 1587.34 C 1261.3 1565.24 1250.13 1542.64 1237.74 1520.88 C 1222.89 1494.8 1208.63 1468.38 1193.59 1442.42 C 1157.97 1380.89 1121.49 1320 1086.79 1257.92 L 1088.91 1254.9 C 1088.45 1253.95 1088.19 1253.55 1087.88 1252.61 C 1086.51 1248.45 1088.5 1238.89 1090.37 1235.1 L 1091.8 1233.37 C 1087.18 1219.33 1117.09 1112.71 1123.61 1092.72 C 1122.18 1092.6 1120.57 1092.07 1119.19 1091.73 L 1120.28 1090.78 L 1118.72 1090.01 C 1108.74 1091.5 1099.63 1095.48 1090.49 1099.58 C 1095.59 1091.55 1105.07 1083.79 1108.22 1075.01 L 1107.46 1073.41 C 1095.65 1087.45 1083.66 1102.36 1075.85 1119.09 C 1063.11 1146.39 1055.72 1177.76 1046.67 1206.51 A 15139.4 15139.4 0 0 1 993.599 1372.28 C 981.135 1410.93 968.095 1448.89 953.394 1486.75 C 945.706 1506.55 937.772 1528.47 926.525 1546.52 C 923.543 1551.31 919.895 1556.07 915.104 1559.16 C 895.678 1571.71 829.281 1587.17 802.626 1595.4 C 762.444 1607.81 723.443 1622.62 684.207 1637.65 C 666.374 1644.48 647.267 1650.45 630.18 1658.93 C 617.683 1644.94 608.595 1629.64 597.467 1614.74 C 589.525 1601.32 582.707 1587.51 575.334 1573.81 L 574.513 1574.14 C 569.681 1568.35 566.184 1555.81 564.199 1548.5 L 566.351 1547.87 C 565.295 1546.41 564.572 1545 563.764 1543.39 L 564.614 1541.33 C 569.091 1538.45 575.178 1538.54 580.208 1536.64 A 1305.82 1305.82 0 0 1 743.717 1485.95 C 759.599 1482.2 776.056 1477.7 792.279 1476.02 C 796.357 1471.49 798.922 1463.84 801.368 1458.27 C 820.108 1415.6 828.265 1364.86 828.971 1318.47 C 832.73 1234.58 837.759 1149.09 854.079 1066.56 C 860.781 1032.66 870.302 999.089 879.884 965.902 L 881.975 959.905 C 884.27 958.055 884.122 957.863 887.023 958.069 C 888.687 959.999 889.332 961.097 889.871 963.595 C 891.842 966.527 890.28 968.038 891.939 971.211 L 893.833 963.791 C 910.115 974.22 926.357 983.012 943.202 992.352 C 944.886 992.018 946.207 990.717 947.575 989.707 C 959.415 979.417 986.79 955.433 991.691 940.982 L 990.669 939.209 C 992.516 939.028 993.519 936.969 994.7 935.568 C 988.486 923.982 978.575 913.524 970.319 903.331 C 984.29 877.26 1003.92 854.569 1021.52 830.938 A 571.492 571.492 0 0 0 1065 762.565 z"/>
<path transform="translate(0,0)" fill="rgb(1,0,6)" d="M 1011.77 910.167 L 1014.92 912.802 C 1011.94 917.32 1009.68 922.218 1007.33 927.078 C 1005.92 925.182 1006.12 924.666 1005.86 922.402 L 1003.75 925.099 L 1002.45 924.587 C 1004.92 919.149 1008.03 914.768 1011.77 910.167 z"/>
<path transform="translate(0,0)" fill="rgb(1,0,17)" d="M 1101.52 1015.29 L 1103.31 1017.69 C 1105.43 1017.5 1105.05 1017.78 1106.89 1016.24 L 1107.65 1016.23 L 1109.02 1020.23 L 1098.24 1033.9 A 923.041 923.041 0 0 0 1101.52 1015.29 z"/>
<path transform="translate(0,0)" fill="rgb(1,0,6)" d="M 1039.53 1058.88 C 1044.9 1053.8 1050.15 1049.38 1056.6 1045.68 C 1051.48 1053.9 1046.61 1060.34 1039.28 1066.7 L 1039.53 1058.88 z"/>
<path transform="translate(0,0)" fill="rgb(1,0,6)" d="M 1099.07 798.825 C 1110.5 799.714 1121.92 800.695 1133.37 801.086 L 1132.26 803.375 L 1127.41 804.837 C 1118.49 802.924 1108.66 802.598 1099.56 802.822 L 1099.07 798.825 z"/>
<path transform="translate(0,0)" fill="rgb(1,0,17)" d="M 1011.77 910.167 C 1014.03 907.388 1014.27 904.727 1017.74 902.896 C 1021.01 902.859 1023.32 904.575 1026.04 906.166 L 1022.97 908.745 L 1020 907.007 L 1019.32 907.901 C 1021.1 918.405 1020.8 926.891 1017.95 937.219 C 1017.9 934.446 1018.59 931.768 1016.64 929.711 L 1015.14 927.212 L 1013.76 925.715 C 1015 921.802 1016.71 916.721 1014.92 912.802 L 1011.77 910.167 z"/>
<path transform="translate(0,0)" fill="rgb(10,10,36)" d="M 1134.5 1039.94 C 1139.74 1032.93 1148.16 1018.34 1155.99 1014.66 C 1157.66 1020.14 1148.23 1036.15 1145.5 1041.48 C 1141.82 1041.36 1138.12 1040.55 1134.5 1039.94 z"/>
<path transform="translate(0,0)" fill="rgb(1,0,17)" d="M 951.04 1110.99 C 960.994 1105.23 972.238 1101.34 982.641 1096.39 C 1003.43 1086.51 1022.04 1073.79 1039.53 1058.88 L 1039.28 1066.7 C 1036.53 1070.03 1031.45 1073.27 1027.96 1075.85 C 1005.97 1092.12 978.539 1107.43 951.04 1110.99 z"/>
<path transform="translate(0,0)" fill="rgb(1,0,6)" d="M 1016.64 929.711 C 1018.59 931.768 1017.9 934.446 1017.95 937.219 C 1013.75 964.876 982.024 997.695 960.469 1013.4 C 947.415 1022.91 913.205 1041.34 897.049 1039.25 C 894.507 1038.92 892.844 1037.79 890.779 1036.37 C 898.08 1037.14 904.543 1034.79 911.415 1032.66 C 923.801 1027.77 936.203 1022.45 947.663 1015.62 C 975.064 999.274 1006.62 966.779 1014.41 934.817 C 1014.83 933.088 1014.94 932.054 1015.96 930.531 C 1016.15 930.235 1016.41 929.984 1016.64 929.711 z"/>
<path transform="translate(0,0)" fill="rgb(1,0,6)" d="M 1094.22 807.99 L 1098.28 810.482 C 1097.54 819.998 1096.14 830.27 1097.03 839.777 C 1101.86 891.823 1128.87 940.014 1118.27 993.583 C 1116.44 1002.78 1113.86 1012.14 1109.02 1020.23 L 1107.65 1016.23 C 1120.76 972.154 1114.13 934.802 1102.72 891.328 C 1098.75 876.202 1094.38 861.146 1092.92 845.514 C 1091.74 832.797 1092.72 820.613 1094.22 807.99 z"/>
<path transform="translate(0,0)" fill="rgb(46,31,55)" d="M 1134.5 1039.94 C 1138.12 1040.55 1141.82 1041.36 1145.5 1041.48 C 1138.04 1057.87 1128.33 1075.4 1123.61 1092.72 C 1122.18 1092.6 1120.57 1092.07 1119.19 1091.73 L 1120.28 1090.78 L 1118.72 1090.01 C 1108.74 1091.5 1099.63 1095.48 1090.49 1099.58 C 1095.59 1091.55 1105.07 1083.79 1108.22 1075.01 L 1107.46 1073.41 C 1114.85 1061.7 1125.62 1050.63 1134.5 1039.94 z"/>
<path transform="translate(0,0)" fill="url(#Gradient8)" d="M 1026.04 906.166 C 1050.17 924.271 1066.78 966.936 1070.9 995.795 C 1074.18 1018.75 1071.59 1049.87 1057.12 1068.94 C 1032.07 1101.96 971.003 1129.29 930.921 1136.31 C 931.233 1136.11 931.541 1135.91 931.857 1135.71 C 942.118 1129.38 954.836 1126.58 965.979 1122.01 C 990.351 1112.02 1034.8 1088.02 1049.96 1066.79 C 1055.39 1059.17 1058.34 1049.75 1060.56 1040.74 C 1069.21 1005.49 1058.25 962.004 1039.74 931.509 A 143.076 143.076 0 0 0 1022.97 908.745 L 1026.04 906.166 z"/>
<path transform="translate(0,0)" fill="rgb(1,0,6)" d="M 1085.54 797.85 C 1080.2 797.027 1072.43 796.095 1068.37 792.361 L 1068.84 790.954 C 1073.37 789.843 1078.28 794.977 1083.92 793.947 C 1085.79 793.605 1086.68 791.414 1087.74 789.921 C 1088.48 792.121 1089.5 794.456 1089.99 796.713 C 1092.62 797.687 1093.05 797.818 1094.76 800.007 C 1095.15 802.979 1094.84 805.121 1094.22 807.99 C 1092.72 820.613 1091.74 832.797 1092.92 845.514 C 1094.38 861.146 1098.75 876.202 1102.72 891.328 C 1114.13 934.802 1120.76 972.154 1107.65 1016.23 L 1106.89 1016.24 C 1105.05 1017.78 1105.43 1017.5 1103.31 1017.69 L 1101.52 1015.29 C 1105.75 984.634 1104.63 951.88 1098.79 921.547 C 1089.31 872.281 1074.76 851.972 1085.54 797.85 z"/>
<path transform="translate(0,0)" fill="url(#Gradient9)" d="M 1089.99 796.713 C 1092.62 797.687 1093.05 797.818 1094.76 800.007 C 1095.15 802.979 1094.84 805.121 1094.22 807.99 C 1092.72 820.613 1091.74 832.797 1092.92 845.514 C 1094.38 861.146 1098.75 876.202 1102.72 891.328 C 1114.13 934.802 1120.76 972.154 1107.65 1016.23 L 1106.89 1016.24 C 1110.87 984.158 1110.32 953.566 1104.12 921.791 C 1094.27 871.341 1080.15 852.887 1089.99 796.713 z"/>
<path transform="translate(0,0)" fill="rgb(154,171,168)" d="M 1091.8 1233.37 C 1099.85 1244.16 1106.28 1256.92 1113.13 1268.51 L 1158.23 1345.65 C 1208.19 1430.26 1259.88 1513.73 1302.78 1602.29 C 1301.61 1603.89 1300.82 1605.03 1299.21 1606.22 A 201.08 201.08 0 0 0 1302.37 1614.27 C 1300.99 1616.25 1299.42 1616.6 1297.06 1616.87 C 1295.78 1617.01 1295.19 1616.95 1293.98 1616.91 C 1293.09 1615.89 1292.36 1615.06 1291.7 1613.86 L 1288.72 1615.14 C 1282.44 1606.86 1278.01 1596.49 1273.12 1587.34 C 1261.3 1565.24 1250.13 1542.64 1237.74 1520.88 C 1222.89 1494.8 1208.63 1468.38 1193.59 1442.42 C 1157.97 1380.89 1121.49 1320 1086.79 1257.92 L 1088.91 1254.9 C 1088.45 1253.95 1088.19 1253.55 1087.88 1252.61 C 1086.51 1248.45 1088.5 1238.89 1090.37 1235.1 L 1091.8 1233.37 z"/>
<path transform="translate(0,0)" fill="rgb(1,0,6)" d="M 1088.91 1254.9 C 1098.81 1270.63 1107.67 1286.94 1117.06 1302.97 L 1161.46 1378.34 C 1206.98 1455.82 1252.3 1532.99 1291.7 1613.86 L 1288.72 1615.14 C 1282.44 1606.86 1278.01 1596.49 1273.12 1587.34 C 1261.3 1565.24 1250.13 1542.64 1237.74 1520.88 C 1222.89 1494.8 1208.63 1468.38 1193.59 1442.42 C 1157.97 1380.89 1121.49 1320 1086.79 1257.92 L 1088.91 1254.9 z"/>
<path transform="translate(0,0)" fill="rgb(1,0,6)" d="M 1091.8 1233.37 C 1099.85 1244.16 1106.28 1256.92 1113.13 1268.51 L 1158.23 1345.65 C 1208.19 1430.26 1259.88 1513.73 1302.78 1602.29 C 1301.61 1603.89 1300.82 1605.03 1299.21 1606.22 C 1290.28 1590.71 1283.11 1573.93 1274.64 1558.11 A 3971.35 3971.35 0 0 0 1206.71 1436.01 L 1128.42 1303.53 C 1115.32 1280.95 1101.83 1258.57 1090.37 1235.1 L 1091.8 1233.37 z"/>
<path transform="translate(0,0)" fill="rgb(1,0,6)" d="M 1014.92 912.802 C 1016.71 916.721 1015 921.802 1013.76 925.715 L 1015.14 927.212 L 1016.64 929.711 C 1016.41 929.984 1016.15 930.235 1015.96 930.531 C 1014.94 932.054 1014.83 933.088 1014.41 934.817 C 1006.62 966.779 975.064 999.274 947.663 1015.62 C 936.203 1022.45 923.801 1027.77 911.415 1032.66 C 904.543 1034.79 898.08 1037.14 890.779 1036.37 L 889.399 1036.34 L 886.877 1033.44 C 883.435 1033.33 880.087 1033.24 876.652 1033.53 C 852.962 1128.17 848.58 1227.34 839.229 1324.1 C 836.314 1354.26 836.653 1385.34 830.365 1415.02 C 825.445 1438.24 816.571 1471.28 797.351 1486.67 C 768.51 1489.36 739.88 1498.82 712.077 1506.57 C 683.936 1514.43 655.293 1522 627.548 1531.13 C 607.185 1537.83 587.627 1547.27 566.342 1550.81 A 1800.74 1800.74 0 0 1 575.334 1573.81 L 574.513 1574.14 C 569.681 1568.35 566.184 1555.81 564.199 1548.5 L 566.351 1547.87 C 565.295 1546.41 564.572 1545 563.764 1543.39 L 564.614 1541.33 C 569.091 1538.45 575.178 1538.54 580.208 1536.64 A 1305.82 1305.82 0 0 1 743.717 1485.95 C 759.599 1482.2 776.056 1477.7 792.279 1476.02 C 796.357 1471.49 798.922 1463.84 801.368 1458.27 C 820.108 1415.6 828.265 1364.86 828.971 1318.47 C 832.73 1234.58 837.759 1149.09 854.079 1066.56 C 860.781 1032.66 870.302 999.089 879.884 965.902 L 881.975 959.905 C 884.27 958.055 884.122 957.863 887.023 958.069 C 888.687 959.999 889.332 961.097 889.871 963.595 C 891.842 966.527 890.28 968.038 891.939 971.211 L 893.833 963.791 C 910.115 974.22 926.357 983.012 943.202 992.352 C 944.886 992.018 946.207 990.717 947.575 989.707 C 959.415 979.417 986.79 955.433 991.691 940.982 L 990.669 939.209 C 992.516 939.028 993.519 936.969 994.7 935.568 C 997.87 934.519 1000.54 927.69 1002.45 924.587 L 1003.75 925.099 L 1005.86 922.402 C 1006.12 924.666 1005.92 925.182 1007.33 927.078 C 1009.68 922.218 1011.94 917.32 1014.92 912.802 z"/>
<path transform="translate(0,0)" fill="rgb(154,160,166)" d="M 886.877 1033.44 C 894.239 1032.4 901.571 1030.67 908.858 1029.18 L 911.415 1032.66 C 904.543 1034.79 898.08 1037.14 890.779 1036.37 L 889.399 1036.34 L 886.877 1033.44 z"/>
<path transform="translate(0,0)" fill="rgb(154,171,168)" d="M 1015.14 927.212 L 1016.64 929.711 C 1016.41 929.984 1016.15 930.235 1015.96 930.531 C 1014.94 932.054 1014.83 933.088 1014.41 934.817 C 1006.62 966.779 975.064 999.274 947.663 1015.62 C 936.203 1022.45 923.801 1027.77 911.415 1032.66 L 908.858 1029.18 A 166.021 166.021 0 0 0 930.793 1019.79 C 967.369 1000.57 1002.59 967.55 1015.14 927.212 z"/>
<path transform="translate(0,0)" fill="rgb(154,171,168)" d="M 1014.92 912.802 C 1016.71 916.721 1015 921.802 1013.76 925.715 C 994.428 968.444 959.102 1006.07 914.421 1022.7 C 901.928 1027.35 889.409 1029.13 876.163 1029.63 L 872.358 1029.72 L 875.217 1012.18 L 879.631 1013.85 C 882.724 999.229 887.017 985.291 891.939 971.211 L 893.833 963.791 C 910.115 974.22 926.357 983.012 943.202 992.352 C 944.886 992.018 946.207 990.717 947.575 989.707 C 959.415 979.417 986.79 955.433 991.691 940.982 L 990.669 939.209 C 992.516 939.028 993.519 936.969 994.7 935.568 C 997.87 934.519 1000.54 927.69 1002.45 924.587 L 1003.75 925.099 L 1005.86 922.402 C 1006.12 924.666 1005.92 925.182 1007.33 927.078 C 1009.68 922.218 1011.94 917.32 1014.92 912.802 z"/>
<path transform="translate(0,0)" fill="rgb(1,0,17)" d="M 922.273 1006.31 C 925.976 1006.58 929.342 1006.59 932.703 1008.28 C 917.743 1016.49 903.879 1022.16 886.986 1024.99 C 882.86 1025.68 877.719 1025.12 876.163 1029.63 L 872.358 1029.72 L 875.217 1012.18 L 879.631 1013.85 C 879.51 1016.05 879.183 1015.85 880.552 1017.8 C 892.1 1021.06 912.03 1011.07 922.273 1006.31 z"/>
<path transform="translate(0,0)" fill="url(#Gradient10)" d="M 1002.45 924.587 L 1003.75 925.099 L 1005.86 922.402 C 1006.12 924.666 1005.92 925.182 1007.33 927.078 C 991.83 962.011 963.865 987.294 932.703 1008.28 C 929.342 1006.59 925.976 1006.58 922.273 1006.31 A 575.239 575.239 0 0 0 943.202 992.352 C 944.886 992.018 946.207 990.717 947.575 989.707 C 959.415 979.417 986.79 955.433 991.691 940.982 L 990.669 939.209 C 992.516 939.028 993.519 936.969 994.7 935.568 C 997.87 934.519 1000.54 927.69 1002.45 924.587 z"/>
<path transform="translate(0,0)" fill="rgb(154,171,168)" d="M 891.939 971.211 L 893.833 963.791 C 910.115 974.22 926.357 983.012 943.202 992.352 A 575.239 575.239 0 0 1 922.273 1006.31 C 912.03 1011.07 892.1 1021.06 880.552 1017.8 C 879.183 1015.85 879.51 1016.05 879.631 1013.85 C 882.724 999.229 887.017 985.291 891.939 971.211 z"/>
<path transform="translate(0,0)" fill="rgb(154,171,168)" d="M 879.884 965.902 L 881.975 959.905 C 884.27 958.055 884.122 957.863 887.023 958.069 C 888.687 959.999 889.332 961.097 889.871 963.595 C 891.842 966.527 890.28 968.038 891.939 971.211 C 887.017 985.291 882.724 999.229 879.631 1013.85 L 875.217 1012.18 L 872.358 1029.72 C 849.339 1122.33 843.595 1219.32 835.11 1314.11 C 832.224 1346.36 832.271 1379.46 826.09 1411.29 C 821.908 1432.83 813.17 1465.55 797.09 1481.37 C 740.367 1491.93 683.416 1507.85 628.629 1526.03 C 607.76 1532.96 587.194 1540.84 566.351 1547.87 C 565.295 1546.41 564.572 1545 563.764 1543.39 L 564.614 1541.33 C 569.091 1538.45 575.178 1538.54 580.208 1536.64 A 1305.82 1305.82 0 0 1 743.717 1485.95 C 759.599 1482.2 776.056 1477.7 792.279 1476.02 C 796.357 1471.49 798.922 1463.84 801.368 1458.27 C 820.108 1415.6 828.265 1364.86 828.971 1318.47 C 832.73 1234.58 837.759 1149.09 854.079 1066.56 C 860.781 1032.66 870.302 999.089 879.884 965.902 z"/>
<path transform="translate(0,0)" fill="rgb(1,0,6)" d="M 889.871 963.595 C 891.842 966.527 890.28 968.038 891.939 971.211 C 887.017 985.291 882.724 999.229 879.631 1013.85 L 875.217 1012.18 C 879.318 996.329 882.592 978.346 889.871 963.595 z"/>
</svg>