<svg version="1.1" xmlns="http://www.w3.org/2000/svg" style="display: block;" viewBox="0 0 2048 2048" width="1024" height="1024">
<defs>
	<linearGradient id="Gradient1" gradientUnits="userSpaceOnUse" x1="1319.07" y1="1096.65" x2="1318.65" y2="1089.61">
		<stop class="stop0" offset="0" stop-opacity="1" stop-color="rgb(12,0,2)"/>
		<stop class="stop1" offset="1" stop-opacity="1" stop-color="rgb(35,0,10)"/>
	</linearGradient>
	<linearGradient id="Gradient2" gradientUnits="userSpaceOnUse" x1="482.273" y1="617.286" x2="482.809" y2="604.791">
		<stop class="stop0" offset="0" stop-opacity="1" stop-color="rgb(6,0,0)"/>
		<stop class="stop1" offset="1" stop-opacity="1" stop-color="rgb(30,0,12)"/>
	</linearGradient>
	<linearGradient id="Gradient3" gradientUnits="userSpaceOnUse" x1="196.992" y1="1661.4" x2="184.554" y2="1637.74">
		<stop class="stop0" offset="0" stop-opacity="1" stop-color="rgb(6,0,2)"/>
		<stop class="stop1" offset="1" stop-opacity="1" stop-color="rgb(28,0,7)"/>
	</linearGradient>
	<linearGradient id="Gradient4" gradientUnits="userSpaceOnUse" x1="1130.62" y1="1408.77" x2="1133.19" y2="1364.4">
		<stop class="stop0" offset="0" stop-opacity="1" stop-color="rgb(211,171,200)"/>
		<stop class="stop1" offset="1" stop-opacity="1" stop-color="rgb(255,177,210)"/>
	</linearGradient>
	<linearGradient id="Gradient5" gradientUnits="userSpaceOnUse" x1="1149.88" y1="1273.74" x2="59.8384" y2="1053.75">
		<stop class="stop0" offset="0" stop-opacity="1" stop-color="rgb(0,0,0)"/>
		<stop class="stop1" offset="1" stop-opacity="1" stop-color="rgb(24,0,10)"/>
	</linearGradient>
	<linearGradient id="Gradient6" gradientUnits="userSpaceOnUse" x1="810.089" y1="1192.05" x2="1157.78" y2="1145.39">
		<stop class="stop0" offset="0" stop-opacity="1" stop-color="rgb(95,86,102)"/>
		<stop class="stop1" offset="1" stop-opacity="1" stop-color="rgb(125,125,135)"/>
	</linearGradient>
	<linearGradient id="Gradient7" gradientUnits="userSpaceOnUse" x1="1492.56" y1="1729.39" x2="1492.19" y2="1739.55">
		<stop class="stop0" offset="0" stop-opacity="1" stop-color="rgb(24,0,7)"/>
		<stop class="stop1" offset="1" stop-opacity="1" stop-color="rgb(39,0,15)"/>
	</linearGradient>
</defs>
<path transform="translate(0,0)" fill="rgb(139,139,146)" d="M 0 0 L 327.052 0 L 333.224 0 L 484.142 0 L 489.956 0 L 521.499 0 L 527.631 0 L 564.315 0 L 565.803 0 L 570.872 0 L 581.818 0 L 589.002 0 L 741.115 0 L 747.653 0 L 787.903 0 L 795.37 0 L 998.278 0 L 1004.6 0 L 1054.99 0 L 1055.67 0 L 1354.18 0 L 1361.82 0 L 1442.25 0 L 1449.95 0 L 1492.77 0 L 1499.93 0 L 1648.6 0 L 1655.95 0 L 1823.71 0 L 1830.08 0 L 1925.19 0 L 1932.82 0 L 2048 0 L 2048 1318.64 L 2048 1326.31 L 2048 2048 L 1517.61 2048 L 1508.87 2048 L 504.732 2048 L 494.236 2048 L 377.864 2048 L 370.522 2048 L 334.498 2048 L 326.978 2048 L 209.636 2048 L 199.81 2048 L 0 2048 L 0 657.73 L 0 649.379 L 0 0 z"/>
<path transform="translate(0,0)" fill="rgb(6,0,1)" d="M 418.596 714.352 L 419.505 714.252 C 428.406 713.347 445.446 712.333 452.589 718.19 L 451.599 719.065 C 445.543 720.377 439.446 719.53 433.336 719.02 C 419.908 718.687 406.518 720.32 393.182 721.676 C 401.661 717.769 409.337 715.562 418.596 714.352 z"/>
<path transform="translate(0,0)" fill="rgb(6,0,1)" d="M 1906.45 1506.38 C 1917.09 1506.24 1953.12 1507.38 1960.61 1512.81 C 1958.11 1514.38 1953.94 1513.9 1950.93 1513.99 C 1936.16 1513.96 1909.52 1514.16 1895.98 1509.85 L 1895.75 1508.61 C 1899.35 1507.08 1902.57 1506.74 1906.45 1506.38 z"/>
<path transform="translate(0,0)" fill="rgb(6,0,1)" d="M 660.982 658.356 C 679.059 658.025 695.978 663.291 713.305 667.761 C 705.536 668.063 697.998 667.757 690.246 667.189 C 679.59 666.297 647.023 667.237 640.559 665.13 L 640.531 663.904 C 647.254 660.556 653.608 659.166 660.982 658.356 z"/>
<path transform="translate(0,0)" fill="rgb(6,0,1)" d="M 181.585 1420.42 C 187.161 1420.18 196.428 1419.38 201.227 1422.5 C 203.535 1423.99 203.853 1424.62 204.545 1427.09 C 202.857 1428.7 202.679 1428.12 200.387 1427.97 C 185.544 1427.05 171.521 1428.02 156.756 1429.42 C 146.881 1430.3 137.007 1432.44 127.183 1433.88 C 145.036 1426.01 162.12 1421.87 181.585 1420.42 z"/>
<path transform="translate(0,0)" fill="rgb(6,0,1)" d="M 1949.95 1901.45 C 1950.45 1901.45 1950.91 1901.74 1951.37 1901.92 C 1937.88 1909.58 1893.35 1922.52 1877.96 1924.28 L 1876.01 1922.98 L 1876.25 1921.39 C 1892.09 1911.17 1931.45 1903.74 1949.95 1901.45 z"/>
<path transform="translate(0,0)" fill="url(#Gradient1)" d="M 1306.3 1089.4 C 1327.57 1086.25 1356.55 1088.86 1376.64 1096.67 C 1360.76 1097.81 1343.85 1096.02 1327.88 1095.67 A 440.361 440.361 0 0 0 1282.96 1098.5 C 1277.99 1099.06 1269.73 1101.8 1265.21 1100.55 C 1265.38 1100.28 1265.51 1099.98 1265.71 1099.74 C 1270.55 1093.95 1298.52 1090 1306.3 1089.4 z"/>
<path transform="translate(0,0)" fill="rgb(6,0,1)" d="M 295.643 571.427 C 308.112 570.77 337.841 570.241 347.679 578.785 L 346.12 579.485 L 346.372 578.193 L 345.878 578.035 L 344.606 579.631 C 334.685 580.079 324.433 578.591 314.495 578.181 C 304.219 577.757 294.003 578.493 283.761 579.228 C 265.669 581.002 247.908 584.944 230.19 588.869 C 250.323 576.266 272.447 573.453 295.643 571.427 z"/>
<path transform="translate(0,0)" fill="url(#Gradient2)" d="M 479.063 605.413 C 504.418 603.393 530.256 604.985 554.695 612.201 C 527.704 612.77 501.269 610.047 474.243 612.804 C 451.377 613.975 428.593 617.912 406.048 621.735 C 428.604 611.42 454.532 607.779 479.063 605.413 z"/>
<path transform="translate(0,0)" fill="rgb(6,0,1)" d="M 237.543 806.416 A 179.31 179.31 0 0 1 301.099 812.484 C 286.456 813.911 271.151 812.242 256.378 812.506 C 234.508 812.896 212.882 815.48 191.24 818.496 C 172.965 821.462 154.634 824.091 136.719 828.845 C 166.34 814.429 204.969 808.686 237.543 806.416 z"/>
<path transform="translate(0,0)" fill="rgb(6,0,1)" d="M 855.64 815.429 C 879.852 813.485 906.861 814.288 930.947 817.472 C 914.407 821.755 895.09 820.508 878.026 820.944 A 848.706 848.706 0 0 0 830.429 823.409 C 806.15 825.297 781.198 828.317 756.855 827.631 C 788.918 819.863 822.785 817.415 855.64 815.429 z"/>
<path transform="translate(0,0)" fill="url(#Gradient3)" d="M 136.408 1706.44 C 153.534 1676.17 181.683 1646.38 209.189 1625.59 C 214.106 1621.87 220.188 1616.81 226.139 1615 C 228.361 1614.33 228.702 1614.39 230.635 1615.42 C 232.126 1622.24 222.917 1633.36 219.657 1639.2 C 219.568 1636.66 219.96 1634.46 220.363 1631.97 C 218.787 1633.53 217.137 1634.91 215.429 1636.31 L 218.795 1629.49 L 218.503 1629.01 C 192.275 1643.05 158.728 1685.23 136.408 1706.44 z"/>
<path transform="translate(0,0)" fill="rgb(6,0,1)" d="M 784.475 1450.85 C 803.997 1451.45 841.044 1449.14 857.908 1459.09 L 861.359 1456.63 C 864.073 1459.2 866.279 1461.48 868.263 1464.66 L 867.11 1464.68 C 857.766 1464.75 817.876 1460.13 812.628 1462.51 C 832.999 1468.2 855.493 1465.74 876.124 1470.92 C 861.486 1473.44 847.869 1472.76 833.154 1471.28 C 823.998 1469.98 784.221 1458.13 776.13 1454.36 C 778.477 1452.44 781.628 1451.77 784.475 1450.85 z"/>
<path transform="translate(0,0)" fill="rgb(246,113,114)" d="M 784.475 1450.85 C 803.997 1451.45 841.044 1449.14 857.908 1459.09 A 3717.51 3717.51 0 0 1 806.549 1455.74 C 796.489 1455.05 786.212 1453.79 776.13 1454.36 C 778.477 1452.44 781.628 1451.77 784.475 1450.85 z"/>
<path transform="translate(0,0)" fill="rgb(6,0,1)" d="M 1883.09 1876.09 C 1885.15 1876.14 1886.56 1876.5 1888.53 1877.04 C 1890.55 1879.01 1890.59 1879.01 1890.95 1881.81 C 1886.84 1894.28 1852.19 1928.05 1840.8 1935.35 C 1850.27 1915.99 1868.39 1899.5 1882.69 1883.54 C 1860.56 1890.53 1839.69 1902.93 1819.51 1914.11 C 1797.72 1925.74 1776.71 1939.09 1755.23 1951.32 C 1789.64 1920.04 1838.38 1889.15 1883.09 1876.09 z"/>
<path transform="translate(0,0)" fill="rgb(6,0,1)" d="M 212.675 1656.11 C 224.634 1648.13 254.448 1626.01 269.08 1628.28 C 271.239 1628.62 271.382 1628.98 272.549 1630.65 C 272.402 1633.2 271.644 1634.95 270.227 1637.02 C 262.687 1648.05 253.425 1656.53 246.691 1668.46 C 270.457 1657.66 306.113 1645.57 331.406 1640.32 C 311.279 1651.02 279.092 1666.39 257.264 1671.01 C 252.617 1671.99 248.746 1672.41 244.598 1669.77 C 243.495 1667.69 242.996 1666.87 243.163 1664.43 C 243.848 1654.4 256.407 1641.71 263.468 1635.18 C 248.952 1641 216.864 1663.05 206.937 1664.26 L 205.922 1662.96 C 205.962 1654.12 211.217 1643.96 215.429 1636.31 C 217.137 1634.91 218.787 1633.53 220.363 1631.97 C 219.96 1634.46 219.568 1636.66 219.657 1639.2 C 218.773 1644.54 214.93 1651.07 212.675 1656.11 z"/>
<path transform="translate(0,0)" fill="rgb(6,0,1)" d="M 1497.14 1199.71 C 1496.82 1199.15 1496.48 1198.6 1496.17 1198.04 C 1495.14 1196.2 1494.69 1194.67 1495.18 1192.53 C 1496.22 1188.04 1500.27 1185.13 1504.16 1183.21 C 1511.49 1179.59 1516.95 1179.43 1524.58 1182.16 C 1532.88 1185.14 1540.84 1190.37 1548.59 1194.6 A 913.158 913.158 0 0 0 1582.98 1212.55 L 1582.07 1212.2 C 1583.08 1213.36 1583.7 1214.63 1585.22 1215.02 L 1584.4 1213.5 L 1585.5 1215.08 L 1586.03 1215.31 C 1562.88 1214.33 1523.58 1183.89 1509.51 1189.84 L 1509.38 1191.07 C 1516.62 1196.26 1525.48 1202.53 1528.21 1211.4 C 1527.83 1212.71 1528 1213.51 1526.65 1214.16 C 1520.22 1217.29 1489.81 1209.59 1480.22 1209.1 C 1470.09 1208.58 1460.03 1210.61 1449.96 1210.16 C 1464.64 1201.79 1476.26 1201.42 1492.65 1201.96 L 1497.14 1199.71 z"/>
<path transform="translate(0,0)" fill="rgb(175,154,198)" d="M 1497.14 1199.71 L 1499.94 1199.24 L 1501.36 1195.71 C 1506.01 1195.49 1516.18 1204.64 1519.99 1207.5 A 374.099 374.099 0 0 0 1492.65 1201.96 L 1497.14 1199.71 z"/>
<path transform="translate(0,0)" fill="rgb(6,0,1)" d="M 664.69 1408.61 C 669.318 1407.57 673.538 1406.26 677.935 1404.48 C 684.486 1415.32 691.56 1426.57 700.681 1435.45 C 705.068 1439.73 709.977 1443.21 715.76 1445.31 C 734.282 1452.04 764.559 1451.05 784.475 1450.85 C 781.628 1451.77 778.477 1452.44 776.13 1454.36 C 784.221 1458.13 823.998 1469.98 833.154 1471.28 C 831.272 1474.07 831.129 1474.54 828.046 1475.78 C 842.055 1478.22 856.977 1475.95 870.788 1479.04 C 872.81 1479.49 873.918 1479.46 875.022 1481.22 C 869.487 1484.24 847.764 1482.36 840.456 1482.22 A 307.505 307.505 0 0 1 854.467 1486.92 C 860.935 1489.33 870.013 1493.12 872.839 1499.89 C 873.682 1501.91 873.565 1500.99 872.686 1503.22 C 858.503 1504.56 833.98 1498.24 819.005 1495.82 A 792.704 792.704 0 0 0 779.171 1490.43 A 181.714 181.714 0 0 1 800.297 1508.32 C 805.119 1513.08 812.442 1519.9 812.46 1527.06 C 811.234 1529.11 811.372 1529.27 809.124 1529.97 C 803.151 1528.28 797.612 1525.17 792.073 1522.39 C 782.105 1517.38 772.28 1512.2 762.861 1506.21 C 745.104 1494.92 728.354 1480.95 707.187 1476.9 C 687.852 1473.2 665.603 1473.95 645.882 1473.89 C 640.896 1473.88 627.1 1475.73 623.132 1474.34 C 622.546 1474.13 622.13 1473.6 621.629 1473.24 C 621.474 1470.97 622.001 1469.77 622.983 1467.79 C 623.8 1466.15 624.253 1465.16 624.717 1463.34 C 607.809 1462.63 590.933 1461.54 574.086 1463.57 C 572.546 1465.55 571.062 1467.95 568.692 1468.97 C 567.288 1469.57 566.928 1468.9 565.743 1468.24 C 565.36 1466.83 565.213 1465.7 565.464 1464.25 C 566.44 1458.6 568.963 1456.23 573.489 1453.01 L 572.856 1455.61 L 573.52 1456.25 C 578.567 1454.61 583.26 1452.08 588.28 1450.47 C 593.058 1448.93 598.393 1448.32 602.886 1450.57 C 610.525 1450.36 641.774 1449.09 647.183 1450.68 C 649.513 1451.3 651.657 1451.8 653.831 1452.88 C 662.573 1450.08 680.324 1452.53 685.452 1448.88 C 686.819 1447.9 686.664 1446.81 687.021 1445.29 C 684.193 1434 671.337 1418.47 664.69 1408.61 z"/>
<path transform="translate(0,0)" fill="rgb(246,113,114)" d="M 602.886 1450.57 C 610.525 1450.36 641.774 1449.09 647.183 1450.68 C 640.911 1453.14 634.507 1455.38 628.75 1458.93 C 611.801 1455.31 593.18 1454.81 576.194 1458.25 C 585.01 1452.24 592.533 1451.19 602.886 1450.57 z"/>
<path transform="translate(0,0)" fill="rgb(246,113,114)" d="M 759.975 1474 C 782.037 1471.49 846.366 1482.54 864.5 1496.9 C 850.391 1495.04 836.634 1490.17 822.489 1488.06 C 806.349 1485.64 788.473 1486.59 772.829 1482.14 C 768.458 1480.9 763.682 1476.64 759.975 1474 z"/>
<path transform="translate(0,0)" fill="rgb(246,113,114)" d="M 664.69 1408.61 C 669.318 1407.57 673.538 1406.26 677.935 1404.48 C 684.486 1415.32 691.56 1426.57 700.681 1435.45 C 705.068 1439.73 709.977 1443.21 715.76 1445.31 C 734.282 1452.04 764.559 1451.05 784.475 1450.85 C 781.628 1451.77 778.477 1452.44 776.13 1454.36 C 784.221 1458.13 823.998 1469.98 833.154 1471.28 C 831.272 1474.07 831.129 1474.54 828.046 1475.78 C 801.485 1469.77 776.014 1465.14 748.837 1470.27 C 763.636 1492.19 790.038 1503.97 807.541 1523.8 C 794.552 1515.89 780.624 1509.34 767.902 1501 C 756.016 1493.22 745.071 1483.8 732.584 1476.97 A 75.8684 75.8684 0 0 0 712.211 1469.17 C 691.277 1464.54 645.145 1464.65 624.648 1470.65 C 633.563 1461.93 642.114 1456.91 653.831 1452.88 C 662.573 1450.08 680.324 1452.53 685.452 1448.88 C 686.819 1447.9 686.664 1446.81 687.021 1445.29 C 684.193 1434 671.337 1418.47 664.69 1408.61 z"/>
<path transform="translate(0,0)" fill="rgb(6,0,1)" d="M 1105.89 1336.2 C 1128.84 1335.22 1128.83 1348.91 1143.92 1352.22 C 1150.38 1353.63 1158.97 1343.15 1164.49 1340.02 C 1169.41 1337.22 1175.62 1336 1181.1 1337.77 C 1188.65 1340.22 1194.19 1346.96 1197.85 1353.64 C 1213.87 1355.37 1232.14 1358.4 1246.02 1367.15 C 1250.88 1370.21 1256.52 1375.19 1257.52 1381.18 C 1258.15 1384.91 1256.77 1388.16 1254.39 1390.97 C 1237.66 1410.7 1184.29 1416.9 1159.75 1418.18 C 1123.38 1422.12 1039.48 1418.32 1009.59 1398.98 C 1005.18 1396.13 999.262 1391.03 998.619 1385.41 C 998.318 1382.79 999.394 1380.12 1000.96 1378.07 C 1009.62 1366.75 1031.99 1363.91 1045.19 1362.57 C 1052.85 1350.73 1060.78 1344.44 1075.23 1348.07 C 1077.35 1348.61 1080.68 1349.79 1082.87 1349.25 C 1088.74 1347.81 1091.19 1339.57 1105.89 1336.2 z"/>
<path transform="translate(0,0)" fill="rgb(232,140,163)" d="M 1138.67 1362.88 C 1143.37 1360.79 1147.16 1358.67 1152.37 1360.19 C 1153.67 1361.66 1154.54 1362.46 1154.13 1364.65 C 1153.71 1366.91 1152.54 1367.66 1150.85 1368.88 C 1147.36 1367.82 1144.19 1366.26 1140.81 1364.93 L 1138.67 1362.88 z"/>
<path transform="translate(0,0)" fill="rgb(232,140,163)" d="M 1099.18 1378.46 C 1103.78 1379.86 1109.02 1382.62 1112.62 1385.78 C 1113.1 1388.17 1113.03 1388.02 1111.73 1390.09 C 1108.11 1389.96 1104.31 1390.01 1100.72 1389.56 C 1097.93 1389.21 1097.02 1388.79 1095.24 1386.64 C 1095.18 1383.28 1097.31 1381.06 1099.18 1378.46 z"/>
<path transform="translate(0,0)" fill="rgb(232,140,163)" d="M 1042.2 1377.14 C 1048.92 1376.57 1055.64 1377.35 1061.03 1381.85 C 1062.77 1383.3 1062.77 1383.53 1062.88 1385.66 C 1059.94 1387.47 1058.15 1386.86 1054.76 1386.71 C 1046.49 1385.86 1038.6 1384.91 1030.47 1383.16 C 1034.27 1380.86 1038.18 1379.01 1042.2 1377.14 z"/>
<path transform="translate(0,0)" fill="rgb(247,202,218)" d="M 1012.53 1391.02 C 1010.27 1389.42 1009.12 1388.35 1007.61 1385.94 C 1007.49 1383.05 1007.35 1382.33 1009.25 1379.95 C 1013.77 1374.32 1029.71 1371.06 1036.84 1370.68 C 1039.12 1370.56 1041.08 1370.37 1042.84 1371.94 C 1038.51 1376.8 1030.12 1376.67 1025.86 1382.01 C 1025.49 1382.48 1025.14 1382.98 1024.78 1383.46 L 1024.11 1385.13 C 1018.41 1386.62 1016.39 1386.26 1012.53 1391.02 z"/>
<path transform="translate(0,0)" fill="rgb(232,140,163)" d="M 1087.21 1365.63 L 1089.47 1365.93 C 1091.07 1367.26 1092.5 1368.6 1093.33 1370.57 C 1095.32 1375.34 1094.4 1382.77 1092.45 1387.42 C 1089.25 1388.44 1085.57 1387.6 1082.24 1387.24 C 1077.82 1387.16 1074.08 1387.65 1070.49 1384.65 C 1069.95 1383.03 1069.36 1382.38 1069.94 1380.66 C 1072.25 1373.78 1081.21 1369.01 1087.21 1365.63 z"/>
<path transform="translate(0,0)" fill="rgb(232,140,163)" d="M 1063.02 1355.22 C 1067.31 1354.81 1071.67 1354.77 1075.98 1354.61 C 1078.69 1355.93 1081.52 1356.9 1083.22 1359.52 C 1081.74 1363.15 1073.74 1368.36 1070.49 1371.7 L 1067.42 1375.06 C 1062.05 1376.56 1055.34 1373.71 1050.13 1372.21 A 151.476 151.476 0 0 1 1051.56 1367.61 C 1053.89 1360.62 1056.45 1358.49 1063.02 1355.22 z"/>
<path transform="translate(0,0)" fill="rgb(232,140,163)" d="M 1169.99 1345.3 C 1172.37 1344.67 1175.15 1344.63 1177.59 1344.9 C 1183.96 1345.62 1188.29 1352.44 1191.94 1357.04 C 1188.39 1359.65 1185.15 1362.35 1182.19 1365.61 C 1175.55 1362.85 1169.25 1362.76 1162.36 1361.29 C 1160.93 1360.13 1160.1 1359.38 1159.48 1357.55 C 1158.35 1354.16 1159.08 1351.86 1160.82 1348.92 C 1163.71 1346.56 1166.39 1346.07 1169.99 1345.3 z"/>
<path transform="translate(0,0)" fill="rgb(232,140,163)" d="M 1164.6 1368.86 C 1165.46 1368.9 1165.7 1368.89 1166.65 1369.04 C 1173.75 1370.14 1186.92 1373.87 1190.35 1380.7 C 1191.59 1383.16 1191.15 1383.68 1190.2 1386.05 C 1187.13 1388.74 1182.95 1388.44 1179.07 1388.72 C 1173.82 1388.96 1168.54 1389.6 1163.3 1390.08 C 1161.02 1383.68 1159.34 1377.31 1154.32 1372.45 C 1154.07 1372.21 1153.81 1371.97 1153.56 1371.73 L 1154.01 1371.08 L 1156.19 1372.75 C 1158.97 1373.13 1162.17 1370.36 1164.6 1368.86 z"/>
<path transform="translate(0,0)" fill="rgb(232,140,163)" d="M 1196.94 1360.99 C 1200.96 1360.84 1205.45 1360.92 1209.27 1362.27 C 1218.13 1365.41 1221.45 1375.56 1225.12 1383.32 C 1220.89 1384.45 1216.58 1385 1212.25 1385.62 C 1208.72 1386.02 1205.43 1386.53 1201.92 1385.88 C 1198.88 1383.72 1197.27 1380.81 1195.28 1377.72 C 1193.13 1374.39 1190.8 1372.76 1187.51 1370.65 L 1186.24 1369.85 C 1189.63 1366.55 1193.14 1363.78 1196.94 1360.99 z"/>
<path transform="translate(0,0)" fill="rgb(232,140,163)" d="M 1088.46 1352.73 C 1094.06 1347.23 1100.36 1343.17 1108.51 1343.46 C 1121 1343.89 1130.73 1354.39 1138.67 1362.88 L 1140.81 1364.93 C 1133.97 1364.72 1125.67 1364.15 1120.39 1369.36 C 1118.17 1371.56 1117.1 1374.39 1116.64 1377.44 L 1118.49 1377.01 C 1120.62 1376.51 1122.51 1375.75 1124.54 1374.95 C 1130.17 1372.73 1139.05 1370.8 1144.85 1373.6 C 1151.65 1376.9 1153.87 1383.84 1156.15 1390.5 C 1143.85 1390.88 1131.12 1392 1118.94 1389.9 C 1117.85 1383.67 1123.58 1384.56 1116.58 1378.4 A 1042.02 1042.02 0 0 1 1101.87 1371.23 C 1098.53 1362.87 1094.92 1358.85 1088.46 1352.73 z"/>
<path transform="translate(0,0)" fill="url(#Gradient4)" d="M 1222.01 1365.81 C 1229.08 1368.16 1244.99 1372.07 1247.79 1380.04 C 1248.63 1382.4 1248.01 1384.26 1246.77 1386.31 C 1239.34 1398.62 1191.04 1405.92 1177.25 1407.46 C 1135.11 1412.18 1049.06 1411.58 1012.53 1391.02 C 1016.39 1386.26 1018.41 1386.62 1024.11 1385.13 L 1024.78 1383.46 C 1026.09 1386.41 1026.42 1387.57 1029.5 1388.77 C 1039.62 1392.71 1052.89 1392.81 1063.63 1393.81 C 1108.85 1398.03 1152.09 1399.21 1197.28 1394.16 C 1206.77 1393.1 1218.7 1392.7 1227.39 1388.52 C 1230.05 1387.24 1230.85 1386.17 1232.24 1383.63 C 1232.46 1376.25 1226.45 1371.14 1222.01 1365.81 z"/>
<path transform="translate(0,0)" fill="rgb(101,93,109)" d="M 302.205 1355.53 C 262.085 1351.36 199.465 1347.43 164.905 1329.33 C 158.292 1325.87 152.055 1321.37 149.97 1313.84 C 148.913 1310.02 149.416 1306.23 151.459 1302.84 C 157.854 1292.23 176.918 1286.85 188.215 1283.96 C 238.207 1271.18 337.022 1271.7 381.881 1298.51 C 397.271 1298.8 412.846 1297.81 428.244 1297.45 L 504.483 1295.99 C 522.12 1295.62 541.846 1297.63 559.205 1294.58 C 571.425 1304.32 581.039 1314.94 589.773 1327.92 C 607.687 1354.55 621.294 1395.58 653.766 1406.74 C 662.016 1418.53 669.561 1430.83 677.242 1443 C 652.191 1443.05 626.692 1443.2 601.692 1444.72 C 601.683 1444.65 601.694 1444.57 601.665 1444.5 C 599.919 1440.54 591.03 1437.64 587.075 1435.95 C 535.969 1414.19 477.515 1412.09 422.718 1407.08 C 392.734 1404.33 358.043 1401.92 330.591 1388.92 C 315.499 1381.76 307.746 1370.94 302.205 1355.53 z"/>
<path transform="translate(0,0)" fill="url(#Gradient5)" d="M 468.741 935.267 C 486.82 931.486 504.462 926.051 522.418 921.766 A 1345.49 1345.49 0 0 1 623.783 901.261 C 644.58 897.799 665.422 894.036 686.472 892.513 C 748.878 887.999 814.072 900.442 866.993 934.822 C 887.592 948.204 906.25 964.469 923.587 981.819 C 937.291 995.534 949.269 1012.38 966.348 1022.14 C 985.36 1033 1005.73 1035.73 1027.12 1038.13 C 1071.32 1043.08 1108.23 1053.07 1138.56 1087.75 C 1152.05 1103.17 1163.29 1123.08 1167.47 1143.27 C 1172.99 1169.97 1161.64 1203.27 1148.41 1226.18 C 1150.18 1252.22 1156.55 1293.06 1138.77 1314.78 C 1137.12 1316.79 1134.49 1319.41 1131.84 1319.84 C 1129.26 1320.27 1127.46 1319.22 1125.64 1317.53 C 1120.99 1313.18 1117.39 1306.48 1114.11 1301.07 C 1104.47 1285.18 1095.25 1266.61 1080.73 1254.6 C 1056.61 1249.75 1029.55 1248.01 1005.28 1252.81 C 981.22 1257.56 958.235 1268.66 935.803 1278.29 C 880.983 1301.83 828.363 1319.57 767.856 1319.02 C 771.366 1325.06 774.887 1331.08 778.67 1336.96 C 806.733 1336.81 834.765 1335.98 862.841 1335.93 C 873.533 1335.92 885.173 1334.92 895.737 1336.27 C 899.82 1336.79 905.417 1337.59 908.378 1340.48 C 902.314 1342.69 894.797 1341.61 888.346 1342.34 L 889.448 1343.66 L 891.199 1343.61 C 899.28 1343.47 925.398 1349.89 931.28 1354.89 C 931.538 1355.11 931.749 1355.38 931.983 1355.62 C 925.728 1359.75 906.107 1352.33 897.989 1353.7 L 899.236 1354.07 C 914.074 1357.35 932.17 1358.69 944.847 1367.68 C 956.059 1374.31 965.582 1383.81 969.125 1396.69 C 971.749 1406.24 970.161 1415.44 965.109 1423.89 C 953.278 1443.67 926.909 1456.77 905.148 1461.66 C 897.781 1463.32 871.773 1462.89 868.263 1464.66 C 866.279 1461.48 864.073 1459.2 861.359 1456.63 L 857.908 1459.09 C 841.044 1449.14 803.997 1451.45 784.475 1450.85 C 764.559 1451.05 734.282 1452.04 715.76 1445.31 C 709.977 1443.21 705.068 1439.73 700.681 1435.45 C 691.56 1426.57 684.486 1415.32 677.935 1404.48 C 673.538 1406.26 669.318 1407.57 664.69 1408.61 C 671.337 1418.47 684.193 1434 687.021 1445.29 C 686.664 1446.81 686.819 1447.9 685.452 1448.88 C 680.324 1452.53 662.573 1450.08 653.831 1452.88 C 651.657 1451.8 649.513 1451.3 647.183 1450.68 C 641.774 1449.09 610.525 1450.36 602.886 1450.57 C 598.393 1448.32 593.058 1448.93 588.28 1450.47 C 583.26 1452.08 578.567 1454.61 573.52 1456.25 L 572.856 1455.61 L 573.489 1453.01 C 582.296 1447.05 591.409 1445.82 601.692 1444.72 C 626.692 1443.2 652.191 1443.05 677.242 1443 C 669.561 1430.83 662.016 1418.53 653.766 1406.74 C 621.294 1395.58 607.687 1354.55 589.773 1327.92 C 581.039 1314.94 571.425 1304.32 559.205 1294.58 C 540.008 1277.77 518.328 1263.16 497.612 1248.29 A 3119.09 3119.09 0 0 1 400.773 1177.24 C 378.491 1180.34 354.989 1179.62 332.507 1180.23 A 2954.55 2954.55 0 0 1 134.413 1177.67 C 116.378 1176.72 48.5432 1173.28 37.9782 1161.54 C 37.3486 1159.14 37.1169 1157.95 38.2938 1155.53 C 46.6205 1138.44 236.869 1085.27 265.264 1077.75 C 230.7 1048.94 157.022 974.986 142.775 935.035 C 141.044 930.179 139.773 924.506 142.429 919.749 C 143.633 917.591 146.281 915.838 148.652 915.406 C 157.385 913.814 208.918 954.6 218.939 962.244 C 219.864 958.352 220.926 954.378 222.404 950.655 C 224.089 946.413 227.267 942.314 231.581 940.532 C 242.895 935.858 258.899 949.586 268.14 954.933 C 273.364 957.956 278.85 960.445 284.352 962.915 C 309.379 958.875 334.521 964.367 359.539 960.898 C 370.671 956.575 384.303 954.778 396.049 952.124 A 3901.91 3901.91 0 0 0 468.741 935.267 z"/>
<path transform="translate(0,0)" fill="rgb(232,140,163)" d="M 871.605 1342.47 C 878.212 1342.36 884.724 1343.09 891.289 1343.75 C 872 1350.47 828.363 1349.9 807.614 1348.87 C 800.616 1347.6 794.301 1345.73 787.609 1343.35 C 815.384 1344.46 843.794 1342.89 871.605 1342.47 z"/>
<path transform="translate(0,0)" fill="rgb(139,139,146)" d="M 688.262 1315.03 C 705.378 1317.05 722.95 1317.29 740.17 1318.42 C 742.962 1322.44 745.915 1326.35 748.79 1330.31 C 744.496 1330.87 740.077 1330.9 735.751 1331.11 C 718.059 1332.29 700.5 1334.24 682.889 1336.26 C 685.507 1329.37 687.481 1322.37 688.262 1315.03 z"/>
<path transform="translate(0,0)" fill="rgb(219,223,227)" d="M 1093.78 1215.63 C 1107.76 1223.43 1124.48 1231.64 1140.9 1231.08 C 1143.11 1249.8 1145.01 1268.41 1142.95 1287.24 C 1133.63 1260.83 1118.07 1243.42 1099.08 1223.45 C 1100.93 1227.73 1102.89 1231.59 1105.43 1235.5 C 1116.99 1250.98 1125.3 1266.74 1134.5 1283.56 C 1136.11 1286.51 1139.21 1290.54 1140.05 1293.76 C 1140.73 1296.4 1138.48 1301.16 1137.49 1303.6 C 1136.96 1299.74 1136.61 1295.4 1135.33 1291.71 C 1132.28 1282.86 1126.27 1274.48 1121.34 1266.6 C 1111.13 1250.27 1100.36 1233.84 1093.78 1215.63 z"/>
<path transform="translate(0,0)" fill="rgb(101,93,109)" d="M 586.776 914.308 L 589.902 914.154 C 589.533 917.781 585.888 921.836 584.256 925.192 C 581.493 930.871 584.526 937.278 586.565 942.677 C 585.393 948.923 576.232 955.529 573.113 961.618 C 569.801 968.082 571.486 976.585 568.193 983.362 L 566.604 983.757 L 562.619 980.818 C 556.324 975.866 551.128 970.496 549.815 962.334 C 548.126 951.827 554.129 940.447 560.067 932.083 C 567.416 921.73 574.315 916.444 586.776 914.308 z"/>
<path transform="translate(0,0)" fill="rgb(101,93,109)" d="M 270.825 1082.34 C 278.589 1088.99 286.316 1095.48 294.608 1101.49 L 297.534 1103.64 C 280.513 1110.44 256.622 1112.71 238.348 1116.05 A 5205.55 5205.55 0 0 1 112.607 1138.16 L 107.309 1135.58 C 105.627 1135.84 104.136 1135.82 102.439 1135.72 C 114.138 1129.01 132.783 1124.57 145.989 1120.27 A 3100.08 3100.08 0 0 1 270.825 1082.34 z"/>
<path transform="translate(0,0)" fill="rgb(30,0,10)" d="M 294.608 1101.49 L 297.534 1103.64 C 280.513 1110.44 256.622 1112.71 238.348 1116.05 A 5205.55 5205.55 0 0 1 112.607 1138.16 L 107.309 1135.58 C 119.556 1129.75 281.56 1100.41 294.608 1101.49 z"/>
<path transform="translate(0,0)" fill="rgb(101,93,109)" d="M 290.811 968.125 L 357.291 966.827 C 351.835 979.378 348.93 991.191 347.99 1004.84 C 347.621 1006.93 347.101 1008.34 346.085 1010.2 C 349.292 1014.38 351.767 1033.19 353.966 1040 A 135.159 135.159 0 0 0 364.335 1064.32 C 347.496 1057.01 290.17 1020.73 275.688 1008.88 C 269.814 1004.07 264.376 998.559 263.82 990.536 C 263.456 985.286 265.605 979.575 269.046 975.639 C 273.922 970.06 280.283 968.386 287.398 967.888 L 290.811 968.125 z"/>
<path transform="translate(0,0)" fill="rgb(30,0,10)" d="M 287.398 967.888 L 290.811 968.125 C 290.057 970.755 289.84 972.033 291.227 974.529 C 297.249 985.357 336.164 1002.34 347.99 1004.84 C 347.621 1006.93 347.101 1008.34 346.085 1010.2 C 341.218 1010.14 334.182 1006.37 329.67 1004.5 C 318.693 999.93 289.298 987.669 285.86 974.846 C 284.98 971.568 285.949 970.649 287.398 967.888 z"/>
<path transform="translate(0,0)" fill="rgb(101,93,109)" d="M 290.811 968.125 L 357.291 966.827 C 351.835 979.378 348.93 991.191 347.99 1004.84 C 336.164 1002.34 297.249 985.357 291.227 974.529 C 289.84 972.033 290.057 970.755 290.811 968.125 z"/>
<path transform="translate(0,0)" fill="rgb(101,93,109)" d="M 435.621 1146.77 C 415.861 1133.31 392.962 1122.8 372.321 1110.49 C 330.968 1085.81 248.748 1028.93 229.939 984.586 C 225.871 974.996 223.722 963.538 228.052 953.645 C 229.302 950.788 231.234 948.216 234.452 947.474 C 243.632 945.355 263.109 960.103 271.552 964.873 C 267.95 967.297 264.832 969.959 262.456 973.647 C 258.602 979.628 256.791 986.603 258.347 993.638 C 263.486 1016.89 347.712 1061.17 370.672 1075.88 C 384.489 1091.91 397.76 1106.87 414.849 1119.58 C 426.745 1132.85 428.922 1125.38 435.621 1146.77 z"/>
<path transform="translate(0,0)" fill="rgb(101,93,109)" d="M 474.837 942.903 C 486.658 935.455 510.174 932.295 524.167 928.44 C 509.908 949.168 477.771 968.846 469.53 988.106 C 468.915 1002.43 452.958 1013.46 461.966 1031.87 C 463.505 1035.02 464.623 1037.1 464.484 1040.65 L 463.66 1040.57 L 463.095 1043.13 L 462.617 1041.07 C 462.722 1043.79 463.305 1043.89 464.477 1046.15 C 464.583 1046.35 464.605 1046.59 464.669 1046.81 C 461.815 1044.69 458.941 1042.46 455.461 1041.5 C 453.682 1041.02 451.916 1040.52 450.146 1040 C 451.101 1038.3 451.334 1037.52 451.192 1035.57 L 449.156 1034.11 C 443.894 1034.94 441.881 1035.98 438.744 1040.32 C 427.744 1055.51 424.278 1083.01 425.072 1101.26 C 420.34 1098.36 416.025 1094.43 411.693 1090.96 C 409.416 1088.77 407.114 1086.44 405.153 1083.96 C 396.547 1073.05 393.672 1060.06 395.28 1046.45 C 400.033 1006.19 444.918 966.785 474.837 942.903 z"/>
<path transform="translate(0,0)" fill="rgb(6,0,1)" d="M 469.53 988.106 C 468.915 1002.43 452.958 1013.46 461.966 1031.87 C 463.505 1035.02 464.623 1037.1 464.484 1040.65 L 463.66 1040.57 L 463.095 1043.13 L 462.617 1041.07 C 462.722 1043.79 463.305 1043.89 464.477 1046.15 C 464.583 1046.35 464.605 1046.59 464.669 1046.81 C 461.815 1044.69 458.941 1042.46 455.461 1041.5 C 453.682 1041.02 451.916 1040.52 450.146 1040 C 451.101 1038.3 451.334 1037.52 451.192 1035.57 L 449.156 1034.11 C 443.17 1029.16 441.354 1023.36 438.997 1016.26 C 448.368 1023.52 456.553 1033.24 464.93 1041.68 C 462.777 1037.3 460.233 1032.7 459.178 1027.91 C 455.896 1013 462.061 1000.46 469.53 988.106 z"/>
<path transform="translate(0,0)" fill="rgb(101,93,109)" d="M 546.465 976.584 C 548.243 978.623 550.276 980.674 551.843 982.867 C 534.422 996.876 524.861 1021.8 522.41 1043.6 C 520.814 1057.8 522.926 1070.36 530.063 1082.91 C 522.762 1109.12 529.054 1135.04 542.165 1158.41 C 559.845 1189.92 583.595 1208.41 615.58 1223.91 C 593.542 1224.02 583.101 1224.08 563.86 1211.63 C 533.316 1189.56 502.939 1159.65 495.681 1121.06 C 493.71 1110.57 492.363 1096.83 499.01 1087.74 C 501.695 1084.08 504.774 1084.53 509.017 1083.89 L 509.092 1082.56 A 534.499 534.499 0 0 1 498.595 1071.78 C 491.392 1060.31 489.367 1048.81 492.486 1035.49 C 497.381 1014.58 512.113 994.567 530.467 983.521 C 535.576 980.445 540.797 978.39 546.465 976.584 z"/>
<path transform="translate(0,0)" fill="rgb(6,0,1)" d="M 359.539 960.898 C 370.671 956.575 384.303 954.778 396.049 952.124 A 3901.91 3901.91 0 0 0 468.741 935.267 C 469.353 938.116 469.132 939.624 471.779 941.328 C 472.511 941.799 474.013 942.503 474.837 942.903 C 444.918 966.785 400.033 1006.19 395.28 1046.45 C 393.672 1060.06 396.547 1073.05 405.153 1083.96 C 407.114 1086.44 409.416 1088.77 411.693 1090.96 C 416.025 1094.43 420.34 1098.36 425.072 1101.26 C 425.837 1104.33 426.225 1106.18 425.357 1109.35 C 427.101 1113.89 427.727 1118.44 428.477 1123.22 C 425.696 1121.02 422.889 1118.39 419.723 1116.8 L 420.155 1118.75 C 422.89 1120.93 425.56 1123.06 428.026 1125.54 L 427.67 1126.46 C 423.357 1124.4 419.699 1121.48 415.88 1118.64 L 414.849 1119.58 C 397.76 1106.87 384.489 1091.91 370.672 1075.88 C 370.616 1075.46 370.579 1075.04 370.506 1074.62 C 369.73 1070.22 368.103 1066.82 364.335 1064.32 A 135.159 135.159 0 0 1 353.966 1040 C 351.767 1033.19 349.292 1014.38 346.085 1010.2 C 347.101 1008.34 347.621 1006.93 347.99 1004.84 C 348.93 991.191 351.835 979.378 357.291 966.827 L 359.539 960.898 z"/>
<path transform="translate(0,0)" fill="rgb(108,97,120)" d="M 411.693 1090.96 C 416.025 1094.43 420.34 1098.36 425.072 1101.26 C 425.837 1104.33 426.225 1106.18 425.357 1109.35 C 427.101 1113.89 427.727 1118.44 428.477 1123.22 C 425.696 1121.02 422.889 1118.39 419.723 1116.8 C 412.296 1110.53 404.874 1104.36 398.597 1096.91 C 400.473 1095.63 401.966 1093.64 403.501 1091.97 L 410.39 1097.85 C 410.63 1095.54 411.225 1093.23 411.693 1090.96 z"/>
<path transform="translate(0,0)" fill="rgb(6,0,1)" d="M 411.693 1090.96 C 416.025 1094.43 420.34 1098.36 425.072 1101.26 C 425.837 1104.33 426.225 1106.18 425.357 1109.35 C 420.143 1105.8 415.294 1101.81 410.39 1097.85 C 410.63 1095.54 411.225 1093.23 411.693 1090.96 z"/>
<path transform="translate(0,0)" fill="rgb(219,223,227)" d="M 367 965.594 C 377.275 962.021 388.427 960.129 399.052 957.803 C 421.647 952.857 444.619 948.508 466.892 942.294 A 186.005 186.005 0 0 0 445.303 958.795 C 420.7 980.341 390.445 1014.61 388.428 1049.08 C 387.483 1065.23 392.85 1079.94 403.501 1091.97 C 401.966 1093.64 400.473 1095.63 398.597 1096.91 C 378.565 1075.97 362.501 1052.01 357.09 1023.06 C 353.38 1003.2 355.397 982.588 367 965.594 z"/>
<path transform="translate(0,0)" fill="rgb(101,93,109)" d="M 148.913 921.5 C 158.295 924.693 207.261 961.599 219.453 970.167 C 220.41 974.411 221.316 978.714 222.566 982.882 C 236.137 1028.11 319.877 1084.93 359.062 1109.22 C 384.52 1125.01 411.191 1139.18 437.491 1153.51 C 446.424 1168.81 454.932 1182.8 468.039 1194.97 C 416.896 1180.65 364.553 1143.34 322.013 1112.3 C 310.288 1103.75 298.062 1095.42 286.884 1086.17 C 245.177 1051.64 203.501 1011.69 170.406 968.806 C 161.218 956.9 146.801 937.392 148.913 921.5 z"/>
<path transform="translate(0,0)" fill="rgb(101,93,109)" d="M 297.534 1103.64 C 326.589 1130.44 363.28 1147.68 394.13 1171.97 C 370.029 1170.5 346.197 1171.98 322.106 1172.2 L 219.412 1172.16 C 163.975 1172.02 106.708 1172.27 52.2547 1160.79 C 58.6969 1160.17 65.2702 1159.77 71.6486 1158.68 C 66.3084 1157.13 60.2598 1158.33 54.7812 1158.82 L 55.8232 1158.61 L 55.0947 1158.37 C 58.2576 1157.88 61.2858 1157.36 64.3601 1156.45 L 63.191 1155.47 C 56.2994 1156.18 49.4198 1157.32 42.5598 1158.3 C 63.1719 1145.83 89.2685 1142.61 112.607 1138.16 A 5205.55 5205.55 0 0 0 238.348 1116.05 C 256.622 1112.71 280.513 1110.44 297.534 1103.64 z"/>
<path transform="translate(0,0)" fill="rgb(30,0,10)" d="M 63.191 1155.47 C 93.312 1149.08 125.311 1147.74 155.965 1144.43 C 195.436 1140.17 265.371 1128.03 303.252 1134.35 A 7950.47 7950.47 0 0 1 122.865 1153.25 C 111.608 1154.36 80.1086 1159.58 71.6486 1158.68 C 66.3084 1157.13 60.2598 1158.33 54.7812 1158.82 L 55.8232 1158.61 L 55.0947 1158.37 C 58.2576 1157.88 61.2858 1157.36 64.3601 1156.45 L 63.191 1155.47 z"/>
<path transform="translate(0,0)" fill="rgb(219,223,227)" d="M 531.235 926.653 A 1425.84 1425.84 0 0 0 564.22 919.021 C 553.714 930.279 542.259 944.887 543.354 961.239 C 543.54 964.014 544.384 966.741 545.172 969.394 C 523.751 974.474 508.792 988.297 497.417 1006.74 C 487.074 1023.51 481.895 1041.07 485.37 1060.73 L 486.194 1058.85 L 486.752 1060.47 C 488.832 1066.38 490.791 1073.53 495.584 1077.77 C 495.999 1078.14 496.405 1078.51 496.823 1078.88 C 499.346 1081.07 501.388 1082.4 504.56 1083.41 L 506.764 1082.74 C 504.399 1079.07 499.324 1076.51 497.947 1072.5 L 498.595 1071.78 A 534.499 534.499 0 0 0 509.092 1082.56 L 509.017 1083.89 C 504.774 1084.53 501.695 1084.08 499.01 1087.74 C 492.363 1096.83 493.71 1110.57 495.681 1121.06 C 502.939 1159.65 533.316 1189.56 563.86 1211.63 C 563.382 1213.15 562.922 1214.11 562.064 1215.48 C 560.839 1217.43 561.287 1216.4 560.761 1218.83 L 561.178 1219.42 C 552.893 1221.35 497.361 1204.25 488.613 1199.37 C 463.944 1185.61 443.66 1154.68 436.084 1127.95 C 429.339 1104.16 431.283 1065.55 444.336 1044.08 C 446.076 1041.22 446.935 1040.73 450.146 1040 C 451.916 1040.52 453.682 1041.02 455.461 1041.5 C 458.941 1042.46 461.815 1044.69 464.669 1046.81 C 466.695 1048.33 468.138 1048.57 470.616 1048.95 L 473.002 1048.16 C 473.916 1045.41 473.194 1044.1 471.979 1041.5 C 466.5 1029.8 461.44 1024.25 465.825 1010.79 C 479.276 969.526 521.505 957.181 531.235 926.653 z"/>
<path transform="translate(0,0)" fill="rgb(6,0,1)" d="M 485.37 1060.73 L 486.194 1058.85 L 486.752 1060.47 C 488.832 1066.38 490.791 1073.53 495.584 1077.77 C 495.999 1078.14 496.405 1078.51 496.823 1078.88 C 499.346 1081.07 501.388 1082.4 504.56 1083.41 L 506.764 1082.74 C 504.399 1079.07 499.324 1076.51 497.947 1072.5 L 498.595 1071.78 A 534.499 534.499 0 0 0 509.092 1082.56 L 509.017 1083.89 C 504.774 1084.53 501.695 1084.08 499.01 1087.74 C 492.363 1096.83 493.71 1110.57 495.681 1121.06 C 502.939 1159.65 533.316 1189.56 563.86 1211.63 C 563.382 1213.15 562.922 1214.11 562.064 1215.48 C 560.839 1217.43 561.287 1216.4 560.761 1218.83 C 554.577 1211.61 545.358 1205.95 537.971 1199.9 C 531.413 1194.53 525.45 1188.16 519.924 1181.75 C 501.467 1160.36 485.26 1132.14 487.814 1102.83 C 488.552 1094.36 491.08 1087.97 497.761 1082.43 C 491.064 1075.62 487.445 1070.13 485.37 1060.73 z"/>
<path transform="translate(0,0)" fill="rgb(101,93,109)" d="M 717.089 1350.66 C 708.021 1349.75 684.787 1349.8 678.782 1345.26 C 679.047 1343.76 678.7 1343.54 679.797 1342.82 C 686.534 1338.39 750.571 1340.01 755.226 1334.95 C 755.752 1334.38 755.882 1333.55 756.21 1332.84 C 755.618 1327.79 752.246 1323.45 749.86 1319.03 C 751.969 1318.03 753.627 1317.77 755.899 1318.64 C 763.636 1321.58 769.43 1336.31 772.616 1343.55 L 773.716 1343.6 L 774.21 1344.81 C 798.416 1357.23 816.43 1356.3 842.646 1356.08 C 861.625 1354.84 879.503 1353.12 898.237 1357.32 L 899.236 1354.07 C 914.074 1357.35 932.17 1358.69 944.847 1367.68 C 956.059 1374.31 965.582 1383.81 969.125 1396.69 C 971.749 1406.24 970.161 1415.44 965.109 1423.89 C 953.278 1443.67 926.909 1456.77 905.148 1461.66 C 897.781 1463.32 871.773 1462.89 868.263 1464.66 C 866.279 1461.48 864.073 1459.2 861.359 1456.63 C 828.94 1430.94 755.776 1452.45 718.155 1436.72 C 704.044 1430.82 690.333 1413.13 684.396 1399.29 C 685.036 1398.05 686.168 1395.95 685.988 1394.51 C 685.529 1390.85 683.312 1386.11 682.188 1382.5 C 679.148 1372.75 676.603 1363.39 675.53 1353.19 C 683.687 1353.32 691.898 1354.42 700.068 1354.74 C 701.811 1353.76 700.971 1354.02 702.849 1353.72 C 707.637 1352.96 712.368 1351.76 717.089 1350.66 z"/>
<path transform="translate(0,0)" fill="rgb(6,0,1)" d="M 717.089 1350.66 C 708.021 1349.75 684.787 1349.8 678.782 1345.26 C 679.047 1343.76 678.7 1343.54 679.797 1342.82 C 686.534 1338.39 750.571 1340.01 755.226 1334.95 C 755.752 1334.38 755.882 1333.55 756.21 1332.84 C 755.618 1327.79 752.246 1323.45 749.86 1319.03 C 751.969 1318.03 753.627 1317.77 755.899 1318.64 C 763.636 1321.58 769.43 1336.31 772.616 1343.55 L 773.716 1343.6 L 774.21 1344.81 C 798.416 1357.23 816.43 1356.3 842.646 1356.08 C 861.625 1354.84 879.503 1353.12 898.237 1357.32 L 899.236 1354.07 C 914.074 1357.35 932.17 1358.69 944.847 1367.68 C 938.27 1370.29 925.613 1365.11 918.075 1364.97 C 907.25 1364.78 896.065 1367.98 885.095 1368.3 L 883.419 1368.35 C 893.57 1369.74 904.227 1370.03 913.88 1373.76 C 920.877 1376.46 925.132 1380.04 928.02 1386.93 C 927.846 1389.45 927.895 1389.28 926.017 1390.98 C 923.054 1391.73 920.786 1391.9 917.748 1391.47 C 909.981 1390.39 901.984 1387.56 894.244 1385.92 C 880.163 1382.94 866.004 1380.74 851.84 1378.21 L 854.847 1380.33 C 860.892 1384.63 873.543 1394.51 874.267 1402.6 C 874.411 1404.21 874.149 1403.91 873.024 1405.4 C 866.081 1407.91 851.63 1399.57 845.128 1396.48 C 799.586 1374.83 749.903 1361.79 700.068 1354.74 C 701.811 1353.76 700.971 1354.02 702.849 1353.72 C 707.637 1352.96 712.368 1351.76 717.089 1350.66 z"/>
<path transform="translate(0,0)" fill="rgb(232,140,163)" d="M 829.48 1366.28 C 857.556 1367.41 900.735 1368.66 922.665 1387.15 C 915.128 1385.74 908.203 1380.95 900.618 1379.21 C 877.78 1373.95 850.704 1376.12 829.48 1366.28 z"/>
<path transform="translate(0,0)" fill="rgb(232,140,163)" d="M 842.646 1356.08 C 861.625 1354.84 879.503 1353.12 898.237 1357.32 C 903.577 1358.51 908.97 1359.58 914.231 1361.08 C 889.639 1362.02 865.209 1360.6 840.635 1359.79 C 838.784 1359.38 837.538 1359.23 835.971 1358.11 L 842.646 1356.08 z"/>
<path transform="translate(0,0)" fill="rgb(246,113,114)" d="M 717.089 1350.66 C 708.021 1349.75 684.787 1349.8 678.782 1345.26 C 679.047 1343.76 678.7 1343.54 679.797 1342.82 C 686.534 1338.39 750.571 1340.01 755.226 1334.95 C 755.752 1334.38 755.882 1333.55 756.21 1332.84 C 755.618 1327.79 752.246 1323.45 749.86 1319.03 C 751.969 1318.03 753.627 1317.77 755.899 1318.64 C 763.636 1321.58 769.43 1336.31 772.616 1343.55 L 773.716 1343.6 L 774.21 1344.81 C 798.416 1357.23 816.43 1356.3 842.646 1356.08 L 835.971 1358.11 C 837.538 1359.23 838.784 1359.38 840.635 1359.79 C 833.725 1359.76 824.071 1358.64 817.563 1361 L 817.257 1362.85 C 822.788 1371.77 841.562 1378.28 850.526 1384.41 C 857.296 1389.04 863.039 1394.31 868.828 1400.1 C 858.047 1395.1 847.785 1389.02 836.897 1384.19 C 799.18 1367.45 758.07 1355.33 717.089 1350.66 z"/>
<path transform="translate(0,0)" fill="url(#Gradient6)" d="M 940.386 1013 C 944.166 1013.72 950.307 1020.27 953.811 1022.62 C 963.58 1029.17 974.677 1035.51 985.857 1039.3 C 999.807 1044.03 1016.24 1044.49 1030.89 1046 C 1072.81 1050.32 1109.98 1063.83 1137.33 1097.32 C 1152.84 1116.31 1163.11 1141.18 1160.54 1166.02 C 1159.38 1177.14 1150.73 1216.26 1141.69 1221.86 C 1126.73 1231.14 1105.33 1210.04 1092.55 1208.26 C 1090.24 1207.94 1089.94 1208.28 1088.19 1209.61 C 1084.02 1227.57 1117.84 1271.59 1126.19 1289.4 C 1130.33 1298.21 1132.23 1306.98 1134.04 1316.48 C 1122.02 1305.84 1106.98 1274.39 1095.98 1259.63 C 1092.71 1255.74 1089.4 1251.6 1084.8 1249.23 C 1075.42 1244.4 1064.46 1243.57 1054.09 1242.96 C 1037.13 1241.96 1019.77 1242.7 1003.1 1246.18 C 980.029 1251 957.797 1261.02 936.094 1269.97 C 909.916 1280.76 884.159 1291.24 856.994 1299.35 C 849.485 1295.16 841.747 1290.79 835.278 1285.08 C 782.157 1238.17 853.952 1143.89 869.617 1093.04 C 876.681 1070.11 877.233 1047.74 875.86 1024.03 C 898.446 1022.63 918.902 1020.55 940.386 1013 z"/>
<path transform="translate(0,0)" fill="rgb(6,0,1)" d="M 1073.12 1147.12 C 1078 1146.66 1082.97 1146.5 1087.51 1148.68 A 22.7041 22.7041 0 0 1 1099.11 1161.85 C 1101.41 1168.45 1101.28 1176.11 1098.17 1182.43 C 1094.83 1189.23 1090.42 1191.46 1083.47 1193.74 C 1077.92 1194.27 1073 1193.56 1068.3 1190.34 C 1061.02 1185.37 1058.57 1177.15 1056.77 1169.02 A 65.3519 65.3519 0 0 1 1058.16 1164.04 C 1060.95 1155.23 1065.04 1151.35 1073.12 1147.12 z"/>
<path transform="translate(0,0)" fill="rgb(246,113,114)" d="M 1076.07 1154.98 C 1077.86 1154.94 1079.74 1154.99 1081.52 1155.26 C 1084.85 1155.77 1087.88 1157.85 1089.8 1160.59 C 1092.6 1164.59 1093 1169.44 1091.9 1174.09 C 1090.26 1181.06 1086.71 1183.87 1080.75 1187.37 C 1075.74 1186.56 1071.01 1184.69 1067.93 1180.42 C 1065.36 1176.84 1064.75 1172.53 1065.65 1168.27 C 1066.97 1162.02 1070.79 1158.18 1076.07 1154.98 z"/>
<path transform="translate(0,0)" fill="rgb(219,223,227)" d="M 697.692 899.447 A 371.824 371.824 0 0 1 737.196 900.472 C 820.935 906.851 884.403 946.299 937.895 1008.72 C 926.744 1012.46 883.516 1024.04 873.973 1019.93 C 871.803 1018.99 873.155 1019 870.744 1019.76 C 869.017 1025.59 870.857 1034.91 870.745 1041.24 C 870.494 1055.42 869.103 1069.55 865.429 1083.27 C 851.73 1134.45 796.5 1203.48 810.661 1257.62 C 816.147 1278.59 831.881 1290.83 849.787 1301.25 C 810.555 1314.69 742.58 1311.41 700.996 1308.83 C 686.909 1307.95 672.462 1306.37 658.555 1303.96 C 651.566 1302.75 644.734 1300.67 637.65 1299.96 C 634.769 1299.67 631.952 1299.36 629.314 1300.75 L 628.979 1302.36 C 636.832 1309.43 671.104 1313.11 682.773 1314.43 C 678.462 1328.32 673.569 1341.79 667.348 1354.94 C 669.731 1369.06 674.285 1382.8 677.769 1396.69 C 674.052 1397.68 670.243 1398.81 666.43 1399.33 C 659.002 1400.37 651.572 1399.91 645.289 1395.42 C 620.877 1377.98 603.351 1327.26 578.978 1302.6 C 549.617 1272.9 513.287 1249.75 479.176 1225.98 C 459.819 1212.5 441.243 1198.26 422.334 1184.18 C 444.057 1194.29 466.334 1201.66 489.141 1208.86 C 539.508 1224.77 587.806 1236.86 641.138 1230.2 C 708.147 1221.83 772.467 1182.85 813.507 1130.04 C 817.302 1124.75 820.776 1119.21 824.15 1113.65 C 842.136 1084.01 855.233 1048.15 846.499 1013.29 C 838.999 983.353 820.745 956.981 793.925 941.296 C 775.413 930.469 755.215 924.475 733.774 924.029 C 729.777 923.946 724.79 923.599 720.962 924.771 C 719.094 925.342 719.734 924.897 718.776 926.574 C 725.506 930.355 739.502 929.628 747.495 930.918 C 766.11 933.921 785.155 943.009 800.167 954.245 A 104.616 104.616 0 0 1 840.906 1024.28 C 845.907 1061.62 826.842 1100.94 804.676 1129.8 C 761.406 1186.14 696.304 1215.03 627.325 1223.83 C 601.742 1212.48 579.883 1197.31 562.184 1175.4 C 547.329 1157.02 529.125 1122.2 532.437 1097.82 C 533.298 1091.48 535.651 1089.11 540.606 1085.27 C 534.087 1075.39 529.276 1066.66 528.796 1054.45 C 527.81 1029.38 539.688 1003.49 556.467 985.433 L 570.465 994.163 C 571.063 1001.63 572.572 1013.73 576.919 1019.9 C 580.374 1024.8 586.601 1028.15 588.429 1034.17 C 588.877 1035.65 584.467 1049.63 586.513 1058.3 C 590.505 1075.22 602.441 1087 616.617 1096 C 615.099 1107.84 615.431 1118.27 620.903 1129.19 C 627.35 1142.06 639.129 1153.17 652.995 1157.43 C 657.169 1158.72 661.588 1158.88 665.495 1156.76 C 665.708 1155.11 666.071 1155.42 664.83 1154.4 C 662.434 1152.43 659.166 1151.62 656.308 1150.49 C 645.31 1146.14 637.429 1140.95 630.434 1131.2 C 625.124 1123.8 620.32 1114.91 622.059 1105.51 C 622.666 1102.24 624.079 1099.1 624.512 1095.79 C 624.769 1093.84 624.617 1092.06 623.19 1090.51 C 619.2 1086.16 610.352 1084.69 603.111 1075.47 C 596.217 1066.69 590.156 1053.04 591.403 1041.78 C 595.252 1036.15 600.847 1039.29 606.47 1037.16 L 606.746 1035.3 C 601.59 1029.39 592.927 1027.52 587.546 1021.89 C 578.401 1012.32 576.441 992.411 576.983 979.632 C 577.563 965.952 582.284 956.609 592.188 947.551 C 597.152 948.673 602.132 949.399 607.201 948.631 L 607.547 947.692 C 604.22 943.93 598.646 941.635 594.503 938.733 C 591.603 936.703 588.474 934.018 588.244 930.209 C 587.888 924.317 594.711 917.16 598.517 913.144 C 623.53 905.661 670.386 900.665 697.692 899.447 z"/>
<path transform="translate(0,0)" fill="rgb(30,0,10)" d="M 1182.64 1610.31 C 1195.75 1580.65 1217.57 1555.03 1241.38 1533.34 C 1249.15 1526.27 1259.1 1519.8 1265.55 1511.59 C 1273.14 1501.92 1277.7 1489.39 1282.7 1478.27 C 1299.21 1441.56 1318.15 1413.08 1356.91 1398.18 C 1367.68 1394.03 1379.79 1391.37 1389.97 1386 C 1414.96 1372.82 1435.86 1341.91 1461.18 1325.58 C 1510.24 1293.93 1619.97 1304.75 1672.45 1328.4 C 1731.3 1354.92 1785.24 1442.2 1807.73 1501.99 C 1832.24 1567.12 1835.78 1646.99 1806.52 1710.89 C 1778.94 1771.11 1720.66 1815.5 1659.53 1838.13 C 1618.82 1853.19 1576.13 1861.59 1533.37 1868.23 C 1518.6 1870.52 1503.64 1873.21 1488.72 1874.25 C 1490.82 1889.33 1490.31 1904.64 1491.64 1919.79 C 1492.55 1930.18 1495.21 1940.32 1496.17 1950.67 C 1491.17 1954.03 1486.47 1956.31 1480.71 1958.2 C 1491.6 1988.62 1505.65 2017.98 1517.61 2048 L 1508.87 2048 L 504.732 2048 L 494.236 2048 L 377.864 2048 L 370.522 2048 L 334.498 2048 L 326.978 2048 L 209.636 2048 L 199.81 2048 C 226.168 2014.72 259.369 1984.68 291.485 1957.1 C 304.106 1946.26 318.819 1936.21 330.292 1924.27 C 339.663 1914.51 346.579 1901.8 354.821 1891.03 A 833.663 833.663 0 0 1 409.857 1826.89 C 456.242 1778.85 507.518 1737.12 562.3 1699.13 C 662.228 1629.82 769.109 1576.16 891.46 1562.13 C 967.33 1553.43 994.786 1564.11 1062.29 1596.89 C 1073.91 1602.53 1088.5 1612.41 1101.16 1614.44 C 1121.57 1617.73 1160.19 1611.42 1182.64 1610.31 z"/>
<path transform="translate(0,0)" fill="rgb(83,75,86)" d="M 1798.01 1602.75 C 1805.61 1601.63 1811.55 1598.58 1818.06 1594.77 C 1818.31 1602.33 1818.73 1609.92 1818.68 1617.48 L 1798.01 1602.75 z"/>
<path transform="translate(0,0)" fill="rgb(108,97,120)" d="M 1451.78 1421.55 C 1442.79 1418.87 1432.57 1412.98 1426.14 1406.14 C 1420.84 1400.49 1417.59 1393.22 1417.89 1385.39 C 1417.98 1382.89 1417.58 1383.89 1419.43 1382.16 C 1419.8 1382.21 1420.18 1382.22 1420.54 1382.31 C 1430.36 1384.95 1448.21 1411.18 1452.98 1420.41 L 1451.78 1421.55 z"/>
<path transform="translate(0,0)" fill="rgb(83,75,86)" d="M 578.985 1985.07 C 581.895 1985.53 585.064 1985.88 587.691 1987.29 C 591.05 1989.09 593.766 1992.36 594.805 1996.04 C 596.041 2000.41 595.098 2005.05 592.899 2008.96 C 589.571 2014.87 584.718 2017.36 578.453 2019.27 C 577.331 2019.21 576.321 2019.04 575.239 2018.74 C 570.882 2017.51 567.102 2015.56 565.038 2011.31 C 562.09 2005.23 564.762 1998.71 566.774 1992.86 C 570.462 1989.2 574.145 1986.92 578.985 1985.07 z"/>
<path transform="translate(0,0)" fill="rgb(219,223,227)" d="M 1409.07 1384.07 L 1409.64 1384.73 L 1410.17 1388.4 C 1413.34 1410.14 1424.09 1414.42 1438.94 1427.72 L 1438.45 1429.44 C 1433.57 1434.39 1426.8 1436.33 1420.34 1438.36 A 48.7367 48.7367 0 0 1 1418.27 1438.24 C 1408.99 1437.47 1400.49 1431.65 1394.84 1424.47 C 1390.43 1418.86 1387.44 1411.61 1388.7 1404.39 C 1390.56 1393.72 1400.94 1389.55 1409.07 1384.07 z"/>
<path transform="translate(0,0)" fill="rgb(83,75,86)" d="M 1474.46 1326.73 C 1479.97 1325.41 1485.37 1323.33 1490.94 1322.34 C 1500.96 1325.69 1507.57 1330.81 1512.27 1340.55 C 1517.57 1351.53 1517.93 1365.87 1513.74 1377.28 C 1511.8 1382.58 1508.99 1386.55 1504.44 1389.88 L 1502.12 1390.21 C 1500.72 1388.09 1501.05 1387.86 1501.07 1385.44 C 1500.18 1386.32 1499.34 1388.75 1498.95 1389.95 C 1498.76 1390.51 1498.64 1391.09 1498.49 1391.66 C 1496.45 1387.93 1497.11 1382.58 1496.22 1378.34 L 1496.04 1377.48 C 1496.36 1344.06 1477.09 1352.06 1469.06 1336.58 C 1468.65 1333.14 1469.29 1332.04 1470.9 1329.15 L 1474.46 1326.73 z"/>
<path transform="translate(0,0)" fill="rgb(30,0,10)" d="M 1470.9 1329.15 L 1474.46 1326.73 C 1474.43 1330.25 1473.9 1332.39 1476.49 1335.17 C 1487.92 1347.45 1502.78 1348.5 1502.91 1369.6 C 1502.94 1374.8 1502.18 1380.36 1501.07 1385.44 C 1500.18 1386.32 1499.34 1388.75 1498.95 1389.95 C 1498.76 1390.51 1498.64 1391.09 1498.49 1391.66 C 1496.45 1387.93 1497.11 1382.58 1496.22 1378.34 L 1496.04 1377.48 C 1496.36 1344.06 1477.09 1352.06 1469.06 1336.58 C 1468.65 1333.14 1469.29 1332.04 1470.9 1329.15 z"/>
<path transform="translate(0,0)" fill="rgb(83,75,86)" d="M 1663.27 1333.56 C 1700.05 1343.38 1733.32 1387.35 1754.17 1417.51 L 1752.77 1417.32 C 1743.6 1408.18 1732.72 1399.98 1722.01 1392.74 C 1709.02 1383.96 1662.51 1360.58 1659.16 1347.03 C 1657.89 1341.87 1660.68 1337.78 1663.27 1333.56 z"/>
<path transform="translate(0,0)" fill="rgb(101,93,109)" d="M 1254.83 1537.85 C 1277.57 1543.54 1297.81 1556.09 1313.97 1573.02 C 1341.97 1602.36 1356.8 1645.6 1355.71 1685.86 A 439.332 439.332 0 0 1 1341.96 1681.19 C 1339.77 1656.83 1333.37 1634.37 1320.6 1613.34 C 1306.54 1590.2 1282.36 1563.15 1255.03 1556.37 C 1255.11 1550.21 1254.91 1544.02 1254.83 1537.85 z"/>
<path transform="translate(0,0)" fill="rgb(101,93,109)" d="M 1279 1521.09 C 1282.72 1520.68 1286.22 1520.89 1289.92 1521.5 C 1315 1525.63 1338.88 1545.26 1353.42 1565.26 C 1381.22 1603.51 1379.89 1647.84 1372.81 1692.56 C 1369.83 1691.39 1365.28 1690.2 1363.05 1687.89 C 1361.91 1686.7 1362.51 1685.27 1362.62 1683.75 A 62.5594 62.5594 0 0 0 1362.76 1680.04 C 1362.94 1639.22 1345.67 1593.79 1316.53 1564.89 C 1299.7 1548.19 1277.43 1533.81 1253.11 1533.88 C 1258.03 1529.56 1263.66 1523.64 1270.51 1522.94 C 1273.48 1522.64 1276.13 1521.91 1279 1521.09 z"/>
<path transform="translate(0,0)" fill="rgb(175,154,198)" d="M 1071.04 1792.2 C 1075.47 1791.45 1082.22 1800.59 1085.5 1803.76 C 1119.81 1836.95 1165.29 1851.5 1209.89 1865 C 1183.73 1863.43 1157.19 1858.6 1131.09 1855.69 C 1076.56 1848.83 1034.21 1839.45 983.649 1817.31 C 1007.44 1807.68 1045.32 1798.51 1071.04 1792.2 z"/>
<path transform="translate(0,0)" fill="rgb(175,154,198)" d="M 1053.72 1699.34 L 1055.26 1699.33 C 1056.83 1705 1051.32 1718.24 1051.54 1725.62 C 1052.18 1746.47 1056.81 1767.21 1069.62 1784.08 C 1049.13 1790.64 1028.15 1795.86 1007.54 1802.09 C 997.438 1805.14 987.598 1809.61 977.482 1812.35 C 975.238 1812.95 973.052 1812.99 970.754 1812.78 A 1220.11 1220.11 0 0 0 855.532 1809.19 L 829.8 1811.11 C 858.215 1786.74 891.175 1765.28 922.504 1744.8 C 938.144 1734.58 957.755 1724.48 971.044 1711.45 C 998.369 1706.47 1026.27 1703.83 1053.72 1699.34 z"/>
<path transform="translate(0,0)" fill="rgb(6,0,1)" d="M 993.277 1734.39 C 998.907 1734.1 1005.01 1733.51 1010.56 1734.6 C 1015.16 1735.5 1017.77 1737.28 1020.27 1741.17 C 1020.55 1743.73 1020.77 1744.8 1019.22 1747.09 C 1012.26 1757.36 989.986 1762.17 978.774 1764.68 C 971.365 1765.69 957.413 1767.54 951.351 1762.29 C 950.22 1761.31 949.624 1760.23 949.55 1758.76 C 949.402 1755.79 950.851 1753.43 952.668 1751.21 C 962.359 1739.36 978.829 1735.69 993.277 1734.39 z"/>
<path transform="translate(0,0)" fill="rgb(175,154,198)" d="M 995.351 1740.37 C 1000.04 1740.02 1006.3 1739.15 1010.77 1740.66 C 1012.95 1741.39 1013.12 1741.45 1014.17 1743.57 C 1013.99 1743.89 1013.85 1744.25 1013.63 1744.55 C 1007.98 1752.22 986.879 1756.83 977.863 1758.72 C 972.711 1759.37 967.31 1760.01 962.13 1759.31 C 959.782 1758.99 958.257 1758.6 956.708 1756.75 L 957.33 1754.81 C 967.625 1744.26 981.402 1741.99 995.351 1740.37 z"/>
<path transform="translate(0,0)" fill="rgb(175,154,198)" d="M 825.119 1816.07 C 840.458 1818.41 858.195 1815.84 873.823 1815.87 C 904.669 1815.91 935.997 1817.1 966.677 1820.26 C 984.046 1822.04 997.743 1833.18 1014.04 1838.94 C 1039.53 1847.96 1065.29 1853.93 1091.98 1858.02 C 1128.37 1863.6 1165.01 1867.18 1201.63 1870.8 C 1224.2 1873.04 1246.89 1875.87 1269.52 1877.19 A 3109.71 3109.71 0 0 0 1326.2 1879.59 C 1338.23 1879.9 1351.42 1878.94 1363.22 1881.19 C 1347.75 1883.25 1331.68 1883.31 1316.08 1883.9 A 1404.07 1404.07 0 0 1 1206.77 1884.13 C 1156.39 1883.54 1105.93 1875.69 1055.47 1874.24 C 943.897 1871.05 814.886 1890.06 707.285 1919.66 C 723.328 1905.55 740.505 1892.56 756.788 1878.68 C 780.258 1858.68 802.891 1837.44 825.119 1816.07 z"/>
<path transform="translate(0,0)" fill="rgb(175,154,198)" d="M 1134.52 1674.28 L 1135.05 1674.33 C 1135.82 1675.76 1135.76 1674.97 1134.43 1676.63 C 1128.06 1684.61 1122.22 1691.96 1120.54 1702.39 C 1117.88 1718.82 1123.72 1734.96 1133.32 1748.08 C 1170.03 1798.27 1286.48 1833.65 1345.59 1844.03 C 1379.77 1850.03 1414.44 1851.56 1448.68 1856.75 C 1463.56 1859.01 1477.99 1863.77 1492.92 1866.11 C 1471.91 1868.67 1451.01 1872.24 1429.89 1873.87 C 1394.37 1875.56 1358.97 1874.24 1323.51 1871.77 C 1250.53 1866.69 1176.52 1856.74 1113.48 1816.63 C 1087.13 1799.86 1068.19 1776.45 1061.46 1745.59 C 1058.46 1731.85 1056.57 1709.81 1064.89 1697.65 C 1073.51 1685.04 1119.27 1677.31 1134.52 1674.28 z"/>
<path transform="translate(0,0)" fill="rgb(83,75,86)" d="M 1633.44 1700.4 C 1633.69 1700.15 1633.93 1699.89 1634.18 1699.63 C 1642.58 1690.55 1648.99 1679.09 1656.31 1669.08 C 1678.44 1638.86 1713.73 1596.44 1754.07 1594.79 C 1780.37 1593.71 1798.42 1611.39 1819.09 1624.53 C 1812.32 1692.2 1792.32 1740.04 1738.46 1783.85 C 1673.16 1836.95 1581.39 1855.45 1499.64 1864.67 C 1507.93 1854.48 1512.69 1842.17 1519.07 1830.8 L 1520.08 1831.14 C 1531.46 1827.66 1542.97 1809.62 1549.17 1800.13 C 1553.52 1808.47 1559.98 1816.71 1568.94 1820.32 C 1593.86 1830.36 1640.93 1816.44 1665.36 1806.64 C 1686.01 1798.36 1705.27 1783.79 1713.79 1762.62 C 1718.54 1750.83 1718.78 1738.36 1713.7 1726.65 C 1708.14 1713.82 1696.8 1703.37 1683.8 1698.4 C 1667.76 1692.26 1648.91 1693.22 1633.44 1700.4 z"/>
<path transform="translate(0,0)" fill="rgb(101,93,109)" d="M 925.969 1567.42 C 986.756 1560.89 1036.57 1594.92 1089.71 1617.75 C 1034.99 1618.74 984.262 1622.52 929.922 1612.39 C 926.159 1611.69 915.83 1608.8 912.82 1610.86 C 911.306 1621.01 916.425 1634.95 918.821 1644.92 C 888.592 1645.15 858.196 1651.43 827.875 1652.74 C 820.751 1653.05 792.199 1651.6 788.468 1654.45 C 788.754 1663.09 794.967 1672.1 796.091 1681.22 L 796.269 1682.74 C 768.165 1693.18 739.529 1701.91 711.494 1712.7 A 1495.99 1495.99 0 0 0 461.917 1834.13 C 434.587 1850.72 407.14 1868.11 381.058 1886.6 C 369.814 1894.57 359.384 1903.64 348.131 1911.53 C 366.038 1890.75 382.343 1868.7 400.513 1848.05 C 443.416 1799.29 502.801 1749.72 555.625 1712.39 C 672.107 1630.06 781.415 1576.57 925.969 1567.42 z"/>
<path transform="translate(0,0)" fill="rgb(101,93,109)" d="M 1117.3 1939.03 A 9173.23 9173.23 0 0 0 1202.94 2003.2 C 1217.21 2013.96 1231.3 2026.48 1246.43 2035.93 A 11366.1 11366.1 0 0 0 1440.4 1971.95 C 1451.73 1968.1 1462.79 1963.45 1474.11 1959.64 A 2082.07 2082.07 0 0 0 1496.97 2018.97 C 1500.65 2028.29 1503.92 2039.35 1508.87 2048 L 504.732 2048 C 522.254 2033.32 538.763 2017.23 556.639 2003.04 C 557.501 2010.38 559.146 2016.65 565.067 2021.61 C 569.036 2024.94 574.094 2026.27 579.202 2025.67 C 586.061 2024.86 592.574 2020.8 596.767 2015.38 A 23.6113 23.6113 0 0 0 601.505 1996.84 C 600.353 1990.18 597.005 1985.25 592.126 1980.78 C 605.785 1974.14 636.299 1956.51 650.216 1954.35 C 663.884 1952.22 679.64 1954.08 693.436 1955.04 C 754.454 1959.27 813.642 1971.1 873.584 1982.45 A 9074.39 9074.39 0 0 1 1074.38 2022.5 C 1082.47 2024.19 1125.56 2035.44 1127.3 2031.21 C 1132.65 2018.24 1120.45 1955.66 1117.3 1939.03 z"/>
<path transform="translate(0,0)" fill="rgb(101,93,109)" d="M 1476.75 1876.36 C 1478.83 1875.9 1479.86 1875.84 1481.9 1876.47 C 1484.26 1884.15 1482.13 1898.22 1482.35 1906.5 C 1482.71 1920.31 1484.33 1933.89 1487.81 1947.26 C 1464.5 1953.33 1441.77 1963.29 1418.92 1971.05 C 1362.19 1990.31 1304.85 2010.07 1247.2 2026.33 C 1230.48 2014.27 1123.11 1930.63 1112.6 1929.99 C 1110.93 1929.89 1111.37 1930.05 1110.1 1931.41 C 1113.14 1962.98 1119.66 1993.8 1121.67 2025.57 C 1087.1 2016.17 1051.1 2009.95 1015.96 2003.01 L 830.231 1966.8 C 774.257 1955.91 718.377 1947.44 661.251 1946.94 C 672.535 1940.47 684.2 1932.89 696.428 1928.41 C 710.489 1923.26 727.067 1920.85 741.686 1917.35 C 840.78 1893.61 953.068 1879.37 1055.01 1882.04 C 1118.31 1883.69 1180.96 1892.29 1244.4 1892.73 A 1614.65 1614.65 0 0 0 1476.75 1876.36 z"/>
<path transform="translate(0,0)" fill="rgb(101,93,109)" d="M 918.169 1616.12 C 992.93 1639.82 1101.2 1621.45 1180.12 1618.86 C 1179.2 1631.31 1180.3 1642.66 1183.95 1654.63 C 1154.7 1661.99 1125.9 1668.27 1096.26 1673.86 C 1084.96 1667.37 1073.96 1660.62 1063.18 1653.3 C 1056.74 1648.92 1050.45 1643.73 1043.75 1639.84 C 1041.14 1638.33 1039.04 1637.31 1036.03 1637.01 L 1034.92 1638.25 C 1037.27 1648.14 1064.73 1663.75 1074.2 1669.56 A 332.61 332.61 0 0 0 1088.36 1677.67 C 1077.16 1682.08 1065.39 1689.76 1053.85 1692.51 C 1033.43 1697.37 1011.06 1698.75 990.199 1701.49 A 1229.33 1229.33 0 0 0 901.615 1716.87 C 892.237 1718.95 881.72 1720.04 873.534 1725.4 L 873.748 1726.57 C 886.482 1728.69 938.254 1716.77 955.543 1714.17 C 922.314 1735.64 890.13 1759.02 856.585 1779.91 C 845.577 1786.77 832.855 1790.15 822.186 1797.21 C 828.926 1796.44 834.762 1795.16 841.214 1792.99 C 793.482 1832.81 747.924 1883.18 696.458 1917.93 C 668.054 1937.11 637.401 1951.68 606.563 1966.35 C 599.515 1969.71 592.697 1973.86 585.64 1977.07 C 581.63 1978.89 576.377 1977.77 572.562 1980.09 C 560.235 1987.59 548.58 2000.03 537.681 2009.65 C 523.258 2022.38 508.137 2034.73 494.236 2048 L 377.864 2048 L 370.522 2048 L 334.498 2048 L 326.978 2048 L 209.636 2048 C 240.501 2010.03 282.147 1974.19 320.219 1943.41 A 1352.12 1352.12 0 0 1 643.044 1748.99 C 691.608 1727.95 741.143 1709.67 790.86 1691.61 C 774.086 1727.27 756.613 1754.68 732.421 1785.7 C 731.301 1776.27 731.359 1765.74 723.121 1759.43 C 716.18 1754.11 706.579 1753.73 698.269 1755.08 C 689.628 1756.48 681.208 1760.58 676.136 1767.93 C 673.775 1771.35 673.596 1772.8 673.571 1776.79 C 673.568 1777.19 673.417 1777.58 673.34 1777.97 C 663.492 1772.51 654.46 1767.98 642.828 1770.9 C 636.545 1772.47 632.272 1776.76 629.247 1782.31 C 626.346 1787.64 625.81 1792.32 625.459 1798.31 C 617.02 1792.95 607.739 1787.94 597.344 1790.09 C 591.229 1791.36 586.467 1795.26 583.248 1800.54 C 580.714 1804.69 579.296 1810.08 577.994 1814.75 C 571.195 1809.03 564.837 1803.44 555.275 1804.26 C 548.608 1804.84 543 1809.02 539.081 1814.24 C 526.791 1830.6 518.892 1879.81 513.926 1901.04 C 513.537 1901.13 513.147 1901.22 512.759 1901.31 C 498.352 1904.94 459.429 1926.77 451.837 1939.71 C 441.58 1957.2 425.12 2004.09 427.419 2024.13 L 428.732 2026.23 C 429.186 2025.96 429.756 2025.82 430.093 2025.42 C 432.862 2022.1 446.631 1960.61 458.109 1943.42 C 466.587 1930.73 491.995 1916.1 506.695 1910.94 C 509.852 1909.83 518.142 1908.72 520.295 1906.91 C 520.759 1906.52 521.624 1902.44 521.824 1901.64 C 526.435 1883.08 534.249 1822.94 550.376 1813.61 C 554.131 1811.44 558.086 1811.26 562.228 1812.38 C 567.964 1813.93 572.152 1818.4 576.195 1822.49 C 571.413 1857.92 565.896 1897.7 572.468 1933.15 C 576.657 1910.6 579.161 1809.77 593.204 1799.4 C 597.346 1796.34 602.085 1796.11 606.993 1797.2 C 614.047 1798.76 619.814 1802.22 625.33 1806.75 C 624.111 1836.65 619.75 1892.44 625.103 1919.71 C 632.081 1894.55 631.455 1847.48 632.037 1820.47 C 632.237 1811.17 631.201 1800.49 633.186 1791.45 C 634.171 1786.96 636.764 1782.98 640.708 1780.57 C 646.46 1777.07 654.085 1777.23 660.38 1778.96 C 665.59 1780.39 669.202 1783.35 672.754 1787.3 C 674.937 1804.16 675.377 1879.41 682.04 1888.39 C 685.482 1884.91 685.183 1874.49 685.17 1869.57 C 685.116 1848.85 683.476 1828.18 682.074 1807.51 C 681.395 1797.51 679.464 1785.7 680.652 1775.76 C 680.957 1773.21 681.956 1771.24 683.811 1769.44 C 689.934 1763.48 700.901 1761.71 709.216 1762.02 C 713.098 1762.17 716.794 1763.08 719.428 1766.14 C 728.635 1776.8 730.953 1850.74 734.661 1869.94 C 739.962 1846.14 736.518 1818.03 733.069 1793.98 C 742.746 1783.78 751.922 1773.35 760.157 1761.92 C 770.553 1747.48 803.849 1692.98 802.872 1676.9 C 802.511 1670.95 799.221 1665.22 796.588 1659.99 C 809.823 1660.02 823.103 1660.21 836.318 1659.39 C 865.948 1657.53 895.315 1653.06 924.955 1651.12 C 931.129 1667.41 931.093 1681.25 930.96 1698.45 C 937.184 1682.44 938.508 1667.28 931.652 1651.1 C 930.186 1647.63 928.31 1645.72 925.335 1643.52 C 923.074 1634.36 920.929 1625.15 918.169 1616.12 z"/>
<path transform="translate(0,0)" fill="rgb(6,0,1)" d="M 839.725 1765.72 C 840.745 1766.01 841.593 1766.63 842.5 1767.16 L 843.055 1769.41 C 839.404 1777.06 827.26 1784.16 820.461 1789.26 L 819.314 1789.69 L 817.863 1788.74 C 818.383 1787.66 818.927 1786.61 819.464 1785.55 C 823.62 1777.31 832.539 1771.17 839.725 1765.72 z"/>
<path transform="translate(0,0)" fill="rgb(30,0,10)" d="M 839.369 1753.05 L 840.288 1753.32 L 840.398 1754.78 C 831.354 1764.62 816.729 1774.69 805.604 1782.28 L 803.947 1781.38 C 803.807 1779.2 804.514 1777.76 805.646 1775.96 C 812.444 1765.14 827.269 1756.08 839.369 1753.05 z"/>
<path transform="translate(0,0)" fill="rgb(30,0,10)" d="M 326.978 2048 C 328.469 2037.35 331.281 2028.3 340.191 2021.36 C 345.161 2017.49 351.491 2015.09 357.847 2015.86 C 363.309 2016.52 367.968 2019.46 371.292 2023.79 C 376.823 2031 377.352 2039.31 377.864 2048 L 370.522 2048 C 370.532 2041.54 370.466 2034.53 366.369 2029.16 C 364.003 2026.05 360.825 2023.94 356.907 2023.46 C 352.246 2022.89 347.553 2024.75 343.957 2027.64 C 337.272 2033.01 335.346 2039.81 334.498 2048 L 326.978 2048 z"/>
<path transform="translate(0,0)" fill="rgb(83,75,86)" d="M 334.498 2048 C 335.346 2039.81 337.272 2033.01 343.957 2027.64 C 347.553 2024.75 352.246 2022.89 356.907 2023.46 C 360.825 2023.94 364.003 2026.05 366.369 2029.16 C 370.466 2034.53 370.532 2041.54 370.522 2048 L 334.498 2048 z"/>
<path transform="translate(0,0)" fill="rgb(101,93,109)" d="M 1500.57 1318.42 C 1552.36 1308.18 1608.63 1316.34 1658.89 1330.64 C 1654.86 1334.42 1651.2 1338.04 1651.23 1343.94 C 1651.28 1351.24 1656.6 1356.55 1661.68 1361.12 C 1679.85 1377.47 1702.77 1388.27 1722.56 1402.47 C 1738.02 1413.57 1753.88 1426.36 1766.06 1440.98 C 1799.53 1481.14 1815.26 1540.71 1817.99 1592.38 A 75.9452 75.9452 0 0 1 1818.06 1594.77 C 1811.55 1598.58 1805.61 1601.63 1798.01 1602.75 C 1780.19 1591.4 1765.52 1583.97 1743.87 1588.66 C 1697.28 1598.73 1659.52 1647.99 1635.26 1686.34 C 1632.51 1690.69 1626.33 1699.67 1627.33 1704.84 L 1628.99 1705.78 L 1630.63 1705.16 C 1631.45 1703.53 1632.5 1701.97 1633.44 1700.4 C 1648.91 1693.22 1667.76 1692.26 1683.8 1698.4 C 1696.8 1703.37 1708.14 1713.82 1713.7 1726.65 C 1718.78 1738.36 1718.54 1750.83 1713.79 1762.62 C 1705.27 1783.79 1686.01 1798.36 1665.36 1806.64 C 1640.93 1816.44 1593.86 1830.36 1568.94 1820.32 C 1559.98 1816.71 1553.52 1808.47 1549.17 1800.13 C 1542.97 1809.62 1531.46 1827.66 1520.08 1831.14 L 1519.07 1830.8 C 1516.65 1828.49 1515.61 1827.02 1512.34 1826.14 C 1505.11 1834.68 1497.5 1853.45 1492.05 1863.89 C 1466.05 1845.54 1374.05 1841.25 1337.38 1833.87 C 1297.13 1825.78 1256.42 1814.66 1219.09 1797.34 C 1189.53 1783.62 1141.66 1758.94 1130.51 1726.6 C 1126.75 1715.69 1127 1702.96 1132.43 1692.64 C 1141.61 1675.22 1161.78 1668.99 1179.17 1663.21 C 1174.92 1677.26 1172.76 1691.81 1169.13 1705.98 C 1166.52 1716.17 1159.37 1729.03 1159.72 1739.38 C 1161.57 1740.49 1161.4 1740.47 1163.5 1739.95 C 1176.7 1727.71 1181.72 1677.28 1185.09 1658.47 C 1189.35 1665.38 1193.14 1672.61 1197.72 1679.31 C 1214.36 1703.64 1238.05 1724.58 1261.76 1741.99 C 1328.15 1790.76 1404.85 1821.1 1485.71 1836.14 C 1464.07 1821.71 1433.66 1815.59 1409.12 1807.39 C 1346.52 1786.47 1284.89 1755.54 1236.14 1710.31 C 1214.09 1689.85 1188.3 1661.61 1187.73 1629.55 C 1187.24 1601.17 1218.52 1566.93 1237.47 1547.33 C 1240.25 1544.46 1243.3 1540.89 1247.46 1540.84 C 1247.61 1541.15 1247.8 1541.44 1247.9 1541.76 C 1249.56 1547.06 1244.79 1555.43 1242.75 1560.29 C 1256.42 1562.72 1267.26 1566.74 1278.45 1575.04 C 1310.63 1598.94 1330.02 1639.69 1335.59 1678.54 C 1298.28 1661.35 1245.45 1638.75 1234.35 1594.57 C 1232.44 1586.94 1233.66 1572.7 1228.87 1566.96 C 1226.85 1567.64 1226.59 1568.39 1225.76 1570.42 C 1221.26 1581.45 1227.32 1600.7 1232.07 1611.06 C 1254.99 1661.03 1328.33 1684.08 1376.26 1701.7 C 1380.1 1692.36 1381.75 1681.61 1382.95 1671.64 C 1388.06 1629.19 1382.75 1590.87 1355.7 1556.58 C 1337.95 1534.08 1314.59 1518.12 1285.74 1514.7 C 1307.24 1502.46 1327.84 1488.73 1349.29 1476.51 C 1360.12 1468.79 1370.65 1460.46 1381.8 1453.23 C 1383.2 1450.57 1385.92 1449.32 1386.45 1446.17 C 1386.13 1446.13 1385.81 1446.05 1385.49 1446.05 C 1382.91 1446.12 1379.99 1448.15 1377.81 1449.5 C 1367.56 1455.85 1357.99 1463.3 1347.71 1469.66 C 1328.54 1481.51 1308.69 1492.36 1289.84 1504.73 C 1282.46 1509.57 1275.35 1514.68 1268.57 1520.34 C 1292.2 1485.2 1301.13 1440.18 1339.08 1415.92 C 1346.23 1411.35 1374.36 1397.11 1381.97 1398.76 C 1381.72 1412.54 1383.14 1423.02 1393.08 1433.57 C 1396.07 1436.74 1399.59 1439.51 1403.09 1442.12 C 1411.86 1445.95 1420.59 1446.7 1429.59 1443.1 C 1438.07 1439.71 1448.79 1431.58 1452.64 1422.94 L 1451.78 1421.55 L 1452.98 1420.41 L 1455.51 1420.41 L 1456.9 1418.75 C 1456.38 1412.26 1451.07 1404.83 1447.47 1399.5 C 1440.47 1389.11 1431.46 1377.11 1418.51 1374.66 C 1434.69 1357.65 1450.74 1341.5 1470.9 1329.15 C 1469.29 1332.04 1468.65 1333.14 1469.06 1336.58 C 1477.09 1352.06 1496.36 1344.06 1496.04 1377.48 L 1495.79 1379.04 C 1495.01 1384.12 1494.25 1390.47 1497.84 1394.77 C 1499.34 1396.57 1501.3 1397.27 1503.61 1397.13 C 1509.1 1396.8 1514.1 1392.05 1516.95 1387.73 C 1524.09 1376.91 1526.07 1359.86 1523.22 1347.32 A 42.0184 42.0184 0 0 0 1504.34 1320.6 A 94.7116 94.7116 0 0 0 1500.57 1318.42 z"/>
<path transform="translate(0,0)" fill="rgb(70,46,74)" d="M 1385.98 1436.84 C 1382.09 1431.58 1378.55 1425.58 1377.29 1419.09 C 1375.81 1411.45 1377.72 1405.11 1381.97 1398.76 C 1381.72 1412.54 1383.14 1423.02 1393.08 1433.57 C 1396.07 1436.74 1399.59 1439.51 1403.09 1442.12 C 1396.71 1441.62 1391.62 1439.8 1385.98 1436.84 z"/>
<path transform="translate(0,0)" fill="rgb(30,0,10)" d="M 1234.69 1563.04 C 1241.54 1562.6 1246.54 1564.59 1252.48 1567.84 C 1272.3 1578.66 1297.78 1600.54 1304.44 1622.9 C 1295.42 1616.14 1287.86 1606.19 1279.8 1598.21 C 1267.11 1585.64 1253.55 1577.41 1238.34 1568.43 C 1235.53 1566.78 1235.48 1566.25 1234.69 1563.04 z"/>
<path transform="translate(0,0)" fill="url(#Gradient7)" d="M 1545.87 1727.4 L 1545.84 1728.36 C 1542.51 1732.41 1536.16 1734.39 1531.24 1735.87 C 1504.84 1743.83 1469.82 1745.19 1444.95 1731.91 L 1442.71 1730.14 L 1442.9 1728.88 C 1452.44 1727.71 1465.02 1732.93 1474.94 1733.85 C 1499.09 1736.09 1522.28 1731.97 1545.87 1727.4 z"/>
<path transform="translate(0,0)" fill="rgb(83,75,86)" d="M 1554.44 1625.18 C 1553.17 1625.83 1553.05 1625.98 1551.45 1626.32 C 1543.35 1628.01 1526.51 1624.47 1520.2 1619.34 C 1512.56 1613.12 1509.69 1602.57 1508.98 1593.13 C 1507.95 1579.57 1511.09 1565.05 1520.15 1554.64 C 1516.23 1571.98 1514.51 1589.73 1524.45 1605.64 C 1531.43 1616.81 1542.11 1622.09 1554.44 1625.18 z"/>
<path transform="translate(0,0)" fill="rgb(30,0,10)" d="M 1464.55 1583.04 C 1465.83 1582.14 1467.03 1580.22 1468.04 1578.98 C 1473.68 1604.63 1466.71 1637.41 1452.64 1659.31 C 1440.68 1677.95 1424.83 1691.85 1404.93 1701.45 L 1405.86 1700.41 C 1412.77 1692.71 1420.96 1686.34 1428.1 1678.86 C 1457.45 1648.11 1461.34 1623.9 1464.55 1583.04 z"/>
<path transform="translate(0,0)" fill="rgb(30,0,10)" d="M 1565.12 1352.64 C 1565.32 1352.75 1565.52 1352.85 1565.71 1352.96 C 1569.75 1355.42 1572.45 1368.35 1574.18 1372.94 C 1578.61 1384.69 1585.9 1394.49 1595.06 1402.99 C 1624.33 1430.19 1667.98 1438.51 1695.45 1468.6 C 1704.56 1478.58 1714.63 1493.06 1714.03 1507.11 C 1705.96 1494.11 1698.32 1480.86 1687.02 1470.35 C 1653.04 1438.74 1597.75 1429.96 1573.1 1387.93 C 1567.55 1378.47 1562.34 1363.56 1565.12 1352.64 z"/>
<path transform="translate(0,0)" fill="rgb(30,0,10)" d="M 1657.57 1719.26 C 1664.91 1718.74 1672.18 1719.08 1678.93 1722.33 A 23.2301 23.2301 0 0 1 1690.93 1735.93 C 1693.45 1743.37 1692.41 1751.52 1688.94 1758.48 C 1682.95 1770.47 1673.44 1776.21 1661.15 1780.07 C 1670.13 1768.57 1682.21 1764.04 1684.83 1747.93 C 1685.59 1743.27 1685.14 1738.54 1682.21 1734.68 C 1678.47 1729.75 1671.66 1727.81 1665.77 1727.28 C 1655.86 1726.37 1639.99 1729.68 1632.39 1736.56 C 1630.59 1738.19 1630.17 1739.18 1630.19 1741.54 L 1638.45 1746.86 C 1639.31 1747.73 1640.17 1748.59 1640.88 1749.6 C 1642.81 1752.35 1643.65 1755.77 1643.02 1759.09 C 1641.85 1765.3 1636.43 1770.32 1631.49 1773.77 C 1623.17 1779.58 1607.68 1786.57 1597.54 1784.32 C 1593.38 1783.4 1589.09 1780.69 1587.04 1776.84 C 1585.86 1774.64 1585.87 1773.49 1586.63 1771.21 L 1588.88 1770.47 C 1592.75 1771.36 1595.05 1774.17 1597.79 1776.85 C 1603.23 1776.41 1608.31 1775.73 1613.49 1773.88 C 1620.19 1771.5 1633.21 1766.32 1635.96 1759.44 C 1639.09 1751.61 1623.73 1749.91 1621.5 1743.16 C 1620.65 1740.59 1621.41 1738.08 1622.93 1735.95 C 1629.99 1726.03 1646.12 1721.23 1657.57 1719.26 z"/>
<path transform="translate(0,0)" fill="rgb(30,0,10)" d="M 1633.44 1700.4 C 1648.91 1693.22 1667.76 1692.26 1683.8 1698.4 C 1696.8 1703.37 1708.14 1713.82 1713.7 1726.65 C 1718.78 1738.36 1718.54 1750.83 1713.79 1762.62 C 1705.27 1783.79 1686.01 1798.36 1665.36 1806.64 C 1640.93 1816.44 1593.86 1830.36 1568.94 1820.32 C 1559.98 1816.71 1553.52 1808.47 1549.17 1800.13 C 1547.05 1794.44 1546.11 1787.51 1548.01 1781.63 C 1549.18 1781.47 1550.41 1780.77 1551.54 1781.15 C 1555.72 1782.55 1557.4 1803.68 1568.19 1810.6 C 1580.91 1818.76 1600.62 1815.22 1614.5 1812.47 C 1644.6 1806.51 1684.32 1795.82 1701.87 1768.41 C 1708.55 1757.97 1711.31 1745.16 1708.14 1733.03 C 1705.31 1722.22 1697.67 1714.19 1688.1 1708.8 C 1670.4 1698.83 1649.59 1699.93 1630.63 1705.16 C 1631.45 1703.53 1632.5 1701.97 1633.44 1700.4 z"/>
<path transform="translate(0,0)" fill="rgb(30,0,10)" d="M 1386.02 1456.46 C 1397.85 1451.86 1412.64 1446.76 1425.45 1446.83 C 1431.08 1446.86 1437.58 1448.24 1443.07 1447.33 C 1449.21 1446.31 1467.87 1439.11 1474.67 1436.65 C 1484.47 1433.1 1494.53 1429.04 1503.95 1424.57 C 1516.22 1418.75 1538.62 1403.99 1551.24 1402.96 L 1552.15 1403.86 C 1542.99 1417.8 1464.47 1451.1 1446.06 1454.72 C 1438.23 1456.26 1429.96 1455.72 1422.03 1456.3 C 1408.97 1457.27 1385.09 1461.88 1377.21 1473.23 C 1373.51 1478.57 1373.48 1485 1374.85 1491.14 C 1380.43 1516.23 1400.68 1529.74 1417.65 1546.8 C 1426.64 1555.83 1435.22 1565.84 1443.19 1575.79 C 1452.87 1575.06 1461.28 1574.03 1468.02 1566.16 C 1480.16 1551.97 1478.9 1520.57 1476.99 1503.14 C 1476.13 1495.27 1474.59 1487.47 1473.76 1479.6 C 1486.1 1502.86 1488.14 1533.9 1480.47 1559.13 C 1478.01 1567.22 1474.51 1573.49 1468.04 1578.98 C 1467.03 1580.22 1465.83 1582.14 1464.55 1583.04 C 1461.13 1581.4 1441.77 1585.4 1432.98 1582.15 C 1410.68 1573.89 1366.64 1529.13 1357.17 1507.5 C 1352.61 1497.07 1351.21 1487.6 1355.44 1476.87 C 1352.62 1475.74 1352.28 1477.46 1349.29 1476.51 C 1360.12 1468.79 1370.65 1460.46 1381.8 1453.23 C 1381.66 1453.65 1381.56 1454.07 1381.39 1454.47 C 1380.54 1456.43 1379.41 1457.12 1377.74 1458.34 C 1380.21 1457.41 1382.65 1456.56 1384.92 1455.18 L 1386.02 1456.46 z"/>
<path transform="translate(0,0)" fill="rgb(108,97,120)" d="M 1381.8 1453.23 C 1381.66 1453.65 1381.56 1454.07 1381.39 1454.47 C 1380.54 1456.43 1379.41 1457.12 1377.74 1458.34 C 1380.21 1457.41 1382.65 1456.56 1384.92 1455.18 L 1386.02 1456.46 C 1377.32 1461.23 1369.23 1465.69 1366.32 1475.97 C 1362.85 1488.23 1367.51 1501.66 1373.71 1512.25 C 1380.99 1524.68 1419.48 1564.13 1431.1 1571.51 C 1432.34 1572.3 1433.53 1573.21 1434.72 1574.06 C 1430.81 1573.62 1427.44 1572.76 1423.98 1570.79 C 1410.13 1562.91 1385.97 1536.35 1375.48 1523.35 C 1366.76 1512.54 1357.41 1497.26 1358.96 1482.84 C 1359.28 1479.91 1360.51 1476.24 1359.5 1473.52 C 1357.4 1474.22 1356.76 1475.14 1355.44 1476.87 C 1352.62 1475.74 1352.28 1477.46 1349.29 1476.51 C 1360.12 1468.79 1370.65 1460.46 1381.8 1453.23 z"/>
<path transform="translate(0,0)" fill="rgb(6,0,1)" d="M 1541.35 1531.01 C 1553.96 1540.65 1606.12 1592.17 1608.69 1604.77 C 1609.01 1606.32 1607.77 1608.06 1606.81 1609.25 C 1599.08 1618.79 1573.72 1624.48 1561.68 1624.96 C 1559.33 1625.05 1556.76 1624.87 1554.44 1625.18 C 1542.11 1622.09 1531.43 1616.81 1524.45 1605.64 C 1514.51 1589.73 1516.23 1571.98 1520.15 1554.64 C 1525.9 1545 1531.51 1536.93 1541.35 1531.01 z"/>
<path transform="translate(0,0)" fill="rgb(189,183,198)" d="M 1553.3 1552.55 C 1562.2 1557.43 1579.66 1580.59 1589.02 1589.28 C 1588.41 1589.1 1587.8 1588.94 1587.2 1588.74 C 1571.43 1583.43 1560.25 1566.77 1553.3 1552.55 z"/>
<path transform="translate(0,0)" fill="rgb(189,183,198)" d="M 1539.57 1540.62 C 1545.19 1545.93 1547.55 1557.79 1551.23 1564.89 C 1563.06 1587.73 1584.36 1596.41 1607.65 1603.73 C 1601.03 1607.12 1594.18 1609.75 1587.24 1612.43 C 1580.36 1614.82 1573.61 1616.72 1566.29 1617.17 C 1555.5 1617.82 1544.76 1615.43 1536.68 1607.88 C 1528.28 1600.02 1524.7 1587.74 1524.45 1576.5 C 1524.15 1562.1 1529.69 1550.76 1539.57 1540.62 z"/>
<path transform="translate(0,0)" fill="rgb(30,0,10)" d="M 1569.67 1456.13 A 123.597 123.597 0 0 1 1572.61 1456.01 C 1603.07 1455.18 1639.78 1477.56 1661.05 1497.92 C 1673.72 1510.06 1683.63 1525.64 1683.39 1543.75 C 1683.27 1552.7 1679.06 1562.75 1672.52 1568.8 C 1669.87 1568.98 1671.03 1569.36 1669.02 1567.7 C 1653.7 1535.13 1622.42 1514.54 1589.54 1502.18 C 1580.21 1498.68 1569.49 1497.26 1560.57 1492.99 C 1556.37 1490.97 1553.17 1487.43 1551.86 1482.92 C 1550.16 1477.1 1551.82 1470.99 1554.91 1465.93 C 1558.56 1459.97 1563.09 1457.79 1569.67 1456.13 z"/>
<path transform="translate(0,0)" fill="rgb(83,75,86)" d="M 1567.7 1464.05 C 1587.32 1463.27 1606.85 1471.12 1623.84 1480.35 C 1643.49 1491.04 1668.04 1508.43 1674.34 1531.08 C 1676.4 1538.5 1677.8 1552.2 1673.71 1559.33 L 1672.08 1557.35 C 1670.59 1554.64 1669.08 1551.93 1667.4 1549.33 C 1644.53 1514 1600.04 1494.62 1560.41 1486.06 C 1559.6 1482.16 1558.6 1477.74 1559.35 1473.75 C 1560.27 1468.89 1563.76 1466.52 1567.7 1464.05 z"/>
<path transform="translate(0,0)" fill="rgb(30,0,10)" d="M 0 0 L 327.052 0 L 333.224 0 L 484.142 0 L 489.956 0 L 521.499 0 L 527.631 0 L 564.315 0 L 565.803 0 L 570.872 0 L 581.818 0 L 589.002 0 L 741.115 0 L 747.653 0 L 787.903 0 L 795.37 0 L 998.278 0 L 1004.6 0 L 1054.99 0 L 1055.67 0 L 1354.18 0 L 1361.82 0 L 1442.25 0 L 1449.95 0 L 1492.77 0 L 1499.93 0 L 1648.6 0 L 1655.95 0 L 1823.71 0 L 1830.08 0 L 1925.19 0 L 1932.82 0 L 2048 0 L 2048 1318.64 L 2048 1326.31 A 26097.7 26097.7 0 0 1 1711.45 1137.33 L 907.746 686.327 L 641.012 540.525 C 572.535 503.357 503.873 466.628 436.71 427.088 C 421.779 418.298 384.344 399.996 374.001 389.251 C 370.699 385.821 369.593 379.621 369.016 375.088 C 367.33 361.858 368.062 347.852 368.028 334.504 L 367.972 265.107 C 354.149 265.778 340.257 266.93 326.471 268.172 C 325.455 319.267 327.286 370.455 325.905 421.557 C 315.311 432.411 301.22 441.33 289.009 450.413 A 3253.26 3253.26 0 0 1 211.096 507.194 A 12229.3 12229.3 0 0 1 0 657.73 L 0 649.379 L 0 0 z"/>
<path transform="translate(0,0)" fill="rgb(101,93,109)" d="M 1822.7 611.899 C 1824.63 613.871 1823.9 685.357 1823.92 695.07 C 1805.1 705.441 1785.02 714.162 1765.3 722.681 C 1762.89 708.376 1764.25 683.66 1764.01 668.298 C 1783.8 649.818 1802.27 629.604 1822.7 611.899 z"/>
<path transform="translate(0,0)" fill="rgb(108,97,120)" d="M 489.956 0 L 521.499 0 C 499.824 22.7769 459.89 38.0496 431.013 50.4886 A 21039.8 21039.8 0 0 1 433.922 416.56 L 424.13 410.894 L 423.993 127.493 C 423.954 115.407 425.847 61.0153 423.512 52.6761 C 420.489 53.6096 418.226 55.7364 415.391 57.0783 C 399.681 64.5132 390.019 68.5828 375.12 78.4421 L 373.007 76.7792 C 382.094 69.9943 392.588 64.6158 402.31 58.7379 C 428.145 43.1166 455.068 28.0381 479.918 10.9048 C 484.335 7.85994 488.935 5.49207 489.956 0 z"/>
<path transform="translate(0,0)" fill="rgb(101,93,109)" d="M 995.307 148.441 L 996.388 148.79 C 998.844 155.328 997.152 167.466 997.11 174.667 C 930.691 182.236 864.05 188.732 797.786 197.525 L 797.03 197.342 C 794.346 192.186 796.224 177.899 796.28 171.673 C 822.976 167.544 850.099 165.444 876.938 162.365 C 916.409 157.838 955.797 152.686 995.307 148.441 z"/>
<path transform="translate(0,0)" fill="rgb(101,93,109)" d="M 527.631 0 L 564.315 0 L 565.803 0 C 563.888 2.53423 564.039 4.20268 563.907 7.39106 C 563.278 22.6084 563.928 38.114 563.958 53.3579 L 564.02 144.949 C 564.009 259.957 565.228 375.111 563.928 490.103 A 673.415 673.415 0 0 0 540.907 477.825 C 538.908 427.75 540.776 377.345 540.722 327.226 C 540.604 218.571 540.733 109.594 537.993 0.979697 L 531.995 0.98291 L 529.556 1.33991 L 527.631 0 z"/>
<path transform="translate(0,0)" fill="rgb(108,97,120)" d="M 527.631 0 L 564.315 0 C 555.995 1.93234 546.539 1.09509 537.993 0.979697 L 531.995 0.98291 L 529.556 1.33991 L 527.631 0 z"/>
<path transform="translate(0,0)" fill="rgb(101,93,109)" d="M 416.074 62.8758 L 417.381 63.8657 C 418.854 73.4918 417.301 85.0843 417.183 94.9164 A 6332.21 6332.21 0 0 0 416.928 160.014 L 416.92 407.092 C 408.718 401.479 400.03 396.618 391.442 391.629 C 386.16 388.853 381.286 385.8 376.364 382.429 C 375.238 370.74 375.793 358.472 375.753 346.73 L 375.485 284.104 A 16061.2 16061.2 0 0 1 373.804 86.0851 C 386.642 77.2425 401.686 68.7577 416.074 62.8758 z"/>
<path transform="translate(0,0)" fill="rgb(101,93,109)" d="M 589.845 343.862 C 640.483 348.097 691.67 354.617 741.896 362.288 L 742.221 472.445 C 717.33 462.24 690.553 454.539 664.971 446.088 A 2428.56 2428.56 0 0 1 589.783 419.225 L 589.845 343.862 z"/>
<path transform="translate(0,0)" fill="rgb(101,93,109)" d="M 1501.24 474.195 C 1515.83 476.148 1530.39 479.425 1544.86 482.129 L 1624.36 497.118 L 1824.09 535.519 L 1824.04 590.751 C 1800.76 585.445 1777.71 579.09 1754.53 573.365 A 11263.9 11263.9 0 0 1 1609.79 537.916 C 1574.21 529.203 1537.48 518.551 1501.17 513.641 L 1501.24 474.195 z"/>
<path transform="translate(0,0)" fill="rgb(101,93,109)" d="M 1401.56 561.368 C 1418.24 567.392 1436.2 570.968 1453.26 576.026 L 1577.38 613.055 L 1701.98 650.224 C 1720.51 655.562 1739.09 661.661 1757.92 665.814 C 1756.88 683.664 1757.71 701.787 1757.93 719.667 C 1752.34 720.089 1710.54 704.501 1702.64 701.944 A 31461.4 31461.4 0 0 1 1401.94 603.363 L 1401.56 561.368 z"/>
<path transform="translate(0,0)" fill="rgb(101,93,109)" d="M 570.872 0 L 581.818 0 C 580.292 43.0303 581.997 86.7592 582.012 129.859 C 582.034 194.593 581.027 259.494 582.234 324.208 C 596.926 329.331 621.573 329.713 637.413 331.341 A 5616.65 5616.65 0 0 0 741.966 341.754 L 741.896 354.64 C 708.079 351.526 674.304 346.469 640.542 342.65 C 621.92 340.543 602.184 337.699 583.436 338.671 C 581.981 352.59 580.531 412.889 583.788 422.382 C 583.864 422.603 584.68 424.734 585.132 425.096 C 587.237 426.785 596.128 428.495 599.239 429.64 C 619.147 436.971 638.954 444.697 659.015 451.598 C 687.089 461.255 715.302 470.101 742.752 481.503 L 742.659 497.617 C 722.85 489.973 599.044 438.999 589.599 440.673 C 588.295 440.904 587.999 442.096 587.34 443.12 C 588.576 445.729 589.896 446.684 592.519 447.947 C 607.457 455.143 624.531 460.243 640.134 465.891 C 674.656 478.385 709.771 490.507 743.014 506.147 L 742.926 587.607 L 571.167 493.917 C 572.844 477.853 571.513 460.64 571.487 444.439 L 571.486 346.723 A 18341 18341 0 0 0 570.872 0 z"/>
<path transform="translate(0,0)" fill="rgb(101,93,109)" d="M 1449.95 0 L 1492.77 0 L 1494.16 514.007 L 1451.02 532.665 L 1450.65 229.757 C 1450.78 153.225 1452.01 76.5063 1449.95 0 z"/>
<path transform="translate(0,0)" fill="rgb(101,93,109)" d="M 747.653 0 L 787.903 0 A 24359.4 24359.4 0 0 0 789.002 246.621 L 789.344 612.313 C 776.577 605.044 763.462 596.689 749.848 591.186 L 747.653 0 z"/>
<path transform="translate(0,0)" fill="rgb(101,93,109)" d="M 1499.95 518.946 C 1530.68 524.628 1561.21 533.065 1591.55 540.603 L 1730.03 574.773 L 1786.71 588.695 C 1798.1 591.435 1813.91 593.207 1824.14 598.692 L 1824.21 600.157 C 1819.53 607.976 1772.39 650.88 1762.26 659.953 C 1754.15 658.34 1746.21 655.857 1738.26 653.564 C 1711.05 644.889 1683.5 637.398 1656.11 629.301 L 1535.4 593.418 C 1492.48 581.015 1450.3 567.062 1406.6 557.43 C 1438.27 547.49 1469.52 532.244 1499.95 518.946 z"/>
<path transform="translate(0,0)" fill="rgb(101,93,109)" d="M 996.206 180.48 L 997.239 182.507 C 997.078 184.488 996.756 186.936 997.027 188.898 C 998.936 202.754 997.574 218.513 997.679 232.653 L 997.954 335.551 C 939.22 326.265 879.124 321.926 819.987 315.593 A 460.969 460.969 0 0 0 796.331 313.755 C 795.5 277.307 796.172 240.692 796.19 204.227 C 816.778 202.88 837.566 199.291 858.104 196.994 A 7056.04 7056.04 0 0 0 996.206 180.48 z"/>
<path transform="translate(0,0)" fill="rgb(101,93,109)" d="M 795.37 0 L 998.278 0 C 996.675 15.1362 997.805 31.5156 997.734 46.7785 L 997.27 141.834 C 956.368 145.028 915.613 150.227 874.903 155.225 C 848.788 158.43 822.29 160.872 796.386 165.441 C 795.077 110.359 795.739 55.1068 795.37 0 z"/>
<path transform="translate(0,0)" fill="rgb(101,93,109)" d="M 1004.6 0 L 1054.99 0 C 1052.19 7.15931 1054.96 136.357 1055.03 159.672 L 1056.15 602.7 C 1056.13 655.335 1056.88 708.042 1056.28 760.667 C 1038.85 750.94 1022.05 740.019 1004.37 730.768 L 1004.39 169.876 C 1004.34 113.251 1005.38 56.6289 1004.6 0 z"/>
<path transform="translate(0,0)" fill="rgb(101,93,109)" d="M 529.556 1.33991 L 531.995 0.98291 A 42447.3 42447.3 0 0 1 532.866 472.926 C 503.097 454.618 471.549 439.277 441.753 420.843 L 439.26 135.803 C 438.806 108.776 439.122 81.7669 437.971 54.7518 C 442.975 53.3859 447.962 51.2512 452.739 49.2522 C 469.32 42.3144 523.587 15.8513 529.556 1.33991 z"/>
<path transform="translate(0,0)" fill="rgb(101,93,109)" d="M 589.002 0 L 741.115 0 L 741.992 335.322 C 725.94 332.136 708.452 331.506 692.108 329.781 A 3243.97 3243.97 0 0 0 589.276 319.861 C 588.622 280.092 589.159 240.229 589.186 200.452 L 589.002 0 z"/>
<path transform="translate(0,0)" fill="rgb(101,93,109)" d="M 796.182 320.848 A 5592.42 5592.42 0 0 1 906.496 332.284 C 936.796 335.581 967.187 338.433 997.432 342.189 C 997.025 353.591 997.288 365.05 997.323 376.459 C 936.632 369.426 875.814 359.931 814.945 354.853 C 809.981 354.439 803.293 353.668 799.315 356.979 L 799.594 358.725 C 808.647 363.675 975.717 381.091 997.882 383.772 L 997.957 506.778 L 997.603 726.452 C 981.764 717.286 965.266 709.097 949.259 700.185 A 5416.99 5416.99 0 0 0 796.696 616.784 C 796.071 518.132 797.491 419.494 796.182 320.848 z"/>
<path transform="translate(0,0)" fill="rgb(101,93,109)" d="M 1499.93 0 L 1648.6 0 C 1649.89 62.0675 1649.68 124.272 1650.18 186.361 L 1651.82 496.105 C 1602.37 485.209 1551.63 475.961 1501.56 468.544 L 1499.93 0 z"/>
<path transform="translate(0,0)" fill="rgb(101,93,109)" d="M 1655.95 0 L 1823.71 0 C 1822.39 76.8353 1823.4 153.892 1823.73 230.742 L 1824.42 528.547 A 7611.4 7611.4 0 0 0 1743.27 512.514 C 1715.33 507.058 1687.17 501.332 1658.91 497.744 L 1655.95 0 z"/>
<path transform="translate(0,0)" fill="rgb(101,93,109)" d="M 1830.08 0 L 1925.19 0 L 1925.3 845.23 L 1925 1100.79 C 1924.94 1149.77 1925.85 1199 1924.08 1247.95 L 1831.91 1196.14 L 1830.84 341.506 C 1830.8 227.699 1831.51 113.794 1830.08 0 z"/>
<path transform="translate(0,0)" fill="rgb(101,93,109)" d="M 1932.82 0 L 2048 0 L 2048 1318.64 C 2009.36 1296.15 1971.12 1271.88 1931.05 1252.01 L 1932.82 0 z"/>
<path transform="translate(0,0)" fill="rgb(101,93,109)" d="M 0 0 L 327.052 0 L 333.224 0 L 484.142 0 L 489.956 0 C 488.935 5.49207 484.335 7.85994 479.918 10.9048 C 455.068 28.0381 428.145 43.1166 402.31 58.7379 C 392.588 64.6158 382.094 69.9943 373.007 76.7792 L 375.12 78.4421 C 371.243 81.6083 368.819 83.5393 368.21 88.7979 C 366.122 106.807 367.741 126.687 367.782 144.86 L 368.063 257.921 C 352.203 258.591 335.458 258.908 319.818 261.46 C 317.501 313.559 318.904 366.386 318.906 418.563 C 295.934 438.183 269.969 454.96 245.631 472.869 A 14212.1 14212.1 0 0 1 71.5059 598.319 A 4318.61 4318.61 0 0 0 21.6409 633.758 C 14.5284 638.878 6.67419 643.729 0 649.379 L 0 0 z"/>
<path transform="translate(0,0)" fill="rgb(101,93,109)" d="M 327.052 0 L 333.224 0 L 484.142 0 L 489.956 0 C 488.935 5.49207 484.335 7.85994 479.918 10.9048 C 455.068 28.0381 428.145 43.1166 402.31 58.7379 C 392.588 64.6158 382.094 69.9943 373.007 76.7792 C 366.531 80.9753 334.473 103.015 328.747 102.708 C 327.281 101.206 326.679 99.9182 326.452 97.8049 C 325.466 88.6091 326.757 78.3223 326.837 68.9996 L 327.052 0 z"/>
<path transform="translate(0,0)" fill="rgb(30,0,10)" d="M 327.052 0 L 333.224 0 A 5301.67 5301.67 0 0 1 333.397 93.1337 L 450.599 20.8889 C 461.825 14.0323 472.755 6.56542 484.142 0 L 489.956 0 C 488.935 5.49207 484.335 7.85994 479.918 10.9048 C 455.068 28.0381 428.145 43.1166 402.31 58.7379 C 392.588 64.6158 382.094 69.9943 373.007 76.7792 C 366.531 80.9753 334.473 103.015 328.747 102.708 C 327.281 101.206 326.679 99.9182 326.452 97.8049 C 325.466 88.6091 326.757 78.3223 326.837 68.9996 L 327.052 0 z"/>
<path transform="translate(0,0)" fill="rgb(101,93,109)" d="M 1055.67 0 L 1354.18 0 L 1361.82 0 L 1442.25 0 C 1444.53 49.2347 1442.9 100.063 1442.98 149.438 C 1443.18 278.485 1440.95 407.747 1443.04 536.763 C 1426.71 543.362 1409.95 549.236 1394.21 557.14 C 1397.55 567.938 1395.62 596.698 1395.92 609.661 L 1441.21 623.971 C 1440.4 651.018 1441.04 678.278 1440.97 705.348 L 1440.59 867.186 L 1440.38 937.499 C 1440.37 946.93 1439.04 958.55 1440.8 967.642 C 1441.26 970.02 1442.08 970.829 1444.01 972.128 L 1445.72 971.509 C 1446.56 970.171 1447.17 969.007 1447.31 967.4 C 1448.37 955.419 1447.42 942.442 1447.42 930.367 L 1447.47 857.247 L 1447.99 625.991 C 1470.58 634.008 1493.63 640.916 1516.41 648.441 L 1672.34 699.621 C 1692.6 706.218 1750.06 722.747 1763.61 731.512 C 1784.34 722.408 1805.41 713.823 1824.27 701.154 L 1824.1 1021.82 C 1824.2 1078.54 1825.51 1135.39 1823.99 1192.1 L 1385.36 945.744 L 1214.3 849.603 C 1164.09 821.001 1114.42 791.297 1063.14 764.612 C 1061.49 689.421 1064.59 7.99024 1060.43 0.987919 L 1055.67 0 z"/>
<path transform="translate(0,0)" fill="rgb(30,0,10)" d="M 1354.18 0 L 1361.82 0 C 1362.63 78.2199 1361.81 156.512 1361.72 234.737 L 1361.92 649.736 L 1362.02 818.822 C 1362.02 852.611 1360.94 886.87 1363.18 920.582 C 1363.39 923.684 1363.65 926.818 1361.56 929.33 C 1358.95 929.298 1358.12 928.487 1355.93 927.154 C 1352.14 918.048 1354.02 689.764 1354.01 659.546 L 1354.18 0 z"/>
</svg>