<svg version="1.1" xmlns="http://www.w3.org/2000/svg" style="display: block;" viewBox="0 0 2048 2048" width="1024" height="1024">
<defs>
	<linearGradient id="Gradient1" gradientUnits="userSpaceOnUse" x1="845.521" y1="1867.56" x2="805.013" y2="1863.15">
		<stop class="stop0" offset="0" stop-opacity="1" stop-color="rgb(127,97,96)"/>
		<stop class="stop1" offset="1" stop-opacity="1" stop-color="rgb(160,114,108)"/>
	</linearGradient>
	<linearGradient id="Gradient2" gradientUnits="userSpaceOnUse" x1="858.96" y1="1429.63" x2="845.088" y2="1428.88">
		<stop class="stop0" offset="0" stop-opacity="1" stop-color="rgb(20,24,24)"/>
		<stop class="stop1" offset="1" stop-opacity="1" stop-color="rgb(17,22,36)"/>
	</linearGradient>
	<linearGradient id="Gradient3" gradientUnits="userSpaceOnUse" x1="548.415" y1="683.766" x2="536.307" y2="673.826">
		<stop class="stop0" offset="0" stop-opacity="1" stop-color="rgb(11,19,26)"/>
		<stop class="stop1" offset="1" stop-opacity="1" stop-color="rgb(36,32,31)"/>
	</linearGradient>
	<linearGradient id="Gradient4" gradientUnits="userSpaceOnUse" x1="398.149" y1="895.263" x2="433.954" y2="812.646">
		<stop class="stop0" offset="0" stop-opacity="1" stop-color="rgb(15,25,29)"/>
		<stop class="stop1" offset="1" stop-opacity="1" stop-color="rgb(29,34,48)"/>
	</linearGradient>
	<linearGradient id="Gradient5" gradientUnits="userSpaceOnUse" x1="496.498" y1="674.877" x2="519.362" y2="665.482">
		<stop class="stop0" offset="0" stop-opacity="1" stop-color="rgb(13,23,43)"/>
		<stop class="stop1" offset="1" stop-opacity="1" stop-color="rgb(34,38,45)"/>
	</linearGradient>
</defs>
<path transform="translate(0,0)" fill="rgb(24,30,41)" d="M 0 0 L 2048 0 L 2048 2048 L 2029.83 2048 L 2018.14 2048 L 1917.88 2048 L 1915.51 2048 L 1683.02 2048 L 1666.24 2048 L 1544.67 2048 L 1525.28 2048 L 1258.29 2048 L 1252.36 2048 L 1198.25 2048 L 1187.04 2048 L 1064.04 2048 L 1057.19 2048 L 1043.09 2048 L 1038.43 2048 L 960.202 2048 L 951.219 2048 L 876.191 2048 L 869.437 2048 L 833.867 2048 L 828.24 2048 L 816.948 2048 L 811.48 2048 L 767.902 2048 L 764.794 2048 L 645.726 2048 L 630.724 2048 L 0 2048 L 0 0 z"/>
<path transform="translate(0,0)" fill="rgb(254,254,254)" d="M 433.043 1035.07 C 428.97 1037.8 426.269 1039.01 421.295 1038.57 C 419.359 1037.59 418.385 1036.99 417.173 1035.1 C 413.666 1029.64 414.704 1018.87 415.999 1012.9 C 416.994 1008.31 418.698 1001.82 422.885 999.154 L 424.712 999.923 C 425.918 1004.46 423.003 1010.09 423.886 1015.38 C 423.779 1022.87 429.008 1029.14 433.043 1035.07 z"/>
<path transform="translate(0,0)" fill="rgb(91,77,74)" d="M 864.053 1285.2 C 864.672 1282.3 864.734 1279.49 866.692 1277.21 C 879.258 1287.93 904.594 1318 914.123 1331.86 C 911.112 1339.6 908.483 1347.95 904.757 1355.35 C 892.356 1342.89 873.771 1306.09 864.184 1289.8 L 864.053 1285.2 z"/>
<path transform="translate(0,0)" fill="rgb(253,239,188)" d="M 445.443 988.532 C 463.643 985.105 483.353 991.438 501.704 993.198 C 500.409 995.912 487.05 999.757 483.55 1001.28 C 465.048 1009.35 448.582 1022.37 433.043 1035.07 C 429.008 1029.14 423.779 1022.87 423.886 1015.38 C 425.106 1010.99 426.183 1006.22 428.011 1002.06 C 429.235 999.271 431.533 995.58 434.418 994.352 C 434.167 997.74 433.805 1001.1 434.428 1004.45 C 435.709 1001.02 436.899 997.385 438.551 994.112 C 440.169 990.906 442.092 989.557 445.443 988.532 z"/>
<path transform="translate(0,0)" fill="rgb(253,239,188)" d="M 399.725 943.986 C 427.148 938.56 456.292 959.21 478.052 973.768 C 482.802 976.946 487.529 980.128 492.062 983.614 C 473.523 979.506 430.453 966.374 414.837 976.182 L 413.684 976.888 C 412.61 976.655 411.662 976.52 410.671 975.955 C 405.503 973.009 401.218 962.906 399.465 957.26 C 397.948 952.375 397.362 948.614 399.725 943.986 z"/>
<path transform="translate(0,0)" fill="rgb(149,103,102)" d="M 1041.86 1672.98 A 2218.65 2218.65 0 0 0 1044.89 1932.2 C 1046.78 1956.49 1048.98 1980.89 1051.89 2005.08 C 1053.6 2019.23 1056.58 2033.8 1057.19 2048 L 1043.09 2048 L 1038.43 2048 L 1037.93 2041.21 C 1038.1 2038.63 1038.06 2035.49 1038.65 2033 C 1039.23 2030.54 1039.84 2030.16 1041.83 2029.03 C 1040.19 1993.09 1035.36 1957.14 1033.25 1921.16 C 1030.13 1867.89 1030.34 1814.4 1030.97 1761.07 C 1031.21 1740.39 1029.75 1709.05 1033.74 1689.55 C 1034.85 1684.1 1039.18 1677.89 1041.86 1672.98 z"/>
<path transform="translate(0,0)" fill="rgb(10,16,18)" d="M 1037.93 2041.21 C 1038.1 2038.63 1038.06 2035.49 1038.65 2033 C 1039.23 2030.54 1039.84 2030.16 1041.83 2029.03 C 1042.29 2035.32 1043.01 2041.71 1043.09 2048 L 1038.43 2048 L 1037.93 2041.21 z"/>
<path transform="translate(0,0)" fill="rgb(149,103,102)" d="M 944.094 1389.51 C 945.259 1390.65 945.137 1390.4 945.931 1391.6 C 956.452 1407.56 966.639 1444.53 967.826 1463.76 C 968.449 1473.84 967.239 1483.7 965.394 1493.59 C 958.259 1499.19 951.37 1502.71 942.605 1505.05 C 938.222 1505.14 933.819 1505.27 929.852 1503.14 C 924.592 1500.3 921.458 1495.13 919.989 1489.48 C 913.331 1463.85 930.641 1411.73 944.094 1389.51 z"/>
<path transform="translate(0,0)" fill="rgb(108,107,102)" d="M 1427.51 878.393 C 1434.97 877.69 1443.88 876.729 1451.04 879.217 C 1457.02 881.297 1461.26 885.554 1463.79 891.317 C 1472.27 910.662 1463.46 934.388 1455.88 952.417 C 1445.96 947.035 1436.56 940.364 1427.08 934.231 C 1406.28 919.74 1386.87 904.333 1367.47 888.031 C 1387.45 884.847 1407.38 880.359 1427.51 878.393 z"/>
<path transform="translate(0,0)" fill="url(#Gradient1)" d="M 816.948 2048 C 814.699 2010.28 812.144 1972.58 811.302 1934.79 A 1839.43 1839.43 0 0 1 816.52 1754.75 C 818.358 1730.08 819.66 1698.88 825.836 1675.39 C 828.299 1683.12 833.128 1693.02 833.377 1701.07 C 833.865 1716.85 830.258 1733.86 829.056 1749.73 C 826.529 1783.07 824.608 1816.9 823.494 1850.31 A 1995.14 1995.14 0 0 0 824.237 1974.05 C 825.316 1998.67 827.647 2023.37 828.24 2048 L 816.948 2048 z"/>
<path transform="translate(0,0)" fill="rgb(149,103,102)" d="M 913.659 1454.74 C 914.76 1463.23 911.736 1472.76 912.08 1481.53 C 912.443 1490.83 915.903 1501.45 923.055 1507.78 C 927.868 1512.03 933.928 1513.54 940.25 1513.15 C 961.591 1511.8 980.525 1491.95 995.59 1478.64 C 1004.46 1470.81 1013.59 1463.24 1021.32 1454.23 L 1008.08 1493.22 A 833.336 833.336 0 0 1 989.359 1542.76 C 984.652 1545.48 979.8 1548.32 974.753 1550.35 C 961.965 1555.47 949.275 1556.03 936.561 1550.26 A 56.0756 56.0756 0 0 1 907.242 1518.48 C 899.431 1496.72 903.965 1474.96 913.659 1454.74 z"/>
<path transform="translate(0,0)" fill="rgb(108,107,102)" d="M 864.184 1289.8 C 873.771 1306.09 892.356 1342.89 904.757 1355.35 C 886.565 1401.01 872.672 1452.57 866.542 1501.38 C 863.252 1527.58 859.865 1554.56 858.612 1580.92 C 858.366 1586.1 859.644 1609.42 858.05 1611.81 L 856.274 1611.06 C 855.273 1582.29 851.465 1553.56 850.259 1524.74 C 847.125 1449.88 850.829 1363.39 864.184 1289.8 z"/>
<path transform="translate(0,0)" fill="rgb(253,239,188)" d="M 833.867 2048 A 2455.27 2455.27 0 0 1 831.161 1821.46 C 832.695 1785.48 836.096 1749.57 838.435 1713.64 C 842.619 1725.22 852.834 1746.95 854.474 1758.05 C 856.35 1770.75 853.852 1785.58 853.371 1798.49 C 852.77 1814.59 852.986 1830.76 852.965 1846.87 C 852.88 1913.42 856.832 1982.55 869.437 2048 L 833.867 2048 z"/>
<path transform="translate(0,0)" fill="rgb(253,239,188)" d="M 805.015 1310.96 C 808.107 1315.55 803.888 1336.5 803.551 1342.84 A 736.349 736.349 0 0 0 804.062 1418.71 A 839.317 839.317 0 0 0 828.567 1568.87 C 836.725 1601.6 850.665 1633.85 856.252 1667 C 860.563 1692.58 858.862 1718.52 857.552 1744.26 C 855.591 1736.15 853.153 1728.14 850.87 1720.11 C 845.518 1699.55 836.357 1680.14 830.251 1659.77 C 815.282 1609.83 802.212 1559.97 790.665 1509.11 C 782.558 1473.41 774.567 1436.94 770.768 1400.49 C 766.158 1356.26 778.515 1343.5 805.015 1310.96 z"/>
<path transform="translate(0,0)" fill="rgb(253,239,188)" d="M 822.328 1235 C 834.321 1245.09 853.249 1259.09 861.928 1271.74 C 863.267 1273.69 862.757 1273.73 862.351 1275.91 C 864.562 1279.37 864.066 1281.16 864.053 1285.2 L 864.184 1289.8 C 850.829 1363.39 847.125 1449.88 850.259 1524.74 C 851.465 1553.56 855.273 1582.29 856.274 1611.06 L 854.151 1611.48 C 856.423 1625.74 858.641 1639.71 859.062 1654.18 C 852.845 1626.36 843.927 1599.16 837.697 1571.35 C 821.735 1500.09 810.08 1425.59 811.22 1352.39 C 811.765 1317.41 816.986 1269.71 822.328 1235 z"/>
<path transform="translate(0,0)" fill="url(#Gradient2)" d="M 862.351 1275.91 C 864.562 1279.37 864.066 1281.16 864.053 1285.2 L 864.184 1289.8 C 850.829 1363.39 847.125 1449.88 850.259 1524.74 C 851.465 1553.56 855.273 1582.29 856.274 1611.06 L 854.151 1611.48 A 1031.16 1031.16 0 0 1 847.878 1372.18 C 850.642 1340.2 854.564 1307.08 862.351 1275.91 z"/>
<path transform="translate(0,0)" fill="rgb(189,146,137)" d="M 1297.23 672.358 C 1317.49 652.245 1334.19 628.357 1348.7 603.854 C 1355.96 591.601 1362.51 578.623 1370.78 567.036 C 1425.5 643.114 1472.17 724.201 1498.22 814.809 C 1437.98 811.635 1390.43 825.447 1332.74 838.379 C 1311.48 827.715 1286 819.216 1261.9 823.189 C 1260.16 818.403 1258.22 814.189 1255.78 809.737 C 1260.01 802.26 1263.86 794.622 1267.69 786.935 C 1275.6 789.853 1283.53 790.551 1291.89 790.837 C 1294.65 789.718 1297.14 788.608 1299.35 786.529 C 1305.85 780.397 1305.52 771.615 1305.9 763.335 C 1311.37 765.106 1316.89 765.565 1322.56 764.44 C 1331.23 762.717 1337.95 757.729 1342.74 750.401 C 1345.09 748.393 1346.62 744.126 1347.45 741.255 C 1354.85 715.536 1327.92 706.408 1312.9 692.937 C 1306.5 687.192 1301.45 679.801 1297.23 672.358 z"/>
<path transform="translate(0,0)" fill="rgb(149,103,102)" d="M 920.434 1341.54 C 926.799 1355.07 935.262 1367.48 941.298 1381.16 A 419.546 419.546 0 0 0 927.096 1411.61 C 922.612 1422.31 919.372 1433.36 912.797 1443.01 C 899.422 1462.63 892.931 1492.03 897.889 1515.4 C 901.3 1531.48 910.508 1544.48 924.448 1553.24 C 936.976 1561.12 951.386 1565.41 966.109 1561.67 C 974.051 1559.66 980.894 1555.68 987.391 1550.79 C 979.693 1572.84 972.256 1594.84 966.562 1617.51 C 943.011 1711.3 940.168 1809.78 942.769 1905.97 C 944.056 1953.57 946.215 2000.61 951.219 2048 L 876.191 2048 C 874.998 2028.01 872.34 2008.08 870.72 1988.11 A 1712.55 1712.55 0 0 1 865.427 1883.68 C 864.665 1848.01 864.454 1812 865.777 1776.35 C 866.763 1749.74 869.226 1723.24 869.82 1696.6 C 870.538 1664.41 869.299 1632.16 870.332 1599.98 C 871.838 1553.11 875.524 1504.99 885.647 1459.12 C 891.27 1433.64 899.136 1408.63 907.004 1383.78 C 911.446 1369.75 915.26 1355.3 920.434 1341.54 z"/>
<path transform="translate(0,0)" fill="rgb(108,107,102)" d="M 1263.68 828.965 C 1278.73 830.004 1294.24 832.862 1308.4 838.171 C 1328.4 845.673 1340.52 857.183 1349.15 876.739 C 1372.31 929.192 1370.16 991.987 1348.87 1044.7 C 1345.27 1053.63 1340.41 1064 1335.81 1072.48 C 1333.77 1076.23 1330.94 1079.46 1329.38 1083.46 L 1330.41 1083.62 C 1331.52 1082.86 1331.65 1082.85 1332.7 1081.67 C 1337.88 1075.87 1341.86 1064.75 1345.31 1057.7 C 1369.56 1008.04 1376.24 957.727 1367.76 903.299 C 1386.94 926.275 1424.18 948.64 1450.1 964.702 C 1412 1041.68 1297.57 1124.18 1233.77 1183.64 C 1174.98 1238.44 1123.56 1296.4 1080.05 1364.13 C 1060.83 1394.96 1043.7 1426.77 1026.35 1458.66 C 1029.76 1440.53 1036.02 1422.65 1041.57 1405.07 C 1069.41 1316.9 1110.5 1233.77 1156.09 1153.52 C 1178.43 1114.18 1203.76 1076.56 1228.25 1038.53 C 1245.1 1012.36 1263.48 985.448 1275.64 956.724 C 1282.2 941.245 1286.59 924.225 1287.44 907.397 C 1288.58 885.045 1282.12 865.593 1267.18 848.943 C 1271.83 856.335 1275.25 863.239 1277.29 871.73 C 1286.74 911.049 1268.81 951.436 1248.83 984.363 C 1225.68 961.749 1194.74 915.659 1177.13 887.532 C 1182.48 883.293 1185.43 879.132 1188.58 873.175 C 1195.2 877.579 1203.15 880.958 1211.06 881.966 C 1223.16 883.51 1234.7 879.25 1244.18 871.843 C 1258.81 860.409 1261.68 846.323 1263.68 828.965 z"/>
<path transform="translate(0,0)" fill="rgb(253,239,188)" d="M 759.835 1447.41 C 769.932 1493.24 782.866 1539.3 796.786 1584.11 C 801.729 1600.03 807.153 1615.82 812.325 1631.66 C 815.536 1641.49 819.746 1651.83 820.837 1662.17 C 822.403 1677.01 815.464 1701.15 813.526 1716.88 C 810.747 1739.43 809.144 1762.24 807.781 1784.92 A 1843.14 1843.14 0 0 0 811.48 2048 L 767.902 2048 L 764.794 2048 L 645.726 2048 C 659.735 2003.15 672.094 1959.34 681.005 1913.13 C 690.586 1948.52 701.369 1982.93 715.02 2017.01 C 702.592 1949.96 679.467 1885.36 674.35 1816.82 C 672.551 1792.71 677.318 1767.77 681.051 1744.01 C 684 1725.25 686.592 1706.29 690.205 1687.65 C 695.254 1661.59 701.455 1635.7 706.914 1609.72 A 2177.36 2177.36 0 0 1 726.338 1522.39 C 729.518 1509.49 732.352 1496.16 736.78 1483.64 C 739.647 1475.53 744.041 1467.94 748.899 1460.88 C 752.153 1456.15 755.784 1451.48 759.835 1447.41 z"/>
<path transform="translate(0,0)" fill="rgb(24,30,41)" d="M 703.064 1650.15 C 717.152 1685.95 723.492 1732.3 730.121 1770.46 A 3636.81 3636.81 0 0 1 767.902 2048 L 764.794 2048 C 759.83 2020.71 754.823 1993.05 748.182 1966.13 C 738.333 1926.2 725.397 1886.33 711.408 1847.65 C 702.795 1823.84 694.242 1798.84 680.009 1777.69 C 714.748 1810.94 727.975 1868.3 743.079 1912.76 C 740.863 1873.05 731.504 1833.72 725.019 1794.59 C 717.055 1746.54 710.765 1698.23 703.064 1650.15 z"/>
<path transform="translate(0,0)" fill="rgb(253,239,188)" d="M 1388.98 1265.68 C 1400.99 1259.59 1414.28 1255.49 1427.22 1251.8 C 1480.77 1236.51 1535.64 1236.11 1590.14 1246.74 C 1624.46 1253.44 1657.47 1263.57 1692.23 1268.4 C 1783.47 1386.15 1847.49 1526.88 1900.69 1665.32 A 2862.34 2862.34 0 0 1 2018.14 2048 L 1917.88 2048 C 1915.73 2031.5 1915.05 2014.89 1912.58 1998.35 A 1672.24 1672.24 0 0 0 1840.39 1702.48 C 1801.45 1589.16 1724.76 1415.6 1610.79 1360.52 C 1566.47 1339.1 1518.37 1334.4 1471.57 1350.74 L 1467.05 1352.38 C 1461.21 1345.11 1456.15 1337.1 1450.44 1329.7 C 1432.35 1306.25 1411.11 1283.59 1386.31 1267.31 L 1388.98 1265.68 z"/>
<path transform="translate(0,0)" fill="rgb(10,16,18)" d="M 1386.31 1267.31 L 1388.98 1265.68 C 1424.52 1284.33 1449.97 1317.93 1471.57 1350.74 L 1467.05 1352.38 C 1461.21 1345.11 1456.15 1337.1 1450.44 1329.7 C 1432.35 1306.25 1411.11 1283.59 1386.31 1267.31 z"/>
<path transform="translate(0,0)" fill="rgb(253,239,188)" d="M 1341.19 845.472 C 1389.48 839.754 1437.19 821.484 1486.48 829.145 C 1516.03 833.738 1542.36 847.425 1559.94 872.002 C 1580.13 900.223 1583.95 935.526 1578.19 969.007 C 1561.89 1063.72 1484.56 1118.79 1411.78 1170.36 C 1365.36 1200.46 1316.37 1227.98 1271.71 1260.6 C 1184.94 1323.96 1119.86 1415.95 1070.38 1510.08 C 1053.92 1541.38 1039.55 1573.04 1026.27 1605.84 C 1021.04 1618.77 1014.73 1632.76 1011.39 1646.3 C 1013.13 1649.6 1011.16 1651.23 1013.85 1654 C 1025.93 1628.94 1034.53 1602.05 1046.49 1576.84 C 1101.4 1461.05 1178.89 1337.78 1282.41 1260.03 C 1325.34 1227.79 1372.9 1202.38 1417.35 1172.37 C 1431.21 1164.59 1444.22 1155 1457.23 1145.88 C 1514.71 1105.62 1566.69 1056.16 1586.55 986.375 A 177.998 177.998 0 0 0 1588.95 899.687 C 1620.59 911.627 1662.26 923.739 1677.58 957.039 C 1689.69 983.374 1684.03 1015.97 1674.22 1042.09 C 1666.25 1063.31 1654.43 1084.27 1638.63 1100.67 C 1632.28 1107.26 1625.2 1113.18 1618.91 1119.81 C 1654.21 1106.06 1677.74 1075.31 1692.62 1041.37 C 1696.98 1031.42 1699.98 1021.02 1702.89 1010.57 C 1737.69 1058.96 1811.06 1137.34 1800.56 1200.19 A 59.7236 59.7236 0 0 1 1776.21 1239.03 C 1746.86 1259.94 1704.6 1258.18 1670.89 1252.23 C 1638.78 1246.56 1607.61 1236.98 1575.34 1231.93 C 1513.21 1222.2 1444.51 1228.37 1386.52 1253.57 C 1365.99 1262.49 1345.73 1274.91 1327.43 1287.77 C 1308.54 1301.04 1291.25 1316.67 1274.38 1332.38 C 1177.71 1422.39 1096.19 1543.98 1037 1661.93 C 1028.35 1679.17 1019.38 1696.56 1011.89 1714.33 C 991.679 1762.27 975.528 1814.35 966.701 1865.63 C 963.402 1884.79 960.048 1905.69 960.321 1925.12 C 966.756 1904.13 968.547 1880.92 973.49 1859.41 C 985.711 1806.22 1003.31 1751.89 1026.94 1702.68 C 1027.06 1733.26 1024.25 1764.1 1023.92 1794.76 A 1974 1974 0 0 0 1030.4 1969.99 C 1032.27 1993.25 1033.01 2018.42 1037.93 2041.21 L 1038.43 2048 L 960.202 2048 C 955.485 2001.99 954.523 1955.72 953.35 1909.51 C 948.593 1722.07 965.316 1589.7 1058.15 1423.21 C 1102.59 1343.51 1156.92 1273.44 1221.93 1209.54 C 1270.28 1162.02 1324.07 1120 1373.38 1073.39 C 1396.42 1051.62 1420.03 1028.48 1438.76 1002.83 C 1458.3 976.055 1481.63 936.876 1475.96 902.203 C 1474.31 892.077 1470.21 882.589 1461.41 876.734 C 1439.84 862.377 1388.03 879.06 1363.5 884.638 C 1357.65 869.327 1351.88 857.93 1341.19 845.472 z"/>
<path transform="translate(0,0)" fill="rgb(10,16,18)" d="M 1011.39 1646.3 C 1013.13 1649.6 1011.16 1651.23 1013.85 1654 C 1004.72 1677.95 996.159 1701.58 988.511 1726.04 C 985.975 1734.15 982.664 1741.96 980.832 1750.29 C 980.744 1750.69 980.665 1751.09 980.581 1751.49 C 977.856 1741.36 1005.63 1661.6 1011.39 1646.3 z"/>
<path transform="translate(0,0)" fill="rgb(24,30,41)" d="M 1718.51 1089.91 L 1719.29 1090.51 C 1719.22 1090.87 1719.18 1091.24 1719.08 1091.6 C 1714.97 1106.67 1696.78 1123.75 1683.83 1131.56 C 1651.72 1150.92 1606.9 1153.9 1571.11 1145.31 C 1569.26 1144.76 1568.41 1144.45 1566.8 1143.31 C 1586.95 1144.14 1605.53 1144.2 1625.6 1141 C 1664.02 1134.89 1695.22 1121.91 1718.51 1089.91 z"/>
<path transform="translate(0,0)" fill="rgb(24,30,41)" d="M 631.127 182.979 C 643.96 171.197 659.779 163.051 675.231 155.211 C 741.384 121.643 825.116 100.932 899.536 104.108 A 482.019 482.019 0 0 1 981.806 115.507 C 999.651 119.48 1018 125.232 1036.23 126.643 C 1069.09 129.187 1103 126.13 1136 126.336 C 1224.07 126.884 1319.5 145.746 1381.64 213.19 C 1420.33 255.186 1431.95 303.172 1429.38 359.313 C 1426.94 412.57 1413.55 463.597 1393.85 513.001 C 1386.6 531.196 1378.26 548.94 1370.78 567.036 C 1362.51 578.623 1355.96 591.601 1348.7 603.854 C 1334.19 628.357 1317.49 652.245 1297.23 672.358 C 1301.45 679.801 1306.5 687.192 1312.9 692.937 C 1327.92 706.408 1354.85 715.536 1347.45 741.255 C 1346.62 744.126 1345.09 748.393 1342.74 750.401 C 1337.95 757.729 1331.23 762.717 1322.56 764.44 C 1316.89 765.565 1311.37 765.106 1305.9 763.335 C 1305.52 771.615 1305.85 780.397 1299.35 786.529 C 1297.14 788.608 1294.65 789.718 1291.89 790.837 C 1290.73 788.909 1290.59 787.168 1290.22 784.987 C 1283.59 784.018 1278.03 782.366 1272.19 779.026 C 1270.53 774.996 1268.45 769.743 1265.53 766.508 C 1263.6 786.256 1260.46 789.261 1249.83 805.13 C 1247.12 800.517 1244.48 795.918 1241.23 791.658 L 1240.02 791.729 C 1236.51 800.917 1250.39 813.285 1252.74 822.856 A 39.6235 39.6235 0 0 1 1248.14 853.154 A 39.6738 39.6738 0 0 1 1222.56 870.819 C 1204.6 874.347 1191.29 865.393 1177.29 855.804 C 1178.6 859.746 1179.93 864.053 1179.2 868.237 C 1178.04 874.861 1173.72 880.7 1168.02 884.154 C 1161.56 888.07 1153.89 888.83 1146.67 886.754 C 1129.37 881.772 1122.2 866.352 1114.41 851.785 L 1101.88 848.29 C 1102.86 845.36 1103.88 842.407 1104.64 839.408 C 1105.72 835.097 1107.37 828.038 1105.02 824.217 C 1100.3 827.526 1098.88 834.207 1097.08 839.366 C 1094.37 847.118 1090.61 852.297 1082.97 855.768 C 1074.87 859.454 1068.42 860.201 1060.02 856.956 C 1052.58 854.079 1046 849.455 1042.87 841.869 C 1035.51 824.024 1048.4 802.318 1055.6 786.265 C 1052.02 784.215 1048.35 782.187 1045.13 779.594 C 1034.81 771.279 1034.29 760.141 1032.92 747.946 A 409.621 409.621 0 0 0 1035.71 742.559 C 1060.57 693.667 1070.53 636.415 1052.92 583.191 C 1045.4 560.469 1030.99 539.052 1009.01 528.28 C 995.067 521.442 979.682 520.404 964.931 525.474 C 937.474 534.913 917.409 560.488 904.393 585.385 C 900.289 593.237 897.137 601.557 893.158 609.473 C 890.537 614.687 886.721 621.252 880.909 623.161 C 871.755 620.838 862.535 607.533 856.713 600.614 C 860.849 608.043 864.944 615.425 868.517 623.148 C 863.393 625.68 857.952 628.077 853.963 632.295 C 847.077 639.578 848.019 649.553 848.057 658.819 C 834.434 656.436 822.907 651.785 812.554 642.49 L 811.194 642.463 C 809.656 639.461 809.057 636.794 808.455 633.487 L 809.312 635.245 L 808.176 633.933 C 807.785 640.653 809.398 642.769 813.131 648.186 C 814.251 649.813 813.808 649.086 814.716 650.914 C 812.842 649.418 810.945 647.785 809.43 645.916 C 805.635 641.23 806.623 635.08 807.264 629.562 C 805.013 628.569 802.754 627.561 800.631 626.31 C 796.301 623.759 792.247 620.167 791.153 615.045 C 789.192 605.853 797.263 596.262 802.035 589.222 C 799.378 587.648 796.803 585.995 794.517 583.902 C 791.231 580.894 789.089 577.214 789.118 572.685 C 789.169 564.743 797.615 558.158 802.967 553.395 C 799.513 551.517 795.668 549.543 793.236 546.355 C 787.764 539.183 791.138 532.436 792.488 524.607 C 789.072 521.011 780.24 521.031 775.492 518.217 C 772.869 516.663 770.416 514.462 770.059 511.247 C 769.269 504.13 776.905 495.152 781.556 490.383 C 762.009 480.554 770.63 473.125 762.521 465.964 C 758.689 464.963 754.73 467.493 750.98 468.342 C 747.862 469.047 745.29 468.809 742.621 466.854 C 736.139 462.108 734.438 450.079 733.236 442.712 C 730.101 441.761 726.779 440.855 724.364 438.507 C 711.719 426.21 740.837 405.754 739.925 391.627 C 739.148 379.584 717.178 387.243 707.155 377.44 C 700.497 370.928 705.472 363.65 704.617 355.92 C 703.411 345.011 682.592 348.601 675.582 341.691 C 664.421 330.689 674.335 313.896 673.988 301.082 C 673.523 283.896 650.175 284.581 638.438 278.771 C 634.227 276.686 630.51 272.813 627.046 269.672 C 602.514 271.168 576.311 281.94 554.972 293.584 C 500.09 323.529 473.397 366.137 445.344 419.408 C 438.026 433.306 429.019 447.986 424.619 463.15 L 425.678 464.308 L 427.096 465.084 C 415.279 473.32 410.878 501.79 408.489 515.105 C 404.364 538.097 403.051 560.802 408.641 583.682 A 169.816 169.816 0 0 0 419.193 613.78 C 428.198 633.343 439.165 648.64 440.658 670.86 C 441.097 677.402 441.272 683.007 438.921 689.26 C 432.791 705.563 398.916 749.909 385.734 761.903 C 374.526 772.101 360.715 778.115 353.178 792.067 C 347.33 802.892 348.691 813.191 355.822 823.014 C 364.446 834.894 381.756 848.692 396.453 851.041 C 407.346 852.782 430.321 843.597 437.817 851.124 L 439 849.515 L 441.445 850.188 C 434.759 861.881 429.134 874.11 422.924 886.054 C 418.322 894.907 412.68 903.827 409.268 913.206 L 407.524 911.583 C 405.181 919.729 398.889 930.332 399.037 938.454 C 398.579 940.808 399.03 941.35 399.665 943.561 C 399.704 943.699 399.705 943.845 399.725 943.986 C 397.362 948.614 397.948 952.375 399.465 957.26 C 401.218 962.906 405.503 973.009 410.671 975.955 C 411.662 976.52 412.61 976.655 413.684 976.888 L 414.837 976.182 C 416.148 978.449 416.152 979.308 418.777 980.02 C 427.242 982.315 436.784 980.975 445.117 983.924 L 445.758 985.339 L 443.163 986.167 C 438.5 986.498 430.723 986.265 427.675 990.31 C 426.928 991.302 426.544 992.078 425.962 993.138 L 425.03 993.348 L 424.484 991.05 L 421.997 993.245 L 421.724 991.578 C 419.953 990.446 418.285 989.463 416.362 988.599 C 406.19 984.03 399.444 978.446 394.375 968.29 C 381.078 941.65 397.506 924.554 404.615 900.881 C 408.762 887.068 408.958 874.442 402.105 861.444 C 391.808 859.423 381.646 856.19 372.317 851.337 C 358.565 844.184 344.672 831.726 340.191 816.452 C 330.572 783.661 365.858 769.294 382.748 751.451 C 398.262 735.06 414.889 713.831 425.732 694.065 C 437.917 671.853 427.003 650.992 417.563 630.322 C 411.308 616.625 404.691 602.983 400.467 588.485 C 378.758 513.98 426.761 432.725 461.64 369.919 C 474.929 353.152 486.624 335.539 501.497 320.052 C 493.342 311.141 484.161 300.203 484.523 287.398 C 484.724 280.328 488.545 274.264 493.692 269.646 C 497.812 265.949 503.07 263.219 508.019 260.808 C 505.329 244.478 507.068 229.743 516.878 215.88 C 520.826 210.301 526.275 204.456 533.383 203.393 C 538.596 202.613 542.975 204.123 546.976 207.412 A 75.0679 75.0679 0 0 1 549.823 209.899 C 567.559 191.99 574.062 163.203 604.306 163.077 C 611.767 163.046 618.109 165.387 623.361 170.758 C 626.76 174.233 628.934 178.694 631.127 182.979 z"/>
<path transform="translate(0,0)" fill="rgb(215,193,161)" d="M 437.817 851.124 L 439 849.515 L 441.445 850.188 C 434.759 861.881 429.134 874.11 422.924 886.054 C 418.322 894.907 412.68 903.827 409.268 913.206 L 407.524 911.583 C 415.002 890.714 414.818 880.351 409.94 859.026 C 419.18 856.891 429.218 855.224 437.817 851.124 z"/>
<path transform="translate(0,0)" fill="rgb(91,77,74)" d="M 550.161 222.775 C 554.461 217.116 559.025 211.536 563.086 205.707 C 570.377 195.243 575.446 183.93 586.151 176.257 C 592.657 171.593 600.003 169.487 607.953 171.127 C 628.143 175.291 622.17 193.295 626.958 200.538 C 631.525 199.012 639.03 184.339 650.871 179.691 C 758.011 194.747 871.819 295.629 940.659 373.7 C 971.726 408.934 999.66 447.646 1028.2 484.951 C 1061.98 529.1 1097.01 573.046 1133.19 615.241 C 1151.71 637.022 1209.51 709.379 1237.48 711.764 C 1256.6 713.394 1277.82 690.533 1291.4 679.126 C 1296.91 685.94 1302.31 692.738 1309.01 698.439 C 1320.83 708.501 1341.54 716.048 1340.07 735.001 C 1339.55 741.684 1335.73 747.776 1330.58 751.919 C 1325.62 755.907 1318.65 758.736 1312.19 757.727 C 1309.43 757.296 1307.38 755.557 1305.28 753.845 C 1304.19 750.696 1303.61 747.744 1300.69 745.798 L 1298.83 746.193 C 1294.1 757.913 1308.6 770.169 1290.22 784.987 C 1283.59 784.018 1278.03 782.366 1272.19 779.026 C 1270.53 774.996 1268.45 769.743 1265.53 766.508 C 1263.6 786.256 1260.46 789.261 1249.83 805.13 C 1247.12 800.517 1244.48 795.918 1241.23 791.658 L 1240.02 791.729 C 1236.51 800.917 1250.39 813.285 1252.74 822.856 A 39.6235 39.6235 0 0 1 1248.14 853.154 A 39.6738 39.6738 0 0 1 1222.56 870.819 C 1204.6 874.347 1191.29 865.393 1177.29 855.804 C 1178.6 859.746 1179.93 864.053 1179.2 868.237 C 1178.04 874.861 1173.72 880.7 1168.02 884.154 C 1161.56 888.07 1153.89 888.83 1146.67 886.754 C 1129.37 881.772 1122.2 866.352 1114.41 851.785 L 1101.88 848.29 C 1102.86 845.36 1103.88 842.407 1104.64 839.408 C 1105.72 835.097 1107.37 828.038 1105.02 824.217 C 1100.3 827.526 1098.88 834.207 1097.08 839.366 C 1094.37 847.118 1090.61 852.297 1082.97 855.768 C 1074.87 859.454 1068.42 860.201 1060.02 856.956 C 1052.58 854.079 1046 849.455 1042.87 841.869 C 1035.51 824.024 1048.4 802.318 1055.6 786.265 C 1052.02 784.215 1048.35 782.187 1045.13 779.594 C 1034.81 771.279 1034.29 760.141 1032.92 747.946 A 409.621 409.621 0 0 0 1035.71 742.559 C 1060.57 693.667 1070.53 636.415 1052.92 583.191 C 1045.4 560.469 1030.99 539.052 1009.01 528.28 C 995.067 521.442 979.682 520.404 964.931 525.474 C 937.474 534.913 917.409 560.488 904.393 585.385 C 900.289 593.237 897.137 601.557 893.158 609.473 C 890.537 614.687 886.721 621.252 880.909 623.161 C 871.755 620.838 862.535 607.533 856.713 600.614 C 860.849 608.043 864.944 615.425 868.517 623.148 C 863.393 625.68 857.952 628.077 853.963 632.295 C 847.077 639.578 848.019 649.553 848.057 658.819 C 834.434 656.436 822.907 651.785 812.554 642.49 C 810.938 637.758 811.12 634.567 811.971 629.785 L 812.267 628.178 C 810.307 625.125 806.328 623.892 803.221 622.216 C 800.339 620.66 797.838 618.911 797.065 615.541 C 795.58 609.073 801.337 601.897 804.227 596.545 C 812.503 581.214 799.924 584.95 797.318 574.325 C 794.293 561.987 817.17 553.361 824.507 546.586 C 826.616 544.639 828.098 541.856 829.535 539.391 L 830.289 538.074 C 823.455 543.186 816.966 547.795 807.959 547.474 C 804.996 547.368 802.006 546.323 800.268 543.771 C 797.925 540.332 798.054 535.238 798.536 531.288 C 800.728 513.323 817.626 510.364 829.466 500.666 C 829.686 500.486 829.9 500.299 830.116 500.116 C 825.241 501.178 820.06 502.231 815.485 504.278 C 807.828 507.704 799.721 513.887 791.416 515.133 C 787.874 515.664 783.802 515.625 781.03 512.981 C 771.545 503.935 792.672 491.434 792.935 482.399 C 789.642 477.877 781.281 476.005 776.717 472.252 C 771.031 467.575 771.531 459.507 770.895 452.757 C 764.967 452.71 759.858 458.918 753.602 459.604 C 742.898 460.777 742.465 444.341 737.977 437.797 C 735.767 434.576 731.452 431.749 728.376 429.326 C 733.376 420.285 741.224 413.04 745.836 403.852 C 748.867 397.814 750.532 389.64 747.603 383.215 C 741.031 368.796 727.842 379.199 717.781 373.806 C 709.621 369.432 714.085 356.41 711.279 348.889 C 707.248 338.086 692.839 340.957 684.507 336.737 C 671.532 330.164 686.259 307.487 681.612 292.813 C 675.268 272.78 652.817 279.657 641.816 271.807 C 639.606 270.23 639.406 269.84 639.075 267.351 C 645.479 262.626 667.662 262.286 676.675 260.026 L 678.008 259.683 A 83.1676 83.1676 0 0 0 671.307 258.467 C 657.934 256.681 643.772 258.104 630.471 259.809 C 578.771 266.437 545.737 285.524 505.394 316.749 C 500.072 307.734 491.345 296.078 493.641 285.149 C 495.684 275.429 505.511 269.968 513.249 265.161 C 512.955 257.626 512.277 249.735 513.042 242.234 C 514.076 232.099 519.746 218.676 528.045 212.524 C 531.096 210.262 534.84 208.942 538.639 209.974 C 545.004 211.704 547.267 217.498 550.161 222.775 z"/>
<path transform="translate(0,0)" fill="rgb(24,30,41)" d="M 679.894 218.134 C 681.179 217.983 682.093 217.842 683.427 217.849 C 688.384 217.875 692.99 220.741 696.234 224.332 C 701.913 230.618 703.774 239.082 703.459 247.323 L 702.997 247.143 L 702.256 245.905 L 702.254 247.29 C 694.661 233.734 694.561 226.682 679.894 218.134 z"/>
<path transform="translate(0,0)" fill="rgb(24,30,41)" d="M 586.088 246.209 C 599.939 244.907 610.486 245.139 621.797 254.24 C 603.51 250.02 590.647 249.083 572.751 255.504 C 562.921 259.554 553.777 264.155 544.881 269.998 C 557.145 257.354 568.987 250.448 586.088 246.209 z"/>
<path transform="translate(0,0)" fill="rgb(24,30,41)" d="M 948.429 419.114 C 949.02 419.277 949.616 419.424 950.201 419.604 C 955.041 421.096 959.104 426.353 961.333 430.69 C 965.13 438.081 966.306 446.947 963.304 454.81 C 960.175 463.005 953.381 469.405 945.397 472.853 A 34.8925 34.8925 0 0 1 918.04 472.827 C 907.819 468.399 902.555 460.395 898.847 450.348 C 897.671 446.615 896.442 441.841 897.139 437.971 L 897.929 437.929 C 900.514 442.55 902.656 447.398 905.096 452.095 C 909.042 459.69 914.842 464.881 923.221 467.181 C 930.443 469.164 941.004 467.053 947.205 462.962 C 952.356 459.563 955.044 454.123 955.961 448.141 C 957.595 437.474 953.81 429.181 947.593 420.956 L 948.429 419.114 z"/>
<path transform="translate(0,0)" fill="rgb(24,30,41)" d="M 798.397 321.742 C 798.395 327.231 798.341 332.868 800.438 338.039 C 803.556 345.729 809.537 352.712 817.317 355.883 C 825.1 359.054 834.441 358.687 842.123 355.416 C 857.25 348.975 859.924 336.924 865.468 323.263 C 866.701 326.836 866.205 331.65 866.261 335.436 C 865.404 341.151 863.744 346.115 860.704 351.072 A 33.4345 33.4345 0 0 1 839.532 366.282 C 829.348 368.661 817.586 366.941 808.692 361.372 C 801.482 356.857 795.407 349.376 793.861 340.855 C 792.621 334.017 794.466 327.336 798.397 321.742 z"/>
<path transform="translate(0,0)" fill="rgb(24,30,41)" d="M 1196.29 756.565 C 1197.58 757.645 1198.22 758.727 1198.58 760.399 C 1201.18 772.463 1195.92 787.584 1189.03 797.321 C 1182.52 806.537 1172.82 813.983 1161.45 815.688 C 1153.96 816.811 1146.13 815.29 1140.12 810.533 C 1131.28 803.536 1129.47 793.744 1128.17 783.244 A 105.966 105.966 0 0 1 1128.07 780.898 C 1127.98 777.584 1127.8 774.489 1130.15 772.001 C 1134.03 776.305 1134.85 787.502 1137.26 793.473 C 1139.58 799.241 1143.63 803.669 1149.53 805.893 C 1155.65 808.202 1163.48 806.732 1169.15 803.803 C 1186.03 795.083 1191.35 773.263 1196.29 756.565 z"/>
<path transform="translate(0,0)" fill="rgb(24,30,41)" d="M 1133.19 615.241 C 1128.51 628.517 1116.05 636.817 1112.71 651.202 C 1109.5 665.019 1130.37 678.36 1124.9 698.536 C 1122.96 705.702 1118 710.567 1111.66 714.127 C 1101.33 719.925 1093.06 721.136 1081.82 717.992 C 1081.47 717.199 1081.6 717.715 1081.89 716.397 C 1089.21 716.086 1095.38 715.226 1101.99 711.745 C 1108.77 708.175 1114.69 702.5 1116.69 694.908 C 1120.03 682.252 1111.37 676.318 1106.08 666.29 C 1102.88 660.23 1103.49 653.178 1105.87 646.976 C 1110.39 635.216 1121.72 620.633 1133.19 615.241 z"/>
<path transform="translate(0,0)" fill="rgb(149,103,102)" d="M 861.183 114.414 C 931.525 109.06 1001.62 131.351 1069.83 145.463 C 1109.14 153.597 1148.81 159.674 1187.84 169.229 A 639.01 639.01 0 0 1 1237.99 184.235 C 1243.64 186.131 1248.92 189.002 1254.64 190.598 C 1256.42 191.097 1255.85 190.943 1257.91 190.587 C 1222.55 169.145 1131.64 146.029 1089.32 138.568 C 1146.51 134.004 1223.87 140.629 1277.95 160.137 C 1328.86 178.503 1379.93 213.885 1403.23 264.294 C 1435.31 333.726 1411.75 433.751 1386.26 502.451 C 1363.08 564.928 1323.03 636.895 1273.43 681.55 C 1263.82 690.202 1253.36 699.303 1241.51 704.723 C 1235.69 702.33 1230.53 699.594 1225.18 696.284 A 282.879 282.879 0 0 0 1228.5 693.484 C 1242.9 681.139 1253.78 665.433 1264.12 649.679 C 1307.52 583.565 1336.19 502.048 1342.07 423.111 C 1347.23 353.879 1333.61 264.418 1286.76 210.625 C 1285.05 208.659 1281.33 203.766 1278.92 203.61 C 1318.07 257.537 1331.37 319.477 1332.76 384.902 C 1334.53 468.34 1308.72 544.286 1270.94 617.536 C 1257.08 644.402 1241.95 671.651 1220.94 693.624 C 1207.37 684.001 1195.83 672.196 1184.24 660.369 C 1160.49 635.123 1138.96 608.337 1117.15 581.419 A 5833.14 5833.14 0 0 1 1010.09 445.332 C 981.848 408.933 953.624 372.365 922.157 338.656 C 866.495 279.027 789.914 215.598 712.847 186.289 C 696.093 179.917 678.661 175.739 661.152 172.065 C 673.268 167.631 684.482 160.712 696.182 155.269 A 344.795 344.795 0 0 1 766.599 131.43 C 873.298 164.923 979.111 299.59 1047.96 384.403 C 1087.37 432.947 1126.06 482.184 1166.66 529.738 C 1186.56 553.045 1231.12 605.9 1255.83 621.625 C 1242.44 607.695 1229.98 592.424 1217.43 577.719 A 3244.67 3244.67 0 0 1 1136.92 480.016 C 1119.48 458.31 1101.06 437.397 1083.5 415.796 C 1035.94 357.321 988.823 298.891 935.73 245.221 C 907.01 216.189 877.471 186.918 843.993 163.335 C 823.131 148.639 801.602 137.668 777.93 128.306 C 804.984 120.879 833.249 116.639 861.183 114.414 z"/>
<path transform="translate(0,0)" fill="rgb(24,30,41)" d="M 1170.77 211.585 C 1178.05 214.498 1186.18 224.889 1191.64 230.595 C 1225.48 265.986 1255.91 304.342 1279.69 347.353 C 1273.1 343.458 1232.73 287.711 1223.33 275.934 A 4256.02 4256.02 0 0 0 1170.77 211.585 z"/>
<path transform="translate(0,0)" fill="rgb(24,30,41)" d="M 905.92 123.649 C 915.145 126.826 925.145 136.644 932.786 142.745 C 978.214 179.019 1017.63 220.573 1049.63 269.285 C 1042.57 265.468 1015.46 232.745 1007.25 224.069 C 974.507 189.472 940.208 156.692 905.92 123.649 z"/>
<path transform="translate(0,0)" fill="rgb(24,30,41)" d="M 1075.74 282.804 C 1084.52 287.878 1093.35 301.346 1099.79 309.21 C 1149.08 369.39 1193.36 434.411 1234.42 500.424 C 1244.13 516.023 1254.29 531.404 1263.5 547.302 C 1257.05 543.294 1250.03 531.386 1245.4 525.035 C 1232.54 507.383 1220.61 489.031 1208.14 471.091 L 1147.2 384.758 C 1123.36 351.119 1096.87 318.181 1075.74 282.804 z"/>
<path transform="translate(0,0)" fill="rgb(24,30,41)" d="M 1044.02 166.667 C 1055.21 170.946 1067.3 184.337 1076.17 192.345 C 1093.87 208.339 1110.06 225.628 1126.25 243.121 A 1247.37 1247.37 0 0 1 1282.8 452.406 C 1279.2 450.261 1276.76 446.867 1274.25 443.598 C 1263.48 429.589 1254.09 414.501 1243.55 400.302 A 3784.62 3784.62 0 0 0 1164.17 298.645 C 1138.98 267.933 1111.92 237.778 1084.67 208.894 C 1071.28 194.708 1056.89 181.313 1044.02 166.667 z"/>
<path transform="translate(0,0)" fill="rgb(253,239,188)" d="M 1064.04 2048 C 1058.94 2018.31 1056.71 1987.35 1054.39 1957.33 A 2136.25 2136.25 0 0 1 1047.45 1813.49 A 1863.48 1863.48 0 0 1 1048.92 1693.56 C 1049.5 1680.99 1049 1667.01 1051.78 1654.79 C 1054.94 1640.9 1066.54 1625.66 1073.73 1613.13 C 1124.81 1523.99 1185.57 1438 1257.38 1364.28 C 1289.5 1331.32 1323.52 1303.39 1362.61 1279.15 C 1368.36 1275.58 1379.54 1267.39 1386.31 1267.31 C 1411.11 1283.59 1432.35 1306.25 1450.44 1329.7 C 1456.15 1337.1 1461.21 1345.11 1467.05 1352.38 L 1471.57 1350.74 C 1518.37 1334.4 1566.47 1339.1 1610.79 1360.52 C 1724.76 1415.6 1801.45 1589.16 1840.39 1702.48 A 1672.24 1672.24 0 0 1 1912.58 1998.35 C 1915.05 2014.89 1915.73 2031.5 1917.88 2048 L 1915.51 2048 L 1683.02 2048 L 1666.24 2048 L 1544.67 2048 L 1525.28 2048 L 1258.29 2048 L 1252.36 2048 L 1198.25 2048 L 1187.04 2048 L 1064.04 2048 z"/>
<path transform="translate(0,0)" fill="rgb(24,30,41)" d="M 1768.58 1931.81 C 1753.05 1977.93 1718.48 2015.83 1683.02 2048 L 1666.24 2048 C 1707.97 2013.69 1740.16 1977.78 1768.58 1931.81 z"/>
<path transform="translate(0,0)" fill="rgb(10,16,18)" d="M 1300.52 1910.92 C 1318.81 1864.16 1351.45 1809.25 1378.12 1765.94 C 1381 1761.26 1385.48 1751.49 1389.66 1748.22 C 1382.25 1766.16 1367.63 1786.65 1358.18 1804.33 C 1339.25 1839.75 1322.26 1875.96 1304.75 1912.07 C 1300.22 1927.41 1292.72 1942.02 1287.1 1957 C 1275.98 1986.62 1265.81 2017.28 1258.29 2048 L 1252.36 2048 C 1261.49 2004.52 1282.57 1951.85 1300.52 1910.92 z"/>
<path transform="translate(0,0)" fill="rgb(24,30,41)" d="M 1525.28 2048 C 1541.53 2029.82 1558.64 2012.46 1574.65 1994.05 C 1608.05 1955.64 1639.55 1913.42 1665.79 1869.74 A 869.294 869.294 0 0 0 1694.54 1817.31 C 1699.31 1807.8 1703.42 1797.75 1708.61 1788.49 C 1676.69 1888.14 1616.21 1972.65 1544.67 2048 L 1525.28 2048 z"/>
<path transform="translate(0,0)" fill="rgb(24,30,41)" d="M 1686.34 1498.72 C 1687.31 1505.96 1679.95 1523.76 1677.24 1531.66 C 1656.27 1592.84 1631.8 1651.13 1597.25 1706.1 C 1545.4 1788.58 1480.89 1860.86 1400.37 1916.35 C 1379.73 1930.57 1356.68 1946.09 1332.02 1951.68 C 1417.71 1897.52 1475.79 1848.63 1540.95 1770.99 C 1573.15 1729.88 1603.31 1684.97 1626.68 1638.16 C 1629.45 1632.61 1633.74 1626.14 1635.01 1620.15 L 1632.77 1621.05 C 1628.83 1630.96 1621.31 1640.26 1615.52 1649.2 C 1576.96 1708.61 1528.72 1770.18 1477.4 1819.03 C 1472.38 1823.81 1466.2 1830.89 1460.03 1833.88 C 1460.48 1832.56 1460.15 1833.08 1461.17 1832.03 C 1506.82 1785.06 1547.64 1733.04 1585.48 1679.65 C 1609.05 1646.4 1631.98 1612.43 1651.16 1576.4 C 1664.51 1551.32 1675.1 1524.78 1686.34 1498.72 z"/>
<path transform="translate(0,0)" fill="rgb(24,30,41)" d="M 1471.57 1350.74 C 1518.37 1334.4 1566.47 1339.1 1610.79 1360.52 C 1724.76 1415.6 1801.45 1589.16 1840.39 1702.48 A 1672.24 1672.24 0 0 1 1912.58 1998.35 C 1915.05 2014.89 1915.73 2031.5 1917.88 2048 L 1915.51 2048 A 1795.12 1795.12 0 0 0 1798.97 1630.05 C 1770.24 1561.69 1737.05 1492.54 1686.94 1437.01 C 1647.89 1393.72 1598.11 1354.92 1537.39 1352.12 C 1490.99 1349.98 1448.51 1369.31 1414.84 1400.48 C 1332.52 1476.69 1277.36 1610.65 1248.78 1717.06 C 1239.24 1752.58 1232.52 1788.86 1226.01 1825.03 C 1218.24 1868.16 1211.19 1912.39 1209.56 1956.22 C 1213.41 1943.39 1215.98 1930.09 1219.24 1917.09 C 1224.73 1895.16 1230.96 1873.13 1238 1851.65 C 1271.71 1748.86 1318.87 1651.33 1388.5 1568.06 C 1402.02 1551.88 1416.96 1533.58 1433.79 1520.8 C 1410.22 1548.82 1387.58 1576.76 1367.15 1607.24 C 1307.01 1696.94 1261.21 1802.26 1231.29 1905.94 C 1223.16 1934.1 1216.79 1962.92 1210.42 1991.51 C 1206.23 2010.29 1201.63 2029.06 1198.25 2048 L 1187.04 2048 C 1190.56 2029.16 1197.37 2010.25 1199.49 1991.27 C 1200.79 1979.55 1199.7 1967.2 1199.85 1955.38 A 3704.51 3704.51 0 0 1 1201.6 1891.08 C 1204.62 1805.21 1209.95 1718.69 1226.4 1634.2 C 1227.8 1635.34 1228.64 1636.16 1228.82 1638.05 C 1229 1639.95 1228.69 1642.12 1228.56 1644.03 C 1229.46 1644.63 1228.98 1644.48 1229.99 1644.53 C 1228.14 1665.85 1225.02 1687.14 1222.76 1708.43 A 4438.32 4438.32 0 0 0 1215.66 1788.5 C 1213.91 1809.32 1210.69 1831.28 1212.67 1852.09 C 1217.92 1812.59 1225.12 1773.91 1234.09 1735.09 C 1237.65 1719.67 1242.43 1704.43 1246.82 1689.23 C 1277.26 1584.05 1331.01 1455.98 1416.51 1383.87 C 1425.08 1376.64 1434.49 1369.16 1444.44 1363.89 C 1451.4 1360.21 1459.36 1357.35 1465.94 1353.11 L 1467.05 1352.38 L 1471.57 1350.74 z"/>
<path transform="translate(0,0)" fill="rgb(253,239,188)" d="M 1064.04 2048 C 1058.94 2018.31 1056.71 1987.35 1054.39 1957.33 A 2136.25 2136.25 0 0 1 1047.45 1813.49 A 1863.48 1863.48 0 0 1 1048.92 1693.56 C 1049.5 1680.99 1049 1667.01 1051.78 1654.79 C 1054.94 1640.9 1066.54 1625.66 1073.73 1613.13 C 1124.81 1523.99 1185.57 1438 1257.38 1364.28 C 1289.5 1331.32 1323.52 1303.39 1362.61 1279.15 C 1368.36 1275.58 1379.54 1267.39 1386.31 1267.31 C 1411.11 1283.59 1432.35 1306.25 1450.44 1329.7 C 1456.15 1337.1 1461.21 1345.11 1467.05 1352.38 L 1465.94 1353.11 C 1459.36 1357.35 1451.4 1360.21 1444.44 1363.89 C 1434.49 1369.16 1425.08 1376.64 1416.51 1383.87 C 1331.01 1455.98 1277.26 1584.05 1246.82 1689.23 C 1242.43 1704.43 1237.65 1719.67 1234.09 1735.09 C 1225.12 1773.91 1217.92 1812.59 1212.67 1852.09 C 1210.69 1831.28 1213.91 1809.32 1215.66 1788.5 A 4438.32 4438.32 0 0 1 1222.76 1708.43 C 1225.02 1687.14 1228.14 1665.85 1229.99 1644.53 C 1228.98 1644.48 1229.46 1644.63 1228.56 1644.03 C 1228.69 1642.12 1229 1639.95 1228.82 1638.05 C 1228.64 1636.16 1227.8 1635.34 1226.4 1634.2 C 1209.95 1718.69 1204.62 1805.21 1201.6 1891.08 A 3704.51 3704.51 0 0 0 1199.85 1955.38 C 1199.7 1967.2 1200.79 1979.55 1199.49 1991.27 C 1197.37 2010.25 1190.56 2029.16 1187.04 2048 L 1064.04 2048 z"/>
<path transform="translate(0,0)" fill="rgb(10,16,18)" d="M 1226.4 1634.2 C 1229.02 1617.03 1232.7 1600.07 1235.79 1582.99 C 1237.59 1572.99 1238.57 1562.35 1241.7 1552.65 C 1239.74 1571.58 1237.3 1590.27 1234.62 1609.11 C 1232.97 1620.7 1230.54 1632.84 1229.99 1644.53 C 1228.98 1644.48 1229.46 1644.63 1228.56 1644.03 C 1228.69 1642.12 1229 1639.95 1228.82 1638.05 C 1228.64 1636.16 1227.8 1635.34 1226.4 1634.2 z"/>
<path transform="translate(0,0)" fill="rgb(196,179,151)" d="M 425.678 464.308 L 424.619 463.15 C 429.019 447.986 438.026 433.306 445.344 419.408 C 473.397 366.137 500.09 323.529 554.972 293.584 C 576.311 281.94 602.514 271.168 627.046 269.672 C 630.51 272.813 634.227 276.686 638.438 278.771 C 650.175 284.581 673.523 283.896 673.988 301.082 C 674.335 313.896 664.421 330.689 675.582 341.691 C 682.592 348.601 703.411 345.011 704.617 355.92 C 705.472 363.65 700.497 370.928 707.155 377.44 C 717.178 387.243 739.148 379.584 739.925 391.627 C 740.837 405.754 711.719 426.21 724.364 438.507 C 726.779 440.855 730.101 441.761 733.236 442.712 C 734.438 450.079 736.139 462.108 742.621 466.854 C 745.29 468.809 747.862 469.047 750.98 468.342 C 754.73 467.493 758.689 464.963 762.521 465.964 C 770.63 473.125 762.009 480.554 781.556 490.383 C 776.905 495.152 769.269 504.13 770.059 511.247 C 770.416 514.462 772.869 516.663 775.492 518.217 C 780.24 521.031 789.072 521.011 792.488 524.607 C 791.138 532.436 787.764 539.183 793.236 546.355 C 795.668 549.543 799.513 551.517 802.967 553.395 C 797.615 558.158 789.169 564.743 789.118 572.685 C 789.089 577.214 791.231 580.894 794.517 583.902 C 796.803 585.995 799.378 587.648 802.035 589.222 C 797.263 596.262 789.192 605.853 791.153 615.045 C 792.247 620.167 796.301 623.759 800.631 626.31 C 802.754 627.561 805.013 628.569 807.264 629.562 C 806.623 635.08 805.635 641.23 809.43 645.916 C 810.945 647.785 812.842 649.418 814.716 650.914 C 820.23 657.749 835.39 663.539 843.957 664.661 C 848.305 665.23 851.303 664.9 855.049 662.627 C 857.062 659.985 857.764 658.059 857.323 654.784 C 856.515 648.78 854.866 644.1 858.78 638.671 C 861.42 635.008 865.682 632.571 869.398 630.122 C 869.818 630.222 870.237 630.327 870.657 630.424 C 876.878 631.85 882.088 631.868 887.719 628.52 C 899.666 621.418 906.528 599.075 913.42 587.205 C 928.411 561.389 958.197 524.696 992.517 532.262 C 1009.64 536.037 1023.88 548.339 1032.76 563.112 C 1054.42 599.175 1055.11 653.389 1044.77 693.108 A 172.394 172.394 0 0 1 1027.64 735.888 C 1019.7 750.036 967.506 820.554 955.578 827.137 C 947.999 831.32 934.807 832.971 926.468 830.422 C 918.028 827.842 912.42 821.047 908.681 813.348 C 904.497 804.734 902.867 795.537 900.104 786.468 C 900.708 801.98 901.883 821.692 914.127 833.03 C 921.459 839.82 931.029 841.159 940.622 840.468 C 957.048 839.285 964.713 834.495 975.237 822.151 C 992.237 802.209 1009.74 780.915 1023.42 758.555 C 1026.73 775.353 1031.99 782.228 1045.6 792.213 C 1036.93 807.737 1027.4 823.928 1032.9 842.428 A 37.6214 37.6214 0 0 0 1051.25 864.712 A 37.3863 37.3863 0 0 0 1080.18 867.275 C 1088.14 864.768 1093.66 860.341 1099.03 854.107 C 1102.48 855.772 1106.01 857.351 1109.4 859.144 C 1114.46 873.133 1120.95 885.779 1135.07 892.601 C 1146.86 898.294 1158.05 895.767 1169.69 891.454 C 1175.44 901.684 1180.64 912.373 1186.79 922.358 C 1202.36 947.636 1223.43 969.338 1245.87 988.521 C 1220.53 1028.38 1193.38 1067.12 1168.55 1107.29 C 1103.45 1212.62 1050.29 1326.34 1022.06 1447.29 C 1004.71 1461.61 988.189 1476.56 969.912 1489.75 C 978.976 1438.64 962.809 1381.89 933.333 1339.91 C 897.388 1288.71 821.265 1210.81 765.472 1182.14 C 748.999 1173.68 730.746 1168.09 712.511 1165 C 682.112 1159.86 648.992 1160.27 618.869 1167 C 649.938 1148.03 679.908 1127.44 710.798 1108.2 C 756.048 1080 822.865 1045.61 857.895 1005.97 C 875.13 986.464 886.321 961.744 892.381 936.562 C 893.165 933.3 894.404 929.587 894.578 926.245 C 893.911 923.464 894.475 920.473 894.73 917.654 L 893.687 917.734 C 892.494 920.332 891.724 922.864 890.975 925.606 L 889.629 925.62 L 888.846 927.397 C 877.447 953.656 873.623 975.085 854.031 998.142 C 841.345 1013.07 824.886 1025.42 809.059 1036.89 C 775.627 1061.11 739.315 1082.12 704.466 1104.3 C 667.086 1128.09 630.201 1156.19 588.991 1173.02 C 566.287 1182.29 534.86 1184.43 511.99 1174.48 C 500.896 1169.66 492.165 1162.01 487.767 1150.56 C 484.21 1141.31 483.505 1131.1 482.376 1121.33 C 477.77 1081.5 469.532 1066.9 433.67 1046.83 C 448.873 1032.77 464.059 1019.89 482.066 1009.41 C 491.149 1004.13 501.014 1000.07 509.924 994.538 C 524.961 1001.84 536.492 1016.05 548.293 1027.52 C 531.407 998.616 495.377 977.491 467.519 959.648 C 447.903 947.083 423.145 933.176 399.037 938.454 C 398.889 930.332 405.181 919.729 407.524 911.583 L 409.268 913.206 C 412.68 903.827 418.322 894.907 422.924 886.054 C 429.134 874.11 434.759 861.881 441.445 850.188 L 439 849.515 L 437.817 851.124 C 430.321 843.597 407.346 852.782 396.453 851.041 C 381.756 848.692 364.446 834.894 355.822 823.014 C 348.691 813.191 347.33 802.892 353.178 792.067 C 360.715 778.115 374.526 772.101 385.734 761.903 C 398.916 749.909 432.791 705.563 438.921 689.26 C 441.272 683.007 441.097 677.402 440.658 670.86 C 439.165 648.64 428.198 633.343 419.193 613.78 A 169.816 169.816 0 0 1 408.641 583.682 C 403.051 560.802 404.364 538.097 408.489 515.105 C 410.878 501.79 415.279 473.32 427.096 465.084 L 425.678 464.308 z"/>
<path transform="translate(0,0)" fill="rgb(24,30,41)" d="M 665.683 736.403 C 666.949 736.635 667.725 736.734 668.994 737.184 C 671.437 738.052 672.595 739.289 673.788 741.474 C 673.436 744.74 672.604 745.452 670.676 748.026 C 669.785 747.859 668.887 747.717 668.01 747.49 C 665.007 746.714 663.917 745.62 662.488 743.086 C 662.734 739.998 663.823 738.7 665.683 736.403 z"/>
<path transform="translate(0,0)" fill="rgb(10,16,18)" d="M 905.684 854.488 C 906.662 875.343 901.11 906.213 894.578 926.245 C 893.911 923.464 894.475 920.473 894.73 917.654 L 893.687 917.734 C 892.494 920.332 891.724 922.864 890.975 925.606 L 889.629 925.62 C 892.924 911.937 896.665 898.378 899.585 884.606 C 901.673 874.758 902.888 864.102 905.684 854.488 z"/>
<path transform="translate(0,0)" fill="rgb(24,30,41)" d="M 999.714 715.923 C 1001.91 717.468 1002.37 717.469 1003.12 719.999 C 1000.22 728.157 993.781 734.932 990.313 743.096 C 968.691 747.626 961.222 758.264 947.205 773.395 C 948.094 770.616 948.971 767.792 950.127 765.111 C 956.918 749.349 972.764 743.831 987.488 738.091 C 992.686 730.968 997.034 724.399 999.714 715.923 z"/>
<path transform="translate(0,0)" fill="rgb(10,16,18)" d="M 491.679 407.393 C 511.404 404.823 536.307 409.93 553.493 419.872 C 538.669 415.614 524.681 412.643 509.25 411.793 C 486.19 410.195 467.723 414.776 446.566 423.459 C 460.821 413.461 474.477 409.425 491.679 407.393 z"/>
<path transform="translate(0,0)" fill="rgb(24,30,41)" d="M 541.232 377.07 C 545.087 377.047 551.042 376.866 553.707 380.25 C 555.26 382.223 555.522 383.194 555.251 385.504 C 550.784 387.093 545.582 382.77 540.625 383.475 L 540.333 384.938 C 544.571 387.26 550.24 387.747 554.971 388.654 C 555.028 389.104 555.158 389.551 555.143 390.004 C 555.096 391.406 554.685 392.362 553.642 393.26 C 550.674 395.818 546.814 396.236 543.036 395.892 C 537.991 395.433 533.483 393.881 530.198 389.947 C 529.812 388.272 529.372 387.592 529.962 385.899 C 531.507 381.466 537.294 378.841 541.232 377.07 z"/>
<path transform="translate(0,0)" fill="rgb(24,30,41)" d="M 805.251 655.53 C 810.783 658.98 856.891 694.243 858.097 697.367 C 847.555 694.557 810.803 671.788 805.517 662.561 C 803.84 659.633 804.507 658.661 805.251 655.53 z"/>
<path transform="translate(0,0)" fill="rgb(10,16,18)" d="M 425.678 464.308 C 458.172 442.439 497.601 439.233 535.314 446.474 C 542.648 447.882 549.574 449.668 556.523 452.431 C 511.577 445.994 468.504 443.41 427.096 465.084 L 425.678 464.308 z"/>
<path transform="translate(0,0)" fill="url(#Gradient3)" d="M 568.083 649.329 C 570.458 651.036 572.354 651.86 573.547 654.569 C 570.236 668.043 545.31 688.759 533.443 696.013 C 524.475 701.494 509.115 708.546 498.571 705.786 A 11.3519 11.3519 0 0 1 492.245 701.566 C 494.137 700.879 493.031 700.984 495.082 701.539 C 499.191 702.649 504.28 702.329 508.367 701.241 L 509.86 699.949 C 512.446 699.34 514.502 699.081 516.354 697 C 533.135 694.445 549.481 676.626 560.236 664.421 C 562.591 661.75 568.179 656.525 567.958 653.122 L 568.083 649.329 z"/>
<path transform="translate(0,0)" fill="rgb(24,30,41)" d="M 1032.43 881.64 C 1033.74 895.319 1028.75 915.819 1033.15 927.232 L 1034.93 928.044 C 1037.98 926.144 1039.73 921.831 1040.55 918.433 C 1041.49 914.615 1041.24 910.318 1041.22 906.404 C 1041.02 904.721 1040.7 903.284 1041.21 901.62 C 1041.61 900.271 1041.62 900.743 1043.26 899.999 C 1045.33 901.699 1045.3 902.149 1046.04 904.767 C 1047.7 912.825 1047.03 921.627 1042.5 928.744 C 1040.47 931.926 1037.5 934.371 1033.65 934.822 C 1030.63 935.174 1027.53 934.296 1025.34 932.158 C 1020 926.947 1019.12 916.211 1019.3 909.09 C 1019.42 904.116 1020.11 898.573 1022.29 894.076 C 1023.8 898.153 1022.66 903.692 1023.14 908.112 C 1023.81 914.161 1025.72 919.719 1027.97 925.34 C 1027.95 910.308 1028.98 896.335 1032.43 881.64 z"/>
<path transform="translate(0,0)" fill="rgb(10,16,18)" d="M 1041.22 906.404 C 1041.02 904.721 1040.7 903.284 1041.21 901.62 C 1041.61 900.271 1041.62 900.743 1043.26 899.999 C 1045.33 901.699 1045.3 902.149 1046.04 904.767 C 1046.12 908.385 1046.43 911.413 1044.77 914.71 L 1043.41 914.406 C 1041.94 911.552 1041.98 909.341 1041.22 906.404 z"/>
<path transform="translate(0,0)" fill="rgb(24,30,41)" d="M 603.867 727.039 C 605.39 726.917 607.002 726.74 608.528 726.831 C 612.676 727.079 616.476 729.194 619.058 732.437 C 621.471 735.467 622.305 739.324 621.572 743.112 C 620.534 748.48 617.388 751.049 613.083 754.027 C 611.975 754.279 610.645 754.656 609.488 754.668 C 605.913 754.704 602.21 753.397 599.767 750.708 C 597.077 747.748 596.193 743.726 596.49 739.814 C 596.944 733.849 599.377 730.703 603.867 727.039 z"/>
<path transform="translate(0,0)" fill="rgb(253,239,188)" d="M 606.809 735.279 C 607.421 735.371 608.045 735.402 608.645 735.555 C 611.139 736.196 611.626 736.988 613.015 738.973 C 613.124 742.259 612.355 743.802 610.788 746.539 C 607.808 745.731 607.321 745.64 605.239 743.406 C 604.678 740.062 605.518 738.257 606.809 735.279 z"/>
<path transform="translate(0,0)" fill="rgb(10,16,18)" d="M 926.048 783.924 C 928.447 783.642 930.636 783.432 933.041 783.796 C 936.469 784.316 939.475 785.775 941.511 788.662 C 943.437 791.392 943.921 794.658 943.35 797.901 C 942.387 803.371 938.93 807.047 934.591 810.177 C 932.247 810.553 930.056 810.926 927.683 810.573 C 924.291 810.069 921.257 808.333 919.244 805.531 C 916.929 802.309 916.53 798.177 917.418 794.38 C 918.628 789.202 921.792 786.729 926.048 783.924 z"/>
<path transform="translate(0,0)" fill="rgb(253,239,188)" d="M 927.894 788.843 C 931.113 788.79 932.992 788.959 935.9 790.387 C 937.024 791.835 937.993 792.51 938.135 794.422 C 938.462 798.812 936.054 801.375 933.256 804.346 C 931.054 804.301 928.353 804.388 926.483 803.008 C 924.444 801.502 923.383 799.67 923.451 797.104 C 923.54 793.732 925.821 791.245 927.894 788.843 z"/>
<path transform="translate(0,0)" fill="rgb(10,16,18)" d="M 521.618 901.127 L 525.85 899.398 C 539.115 931.193 558.105 957.007 556.769 993.086 C 557.359 1013.78 556.295 1033.81 554.493 1054.42 A 135.595 135.595 0 0 1 553.247 1027.6 C 552.887 961.051 550.402 959.126 521.618 901.127 z"/>
<path transform="translate(0,0)" fill="rgb(24,30,41)" d="M 488.373 589.212 C 494.757 588.664 501.501 588.372 507.859 589.29 C 536.811 593.471 568.351 620.662 585.311 643.197 L 574.075 633.685 C 569.546 629.677 564.979 625.741 560.116 622.14 C 533.295 602.274 506.36 592.293 472.914 597.295 C 477.892 593.759 482.573 591.211 488.373 589.212 z"/>
<path transform="translate(0,0)" fill="rgb(24,30,41)" d="M 477.982 613.475 C 483.95 613.205 489.838 613.141 495.802 613.577 C 514.741 614.961 568.486 633.168 580.322 646.722 L 579.603 648.386 C 561.116 640.366 542.052 631.046 522.54 625.876 C 507.944 622.009 490.259 622.945 476.734 616.098 L 476.519 614.603 L 477.982 613.475 z"/>
<path transform="translate(0,0)" fill="rgb(10,16,18)" d="M 717.538 742.038 C 717.873 746.388 651.215 829.612 644.131 839.06 A 1342.4 1342.4 0 0 0 617.086 877.127 C 617.44 870.73 624.528 861.463 627.997 855.915 A 692.223 692.223 0 0 1 717.538 742.038 z"/>
<path transform="translate(0,0)" fill="rgb(24,30,41)" d="M 568.322 686.985 L 568.555 688.248 C 567.301 691.164 565.972 693.742 564.01 696.258 C 553.23 710.079 532.379 721.258 515.12 723.445 C 528.029 732.681 538.973 745.489 548.849 757.82 C 541.07 753.164 533.738 748.169 526.494 742.719 C 511.913 731.356 493.995 719.636 486.339 702.285 C 493.113 708.944 498.773 713.991 508.717 714.925 C 530.628 716.981 552.205 699.652 568.322 686.985 z"/>
<path transform="translate(0,0)" fill="rgb(24,30,41)" d="M 480.995 651.994 C 478.815 652.804 477.105 653.335 474.776 653.457 L 474.356 652.136 L 478.46 649.557 L 478.373 648.535 C 475.524 648.273 472.834 647.938 470.045 647.293 C 470.598 645.118 472.046 644.789 473.857 643.6 C 486.672 643.855 482.45 629.927 492.643 625.439 L 493.425 625.89 C 491.885 629.015 489.419 632.736 489.556 636.283 C 495.156 638.429 505.545 635.052 511.986 635.811 C 530.57 638.002 550.222 643.801 568.083 649.329 L 567.958 653.122 C 553.442 652.828 527.634 643.863 514.991 648.476 C 511.152 647.788 500.502 651.362 499.606 650.733 L 499.631 648.215 L 498.49 647.116 A 258.096 258.096 0 0 0 504.296 644.135 C 500.545 643.89 495.957 642.79 492.584 644.439 C 491.881 646.904 492.267 648.322 492.787 650.76 C 488.859 652.333 485.112 651.635 480.995 651.994 z"/>
<path transform="translate(0,0)" fill="rgb(24,30,41)" d="M 987.214 964.764 C 991.385 977 993.028 991.501 995.324 1004.23 C 1010.7 1089.45 1013.6 1200.6 986.129 1283.72 L 985.688 1284.98 C 984.535 1281.74 991.822 1249.41 992.813 1242.96 C 996.957 1216.02 998.496 1188.49 999.656 1161.27 A 824.5 824.5 0 0 0 995.507 1032.06 C 993.117 1009.64 988.832 987.241 987.214 964.764 z"/>
<path transform="translate(0,0)" fill="rgb(254,254,254)" d="M 514.991 648.476 C 527.634 643.863 553.442 652.828 567.958 653.122 C 568.179 656.525 562.591 661.75 560.236 664.421 C 549.481 676.626 533.135 694.445 516.354 697 C 526.42 676.524 521.194 668.119 514.991 648.476 z"/>
<path transform="translate(0,0)" fill="url(#Gradient4)" d="M 404.846 834.022 C 400.561 833.677 395.383 833.838 391.52 831.872 C 391.128 829.694 390.881 830.538 392.065 828.732 C 397.127 821.015 414.309 814.727 423.019 813.354 A 42.4668 42.4668 0 0 1 454.007 820.486 C 457.724 823.128 460.573 827.38 460.907 832.009 C 461.042 833.879 426.33 892.873 422.252 899.116 C 418.754 904.472 415.236 909.368 410.67 913.874 L 409.528 913.788 L 409.268 913.206 C 412.68 903.827 418.322 894.907 422.924 886.054 C 429.134 874.11 434.759 861.881 441.445 850.188 C 444.359 846.713 449.24 841.182 449.109 836.443 C 449.042 834.014 447.537 832.078 445.642 830.701 C 438.83 825.751 427.865 825.439 419.936 826.953 C 414.384 828.013 409.542 831.002 404.846 834.022 z"/>
<path transform="translate(0,0)" fill="url(#Gradient5)" d="M 492.787 650.76 C 492.267 648.322 491.881 646.904 492.584 644.439 C 495.957 642.79 500.545 643.89 504.296 644.135 A 258.096 258.096 0 0 1 498.49 647.116 L 499.631 648.215 L 499.606 650.733 C 500.502 651.362 511.152 647.788 514.991 648.476 C 521.194 668.119 526.42 676.524 516.354 697 C 514.502 699.081 512.446 699.34 509.86 699.949 C 503.458 700.534 492.829 699.329 486.967 696.581 L 487.964 695.756 C 490.561 695.819 493.06 696.027 495.637 696.313 C 498.146 695.66 498.519 695.958 500.28 693.896 C 491.732 680.956 487.326 666.009 480.995 651.994 C 485.112 651.635 488.859 652.333 492.787 650.76 z"/>
<path transform="translate(0,0)" fill="rgb(254,254,254)" d="M 505.501 672.525 C 509.103 672.779 512.587 672.565 515.427 674.934 C 516.314 678.266 515.118 681.545 514.35 684.812 C 512.738 685.733 513.641 685.558 511.605 685.084 C 508.531 681.47 507.178 676.906 505.501 672.525 z"/>
<path transform="translate(0,0)" fill="rgb(215,193,161)" d="M 492.787 650.76 C 493.046 655.045 492.797 659.613 493.726 663.797 C 495.471 671.648 504.688 690.964 504.452 695.854 C 501.449 696.93 498.743 696.551 495.637 696.313 C 498.146 695.66 498.519 695.958 500.28 693.896 C 491.732 680.956 487.326 666.009 480.995 651.994 C 485.112 651.635 488.859 652.333 492.787 650.76 z"/>
<path transform="translate(0,0)" fill="rgb(24,30,41)" d="M 424.194 762.654 A 126.774 126.774 0 0 1 448.815 762.589 C 466.028 764.36 481.024 770.685 492.032 784.608 C 505.47 801.603 507.76 819.254 505.367 840.24 C 511.885 859.893 517.874 880.324 525.85 899.398 L 521.618 901.127 C 512.062 883.016 502.657 861.926 497.899 842.049 C 485.261 851.91 474.147 856.245 458.316 858.786 C 468.936 848.139 484.577 833.174 487.451 818.011 C 489.407 807.692 486.481 796.587 480.361 788.156 C 467.403 770.307 444.451 766.217 424.194 762.654 z"/>
<path transform="translate(0,0)" fill="rgb(91,77,74)" d="M 495.172 805.157 C 495.341 805.364 495.526 805.558 495.68 805.776 C 499.069 810.608 500.494 818.979 499.579 824.73 C 497.97 834.842 491.057 840.543 483.443 846.359 L 481.88 846.737 C 481.387 845.023 482.846 844.241 483.949 842.921 C 493.917 831.004 494.944 820.175 495.172 805.157 z"/>
<path transform="translate(0,0)" fill="rgb(24,30,41)" d="M 474.568 532.42 C 486.71 531.78 498.358 532.799 510.186 535.682 C 547.44 544.763 580.57 572.341 600.205 604.965 C 589.839 595.137 580.378 588.389 567.927 581.475 C 544.749 569.584 517.911 560.299 491.523 563.064 C 480.753 564.193 470.46 566.954 459.85 568.867 C 452.188 570.248 445.103 570.257 438.604 565.365 C 434.778 562.485 432.012 558.265 431.37 553.478 C 430.854 549.631 431.938 545.869 434.501 542.947 C 442.458 533.877 463.342 533.437 474.568 532.42 z"/>
<path transform="translate(0,0)" fill="rgb(24,30,41)" d="M 941.992 769.049 C 910.251 707.701 895.701 710.428 919.157 637.03 C 928.283 608.475 944.599 566.646 972.726 552.18 C 975.81 550.594 979.009 549.693 982.358 548.865 C 995.446 551.539 1003.7 557.938 1011.15 569.062 C 1030.52 597.967 1038.18 642.399 1031.16 676.318 C 1029.87 682.546 1027.87 690.013 1024.13 695.203 C 1025.31 689.149 1027.25 683.196 1027.89 677.055 C 1031.28 644.39 1023.78 602.329 1005.34 574.707 C 1000.94 568.118 994.591 560.739 986.433 559.11 C 980.985 558.022 975.866 559.86 971.451 563.009 C 963.539 568.653 957.634 577.425 952.352 585.448 C 978.532 601.829 993.449 637.753 1000.16 666.669 C 1004.17 684.001 1006.71 702.394 1003.12 719.999 C 1002.37 717.469 1001.91 717.468 999.714 715.923 C 1001.27 676.954 987.267 633.259 960.767 604.206 A 127.216 127.216 0 0 0 949.143 593.191 C 941.044 608.558 934.53 625.138 929.465 641.765 C 945.454 656.782 956.755 677.866 964.504 698.185 C 953.217 682.418 942.229 663.656 927.133 651.346 C 923.609 667.217 919.125 685.147 921.394 701.428 C 923.226 714.576 931.207 726.099 935.763 738.391 C 939.538 748.578 940.534 758.41 941.992 769.049 z"/>
<path transform="translate(0,0)" fill="rgb(189,146,137)" d="M 657.832 1952.88 C 648.072 1948.14 635.728 1945.47 625.353 1941.9 A 857.148 857.148 0 0 1 125.294 1499.73 C 27.2096 1298.56 13.5501 1042.11 86.799 831.095 C 139.129 680.339 226.535 557.025 346.334 452.173 C 373.138 428.713 400.307 408.026 430.241 388.772 C 440.376 382.253 450.792 375.194 461.64 369.919 C 426.761 432.725 378.758 513.98 400.467 588.485 C 404.691 602.983 411.308 616.625 417.563 630.322 C 427.003 650.992 437.917 671.853 425.732 694.065 C 414.889 713.831 398.262 735.06 382.748 751.451 C 365.858 769.294 330.572 783.661 340.191 816.452 C 344.672 831.726 358.565 844.184 372.317 851.337 C 381.646 856.19 391.808 859.423 402.105 861.444 C 408.958 874.442 408.762 887.068 404.615 900.881 C 397.506 924.554 381.078 941.65 394.375 968.29 C 399.444 978.446 406.19 984.03 416.362 988.599 C 418.285 989.463 419.953 990.446 421.724 991.578 C 414.673 996.55 409.961 1004 408.345 1012.51 C 406.423 1022.64 407.253 1034.21 413.658 1042.67 C 425.716 1058.6 450.567 1060.62 462.49 1079.18 C 482.451 1110.25 461.36 1152.01 497.925 1177.49 C 509.003 1185.21 521.977 1189.34 535.331 1190.8 C 551.663 1192.58 571.457 1190.98 586.767 1184.71 C 593.14 1182.1 599.509 1177.89 606.272 1176.47 C 618.673 1173.88 632.465 1173.61 645.112 1172.82 C 715.524 1168.47 763.313 1186.46 817.118 1229.88 C 812.93 1246.15 810.638 1270.5 803.851 1284.61 C 798.148 1296.46 789.75 1307.08 781.515 1317.26 C 775.002 1325.31 767.802 1333.17 762.109 1341.82 C 745.138 1367.58 751.754 1396.72 755.374 1425.4 C 742.773 1439.5 729.048 1452.82 721.986 1470.7 C 712.703 1494.21 708.432 1518.5 703.72 1543.18 L 686.972 1635.15 A 5977.73 5977.73 0 0 1 670.793 1716.17 C 666.926 1734.92 662.574 1753.67 659.826 1772.63 C 657.809 1786.54 656.449 1800.53 657.287 1814.6 C 658.741 1839.01 664.642 1864.81 672.853 1887.88 C 667.375 1909.13 661.3 1931.21 657.832 1952.88 z"/>
<path transform="translate(0,0)" fill="rgb(254,254,254)" d="M 0 0 L 2048 0 L 2048 2048 L 2029.83 2048 A 2158.47 2158.47 0 0 0 1960.57 1780.82 A 2132.6 2132.6 0 0 0 1814.9 1429.49 C 1785.96 1375.01 1754.6 1321.67 1716.47 1273.06 C 1743.22 1275.39 1769.9 1271.32 1791.48 1254.44 C 1808.27 1241.3 1820.16 1221.21 1822.72 1199.96 C 1831.23 1129.34 1747.89 1045.73 1705.99 993.109 C 1707.2 970.969 1704.35 951.638 1690.23 933.836 C 1666.52 903.933 1623.51 888.866 1586.63 884.74 C 1582.83 876.58 1578.87 868.389 1573.92 860.855 C 1556.14 833.8 1529.09 821.176 1498.22 814.809 C 1472.17 724.201 1425.5 643.114 1370.78 567.036 C 1378.26 548.94 1386.6 531.196 1393.85 513.001 C 1413.55 463.597 1426.94 412.57 1429.38 359.313 C 1431.95 303.172 1420.33 255.186 1381.64 213.19 C 1319.5 145.746 1224.07 126.884 1136 126.336 C 1103 126.13 1069.09 129.187 1036.23 126.643 C 1018 125.232 999.651 119.48 981.806 115.507 A 482.019 482.019 0 0 0 899.536 104.108 C 825.116 100.932 741.384 121.643 675.231 155.211 C 659.779 163.051 643.96 171.197 631.127 182.979 C 628.934 178.694 626.76 174.233 623.361 170.758 C 618.109 165.387 611.767 163.046 604.306 163.077 C 574.062 163.203 567.559 191.99 549.823 209.899 A 75.0679 75.0679 0 0 0 546.976 207.412 C 542.975 204.123 538.596 202.613 533.383 203.393 C 526.275 204.456 520.826 210.301 516.878 215.88 C 507.068 229.743 505.329 244.478 508.019 260.808 C 503.07 263.219 497.812 265.949 493.692 269.646 C 488.545 274.264 484.724 280.328 484.523 287.398 C 484.161 300.203 493.342 311.141 501.497 320.052 C 486.624 335.539 474.929 353.152 461.64 369.919 C 450.792 375.194 440.376 382.253 430.241 388.772 C 400.307 408.026 373.138 428.713 346.334 452.173 C 226.535 557.025 139.129 680.339 86.799 831.095 C 13.5501 1042.11 27.2096 1298.56 125.294 1499.73 A 857.148 857.148 0 0 0 625.353 1941.9 C 635.728 1945.47 648.072 1948.14 657.832 1952.88 A 2084.24 2084.24 0 0 1 630.724 2048 L 0 2048 L 0 0 z"/>
</svg>