<svg version="1.1" xmlns="http://www.w3.org/2000/svg" style="display: block;" viewBox="0 0 2048 2048" width="1024" height="1024">
<defs>
	<linearGradient id="Gradient1" gradientUnits="userSpaceOnUse" x1="524.997" y1="932.625" x2="1649.3" y2="844.587">
		<stop class="stop0" offset="0" stop-opacity="1" stop-color="rgb(235,225,203)"/>
		<stop class="stop1" offset="1" stop-opacity="1" stop-color="rgb(255,255,248)"/>
	</linearGradient>
</defs>
<path transform="translate(0,0)" fill="rgb(42,35,36)" d="M 0 0 L 2048 0 L 2048 2048 L 1327.21 2048 L 1160.61 2048 L 1148.82 2048 L 1075.88 2048 L 1062.4 2048 L 447.428 2048 L 431.946 2048 L 0 2048 L 0 0 z"/>
<path transform="translate(0,0)" fill="rgb(241,188,168)" d="M 1573.57 837.953 C 1575.81 842.828 1574.77 849.789 1574.46 855.092 C 1572.1 853.361 1569.73 851.403 1569.23 848.336 C 1568.58 844.35 1571.43 840.995 1573.57 837.953 z"/>
<path transform="translate(0,0)" fill="rgb(254,252,239)" d="M 882.361 486.821 C 882.828 487.002 883.343 487.089 883.762 487.364 C 885.951 488.799 886.003 489.773 886.045 492.096 C 884.46 495.075 882.958 496.072 880.071 497.748 C 878.004 495.887 876.419 494.307 874.954 491.89 C 876.242 489.338 879.812 488.163 882.361 486.821 z"/>
<path transform="translate(0,0)" fill="rgb(254,252,239)" d="M 852.117 466.556 C 854.588 467.659 856.93 470.074 858.436 472.304 C 860.521 475.39 860.712 476.808 860 480.333 C 858.613 480.673 857.478 480.722 856.059 480.767 C 854.483 479.809 853.172 479.078 852.269 477.377 C 850.329 473.723 850.81 470.276 852.117 466.556 z"/>
<path transform="translate(0,0)" fill="rgb(42,28,29)" d="M 1238.11 1405.62 C 1240.7 1410.41 1243.32 1414.96 1246.45 1419.44 C 1244.4 1420.91 1244.16 1421.28 1241.68 1421.31 C 1240.38 1420.35 1239.11 1419.43 1238.09 1418.17 C 1235.85 1415.38 1234.73 1411.19 1235.21 1407.67 L 1238.11 1405.62 z"/>
<path transform="translate(0,0)" fill="rgb(241,188,168)" d="M 1714.12 1219.01 L 1715.42 1219.85 C 1714.22 1224.48 1712.41 1229.25 1709.3 1232.94 L 1707.94 1232.46 L 1701.11 1223.33 L 1714.12 1219.01 z"/>
<path transform="translate(0,0)" fill="rgb(155,137,125)" d="M 767.034 339.973 C 773.367 339.853 788.066 339.663 793.148 343.271 L 790.771 344.408 C 784.028 345.401 773.538 348.321 767.421 345.045 C 766.045 342.669 766.354 342.681 767.034 339.973 z"/>
<path transform="translate(0,0)" fill="rgb(42,28,29)" d="M 1334.86 788.778 C 1336.93 791.189 1338.48 793.56 1338 796.91 C 1337.63 799.497 1336.2 801.803 1334.02 803.228 C 1332.74 804.066 1332.16 804.147 1330.66 804.664 L 1331.19 802.824 C 1330.67 801.928 1330.43 801.436 1329.86 800.648 C 1327.54 797.405 1324.98 796.503 1321.2 795.8 L 1326.02 794.688 C 1328.69 791.302 1332.21 791.827 1334.86 788.778 z"/>
<path transform="translate(0,0)" fill="rgb(221,175,140)" d="M 1691.57 1280.58 C 1695.73 1283.07 1700.25 1294.6 1702.65 1299.26 L 1698.26 1308.45 L 1697.21 1308.65 C 1693.7 1305.95 1691.43 1295.48 1690.27 1291.14 C 1688.96 1286.22 1689.05 1284.89 1691.57 1280.58 z"/>
<path transform="translate(0,0)" fill="rgb(221,175,140)" d="M 1730.66 1272.8 C 1730.38 1279.43 1724.75 1307.26 1720.77 1312.19 L 1719.02 1310.4 C 1716.32 1306.61 1714.04 1302.56 1711.68 1298.55 A 185.529 185.529 0 0 1 1730.66 1272.8 z"/>
<path transform="translate(0,0)" fill="rgb(241,188,168)" d="M 1810.63 876.757 C 1812.15 888.078 1806 915.713 1805.24 929.58 L 1796.97 922.711 L 1790.48 917.81 C 1797.42 904.29 1804.97 890.871 1810.63 876.757 z"/>
<path transform="translate(0,0)" fill="rgb(221,175,140)" d="M 1708.69 1250.58 C 1713.68 1254.26 1717.89 1266.38 1720.99 1272.1 A 1066.4 1066.4 0 0 0 1708.93 1290.11 L 1707.79 1289.85 C 1703.66 1284.78 1700.67 1278.16 1697.52 1272.42 A 842.337 842.337 0 0 0 1708.69 1250.58 z"/>
<path transform="translate(0,0)" fill="rgb(221,175,140)" d="M 1707.11 1307.17 C 1711.32 1310.94 1715.9 1314.04 1720.56 1317.22 C 1718.29 1328.28 1715.61 1338.92 1711.91 1349.6 L 1710.98 1349.69 C 1710.77 1349.5 1710.54 1349.33 1710.36 1349.12 C 1707.03 1345.27 1699.36 1320.85 1699.33 1316.04 C 1701.13 1312.29 1704.1 1309.9 1707.11 1307.17 z"/>
<path transform="translate(0,0)" fill="rgb(221,175,140)" d="M 1695.26 1225.14 C 1698.89 1230.08 1701.29 1237.14 1703.85 1242.78 C 1701.45 1247.44 1696.33 1260.14 1691.75 1261.91 L 1690.35 1259.54 C 1685 1250.72 1679.07 1241.92 1675.62 1232.15 C 1682.02 1229.48 1688.7 1227.38 1695.26 1225.14 z"/>
<path transform="translate(0,0)" fill="rgb(221,175,140)" d="M 1603.44 909.512 C 1608.44 913.439 1628.98 946.77 1634.69 954.812 C 1631.61 960.617 1628.31 966.319 1625.1 972.052 L 1619.51 982.401 L 1603.44 909.512 z"/>
<path transform="translate(0,0)" fill="rgb(221,175,140)" d="M 1747.48 1204.92 L 1748.27 1205.01 L 1749.05 1206.43 C 1744.82 1219.96 1739.32 1251.83 1730.7 1261.09 C 1729.04 1262.88 1728.7 1262.84 1726.41 1262.88 L 1723.93 1259.47 C 1720.74 1253.97 1717.29 1248.6 1713.95 1243.19 C 1719.37 1234.04 1723.62 1224.06 1728.06 1214.4 C 1734.26 1210.86 1741.04 1208 1747.48 1204.92 z"/>
<path transform="translate(0,0)" fill="rgb(221,175,140)" d="M 1786.29 924.458 C 1792 928.815 1797.9 932.954 1803.72 937.177 C 1804.61 943.334 1804.43 947.958 1803.1 954.051 C 1791.7 957.691 1780.38 963.347 1769.33 968.05 L 1755.49 973.714 C 1767.61 959.064 1775.88 940.479 1786.29 924.458 z"/>
<path transform="translate(0,0)" fill="rgb(221,175,140)" d="M 1806.42 863.996 L 1807.7 864.615 C 1805.79 875.447 1789.59 901.267 1783.8 912.217 C 1778.78 908.49 1774.09 904.095 1769.34 900.029 C 1761.54 893.588 1754.81 888.751 1751.47 878.765 C 1770.35 875.083 1788.52 871.304 1806.42 863.996 z"/>
<path transform="translate(0,0)" fill="rgb(221,175,140)" d="M 1639.2 961.884 C 1649.28 973.344 1656.42 986.736 1667.4 997.586 L 1662.75 1006.88 C 1657.84 1008.94 1652.71 1010.6 1647.69 1012.4 C 1641.14 1014.03 1634.51 1015.33 1627.91 1016.71 C 1625.66 1009.36 1624.55 1001.62 1623.18 994.067 C 1627.65 983.013 1633.7 972.459 1639.2 961.884 z"/>
<path transform="translate(0,0)" fill="rgb(221,175,140)" d="M 1711.28 949.712 C 1720.42 959.464 1728.25 971.698 1736.37 982.392 C 1723.15 988.126 1709.64 993.273 1696.25 998.596 C 1692.13 1000.46 1687.16 1003.01 1682.6 1002.74 C 1680.11 1001.48 1680.26 1001.54 1679.29 998.901 C 1680.56 988.186 1703.53 958.813 1711.28 949.712 z"/>
<path transform="translate(0,0)" fill="rgb(221,175,140)" d="M 1738.51 881.409 C 1741.15 881.116 1742.03 880.721 1744.35 881.909 C 1744.94 887.86 1716.28 928.983 1711.76 935.822 C 1708.16 929.785 1703.6 924.115 1699.47 918.418 A 429.553 429.553 0 0 0 1672.34 885.906 C 1694.52 886.36 1716.52 883.969 1738.51 881.409 z"/>
<path transform="translate(0,0)" fill="rgb(241,188,168)" d="M 1816.13 771.593 C 1821.49 776.454 1825.3 781.318 1827.49 788.317 C 1830 796.349 1830.02 805.357 1825.83 812.831 C 1815.68 830.937 1777.39 837.359 1758.75 842.458 L 1743.59 846.008 A 275.419 275.419 0 0 0 1816.13 771.593 z"/>
<path transform="translate(0,0)" fill="rgb(221,175,140)" d="M 1596.74 873.385 A 269.619 269.619 0 0 0 1664.62 885.654 C 1666.77 888.338 1668.52 891.405 1670.36 894.314 C 1664.6 905.206 1657.88 915.758 1651.6 926.366 L 1639.09 947.989 C 1628.01 932.269 1610.56 909.8 1602.35 892.895 L 1601.57 891.249 C 1598.82 885.558 1597.89 879.547 1596.74 873.385 z"/>
<path transform="translate(0,0)" fill="rgb(221,175,140)" d="M 1747.41 892.384 C 1758.59 898.167 1769.93 910.51 1779.42 918.874 C 1770.2 934.511 1756.09 955.154 1751.32 972.432 C 1750.55 975.205 1749.88 975.019 1747.61 976.628 L 1745.01 977.389 C 1738.68 974.898 1721.63 948.595 1716.44 941.568 C 1727.85 925.856 1737.66 909.148 1747.41 892.384 z"/>
<path transform="translate(0,0)" fill="rgb(221,175,140)" d="M 1675.1 899.641 C 1686 913.635 1697.51 928.061 1706.93 943.074 C 1696.07 958.797 1683.98 973.386 1673.63 989.53 L 1672.15 990.903 C 1666.42 988.029 1648.03 960.151 1643.59 953.274 C 1653.16 934.986 1665.56 918.166 1675.1 899.641 z"/>
<path transform="translate(0,0)" fill="rgb(226,219,208)" d="M 985.137 1166.87 C 990.95 1175.87 995.629 1185.8 1000.71 1195.24 A 1841.16 1841.16 0 0 0 1026.76 1242.03 C 1040.04 1265.11 1053.92 1287.82 1067.13 1310.95 C 1072.96 1321.16 1079.63 1331.37 1084.31 1342.17 L 1083.09 1342.51 L 1079.61 1340.01 C 1071.38 1332.16 1063.87 1323.56 1056.62 1314.81 C 1047.76 1304.13 979.144 1216.72 977.551 1211.05 C 976.982 1209.02 978.97 1209.22 979.532 1207.68 C 979.915 1206.63 979.406 1202.71 979.377 1201.41 C 979.085 1188.34 979.373 1178.95 985.137 1166.87 z"/>
<path transform="translate(0,0)" fill="rgb(221,175,140)" d="M 1573.57 837.953 L 1574.63 836.419 C 1578.71 837.317 1582.78 843.73 1586.6 846.085 C 1592.55 849.751 1600.21 851.504 1606.97 853.008 C 1666.37 866.211 1737.27 859.084 1794.93 841.393 C 1803.38 838.8 1815.08 836.527 1822.4 831.777 C 1826.08 829.396 1827.26 827.447 1831.89 827.686 C 1834.03 829.103 1835.15 829.523 1835.32 832.39 C 1835.56 836.615 1831.94 842.562 1828.7 845.077 C 1804.29 863.984 1718.01 876.35 1685.79 876.966 C 1668.42 877.298 1650.11 875.724 1633.05 872.689 C 1614.06 869.313 1590.89 865.362 1574.46 855.092 C 1574.77 849.789 1575.81 842.828 1573.57 837.953 z"/>
<path transform="translate(0,0)" fill="rgb(226,219,208)" d="M 1281.22 1211.36 C 1288.67 1210.59 1296.1 1210.62 1302.99 1213.91 C 1309.56 1217.05 1314.33 1222.74 1316.71 1229.58 C 1318.39 1234.39 1320.73 1241.72 1318.55 1246.49 C 1314.17 1247.53 1308.84 1246.61 1304.34 1246.49 C 1269.9 1245.55 1232.08 1258.49 1206.98 1282.37 C 1199.62 1289.81 1193.85 1296.64 1189.33 1306.11 C 1192.75 1288.17 1195.12 1277.42 1190.19 1259.39 C 1191.27 1257.13 1192.37 1254.84 1193.83 1252.79 C 1210.66 1229.05 1253.92 1215.29 1281.22 1211.36 z"/>
<path transform="translate(0,0)" fill="rgb(226,219,208)" d="M 1297.74 1255.44 C 1301.83 1255.02 1306.49 1255.13 1310.57 1255.7 C 1316.84 1256.59 1322.91 1258.83 1326.74 1264.16 C 1332.52 1272.2 1330.43 1281.21 1329.17 1290.26 C 1279.55 1288.74 1255.48 1301.3 1215.61 1329.3 C 1209 1334.86 1203.46 1341.51 1198.02 1348.19 C 1199.09 1343.75 1200.38 1339.09 1200.52 1334.51 C 1201.06 1317.03 1195.65 1310.76 1208.48 1295.24 C 1229.06 1270.35 1266.67 1258.2 1297.74 1255.44 z"/>
<path transform="translate(0,0)" fill="rgb(241,188,168)" d="M 1716.53 548.523 C 1724.43 552.512 1734.3 571.863 1737.2 580.521 C 1744.33 601.866 1741.43 624.794 1731.27 644.623 C 1718.14 670.247 1697.17 689.805 1669.47 698.534 C 1662.12 700.849 1640.96 706.835 1634.05 705.346 L 1632.15 703.092 C 1632.56 701.829 1632.81 700.812 1633.05 699.523 C 1641.92 652.175 1666.24 654.664 1700.06 631.236 C 1713.32 622.051 1726.96 608.909 1729.54 592.26 C 1731.68 578.432 1724.14 560.964 1715.98 549.984 L 1716.53 548.523 z"/>
<path transform="translate(0,0)" fill="rgb(226,219,208)" d="M 996.769 1079.93 C 1001.03 1083.11 1005.08 1086.61 1009.1 1090.1 C 1021.2 1100.61 1038.06 1114.91 1038.84 1132.22 C 1039.7 1151.17 1019.61 1174.27 1007.01 1187.37 C 1001.43 1177.41 995.616 1167.54 990.975 1157.11 C 994.663 1152.97 998.671 1148.82 1001.48 1144.02 C 1003.08 1141.3 1005.65 1137.34 1004.82 1134.1 L 1003.16 1133.48 C 999.463 1134.64 996.706 1136.9 993.628 1139.17 C 990.042 1142.22 986.778 1145.42 983.845 1149.1 C 972.025 1163.93 965.944 1180.93 967.933 1199.9 C 959.936 1186.25 950.559 1173.47 942.719 1159.69 C 949.242 1150.14 954.247 1139.32 960.125 1129.34 C 970.677 1111.42 982.924 1095.4 996.769 1079.93 z"/>
<path transform="translate(0,0)" fill="rgb(226,219,208)" d="M 1305.84 1300.42 C 1313.2 1299.49 1324.19 1298.7 1331.27 1301.02 C 1335.08 1302.28 1338.28 1304.47 1340.08 1308.12 C 1345.4 1318.89 1338.72 1335.79 1334.89 1346.22 C 1323.81 1343.96 1313.55 1342.6 1302.25 1343.91 C 1277.01 1346.83 1245.54 1360.86 1229.63 1381.16 C 1226.09 1388.05 1224.59 1394.77 1223.35 1402.33 C 1219.26 1399.74 1215.44 1396.8 1211.58 1393.89 C 1210.72 1389.98 1209.74 1385.94 1209.29 1381.96 C 1207.73 1368.11 1212.44 1350.75 1221.41 1339.9 C 1225.85 1334.53 1231.68 1330.49 1237.36 1326.53 C 1258.43 1311.84 1280.14 1302.73 1305.84 1300.42 z"/>
<path transform="translate(0,0)" fill="rgb(226,219,208)" d="M 1075.83 626.485 C 1078.52 626.894 1080.77 627.873 1082.6 629.927 C 1087.39 635.305 1089.46 644.987 1088.78 652.01 C 1087.47 665.502 1075.97 676.044 1066.11 684.186 C 1028.23 715.439 978.96 738.787 928.779 734.072 L 923.466 733.215 C 920.243 732.705 916.69 732.436 914.325 729.867 C 912.813 728.225 912.535 726.349 913.198 724.256 C 914.802 719.193 924.583 712.244 928.932 709.203 C 929.804 709.192 930.676 709.188 931.547 709.145 C 989.456 706.285 1038.68 668.006 1075.83 626.485 z"/>
<path transform="translate(0,0)" fill="rgb(241,188,168)" d="M 1095.45 763.252 C 1105.82 761.898 1132.68 761.603 1141.09 768.81 C 1142.62 770.124 1142.17 769.463 1142.35 771.587 C 1118.27 798.623 1061.64 827.252 1027.25 838.395 C 1012.86 842.554 999.135 844.199 984.173 844.201 C 986.557 836.974 990.015 830.503 994.238 824.192 C 1018.47 787.975 1053.75 771.339 1095.45 763.252 z"/>
<path transform="translate(0,0)" fill="rgb(226,219,208)" d="M 959.79 852.711 C 1018.7 862.891 1072.97 837.852 1120.02 804.581 C 1131.03 796.8 1141.84 788.563 1151.81 779.489 C 1164.62 767.827 1207.94 718.106 1222.57 719.796 C 1226.73 722.981 1227.32 727.054 1228.06 732.017 C 1230.55 748.862 1226.15 770.239 1223.46 787.093 C 1213.89 786.96 1196.73 784.202 1188.45 788.535 C 1187.17 790.9 1186.76 791.751 1187.72 794.373 C 1191.69 805.159 1203 818.1 1210.3 827.014 L 1208.76 827.008 C 1198.25 826.921 1187.89 825.072 1177.63 822.915 C 1172.24 821.782 1165.21 819.429 1159.74 819.599 C 1157.76 819.66 1156.81 819.992 1155.16 821.002 C 1153.51 823.85 1153.94 826.444 1154.73 829.488 C 1158.06 842.301 1166.08 854.51 1171.58 866.537 C 1150.87 859.901 1135.17 849.369 1116.42 839.023 C 1112.76 837.004 1110.43 835.839 1106.31 837.018 C 1105.75 837.807 1105.32 838.297 1105.05 839.303 C 1102.53 848.7 1112.74 868.188 1116.66 877.192 C 1110.11 874.166 1086.96 860.297 1083.68 860.139 C 1081.96 860.055 1081.6 860.833 1080.35 861.845 C 1078.6 865.72 1079.5 869.704 1079.93 873.81 C 1065.47 865.56 1055.7 854.149 1038.99 849.966 C 1040.6 861.303 1040.7 872.724 1042.61 884.041 C 1036.69 880.183 1016.27 863.899 1010.78 863.911 C 1007.21 868.516 1009.96 888.747 1009.99 895.101 C 995.322 885.668 983.714 872.191 970.115 861.356 C 966.865 858.13 963.445 855.45 959.79 852.711 z"/>
<path transform="translate(0,0)" fill="rgb(128,106,94)" d="M 1052.69 710.852 C 1066.02 724.669 1077.44 739.946 1089.04 755.212 C 1070.78 759.172 1052.6 764.89 1036.12 773.808 C 1007.33 789.38 984.523 812.707 975.036 844.273 C 963.447 841.783 953.496 839.45 942.925 833.92 C 935.492 829.288 928.763 823.737 923.337 816.829 C 906.592 795.511 903.577 765.579 906.921 739.602 C 913.939 742.673 921.143 744.364 928.692 745.524 C 971.556 752.114 1018.21 736.024 1052.69 710.852 z"/>
<path transform="translate(0,0)" fill="rgb(254,252,239)" d="M 815.342 449.258 C 828.113 447.859 838.544 450.186 850.837 453.188 C 849.084 454.36 847.287 455.599 845.728 457.029 A 14.6853 14.6853 0 0 0 841.01 467.503 C 840.817 475.216 846.993 483.695 852.104 488.943 C 859.264 496.294 873.032 505.503 883.603 505.237 C 886.706 505.159 889.016 503.993 890.949 501.574 C 893.886 497.9 893.135 493.268 892.635 488.969 L 893.654 488.633 C 894.737 489.132 895.089 489.243 896.022 489.83 C 909.235 498.129 927.052 538.704 930.76 554.375 C 934.105 568.512 935.527 586.724 927.56 599.473 C 924.931 601.856 922.334 603.869 918.966 605.111 C 905.191 610.193 885.193 604.726 872.238 599.023 C 837.632 583.791 809.653 549.49 796.404 514.645 C 790.828 499.98 786.066 482.339 793.192 467.374 C 797.976 457.327 805.406 452.954 815.342 449.258 z"/>
<path transform="translate(0,0)" fill="rgb(226,219,208)" d="M 801.528 941.781 C 804.098 945.417 805.803 951.329 807.622 955.511 C 811.388 964.167 815.532 972.298 820.912 980.084 C 824.292 984.974 827.686 989.628 833.812 990.747 C 834.658 990.406 835.101 990.303 835.822 989.586 C 842.953 982.498 845.693 958.552 847.304 948.446 C 851.577 960.962 866.84 1010.72 877.383 1015.03 C 878.649 1015.54 880.089 1015.64 881.326 1015.05 C 885.984 1012.84 888.476 1005.26 890.571 1000.81 C 899.225 1018.45 910.937 1033.52 926.869 1045.01 C 927.622 1027.78 929.008 1011.1 931.986 994.096 C 939.172 1012.13 942.145 1028.8 960.879 1039.22 C 965.281 1041.67 973.811 1045.4 978.882 1044.01 C 987.384 1038.21 990.254 1017.32 994.662 1007.81 L 995.392 1006.26 C 1001.45 1016.25 1006.96 1025.49 1015.33 1033.71 C 1015.57 1033.94 1015.87 1034.13 1016.05 1034.41 C 1018.31 1037.91 1007.02 1048.66 1004.39 1051.74 C 978.026 1082.72 949.858 1113.26 937.652 1152.99 C 929.969 1142.57 922.384 1132.1 915.514 1121.13 C 898.357 1093.71 882.354 1062.85 859.777 1039.48 C 849.308 1028.64 836.584 1020.29 824.602 1011.24 A 897.287 897.287 0 0 1 779.466 975.352 C 789.005 965.491 795.654 954.095 801.528 941.781 z"/>
<path transform="translate(0,0)" fill="rgb(241,188,168)" d="M 1716.91 542.468 C 1740.74 548.254 1764.54 566.994 1777.23 587.774 C 1788.83 606.757 1794.96 631.839 1789.59 653.839 A 122.403 122.403 0 0 1 1788.46 658.125 C 1786.12 661.765 1784.55 666.776 1782.6 670.749 C 1776.96 682.253 1770.45 693.239 1762.15 703.049 C 1742.24 726.595 1715.44 748.247 1687.35 761.179 C 1656.76 775.262 1615.87 778.633 1592.31 804.309 C 1587.98 809.03 1584.79 814.715 1581.5 820.176 C 1576.77 810.09 1573.68 799.945 1572.93 788.779 C 1572.04 775.439 1573.94 761.861 1580.05 749.851 C 1598.94 712.741 1646.8 718.243 1680.31 704.573 C 1695.5 698.379 1709.81 687.34 1720.42 674.913 C 1738.5 653.739 1750.36 625.51 1747.99 597.304 C 1746.03 573.929 1734.45 557.1 1716.91 542.468 z"/>
<path transform="translate(0,0)" fill="rgb(241,188,168)" d="M 1797.07 663.349 C 1800.23 665.515 1802.92 668.618 1805.29 671.611 C 1817.93 687.575 1824.49 706.938 1821.84 727.312 C 1816.45 768.701 1781.21 804.138 1749.76 828.536 C 1741.3 835.103 1732.27 842.736 1722.25 846.757 C 1700.72 855.4 1643.98 850.733 1620.23 847.744 C 1610.72 846.276 1596.48 843.401 1588.92 837.221 C 1587.42 833.439 1587.88 831.046 1589.51 827.353 C 1605.55 790.835 1652.55 786.802 1685.41 773.183 C 1733.18 753.385 1777.27 711.259 1797.07 663.349 z"/>
<path transform="translate(0,0)" fill="rgb(226,219,208)" d="M 1141.06 1247.53 C 1150.66 1237.99 1164.98 1233.04 1175.49 1224.19 C 1188.82 1212.99 1211.34 1174.66 1228.84 1174.73 C 1235.02 1174.75 1240.14 1178.75 1244.09 1183.13 C 1250.01 1189.68 1253.92 1197.4 1257.95 1205.17 C 1231.29 1212.07 1196.84 1225.65 1181.8 1250.4 A 62.2092 62.2092 0 0 0 1179.4 1254.77 C 1176.91 1252.98 1174.7 1250.92 1171.53 1250.67 L 1170.27 1251.72 C 1173.15 1268.58 1189.34 1275.59 1174.71 1296.11 C 1168.71 1304.53 1163.88 1310.21 1165.83 1321.25 C 1166.49 1325 1168.33 1329.31 1171.64 1331.47 C 1174.19 1333.13 1177.16 1333.08 1179.96 1332.25 C 1183.72 1331.13 1186.52 1329.33 1188.99 1326.33 C 1190.86 1329.19 1190.46 1332.67 1189.82 1335.85 C 1188.4 1342.87 1185.33 1349.52 1189.39 1356.26 C 1191.26 1359.38 1194.05 1360.66 1197.25 1362.1 C 1197 1374.76 1195.87 1395.22 1205.54 1404.97 C 1206.86 1406.3 1208.4 1407.44 1209.89 1408.56 C 1206.83 1416.84 1202.74 1427.26 1206.24 1435.93 C 1208.22 1437.48 1208.14 1437.76 1210.6 1437.55 C 1219.17 1423.55 1207.17 1420.35 1228.09 1411.01 C 1232.73 1418.64 1238.09 1429.81 1247.65 1431.82 C 1253.91 1433.14 1259.78 1429.84 1264.69 1426.31 C 1269.66 1422.73 1273.94 1418.19 1278.96 1414.73 C 1285.91 1414.8 1300.54 1419.48 1305.71 1415.35 C 1307.23 1414.13 1308.62 1411.88 1308.66 1409.88 C 1308.71 1407.48 1308.05 1405.32 1306.09 1403.81 C 1300.91 1399.82 1290.77 1402.41 1285.06 1404.08 C 1279.84 1405.61 1273.85 1407.56 1269.5 1410.85 C 1263.58 1415.32 1257.89 1426.42 1249.13 1421.44 C 1248.14 1420.88 1247.32 1420.15 1246.45 1419.44 C 1243.32 1414.96 1240.7 1410.41 1238.11 1405.62 C 1236.32 1400.29 1232.96 1392.92 1235.62 1387.44 C 1242.45 1373.38 1271.92 1362.19 1286.05 1357.92 C 1299.88 1353.74 1323.91 1350.51 1337.03 1357.6 C 1340.48 1359.46 1342.86 1362.44 1343.86 1366.25 C 1346.4 1375.86 1340.37 1389.72 1335.25 1397.84 C 1316.21 1428.01 1272.82 1441.59 1246.48 1464.67 C 1219.22 1450.27 1193.44 1431.07 1168.58 1412.88 C 1156.72 1404.21 1144.08 1395.79 1133.46 1385.62 C 1129.46 1362.86 1124.1 1337.47 1132.51 1315.06 C 1136.09 1305.54 1141.34 1296.28 1142.64 1286.08 C 1144.22 1273.66 1140.47 1260.76 1141.04 1248.09 C 1141.05 1247.91 1141.05 1247.72 1141.06 1247.53 z"/>
<path transform="translate(0,0)" fill="rgb(226,219,208)" d="M 925.918 1656.28 C 941.593 1672.27 956.971 1688.66 973.087 1704.19 C 981.581 1712.38 1002.74 1728.94 1008.12 1737.16 C 1013.46 1745.31 1014.82 1759.47 1017.99 1768.94 C 1024.76 1789.19 1032.07 1809.6 1039.82 1829.49 C 1057.97 1876.05 1080.53 1921.19 1103.33 1965.61 C 1117.65 1993.51 1131.49 2021.8 1148.82 2048 L 1075.88 2048 A 1240.43 1240.43 0 0 1 965.316 1797.78 C 959.04 1778.2 953.93 1758.1 948.283 1738.32 C 940.522 1711.13 932.232 1683.84 925.918 1656.28 z"/>
<path transform="translate(0,0)" fill="rgb(42,35,36)" d="M 984.039 1759.9 C 988.033 1760.03 990.677 1760.64 993.73 1763.34 C 1002.21 1770.85 1010.84 1789.2 1011.42 1800.51 C 1011.65 1805.09 1010.09 1807.61 1007.16 1810.97 C 1003.43 1811.3 1000.09 1811.46 997.049 1808.93 C 987.631 1801.08 980.163 1783.62 979.479 1771.39 C 979.202 1766.43 980.79 1763.48 984.039 1759.9 z"/>
<path transform="translate(0,0)" fill="rgb(42,35,36)" d="M 1051.41 1922.93 C 1052.03 1922.93 1052.65 1922.93 1053.27 1922.94 C 1056.79 1923.04 1058.93 1924.56 1061.13 1927.19 C 1068.58 1936.06 1081.38 1961.03 1080.77 1972.33 C 1078.45 1974.63 1076.7 1974.61 1073.56 1975.33 C 1064.76 1972.35 1055.84 1962.3 1050.78 1954.68 C 1046.48 1948.2 1041.98 1939.12 1043.9 1931.11 C 1044.96 1926.69 1047.79 1925.12 1051.41 1922.93 z"/>
<path transform="translate(0,0)" fill="rgb(226,219,208)" d="M 767.342 858.926 C 774.952 870.841 785.798 897.519 788.024 911.619 C 789.068 918.227 788.729 924.851 787.296 931.369 C 782.221 954.453 765.845 972.867 746.212 985.162 C 716.87 1003.54 680.304 1011.3 646.37 1003.22 C 625.202 998.18 598.767 985.152 587.272 965.776 C 578.32 950.687 572.393 928.398 576.935 911.258 C 582.939 888.602 600.046 871.035 619.941 859.614 C 645.105 845.168 685.519 838.358 713.651 846.227 C 721.711 848.481 729.25 853.123 735.049 859.17 C 740.218 864.561 757.275 892.609 765.006 888.168 C 767.385 886.801 768.5 884.448 769.048 881.861 C 770.201 876.416 766.708 867.068 764.31 862.202 L 767.342 858.926 z"/>
<path transform="translate(0,0)" fill="rgb(42,35,36)" d="M 676.643 879.335 C 677.069 879.281 677.494 879.222 677.921 879.172 C 694.336 877.251 721.635 879.26 735.037 890.504 C 737.612 892.665 738.415 894.615 738.755 897.982 C 737.412 902.306 734.161 905.245 731.176 908.527 C 730.294 907.193 729.386 905.879 728.486 904.557 C 727.772 903.508 727.084 902.447 726.268 901.471 C 719.453 893.325 706.02 892.672 696.218 891.519 A 57.6919 57.6919 0 0 0 687.564 903.446 C 682.425 913.084 677.039 927.654 680.662 938.432 C 687.474 958.695 709.33 944.137 720.456 950.027 C 720.728 951.918 721.035 951.429 719.942 952.859 C 717.065 956.621 712.426 958.427 707.882 959.178 C 697.435 960.907 685.773 958.614 677.164 952.405 C 671.713 948.474 669.587 944.412 668.453 937.897 C 668.242 918.671 672.413 905.27 684.663 890.3 C 659.539 892.078 626.653 902.345 610.627 923.253 C 605.898 929.422 602.508 939.285 596.116 943.748 L 595.181 942.899 C 595.42 932.098 598.975 922.551 605.591 914.003 C 621.806 893.056 651.404 882.986 676.643 879.335 z"/>
<path transform="translate(0,0)" fill="rgb(254,252,239)" d="M 368.001 1055.55 C 371.048 1056.85 373.242 1058.01 376.653 1057.45 L 378.809 1055.52 C 375.57 1018.85 368.289 982.425 370.374 945.382 C 379.879 997.884 409.919 1044.45 447.016 1081.84 C 456.473 1091.37 466.251 1100.8 477.317 1108.46 C 485.83 1114.35 513.475 1133.41 523.239 1130.96 C 526.004 1130.27 526.268 1129.08 527.427 1126.76 C 524.311 1114.13 516.143 1101.61 510.662 1089.75 C 504.577 1076.58 499.368 1063.17 494.19 1049.62 C 528.562 1078.15 544.716 1097.35 589.184 1113.49 C 597.671 1116.57 607.719 1120.34 616.873 1119.35 C 618.89 1119.13 620.288 1118.52 621.997 1117.41 C 622.893 1115.34 623.075 1114.98 622.254 1112.74 C 618.969 1103.77 609.062 1094.47 602.453 1087.76 A 233.714 233.714 0 0 0 643.827 1101.26 C 634.564 1117.35 624.448 1132.71 614.857 1148.56 C 602.785 1168.53 591.216 1189.08 579.768 1209.42 C 538.845 1282.09 497.781 1362.54 471.97 1441.84 C 455.677 1491.91 444.607 1543.28 434.848 1594.91 C 428.067 1630.78 422.283 1666.41 418.352 1702.74 C 416.911 1716.06 415.102 1729.78 414.806 1743.17 C 406.581 1736.99 398.546 1730.38 391.761 1722.62 C 385.516 1715.47 378.854 1706.87 376.031 1697.68 C 370.815 1680.71 380.303 1641.56 381.573 1622.24 C 370.175 1636.92 366.577 1658.11 362.384 1675.81 C 349.891 1654.13 341.785 1630.97 335.495 1606.85 C 340.396 1592.3 344.308 1577.35 349.368 1562.89 C 354.501 1548.21 371.044 1516.34 371.772 1502.6 L 370.776 1501.67 C 354.841 1511.75 336.648 1569.48 331.11 1588.96 C 325.522 1570.88 310.337 1518.69 315.982 1502.94 C 320.124 1491.39 328.792 1481.51 333.705 1470.25 C 334.655 1468.07 335.537 1467.19 334.674 1464.94 L 332.453 1464.34 C 324.289 1467.29 317.234 1479.27 312.642 1486.26 C 310.784 1467.72 306.586 1428.03 311.385 1411.75 C 313.779 1403.63 320.653 1392.92 325.477 1385.87 C 330.86 1378 339.209 1368.77 341.492 1359.48 L 340.444 1358.47 C 328.368 1362.39 318.692 1378.02 311.114 1387.57 C 308.652 1370.39 313.605 1307.3 318.043 1289.95 C 319.289 1285.08 321.241 1281 324.157 1276.9 C 333.753 1263.41 352.754 1248.89 359.62 1235.39 C 361.02 1232.63 361.622 1230.44 360.713 1227.48 L 358.515 1227.35 C 345.708 1233.44 332.51 1249.74 322.719 1260.14 C 326.96 1238.95 333.932 1176.06 343.516 1161.04 C 353.042 1146.12 367.353 1134.32 377.087 1119.62 C 378.846 1116.96 379.821 1114.97 379.251 1111.81 L 377.641 1111.41 C 367.359 1118.65 356.632 1125.61 347.176 1133.93 C 354.913 1108.14 360.574 1081.51 368.001 1055.55 z"/>
<path transform="translate(0,0)" fill="rgb(226,219,208)" d="M 1816.45 952.001 L 1816.91 951.738 C 1820.53 959.983 1829.38 964.83 1832.16 973.515 C 1841.63 1003.05 1803.48 1031.61 1783.07 1045.79 C 1775.51 1051.03 1761.39 1057.94 1757.39 1065.91 L 1758.1 1067.35 C 1779.33 1071.28 1810.47 1035.19 1820.5 1033.86 C 1822.07 1034.8 1822.61 1035.73 1823.27 1037.38 C 1833.92 1063.9 1810.22 1090.12 1790.44 1104.86 C 1783.66 1109.91 1766.01 1117.96 1763.02 1125.36 L 1764.27 1126.45 C 1782.73 1127 1798.83 1111.23 1813.11 1101.48 C 1815.86 1101.27 1815.86 1101.21 1818.11 1102.8 C 1820.37 1108.03 1818.41 1115.1 1817.01 1120.45 C 1811.14 1143.02 1798.06 1154.53 1779.85 1167.86 C 1771.3 1174.11 1762.81 1180.22 1753.61 1185.49 C 1732.8 1197.4 1666.44 1228.76 1645.03 1222.5 C 1643.73 1222.12 1642.81 1221.77 1641.43 1221.67 C 1639.59 1221.54 1637.93 1227.1 1637.25 1228.75 C 1628.1 1251.11 1617.79 1272.23 1607.09 1293.85 C 1586.18 1336.13 1564.78 1378.19 1544.36 1420.7 C 1515.46 1480.89 1487.66 1541.68 1457.58 1601.29 C 1424.81 1666.24 1389.64 1729.53 1354.32 1793.1 C 1344.65 1810.49 1328.58 1848.16 1315.4 1860.69 C 1284.92 1848.86 1261.76 1823.31 1236.92 1803.19 C 1244.56 1765.05 1253.53 1726.99 1262.66 1689.18 C 1267.79 1667.92 1272.13 1645.28 1279.75 1624.79 C 1312.53 1599.64 1338.25 1568.43 1363.82 1536.26 A 1411.66 1411.66 0 0 0 1553.21 1218.17 C 1560.42 1201.49 1577.07 1167.76 1579.42 1151.42 C 1581 1140.49 1578.9 1128.55 1579.18 1117.45 C 1579.83 1092.82 1584.08 1058.59 1581.42 1034.89 C 1579.62 1018.9 1563.38 1000.04 1569.73 984.069 C 1572.43 977.255 1580.58 971.483 1587.12 968.773 C 1591.53 966.945 1598.66 965.398 1603.18 967.238 C 1608.67 972.327 1614.74 1010.16 1616.68 1019.8 C 1614.66 1020.95 1612.52 1022.07 1610.63 1023.43 C 1608.53 1024.93 1607.56 1025.92 1607.18 1028.46 L 1608.95 1029.73 C 1633.58 1032.24 1697.13 1008.64 1721.37 999.109 C 1747.35 988.899 1772.06 977.005 1796.94 964.435 C 1802.3 961.73 1808.9 959.696 1813.66 956.08 C 1815.56 954.629 1815.54 954.087 1816.45 952.001 z"/>
<path transform="translate(0,0)" fill="rgb(254,252,239)" d="M 1255.96 1840.93 C 1271.41 1851.55 1294.95 1870.33 1313.32 1873.29 C 1316.06 1873.73 1320.32 1873.94 1322.83 1872.49 C 1329.74 1868.51 1337.09 1853 1341.01 1846.04 A 8587.14 8587.14 0 0 0 1470.26 1606.59 C 1495.96 1555.89 1520.04 1504.25 1544.95 1453.16 C 1561.38 1419.48 1579.24 1386.49 1595.3 1352.64 C 1600.85 1340.95 1648.7 1234.93 1649.61 1234.26 C 1654.63 1236.36 1659.88 1234.98 1665.03 1234.1 C 1667.62 1256.06 1697.94 1369.17 1710.2 1381.2 C 1713.03 1382.19 1712.91 1382.19 1715.68 1381.05 C 1724.55 1370.61 1733.23 1325.99 1736.81 1310.33 C 1745 1304.7 1776.3 1280.47 1784.25 1278.79 L 1786.21 1279.41 C 1787.48 1283.57 1778.56 1348.14 1776.91 1356.26 C 1765.82 1360.82 1732.48 1377.81 1728.17 1389 C 1727.67 1390.3 1727.85 1390.4 1727.98 1391.82 C 1729.85 1393.62 1730.96 1394.22 1733.64 1394.26 C 1742.06 1394.36 1764.46 1377.56 1773.16 1372.3 C 1769.45 1395.8 1764.9 1421.4 1755.85 1443.48 A 912.976 912.976 0 0 1 1710.63 1473.23 C 1702.93 1478.07 1693.92 1482.48 1686.89 1488.16 C 1684.55 1490.05 1682.26 1492.55 1681.67 1495.58 C 1681.59 1495.96 1681.6 1496.35 1681.56 1496.73 C 1682.98 1498.37 1683.34 1498.32 1685.45 1498.54 C 1690.46 1499.06 1696.7 1496.82 1701.17 1494.72 C 1706 1492.46 1710.39 1488.62 1714.93 1485.77 C 1726.8 1478.32 1739.1 1471.59 1750.45 1463.33 C 1744.38 1481.45 1720.9 1553.81 1710.97 1564.09 C 1702.24 1573.13 1672.29 1588.86 1659.8 1595.06 C 1653.88 1598.01 1644.11 1601.23 1640.81 1607.5 C 1640.16 1608.73 1640.37 1608.86 1640.57 1610.08 C 1642.49 1612.26 1645.07 1612.77 1647.87 1612.89 C 1661.33 1613.45 1691.75 1594.07 1703.57 1586.16 C 1696.19 1603.77 1660.98 1680.55 1648.42 1690.22 C 1637.09 1698.93 1596.21 1710.68 1590.37 1719.18 C 1588.89 1721.35 1589.18 1722.63 1589.63 1724.96 C 1592.97 1727.04 1595.85 1726.75 1599.62 1725.92 C 1612.11 1723.18 1625.81 1717.71 1637.2 1711.9 C 1626.98 1730.65 1596.81 1784.76 1581.24 1794.39 C 1569.93 1801.39 1550.65 1806.33 1537.74 1810.14 C 1532.91 1811.56 1520.32 1813.84 1517.92 1818.47 C 1516.69 1820.85 1517.28 1821.64 1518.2 1823.92 C 1521.68 1826.52 1523.94 1826.91 1528.12 1826.28 C 1541.09 1824.34 1553.9 1818.58 1566.77 1815.57 C 1555.94 1829.65 1522.82 1875.21 1510.14 1881.64 C 1500.83 1886.37 1472.83 1887.11 1467.28 1893.56 C 1465.73 1895.37 1465.78 1897.05 1465.79 1899.25 C 1467.81 1901.81 1469.38 1902.71 1472.65 1903.16 C 1480.12 1904.2 1487.69 1902.61 1495.05 1901.43 C 1480.98 1915.47 1439.3 1958.51 1424.75 1965.64 C 1415.41 1970.21 1401.91 1967.74 1393.64 1973.9 C 1392.06 1975.08 1391.52 1975.76 1390.82 1977.54 C 1390.95 1980.45 1391.03 1982.12 1392.81 1984.59 C 1395.57 1986.42 1397.11 1986.35 1400.23 1986.41 L 1402.24 1986.47 L 1403.68 1986.49 C 1399.02 1995.89 1339.35 2039 1327.21 2048 L 1160.61 2048 C 1143.26 2014.94 1124.32 1982.99 1107.83 1949.43 A 2445.52 2445.52 0 0 1 1055.39 1833 C 1048.9 1817.15 1043.26 1800.98 1036.86 1785.1 C 1031.63 1772.15 1025.6 1759.55 1020.45 1746.54 C 1029.93 1755.75 1040.88 1763.8 1051.02 1772.29 L 1107.67 1820.29 C 1137.79 1846.02 1166.17 1874.12 1197.69 1898.13 C 1202.95 1902.14 1213.41 1910.47 1220.13 1910.48 C 1238.59 1901.45 1249.21 1859.69 1255.96 1840.93 z"/>
<path transform="translate(0,0)" fill="rgb(226,219,208)" d="M 772.444 1021.07 C 777.593 1021.06 822.509 1028.76 829.258 1030.4 C 831.903 1031.04 834.014 1032.15 836.161 1033.82 C 860.802 1052.98 888.619 1105.45 906.764 1132.25 C 920.104 1151.95 933.089 1171.96 946.878 1191.35 A 3013.74 3013.74 0 0 0 1005.04 1268.88 C 1022.26 1291.41 1039.1 1314.52 1058.25 1335.47 C 1100.17 1381.33 1167.18 1435.73 1221.3 1465.95 C 1232.67 1472.29 1245.17 1477.52 1257.2 1482.49 C 1207.2 1524.41 1173.05 1597.11 1151.17 1657.47 C 1149.02 1663.4 1140.95 1686.61 1143.37 1691.8 L 1146.03 1692.68 C 1147.7 1691.29 1148.32 1689.54 1149.09 1687.53 C 1152.52 1678.6 1154.88 1669.16 1158.05 1660.12 C 1162.55 1647.25 1168.38 1634 1173.93 1621.52 C 1191.39 1582.23 1212.19 1541.41 1240.26 1508.52 C 1247.08 1500.52 1254.97 1493.3 1262.51 1486 C 1269.59 1489.45 1276.09 1493.07 1281.7 1498.69 C 1256.21 1524.66 1237.97 1554.8 1221.37 1586.94 A 577.433 577.433 0 0 0 1163.52 1770.63 C 1162.18 1780.62 1158.89 1794.65 1162 1804.39 C 1166.83 1801.98 1169.1 1776.79 1170.13 1770.97 A 665.182 665.182 0 0 1 1204.94 1645.69 C 1226.63 1590.16 1253.91 1536.53 1295.32 1493.03 C 1304.59 1497.13 1322.95 1502.88 1329.85 1509.47 C 1325.31 1513.95 1319.54 1518.4 1316.24 1523.88 C 1308.13 1537.36 1299.7 1550.67 1292.82 1564.84 C 1269.62 1612.64 1255.82 1661.04 1243.7 1712.49 C 1229.18 1774.12 1218.94 1834.26 1217.75 1897.68 C 1181.15 1870.26 1149.02 1836.47 1114.62 1806.34 C 1078 1774.25 1040.18 1743.77 1004.31 1710.79 A 2457.77 2457.77 0 0 1 867.68 1572.2 C 848.838 1551.82 827.755 1532.73 810.988 1510.57 C 804.446 1501.93 799.306 1491.95 793.839 1482.59 C 779.618 1458.25 765.631 1433.54 754.825 1407.45 C 717.028 1316.19 708.13 1193.93 746.556 1101.8 C 753.53 1085.08 768.178 1054.52 782.212 1043.21 C 785.31 1040.71 789.894 1039.21 793.562 1037.7 C 788.619 1029.64 780.255 1025.9 772.444 1021.07 z"/>
<path transform="translate(0,0)" fill="rgb(42,35,36)" d="M 822.389 1231.5 C 824.906 1232.55 825.933 1233.53 827.323 1235.87 C 832.141 1243.99 835.791 1253.31 839.804 1261.9 C 852.077 1288.16 864.994 1318.24 884.041 1340.32 C 881.111 1328.71 863.489 1282.4 867.716 1273.88 C 868.053 1273.86 868.392 1273.79 868.728 1273.83 C 872.052 1274.14 875.419 1277.53 877.764 1279.71 C 889.027 1290.19 898.487 1303.14 908.968 1314.46 C 917.395 1323.57 927.394 1331.84 934.995 1341.62 C 937.197 1344.46 939.565 1347.41 939.7 1351.12 L 938.918 1351.96 C 934.22 1352 930.821 1349.79 927.08 1347.19 L 926.069 1346.48 C 906.397 1327.17 888.494 1308.6 874.229 1284.74 C 878.34 1302.09 885.55 1319.58 891.244 1336.55 C 893.023 1341.85 895.497 1347.35 896.678 1352.81 C 897.403 1356.16 897.613 1359.67 896.198 1362.84 C 894.09 1363.66 894.899 1363.77 893.011 1363.12 C 879.153 1358.28 854.024 1310.43 846.671 1295.83 C 841.531 1285.63 820.541 1244.22 821.235 1235.01 C 821.327 1233.78 822.004 1232.67 822.389 1231.5 z"/>
<path transform="translate(0,0)" fill="rgb(155,137,125)" d="M 478.831 200.03 C 497.29 209.124 509.855 223.755 516.465 243.264 A 72.0347 72.0347 0 0 1 520.335 265.492 C 520.482 274.932 514.461 303.518 520.603 309.872 C 522.01 309.698 522.676 309.97 523.645 308.77 C 524.776 307.367 525.003 306.541 525.521 304.91 C 526.599 301.516 527.588 297.434 529.612 294.475 C 538.295 281.781 551.773 271.247 563.479 261.432 C 606.425 225.423 661.615 192.977 698.291 151.062 C 707.932 140.043 716.126 127.779 720.652 113.731 C 722.16 109.05 722.978 102.539 725.422 98.4383 C 728.956 115.292 717.531 148.508 707.916 163.122 C 701.321 173.146 693.405 183.671 685.357 192.609 C 679.697 198.896 666.325 206.903 664.004 214.743 C 665.348 216.504 665.953 217.723 668.363 218.033 C 673.629 218.711 699.974 202.191 707.035 199.001 C 717.013 194.492 727.536 190.982 738.034 187.879 C 777.68 176.164 819.554 170.622 860.798 174.364 C 818.811 188.536 784.544 197.923 750.8 228.889 C 745.857 233.425 738.183 239.805 735.293 245.942 C 735.13 246.289 735.026 246.661 734.893 247.02 C 735.927 248.827 736.107 249.202 738.267 249.755 C 743.977 251.214 751.241 249.638 757.125 249.64 C 762.531 249.641 768.005 250.235 773.385 250.735 C 823.384 255.385 881.847 271.604 915.671 311.018 C 897.967 308.301 880.408 305.544 862.508 304.521 C 815.076 301.81 767.966 309.529 721.538 318.25 C 695.714 323.1 669.984 329.53 643.697 331.473 C 652.747 325.822 669.711 314.813 672.64 303.712 C 673.178 301.672 673.056 300.542 672.581 298.545 C 670.24 295.346 667.816 294.162 663.978 293.659 C 641.185 290.671 597.012 316.617 579.535 330.801 C 573.817 335.441 562.333 344.698 561.145 352.183 C 561.09 352.528 561.119 352.882 561.106 353.231 C 562.455 354.146 562.209 354.415 563.71 354.035 C 568.598 352.798 579.298 340.373 584.403 336.433 C 598.145 325.83 642.657 298.316 660.07 301.914 L 660.905 303.444 C 654.104 323.286 594.178 341.438 592.036 356.411 C 592.653 356.702 593.207 357.228 593.886 357.282 C 597.159 357.545 606.602 353.135 610.38 352.069 C 625.287 347.864 689.879 331.14 698.022 347.021 C 697.168 350.766 694.155 352.731 691.045 354.655 C 668.247 368.757 627.293 379.575 609.847 398.19 C 607.34 400.865 604.082 405.93 600.276 405.183 C 593.566 403.865 586.57 400.269 580.236 397.682 C 563.842 390.987 548.053 386.267 530.233 385.927 C 526.95 385.865 521.352 385.204 518.4 386.528 C 518.116 386.656 517.869 386.854 517.604 387.017 C 517.902 389.129 517.387 388.625 518.881 389.673 C 525.258 394.148 539.248 393.426 547.062 395.551 C 565.164 400.472 616.431 422.986 625.874 439.034 C 626.049 441.763 626.053 441.648 624.362 443.805 C 619.979 444.39 589.43 431.535 582.121 429.281 C 552.325 420.09 523.049 415.25 491.687 417.307 C 485.854 417.69 472.929 417.853 468.841 422.371 C 467.797 423.525 468.173 423.46 468.228 425.221 C 470.112 426.362 471.578 426.633 473.731 426.778 C 482.215 427.352 491.013 426.289 499.527 426.135 C 511.103 425.925 523.114 426.784 534.575 428.378 C 560.691 432.012 587.368 439.677 611.564 449.982 C 597.246 453.954 583.359 458.103 569.962 464.68 C 537.673 480.534 508.153 502.108 476.746 519.639 C 470.217 523.284 439.204 537.775 437.338 541.175 C 436.616 542.489 437.156 543.463 437.414 544.855 C 439.991 546.21 441.598 546.336 444.51 545.914 C 451.289 544.931 457.831 542.258 464.467 540.628 C 471.906 538.801 479.766 538.032 487.371 537.132 C 531.631 531.891 577.437 532.589 620.159 546.497 C 625.75 548.317 636.971 551.62 640.133 556.649 C 635.15 561.258 567.415 564.215 564.365 567.091 C 563.607 567.805 563.886 569.119 563.646 570.133 C 573.201 578.393 599.466 582.429 612.622 587.004 C 636.233 595.217 658.001 606.678 676.477 623.587 C 681.639 628.311 688.231 633.479 688.789 640.91 C 687.798 644.063 686.169 645.569 683.277 646.983 C 665.038 655.897 621.408 653.243 609.011 661.904 L 609.005 663.537 C 614.926 667.694 624.656 666.299 631.575 668.184 C 646.095 672.142 695.377 690.938 698.187 706.044 C 699.937 715.449 697.685 725.505 706.541 732.066 C 709.18 734.021 712.423 734.654 715.628 734.098 C 720.516 733.25 729.138 728.087 733.523 730.989 C 745.292 738.776 739.681 779.516 757.84 777.275 C 759.967 777.013 762.289 775.711 763.4 773.824 C 766.218 769.033 764.42 758.418 769.913 756.148 C 774.531 757.546 777.217 762.933 779.355 766.968 C 787.654 782.629 793.096 800.715 798.928 817.45 C 801.091 823.657 802.783 830.459 805.85 836.273 C 807.212 838.853 808.918 841.322 811.799 842.286 C 812.205 842.422 812.633 842.48 813.05 842.577 C 819.156 838.56 822.025 816.156 824.542 808.917 C 828.714 821.679 839.538 862.454 850.198 868.714 C 851.489 869.472 852.188 869.142 853.592 869.018 C 860.429 863.664 860.106 847.75 864.364 839.765 C 868.597 853.867 878.89 890.2 891.048 896.945 C 893.592 897.106 894.055 897.247 895.996 895.274 C 902.1 889.069 905.526 874.091 909.395 866.018 C 911.216 883.785 919.165 899.15 924.689 915.875 C 928.395 927.095 930.962 938.788 935.073 949.844 C 933.412 936.891 931.638 924.094 927.691 911.589 C 922.229 894.287 913.574 878.819 912.185 860.393 C 919.096 868.214 925.896 875.329 934.39 881.438 C 938.312 885.021 946.18 891.258 951.443 892.118 C 953.815 892.505 955.959 892.385 957.825 890.669 C 963.223 885.702 962.364 873.426 962.937 866.53 C 978.09 879.816 992.47 893.358 1010.81 902.141 C 1013.46 919.361 1014.08 937.291 1023.37 952.62 C 1017.05 927.675 1017.82 904.473 1017.96 879.023 C 1029.24 885.758 1040.49 892.524 1052.03 898.793 C 1052.87 886.801 1050.66 875.808 1048.36 864.115 A 124.385 124.385 0 0 0 1050.95 866.106 C 1057 870.692 1080.19 887.828 1086.5 886.948 C 1088.56 882.827 1086.24 876.929 1085.1 872.583 C 1086.12 872.107 1121.32 889.464 1127 890.872 C 1127.64 889.632 1127.65 889.216 1128.87 888.458 L 1130.59 891.047 L 1131.74 889.301 L 1131.41 891.462 C 1133.75 884.031 1120.14 858.051 1116.81 850.56 C 1131.32 858.554 1163.64 879.625 1180.04 876.575 C 1181.94 874.316 1182.73 873.718 1183.22 870.74 C 1177.48 856.207 1170.92 842.552 1163.14 828.991 C 1183.17 834.768 1203.62 839.275 1224.38 835.376 C 1217.98 821.791 1208.21 810.127 1201.82 796.547 C 1212.89 797.586 1222.48 798.375 1233.4 795.395 A 653.956 653.956 0 0 1 1238.83 744.202 C 1253.17 742.044 1268.76 741.084 1282.96 744.098 C 1276.7 751.4 1263.47 755.824 1259.27 762.673 L 1259.86 764.548 C 1265.93 767.705 1274.98 766.634 1281.83 768.122 C 1296.58 771.325 1317.69 781.776 1326.02 794.688 L 1321.2 795.8 C 1306.85 793.847 1282.68 789.541 1269.33 794.903 L 1267.88 796.594 C 1269.34 802.393 1279.78 811.609 1283.83 816.602 C 1295.77 831.294 1304.74 849.153 1307.13 868.026 C 1297.55 859.88 1279.84 845.577 1266.98 844.506 L 1265.08 845.529 C 1263.96 859.372 1280.26 884.75 1276.07 897.546 C 1263.8 898.043 1248.8 874.178 1238.22 874.772 C 1235.82 877.504 1236.27 880.538 1236.45 884.116 C 1237.56 906.411 1244.05 928.193 1242.82 950.767 C 1237.17 947.568 1231.31 944.392 1226 940.649 C 1219.82 936.293 1203.19 919.414 1197.1 919.039 C 1194.67 921.886 1194.47 924.74 1194.81 928.419 C 1195.48 935.813 1197.99 943.333 1199.64 950.575 A 252.365 252.365 0 0 1 1204.77 981.972 C 1190.88 974.225 1177.34 965.789 1164.82 955.939 C 1156.93 949.724 1149.52 942.544 1141.3 936.788 C 1139.74 935.695 1138.82 935.104 1136.86 935.099 L 1134.94 936.557 C 1133.56 950.713 1154.18 983.213 1145.29 993.88 C 1140.07 995.366 1134.54 992.096 1130.08 989.585 C 1122.85 985.512 1115.79 981.491 1109.72 975.764 C 1106.66 972.865 1103.21 974.25 1100.52 972.44 C 1096.37 969.653 1080.5 937.935 1073.94 930.144 C 1077.65 942.253 1084.23 952.784 1090 963.962 C 1100.01 983.352 1110.56 1005.94 1115.48 1027.14 C 1094.94 1025.83 1077.83 1018.19 1064.11 1002.63 C 1058.91 996.739 1054.04 988.064 1046.38 985.392 L 1044.5 986.04 C 1041.1 995.92 1055.75 1033.94 1051.67 1040.39 C 1044.94 1041.67 1034.93 1035.93 1029.6 1032.26 C 997.787 1010.35 986.519 958.592 977.765 952.452 L 976.594 953.199 C 977.311 966.926 990.776 983.799 992.85 997.047 C 991.063 996.851 990.349 996.322 988.836 995.413 C 983.814 998.588 982.53 1006.87 981.278 1012.41 C 979.483 1020.35 978.179 1028.62 975.867 1036.42 L 974.56 1035.99 C 961.491 1031.55 953.882 1021.28 948.137 1009.27 C 945.179 1003.09 936.442 975.962 933.342 973.286 C 930.192 974.229 928.622 975.285 927.027 978.245 C 919.95 991.386 919.885 1013.38 919.672 1027.99 C 919.421 1027.73 919.167 1027.47 918.918 1027.21 C 908.443 1016.15 897.057 989.396 889.261 984.203 C 887.016 984.827 886.955 985.22 885.798 987.168 C 882.983 991.907 881.672 997.313 878.732 1002.08 C 872.376 989.537 866.503 976.88 861.78 963.62 C 857.022 950.262 853.238 936.316 847.929 923.187 C 847.018 920.934 846.331 919.617 844.332 918.117 L 842.398 917.888 C 837.377 924.799 838.571 946.085 836.961 955.559 C 835.559 963.808 833.331 971.554 830.515 979.417 C 822.612 964.584 815.474 949.774 809.64 933.979 C 792.94 888.767 782.811 840.777 731.213 824.534 C 728.507 823.682 725.762 823.319 722.957 822.959 C 717.76 822.292 712.219 821.219 707.244 823.317 L 707.262 824.911 C 712.244 828.598 720.206 829.375 726.184 830.957 C 741.372 834.975 760.497 843.938 767.342 858.926 L 764.31 862.202 C 762.973 860.966 761.756 858.583 760.693 857.078 C 755.489 849.706 751.302 844.721 743.425 840.134 C 751.169 855.248 758.505 863.939 762.512 881.187 C 754.118 871.434 748.809 859.437 739.663 850.154 C 724.515 834.78 705.663 832.744 685.233 832.523 C 682.967 831.58 682.724 831.209 681.253 829.212 L 680.305 831.953 L 678.67 832.684 C 676.899 830.969 676.795 830.681 676.714 828.078 C 676.402 818.155 688.201 794.055 693.986 785.879 C 701.093 788.773 712.122 795.266 719.719 793.06 L 720.233 791.602 C 715.994 785.745 700.329 783.957 699.036 778.043 C 700.387 775.54 701.305 774.509 701.173 771.624 C 698.832 770.249 698.174 770.79 695.558 771.051 C 684.053 777.899 669.41 812.552 666.468 825.588 C 666.12 827.129 666.041 828.439 665.944 830.016 C 665.916 830.481 665.875 830.946 665.849 831.412 C 665.833 831.692 665.829 831.973 665.819 832.254 C 633.683 837.646 600.786 849.753 580.889 877.333 C 567.417 896.008 563.124 919.284 567.097 941.785 C 571.2 965.023 583.956 983.657 603.308 996.918 C 634.405 1018.23 670.947 1023.15 707.484 1015.98 A 129.262 129.262 0 0 0 772.914 982.524 C 789.058 995.901 805.371 1008.45 822.691 1020.27 C 798.739 1014.04 774.197 1006.08 749.207 1007.01 C 758.584 1015.07 765.588 1024.66 774.641 1032.88 C 759.78 1032 744.868 1031.08 730.083 1029.3 C 720.755 1028.18 711.166 1025.92 701.858 1025.38 C 699.108 1025.22 698.126 1025.69 695.956 1027.31 C 695.578 1029.86 695.398 1030.77 697.04 1033.02 C 699.373 1036.22 706.636 1037.9 710.329 1039.18 C 703.095 1048.38 695.084 1056 685.209 1062.38 C 677.59 1052.2 666.443 1032.93 654.325 1027.91 L 653.166 1028.63 C 653.733 1042.07 679.542 1077.88 687.97 1090.47 C 658.116 1094.39 630.27 1084.64 602.785 1074.03 C 593.09 1070.29 583.883 1067.55 575.54 1061.11 C 564.159 1052.33 553.933 1039.87 542.017 1032.24 L 540.159 1032.69 C 539.575 1038.04 548.462 1048.97 551.898 1053.29 C 566.827 1072.08 586.784 1088.21 604.391 1104.56 C 563.84 1093.98 532.413 1068.67 502.897 1040.01 C 499.226 1036.45 480.585 1013 479.608 1012.54 C 478.917 1012.22 478.084 1012.46 477.322 1012.42 C 475.424 1014.71 475.323 1016.75 475.562 1019.68 C 477.549 1044.01 497.903 1091.72 508.993 1114.28 C 456.396 1078.69 423.793 1046.48 397.255 987.607 C 389.458 970.309 382.743 952.675 379.193 933.968 C 377.793 926.594 375.164 889.1 373.535 885.894 C 371.464 884.703 371.435 884.832 369.057 885.248 C 360.739 892.979 359.843 934.332 359.383 947.068 C 358.313 976.705 358.946 1004.92 366.068 1033.92 C 358.523 1021.84 350.911 1009.89 344.974 996.914 C 326.788 957.157 310.706 889.507 309.01 845.865 C 308.227 825.741 311.463 805.837 310.818 785.796 C 300.368 799.071 294.479 815.231 286.897 830.179 C 280.599 842.595 272.981 854.306 266.694 866.723 C 258.831 882.254 252.595 898.895 245.917 914.965 C 228.536 842.64 251.977 732.812 290.982 669.473 A 331.873 331.873 0 0 1 310.995 640.963 C 316.011 634.519 330.408 620.286 333.005 613.99 C 331.45 612.652 331.176 612.412 328.999 612.552 C 312.903 613.589 250.569 654.623 236.104 666.161 C 223.026 676.592 210.558 688.004 199.945 700.97 A 296.04 296.04 0 0 0 196.334 705.478 C 209.531 648.413 236.259 611.466 281.036 575.127 C 286.845 570.412 305.817 558.203 308.797 554.148 C 301.738 549.167 276.349 549.53 266.498 547.929 C 236.109 542.991 206.386 526.659 184.696 505.037 C 198.993 509.959 213.28 515.371 228.111 518.462 C 247.421 522.486 320.87 527.922 336.783 520.854 L 337.456 519.349 C 334.283 515.767 330.829 515.339 326.268 515.076 C 319.268 514.673 312.204 514.674 305.193 514.546 C 280.197 479.62 251.489 452.176 246.837 407.041 C 245.854 397.504 245.271 387.172 246.691 377.652 C 247.191 374.302 248.377 371.177 249.664 368.063 C 253.316 380.779 256.229 394.111 261.012 406.421 C 272.384 435.687 295.296 463.984 323.047 479.16 C 325.731 480.628 337.322 490.919 337.859 490.761 C 338.323 490.624 338.779 490.454 339.209 490.233 C 346.334 486.587 366.199 456.495 372.162 448.807 A 692.66 692.66 0 0 1 403.186 411.373 C 417.883 395.007 439.912 376.719 448.654 356.588 C 458.757 333.321 456.907 307.164 447.668 284.009 C 440.31 265.569 430.06 250.663 413.062 240.053 C 436.107 245.906 455.111 259.453 467.232 280.053 C 474.106 291.736 477.972 302.52 478.413 316.012 C 478.456 317.323 478.697 318.463 479.612 319.47 C 480.183 320.098 480.67 320.357 481.353 320.795 C 483.991 320.549 484.848 320.159 486.482 317.984 C 497.974 302.682 503.243 264.919 499.66 246.144 C 496.421 229.173 487.922 214.474 478.831 200.03 z"/>
<path transform="translate(0,0)" fill="rgb(42,28,29)" d="M 681.253 829.212 C 685.377 816.209 690.078 807.119 702.062 799.634 C 696.518 810.719 690.242 821.141 685.233 832.523 C 682.967 831.58 682.724 831.209 681.253 829.212 z"/>
<path transform="translate(0,0)" fill="rgb(42,35,36)" d="M 472.407 635.297 C 478.568 637.323 491.835 662.029 497.218 668.8 C 507.695 681.979 519.781 695.329 532.33 706.548 C 530.208 690.224 509.658 652.915 512.869 642.14 C 513.376 640.438 514.08 640.454 515.487 639.608 C 526.872 640.4 557.573 673.586 569.394 682.019 L 570.614 682.88 L 575.108 685.722 C 576.571 686.643 578.173 687.526 579.441 688.716 C 581.501 690.651 582.447 692.684 582.668 695.489 C 581.393 696.743 581.845 696.791 580.286 696.855 C 562.553 697.58 541.172 674.403 529.096 663.585 C 532.576 672.674 535.852 681.85 537.963 691.367 C 539.503 698.308 541.356 706.7 537.329 713.071 C 535.83 714.005 535.064 714.852 533.219 714.854 C 527.921 714.861 522.938 710.805 519.132 707.463 C 502.814 693.131 473.935 657.463 472.407 635.297 z"/>
<path transform="translate(0,0)" fill="rgb(42,35,36)" d="M 373.916 716.451 L 376.862 718.151 C 377.397 719.449 377.739 720.562 377.753 721.981 C 378.107 756.309 397.824 809.25 414.751 838.671 C 415.79 821.368 412.658 770.369 422.007 758.5 C 423.788 756.239 424.384 756.289 427.053 755.994 C 427.245 756.179 427.458 756.343 427.629 756.547 C 433.237 763.241 456.45 851.152 455.255 858.058 C 454.724 861.131 452.073 862.605 449.721 864.264 C 435.984 848.956 430.886 789.188 425.648 766.576 C 425.007 776.033 424.394 785.514 424.362 794.995 C 424.312 810.097 428.503 832.22 422.609 846.259 C 421.296 849.385 419.792 850.492 416.758 851.813 C 414.694 851.632 413.111 851.374 411.376 850.218 C 394.054 838.674 381.795 790.689 377.046 769.853 C 373.934 756.199 366.304 728.576 373.916 716.451 z"/>
<path transform="translate(0,0)" fill="rgb(226,219,208)" d="M 719.95 1040.65 C 737.366 1042.45 754.266 1042.89 771.757 1042.55 C 714.171 1116.82 706.517 1212.91 717.981 1303 A 398.572 398.572 0 0 0 766.054 1451.25 C 773.503 1464.59 782.732 1476.91 790.091 1490.21 C 765.575 1466.46 741.022 1442.63 719.94 1415.69 C 707.831 1400.22 697.108 1383.47 686.439 1366.99 C 678.153 1354.19 669.729 1341.42 662.395 1328.04 C 658.69 1321.28 646.526 1294.67 640.59 1293.38 C 639.172 1295.48 639.332 1296.68 639.735 1299.09 C 641.259 1308.21 652.645 1326.9 657.308 1335.57 C 674.746 1367.98 693.94 1400.12 716.792 1429.05 C 740.695 1459.31 768.701 1486.97 795.748 1514.44 C 773.111 1500.46 750.581 1486.7 729.473 1470.44 C 715.438 1459.63 659.288 1406.45 648.75 1403.94 L 647.844 1405.11 C 650.22 1413.2 660.603 1421.64 666.462 1427.55 C 701.021 1462.41 740.667 1497.09 783.989 1520.69 C 797.56 1528.08 811.299 1534.51 822.716 1545.17 C 813.297 1553.34 803.025 1560.45 793.47 1568.46 C 767.703 1590.06 742.735 1615.41 724.164 1643.56 C 721.172 1648.1 715.396 1655.35 714.744 1660.75 C 714.557 1662.29 715.139 1662.5 716.001 1663.63 C 719.141 1663.59 721.48 1661.16 723.554 1659.05 C 733.006 1649.42 740.758 1637.69 749.705 1627.52 C 769.271 1605.27 804.62 1570.53 828.198 1553.78 C 832.513 1558.06 836.972 1562.26 840.995 1566.82 C 840.878 1590.93 845.873 1696.94 858.213 1711.96 L 860.048 1712.16 C 861.842 1710.42 862.345 1708.47 862.461 1706.02 C 862.842 1698 858.296 1680.51 857.143 1671.22 C 853.093 1638.62 849.309 1605.74 847.772 1572.91 A 3557.28 3557.28 0 0 0 889.102 1617.95 C 898.23 1627.68 908.05 1637.12 916.48 1647.43 C 921.162 1683.98 931.241 1719.68 941.195 1755.06 C 969.797 1856.72 1006.39 1957.94 1062.4 2048 L 447.428 2048 C 438.717 1995.26 430.38 1942.64 427.41 1889.2 A 1235.83 1235.83 0 0 1 541.117 1311.93 C 574.174 1240.54 615.494 1173.33 651.433 1103.43 C 664.303 1105.53 688.15 1107.23 699.294 1099.15 C 701.409 1097.62 702.999 1095.45 703.152 1092.75 C 703.557 1085.61 692.295 1074.65 688.57 1068.35 C 704.967 1063.39 711.16 1054.66 719.95 1040.65 z"/>
<path transform="translate(0,0)" fill="rgb(42,35,36)" d="M 528.493 1724.4 C 529.163 1724.51 529.843 1724.56 530.504 1724.72 C 533.16 1725.33 533.466 1725.75 534.847 1727.92 C 534.399 1740.87 536.879 1754.78 538.248 1767.68 C 544.111 1822.95 554.398 1876.98 566.583 1931.16 C 568.309 1907.9 564.39 1804.25 573.511 1790.25 L 575.647 1790.86 C 577.257 1793.04 577.781 1795.11 578.32 1797.71 C 579.67 1804.24 579.757 1811.2 580.663 1817.82 C 582.376 1830.34 585.506 1843.57 588.23 1855.95 C 592.765 1876.55 600.086 1896.33 607.991 1915.85 C 611.073 1923.89 616.82 1932.62 617.105 1941.42 C 617.179 1943.72 616.982 1943.32 615.573 1944.83 L 614.402 1944.34 L 614.873 1943.53 L 613.776 1944 C 598.468 1932.58 587.608 1896.45 582.906 1878.49 C 580.277 1868.45 578.54 1857.83 574.841 1848.14 C 574.711 1847.8 574.573 1847.46 574.439 1847.12 C 575.474 1862.76 576.798 1934.62 571.735 1944.38 C 570.678 1945.01 570.153 1945.81 568.886 1945.28 C 564.179 1943.32 559.568 1933.42 557.667 1928.74 C 551.541 1913.67 547.757 1896.81 544.564 1880.88 C 540.274 1859.48 521.831 1740.38 528.493 1724.4 z"/>
<path transform="translate(0,0)" fill="url(#Gradient1)" d="M 807.546 243.045 C 808.344 240.787 808.985 239.03 810.756 237.321 C 814.167 234.028 830.875 222.06 835.421 219.979 C 842.337 216.811 857.58 213.221 864.819 216.584 C 865.199 216.76 865.538 217.013 865.898 217.228 C 861.679 224.113 847.865 225.051 849.81 234.512 C 850.163 236.23 850.901 237.529 851.761 239.037 C 854.021 240.15 854.51 239.687 856.85 238.838 C 868.102 234.752 878.069 226.892 889.449 222.922 C 896.508 220.458 904.644 220.874 911.936 219.059 C 914.015 218.542 914.85 218.569 916.872 219.132 L 917.25 220.23 C 913.074 224.252 908.475 227.228 908.459 233.48 C 908.454 235.568 908.858 237.13 909.665 239.064 C 910.81 239.996 911.281 240.945 912.851 240.75 C 921.381 239.69 938.407 230.297 947.137 226.859 C 972.13 217.013 1001.86 224.219 1027.94 226.123 C 1019.04 230.735 990.96 242.854 988.432 252.768 C 988.099 254.072 988.776 256.13 989.469 257.204 C 990.681 259.08 992.767 260.317 995.006 260.315 C 1000.84 260.308 1008.17 254.441 1013.31 251.787 C 1065.16 225.035 1080.56 231.838 1134.06 250.067 C 1122.44 251.944 1095.74 256.151 1088.54 266.521 C 1087.18 268.469 1087.3 269.486 1087.24 271.772 C 1088.45 274.436 1089.34 275.147 1091.86 276.599 C 1098.12 277.663 1104.45 273.725 1110.42 272.047 C 1144.16 262.553 1159.49 258.435 1193.26 270.802 C 1205.55 275.303 1218.06 280.517 1229.79 286.309 C 1216.14 288.45 1192.35 293.919 1184.17 305.95 C 1183.39 307.099 1183.05 308.24 1182.76 309.578 C 1183.41 310.924 1183.37 311.597 1184.86 312.235 C 1192.8 315.623 1237.46 299.24 1248.34 296.026 C 1273.11 304.363 1296.27 319.379 1318.72 332.533 C 1309.72 335.319 1289.72 339.598 1284.88 347.904 C 1283.43 350.404 1283.56 351.951 1284.07 354.704 C 1285.99 357.218 1287.46 358.468 1290.73 358.802 C 1301.23 359.875 1326.71 349.44 1337.94 345.817 C 1357.68 358.913 1376.75 372.714 1395.89 386.662 C 1385.89 389.157 1372.21 391.25 1366.51 400.984 C 1365.23 403.171 1365.09 404.831 1365.26 407.296 C 1367.07 409.839 1368.61 411.042 1371.77 411.573 C 1373.27 411.827 1413.97 405.365 1417.59 404.544 L 1474.38 454.822 C 1463.53 458.602 1442.76 463.339 1437.47 474.577 C 1436.43 476.783 1435.91 479.278 1436.65 481.644 C 1437.04 482.916 1438 483.894 1439.19 484.487 C 1448.17 488.932 1480.85 474.104 1491.32 470.898 C 1508.91 488.825 1524.6 507.436 1540.07 527.195 C 1528.29 529.198 1515.2 531.049 1504.59 536.828 C 1502.9 539.37 1499.97 542.902 1500.47 546.131 C 1500.88 548.734 1502.17 550.375 1504.43 551.622 C 1514.21 557.025 1546.66 548.73 1556.92 545.493 C 1571.08 562.861 1583.43 582.116 1596.87 600.09 C 1586.07 602.475 1563.33 606.539 1557.06 616.775 C 1555.95 618.585 1555.39 620.375 1555.94 622.525 C 1556.6 625.087 1558.55 626.786 1560.55 628.301 C 1570.99 630.172 1595.9 620.657 1607.8 618.36 C 1614.19 625.712 1618.73 634.741 1623.99 642.915 C 1628.38 649.737 1633.44 656.243 1637.3 663.376 C 1631.08 673.197 1624.61 687.668 1627.28 699.448 C 1627.7 701.3 1628.38 703.11 1629.06 704.882 C 1624.72 709.928 1612.58 711.366 1606.07 714.041 C 1577.02 725.994 1559.28 757.075 1561.42 787.968 C 1562.46 803.005 1568.1 817.287 1573.19 831.322 C 1567.24 834.794 1561.95 839.144 1560.17 846.13 C 1559.33 849.439 1559.76 852.632 1561.57 855.544 C 1566.27 863.124 1577.21 866.543 1584.97 869.822 A 576.325 576.325 0 0 0 1595.43 925.589 C 1597.9 936.103 1601.73 947.094 1603 957.777 L 1601.85 958.263 C 1601.31 958.027 1600.78 957.777 1600.24 957.556 C 1594.19 955.107 1585.99 957.111 1580.33 959.753 C 1570.31 964.436 1560.05 972.781 1556.46 983.612 C 1550.25 1002.38 1565.75 1017.39 1568.74 1034.76 C 1570.6 1045.61 1569.18 1057.97 1568.8 1068.99 A 3452.03 3452.03 0 0 0 1567.2 1120.71 C 1567 1130.32 1568.31 1141.19 1567.14 1150.64 C 1565.27 1165.77 1552.71 1190.26 1546.4 1205.14 C 1510.55 1289.73 1452.34 1390.21 1399.67 1466.04 C 1375.54 1500.78 1349.08 1533.7 1324.73 1568.25 C 1325.61 1556.91 1326.75 1545.75 1329.2 1534.61 C 1330.37 1529.29 1337.16 1509.82 1336.32 1505.66 C 1336.01 1504.11 1334.69 1501.85 1333.68 1500.62 C 1326.66 1491.97 1311.25 1486.42 1300.55 1484.61 C 1299.42 1484.42 1298.29 1484.21 1297.15 1484.03 C 1294.62 1485.63 1290.94 1488.83 1288.06 1488.49 C 1279.44 1479.1 1272.43 1473.39 1261.12 1467.26 C 1289.51 1448.99 1346.99 1420.3 1354.4 1384.92 C 1356.08 1376.91 1356.31 1362.84 1351.6 1355.86 C 1349.72 1353.07 1347.54 1351.36 1344.73 1349.58 C 1350.01 1335.72 1355.04 1316.03 1348.43 1301.85 C 1346.42 1297.53 1343.26 1294.91 1339.61 1291.99 C 1342.86 1276.85 1343.24 1269.06 1334.6 1255.71 A 135.69 135.69 0 0 0 1331.72 1251.38 C 1332.1 1236.85 1331.04 1222.12 1320.46 1210.91 C 1313.17 1203.2 1303.65 1200.25 1293.23 1200.3 C 1285.9 1200.34 1278.27 1201.44 1271.02 1202.51 C 1262.76 1189.56 1251.22 1167.38 1234.98 1163.45 C 1226.82 1161.48 1218.47 1164.38 1211.62 1168.78 C 1192.37 1181.16 1181.31 1202.5 1164.72 1217.82 C 1154.39 1227.35 1133.44 1233.18 1129.52 1247.51 C 1129.39 1247.99 1129.27 1248.47 1129.16 1248.95 C 1126.24 1261.99 1131.79 1275.37 1130.45 1288.49 C 1129.69 1295.87 1124.85 1302.97 1122.01 1309.74 C 1114.03 1328.78 1115.2 1355.67 1119.95 1375.3 C 1114.13 1370 1108.22 1364.77 1102.81 1359.04 C 1102.46 1358.67 1102.1 1358.32 1101.76 1357.94 C 1098.09 1353.9 1085.01 1319.02 1080.36 1310.14 C 1066.1 1282.92 1049.15 1257.3 1033.04 1231.18 C 1026 1219.76 1020.03 1207.2 1012 1196.48 C 1028.07 1180.97 1050.35 1159.11 1050.56 1135.12 C 1050.7 1119.11 1041.81 1106.48 1030.82 1095.82 A 136.382 136.382 0 0 0 1001.65 1074.12 A 836.144 836.144 0 0 0 1026.67 1041.91 C 1033.82 1045.93 1047.53 1053.81 1055.89 1051.83 C 1058.44 1051.23 1060.4 1050.12 1061.58 1047.69 C 1065.76 1039.05 1059.07 1019.56 1056.89 1010.17 C 1071.09 1023.52 1092.26 1036.81 1112.73 1035.73 C 1116.33 1035.54 1119.93 1034.39 1122.21 1031.4 C 1125.39 1027.21 1124.51 1020.86 1123.27 1016.14 C 1120.2 1004.51 1113.95 994.378 1107.92 984.123 C 1117.69 991.663 1135.61 1006.66 1148.99 1004.51 C 1152.22 1003.99 1154.35 1002.55 1156.04 999.783 C 1161.52 990.851 1153.61 968.179 1150.39 958.648 C 1150.13 957.878 1149.83 957.12 1149.55 956.359 C 1158.45 965.312 1190.95 988.852 1203.42 988.498 C 1206.08 988.423 1208.61 987.577 1210.49 985.623 C 1215.06 980.884 1214.86 972.772 1214.21 966.719 C 1213.2 957.442 1210.62 948.183 1208.07 939.229 C 1215.97 945.513 1235.29 962.783 1246.1 961.186 C 1248.71 960.801 1250.3 959.62 1251.81 957.487 C 1257.92 948.888 1248.74 905.446 1248.93 892.573 C 1256.07 898.121 1268.4 909.295 1278.25 907.809 C 1280.76 907.429 1282.67 906.408 1284.09 904.23 C 1290.67 894.207 1281.91 869.898 1278.74 858.947 C 1286.79 864.417 1300.87 875.626 1310.99 873.387 C 1312.96 872.951 1314.44 872.267 1315.57 870.489 C 1319.22 864.787 1314.84 851.883 1312.58 845.918 C 1306.44 829.758 1296 816.06 1285.05 802.885 C 1300.51 804.952 1315.06 806.323 1330.66 804.664 C 1332.16 804.147 1332.74 804.066 1334.02 803.228 C 1336.2 801.803 1337.63 799.497 1338 796.91 C 1338.48 793.56 1336.93 791.189 1334.86 788.778 A 69.0487 69.0487 0 0 0 1332.48 786.135 C 1319.05 771.908 1297.48 760.629 1277.72 760.251 C 1284.92 755.892 1295.19 751.679 1299.12 744.012 C 1299.15 741.624 1299.38 740.505 1297.34 738.787 C 1286.89 729.963 1251.91 733.36 1239.38 735.621 C 1238.59 728.138 1237.16 718.944 1231.45 713.529 C 1228.57 710.801 1224.89 709.596 1220.96 709.711 C 1199.72 710.331 1166.21 748.347 1150.92 763.637 C 1133.73 752.841 1119.96 751.269 1100.08 753.496 C 1089.73 734.605 1077.59 718.002 1061.6 703.56 C 1073.02 696.046 1085.32 685.363 1093.16 674.054 C 1099.9 664.336 1102.86 653.478 1100.49 641.742 C 1098.58 632.31 1093.25 623.338 1085.11 618.109 C 1094.23 605.999 1102.95 590.233 1105.57 575.099 C 1106.42 570.2 1106.94 563.858 1103.38 559.821 C 1096.38 551.877 1075.64 559.974 1066.47 560.949 C 1061.01 561.529 1055.29 561.029 1049.81 560.752 C 1056.77 558.086 1063.41 553.648 1069.62 549.561 C 1097.71 531.08 1121.09 502.516 1127.74 468.913 C 1131.05 452.162 1130 432.409 1119.98 418.028 C 1113.19 408.269 1103.05 403.11 1091.43 401.472 C 1042.43 394.569 1008.3 443.109 973.65 468.763 C 973.328 469.002 973.001 469.233 972.677 469.468 C 953.96 445.802 935.58 422.704 913.019 402.469 C 880.541 373.339 820.172 326.053 774.779 329.621 C 770.107 329.988 763.755 332.266 760.984 336.299 C 759.459 338.52 758.769 340.732 759.301 343.43 C 763.055 362.454 800.055 348.415 812.669 350.714 C 827.595 353.436 842.485 362.488 854.913 370.782 C 891.163 394.973 917.138 422.74 945.765 455.02 C 950.441 460.293 961.571 469.718 962.43 476.69 C 962.645 478.437 961.795 478.86 960.814 480.158 C 955.183 482.582 949.251 483.663 943.15 483.961 C 911.368 485.514 865.793 453.271 843.238 432.691 C 836.973 426.975 822.332 413.643 823.207 404.44 C 823.37 402.73 823.975 401.662 825.206 400.555 C 831.012 395.336 846.336 397.706 853.493 398.091 C 852.251 404.126 852.375 408.808 853.374 414.876 C 856.798 418.613 860.175 422.069 864.71 424.456 C 870.124 427.305 876.693 429.023 882.673 426.945 C 885.812 425.855 888.53 423.639 889.809 420.518 C 891.243 417.021 890.635 413.148 888.952 409.865 C 883.419 399.064 869.85 394.311 858.956 391.108 C 847.174 389.011 830.851 386.017 820.18 393.084 C 817.161 395.083 814.868 397.914 814.37 401.605 C 813.34 409.243 818.619 417.209 823.245 422.803 C 828.771 429.485 835.616 435.154 842.094 440.893 C 825.227 440.044 808.368 438.924 795 451.37 C 785.943 459.801 782.342 471.645 782.215 483.753 C 781.87 516.773 805.626 553.884 828.093 576.427 C 847.251 595.649 874.399 614.446 902.623 614.861 C 913.533 615.021 924.266 611.776 932.121 603.953 C 939.856 596.25 940.93 583.488 940.636 573.106 C 939.665 538.817 921.492 507.15 900.104 481.394 C 922.114 489.931 940.732 496.912 963.986 486.839 C 1000.3 471.109 1048.44 400.659 1091.83 416.945 A 34.9789 34.9789 0 0 1 1111.49 435.809 C 1118.39 451.632 1116.33 469.634 1109.75 485.146 C 1096.55 516.242 1072.75 534.967 1044.28 551.46 C 1034.75 556.982 1025.26 562.596 1015.02 566.722 C 1010.54 568.528 983.133 576.915 982.359 577.591 C 981.977 577.925 981.904 578.498 981.676 578.951 C 983.859 581.644 987.647 582.564 990.99 582.913 C 1006.31 584.514 1021.6 573.852 1035.37 568.665 C 1042.69 570.547 1049.63 572.188 1057.24 572.315 C 1064.39 572.435 1091.05 566.55 1094.92 570.436 C 1096.09 583.008 1080.09 606.202 1072.16 615.683 C 1043.57 649.848 990.592 692.503 945.448 697.422 C 943.091 697.679 941.196 697.385 938.925 696.782 C 935.829 693.927 935.816 691.821 935.372 687.758 C 935.101 685.273 934.953 684.006 933.199 682.081 C 929.934 680.533 926.399 680.626 923.06 681.988 C 922.633 682.161 922.236 682.398 921.824 682.604 L 921.794 684.331 C 924.532 686.822 927.442 688.573 930.622 690.449 C 923.672 697.732 915.369 703.663 908.628 710.987 C 896.574 724.084 890.902 747.152 891.263 764.595 C 891.764 788.837 900.737 813.078 918.504 829.882 C 922.16 833.34 926.506 837.67 930.811 840.263 C 936.613 843.759 954.725 849.252 957.825 853.507 L 957.189 855.23 C 957.055 855.57 956.918 855.909 956.788 856.251 C 954.459 862.374 955.229 876.717 950.398 880.054 C 947.816 879.228 946.325 878.131 944.204 876.515 C 936.853 870.387 914.868 847.656 906.447 848.099 C 898.132 857.199 897.515 875.473 891.627 882.034 C 881.598 875.674 878.553 835.982 868.698 825.591 C 866.824 823.615 865.803 823.404 863.171 823.426 C 856.449 827.882 853.01 846.273 850.876 853.78 C 845.254 840.572 837.389 806.427 826.948 797.499 C 824.885 795.735 824.498 795.769 822.031 796.131 C 815.748 802.269 813.539 816.135 811.095 824.48 C 804.438 804.688 797.904 783.678 788.06 765.232 C 784.888 759.289 779.38 749.737 772.252 748.303 C 769.887 747.827 767.828 748.022 765.732 749.289 C 758.854 753.446 757.278 762.919 755.36 770.041 C 752.367 758.485 752.284 745.237 747.573 734.371 C 744.001 726.132 739.034 722.549 730.936 719.266 C 725.954 720.484 717.411 725.719 712.616 725.019 C 710.916 724.771 708.142 702.266 704.601 696.448 C 694.061 679.133 666.529 668.277 647.841 663.896 C 661.163 662.275 675.62 660.377 687.958 654.81 C 692.763 652.642 699.26 648.732 700.587 643.164 C 701.564 639.065 699.708 634.797 697.608 631.368 C 692.419 622.893 684.186 615.573 676.409 609.525 C 650.867 589.661 624.157 579.973 593.161 572.161 C 610.292 570.697 634.618 572.398 648.949 561.693 C 651.089 560.095 652.073 558.43 652.535 555.8 C 651.555 551.553 649.132 549.4 645.623 547.022 C 636.509 540.846 624.966 537.329 614.468 534.405 C 572.103 522.602 525.351 521.302 482.036 528.847 C 503.768 515.137 525.945 501.599 548.134 488.626 C 558.916 482.322 569.821 475.292 581.214 470.196 C 595.722 463.707 623.508 461.175 634.575 452.677 C 636.808 450.963 637.913 448.928 638.056 446.118 C 638.357 440.193 634.687 433.345 630.662 429.222 C 629.435 427.965 629.031 427.792 628.468 426.084 C 635.292 425.397 640.389 432.79 647.762 430.5 L 648.693 427.945 C 648.44 425.491 648.233 422.569 646.667 420.555 C 638.335 409.842 622.89 405.09 609.983 403.417 C 618.232 397.699 627.47 391.921 636.587 387.689 C 655.088 379.101 702.03 365.848 710.628 348.085 C 711.791 345.681 711.987 343.205 710.957 340.697 C 709.548 337.267 705.826 335.958 702.719 334.407 C 749.167 320.739 821.753 310.381 869.744 312.921 C 887.896 313.882 914.025 320.738 929.684 320.156 C 931.525 318.744 931.439 318.532 932.041 316.257 C 931.527 313.511 930.627 311.527 929.068 309.194 C 905.608 274.078 846.983 251.443 807.546 243.045 z"/>
<path transform="translate(0,0)" fill="rgb(42,28,29)" d="M 869.746 653.916 C 874.905 649.984 880.461 647.811 886.564 645.885 C 888.131 645.989 892.78 645.796 893.887 646.572 C 893.508 646.872 893.115 647.154 892.751 647.47 C 891.382 648.66 891.102 649.218 890.573 650.878 C 893.246 650.89 898.213 650.289 900.377 651.608 L 899.128 652.515 A 238.187 238.187 0 0 0 890.637 652.801 C 878.045 653.514 872.246 659.445 864.296 668.348 C 865.821 663.343 867.643 658.695 869.746 653.916 z"/>
<path transform="translate(0,0)" fill="rgb(42,35,36)" d="M 1076.42 589.788 L 1078.65 590.467 L 1079.3 592.304 C 1076.52 602.262 1060.33 615.121 1051.84 620.537 C 1049.8 617.932 1049.25 617.998 1049.63 614.767 C 1056.01 605.416 1067.23 596.337 1076.42 589.788 z"/>
<path transform="translate(0,0)" fill="rgb(42,35,36)" d="M 865.823 619.402 C 873.296 618.632 890.606 617.229 896.878 621.419 L 896.232 623.397 C 889.253 628.061 864.122 627.369 854.527 628.96 C 846.456 630.299 838.617 632.388 830.751 634.606 C 820.969 638.156 813.767 642.304 805.483 648.613 A 87.3927 87.3927 0 0 1 809.778 642.482 C 822.191 626.608 847.055 621.749 865.823 619.402 z"/>
<path transform="translate(0,0)" fill="rgb(42,35,36)" d="M 886.564 645.885 A 71.8899 71.8899 0 0 1 940.08 656.238 C 946.435 660.372 952.789 665.297 954.851 672.895 C 954.392 675.432 954.505 675.313 952.432 676.833 C 951.303 676.904 950.139 677.329 949.043 677.046 C 946.04 676.271 930.361 661.44 924.208 658.296 C 917.611 654.925 908.472 653.656 901.165 652.781 C 900.485 652.7 899.808 652.601 899.128 652.515 L 900.377 651.608 C 898.213 650.289 893.246 650.89 890.573 650.878 C 891.102 649.218 891.382 648.66 892.751 647.47 C 893.115 647.154 893.508 646.872 893.887 646.572 C 892.78 645.796 888.131 645.989 886.564 645.885 z"/>
<path transform="translate(0,0)" fill="rgb(42,35,36)" d="M 703.312 383.148 C 706.761 382.767 711.934 382.144 715.243 383.336 C 717.487 384.145 719.395 385.355 720.28 387.695 C 721.431 390.741 712.215 426.552 711.546 434.181 A 393.394 393.394 0 0 0 711.508 500.588 C 712.409 510.813 722.322 556.022 720.094 561.969 L 718.111 562.481 C 715.332 561.238 713.944 559.214 712.108 556.903 A 223.714 223.714 0 0 1 691.214 517.958 C 678.518 487.006 666.867 435.742 681.039 403.557 C 685.706 392.958 692.757 387.21 703.312 383.148 z"/>
<path transform="translate(0,0)" fill="rgb(155,137,125)" d="M 703.206 391.959 C 705.828 391.586 707.424 391.481 710.057 392.119 C 710.391 393.476 703.739 426.276 703.174 432.407 C 701.092 455.002 701.549 479.028 704.139 501.594 C 704.834 507.652 708.519 525.418 706.796 529.708 L 705.015 525.827 C 691.151 492.366 676.182 448.553 687.381 412.12 C 690.309 402.597 694.467 396.741 703.206 391.959 z"/>
<path transform="translate(0,0)" fill="rgb(226,219,208)" d="M 0 0 L 2048 0 L 2048 2048 L 1327.21 2048 C 1339.35 2039 1399.02 1995.89 1403.68 1986.49 L 1402.24 1986.47 L 1400.23 1986.41 C 1397.11 1986.35 1395.57 1986.42 1392.81 1984.59 C 1391.03 1982.12 1390.95 1980.45 1390.82 1977.54 C 1391.52 1975.76 1392.06 1975.08 1393.64 1973.9 C 1401.91 1967.74 1415.41 1970.21 1424.75 1965.64 C 1439.3 1958.51 1480.98 1915.47 1495.05 1901.43 C 1487.69 1902.61 1480.12 1904.2 1472.65 1903.16 C 1469.38 1902.71 1467.81 1901.81 1465.79 1899.25 C 1465.78 1897.05 1465.73 1895.37 1467.28 1893.56 C 1472.83 1887.11 1500.83 1886.37 1510.14 1881.64 C 1522.82 1875.21 1555.94 1829.65 1566.77 1815.57 C 1553.9 1818.58 1541.09 1824.34 1528.12 1826.28 C 1523.94 1826.91 1521.68 1826.52 1518.2 1823.92 C 1517.28 1821.64 1516.69 1820.85 1517.92 1818.47 C 1520.32 1813.84 1532.91 1811.56 1537.74 1810.14 C 1550.65 1806.33 1569.93 1801.39 1581.24 1794.39 C 1596.81 1784.76 1626.98 1730.65 1637.2 1711.9 C 1625.81 1717.71 1612.11 1723.18 1599.62 1725.92 C 1595.85 1726.75 1592.97 1727.04 1589.63 1724.96 C 1589.18 1722.63 1588.89 1721.35 1590.37 1719.18 C 1596.21 1710.68 1637.09 1698.93 1648.42 1690.22 C 1660.98 1680.55 1696.19 1603.77 1703.57 1586.16 C 1691.75 1594.07 1661.33 1613.45 1647.87 1612.89 C 1645.07 1612.77 1642.49 1612.26 1640.57 1610.08 C 1640.37 1608.86 1640.16 1608.73 1640.81 1607.5 C 1644.11 1601.23 1653.88 1598.01 1659.8 1595.06 C 1672.29 1588.86 1702.24 1573.13 1710.97 1564.09 C 1720.9 1553.81 1744.38 1481.45 1750.45 1463.33 C 1739.1 1471.59 1726.8 1478.32 1714.93 1485.77 C 1710.39 1488.62 1706 1492.46 1701.17 1494.72 C 1696.7 1496.82 1690.46 1499.06 1685.45 1498.54 C 1683.34 1498.32 1682.98 1498.37 1681.56 1496.73 C 1681.6 1496.35 1681.59 1495.96 1681.67 1495.58 C 1682.26 1492.55 1684.55 1490.05 1686.89 1488.16 C 1693.92 1482.48 1702.93 1478.07 1710.63 1473.23 A 912.976 912.976 0 0 0 1755.85 1443.48 C 1764.9 1421.4 1769.45 1395.8 1773.16 1372.3 C 1764.46 1377.56 1742.06 1394.36 1733.64 1394.26 C 1730.96 1394.22 1729.85 1393.62 1727.98 1391.82 C 1727.85 1390.4 1727.67 1390.3 1728.17 1389 C 1732.48 1377.81 1765.82 1360.82 1776.91 1356.26 C 1778.56 1348.14 1787.48 1283.57 1786.21 1279.41 L 1784.25 1278.79 C 1776.3 1280.47 1745 1304.7 1736.81 1310.33 L 1741.5 1291.83 C 1745.17 1271.67 1751.02 1250.83 1756.21 1230.98 C 1759.31 1219.12 1763.13 1207.26 1764.31 1195.03 C 1774.56 1187.1 1785.44 1179.87 1795.78 1172.01 C 1798.04 1169.02 1802.5 1166.33 1805.33 1163.67 C 1817.13 1152.59 1829.6 1137.83 1831.32 1121.08 C 1832.45 1110.07 1829.03 1102.23 1822.36 1093.92 C 1830.9 1082.6 1838.88 1069.08 1839 1054.47 C 1839.09 1043.53 1834.51 1034.78 1826.8 1027.29 C 1830.83 1022.59 1834.5 1017.26 1837.64 1011.93 C 1843.95 1001.2 1848.83 988.766 1845.37 976.254 C 1842.91 967.382 1837.08 958.158 1828.8 953.71 C 1824.95 951.638 1821.17 950.441 1816.91 951.738 L 1816.45 952.001 C 1815.88 951.186 1815.08 950.494 1814.75 949.557 C 1813.85 946.943 1822.2 871.171 1823.19 859.411 C 1831.04 854.63 1841.58 847.883 1844.16 838.575 C 1845.84 832.509 1843.75 828.058 1840.82 822.822 L 1833 818.406 C 1836.87 811.152 1839.07 804.237 1838.69 795.906 C 1838.05 781.58 1830.07 772.12 1820.16 762.808 C 1826.2 750.671 1831.38 738.175 1833.18 724.639 C 1835.77 705.219 1828.72 679.605 1813.9 666.079 C 1810.02 662.533 1802.38 660.007 1799.43 656.184 L 1800.53 649.921 C 1800.34 649.603 1800.11 649.303 1799.95 648.967 C 1799.05 647.06 1799.39 645.523 1799.55 643.485 L 1797.1 641.008 L 1795.21 641.263 C 1791.46 646.602 1792.92 653.219 1788.46 658.125 A 122.403 122.403 0 0 0 1789.59 653.839 C 1794.96 631.839 1788.83 606.757 1777.23 587.774 C 1764.54 566.994 1740.74 548.254 1716.91 542.468 C 1715.67 541.755 1714.06 540.472 1712.58 540.428 C 1712.01 541.113 1711.76 541.11 1711.87 542.004 C 1712.22 544.943 1714.5 546.676 1716.53 548.523 L 1715.98 549.984 C 1724.14 560.964 1731.68 578.432 1729.54 592.26 C 1726.96 608.909 1713.32 622.051 1700.06 631.236 C 1666.24 654.664 1641.92 652.175 1633.05 699.523 C 1632.81 700.812 1632.56 701.829 1632.15 703.092 C 1631.16 703.643 1629.95 704.189 1629.06 704.882 C 1628.38 703.11 1627.7 701.3 1627.28 699.448 C 1624.61 687.668 1631.08 673.197 1637.3 663.376 C 1633.44 656.243 1628.38 649.737 1623.99 642.915 C 1618.73 634.741 1614.19 625.712 1607.8 618.36 C 1595.9 620.657 1570.99 630.172 1560.55 628.301 C 1558.55 626.786 1556.6 625.087 1555.94 622.525 C 1555.39 620.375 1555.95 618.585 1557.06 616.775 C 1563.33 606.539 1586.07 602.475 1596.87 600.09 C 1583.43 582.116 1571.08 562.861 1556.92 545.493 C 1546.66 548.73 1514.21 557.025 1504.43 551.622 C 1502.17 550.375 1500.88 548.734 1500.47 546.131 C 1499.97 542.902 1502.9 539.37 1504.59 536.828 C 1515.2 531.049 1528.29 529.198 1540.07 527.195 C 1524.6 507.436 1508.91 488.825 1491.32 470.898 C 1480.85 474.104 1448.17 488.932 1439.19 484.487 C 1438 483.894 1437.04 482.916 1436.65 481.644 C 1435.91 479.278 1436.43 476.783 1437.47 474.577 C 1442.76 463.339 1463.53 458.602 1474.38 454.822 L 1417.59 404.544 C 1413.97 405.365 1373.27 411.827 1371.77 411.573 C 1368.61 411.042 1367.07 409.839 1365.26 407.296 C 1365.09 404.831 1365.23 403.171 1366.51 400.984 C 1372.21 391.25 1385.89 389.157 1395.89 386.662 C 1376.75 372.714 1357.68 358.913 1337.94 345.817 C 1326.71 349.44 1301.23 359.875 1290.73 358.802 C 1287.46 358.468 1285.99 357.218 1284.07 354.704 C 1283.56 351.951 1283.43 350.404 1284.88 347.904 C 1289.72 339.598 1309.72 335.319 1318.72 332.533 C 1296.27 319.379 1273.11 304.363 1248.34 296.026 C 1237.46 299.24 1192.8 315.623 1184.86 312.235 C 1183.37 311.597 1183.41 310.924 1182.76 309.578 C 1183.05 308.24 1183.39 307.099 1184.17 305.95 C 1192.35 293.919 1216.14 288.45 1229.79 286.309 C 1218.06 280.517 1205.55 275.303 1193.26 270.802 C 1159.49 258.435 1144.16 262.553 1110.42 272.047 C 1104.45 273.725 1098.12 277.663 1091.86 276.599 C 1089.34 275.147 1088.45 274.436 1087.24 271.772 C 1087.3 269.486 1087.18 268.469 1088.54 266.521 C 1095.74 256.151 1122.44 251.944 1134.06 250.067 C 1080.56 231.838 1065.16 225.035 1013.31 251.787 C 1008.17 254.441 1000.84 260.308 995.006 260.315 C 992.767 260.317 990.681 259.08 989.469 257.204 C 988.776 256.13 988.099 254.072 988.432 252.768 C 990.96 242.854 1019.04 230.735 1027.94 226.123 C 1001.86 224.219 972.13 217.013 947.137 226.859 C 938.407 230.297 921.381 239.69 912.851 240.75 C 911.281 240.945 910.81 239.996 909.665 239.064 C 908.858 237.13 908.454 235.568 908.459 233.48 C 908.475 227.228 913.074 224.252 917.25 220.23 L 916.872 219.132 C 914.85 218.569 914.015 218.542 911.936 219.059 C 904.644 220.874 896.508 220.458 889.449 222.922 C 878.069 226.892 868.102 234.752 856.85 238.838 C 854.51 239.687 854.021 240.15 851.761 239.037 C 850.901 237.529 850.163 236.23 849.81 234.512 C 847.865 225.051 861.679 224.113 865.898 217.228 C 865.538 217.013 865.199 216.76 864.819 216.584 C 857.58 213.221 842.337 216.811 835.421 219.979 C 830.875 222.06 814.167 234.028 810.756 237.321 C 808.985 239.03 808.344 240.787 807.546 243.045 C 789.338 239.828 771.359 238.926 752.908 239.011 C 784.834 212.963 811.272 200.907 849.803 188.094 C 858.897 185.069 868.595 183.322 877.494 179.853 C 879.951 178.896 880.977 178.789 881.746 176.098 C 880.458 172.14 877.809 170.423 874.23 168.586 C 841.051 151.564 757.543 168.429 722.448 180.577 A 720.941 720.941 0 0 0 705.212 186.898 C 727.332 157.769 737.949 123.616 734.727 87.0835 C 732.063 83.4218 729.984 79.7455 725.208 78.8878 C 723.52 78.5847 722.008 78.9617 720.555 79.9269 C 713.784 84.4227 710.33 110.628 706.098 119.76 C 701.427 129.84 694.686 138.747 687.332 147.011 C 657.312 180.747 617.885 203.902 582.209 230.977 C 566.278 243.067 551.325 257.444 534.916 268.665 C 534.64 245.924 525.917 223.512 509.439 207.56 C 501.009 199.399 486.639 188.26 474.416 188.504 C 471.598 188.561 469.796 189.309 467.653 191.144 C 466.482 194.308 466.23 196.178 467.746 199.308 C 470.628 205.26 474.33 210.821 477.21 216.794 C 488.446 240.106 489.9 262.115 486.902 287.396 C 472.85 261.567 453.544 240.422 424.532 231.847 C 416.286 229.41 405.972 226.59 397.957 230.771 C 396.448 232.767 395.545 233.516 396.365 236.208 C 398.073 241.814 417.359 255.086 422.946 261.362 C 443.625 284.59 445.049 331.056 435.752 359.2 C 435.643 359.531 435.518 359.857 435.4 360.186 C 407.691 386.353 379.927 416.148 357.435 446.945 C 350.44 456.523 344.911 467.032 338.228 476.79 L 336.958 476.141 C 306.649 460.465 277.243 430.956 266.999 397.917 C 262.889 384.661 260.471 365.457 252.355 354.463 C 249.912 353.233 250.049 353.694 247.553 354.337 C 239.214 361.161 236.695 381.742 235.695 392.001 C 231.869 431.24 247.769 466.567 272.4 496.083 C 276.976 501.567 281.733 507.101 286.879 512.047 C 253.816 512.066 223.456 506.126 192.159 495.746 C 186.22 493.776 176.169 488.616 170.324 491.107 C 168.692 492.816 167.717 493.411 168.159 496.021 C 168.743 499.473 172.247 503.262 174.351 505.946 A 145.138 145.138 0 0 0 221.231 545.324 C 240.633 555.373 261.695 559.891 283.383 561.26 C 237.739 589.198 200.601 636.491 188.325 688.817 C 186.46 696.769 181.485 721.006 185.995 727.46 C 186.897 728.75 187.643 728.587 189.066 728.941 C 196.721 726.309 214.925 699.906 222.527 692.509 C 240.211 675.299 274.535 650.224 297.373 640.024 C 247.3 694.694 225.749 788.513 228.811 861.228 C 229.46 876.653 232.142 923.097 242.233 932.17 C 243.565 933.369 244.12 933.122 245.785 933.278 C 248.8 931.739 250.157 929.477 251.816 926.64 C 260.431 911.904 266.701 895.132 273.743 879.575 C 281.105 863.308 289.331 847.472 297.062 831.381 C 292.307 890.131 320.985 1001.39 358.279 1045.35 C 361.314 1048.93 364.67 1052.25 368.001 1055.55 C 360.574 1081.51 354.913 1108.14 347.176 1133.93 C 356.632 1125.61 367.359 1118.65 377.641 1111.41 L 379.251 1111.81 C 379.821 1114.97 378.846 1116.96 377.087 1119.62 C 367.353 1134.32 353.042 1146.12 343.516 1161.04 C 333.932 1176.06 326.96 1238.95 322.719 1260.14 C 332.51 1249.74 345.708 1233.44 358.515 1227.35 L 360.713 1227.48 C 361.622 1230.44 361.02 1232.63 359.62 1235.39 C 352.754 1248.89 333.753 1263.41 324.157 1276.9 C 321.241 1281 319.289 1285.08 318.043 1289.95 C 313.605 1307.3 308.652 1370.39 311.114 1387.57 C 318.692 1378.02 328.368 1362.39 340.444 1358.47 L 341.492 1359.48 C 339.209 1368.77 330.86 1378 325.477 1385.87 C 320.653 1392.92 313.779 1403.63 311.385 1411.75 C 306.586 1428.03 310.784 1467.72 312.642 1486.26 C 317.234 1479.27 324.289 1467.29 332.453 1464.34 L 334.674 1464.94 C 335.537 1467.19 334.655 1468.07 333.705 1470.25 C 328.792 1481.51 320.124 1491.39 315.982 1502.94 C 310.337 1518.69 325.522 1570.88 331.11 1588.96 C 336.648 1569.48 354.841 1511.75 370.776 1501.67 L 371.772 1502.6 C 371.044 1516.34 354.501 1548.21 349.368 1562.89 C 344.308 1577.35 340.396 1592.3 335.495 1606.85 C 341.785 1630.97 349.891 1654.13 362.384 1675.81 C 366.577 1658.11 370.175 1636.92 381.573 1622.24 C 380.303 1641.56 370.815 1680.71 376.031 1697.68 C 378.854 1706.87 385.516 1715.47 391.761 1722.62 C 398.546 1730.38 406.581 1736.99 414.806 1743.17 C 409.844 1844.45 409.288 1948.66 431.946 2048 L 0 2048 L 0 0 z"/>
<path transform="translate(0,0)" fill="rgb(254,252,239)" d="M 1795.78 1172.01 C 1798.59 1178.42 1792.08 1241.35 1791.83 1255.72 C 1777.29 1262.53 1753.88 1290.06 1741.5 1291.83 C 1745.17 1271.67 1751.02 1250.83 1756.21 1230.98 C 1759.31 1219.12 1763.13 1207.26 1764.31 1195.03 C 1774.56 1187.1 1785.44 1179.87 1795.78 1172.01 z"/>
<path transform="translate(0,0)" fill="rgb(42,28,29)" d="M 1708.51 551.008 C 1702.26 544.342 1695.74 538.084 1689.06 531.855 C 1689.44 529.436 1689.62 529.593 1691.58 528.062 C 1709.52 524.002 1736.53 537.099 1751.37 546.441 C 1776.56 562.3 1792.99 583.591 1799.35 612.92 C 1802.03 625.235 1802.78 637.485 1800.53 649.921 C 1800.34 649.603 1800.11 649.303 1799.95 648.967 C 1799.05 647.06 1799.39 645.523 1799.55 643.485 L 1797.1 641.008 L 1795.21 641.263 C 1791.46 646.602 1792.92 653.219 1788.46 658.125 A 122.403 122.403 0 0 0 1789.59 653.839 C 1794.96 631.839 1788.83 606.757 1777.23 587.774 C 1764.54 566.994 1740.74 548.254 1716.91 542.468 C 1715.67 541.755 1714.06 540.472 1712.58 540.428 C 1712.01 541.113 1711.76 541.11 1711.87 542.004 C 1712.22 544.943 1714.5 546.676 1716.53 548.523 L 1715.98 549.984 C 1724.14 560.964 1731.68 578.432 1729.54 592.26 C 1726.96 608.909 1713.32 622.051 1700.06 631.236 C 1666.24 654.664 1641.92 652.175 1633.05 699.523 C 1632.81 700.812 1632.56 701.829 1632.15 703.092 C 1631.16 703.643 1629.95 704.189 1629.06 704.882 C 1628.38 703.11 1627.7 701.3 1627.28 699.448 C 1624.61 687.668 1631.08 673.197 1637.3 663.376 C 1651.06 646.864 1670.44 639.437 1688.39 628.521 C 1701.86 620.326 1718.11 608.726 1721.7 592.346 C 1725.11 576.826 1716.58 563.425 1708.51 551.008 z"/>
</svg>