<svg version="1.1" xmlns="http://www.w3.org/2000/svg" style="display: block;" viewBox="0 0 2048 2048" width="1024" height="1024">
<defs>
	<linearGradient id="Gradient1" gradientUnits="userSpaceOnUse" x1="1229.91" y1="1259.04" x2="1249.01" y2="1284.51">
		<stop class="stop0" offset="0" stop-opacity="1" stop-color="rgb(177,104,91)"/>
		<stop class="stop1" offset="1" stop-opacity="1" stop-color="rgb(201,137,111)"/>
	</linearGradient>
	<linearGradient id="Gradient2" gradientUnits="userSpaceOnUse" x1="1485.94" y1="1083.24" x2="1471.87" y2="849.645">
		<stop class="stop0" offset="0" stop-opacity="1" stop-color="rgb(151,70,61)"/>
		<stop class="stop1" offset="1" stop-opacity="1" stop-color="rgb(183,91,79)"/>
	</linearGradient>
	<linearGradient id="Gradient3" gradientUnits="userSpaceOnUse" x1="1442.26" y1="1517.07" x2="1252.21" y2="1151.61">
		<stop class="stop0" offset="0" stop-opacity="1" stop-color="rgb(194,161,127)"/>
		<stop class="stop1" offset="1" stop-opacity="1" stop-color="rgb(169,189,143)"/>
	</linearGradient>
</defs>
<path transform="translate(0,0)" fill="rgb(254,254,254)" d="M 0 0 L 2048 0 L 2048 2048 L 0 2048 L 0 0 z"/>
<path transform="translate(0,0)" fill="rgb(23,24,24)" d="M 1078.57 208.415 C 1103.23 205.985 1129.13 208.245 1153.73 210.314 A 1057.46 1057.46 0 0 1 1386.22 255.784 C 1492.78 288.271 1768.11 386.43 1820.34 485.701 C 1843.58 529.884 1855.94 695.037 1840.15 743.094 C 1828.54 778.445 1756.61 812.385 1725.04 828.627 C 1736.34 841.63 1772.02 859.986 1787.92 869.83 C 1818.03 888.466 1847.41 908.294 1877.19 927.448 C 1897.75 940.667 1920.54 953.377 1939.39 968.792 C 1942.18 971.075 1945.06 973.728 1946.47 977.125 C 1947.62 979.863 1947.58 982.735 1946.2 985.364 C 1942.3 992.756 1793.88 1033.23 1775.73 1038.59 C 1777.21 1039.65 1778.63 1040.7 1780.03 1041.87 C 1826.26 1080.33 1833.77 1110.12 1839.31 1167.17 C 1880.22 1188.93 1931.79 1229.23 1962.69 1264.29 C 1995.6 1301.62 2014.83 1346.92 2011.28 1397.13 C 2005.58 1477.77 1937.71 1567.55 1877.7 1619.43 A 873.032 873.032 0 0 1 1650.63 1760.48 C 1415.69 1860.44 1103.04 1878.1 850.878 1859.72 C 798.284 1853.87 747.393 1850.27 694.601 1842.62 C 525.236 1818.07 368.38 1763.79 227.553 1664.73 C 148.79 1609.33 53.3329 1513.11 36.7023 1414.42 C 28.761 1367.29 44.032 1321.07 71.6597 1282.93 C 115.871 1221.9 187.103 1178.68 256.579 1152.24 C 270.395 1146.98 285.407 1140.62 300.027 1138.28 C 288.295 1133.35 227.849 1108.91 224.55 1100.79 C 223.983 1099.4 224.614 1098.73 225.107 1097.44 C 235.611 1089.5 298.694 1074.3 315.648 1069.67 C 317.553 1024.29 342.929 1035.61 363.614 1008.66 A 3025.97 3025.97 0 0 0 263.961 966.147 C 239.393 955.985 138.904 917.841 123.016 902.427 C 120.822 900.298 119.74 898.442 119.792 895.296 C 129.788 882.177 316.531 823.235 348.34 813.096 L 344.587 768.092 C 320.662 755.533 293.825 745.655 271.805 729.955 C 261.77 722.8 255.923 714.319 253.989 702.044 C 248.653 668.178 250.989 628.137 251.03 593.689 C 251.067 563.437 249.687 523.469 253.185 493.918 C 253.854 488.268 255.118 480.631 258.771 476.108 C 263.478 470.28 276.065 465.825 282.876 463.023 C 338.456 440.161 396.137 421.551 453.024 402.182 A 10249 10249 0 0 1 676.972 326.65 L 861.12 265.312 C 903.674 251.147 946.212 236.514 989.412 224.418 C 1019.05 216.12 1047.88 210.833 1078.57 208.415 z"/>
<path transform="translate(0,0)" fill="rgb(232,223,195)" d="M 1387.4 977.989 C 1388.66 977.91 1389.92 978.002 1391.18 978.047 L 1392 979.32 C 1387.73 984.896 1380.43 986.228 1373.94 987.588 C 1372.13 987.296 1370.86 986.925 1369.23 986.084 L 1369.5 984.647 C 1374.65 981.289 1381.52 979.821 1387.4 977.989 z"/>
<path transform="translate(0,0)" fill="rgb(232,223,195)" d="M 425.348 1038.51 C 432.717 1041.46 468.948 1055.49 471.657 1060.35 L 469.248 1061.39 C 456.098 1061.45 438.833 1060.69 427.075 1054.11 C 423.767 1052.25 421.985 1050.3 420.977 1046.55 C 421.105 1042.96 423.149 1041.1 425.348 1038.51 z"/>
<path transform="translate(0,0)" fill="rgb(232,223,195)" d="M 567.81 1107.92 C 573.152 1110.88 587.091 1116.93 589.61 1122.33 C 582.632 1131.54 573.657 1152.8 562.502 1155.92 C 559.996 1155.62 558.217 1155.22 555.935 1154.14 C 554.757 1147.64 565.457 1116.99 567.81 1107.92 z"/>
<path transform="translate(0,0)" fill="rgb(232,223,195)" d="M 1302.84 1221.98 L 1303.3 1222.42 L 1303.1 1224.01 C 1275.23 1255.33 1223.63 1283.93 1184.44 1298.01 L 1183.65 1297.43 C 1190.05 1291.45 1202.14 1285.55 1209.84 1280.53 A 2701.9 2701.9 0 0 1 1302.84 1221.98 z"/>
<path transform="translate(0,0)" fill="rgb(169,186,141)" d="M 1743.4 1099.66 C 1763.05 1110.06 1786.74 1109.56 1807.7 1116.19 C 1792.15 1118.85 1776.64 1122.73 1761.21 1126.04 C 1744.25 1129.84 1727.28 1134.32 1710.06 1136.71 A 470.583 470.583 0 0 0 1743.4 1099.66 z"/>
<path transform="translate(0,0)" fill="rgb(169,186,141)" d="M 749.716 1361.27 C 767.442 1367.36 785.152 1371.85 803.423 1375.97 C 794.502 1383.19 785.963 1390.31 777.922 1398.54 C 769.965 1406.86 762.341 1415.56 754.588 1424.08 C 752.624 1403.18 751.701 1382.18 749.716 1361.27 z"/>
<path transform="translate(0,0)" fill="rgb(232,223,195)" d="M 645.068 943.053 L 646.404 943.363 C 637.448 959.347 611.487 981.042 593.738 986.484 C 582.904 984.161 574.63 979.395 565.414 973.445 C 559.986 969.101 555.059 964.324 550.077 959.484 C 584.885 964.776 612.89 954.293 645.068 943.053 z"/>
<path transform="translate(0,0)" fill="rgb(198,154,123)" d="M 1629.13 1079.15 C 1631.3 1078.98 1633.33 1079.11 1635.5 1079.26 L 1635.14 1080.64 C 1621.63 1094.72 1602.87 1106.68 1586.28 1116.91 C 1530.79 1151.11 1485.01 1169.02 1421.22 1182.8 L 1420.33 1182.53 C 1417.67 1180.06 1416.37 1175.55 1414.96 1172.24 C 1428.37 1169.55 1442 1168.5 1455.41 1165.44 C 1499.63 1155.35 1544.28 1135.89 1582.64 1111.82 C 1598.3 1101.99 1612.24 1089.5 1627.98 1079.84 L 1629.13 1079.15 z"/>
<path transform="translate(0,0)" fill="rgb(169,186,141)" d="M 1767.31 1047.28 C 1771.03 1048.32 1775.75 1051.29 1778.19 1054.32 C 1776.21 1054.6 1774.98 1054.77 1773.33 1055.95 C 1773.51 1057.44 1773.77 1058.64 1774.65 1059.9 C 1777.93 1064.56 1787.94 1074.65 1793.5 1075.83 L 1796.52 1073.03 L 1798.03 1073.4 C 1805.44 1082.17 1813.91 1094.24 1817.12 1105.33 L 1816.26 1106.26 L 1806.94 1104.76 C 1786.8 1102.01 1767.91 1098 1748.62 1091.62 C 1754.48 1079.66 1761.58 1055.95 1767.31 1047.28 z"/>
<path transform="translate(0,0)" fill="url(#Gradient1)" d="M 1332.97 1203.12 C 1333.2 1207.51 1331.4 1211.81 1329.56 1215.73 C 1304.65 1268.82 1179.92 1316.16 1125.9 1334.92 L 1126.03 1333.55 C 1138.46 1324.04 1156.08 1314.16 1170.71 1308.6 C 1182.21 1304.22 1194.2 1301.01 1205.61 1296.39 C 1222.18 1289.67 1239.03 1280.42 1254.33 1271.18 C 1270.9 1261.17 1288.3 1248.01 1301.82 1234.1 C 1313.88 1221.68 1317.07 1212.55 1332.97 1203.12 z"/>
<path transform="translate(0,0)" fill="rgb(169,186,141)" d="M 411.664 1240.28 C 431.628 1249.63 452.138 1257.05 472.962 1264.2 C 459.004 1271.42 442.974 1276.27 428.312 1282.08 C 414.169 1287.74 400.41 1294.55 386.481 1300.74 C 392.498 1279.92 402.903 1260.07 411.664 1240.28 z"/>
<path transform="translate(0,0)" fill="rgb(169,186,141)" d="M 315.869 1081.35 C 319.918 1085.84 318.89 1126.89 319.027 1134.82 C 302.263 1129.37 286.069 1121.4 270.077 1114.05 C 260.975 1110.02 251.81 1106.12 243.102 1101.27 C 267.041 1093.71 291.25 1086.36 315.869 1081.35 z"/>
<path transform="translate(0,0)" fill="rgb(232,223,195)" d="M 592.841 1127.17 L 594.793 1124.94 C 605.778 1127.5 624.121 1141.41 634.646 1147.41 C 630.679 1155.42 626.709 1163.47 624.133 1172.06 C 598.096 1171.82 571.191 1175.64 545.438 1171.04 C 547.968 1166.89 552.065 1157.17 555.832 1154.8 C 556.483 1156.86 557.597 1160.59 559.174 1162.19 C 560.793 1163.83 562.601 1164.49 564.897 1163.98 C 575.456 1161.61 588.05 1135.87 592.841 1127.17 z"/>
<path transform="translate(0,0)" fill="rgb(169,186,141)" d="M 1707.25 1139.03 C 1712.32 1148.91 1740.54 1170.13 1750.61 1178.27 C 1728.03 1181.18 1705.57 1183.64 1682.81 1184.68 C 1673.05 1185.13 1662.88 1184.01 1653.22 1184.95 C 1650.72 1185.19 1648.92 1185.48 1647.26 1187.58 C 1645.99 1189.19 1646.01 1191.43 1646.73 1193.26 C 1647.89 1196.15 1650.95 1198.7 1653.18 1200.78 C 1652.87 1200.78 1652.57 1200.82 1652.27 1200.79 C 1650.13 1200.59 1647.72 1199.36 1646.46 1197.59 C 1643.69 1193.69 1645.34 1187.61 1646.16 1183.31 C 1667.52 1169.57 1687.73 1155.3 1707.25 1139.03 z"/>
<path transform="translate(0,0)" fill="rgb(232,223,195)" d="M 668.734 1168.63 C 677.213 1172.08 685.329 1177.66 693.207 1182.34 A 3328.56 3328.56 0 0 1 737.546 1209.04 C 769.618 1228.61 803.249 1246.6 833.451 1268.97 C 818.305 1267.43 790.777 1256.1 776.039 1249.58 C 743.096 1235 681.775 1202.4 668.734 1168.63 z"/>
<path transform="translate(0,0)" fill="rgb(232,223,195)" d="M 1398.25 986.934 L 1399.19 987.013 C 1402.16 988.999 1404.66 991.791 1406.71 994.713 C 1408.39 997.116 1408.88 1000.03 1408.24 1002.88 C 1406.3 1011.51 1399.78 1020.01 1392.07 1024.26 C 1374.28 1034.08 1340.3 1022.89 1321.76 1017.27 C 1314.71 1014.6 1308.08 1011.64 1301.4 1008.16 A 3540.47 3540.47 0 0 1 1356.4 988.856 C 1360.23 990.648 1364.18 992.681 1368.27 993.766 C 1379.53 996.748 1388.72 992.424 1398.25 986.934 z"/>
<path transform="translate(0,0)" fill="rgb(232,223,195)" d="M 1608.48 1084.14 L 1609.09 1084.17 L 1609.37 1084.96 C 1565.28 1119.9 1466.05 1165.54 1408.93 1163.21 C 1407.72 1162.73 1408.41 1163.13 1407.18 1161.55 C 1414.13 1150.4 1526.29 1108.3 1547.25 1101.4 C 1567.44 1094.76 1588.01 1089.75 1608.48 1084.14 z"/>
<path transform="translate(0,0)" fill="rgb(198,154,123)" d="M 1604.81 884.931 C 1605.58 886.041 1606.11 887.5 1606.44 888.813 C 1611.24 908.446 1605.09 934.056 1595.32 951.337 C 1570.52 995.245 1512.19 1024.52 1465.45 1037.53 C 1407.1 1053.76 1328.43 1047.85 1275.37 1017.95 L 1274.55 1016.47 C 1278.5 1013.56 1285.16 1012.58 1289.9 1011.26 A 288.024 288.024 0 0 0 1297.96 1015.51 C 1349.55 1041.49 1413.49 1045.26 1468.1 1027.05 C 1510.56 1012.9 1569.92 979.845 1590.3 938.551 C 1597.7 923.563 1599.71 906.391 1594.3 890.475 L 1604.81 884.931 z"/>
<path transform="translate(0,0)" fill="rgb(173,89,75)" d="M 642.246 1152.41 C 647.652 1154.42 652.28 1157.38 657.142 1160.42 C 668.719 1210.51 758.461 1252.93 804.713 1268.76 C 827.519 1276.56 854.098 1277.11 872.865 1294.32 L 870.651 1294.72 C 812.207 1283.67 738.629 1269.53 687.028 1239.23 C 663.903 1225.65 644.545 1206.71 637.922 1180.01 C 635.238 1169.2 636.668 1161.74 642.246 1152.41 z"/>
<path transform="translate(0,0)" fill="rgb(169,186,141)" d="M 1207.67 1390.19 C 1207.77 1390.27 1207.89 1390.34 1207.97 1390.45 C 1212.81 1396.93 1220.96 1452.3 1221.3 1463.04 C 1207.95 1458.36 1195.16 1452.83 1182.97 1445.62 C 1175.77 1441.36 1168.35 1436.82 1161.74 1431.65 C 1156.76 1427.76 1152 1422.95 1146.73 1419.52 C 1144.5 1418.07 1142.19 1416.86 1139.49 1416.59 C 1138.08 1416.44 1135.78 1416.61 1134.79 1417.76 C 1129.25 1424.18 1136.48 1466.37 1137.66 1475.44 L 1136.55 1476.16 L 1132.58 1474.15 C 1106.97 1458.43 1087.06 1440.58 1062.75 1424.44 C 1111.67 1419.44 1161.03 1405.3 1207.67 1390.19 z"/>
<path transform="translate(0,0)" fill="rgb(173,89,75)" d="M 356.025 771.716 C 387.708 788.296 420.611 801.153 453.077 815.896 C 452.724 827.619 452.595 851.642 447.057 861.64 C 445.447 864.545 443.465 866.852 440.223 867.836 C 431.34 864.352 431.148 832.992 424.839 822.517 C 422.417 818.495 418.8 814.85 414.084 813.776 C 408.103 812.414 402.449 814.976 397.471 818.033 C 379.841 837.401 393.028 875.371 388.364 899.522 C 387.041 906.371 383.317 922.081 376.655 925.276 C 374.149 926.477 372.834 926.105 370.361 925.432 C 366.655 922.189 364.844 918.669 363.958 913.813 C 360.355 894.084 362.565 871.527 361.963 851.47 C 361.162 824.786 358.544 798.277 356.025 771.716 z"/>
<path transform="translate(0,0)" fill="rgb(169,186,141)" d="M 318.939 1140.89 C 321.981 1144.76 322.971 1154.28 324.273 1159.36 C 333.199 1194.2 368.651 1216.03 397.624 1232.99 C 383.193 1242.64 364.127 1250.88 348.573 1260.04 C 330.681 1270.58 314.734 1283.62 298.244 1296.15 C 299.402 1282.52 303.808 1268.94 307.611 1255.85 C 313.68 1239.18 320.456 1224.08 328.965 1208.51 C 328.865 1206.13 328.723 1206.17 327.106 1204.38 C 325.776 1204.05 325.374 1203.87 323.822 1203.98 C 315.747 1204.58 300.131 1210.41 291.267 1212.54 C 268.566 1218 245.593 1222.11 222.915 1227.75 C 236.439 1213.82 253.287 1202.33 267.95 1189.51 C 285.559 1174.12 302.039 1157.08 318.939 1140.89 z"/>
<path transform="translate(0,0)" fill="rgb(173,89,75)" d="M 374.897 1013.95 C 381.15 1016.62 387.235 1019.82 393.344 1022.81 C 381.437 1035.36 372.867 1050.07 373.381 1067.96 C 373.942 1087.53 384.279 1104.43 398.198 1117.6 C 436.487 1153.84 509.378 1175.64 561.491 1179.49 C 581.463 1180.97 601.838 1179.21 621.847 1178.64 C 620.279 1187.42 620.483 1196.27 620.622 1205.14 C 613.345 1204.96 606.02 1204.21 598.757 1203.69 C 518.888 1198.56 420.481 1174.42 359.268 1120.43 C 343.669 1106.67 327.849 1086.85 326.926 1065.1 C 326.024 1043.86 343.856 1038.31 358.88 1028.18 C 365.039 1024.02 369.89 1019.41 374.897 1013.95 z"/>
<path transform="translate(0,0)" fill="rgb(232,223,195)" d="M 1586.63 894.983 C 1589.98 898.312 1590.07 905.665 1590.03 910.109 C 1589.85 931.554 1576.81 947.484 1562.31 961.772 C 1518.82 1004.63 1459.1 1030.74 1397.89 1030.25 C 1404.41 1024.76 1411.05 1018.38 1414.29 1010.33 C 1421.86 991.529 1404.78 988.418 1399.32 975.1 C 1400.37 972.599 1402.32 972.531 1404.74 971.536 L 1464.99 948.399 C 1463.49 950.526 1461.69 952.798 1460.7 955.214 C 1458.93 959.569 1460.41 965.231 1462.1 969.367 C 1466.09 979.165 1476.47 990.128 1486.44 993.865 C 1489.5 995.014 1491.39 994.923 1494.32 993.584 C 1494.5 988.382 1475.17 980.046 1469.66 968.264 C 1467.97 964.629 1467.33 960.545 1468.8 956.719 C 1474.09 942.922 1509.76 930.25 1523.31 924.202 C 1529.89 928.67 1537.5 929.749 1545.29 928.416 C 1551.05 927.432 1556.88 924.733 1560.15 919.696 C 1562.84 915.558 1562.11 912.151 1561.22 907.592 C 1569.25 902.765 1578.17 899.025 1586.63 894.983 z"/>
<path transform="translate(0,0)" fill="rgb(23,24,24)" d="M 1483.66 952.302 C 1485.03 952.354 1486.86 952.253 1488.1 952.93 C 1491.57 954.825 1497.26 963.895 1500.26 967.201 C 1505.39 972.851 1511.52 977.865 1516.18 983.89 C 1517.49 985.583 1518.28 987.403 1519.11 989.361 C 1515.87 990.013 1513.22 989.422 1510.44 987.714 C 1497.76 979.936 1486.86 966.809 1483.66 952.302 z"/>
<path transform="translate(0,0)" fill="rgb(232,223,195)" d="M 400.517 1026.47 C 406.632 1027.99 412.264 1031.68 417.656 1034.82 C 416.531 1036.72 415.37 1038.66 414.54 1040.71 C 412.989 1044.54 413.156 1048.41 414.917 1052.15 C 417.639 1057.94 423.701 1061.21 429.488 1063.21 C 444.343 1068.35 467.557 1070.63 481.953 1063.59 C 508.875 1076.7 535.062 1091.35 561.558 1105.29 C 557.303 1124.08 551.935 1142.06 544.559 1159.88 C 542.944 1163.27 540.803 1166.46 538.842 1169.67 C 495.708 1162.19 425.855 1138.22 397.262 1104.92 C 386.881 1092.83 380.785 1078.85 382.074 1062.6 C 383.2 1048.41 389.758 1035.69 400.517 1026.47 z"/>
<path transform="translate(0,0)" fill="rgb(23,24,24)" d="M 406.076 1061.39 C 414.861 1069.57 411.184 1090.95 433.363 1106.39 C 456.737 1122.67 475.579 1103.25 498.302 1099.71 C 503.017 1098.98 508.382 1098.87 512.249 1102.13 C 514.196 1103.77 514.605 1105.18 514.564 1107.59 C 507.573 1118.88 481.742 1130.04 468.798 1133.1 C 464.781 1133.25 460.813 1133.82 457.072 1132.12 L 457.093 1130.82 C 461.231 1128.4 465.655 1127.87 470.142 1126.43 C 481.636 1122.72 494.451 1116.7 503.274 1108.31 L 502.672 1107.22 C 482.646 1107.49 467.636 1122.33 446.343 1118.31 A 51.2532 51.2532 0 0 1 413.181 1096.06 C 406.215 1085.49 403.316 1073.79 406.076 1061.39 z"/>
<path transform="translate(0,0)" fill="rgb(173,89,75)" d="M 495.256 923.839 C 498.837 928.836 499.744 938.065 501.852 944.013 C 504.433 951.293 509.154 958.333 513.986 964.315 C 547.155 1005.38 609.048 1021.09 659.517 1026.67 C 718.221 1033.16 803.662 1025.07 850.571 987.551 A 1449.43 1449.43 0 0 0 875.57 998.433 C 871.35 1003.75 866.819 1008.62 862.099 1013.49 C 819.939 1053.19 744.241 1068.37 687.395 1067.45 C 636.052 1066.63 557.725 1048.12 521.462 1010.14 C 500.522 988.21 494.381 953.002 495.256 923.839 z"/>
<path transform="translate(0,0)" fill="rgb(232,223,195)" d="M 1839.05 1232.63 C 1859.58 1245.99 1880.27 1260.55 1898.36 1277.1 C 1926.97 1303.26 1952.59 1338.15 1954.1 1378.24 C 1955.85 1424.66 1931.07 1462.32 1900.84 1495.28 C 1893.92 1502.14 1886.88 1508.6 1879.48 1514.94 C 1900.4 1478.45 1912.37 1439.44 1901.55 1397.43 C 1890.82 1355.74 1862.14 1331.61 1826.51 1310.66 C 1833.13 1284.74 1836.4 1259.22 1839.05 1232.63 z"/>
<path transform="translate(0,0)" fill="rgb(232,223,195)" d="M 254.527 1231.2 L 257.05 1231.35 C 259.796 1236.78 259.726 1276.1 260.114 1284.81 A 307.19 307.19 0 0 0 245.986 1291.92 C 203.912 1314.83 160.847 1350.75 147.165 1398.25 C 134.528 1442.13 149.734 1479.41 170.617 1517.46 C 161.445 1511.67 153.346 1504.28 145.323 1497.03 C 122.557 1476.26 101.819 1448.33 94.9898 1417.83 C 87.9223 1386.26 95.0595 1350.14 112.534 1323.1 C 133.147 1291.2 174.535 1254.93 210.373 1241.31 C 223.816 1236.21 240.387 1234.28 254.527 1231.2 z"/>
<path transform="translate(0,0)" fill="rgb(173,89,75)" d="M 326.053 1100.54 C 332.872 1104.23 340.478 1115.03 345.908 1120.84 C 408.993 1188.43 532.445 1212.95 621.315 1216.09 C 622.866 1237.82 620.783 1261.22 630.977 1281.08 C 616.702 1279.11 602.312 1278.14 588.02 1276.12 C 509.559 1265.08 418.259 1246.48 357.19 1192.45 C 330.208 1168.57 328.015 1134.33 326.053 1100.54 z"/>
<path transform="translate(0,0)" fill="rgb(169,186,141)" d="M 1540.61 1234.84 L 1541.74 1234.83 C 1553.11 1240.67 1581.54 1284.72 1590.98 1298.11 C 1569.08 1296.45 1546.82 1294.33 1525.27 1290.04 C 1509.67 1286.93 1492.32 1280.02 1476.55 1279.6 C 1474.05 1279.53 1471.87 1279.8 1470.11 1281.78 C 1468.65 1283.43 1468.42 1285.12 1468.46 1287.22 C 1468.63 1295.25 1470.84 1303.92 1472.04 1311.9 A 499.713 499.713 0 0 1 1476.23 1348.16 C 1447.39 1343.78 1418.69 1340.03 1389.67 1336.98 C 1381.1 1336.09 1371.87 1333.63 1363.31 1334.53 C 1360.06 1334.87 1357.54 1335.8 1355.5 1338.51 C 1344.91 1352.64 1358.95 1417.36 1362.65 1436.84 C 1353.44 1433.74 1344.02 1431.14 1334.72 1428.32 A 637.098 637.098 0 0 1 1278.53 1406.9 C 1260.42 1398.91 1242.28 1389.5 1223.48 1383.29 C 1266.39 1369.76 1321.84 1340.25 1357.95 1313.62 C 1372.98 1302.53 1386.69 1289.93 1400.32 1277.21 C 1438.14 1275.66 1505.37 1251.11 1540.61 1234.84 z"/>
<path transform="translate(0,0)" fill="rgb(206,183,147)" d="M 1075.98 218.585 C 1121.92 213.718 1205.3 225.06 1251.36 233.846 C 1271.13 237.617 1290.61 243.049 1310.46 246.361 C 1307.07 248.952 1303.94 251.914 1300.75 254.744 C 1283.79 252.916 1267.34 247.95 1250.52 245.142 C 1175.73 232.654 1092.36 220.174 1017.98 238.49 C 979.002 248.088 940.796 261.634 902.798 274.491 L 739.484 329.881 A 10494.2 10494.2 0 0 0 473.2 421.109 A 2769.43 2769.43 0 0 0 365.375 461.096 C 352.637 466.152 339.476 470.539 327.081 476.398 C 321.703 478.94 315.273 482.275 312.313 487.672 C 310.44 491.086 311.066 495.146 312.316 498.665 C 327.426 541.17 471.261 601.201 516.5 621.545 C 566.023 643.63 617.11 660.417 667.562 680.017 L 659.534 689.962 C 617.867 672.765 575.494 657.431 533.63 640.736 A 2744.26 2744.26 0 0 1 454.396 606.958 C 411.041 588.012 368.779 568.397 329.102 542.371 C 315.726 533.596 273.104 500.437 270.905 484.465 C 270.703 483.002 271.288 482.38 272.183 481.318 C 274.862 478.142 279.717 476.089 283.493 474.448 C 299.793 467.363 316.973 461.689 333.687 455.626 C 357.444 447.009 381.092 438.247 404.962 429.916 L 607.837 360.482 L 866.701 274.751 C 908.859 261.057 950.646 246.276 993.319 234.201 C 1020.42 226.531 1047.88 220.867 1075.98 218.585 z"/>
<path transform="translate(0,0)" fill="rgb(169,186,141)" d="M 479.432 1266.45 C 527.109 1277.56 588.755 1290.92 637.552 1291.09 C 660.504 1319.52 699.949 1338.49 732.003 1354.78 C 707.103 1378.16 690.227 1407.91 676.489 1438.81 C 669.541 1423.76 664.401 1407.47 659.657 1391.61 C 657.101 1383.06 655.063 1373.59 651.278 1365.5 C 649.795 1362.33 649.019 1361.15 646.041 1359.42 C 644.389 1359.46 643.079 1359.53 641.632 1360.47 C 633.435 1365.81 628.923 1389.03 626.088 1398.2 C 619.141 1422.94 612.06 1447.75 607.369 1473.03 C 587.418 1440.47 562.284 1359.08 556.98 1319.99 C 555.885 1311.92 557.078 1303.33 556.809 1295.18 C 556.723 1292.58 556.469 1290.25 554.541 1288.34 C 545.895 1288.4 468.344 1365.07 455.525 1376.25 C 460.438 1340.65 464.255 1299.45 479.432 1266.45 z"/>
<path transform="translate(0,0)" fill="rgb(173,89,75)" d="M 956.341 1030.7 C 983.607 1040.22 1011.01 1049.76 1039.54 1054.81 C 1103.44 1066.12 1167.8 1048.08 1228.93 1031.43 L 1229.22 1033.58 L 1228.47 1033.85 C 1225.99 1035.1 1223.66 1036.29 1222.01 1038.61 C 1204.28 1063.49 1232.41 1106.35 1237.21 1132.38 C 1239.96 1147.25 1240.39 1165.39 1231.15 1178.2 C 1228.08 1182.45 1224.15 1186.09 1218.72 1186.64 C 1214.23 1187.11 1209.68 1185.37 1206.02 1182.86 C 1180.91 1165.7 1197.62 1121.41 1172.48 1103.74 C 1167.54 1100.26 1161.11 1099.1 1155.24 1100.41 C 1150.61 1101.45 1146.68 1104.04 1143.62 1107.63 C 1126.62 1127.59 1149.48 1156.53 1134.01 1178.58 C 1131.95 1181.52 1129.04 1184.05 1125.28 1184.23 C 1100.07 1185.45 1102.24 1134.27 1097.82 1118 C 1095.09 1107.94 1090.63 1099.19 1083.09 1091.86 C 1070.37 1079.47 1050.84 1068.41 1032.59 1069.06 C 1024.94 1069.34 1017.14 1071.73 1011.96 1077.64 C 992.97 1099.32 1011.48 1149.12 1012.4 1174.71 C 1012.74 1184.25 1011.73 1195.92 1004.68 1203.05 C 1002.47 1205.28 999.978 1207.18 996.722 1207.1 C 971.249 1198.86 978.037 1146.51 978.365 1126.2 C 978.555 1114.43 978.141 1102.84 976.732 1091.14 C 974.069 1069.02 967.506 1049.93 956.341 1030.7 z"/>
<path transform="translate(0,0)" fill="rgb(173,89,75)" d="M 630.993 1192.63 C 633.767 1195.72 635.114 1200.18 637.018 1203.87 C 641.453 1212.48 646.626 1220.91 653.404 1227.89 C 697.135 1272.92 829.15 1304.22 890.915 1305.5 C 900.228 1311.32 978.125 1364.3 981.68 1369.56 L 976.412 1371.62 C 945.659 1379.47 907.981 1378.65 876.383 1376.49 C 810.026 1371.95 742.869 1352.93 686.087 1318.1 C 673.614 1310.45 660.394 1302.4 650.782 1291.2 C 645.257 1284.76 639.814 1277.13 636.764 1269.16 C 630.151 1251.88 629.622 1211.66 630.993 1192.63 z"/>
<path transform="translate(0,0)" fill="rgb(173,89,75)" d="M 1754.47 1045.02 C 1756 1044.82 1755.08 1044.81 1757.2 1045.51 C 1757.68 1056.7 1740.95 1083.04 1734.66 1092.23 C 1724.47 1107.13 1712.42 1120.1 1698.66 1131.77 C 1634.03 1186.58 1495.93 1249.1 1413.22 1264.83 C 1411.65 1265.07 1412.57 1265.06 1410.47 1264.57 C 1411.15 1258.84 1415.68 1252.86 1417.89 1247.47 C 1424.77 1230.65 1424.97 1212.29 1423.5 1194.51 C 1497.3 1179.19 1572.73 1148.69 1631.05 1099.94 C 1640.73 1091.84 1652.04 1082.51 1659.12 1072.12 C 1690.54 1062.11 1722.71 1053.91 1754.47 1045.02 z"/>
<path transform="translate(0,0)" fill="url(#Gradient2)" d="M 1620.8 876.981 C 1653.84 863.447 1685.36 846.793 1718.03 832.522 C 1729.16 856.471 1734.4 928.267 1725.47 951.852 C 1723.27 957.658 1720.57 961.064 1714.84 963.623 C 1712.17 964.819 1710.32 965.495 1707.35 964.903 C 1703.8 962.756 1702.34 960.02 1701.34 956.072 C 1696.59 937.383 1702.64 907.862 1683.69 895.757 C 1680.29 893.583 1676.15 892.325 1672.12 893.178 C 1668.32 893.983 1665.25 896.684 1663.29 899.957 C 1653.36 916.548 1656.14 940.21 1650.07 958.735 C 1634.14 1007.28 1589.63 1032.4 1545.73 1051.51 C 1523.42 1061.22 1501.1 1069.53 1477.68 1076.19 C 1405.18 1096.84 1335.12 1097.8 1267.08 1060.2 C 1261.36 1057.04 1255.52 1053.67 1250.28 1049.75 C 1243.4 1044.61 1236.64 1036.84 1228.47 1033.85 L 1229.22 1033.58 L 1228.93 1031.43 C 1238.41 1026.66 1250.9 1024.72 1261.32 1022.41 C 1315.72 1055.72 1396.68 1064.55 1458.23 1049.74 C 1514.54 1036.18 1579.63 1001.71 1610.54 950.984 C 1626.48 924.84 1621.8 905.795 1620.8 876.981 z"/>
<path transform="translate(0,0)" fill="rgb(206,183,147)" d="M 1365.48 260.831 C 1392.98 269.528 1420.55 277.838 1447.81 287.327 C 1483.66 299.807 1519.3 314.112 1554.44 328.476 C 1626.68 358.004 1784.03 423.02 1815.29 499.011 C 1821.82 514.882 1821.18 532.332 1814.57 548.07 C 1792.96 599.517 1698.31 640.29 1649.4 662.539 A 2152.34 2152.34 0 0 1 1550.74 705.002 C 1503.36 724.239 1455.07 741.704 1407.2 759.708 C 1317.73 793.353 1147.73 862.596 1053.9 845.292 C 1007.54 836.742 963.789 817.601 920.333 799.989 C 852.48 772.488 785.849 742.493 718.424 714.021 C 712.09 711.382 701.817 709.487 697.914 703.505 C 698.111 700.844 698.343 700.733 700.09 698.673 C 702.694 697.524 704.852 697.618 707.541 698.407 C 733.074 705.893 758.465 718.861 782.997 729.289 C 834.273 751.086 885.17 773.953 936.91 794.606 C 961.763 804.527 986.36 814.686 1012.06 822.258 C 1046.75 832.476 1079.77 836.543 1115.96 832.79 C 1215.4 822.476 1313.72 781.1 1406.86 746.483 C 1507.84 708.948 1609.48 671.849 1704.28 620.104 C 1736.9 602.296 1773.23 581.207 1784.13 543.015 C 1790.42 521.013 1785.13 498.499 1774.08 478.933 C 1724.03 390.307 1455.4 297.96 1357 270.375 L 1365.48 260.831 z"/>
<path transform="translate(0,0)" fill="rgb(232,223,195)" d="M 522.715 848.451 C 525.645 849.141 527.6 850.028 530.215 851.528 C 529.225 855.125 526.393 858.76 524.449 861.98 C 517.217 873.958 511.717 884.225 510.344 898.39 C 508.628 916.095 514.143 935.337 527.626 947.598 C 532.342 951.886 538.327 954.633 542.389 959.629 C 543.054 960.446 543.712 961.269 544.393 962.072 C 555.776 975.493 571.425 991.755 590.248 992.86 C 604.774 993.712 617.293 983.112 627.35 973.842 C 634.666 967.098 655.384 948.056 655.783 938.483 L 654.525 937.421 C 636.479 934.895 604.272 950.724 583.856 953.47 C 567.898 955.617 547.882 955.7 534.686 945.077 C 524.809 937.127 519.242 924.436 518.072 911.994 C 516.113 891.17 525.472 870.413 538.614 854.803 C 566.382 866.778 596.178 876.916 622.783 891.193 C 607.709 891.033 552.847 889.205 542.383 882.97 C 540.316 881.738 539.54 881.042 536.997 880.951 C 535.084 882.156 534.978 882.403 534.026 884.473 C 534.162 884.822 534.264 885.188 534.435 885.522 C 538.279 893.033 559.824 893.935 567.408 894.577 C 582.024 895.813 596.733 897.124 611.388 897.74 C 621.199 898.152 631.332 897.289 641.01 899.105 C 658.676 902.42 700.052 923.143 718.666 931.512 A 1659.2 1659.2 0 0 0 772.244 954.008 C 786.147 959.743 800.256 965.308 813.752 971.945 C 804.15 980.616 791.249 987.847 779.364 992.903 C 770.002 996.886 758.936 1000.02 749.129 995.759 C 726.949 986.126 735.842 962.227 728.996 946.449 C 728.076 944.329 726.589 942.926 724.364 942.238 C 721.697 941.414 718.962 941.922 716.519 943.14 C 711.782 945.502 707.986 949.666 706.615 954.817 C 703.341 967.107 706.037 987.897 713.189 998.471 C 714.562 1000.5 715.539 1001.07 717.871 1001.55 C 719.902 1000.72 720.427 1000.03 721.562 998.168 C 719.808 994.383 718.042 990.589 716.455 986.73 C 713.155 978.703 709.401 961.925 713.708 953.931 C 715.523 950.562 717.522 949.616 720.913 948.396 C 721.487 948.52 722.144 948.445 722.634 948.767 C 722.984 948.996 723.045 949.499 723.194 949.89 C 724.442 953.163 724.119 957.362 724.342 960.863 C 725.127 973.182 727.694 986.255 736.81 995.289 C 742.983 1001.41 751.32 1004.48 759.959 1004.36 C 779.133 1004.1 808.043 987.854 821.141 974.153 C 828.347 977.044 835.356 980.377 842.394 983.65 C 813.325 1006.13 769.261 1016.02 733.421 1019.61 C 669.657 1026.01 583.821 1014.29 533.295 972.577 C 513.874 956.544 503.962 936.493 501.753 911.504 C 499.632 887.51 507.34 866.812 522.715 848.451 z"/>
<path transform="translate(0,0)" fill="rgb(173,89,75)" d="M 1396.39 1166.05 C 1405.35 1173.74 1410.2 1185.91 1411.97 1197.34 A 89.3939 89.3939 0 0 1 1395.19 1264.2 C 1385.27 1277.64 1371.14 1288.83 1358.02 1299.08 C 1277.16 1362.28 1160.63 1399.31 1060.23 1414.09 L 1049.94 1415.33 C 1051.02 1402.69 1049.97 1392.19 1046.09 1380.12 C 1063.96 1373.02 1079.55 1361.12 1097.32 1354.06 C 1111.75 1348.32 1127.69 1345.51 1142.46 1340.41 C 1201.43 1320.03 1276.48 1288.98 1321.37 1244.65 C 1335.15 1231.04 1346.91 1214.88 1347.11 1194.84 C 1363.13 1184.65 1379.9 1175.46 1396.39 1166.05 z"/>
<path transform="translate(0,0)" fill="rgb(173,89,75)" d="M 1320.94 249.738 C 1331.38 252.877 1342.42 254.901 1352.98 257.739 C 1342.53 266.946 1328.43 272.878 1316.22 279.462 A 3475.56 3475.56 0 0 1 1247.61 315.77 A 2829.45 2829.45 0 0 0 1085.8 409.361 C 1049.99 431.614 1015.19 454.013 982.197 480.351 C 970.272 489.869 958.029 499.479 947.972 511.013 C 931.952 529.384 918.938 554.646 914.377 578.668 C 908.371 610.302 915.403 650.759 893.379 677.207 C 888.697 682.829 881.015 688.28 873.504 688.842 C 869.395 689.15 865.941 687.693 862.949 684.925 C 844.221 667.596 868.878 632.94 867.357 612.247 C 866.975 607.055 865.236 601.986 861.044 598.653 C 854.763 593.658 844.442 592.614 836.771 593.832 C 809.402 598.174 707.133 671.743 690.423 694.859 C 679.623 709.799 684.015 730.097 686.94 746.787 C 693.03 773.511 699.451 803.508 689.998 830.166 C 687.548 837.076 682.797 847.207 675.593 850.28 C 673.162 851.317 670.526 851.483 668.105 850.292 C 663.747 848.149 661.294 843.242 659.872 838.836 C 657.23 830.648 656.852 821.313 656.98 812.77 C 657.261 793.91 660.673 775.001 662.26 756.21 C 663.556 740.864 663.049 725.292 664.743 710.026 C 665.23 705.639 665.718 699.405 668.127 695.677 C 676.192 683.195 712.543 656.305 726.442 644.803 C 770.525 608.319 817.189 575.137 863.511 541.593 C 883.535 527.093 902.949 511.851 923.131 497.532 A 3885.51 3885.51 0 0 1 1064.37 403.443 C 1099.28 381.425 1135.24 361.219 1170.78 340.261 C 1205.98 319.5 1242.35 300.969 1277.79 280.664 C 1289.9 273.726 1304.44 267.014 1315.2 258.308 C 1317.79 256.217 1319.4 252.611 1320.94 249.738 z"/>
<path transform="translate(0,0)" fill="rgb(232,223,195)" d="M 293.399 1150.23 C 293.866 1154.58 238.179 1201.78 231.389 1208.02 C 223.14 1215.61 215.84 1224.37 206.813 1231.07 C 199.412 1236.56 190.632 1240.66 182.641 1245.25 A 236.476 236.476 0 0 0 149.251 1268.2 C 134.983 1279.95 121.358 1293.34 110.692 1308.49 C 87.9921 1340.73 77.2056 1377.33 84.389 1416.63 C 94.2276 1470.45 141.502 1511.23 184.228 1541.02 C 265.026 1597.36 358.365 1632.73 452.569 1659.58 C 661.967 1719.25 879.221 1734.48 1096.06 1728.28 A 2608.48 2608.48 0 0 0 1326.06 1712.82 A 2624.4 2624.4 0 0 0 1462.39 1691.33 C 1480.44 1688.1 1498.26 1683.72 1516.15 1679.69 C 1542.89 1673.66 1569.63 1667.71 1596.03 1660.25 A 1270.84 1270.84 0 0 0 1685.9 1630.29 C 1772.09 1598.43 1878.92 1551.2 1932.82 1472.88 C 1955.8 1439.49 1970.1 1400.77 1962.33 1359.97 C 1950.34 1297.01 1889.02 1255.16 1839.96 1221.35 L 1840.4 1179.98 C 1864.71 1192.34 1887.89 1211.36 1909.26 1228.17 C 1944.73 1256.83 1976.53 1288.99 1992.94 1332.6 C 2008.74 1374.6 2004.11 1415.75 1985.51 1455.92 C 1934.24 1566.65 1795.82 1629.71 1687.3 1668.93 C 1403.6 1771.46 1032.42 1786.52 734.073 1752.5 A 2111.3 2111.3 0 0 1 583.226 1730.51 C 562.24 1726.49 541.403 1721.35 520.575 1716.58 C 476.049 1706.38 432.089 1695.26 388.776 1680.63 C 352.387 1668.34 315.945 1652.97 281.202 1636.65 C 219.115 1607.49 125.847 1552.14 83.1689 1498.09 C 70.5432 1482.1 60.6847 1462.65 53.8825 1443.5 C 39.5206 1403.07 40.8487 1360.87 59.5321 1322.14 C 101.75 1234.62 205.463 1180.67 293.399 1150.23 z"/>
<path transform="translate(0,0)" fill="rgb(232,223,195)" d="M 106.898 1537.88 C 116.042 1542 141.643 1566.53 152.904 1574.62 A 737.977 737.977 0 0 0 261.976 1639.12 C 445.664 1728.5 655.388 1761.94 857.878 1773.89 C 897.018 1776.2 936.229 1778.65 975.446 1778.99 C 1235.26 1781.24 1514.36 1756.83 1755.19 1653.11 C 1821.46 1624.57 1884.56 1591.75 1936.55 1540.62 C 1929.63 1554.42 1913.56 1569.69 1902.65 1581.12 A 597.538 597.538 0 0 1 1859.58 1621 C 1788.93 1680.8 1706.14 1727.99 1619.96 1761.63 C 1388.56 1851.97 1079.39 1867.98 833.256 1847.31 C 708.362 1836.81 580.249 1818.84 462.087 1775.49 C 420.709 1760.31 380.427 1741.31 341.308 1721.07 C 273.39 1685.95 206.01 1642.22 151.645 1588.15 C 135.755 1572.34 121.351 1554.98 106.898 1537.88 z"/>
<path transform="translate(0,0)" fill="rgb(206,183,147)" d="M 312.972 1217.24 C 313.718 1219.64 299.881 1249.51 298.005 1254.86 C 294.61 1264.53 283.503 1296.62 289.423 1305.52 C 290.234 1306.74 291.332 1307.77 292.784 1308.05 C 297.569 1308.96 301.606 1305.6 305.274 1303 C 320.57 1292.13 335.142 1280.73 351.232 1270.99 C 366.505 1261.74 382.952 1254.12 397.674 1244.04 C 392.872 1255.54 372.167 1300 376.846 1310.36 C 377.541 1311.9 378.132 1312.9 379.72 1313.54 C 382.706 1314.74 385.713 1313.91 388.624 1312.9 C 398.662 1309.41 408.284 1303.28 417.985 1298.81 C 432.93 1291.93 448.259 1286.18 463.781 1280.75 C 459.547 1296.02 441.976 1381.68 446.936 1391.05 L 448.927 1391.61 C 468.151 1385.72 522.397 1323.06 545.654 1307.46 C 546.007 1307.22 546.367 1306.99 546.723 1306.76 A 1719.13 1719.13 0 0 0 549.357 1327.11 C 553.798 1359.29 586.589 1478.09 611.055 1496.63 C 611.828 1496.51 612.341 1496.48 613.071 1496.06 C 618.826 1492.73 617.622 1478.7 618.367 1472.54 C 621.392 1447.51 634.584 1401.58 643.894 1377.72 C 650.164 1398.03 655.498 1421.27 665.54 1439.99 C 668.013 1444.6 670.728 1449.24 675.976 1450.84 C 679.758 1450.5 681.764 1448.63 683.885 1445.67 C 689.167 1438.31 692.815 1428.93 696.979 1420.8 C 707.79 1399.7 721.504 1378.71 739.462 1363 C 741.612 1382.41 739.9 1413.36 746.109 1430.55 C 747.446 1434.26 748.466 1436.44 752.114 1438.09 C 767.356 1431.75 786.231 1402.32 802.253 1391.58 C 802.539 1391.39 802.833 1391.21 803.122 1391.02 A 1494.32 1494.32 0 0 0 821.332 1453.78 C 826.96 1471.2 854.29 1542.59 868.546 1548.67 C 869.928 1549.26 871.194 1549.05 872.524 1548.34 C 880.574 1544.03 889.415 1514.27 892.648 1505.53 C 903.009 1475.7 914.667 1445.43 927.426 1416.53 C 942.56 1441.75 952.362 1468.59 971.314 1491.69 C 979.355 1501.49 1002.29 1525.67 1015.97 1525.49 C 1017.46 1525.47 1018.85 1525.15 1019.89 1524.05 C 1028.92 1514.55 1029.54 1474.35 1030.16 1459.85 C 1036.75 1474.24 1047.38 1493.05 1062.12 1500.2 C 1053.08 1573.79 1048.17 1588.8 1076.53 1660 C 1019.14 1663.05 962.613 1651.25 907.172 1637.61 C 791.772 1609.23 681.834 1566.78 571.974 1522.11 A 2966.49 2966.49 0 0 1 376.527 1434.96 C 347.635 1420.62 318.439 1406.19 290.957 1389.26 C 267.902 1347.03 270.039 1276.36 269.156 1228.52 C 283.865 1225.09 298.552 1221.77 312.972 1217.24 z"/>
<path transform="translate(0,0)" fill="rgb(206,183,147)" d="M 1826.43 549.685 C 1833.42 586.087 1836.03 625.277 1835.86 662.288 C 1835.77 681.852 1835.41 726.382 1827.73 743.702 C 1825.67 748.355 1822.05 752.33 1818.42 755.839 C 1790.11 783.26 1754.55 801.544 1719.86 819.311 C 1681.41 838.999 1642.29 856.824 1603.02 874.752 C 1582.39 884.166 1562.87 895.97 1542.13 905.116 C 1480.09 932.484 1416.04 956.498 1352.21 979.357 C 1313.22 993.322 1274.27 1006.05 1234.57 1017.85 C 1206.04 1026.32 1177.62 1034.71 1148.32 1040.16 A 383.936 383.936 0 0 1 1073.28 1046.87 C 1072.82 1046.43 1072.69 1046.34 1072.29 1045.63 C 1069.22 1040.19 1068.92 1029.11 1068.12 1022.69 C 1063.06 982.061 1063.38 943.037 1067.25 902.32 C 1068.63 887.784 1069.91 873.168 1073.57 858.995 C 1126.95 859.935 1178.01 848.127 1229.07 833.356 C 1289.69 815.82 1348.54 792.648 1407.7 770.849 C 1487.69 741.378 1567.18 711.135 1645 676.245 C 1687.35 657.256 1730.89 637.815 1769.17 611.28 C 1794.17 593.947 1811.72 576.381 1826.43 549.685 z"/>
<path transform="translate(0,0)" fill="rgb(206,183,147)" d="M 263.965 494.522 C 268.384 498.71 271.946 504.797 275.928 509.493 A 211.891 211.891 0 0 0 306.203 538.708 C 356.732 578.062 419.031 603.751 477.619 628.481 A 3336.87 3336.87 0 0 0 656.147 698.137 C 652.998 716.836 653.677 736.898 652.239 755.896 C 650.836 774.431 647.34 792.936 647.064 811.525 C 646.86 825.23 647.934 848.768 658.551 858.86 C 661.441 861.607 665.021 862.788 668.974 862.591 C 677.292 862.177 686.018 856.53 691.302 850.355 C 719.364 817.557 696.83 753.613 693.962 714.728 C 721.379 727.638 749.643 738.627 777.28 751.056 A 2661.73 2661.73 0 0 0 906.542 806.242 C 958.021 827.214 1007.68 847.074 1062.5 857.565 C 1061.52 866.902 1059.75 876.261 1058.32 885.546 C 1049.19 939.369 1051.66 993.036 1061.11 1046.54 C 1029.06 1043.09 998.384 1033.74 968.21 1022.78 C 915.183 1003.52 863.025 980.417 811.265 958.027 L 669.548 897.767 A 9192.36 9192.36 0 0 1 427.185 793.081 C 384.92 774.253 341.876 756.083 300.795 734.796 C 290.243 729.328 276.009 722.351 268.169 713.107 C 264.919 709.274 264.665 701.986 264.221 697.118 C 262.715 680.603 262.865 663.83 262.648 647.254 A 2836.89 2836.89 0 0 1 262.635 558.995 C 262.85 537.996 261.167 515.243 263.965 494.522 z"/>
<path transform="translate(0,0)" fill="url(#Gradient3)" d="M 1727.23 1145 A 1906.1 1906.1 0 0 0 1822.39 1123.88 C 1834.04 1173.66 1829.95 1262.01 1815.45 1310.85 C 1801.03 1325.83 1781.07 1337.45 1763.54 1348.46 C 1724.31 1373.1 1683.81 1394.07 1642.6 1415.05 C 1575.25 1449.34 1507.04 1481.27 1438.62 1513.31 C 1355.86 1552.06 1273.98 1591.66 1189.17 1625.95 C 1157.29 1638.84 1124.6 1650.82 1091.44 1659.97 C 1067.17 1612.17 1062.02 1579.22 1069.05 1526.14 C 1070.5 1515.19 1074.25 1503.89 1074.98 1493.1 C 1073.37 1490.29 1060.83 1485.45 1056.15 1480.2 C 1047.61 1470.6 1034.6 1438.92 1024.2 1434.96 C 1022.63 1434.37 1022.95 1434.64 1021.19 1435.34 C 1019.75 1437.34 1019.25 1439.2 1018.96 1441.61 C 1018.17 1448.13 1018.62 1455.06 1018.52 1461.62 C 1018.24 1479.53 1017.68 1497.28 1013.26 1514.74 C 976.456 1493.23 956.013 1449.99 938.525 1412.64 C 935.945 1407.12 933.185 1397.46 928.423 1393.72 L 926.066 1394.23 C 922.349 1397.46 920.604 1402.5 918.688 1406.94 C 912.188 1422 907.263 1437.78 901.585 1453.17 A 6029.73 6029.73 0 0 1 870.233 1535.02 C 839.862 1485.93 825.615 1433.09 810.847 1377.87 C 869.087 1389.32 936.774 1395.63 994.291 1378.26 C 999.197 1381.89 1004.59 1385.99 1010.27 1388.25 C 1020.4 1392.28 1028.08 1389.31 1037.42 1385.19 C 1041.49 1402.76 1040.94 1411.44 1038.31 1428.94 C 1037.89 1431.73 1037.47 1434.8 1039.23 1437.21 C 1041.83 1437.35 1042.46 1436.94 1044.85 1435.78 C 1047.38 1432.8 1047.82 1428.99 1048.64 1425.27 C 1064.72 1440.45 1091.49 1461.68 1110.13 1473.49 C 1120.59 1480.11 1131.78 1485.79 1142.65 1491.69 L 1151.4 1486.06 C 1150.49 1468.09 1145.9 1449.31 1143.32 1431.41 C 1167.49 1450.51 1195.5 1469.88 1226.43 1475.32 C 1229.29 1475.83 1231.72 1476.2 1234.25 1474.53 C 1236.55 1466.13 1224.45 1408.83 1222.38 1395.09 C 1234.25 1398.67 1246.07 1404.69 1257.46 1409.63 C 1288.76 1423.22 1327.17 1441.04 1360.62 1447.11 C 1364.85 1447.88 1371.21 1449.1 1374.87 1446.12 C 1376.04 1445.16 1375.81 1444.39 1376.02 1443 C 1372.77 1435.42 1371.41 1426.68 1369.59 1418.65 C 1363.98 1393.99 1358.56 1370.25 1362.85 1344.93 C 1377.24 1348.08 1393.17 1347.97 1407.89 1349.79 C 1430.65 1352.6 1453.64 1357.14 1476.47 1358.99 C 1480.65 1359.33 1484.75 1359.94 1488.18 1357.06 C 1490.25 1348.43 1481.14 1302.66 1479.08 1290.14 C 1517.9 1300.37 1555.06 1306.06 1594.94 1309.71 C 1598.32 1307.36 1601.88 1305.49 1605.52 1303.58 C 1597.95 1284.3 1567.53 1247.1 1552.86 1230.09 C 1584.72 1215.75 1615.53 1200.09 1646.16 1183.31 C 1645.34 1187.61 1643.69 1193.69 1646.46 1197.59 C 1647.72 1199.36 1650.13 1200.59 1652.27 1200.79 C 1652.57 1200.82 1652.87 1200.78 1653.18 1200.78 C 1667.8 1212.08 1687.25 1235.17 1700.35 1249.4 C 1671.14 1243.71 1641.69 1239.85 1612.55 1233.52 C 1606.12 1232.12 1585.75 1224.37 1581.06 1225.35 C 1578.32 1225.93 1578.18 1226.66 1576.81 1228.9 C 1576.2 1236.33 1576.34 1245.32 1580.54 1251.69 C 1582.95 1253.17 1582.74 1253.31 1585.47 1252.65 C 1586.74 1251.23 1587.53 1250.02 1588.08 1248.19 C 1589.43 1243.71 1587.99 1241.33 1585.81 1237.47 L 1585.12 1236.27 C 1590.83 1238.64 1596.46 1240.83 1602.42 1242.55 C 1617.06 1246.79 1703.52 1264.19 1713.42 1257.8 C 1714.75 1256.94 1714.49 1256.16 1714.75 1254.72 C 1709 1240.76 1675.28 1207.71 1663.08 1195.92 C 1678.38 1195.9 1757.1 1194.54 1765.69 1186.7 C 1767.87 1184.71 1767.76 1184.07 1767.81 1181.32 C 1760.9 1169.2 1738.27 1155.47 1727.23 1145 z"/>
<path transform="translate(0,0)" fill="rgb(232,223,195)" d="M 1074.64 239.405 C 1088.98 237.093 1106.16 239.089 1120.73 240.124 C 1177.28 244.14 1232.43 253.062 1288.07 263.685 C 1264.92 277.512 1240.51 289.932 1216.85 302.938 C 1173.73 326.633 1130.52 350.884 1088.55 376.547 A 3788.34 3788.34 0 0 0 678.045 671.207 C 643.126 660.836 608.737 647.072 574.713 634.079 C 518.165 612.154 359.033 546.245 325.878 501.784 C 323.677 498.832 321.698 495.594 322.269 491.825 C 334.434 481.379 368.379 471.121 384.924 464.74 C 513.586 415.125 645.116 372.453 775.807 328.533 C 850.348 303.483 924.399 276.085 999.978 254.294 C 1024.71 247.162 1049.03 242.176 1074.64 239.405 z"/>
<path transform="translate(0,0)" fill="rgb(23,24,24)" d="M 846.07 390.454 C 848.084 391.385 848.9 391.786 849.44 394.218 C 851.688 404.342 838.794 425.544 833.446 433.836 C 831.556 432.77 830.308 432.121 829.126 430.264 C 830.861 421.878 841.633 397.794 846.07 390.454 z"/>
<path transform="translate(0,0)" fill="rgb(23,24,24)" d="M 1128.03 279.709 C 1128.99 280.037 1129.61 280.182 1130.47 280.838 C 1136.09 285.129 1147.42 320.69 1147.69 328.517 L 1144.04 327.847 C 1142.86 326.767 1142.19 325.826 1141.45 324.404 C 1137.36 316.613 1125.5 287.934 1128.03 279.709 z"/>
<path transform="translate(0,0)" fill="rgb(23,24,24)" d="M 861.475 392.328 L 864.155 393.805 C 865.638 396.227 865.766 398.273 865.424 401.037 C 864.092 411.812 855.437 429.464 846.799 436.006 C 845.491 435.73 844.575 435.213 843.395 434.604 C 843.279 433.861 842.933 433.118 843.048 432.374 C 843.083 432.142 859.294 398.239 861.475 392.328 z"/>
<path transform="translate(0,0)" fill="rgb(23,24,24)" d="M 1106.42 281.399 L 1109.92 282.036 C 1114.25 286.031 1132.54 326.69 1133.37 333.304 C 1130.43 331.744 1128.19 330.498 1126.06 327.887 C 1119.4 319.713 1105.2 291.451 1106.42 281.399 z"/>
<path transform="translate(0,0)" fill="rgb(23,24,24)" d="M 578.563 466.172 C 580.836 466.636 581.444 466.649 583.138 468.178 C 586.654 479.453 584.875 509.333 581.519 520.668 C 581.228 520.617 580.935 520.579 580.647 520.516 C 579.098 520.179 577.105 519.609 576.329 518.123 C 572.072 509.973 576.494 475.782 578.563 466.172 z"/>
<path transform="translate(0,0)" fill="rgb(23,24,24)" d="M 557.69 464.471 C 559.598 465.265 560.195 465.732 561.645 467.104 C 565.76 478.474 564.727 511.778 561.494 523.808 C 559.473 523.331 558.092 522.67 556.316 521.6 C 552.857 515.795 555.941 472.211 557.69 464.471 z"/>
<path transform="translate(0,0)" fill="rgb(232,223,195)" d="M 463.221 820.955 C 480.142 828.223 496.662 836.322 513.836 843.012 A 275.474 275.474 0 0 0 509.399 849.088 C 485.771 882.441 480.355 914.772 487.425 955.07 C 493.067 987.225 507.271 1012.43 534.242 1031.27 C 592.38 1071.86 679.668 1084.09 748.347 1071.43 C 798.004 1062.27 853.527 1044.8 883.398 1001.3 C 903.822 1008.82 924.004 1017.44 943.994 1026.02 C 971.698 1070.19 970.444 1102.24 968.167 1152.14 C 967.498 1166.79 967.063 1181.66 972.895 1195.44 C 978.183 1207.94 986.31 1214.03 998.399 1219.07 C 1052.87 1194.19 996.693 1121.48 1016.92 1087.44 C 1019.6 1082.94 1024.29 1079.29 1029.4 1078.04 C 1040.25 1075.37 1057.05 1083.15 1066.24 1088.93 C 1095.88 1107.56 1086.65 1134.93 1093.74 1163.02 C 1096.53 1174.07 1102.88 1184.61 1113 1190.34 C 1118.64 1193.53 1125.37 1195.01 1131.67 1192.95 C 1166.21 1181.71 1138.56 1133.95 1148.19 1115.71 C 1150.08 1112.13 1152.6 1109.65 1156.61 1108.6 C 1160.02 1107.7 1163.75 1108.49 1166.67 1110.43 C 1178.92 1118.59 1178.78 1145.97 1181.96 1159.28 C 1184.89 1171.56 1191.05 1185.39 1202.39 1191.94 C 1208.63 1195.54 1216.82 1196.99 1223.8 1194.89 C 1231.71 1192.53 1238.99 1185.44 1242.62 1178.17 C 1258.35 1146.64 1238.46 1109.81 1228.93 1080.01 C 1225.66 1069.78 1222.39 1055.63 1227.58 1045.67 C 1231.84 1043.39 1237.95 1049.7 1241.63 1052.37 C 1282.89 1082.29 1332.59 1097.71 1383.41 1098.93 C 1445.69 1100.43 1553.74 1066.71 1604.25 1031.22 A 144.993 144.993 0 0 0 1644.53 989.007 C 1650.77 978.832 1656.07 967.745 1659.27 956.22 C 1662.73 943.745 1662.54 910.638 1672.36 903.502 C 1674.67 901.823 1675.4 902.071 1678.06 902.39 C 1698.72 917.274 1685.06 951.584 1698.3 969.742 C 1700.73 973.079 1704.42 976.127 1708.7 976.399 C 1714.3 976.754 1719.71 972.5 1723.37 968.73 C 1737.57 954.09 1737.81 931.254 1737.91 912.21 C 1737.11 889.316 1734.01 867.471 1730.18 844.903 C 1773.3 873.152 1817.13 900.41 1860.44 928.383 C 1885.4 944.506 1911.93 960.61 1935.05 979.261 C 1895.33 995.248 1852.91 1005.43 1811.73 1016.98 C 1774.19 1027.5 1737.01 1039.23 1699.31 1049.16 C 1648.81 1062.46 1597.47 1073.24 1547.65 1089.03 C 1512.55 1100.16 1473.17 1116.31 1439.5 1131.4 C 1382.58 1156.92 1329.83 1191.59 1277.43 1225.11 C 1260.95 1235.65 1244.09 1245.59 1227.6 1256.12 C 1187.07 1281.98 1146.93 1308.17 1105.59 1332.75 C 1084.96 1345.03 1045.17 1371.6 1024.97 1377.91 C 1020.22 1379.4 1016.23 1379.92 1011.67 1377.51 C 1003.84 1373.37 996.555 1366.13 989.354 1360.79 C 976.798 1351.48 963.846 1342.67 951.042 1333.7 C 902.764 1299.9 854.321 1267.03 803.869 1236.51 A 11602.4 11602.4 0 0 0 630.068 1132.02 C 588.334 1107.5 546.454 1082.96 502.832 1061.9 A 5228.97 5228.97 0 0 0 309.271 973.961 C 250.226 949.144 190.264 926.968 133.178 897.69 C 163.136 884.714 195.025 874.483 225.905 863.875 A 12125.2 12125.2 0 0 1 348.946 822.169 C 352.358 829.303 350.665 884.508 351.302 896.133 C 351.941 907.783 353.525 926.073 363.159 933.921 C 365.877 936.136 370.364 937.312 373.844 936.957 C 380.674 936.262 385.965 931.622 389.687 926.151 C 410.48 895.582 390.478 839.533 404.301 826.105 C 405.844 824.606 408.12 823.767 410.261 824.273 C 425.238 827.814 420.375 862.733 430.4 874.104 C 432.892 876.931 436.114 879.191 440.02 879.273 C 444.12 879.359 448.176 877.402 451.128 874.653 C 463.87 862.791 462.925 837.096 463.221 820.955 z"/>
<path transform="translate(0,0)" fill="rgb(23,24,24)" d="M 306.704 870.292 C 310.237 869.911 312.087 869.309 315.389 870.743 L 314.544 869.793 L 313.917 872.465 L 314.711 871.949 C 310.331 875.523 305.443 877.488 300.3 879.672 C 299.221 879.911 298.741 880.043 297.56 880.165 C 295.156 880.413 293.845 880.541 291.93 878.923 L 292.356 876.754 C 296.99 871.788 300.205 871.27 306.704 870.292 z"/>
<path transform="translate(0,0)" fill="rgb(23,24,24)" d="M 297.091 893.307 C 298.487 894.103 298.842 894.813 299.723 896.12 L 298.686 897.821 C 291.739 901.811 283.772 903.183 275.898 903.916 C 274.181 902.57 274.129 902.883 273.44 900.621 C 276.919 895.934 291.167 894.519 297.091 893.307 z"/>
<path transform="translate(0,0)" fill="rgb(23,24,24)" d="M 880.705 1057.7 C 882.491 1059.39 882.539 1059.5 882.99 1061.92 C 880.595 1070.39 872.629 1077.61 865.516 1082.44 L 863.189 1079.92 C 863.391 1074.04 876.562 1062.32 880.705 1057.7 z"/>
<path transform="translate(0,0)" fill="rgb(23,24,24)" d="M 1284.57 1109.57 C 1284.94 1109.74 1285.32 1109.9 1285.68 1110.09 C 1291.02 1112.91 1307.9 1124.27 1309.79 1129.63 C 1308.19 1129.45 1306.54 1129.21 1304.97 1128.84 C 1298.95 1127.4 1286.59 1121.73 1284.02 1115.87 C 1282.84 1113.2 1283.64 1112.16 1284.57 1109.57 z"/>
<path transform="translate(0,0)" fill="rgb(23,24,24)" d="M 1296.56 1102.46 C 1303.44 1105.96 1315.68 1114.98 1320.32 1121.14 C 1322.25 1123.7 1321.69 1124.56 1321.09 1127.48 C 1312.53 1124.6 1301.33 1117.82 1296.67 1109.86 C 1294.98 1106.97 1295.77 1105.43 1296.56 1102.46 z"/>
<path transform="translate(0,0)" fill="rgb(23,24,24)" d="M 908.484 1062.73 C 909.786 1064.43 910.778 1065.12 910.184 1067.42 C 907.994 1075.93 893.104 1087.27 886.207 1092.48 C 884.927 1091.13 884.307 1090.25 883.707 1088.49 C 888.331 1078.85 900.639 1069.92 908.484 1062.73 z"/>
<path transform="translate(0,0)" fill="rgb(23,24,24)" d="M 1047.03 1235.72 C 1055.98 1236.03 1072.34 1245.05 1079.31 1250.67 C 1081.35 1252.32 1081.24 1252.73 1081.49 1255.2 C 1081 1255.31 1080.52 1255.45 1080.02 1255.53 C 1072.77 1256.71 1062.14 1250.43 1056.31 1246.52 C 1051.68 1243.4 1048.19 1241.5 1047.03 1235.72 z"/>
<path transform="translate(0,0)" fill="rgb(23,24,24)" d="M 678.805 1099.76 C 687.367 1100.08 711.82 1109.44 717.746 1115.66 C 719.158 1117.14 718.68 1117.77 718.68 1119.71 C 708.909 1120.36 690.656 1111.42 682.535 1105.9 C 679.672 1103.95 679.464 1103.15 678.805 1099.76 z"/>
<path transform="translate(0,0)" fill="rgb(23,24,24)" d="M 975.125 1234.55 C 978.514 1234.67 1013.01 1245.59 1015.08 1247.39 C 1015.82 1250.07 1015.1 1250.94 1014.14 1253.49 C 1012.71 1253.67 1011.38 1253.82 1009.94 1253.83 C 1002.37 1253.88 980.61 1246.84 975.8 1240.54 C 974.013 1238.21 974.631 1237.26 975.125 1234.55 z"/>
<path transform="translate(0,0)" fill="rgb(232,223,195)" d="M 258.016 1296.83 L 260.007 1297.12 C 260.89 1298.82 260.961 1298.4 260.995 1299.89 C 261.567 1324.78 266.746 1373.18 280.818 1392.63 C 289.081 1404.04 348.504 1431.94 363.856 1439.61 A 3083.07 3083.07 0 0 0 641.395 1561.33 C 757.194 1606.26 875.57 1647.34 998.709 1666.61 C 1030.56 1671.6 1064.52 1675.34 1096.35 1668.3 C 1160.23 1654.17 1221.45 1625.18 1280.74 1598.23 A 5024.61 5024.61 0 0 0 1416.89 1535.48 C 1491.13 1500.51 1565.81 1466.61 1639.02 1429.51 C 1703.71 1396.72 1763.84 1364.1 1822.55 1321.32 C 1846.18 1332.06 1867.62 1350.68 1880.84 1373.06 C 1897.88 1401.9 1898.29 1434.44 1890.3 1466.17 C 1872.39 1516.92 1845.05 1544.18 1798.54 1569.43 C 1758.46 1591.19 1715.38 1608.53 1672.5 1623.95 C 1648.24 1632.67 1623.78 1641.47 1599.04 1648.74 C 1570.8 1657.04 1541.9 1663.63 1513.19 1670.09 C 1373.29 1701.56 1231.62 1714.07 1088.52 1717.71 C 953.33 1721.16 819.054 1716.77 685.028 1697.87 A 1811.59 1811.59 0 0 1 420.984 1639.1 C 356.386 1619.94 290.978 1593.36 232.431 1559.95 C 220.192 1552.96 206.929 1545.63 196.465 1536.16 C 187.227 1527.79 180.547 1516.14 174.706 1505.28 C 157.408 1473.13 146.436 1435.83 157.521 1399.78 C 172.09 1352.39 215.975 1319 258.016 1296.83 z"/>
<path transform="translate(0,0)" fill="rgb(232,223,195)" d="M 1340.6 277.835 C 1341.58 277.74 1341.88 277.672 1342.99 277.794 C 1358.69 279.525 1387.4 290.431 1403.61 295.552 C 1491.09 323.183 1708.05 403.273 1759.85 475.614 C 1771.45 491.813 1779.26 513.314 1775.73 533.37 C 1771.28 558.689 1752.96 577.256 1732.55 591.362 C 1715.57 603.103 1696.67 612.852 1678.42 622.456 C 1599.77 663.829 1515.49 693.639 1432.6 725.159 C 1370.47 748.786 1308.49 774.124 1244.92 793.577 A 889.777 889.777 0 0 1 1145.59 817.698 C 1111.25 823.989 1077.75 825.728 1043.25 819.355 C 990.615 808.694 925.947 778.727 875.999 757.252 A 5711.11 5711.11 0 0 0 710.708 688.257 C 731.759 666.919 792.555 624.606 819.388 610.88 C 827.314 606.826 843.069 599.8 851.659 603.703 C 870.492 612.262 836.903 656.38 849.653 683.224 C 853.023 690.319 858.551 696.608 866.156 699.181 C 872.77 701.418 879.598 700.387 885.635 697.03 C 894.568 692.064 901.523 684.549 906.793 675.884 C 927.182 642.362 916.655 605.231 927.642 569.428 C 933.767 549.47 944.114 529.912 958.354 514.553 C 968.353 503.767 980.358 494.633 991.941 485.618 C 1020.6 463.314 1050.32 443.485 1081.11 424.287 C 1106.98 408.158 1132.55 391.552 1158.94 376.273 C 1218.48 341.799 1279.84 310.103 1340.6 277.835 z"/>
<path transform="translate(0,0)" fill="rgb(23,24,24)" d="M 1641.04 444.661 C 1645.2 445.347 1646.1 445.877 1649.17 448.749 C 1655.53 454.691 1669.29 468.85 1669.42 477.869 C 1667.81 477.532 1666.31 477.224 1664.91 476.294 C 1657.27 471.199 1642.38 453.857 1641.04 444.661 z"/>
<path transform="translate(0,0)" fill="rgb(23,24,24)" d="M 1426.11 604.67 C 1435.25 605.027 1452.68 619.157 1458.74 626.307 C 1460.8 628.731 1460.73 629.745 1460.41 632.824 C 1452.4 629.866 1430.19 615.589 1425.76 608.532 C 1424.83 607.044 1425.62 606.213 1426.11 604.67 z"/>
<path transform="translate(0,0)" fill="rgb(23,24,24)" d="M 1456.26 406.305 C 1456.89 406.535 1457.55 406.678 1458.14 406.995 C 1459.96 407.974 1460.43 409.16 1460.53 411.106 C 1461.03 420.893 1449.08 435.322 1443.11 442.535 C 1440.79 441.308 1440.54 441.343 1439.47 438.992 C 1440.77 428.631 1451.38 417.38 1455.71 407.571 L 1456.26 406.305 z"/>
<path transform="translate(0,0)" fill="rgb(23,24,24)" d="M 1622.44 450.877 C 1625.06 451.462 1627.22 452.535 1629.33 454.194 C 1637.86 460.909 1650.45 475.011 1651.4 486.021 C 1650.16 486.022 1648.9 485.816 1647.66 485.686 C 1640.17 479.971 1623.89 460.025 1622.44 450.877 z"/>
<path transform="translate(0,0)" fill="rgb(23,24,24)" d="M 1282.35 531.934 L 1285.71 531.951 C 1287.17 533.457 1287.15 532.961 1287.31 535.28 C 1280.96 542.583 1258.85 550.743 1249.48 555.846 C 1247.94 556.944 1248.84 556.613 1246.69 556.61 L 1246.43 554.528 C 1252.08 543.318 1271.35 536.2 1282.35 531.934 z"/>
<path transform="translate(0,0)" fill="rgb(23,24,24)" d="M 1448.56 394.64 C 1448.87 394.729 1449.21 394.758 1449.51 394.906 C 1451.72 396.022 1451.62 396.854 1452.08 399.084 C 1449.3 408.012 1430.23 423.662 1422.66 430.65 L 1420 429.399 L 1419.56 427.338 C 1422.97 418.111 1440.76 401.366 1448.56 394.64 z"/>
<path transform="translate(0,0)" fill="rgb(23,24,24)" d="M 1021.31 723.688 C 1022.09 723.843 1023.76 724.115 1024.59 724.47 C 1033.85 728.444 1048.45 752.719 1051.29 762.077 C 1050.82 762.174 1050.35 762.299 1049.88 762.369 C 1047.96 762.651 1047 763.042 1045.39 761.901 C 1038.99 757.358 1022.84 731.394 1021.31 723.688 z"/>
<path transform="translate(0,0)" fill="rgb(23,24,24)" d="M 1043.22 723.044 C 1044.48 723.388 1045.76 723.691 1046.9 724.371 C 1055.15 729.273 1067.18 753.702 1069.63 763.052 C 1067.4 763.232 1065.85 763.157 1063.68 762.585 C 1054.86 755.063 1045.04 734.448 1043.22 723.044 z"/>
<path transform="translate(0,0)" fill="rgb(23,24,24)" d="M 1287.99 554.035 L 1290.36 555.194 L 1290.9 557.232 C 1286.44 565.303 1256.37 576.744 1246.7 581.147 C 1245.94 580.929 1244.65 579.963 1243.96 579.538 L 1243.7 577.602 C 1249.52 569.682 1277.73 556.592 1287.99 554.035 z"/>
</svg>