<svg version="1.1" xmlns="http://www.w3.org/2000/svg" style="display: block;" viewBox="0 0 2048 2048" width="1024" height="1024">
<defs>
	<linearGradient id="Gradient1" gradientUnits="userSpaceOnUse" x1="258.682" y1="1809.46" x2="228.123" y2="1827.34">
		<stop class="stop0" offset="0" stop-opacity="1" stop-color="rgb(84,160,169)"/>
		<stop class="stop1" offset="1" stop-opacity="1" stop-color="rgb(104,185,181)"/>
	</linearGradient>
</defs>
<path transform="translate(0,0)" fill="rgb(234,235,224)" d="M 0 0 L 269.943 0 L 290.286 0 L 395.087 0 L 426.224 0 L 481.643 0 L 492.139 0 L 528.512 0 L 539.095 0 L 633.895 0 L 714.194 0 L 814.331 0 L 829.848 0 L 834.238 0 L 860.16 0 L 930.687 0 L 937.909 0 L 951.629 0 L 1020.02 0 L 1121.15 0 L 1147.64 0 L 1169.12 0 L 1201.27 0 L 1306.6 0 L 1323.62 0 L 1386.23 0 L 1435.71 0 L 1446.65 0 L 1525.53 0 L 1628.92 0 L 1816.82 0 L 1828.94 0 L 1959.93 0 L 1990.7 0 L 2048 0 L 2048 1575.29 L 2048 2048 L 0 2048 L 0 1797.35 L 0 0 z"/>
<path transform="translate(0,0)" fill="rgb(0,0,0)" d="M 649.011 419.593 C 664.63 417.242 680.874 416.139 696.646 416.575 C 706.672 417.274 714.967 418.415 723.875 423.501 C 715.808 432.369 706.925 438.91 697.091 445.721 C 670.113 462.65 640.384 475.883 610.202 486.091 C 595.43 491.088 580.411 495.121 565.771 500.553 C 609.891 495.975 653.111 488.633 697.738 489.229 C 738.381 488.904 793.161 492.254 828.346 514.365 C 798.457 536.864 742.985 546.265 705.855 550.137 C 693.703 551.405 681.474 551.562 669.322 552.684 C 710.899 559.223 779.701 576.087 811.883 602.705 C 771.624 629.437 680.213 618.677 634.444 609.454 C 615.36 605.609 596.586 600.776 577.792 595.729 C 585.806 606.458 595.098 616.085 602.954 626.961 C 612.287 639.881 620.362 654.166 630.345 666.55 C 633.393 670.332 640.443 674.998 641.994 679.284 C 639.714 681.981 637.499 682.435 634.033 682.678 C 627.146 683.163 621.364 682.455 614.776 680.444 C 614.482 680.355 614.185 680.277 613.889 680.193 C 624.704 691.437 633.509 704.858 643.371 716.962 C 662.793 740.8 685.44 762.991 710.118 781.328 C 690.78 780.724 673.075 780.228 654.416 774.6 C 667.147 784.167 681.239 793.472 692.251 805.012 C 709.208 822.782 733.356 871.795 740.668 895.34 C 805.474 917.479 873.613 947.672 930.73 985.548 C 946.652 997.867 963.879 1008.47 979.69 1020.95 C 1015.93 1049.54 1050.41 1080.21 1087.64 1107.58 L 1222.93 1208.81 A 1661.3 1661.3 0 0 1 1283.06 1256 C 1294.53 1265.27 1306.61 1274.47 1317.33 1284.58 C 1342.69 1307.66 1366.58 1331.02 1387.59 1358.22 C 1396.65 1369.94 1402.89 1385.04 1413.26 1395.49 C 1422.56 1404.87 1435.55 1412.62 1446.24 1420.52 C 1474.66 1441.54 1548.08 1494.6 1557.44 1528.07 L 1555.29 1529.77 C 1544.45 1526.54 1533.8 1517.57 1523.55 1512.32 C 1503.76 1502.17 1483.41 1493.1 1463.59 1482.97 C 1447.11 1474.54 1430.55 1464.52 1413.48 1457.46 L 1414.48 1458.37 C 1426.05 1468.69 1439.69 1477.45 1452.24 1486.58 C 1487.61 1512.34 1538 1548.6 1562.95 1583.93 C 1566.12 1588.42 1571.4 1595.31 1571.92 1600.87 C 1571.96 1601.24 1571.92 1601.61 1571.91 1601.98 C 1570.35 1603.41 1571.1 1603.29 1569.19 1603.18 C 1564.3 1602.91 1556.63 1597.11 1551.54 1595.14 C 1529.77 1586.7 1507.66 1579.82 1486.1 1570.68 C 1471.09 1564.31 1454.37 1554.22 1439.41 1549.34 C 1425.94 1544.96 1409.38 1546.73 1395.25 1544.89 C 1376.44 1542.44 1357.83 1538.33 1339.27 1534.49 C 1354.75 1544.51 1368.45 1556.92 1382.73 1568.52 C 1406.91 1588.17 1431.3 1607.83 1456.57 1626.05 C 1494.43 1653.34 1533.93 1679.11 1573.42 1703.96 C 1591.29 1715.21 1609.98 1725.53 1627.42 1737.4 C 1637.74 1726.25 1649.44 1718.06 1660.82 1708.26 L 1661.95 1708.07 C 1661.57 1710.59 1632.63 1733.94 1628.58 1737.82 C 1648.22 1751.24 1669.42 1762.23 1690.36 1773.45 C 1741.81 1801.02 1793.34 1825.34 1848.79 1843.93 A 1246.87 1246.87 0 0 0 1908.15 1862.44 C 1922.43 1866.63 1937.35 1870.32 1951.17 1875.85 C 1923.61 1906.71 1854.43 1927.03 1813.99 1929.19 C 1762.87 1931.92 1700.13 1906.82 1657.01 1879.89 L 1656.83 1880.21 L 1658.44 1881.03 L 1657.47 1881.46 L 1713.77 1924.56 C 1722.46 1931.33 1732.35 1937.95 1740.14 1945.69 C 1678.33 1963.29 1632.46 1958.2 1577.01 1927.24 C 1550.4 1912.39 1527.26 1894.26 1502.78 1876.29 L 1499.71 1873.86 A 1210.02 1210.02 0 0 0 1480.88 1857.63 C 1464.84 1857.41 1451.02 1862.49 1436.06 1867.62 C 1406.71 1859.99 1379.04 1858.06 1348.93 1861.47 C 1362.56 1844.09 1374.59 1824.14 1384.21 1804.31 C 1370.78 1809.68 1357.17 1817.11 1345.57 1825.79 C 1338.63 1830.99 1330.3 1841.72 1322.46 1844.58 L 1321.53 1844.54 C 1318.86 1836.37 1357.21 1770.2 1360.85 1756.96 L 1358.91 1756.72 C 1337.83 1763.75 1317.72 1787.28 1306.56 1805.65 C 1306.09 1783.76 1290.05 1757.5 1277.22 1740.52 C 1273.18 1735.17 1260.85 1719.42 1254.43 1718.54 C 1253.15 1720.98 1254.06 1724.02 1254.68 1726.56 C 1257.4 1737.8 1262.05 1749.08 1265.59 1760.12 C 1273.96 1786.18 1282.24 1812.04 1288.44 1838.73 C 1264.45 1804.48 1232.38 1782.41 1195.2 1764.67 C 1186.84 1760.68 1179.58 1756.33 1170.5 1753.9 L 1169.5 1754.99 C 1171.6 1759.28 1192.84 1775.04 1198.35 1779.81 C 1214.17 1793.52 1228.81 1808.42 1243.54 1823.28 C 1251.94 1831.77 1260.95 1840.04 1268.46 1849.35 L 1269.37 1850.49 C 1224.36 1836.38 1176.98 1829.89 1129.95 1828.24 C 1105.93 1827.4 1081.95 1828.01 1057.92 1826.84 C 1055.14 1836.31 1051.67 1845.45 1048.15 1854.66 C 1056.95 1854.16 1065.1 1853.15 1073.52 1850.47 C 1083.57 1847.28 1098.3 1837.93 1108.62 1838.4 C 1112.61 1838.58 1116.57 1840.08 1120.56 1840.51 C 1142.16 1842.84 1158.29 1845.74 1173.96 1862.16 C 1188.69 1877.59 1193.57 1893.7 1193.19 1914.78 C 1190.57 1911.18 1188.27 1907.23 1185.47 1903.78 C 1174.09 1889.78 1153.72 1881.83 1136.66 1890.28 C 1129.77 1893.69 1125.22 1899.25 1117.08 1900.14 C 1107.6 1901.17 1098.14 1898.61 1088.67 1898.56 C 1082.83 1898.53 1076.98 1900.34 1071.27 1901.45 C 1068.7 1901.94 1066.14 1902.4 1063.51 1902.28 C 1054.16 1901.85 1044.31 1898.43 1034.97 1900.35 C 1020.46 1903.32 1005.31 1912.09 991.456 1917.67 C 972.989 1925.1 954.093 1931.4 935.678 1938.92 C 925.302 1943.16 911.862 1950.62 900.642 1951.35 C 893.428 1951.82 885.894 1949.02 878.679 1948.34 C 856.048 1946.2 837.698 1960.27 821.047 1973.65 L 819.751 1973.36 C 818.096 1969.74 817.952 1965.91 817.899 1961.97 C 817.568 1937.02 827.965 1919.76 845.115 1902.45 C 840.095 1900.62 834.912 1899.18 829.575 1898.68 C 808.5 1896.72 787.528 1908.93 771.807 1921.76 C 771.449 1911.39 772.018 1901.93 775.561 1892.07 C 781.832 1874.63 795.287 1857.69 811.965 1849.26 C 817.968 1846.22 824.487 1844.38 830.572 1841.54 C 838.609 1837.8 845.139 1833.14 854.399 1832.78 C 866.221 1832.31 874.964 1837.2 886.113 1839.14 C 892.097 1840.18 898.461 1838.99 904.543 1839.64 C 924.434 1841.78 946.571 1850.28 965.991 1840.64 C 975.373 1835.98 978.076 1828.74 981.072 1819.43 C 946.044 1812.22 909.434 1808.38 873.879 1804.53 C 855.158 1802.51 836.236 1799.78 817.445 1798.73 C 795.435 1797.49 772.641 1799.52 750.871 1797.14 C 781.516 1775.38 814.765 1756.62 848.316 1739.76 C 801.678 1748.86 765.43 1762.23 728.362 1792.97 C 734.634 1757.69 757.355 1731.55 777.425 1703.32 C 756.234 1715.13 734.685 1734.27 720.013 1753.53 C 715.275 1759.75 711.577 1769.71 705.783 1774.61 L 703.637 1776.63 C 700.527 1775.31 692.538 1758.33 689.131 1753.95 C 679.215 1741.21 666.01 1734.02 651.806 1726.95 C 660.312 1741.47 683.509 1779.22 677.999 1796.36 C 677.572 1797.69 677.615 1797.31 676.232 1797.88 C 671.007 1796.63 660.387 1781.73 655.636 1777.68 C 644.02 1767.77 628.964 1761.78 614.757 1756.79 C 632.715 1768.55 646.294 1783.33 659.931 1799.74 C 633.441 1799.4 607.013 1801.03 580.545 1801.89 C 554.936 1802.73 526.393 1801.77 501.363 1807.39 L 490.147 1825.57 C 514.951 1829.34 553.806 1825.97 574.833 1832.55 A 47.6077 47.6077 0 0 1 594.263 1844.24 C 609.097 1858.83 613.597 1878.88 613.803 1898.97 C 602.775 1888.98 590.235 1880.56 576.053 1875.94 C 567.209 1883.48 561.896 1888.52 549.707 1888.69 C 539.327 1888.85 528.597 1886.74 518.323 1885.39 C 499.833 1882.96 481.677 1880.73 462.977 1880.98 C 422.613 1881.52 383.932 1891.65 345.747 1903.98 C 328.751 1909.47 311.844 1915.84 294.396 1919.74 C 287.005 1917.23 279.859 1913.84 272.768 1910.6 C 266.26 1911.98 260.06 1913.56 254.008 1916.36 C 247.44 1919.4 230.412 1933.2 224.865 1932.4 C 224.278 1931.26 223.944 1930.28 223.97 1928.98 C 224.08 1923.34 226.227 1916.92 227.906 1911.58 C 234.473 1890.71 243.917 1873.88 260.065 1858.84 C 245.323 1854.67 229.83 1851.52 214.994 1857.48 C 206.886 1860.73 198.567 1869.7 189.438 1869.05 C 187.777 1868.94 188.243 1868.8 187.005 1867.26 C 186.424 1861.19 189.486 1854.62 192.551 1849.49 C 202.482 1832.86 217.846 1812.49 235.699 1803.84 C 242.801 1800.4 251.073 1798.38 258.708 1796.41 C 266.401 1793.82 273.077 1791.52 281.28 1791.38 C 291.43 1791.21 302.495 1794.15 312.421 1796.13 C 342.725 1802.16 373.026 1811.07 403.115 1816.64 C 422.452 1797.64 436.901 1773.9 450.855 1750.85 C 474.806 1711.3 501.091 1660.96 514.628 1616.61 C 523.192 1588.55 528.118 1559.54 532.433 1530.58 C 534.366 1517.61 539.11 1500.13 536.552 1487.47 C 534.109 1475.37 527.976 1463.02 523.453 1451.53 C 514.035 1427.6 503.975 1403.21 497.829 1378.2 C 488.556 1369.58 478.593 1361.81 469.507 1352.94 A 625.569 625.569 0 0 1 336.083 1167.05 C 309.722 1110.43 290.158 1041.96 288.213 979.42 C 287.793 965.904 287.5 949.989 292.476 937.159 C 295.087 930.431 299.496 924.72 306.252 921.819 C 318.124 916.722 330.03 922.399 341.051 926.811 C 351.882 893.829 361.122 859.097 359.332 824.092 C 357.003 778.547 337.834 743.776 304.598 713.565 C 267.759 722.92 230.395 734.643 193.595 719.603 C 173.984 734.992 180.578 742.228 175.159 759.956 C 173.677 760.132 173.172 760.377 171.696 759.736 C 166.686 757.559 164.309 751.088 162.407 746.332 C 153.197 723.3 148.467 693.647 158.886 670.18 C 167.054 651.782 192.094 637.688 207.067 624.733 C 228.677 606.035 246.843 583.487 269.585 566.129 C 287.709 552.296 309.366 542.071 329.631 531.744 C 360.444 516.043 391.28 500.635 423.242 487.366 C 448.389 476.927 474.158 468.253 499.54 458.452 C 514.954 452.746 531.151 448.261 546.98 443.791 A 690.936 690.936 0 0 1 649.011 419.593 z"/>
<path transform="translate(0,0)" fill="rgb(129,123,129)" d="M 1175.66 1873.12 C 1180.35 1879.19 1182.9 1885.7 1185.45 1892.82 L 1175.9 1884.76 C 1175.81 1879.78 1175.62 1877.14 1172.7 1873 L 1175.66 1873.12 z"/>
<path transform="translate(0,0)" fill="rgb(50,142,145)" d="M 734.35 576.535 L 734.976 575.441 C 740.721 576.237 746.433 578.301 751.887 580.251 C 750.771 583.517 751.191 586.296 751.52 589.645 C 746.307 584.478 741.276 579.358 734.35 576.535 z"/>
<path transform="translate(0,0)" fill="rgb(234,235,224)" d="M 1128.65 1847.67 C 1146.97 1850.36 1163.87 1856.85 1175.17 1872.4 C 1175.34 1872.63 1175.49 1872.88 1175.66 1873.12 L 1172.7 1873 C 1160.9 1859.01 1141.73 1859 1128.65 1847.67 z"/>
<path transform="translate(0,0)" fill="rgb(120,131,135)" d="M 863.555 1898.4 C 870.738 1899.6 875.425 1900.42 880.955 1905.48 C 868.867 1906.72 857.894 1910.62 846.115 1912.47 C 851.405 1906.46 856.702 1902.36 863.555 1898.4 z"/>
<path transform="translate(0,0)" fill="rgb(220,226,159)" d="M 968.846 1848.21 L 969.369 1848.55 C 969.735 1851.31 967.201 1855.42 966.024 1858.07 C 958.511 1861.94 950.613 1864.39 942.502 1866.64 C 941.179 1862.24 940.562 1857.52 939.724 1853 C 949.589 1851.95 959.319 1851.11 968.846 1848.21 z"/>
<path transform="translate(0,0)" fill="rgb(234,235,224)" d="M 781.693 1898.69 C 781.992 1897.77 782.316 1896.85 782.667 1895.94 C 788.445 1881.03 802.814 1861.54 817.91 1855.21 C 822.421 1853.31 826.589 1852.39 831.213 1854.23 C 823.029 1867.66 806.183 1871.32 795.683 1882.41 C 791.798 1886.51 786.315 1896.31 781.693 1898.69 z"/>
<path transform="translate(0,0)" fill="url(#Gradient1)" d="M 220.381 1824.11 C 225.504 1818.37 231.1 1813.68 237.872 1810.03 C 243.125 1807.2 251.171 1803.86 257.188 1806.33 C 261.617 1808.15 262.424 1812.19 263.941 1816.33 L 262.486 1819.86 C 252.906 1823.79 241.967 1821.97 231.97 1826.18 C 228.409 1823.9 224.475 1824.22 220.381 1824.11 z"/>
<path transform="translate(0,0)" fill="rgb(100,187,171)" d="M 279.204 1857.5 L 286.441 1862.41 C 276.322 1870.68 264.775 1878.89 256.008 1888.57 C 252.366 1892.6 239.493 1911.55 235.64 1912.72 A 90.4 90.4 0 0 1 237.236 1907.01 C 244.191 1885.08 258.902 1867.94 279.204 1857.5 z"/>
<path transform="translate(0,0)" fill="rgb(78,162,164)" d="M 676.35 1231.99 C 684.03 1238.42 691.6 1245.31 699.886 1250.95 C 698.28 1266.01 695.092 1280.35 691.096 1294.94 L 687.463 1292.69 L 685.589 1293.48 C 683.24 1289.42 682.05 1287.21 682.161 1282.56 C 682.582 1264.93 681.468 1248.98 676.35 1231.99 z"/>
<path transform="translate(0,0)" fill="rgb(220,226,159)" d="M 896.358 1846.32 C 909.239 1847.88 922.043 1850.69 934.869 1852.72 C 935.877 1856.58 939.516 1863.76 937.968 1867.56 L 934.872 1868 C 923.174 1869.26 911.527 1871.57 899.928 1873.55 C 900.191 1863.71 899.143 1855.75 896.358 1846.32 z"/>
<path transform="translate(0,0)" fill="rgb(77,131,155)" d="M 1231.27 1502.66 C 1251.96 1509 1272.47 1516.34 1293.03 1523.11 C 1285.05 1529.31 1277.09 1535.5 1268.83 1541.34 C 1255.78 1528.98 1244.94 1514.43 1231.27 1502.66 z"/>
<path transform="translate(0,0)" fill="rgb(77,131,155)" d="M 793.163 1347.66 C 798.063 1351.65 805.81 1374.73 809.181 1381.99 A 698.591 698.591 0 0 0 830.599 1423.5 L 809.412 1419 C 796.902 1397.22 793.023 1372.49 793.163 1347.66 z"/>
<path transform="translate(0,0)" fill="rgb(100,104,104)" d="M 1119.37 1845.8 C 1122.55 1846.26 1125.57 1846.76 1128.65 1847.67 C 1141.73 1859 1160.9 1859.01 1172.7 1873 C 1175.62 1877.14 1175.81 1879.78 1175.9 1884.76 C 1172.16 1882.71 1168.07 1880.79 1164.03 1879.42 C 1151.57 1875.19 1141.84 1876.88 1130.3 1882.33 C 1129.39 1868.64 1126.54 1857.57 1119.37 1845.8 z"/>
<path transform="translate(0,0)" fill="rgb(77,131,155)" d="M 719.77 496.138 C 728.502 496.35 744.895 495.129 750.789 502.685 C 752.458 504.824 752.881 506.7 752.459 509.37 C 751.011 518.528 736.66 526.929 729.8 531.784 C 727.422 533.673 725.084 535.192 723.83 538.06 L 725.493 541.091 L 724.422 541.987 C 719.19 540.207 712.728 534.134 707.964 530.875 C 711.04 528.402 714.109 525.996 716.326 522.681 C 721.876 514.38 721.806 505.579 719.77 496.138 z"/>
<path transform="translate(0,0)" fill="rgb(120,131,135)" d="M 556.336 1837.27 C 565.885 1837.88 573.657 1838.81 581.973 1844.12 C 596.885 1853.64 603.325 1868.96 607.115 1885.46 L 595.877 1876.62 C 590.338 1872.92 583.611 1868.36 576.703 1868.57 C 569.124 1868.79 563.704 1874.93 558.715 1879.91 L 557.376 1879.73 C 561.49 1862.61 565.307 1855.84 556.989 1838.6 L 556.336 1837.27 z"/>
<path transform="translate(0,0)" fill="rgb(78,162,164)" d="M 751.887 580.251 C 768.032 586.537 786.881 592.543 800.893 602.852 C 773.81 611.229 743.524 612.562 715.258 611.855 C 724.09 608.523 746.561 601.219 750.745 592.266 C 751.162 591.372 751.3 590.586 751.52 589.645 C 751.191 586.296 750.771 583.517 751.887 580.251 z"/>
<path transform="translate(0,0)" fill="rgb(77,131,155)" d="M 263.941 1816.33 C 263.473 1824.77 261.212 1839.66 255.158 1846.06 C 254.201 1847.07 254.079 1847.05 253.037 1847.64 C 248.204 1847.08 243.413 1845.84 238.561 1845.59 C 224.31 1844.86 207.761 1850.02 196.275 1858.42 C 197.797 1855.45 199.168 1852.13 201.362 1849.62 C 206.211 1840.1 213.462 1832.16 220.381 1824.11 C 224.475 1824.22 228.409 1823.9 231.97 1826.18 C 241.967 1821.97 252.906 1823.79 262.486 1819.86 L 263.941 1816.33 z"/>
<path transform="translate(0,0)" fill="rgb(100,187,171)" d="M 220.381 1824.11 C 224.475 1824.22 228.409 1823.9 231.97 1826.18 C 222.622 1831.6 209.81 1847.39 202.531 1850.23 L 201.362 1849.62 C 206.211 1840.1 213.462 1832.16 220.381 1824.11 z"/>
<path transform="translate(0,0)" fill="rgb(77,131,155)" d="M 601.195 439.252 C 601.588 439.563 601.974 439.882 602.373 440.184 C 608.363 444.723 628.899 449.547 630.044 455.132 C 631.361 461.555 625.562 470.111 622.808 475.837 L 610.969 480.023 C 601.362 476.654 591.631 472.691 581.837 469.957 C 584.261 458.843 595.158 448.837 601.195 439.252 z"/>
<path transform="translate(0,0)" fill="rgb(100,104,104)" d="M 831.213 1854.23 C 834.098 1853.28 834.602 1853.16 837.552 1853.8 C 840.214 1855.85 841.14 1857.96 841.645 1861.2 C 843.179 1871.02 840.201 1882.76 837.657 1892.24 C 815.257 1888.04 799.733 1893.49 781.391 1905.91 L 780.079 1905.52 C 779.744 1902.85 780.67 1901.07 781.693 1898.69 C 786.315 1896.31 791.798 1886.51 795.683 1882.41 C 806.183 1871.32 823.029 1867.66 831.213 1854.23 z"/>
<path transform="translate(0,0)" fill="rgb(78,162,164)" d="M 701.735 566.529 C 712.756 569.069 723.854 572.324 734.35 576.535 C 739.121 580.856 743.586 585.241 747.902 590.016 C 734.054 601.959 717.944 611.224 699.295 611.748 C 699.143 606.907 701.093 601.5 702.001 596.712 C 703.989 586.222 703.276 577.002 701.735 566.529 z"/>
<path transform="translate(0,0)" fill="rgb(77,131,155)" d="M 286.441 1862.41 C 293.214 1872.01 294.245 1881.51 292.36 1892.94 C 291.505 1898.11 290.071 1903.41 288.388 1908.38 C 278.559 1903.03 271.049 1901.97 259.989 1905.35 C 252.346 1907.68 240.097 1916.98 234.443 1917.59 C 234.407 1915.6 234.81 1914.51 235.64 1912.72 C 239.493 1911.55 252.366 1892.6 256.008 1888.57 C 264.775 1878.89 276.322 1870.68 286.441 1862.41 z"/>
<path transform="translate(0,0)" fill="rgb(129,123,129)" d="M 353.675 687.373 C 355.037 687.02 356.308 687.066 357.708 687.035 L 357.097 688.011 C 336.004 699.47 266.089 716.888 241.629 719.36 C 230.967 720.437 220.719 719.719 210.084 718.66 C 208.119 718.446 206.255 717.989 204.335 717.532 C 216.626 708.346 332.197 690.289 353.675 687.373 z"/>
<path transform="translate(0,0)" fill="rgb(78,162,164)" d="M 752.01 498.207 C 774.425 500.294 796.99 507.957 818.251 515.084 C 805.231 521.173 791.462 525.322 777.754 529.539 C 760.833 534.164 741.587 539.773 724.022 540.854 C 733.916 531.694 747.323 526.388 755.192 514.998 C 757.497 511.663 759.172 507.492 757.901 503.407 C 756.861 500.064 754.845 499.683 752.01 498.207 z"/>
<path transform="translate(0,0)" fill="rgb(220,226,159)" d="M 284.488 1799.35 C 288.429 1799.43 291.91 1800.14 295.025 1802.74 C 305.259 1811.3 300.208 1830.86 301.571 1842.52 C 301.609 1842.84 301.656 1843.16 301.698 1843.48 C 291.331 1844.87 282.836 1846.3 273.449 1851.1 C 269.448 1852.44 263.725 1850.49 259.7 1849.65 C 263.437 1843.54 266.63 1837.43 268.522 1830.51 C 271.362 1820.12 270.286 1811.97 264.938 1802.75 C 271.44 1801.34 277.898 1800.26 284.488 1799.35 z"/>
<path transform="translate(0,0)" fill="rgb(220,226,159)" d="M 852.714 1842.35 C 865.085 1841.82 877.745 1845.81 889.879 1847.93 C 891.291 1853.19 893.151 1860.79 892.373 1866.27 C 891.015 1875.83 875.078 1879.38 866.327 1885.87 C 861.284 1889.83 854.027 1897.22 847.194 1896.59 C 845.86 1895.01 845.575 1894.67 845.704 1892.46 C 846.33 1881.84 851.708 1875.5 850.068 1863 C 849.172 1856.16 846.357 1851.5 840.78 1847.53 C 840.515 1847.34 840.235 1847.17 839.963 1846.99 C 842.137 1843.85 849.103 1843.09 852.714 1842.35 z"/>
<path transform="translate(0,0)" fill="rgb(100,104,104)" d="M 880.955 1905.48 C 886.44 1915.5 884.525 1928.93 884.126 1940.02 C 862.647 1939.65 844.831 1943.38 828.876 1958.71 A 334.174 334.174 0 0 0 823.306 1964.26 C 826.721 1942.59 831.102 1928.64 846.115 1912.47 C 857.894 1910.62 868.867 1906.72 880.955 1905.48 z"/>
<path transform="translate(0,0)" fill="rgb(220,226,159)" d="M 301.936 1802.16 C 314.879 1804.98 327.816 1807.97 340.868 1810.24 C 359.063 1814.45 377.072 1818.82 394.793 1824.77 C 379.178 1834.11 364.436 1834.96 347.092 1838.35 C 346.003 1829.27 345.234 1818.87 337.721 1812.58 C 337.51 1812.41 337.284 1812.25 337.066 1812.08 C 336.366 1819.8 340.968 1831 342.499 1838.94 C 329.927 1841.11 317.292 1842.18 304.593 1843.26 C 307.53 1827.53 307.991 1817.34 301.936 1802.16 z"/>
<path transform="translate(0,0)" fill="rgb(78,162,164)" d="M 669.593 424.396 C 684.005 422.941 698.538 423.125 712.789 425.756 A 277.24 277.24 0 0 1 637.247 470.336 L 628.406 473.432 C 631.815 467.497 637.137 460.396 634.888 453.174 C 632.18 444.48 611.848 439.897 604.051 435.392 L 602.796 434.656 A 532.281 532.281 0 0 1 669.593 424.396 z"/>
<path transform="translate(0,0)" fill="rgb(220,226,159)" d="M 1044.48 1663.64 C 1050.59 1666.69 1056.69 1672.48 1062.25 1676.61 C 1070.55 1682.76 1078.96 1688.38 1087.89 1693.57 C 1080.89 1719.16 1074.97 1745.24 1067.2 1770.59 C 1063.38 1760.11 1059.97 1746.56 1052.99 1737.83 C 1043.99 1726.58 1023.26 1719.07 1009.23 1717.84 C 1007.23 1715.24 1008.83 1685.75 1008.82 1679.54 L 1009.45 1680.07 C 1009.81 1680.37 1010.17 1680.65 1010.52 1680.95 C 1017.31 1686.64 1024.01 1690.14 1031.8 1694.26 C 1054.3 1706.17 1059.18 1713.61 1072.55 1734.37 L 1074.04 1734.07 L 1072.19 1735.99 L 1073.54 1735.51 L 1074.38 1735.71 L 1075.69 1733.45 C 1075.41 1719.97 1057.3 1707.91 1049.68 1698.59 C 1051.99 1697.04 1053.5 1696.04 1054.82 1693.47 C 1055.5 1683.87 1049.15 1671.72 1044.48 1663.64 z"/>
<path transform="translate(0,0)" fill="rgb(77,131,155)" d="M 1358.88 1557.88 C 1371.9 1568.44 1385.51 1578.22 1398.2 1589.21 C 1396.8 1593.19 1395.72 1597.16 1394.74 1601.26 C 1392.69 1614.32 1380 1635.43 1370.87 1645.22 A 1928.46 1928.46 0 0 1 1326.93 1601.34 C 1339.09 1587.51 1349.62 1573.82 1358.88 1557.88 z"/>
<path transform="translate(0,0)" fill="rgb(100,187,171)" d="M 1293.03 1523.11 C 1327.66 1531.03 1330.65 1535.87 1357.52 1556.64 C 1350.06 1572 1338.22 1588.25 1325.66 1599.82 A 2642.79 2642.79 0 0 1 1268.83 1541.34 C 1277.09 1535.5 1285.05 1529.31 1293.03 1523.11 z"/>
<path transform="translate(0,0)" fill="rgb(77,131,155)" d="M 449.421 1015.69 L 450.318 1015.86 C 454.492 1019.04 463.409 1042.26 466.344 1048.46 A 207.761 207.761 0 0 0 463.194 1049.89 C 430.108 1065.25 402.378 1093.65 389.933 1127.88 C 389.157 1130.42 388.693 1132.97 387.029 1135.08 C 380.595 1124.75 374.936 1101.11 377.066 1089.17 C 381.872 1062.24 427.741 1030.85 449.421 1015.69 z"/>
<path transform="translate(0,0)" fill="rgb(77,131,155)" d="M 1453.11 1633.26 C 1465.39 1642.01 1487.58 1655.06 1497.17 1665.3 C 1493.88 1673.87 1474.39 1716.74 1468.65 1720.33 C 1466.34 1722.5 1464.42 1725.34 1462.45 1727.83 C 1448.7 1716.19 1434.74 1704.62 1421.67 1692.2 C 1423.46 1689.24 1425.03 1686.1 1426.68 1683.06 C 1434.68 1677.37 1449.03 1643.73 1453.11 1633.26 z"/>
<path transform="translate(0,0)" fill="rgb(77,131,155)" d="M 1379.26 1666.92 C 1394.69 1680.97 1410.51 1694.59 1425.56 1709.05 C 1420.45 1723.01 1405.85 1747.14 1398.38 1761.68 C 1396.19 1761.28 1394.85 1759.44 1393.22 1757.95 A 1060.58 1060.58 0 0 1 1341.2 1700.67 C 1355.64 1690.68 1367.29 1679.67 1379.26 1666.92 z"/>
<path transform="translate(0,0)" fill="rgb(100,187,171)" d="M 1399.76 1590.59 C 1416.57 1605.37 1433.92 1619.08 1451.72 1632.65 C 1449.07 1639.92 1446.06 1646.88 1442.55 1653.79 C 1439.16 1660.45 1427.79 1677.28 1426.68 1683.06 C 1424.41 1685.3 1422.37 1687.92 1420.26 1690.32 C 1403 1676.42 1386.82 1660.6 1370.87 1645.22 C 1380 1635.43 1392.69 1614.32 1394.74 1601.26 A 350.579 350.579 0 0 0 1399.76 1590.59 z"/>
<path transform="translate(0,0)" fill="rgb(255,242,101)" d="M 399.53 581.346 L 401.854 581.379 C 402.01 581.643 402.205 581.888 402.322 582.171 C 404.948 588.493 399.708 607.665 396.892 613.858 C 390.487 627.948 380.224 640.958 365.28 646.396 C 348.356 652.555 331.104 648.781 315.354 641.405 A 69.183 69.183 0 0 1 312.365 639.617 C 308.571 637.195 304.143 634.297 303.576 629.426 C 303.242 626.56 304.298 623.873 305.948 621.594 C 309.489 616.703 315.133 613.285 320.067 609.974 C 344.914 593.3 370.127 585.831 399.53 581.346 z"/>
<path transform="translate(0,0)" fill="rgb(0,0,0)" d="M 347.164 596.442 C 349.022 596.859 351.181 597.417 352.801 598.419 C 355.15 599.872 356.833 602.591 357.619 605.199 C 360.156 613.619 356.024 623.291 352.042 630.592 L 349.625 632.489 L 347.905 631.884 C 347.306 630.793 346.781 629.853 346.483 628.631 C 344.529 620.632 343.074 603.584 347.164 596.442 z"/>
<path transform="translate(0,0)" fill="rgb(77,131,155)" d="M 1554.48 1702.87 C 1570.88 1713.41 1587.91 1722.99 1604.07 1733.9 C 1591.04 1757.68 1573.08 1782.02 1555.48 1802.63 C 1540.38 1792.97 1524.74 1780.77 1511.32 1768.89 C 1515.81 1764.44 1520.91 1754.65 1526.14 1751.78 C 1538.83 1741.64 1548.97 1717.82 1554.48 1702.87 z"/>
<path transform="translate(0,0)" fill="rgb(100,187,171)" d="M 1497.17 1665.3 C 1514.6 1675.49 1536.58 1690 1552.94 1701.71 C 1548.29 1719.62 1536.36 1736.58 1526.14 1751.78 C 1520.91 1754.65 1515.81 1764.44 1511.32 1768.89 C 1494.99 1757.23 1479.42 1742.57 1463.96 1729.72 L 1468.65 1720.33 C 1474.39 1716.74 1493.88 1673.87 1497.17 1665.3 z"/>
<path transform="translate(0,0)" fill="rgb(77,131,155)" d="M 506.103 1120.55 C 506.131 1120.57 535.032 1146.01 539.684 1149.88 C 532.467 1157.17 524.238 1163.47 517.048 1170.85 C 496.384 1192.07 480.663 1221.22 474.204 1250.1 A 900.132 900.132 0 0 1 472.234 1260.44 C 463.607 1252.27 455.682 1243.76 448.34 1234.42 C 448.264 1231.28 448.197 1228.13 448.319 1225 C 450 1181.78 475.581 1148.77 506.103 1120.55 z"/>
<path transform="translate(0,0)" fill="rgb(77,131,155)" d="M 581.552 1210.47 C 589.835 1215.81 608.071 1238.48 617.425 1247.02 C 609.059 1267.17 601.469 1287.13 597.054 1308.59 C 595.373 1316.76 595.611 1338.76 592.788 1343.75 L 590.5 1342.95 C 577.187 1335.86 564.203 1327.89 551.55 1319.69 C 546.71 1280.69 562.732 1243.72 581.552 1210.47 z"/>
<path transform="translate(0,0)" fill="rgb(77,131,155)" d="M 702.395 1252.47 C 712.77 1258.9 723.053 1266.18 732.564 1273.82 C 732.334 1274.54 731.932 1276.27 731.531 1276.88 L 730.652 1274.53 C 728.76 1281.05 728.814 1288.57 728.386 1295.35 C 726.075 1332.01 729.431 1366.67 736.983 1402.56 A 1056.95 1056.95 0 0 1 680.992 1384.25 C 680.462 1362.73 682.72 1340.24 687.184 1319.19 C 691.942 1296.74 698.749 1275.23 702.395 1252.47 z"/>
<path transform="translate(0,0)" fill="rgb(100,187,171)" d="M 1427.02 1710.58 C 1437.85 1719.41 1488.45 1760.37 1493.86 1767.88 L 1492.16 1772.36 C 1483.22 1788.04 1469.75 1808.62 1463.15 1824.84 L 1461.85 1825.77 C 1457.79 1825.06 1407.15 1773.69 1399.78 1765.94 C 1405.75 1746.8 1417.47 1728.22 1427.02 1710.58 z"/>
<path transform="translate(0,0)" fill="rgb(100,187,171)" d="M 1555.13 1814.12 C 1563.19 1820.2 1618.69 1857.93 1620.5 1862.31 L 1619.28 1867.32 C 1608.08 1882.59 1598.36 1905.55 1587.36 1922.51 C 1567.29 1913.9 1545.18 1896.76 1527.91 1883.3 C 1530.55 1872.04 1535.97 1860.97 1540.44 1850.32 C 1546.92 1839.31 1550.38 1825.96 1555.13 1814.12 z"/>
<path transform="translate(0,0)" fill="rgb(77,131,155)" d="M 1619.28 1867.32 A 150.649 150.649 0 0 0 1622.69 1863.31 C 1629.78 1865.82 1657.03 1891.15 1665.5 1897.87 C 1684.12 1912.66 1703.28 1926.79 1721.85 1941.67 C 1677.38 1953.03 1628.91 1947.59 1589.42 1923.82 C 1588.72 1923.4 1588.03 1922.96 1587.36 1922.51 C 1598.36 1905.55 1608.08 1882.59 1619.28 1867.32 z"/>
<path transform="translate(0,0)" fill="rgb(77,131,155)" d="M 1660.36 1768.74 C 1672.15 1772.73 1703.76 1789.76 1714.51 1796.98 C 1714.86 1797.7 1715.61 1798.98 1715.79 1799.74 C 1715.03 1806.57 1710.67 1814.73 1706.46 1820.12 C 1705.2 1820.8 1669.73 1867.91 1664 1874.05 C 1647.23 1864.83 1629.09 1855.74 1614.06 1843.81 C 1617.85 1836.37 1625.17 1830.21 1629.97 1823.25 A 342.343 342.343 0 0 0 1660.36 1768.74 z"/>
<path transform="translate(0,0)" fill="rgb(77,131,155)" d="M 1492.16 1772.36 L 1493.6 1771.77 L 1495.02 1768.97 C 1498.19 1768.98 1548.51 1808.03 1555.13 1814.12 C 1550.38 1825.96 1546.92 1839.31 1540.44 1850.32 C 1535.69 1853.43 1528.7 1875.86 1526.14 1882.2 C 1505.48 1866.42 1483.06 1849.53 1465.33 1830.49 C 1463.39 1828.4 1462.98 1827.66 1463.15 1824.84 C 1469.75 1808.62 1483.22 1788.04 1492.16 1772.36 z"/>
<path transform="translate(0,0)" fill="rgb(100,187,171)" d="M 1604.07 1733.9 C 1615.88 1740.77 1627.32 1748.27 1638.98 1755.41 C 1645.76 1759.56 1654.45 1763.49 1660.36 1768.74 A 342.343 342.343 0 0 1 1629.97 1823.25 C 1625.17 1830.21 1617.85 1836.37 1614.06 1843.81 A 1661.62 1661.62 0 0 1 1555.48 1802.63 C 1573.08 1782.02 1591.04 1757.68 1604.07 1733.9 z"/>
<path transform="translate(0,0)" fill="rgb(100,187,171)" d="M 519.42 552.345 C 540.073 551.674 561.14 552.867 581.827 553.056 C 602.336 553.244 623.663 552.199 644.035 554.629 C 662.714 556.856 681.679 561.913 699.989 566.259 C 701.52 581.629 700.866 592.758 696.887 607.768 L 696.388 610.223 C 695.474 610.676 695.267 610.847 694.113 611.022 C 679.441 613.241 581.995 593.32 568.69 586.716 C 560.233 582.519 552.566 575.443 545.055 569.736 A 262.568 262.568 0 0 0 519.42 552.345 z"/>
<path transform="translate(0,0)" fill="rgb(100,187,171)" d="M 732.564 1273.82 C 744.65 1279.85 756.189 1288.27 767.65 1295.48 C 774.588 1311.03 785.814 1326.54 790.474 1342.73 C 792.045 1348.18 790.747 1355.52 791.041 1361.26 C 792.063 1381.23 796.871 1401.19 806.125 1418.95 C 784.011 1413.69 761.632 1409.2 739.685 1403.3 C 728.825 1362.95 727.992 1318.27 731.531 1276.88 C 731.932 1276.27 732.334 1274.54 732.564 1273.82 z"/>
<path transform="translate(0,0)" fill="rgb(100,187,171)" d="M 1715.79 1799.74 C 1717.84 1798.88 1716.98 1798.76 1718.53 1799.41 C 1726.77 1802.85 1734.51 1807.45 1742.58 1811.28 C 1760.35 1819.71 1778.55 1827.94 1796.82 1835.23 C 1779.49 1857.43 1758.16 1877.95 1743.22 1901.81 C 1741.43 1902.97 1740.82 1903.66 1739.92 1905.59 C 1738.95 1906.5 1738.81 1906.99 1737.67 1907.21 C 1728.46 1908.93 1676.09 1880.66 1665.87 1874.89 C 1678.44 1856.34 1697.01 1840.85 1706.46 1820.12 C 1710.67 1814.73 1715.03 1806.57 1715.79 1799.74 z"/>
<path transform="translate(0,0)" fill="rgb(100,187,171)" d="M 618.781 1249.66 A 343.794 343.794 0 0 1 627.503 1256.79 C 639.585 1266.88 669.897 1294.89 685.589 1293.48 L 687.463 1292.69 L 691.096 1294.94 C 682.386 1323.67 678.383 1353.12 678.053 1383.11 C 650.103 1372.74 622.11 1360.27 595.923 1345.98 C 597.4 1311.44 605.367 1281.3 618.781 1249.66 z"/>
<path transform="translate(0,0)" fill="rgb(120,131,135)" d="M 239.077 604.765 C 249.833 618.815 261.489 649.71 268.756 666.97 C 284.727 673.887 300.707 680.035 317.252 685.448 C 281.881 695.419 216.62 697.652 187 717.043 C 177.325 723.377 173.422 730.841 171.231 741.83 C 170.907 743.537 171.271 742.81 170.216 744.048 C 169.956 743.701 169.687 743.361 169.436 743.008 C 161.102 731.289 158.752 700.602 161.354 686.424 C 164.383 669.92 175.403 658.967 188.637 649.908 C 194.318 652.406 200.799 654.44 206.126 657.541 C 214.653 662.504 223.208 671.594 233.312 673.192 L 234.033 670.8 C 223.617 656.641 209.358 649.976 192.502 647.327 C 209.165 633.776 223.835 619.852 239.077 604.765 z"/>
<path transform="translate(0,0)" fill="rgb(100,187,171)" d="M 428.213 950.965 C 429.955 950.939 430.789 951.074 432.413 951.532 C 437.834 972.467 443.229 992.511 450.227 1013.04 C 431.815 1023.04 412.399 1038.5 397.575 1053.2 C 374.271 1076.3 364.81 1095.98 364.709 1128.75 C 364.939 1132.24 364.959 1135.36 364.528 1138.83 C 364.199 1138.45 363.785 1138.13 363.541 1137.69 C 360.914 1132.95 359.914 1123.53 358.591 1118.04 C 347.858 1073.5 346.989 1024.04 361.323 980.138 C 375.525 976.569 387.582 968.58 400.587 962.196 C 409.547 957.797 418.834 954.335 428.213 950.965 z"/>
<path transform="translate(0,0)" fill="rgb(77,131,155)" d="M 1798 1835.84 C 1843.13 1852.31 1888.31 1866.13 1934.61 1878.92 C 1878.25 1912.72 1826.53 1931.26 1760.6 1914.79 C 1755.13 1913.42 1743.8 1911.69 1740.21 1907.58 L 1739.92 1905.59 C 1740.82 1903.66 1741.43 1902.97 1743.22 1901.81 C 1752.9 1893.39 1761.15 1880.96 1769.32 1870.96 C 1778.88 1859.26 1789.08 1848.04 1798 1835.84 z"/>
<path transform="translate(0,0)" fill="rgb(100,187,171)" d="M 539.165 1153.67 C 543.676 1156.23 552.005 1171.56 555.848 1176.94 C 563.432 1187.54 571.707 1197.7 579.979 1207.77 C 560.587 1244.36 545.407 1276.29 549.298 1318.91 L 531.067 1306.5 C 511.878 1293.39 492.502 1278.15 475.525 1262.25 C 478.843 1215.91 507.151 1184.01 539.165 1153.67 z"/>
<path transform="translate(0,0)" fill="rgb(100,187,171)" d="M 672.784 496.428 C 681.957 495.55 706.958 494.264 715.327 496.775 C 716.879 497.241 716.521 496.877 717.207 498.334 C 719.406 503.009 718.3 513.309 716.186 517.939 C 713.359 524.135 708.496 526.876 702.363 529.123 C 707.11 534.003 712.444 537.854 717.921 541.86 C 688.613 546.24 657.544 545.681 627.919 546.241 C 589.247 546.971 550.643 548.033 511.974 546.71 C 501.536 545.229 490.515 539.934 480.513 536.498 C 470.66 533.113 460.758 530.728 450.543 528.718 C 488.76 516.806 528.946 511.183 568.531 506.281 C 603.406 501.963 637.682 498.277 672.784 496.428 z"/>
<path transform="translate(0,0)" fill="rgb(100,187,171)" d="M 466.119 1050.81 C 469.265 1052.15 472.755 1061.52 474.294 1064.58 C 483.603 1083.1 493.155 1101.07 505.461 1117.81 C 502.434 1120.27 499.415 1122.75 496.568 1125.42 C 465.104 1154.93 447.3 1188.36 445.645 1231.65 L 438.016 1222.36 C 417.684 1197.29 399.487 1168.34 388.045 1138.14 C 388.307 1137.28 388.576 1136.42 388.867 1135.57 C 401.632 1098.25 431.102 1068.26 466.119 1050.81 z"/>
<path transform="translate(0,0)" fill="rgb(100,187,171)" d="M 1161.47 1480.52 C 1176.11 1485.42 1205.81 1492.98 1217.73 1500.51 C 1232.59 1509.89 1257.62 1542.46 1271.22 1556.86 A 2759.82 2759.82 0 0 0 1378.12 1665.52 L 1362.09 1682.04 C 1355.16 1688.28 1347.89 1693.83 1340.42 1699.39 C 1302.85 1660.51 1269.62 1617.35 1236.08 1575.04 C 1211.12 1543.55 1185.42 1512.83 1161.47 1480.52 z"/>
<path transform="translate(0,0)" fill="rgb(77,131,155)" d="M 308.44 927.166 C 320.248 926.415 328.813 930.343 339.575 934.602 C 333.999 951.964 329.522 970.073 327.053 988.153 C 326.507 992.156 325.395 997.238 328.012 1000.67 L 330.351 1000.96 C 340.491 995.819 348.845 981.84 354.769 972.505 A 672.45 672.45 0 0 0 348.478 995.217 C 331.097 1063.76 345.833 1129.8 381.333 1189.69 C 373.751 1163.25 371.535 1142.47 373.592 1115.1 C 385.676 1173.49 428.56 1229.02 471.074 1269.3 C 473.758 1277.31 474.548 1287.76 476.434 1296.25 C 481.504 1319.05 486.892 1341.58 493.671 1363.95 C 479.856 1350.59 465.549 1337.46 452.535 1323.33 C 386.635 1251.77 340.061 1173.07 313.357 1079.36 C 302.423 1041 295.125 1001.3 297.015 961.23 C 297.579 949.275 299.105 935.618 308.44 927.166 z"/>
<path transform="translate(0,0)" fill="rgb(220,226,159)" d="M 1007.29 1722.23 C 1022.27 1724.83 1034.39 1732.03 1048.37 1737.36 C 1054.96 1749.78 1059.94 1763.22 1065.16 1776.27 C 1060.43 1794.46 1054.81 1812.54 1049.03 1830.43 C 1045.62 1841 1041.51 1851.46 1038.98 1862.28 C 1043.51 1865.14 1046.52 1867.5 1047.79 1872.91 C 1048.99 1878.03 1048.56 1884.4 1048.85 1889.75 C 1051.34 1880.78 1053.22 1872.89 1049.33 1863.93 C 1049.13 1863.47 1048.93 1862.99 1048.73 1862.52 C 1048.6 1862.23 1048.46 1861.94 1048.33 1861.65 C 1060.13 1860.68 1071.1 1858.81 1082.64 1856.23 C 1083.49 1863.92 1084.05 1871.78 1086.28 1879.21 L 1088.08 1879.74 C 1088.07 1880.31 1087.32 1880.6 1086.93 1881.02 L 1087.52 1881.82 C 1089.75 1874.21 1088.11 1863.19 1088.65 1854.95 C 1094.94 1851.02 1101.17 1846.81 1108.07 1844.03 C 1118.22 1853.92 1123.78 1872.51 1124.03 1886.52 C 1124.07 1889.02 1123.65 1889.95 1122.46 1892.03 C 1112.88 1897.48 1097.09 1892.71 1086.98 1890.07 C 1062.56 1898.27 1051.39 1889.91 1030.5 1893.66 C 1014.53 1896.53 997.988 1906.72 982.659 1912.54 L 940.193 1928.2 C 931.651 1931.8 903.389 1945.34 894.916 1942.94 C 894.786 1942.9 892.621 1942.17 892.413 1941.73 C 890.439 1937.55 896.792 1916.6 888.764 1903.33 C 884.514 1896.31 878.992 1894.18 871.294 1892.53 C 873.294 1890.84 875.343 1889.13 877.49 1887.63 C 885.094 1882.33 901.369 1880.02 910.259 1881.7 C 934.815 1886.35 930.851 1918.92 937.024 1926.35 C 937.253 1926.62 937.557 1926.82 937.824 1927.06 C 940.255 1920.26 940.279 1912.18 938.482 1905.24 C 935.068 1892.03 926.541 1885.31 915.364 1878.88 C 928.057 1876.96 943.984 1871.99 956.491 1875.68 C 975.154 1881.18 973.023 1895.63 981.054 1908.84 C 981.368 1909.35 981.698 1909.86 982.021 1910.37 C 984.293 1903.4 983.546 1896.62 980.118 1890.09 C 974.409 1879.23 963.973 1873.88 952.849 1870.21 C 956.966 1868.65 961.343 1867.18 965.206 1865.07 C 976.424 1858.93 981.166 1851.46 994.843 1857.41 C 1001.33 1860.22 1007.86 1865.62 1010.21 1872.5 C 1012.12 1878.08 1011.59 1887.47 1016.51 1891.12 L 1017.8 1890.19 C 1019.04 1881.26 1017.37 1869.59 1011.66 1862.41 C 1004.32 1853.19 992.33 1851.55 981.366 1850.61 L 980.477 1850.55 C 995.397 1818.64 1006.61 1757.31 1007.29 1722.23 z"/>
<path transform="translate(0,0)" fill="rgb(0,0,0)" d="M 993.934 1815.42 C 994.898 1815.26 995.867 1815.13 996.84 1815.05 C 1007.97 1814.13 1018.11 1817.05 1026.61 1824.51 C 1031.92 1829.16 1036.77 1836.07 1037.21 1843.23 C 1027.79 1838.21 1023.66 1825.73 1013.15 1821.96 C 1008.26 1820.22 1002.85 1819.92 997.862 1818.48 C 995.271 1817.73 995.223 1817.67 993.934 1815.42 z"/>
<path transform="translate(0,0)" fill="rgb(0,0,0)" d="M 1010.47 1765.33 C 1018.21 1764.26 1023.04 1765.06 1029.35 1769.94 C 1040.08 1778.22 1050.95 1798.99 1052.67 1812.4 L 1051.47 1813.16 L 1049.05 1811.65 C 1041.64 1800.78 1037.92 1784.28 1028.03 1775.6 C 1022.54 1770.77 1007.37 1772.62 1004.02 1768.09 C 1006 1765.94 1007.67 1766 1010.47 1765.33 z"/>
<path transform="translate(0,0)" fill="rgb(220,226,159)" d="M 525.171 1641.03 C 543.829 1628.52 561.328 1616.79 574.967 1598.49 C 574.638 1620.11 577.259 1635.25 587.415 1654.44 C 574.484 1672.78 563.597 1692.45 551.487 1711.33 C 548.241 1716.39 544.84 1723.13 540.729 1727.46 C 535.018 1738.48 527.177 1749.07 520.512 1759.61 C 504.811 1784.43 488.691 1809.25 474.716 1835.1 C 480.035 1834.83 485.439 1834.38 490.762 1834.38 C 496.116 1834.38 502.041 1835.5 505.794 1839.66 C 513.138 1847.8 510.093 1863.82 509.164 1873.9 C 511.933 1869.34 515.043 1864.7 516.262 1859.44 C 518.429 1850.09 514.911 1843.46 509.964 1835.88 A 772.321 772.321 0 0 1 547.998 1837.67 C 549.643 1840.32 551.116 1842.95 552.187 1845.9 C 555.085 1853.87 556.755 1867.44 552.825 1875.16 C 551.991 1876.79 550.339 1879.43 548.334 1879.63 C 537.27 1880.7 523.122 1876.87 512.092 1875.36 C 497.842 1873.4 483.364 1872.05 468.977 1872.13 C 405.481 1872.47 353.155 1893.63 293.813 1911.96 C 296.017 1906.76 298.014 1901.54 299.211 1896.01 C 302.691 1879.94 297.274 1868.05 288.866 1854.9 C 299.423 1852.42 309.732 1850.15 320.611 1849.92 C 334.71 1861.24 339.069 1875.05 343.375 1891.86 C 343.966 1888.13 344.597 1884.25 344.462 1880.45 C 343.965 1866.44 336.868 1857.38 326.836 1848.51 C 339.534 1847.38 351.857 1843.49 364.582 1842.86 C 381.083 1854.88 375.836 1862.41 379.693 1879.2 L 381.209 1879.19 C 383.949 1874.55 384.013 1867.57 383.479 1862.33 C 382.506 1852.79 377.089 1846.77 370.141 1840.83 C 380.72 1838.97 389.671 1834.7 399.28 1830.17 C 403.932 1833.27 408.888 1836.38 413.076 1840.09 C 423.983 1849.76 423.225 1857.83 423.994 1871.22 L 423.032 1870.64 L 425.044 1870.68 L 425.927 1871.18 C 426.425 1870.44 426.574 1870.29 426.926 1869.32 C 429.264 1862.92 429.139 1854.38 426.38 1848.16 C 421.75 1837.72 412.427 1832.54 402.414 1828.4 C 416.324 1816.72 427.061 1800.97 437.434 1786.19 C 469.652 1790.85 462.697 1811.04 473.306 1816.1 L 474.234 1814.4 C 473.712 1805.84 469.756 1797.86 463.694 1791.82 C 456.281 1784.43 449.017 1783.77 439.132 1783.98 C 446.524 1772.18 454.106 1760.44 461.127 1748.41 C 466.272 1739.6 470.782 1729.7 477.094 1721.7 C 478.278 1721.43 479.415 1721.15 480.639 1721.16 C 498.576 1721.31 504.698 1739.49 515.951 1749.38 C 516.195 1749.6 516.447 1749.8 516.695 1750.01 C 514.682 1741.36 511.944 1732.6 505.341 1726.26 C 497.916 1719.14 488.84 1717.74 479.029 1717.77 C 484.898 1707.02 488.833 1695.22 495.209 1684.78 A 1095.86 1095.86 0 0 1 510.739 1648.44 C 515.809 1646.97 520.89 1645.36 526.005 1644.06 C 534.285 1646.92 542.498 1650.11 548.885 1656.35 C 552.882 1660.26 559.116 1677.36 562.011 1678.58 C 563.523 1675.49 562.428 1670.84 561.43 1667.68 C 558.19 1657.4 548.951 1650.1 539.574 1645.54 C 534.903 1643.27 530.203 1642.12 525.171 1641.03 z"/>
<path transform="translate(0,0)" fill="rgb(0,0,0)" d="M 427.364 1811.12 C 431.461 1810.85 435.055 1811.02 438.686 1813.15 C 444.384 1816.51 448.278 1821.63 450.128 1827.88 L 449.303 1829.1 L 447.479 1829.41 C 439.926 1818.58 434.768 1816.94 422.859 1812.43 C 424.308 1811.9 425.877 1811.55 427.364 1811.12 z"/>
<path transform="translate(0,0)" fill="rgb(0,0,0)" d="M 457.451 1835.75 C 458.502 1836.06 459.558 1836.41 460.552 1836.88 C 464.107 1838.56 467.018 1842.35 468.117 1846.09 C 470.414 1853.9 466.982 1860.77 463.319 1867.39 L 461.294 1868.6 L 460.351 1867.71 C 461.36 1864.23 462.404 1860.7 463.08 1857.14 C 464.726 1848.48 462.328 1842.68 457.451 1835.75 z"/>
<path transform="translate(0,0)" fill="rgb(0,0,0)" d="M 462.987 1752.3 C 463.37 1752.29 463.752 1752.26 464.134 1752.25 C 471.54 1752.12 478.463 1755.16 483.599 1760.5 C 490.157 1767.32 493.119 1776.9 492.832 1786.23 C 486.697 1780.67 485.865 1771.38 480.692 1765.06 C 475.916 1759.23 467.512 1757.88 462.987 1752.3 z"/>
<path transform="translate(0,0)" fill="rgb(0,0,0)" d="M 499.049 1683.88 C 504.331 1681.46 508.144 1681.79 513.608 1683.81 C 524.447 1687.81 536.685 1698.67 541.546 1709.19 C 542.711 1711.71 542.648 1713.61 542.106 1716.32 L 540.448 1717.71 C 539.005 1715.12 537.517 1712.54 535.914 1710.05 C 527.319 1696.69 514.521 1687.32 499.049 1683.88 z"/>
<path transform="translate(0,0)" fill="rgb(100,187,171)" d="M 478.304 1277.34 C 484.418 1280.66 490.357 1286.43 495.853 1290.81 C 508.133 1300.6 520.358 1310.56 533.259 1319.53 C 582.049 1353.43 636.945 1379.09 693.144 1397.9 C 697.448 1458.19 703.879 1486.94 737.027 1538.98 C 710.388 1533 693.654 1514.07 674.333 1496.46 C 688.441 1539.63 707.915 1563.06 701.459 1612.06 C 692.084 1585.6 674.666 1565.23 657.707 1543.44 C 658.04 1552.71 659.746 1562.08 660.889 1571.29 C 663.438 1591.84 664.527 1611.72 661.823 1632.32 C 660.519 1639.34 658.509 1646.34 656.797 1653.28 C 653.96 1638.71 650.848 1624.99 645.728 1611.01 C 643.079 1616.58 632.219 1646.75 630.658 1648.56 C 627.218 1644.61 629.323 1610.49 628.946 1603.38 C 628.442 1593.85 627.17 1584.43 625.858 1574.99 C 618.044 1602.67 607.505 1622.48 592.686 1646.8 C 580.06 1625.48 582.049 1601.81 581.699 1577.93 C 565.02 1605.34 540.158 1623.97 512.958 1640.01 C 527.551 1591.2 541.374 1541.79 541.179 1490.39 L 543.223 1489.48 C 541.4 1472.58 533.849 1455.38 528.111 1439.43 A 3013.29 3013.29 0 0 1 508.138 1382.94 C 496.46 1348.51 486.684 1312.72 478.304 1277.34 z"/>
<path transform="translate(0,0)" fill="rgb(100,187,171)" d="M 244.233 600.155 C 251.717 591.885 259.199 584.056 268.081 577.241 C 291.413 559.338 317.904 546.107 344.01 532.849 C 406.823 500.95 470.9 473.304 538.437 452.814 C 552.022 448.692 583.847 437.356 596.412 437.581 C 598.218 437.613 599.645 438.423 601.195 439.252 C 595.158 448.837 584.261 458.843 581.837 469.957 C 586.255 476.271 598.69 479.406 605.855 482.142 C 586.904 488.084 568.031 494.778 548.849 499.905 C 527.935 505.496 506.542 509.264 485.552 514.503 C 472.345 517.8 459.284 522.584 446.023 525.455 C 434.871 527.869 422.017 526.313 410.492 527.869 C 377.218 532.362 326.608 547.221 298.567 565.563 C 289.87 571.251 280.295 579.157 278.419 589.929 C 276.459 601.18 280.961 613.535 287.655 622.482 C 299.74 638.633 317.695 650.369 337.738 653.248 C 353.835 655.56 371.019 652.696 384.051 642.468 C 404.213 626.644 408.255 601.922 410.73 578.021 C 441.104 576.208 470.856 581.14 498.507 594.033 C 524.69 606.241 545.656 626.237 555.737 653.655 C 535.031 637.997 515.789 630.557 489.907 627.039 C 496.89 632.398 505.104 636.202 512.333 641.316 C 537.022 658.779 547.889 684.637 553.079 713.638 C 534.381 686.693 503.713 675.763 474.874 662.731 C 483.455 672.707 493.395 680.984 501.308 691.699 C 520.903 718.229 524.427 744.617 519.555 776.588 C 519.251 775.82 518.952 775.049 518.622 774.291 C 509.364 753.036 491.911 734.892 470.257 726.134 C 474.34 735.196 478.234 743.697 480.551 753.445 C 485.377 773.753 481.754 792.224 470.848 809.827 C 461.89 787.409 452.841 770.858 433.893 755.448 C 436.065 761.942 437.911 767.944 438.198 774.831 C 438.9 791.634 436.562 812.771 424.667 825.579 C 414.868 803.42 404.128 784.484 392.784 763.328 C 394.471 795.702 383.422 810.913 368.267 838.313 C 365.457 783.321 355.985 749.873 314.918 711 C 340.718 704.912 360.739 698.597 380.685 680.779 C 339.458 682 310.2 682.379 273.695 659.914 C 263.399 640.006 257.918 618.365 244.233 600.155 z"/>
<path transform="translate(0,0)" fill="rgb(77,131,155)" d="M 652.542 1172.68 C 660.428 1175.78 668.332 1181.74 675.772 1185.96 C 694.47 1196.58 714.075 1205.93 734.8 1211.85 C 748.068 1215.63 790.335 1224.54 802.131 1215.8 C 804.771 1213.84 804.614 1211.24 805.146 1208.27 L 803.961 1207.28 L 805.466 1206.49 C 822.594 1216.82 839.139 1228.1 856.119 1238.68 C 878.225 1252.45 900.753 1265.36 923.12 1278.68 C 943.693 1290.93 964.027 1303.49 984.981 1315.09 C 1094.66 1375.8 1207.91 1428.99 1319.68 1485.6 C 1349.38 1500.64 1378.03 1517.56 1407.5 1533.01 L 1416.59 1538.18 C 1311.78 1525.48 1206.27 1486.59 1107.69 1449.38 C 1054.71 1429.38 1001.27 1409.3 949.949 1385.33 C 914.532 1368.78 880.366 1350 846.109 1331.23 C 788.514 1299.67 725.119 1263.72 674.018 1222.58 A 358.728 358.728 0 0 0 652.542 1172.68 z"/>
<path transform="translate(0,0)" fill="rgb(100,187,171)" d="M 777.818 1301.66 C 789.754 1307.38 801.255 1316.17 812.603 1323.13 A 1258.57 1258.57 0 0 0 870.78 1356.23 A 1354.96 1354.96 0 0 0 989.041 1413.63 C 1012.61 1423.71 1036.76 1432.65 1060.55 1442.21 C 1066.88 1468.42 1093.57 1509.73 1111.54 1529.55 C 1122.03 1541.11 1133.83 1551.08 1145.88 1560.94 C 1119.72 1554.6 1096.94 1542.93 1077.56 1524.03 C 1068.97 1515.66 1061.2 1506.43 1052.25 1498.43 L 1051.21 1497.51 C 1063.09 1522.79 1084 1541.05 1100.53 1562.92 C 1124.45 1594.54 1143.89 1630.54 1159.16 1667.06 C 1126.33 1652.27 1106.06 1617.22 1084.68 1589.63 L 1082.86 1587.57 L 1081.47 1587.89 C 1081.32 1594.65 1093.58 1610.74 1097.26 1617.35 C 1099.79 1621.9 1101.85 1626.8 1103.85 1631.61 C 1110.73 1648.13 1120.26 1680.17 1122.73 1697.63 C 1099.89 1678.66 1085.46 1654.2 1067.1 1631.51 C 1071.96 1647.77 1087.23 1667.13 1089.83 1680.87 C 1090.27 1683.23 1090.5 1684.78 1089.19 1686.88 C 1065.71 1676.49 1044.15 1654.26 1027.91 1634.85 C 1034.13 1653.79 1045.85 1673.95 1048.5 1692.71 C 1037.3 1689.66 1026.81 1685.03 1018.7 1676.46 C 998.735 1655.38 985.565 1624.94 968.208 1600.84 C 933.025 1551.99 890.709 1506.96 859.899 1455.16 C 830.202 1405.24 808.288 1351.02 777.818 1301.66 z"/>
<path transform="translate(0,0)" fill="rgb(77,131,155)" d="M 417.053 530.348 C 432.578 529.028 447.795 530.459 462.901 534.277 C 500.245 543.715 540.446 569.069 567.731 596.206 C 588.234 616.596 613.057 651.301 627.834 676.066 C 596.822 664.957 588.779 651.86 566.748 628.027 C 578.308 648.637 594.195 665.751 608.615 684.274 C 632.765 715.295 654.833 747.346 686.083 771.914 C 657.671 768.352 630.246 758.416 607.849 740.145 C 600.741 734.346 594.652 726.756 586.549 722.319 C 586.265 722.163 585.975 722.019 585.688 721.869 C 604.459 747.594 628.15 764.676 653.372 783.334 C 665.208 792.09 677.453 800.884 687.092 812.118 C 701.561 828.981 712.388 852.005 721.583 872.182 C 706.377 858.845 687.081 850.179 670.321 838.929 C 653.21 827.443 638.183 813.623 621.788 801.237 C 636.289 820.914 654.828 837.457 674.965 851.235 C 686.733 859.287 721.755 878.1 729.01 888.178 C 730.203 889.835 730.272 889.956 729.952 892.03 C 728.912 892.021 687.764 879.054 680.553 877.231 C 620.709 862.101 525.161 844.145 464.441 854.569 C 452.642 856.595 439.859 860.831 432.932 871.278 C 419.345 891.772 428.081 925.484 432.105 947.825 C 416.988 950.985 403.391 957.359 389.963 964.861 C 380.682 970.046 372.187 975.567 361.833 978.402 C 365.331 965.922 370.146 953.73 374.847 941.665 C 381.365 926.287 387.161 911.259 391.574 895.104 C 373.865 927.459 356.021 958.086 334.719 988.221 C 345.984 936.432 368.164 888.15 376.708 835.634 C 372.419 842.828 370.973 851.16 366.591 858.132 C 364.151 846.418 383.987 816.001 389.094 803.884 C 392.701 795.325 395.009 786.944 396.838 777.848 C 407.768 792.69 413.606 814.491 423.683 827.36 L 425.941 827.461 C 427.274 826.832 428.492 826.232 429.499 825.115 C 440.575 812.824 441.233 784.552 441.252 768.786 C 455.63 781.768 461.964 796.813 471.144 813.507 C 473.669 810.29 476.116 806.88 478.058 803.277 C 490.791 779.653 485.458 757.851 478.081 733.71 C 497.981 747.356 512.162 763.276 520.72 786.11 C 522.468 779.488 523.873 772.641 524.574 765.825 C 528.225 730.314 515.587 703.633 493.602 676.672 C 513.735 683.369 533.537 693.329 545.78 711.245 C 550.346 717.927 553.978 725.325 558.285 732.207 A 120.424 120.424 0 0 0 557.001 715.949 C 551.482 679.661 536.552 654.999 507.104 633.309 L 510.304 634.174 C 529.296 639.32 550.566 648.337 560.68 666.368 C 561.48 667.794 562.025 668.941 563.152 670.157 C 563.375 670.398 563.631 670.605 563.871 670.83 L 563.775 670.77 L 565.982 668.489 L 563.939 668.495 C 563.147 664.306 562.123 660.272 560.816 656.212 C 551.936 628.641 530.908 605.93 505.229 592.895 C 459.231 569.544 402.301 569.36 353.965 585.494 C 332.071 592.802 307.545 606.369 296.857 627.72 C 289.432 620.035 283.275 610.959 281.51 600.197 C 280.233 592.412 281.74 585.272 286.561 578.965 C 307.156 552.021 383.689 534.99 417.053 530.348 z"/>
<path transform="translate(0,0)" fill="rgb(100,187,171)" d="M 833.541 941.826 C 842.233 943.351 852.722 950.052 860.649 954.142 C 919.98 984.759 972.719 1024.71 1022.59 1068.89 C 990.959 1063.05 956.297 1043.31 928.682 1027.03 C 915.362 1019.17 902.035 1010.63 887.827 1004.49 C 897.776 1014.8 911.01 1022.77 922.757 1030.98 C 944.478 1046.14 965.051 1061.44 983.126 1081.04 C 986.934 1085.17 993.127 1091.07 994.331 1096.64 C 994.694 1098.32 994.077 1098.4 993.116 1099.6 C 986.608 1100.92 977.722 1098.52 971.262 1097.27 C 919.336 1087.17 895.99 1057.98 851.441 1038.58 C 872.132 1057.73 972.572 1123.19 977.762 1140.59 C 976.252 1142.29 975.637 1142.77 973.372 1143.44 C 962.487 1146.67 950.035 1144.87 939.123 1142.78 C 883.002 1132.03 833.034 1098.35 783.978 1070.72 C 796.668 1083.58 812.978 1093.79 827.727 1104.19 C 849.435 1119.51 871.227 1135.01 891.008 1152.79 C 897.587 1158.71 905.101 1164.95 910.383 1172.01 C 912.154 1174.38 913.556 1176.52 913.057 1179.6 C 912.112 1180.54 911.247 1181.24 909.958 1181.67 C 900.075 1184.94 885.53 1183.33 875.3 1182.64 C 827.118 1179.37 778.129 1158.92 736.972 1134.29 C 723.129 1126.01 710.169 1116.25 696.039 1108.47 C 704.617 1119.72 716.566 1128.4 727.245 1137.56 C 746.031 1153.69 765.658 1169.86 783.476 1187.01 C 790.089 1193.38 799.599 1201.66 799.786 1211.37 C 796.044 1212.33 792.551 1212.86 788.678 1212.91 C 736.803 1213.52 662.597 1175.2 625.569 1139.62 C 630.757 1152.08 639.373 1163.08 646.045 1174.8 C 664.517 1207.26 676.275 1244.32 676.907 1281.69 A 368.048 368.048 0 0 1 670.087 1277.53 C 624.872 1249.39 569.494 1189.02 545.251 1141.91 C 527.323 1107.07 515.215 1066.5 506.338 1028.38 C 524.971 1065.74 559.48 1108.36 599.128 1124.13 C 604.423 1126.24 612.572 1129.46 618.062 1126.79 C 620.215 1125.74 621.322 1124.15 621.994 1121.85 C 626.776 1105.47 586.258 1028.44 577.267 1012.01 C 609.565 1041.98 660.858 1080.66 704.918 1086.41 C 710.972 1087.2 720.338 1088.07 725.171 1083.54 C 727.176 1081.65 728.044 1079.04 728.17 1076.35 C 729.201 1054.45 688.341 1010.81 673.757 995.097 C 709.294 1016.67 759.011 1045.58 800.898 1048.75 C 807.944 1049.28 819.05 1049 824.402 1043.55 C 826.68 1041.23 827.795 1038.69 827.736 1035.46 C 827.415 1017.53 800.874 994.525 788.612 983.2 C 812.957 993.652 837.291 1004.1 864.303 1004.09 C 869.5 1004.09 878.101 1003.72 881.661 999.244 C 883.077 997.466 883.476 995.302 883.167 993.088 C 880.667 975.222 847.221 952.102 833.541 941.826 z"/>
<path transform="translate(0,0)" fill="rgb(0,0,0)" d="M 590.07 1150.62 C 590.365 1150.74 590.682 1150.82 590.956 1150.98 C 595.672 1153.8 606.669 1177.85 609.879 1183.59 C 617.662 1197.51 626.938 1211.01 636.301 1223.91 C 644.018 1234.54 669.42 1263.11 672.276 1273.25 C 671.205 1273.55 669.872 1273.97 668.75 1273.83 C 665.09 1273.39 660.725 1268.74 658.175 1266.19 C 639.261 1247.27 590.177 1176.91 590.07 1150.62 z"/>
<path transform="translate(0,0)" fill="rgb(77,131,155)" d="M 488.7 861.424 C 505.958 859.537 524.987 861.066 542.295 862.384 A 810.572 810.572 0 0 1 773.895 916.287 C 811.079 930.873 860.75 957.222 877.468 995.593 C 834.566 1003.75 764.739 962.167 724.01 946.23 C 733.783 953.406 744.909 958.788 755.032 965.497 C 775.51 979.071 795.288 997.306 810.886 1016.34 C 814.75 1021.06 822.508 1029.93 820.853 1036.46 C 820.309 1038.6 819.32 1039.48 817.348 1040.24 C 808.312 1043.75 790.683 1038.44 781.729 1035.73 C 744.247 1024.36 709.915 1008.05 676.798 987.114 C 660.523 976.828 645.558 964.41 627.949 956.423 C 655.844 985.882 712.353 1039.59 722.409 1078.85 C 714.487 1079.4 707.561 1078.8 699.836 1077.11 C 655.804 1064.3 603.682 1027.79 571.851 994.48 C 562.693 984.898 554.998 974.333 547.183 963.666 C 556.962 991.423 616.806 1100.7 615.319 1118.81 L 613.825 1119.95 C 608.251 1120.16 603.281 1117.33 598.501 1114.74 C 586.714 1108.37 574.45 1099.95 564.48 1090.94 C 543.497 1071.98 509.749 1026.83 499.154 1000.31 C 491.942 982.26 488.799 962.293 483.293 943.621 C 482.085 957.329 485.318 971.746 487.686 985.2 C 497.005 1038.16 509.847 1078.01 527.845 1128.4 C 479.063 1078.11 441.254 979.237 435.233 909.618 C 434.288 898.693 433.415 883.32 441.176 874.601 C 451.904 862.549 473.733 862.459 488.7 861.424 z"/>
<path transform="translate(0,0)" fill="rgb(234,235,224)" d="M 1067.31 1444.87 C 1078.95 1448.8 1143.46 1471.94 1150.42 1477.75 C 1159.76 1485.56 1182.5 1520.23 1191.57 1532.11 A 8220.82 8220.82 0 0 0 1272.8 1634.95 A 2105.09 2105.09 0 0 0 1478.7 1855.89 C 1473.13 1856.29 1467.39 1856.56 1461.96 1857.95 C 1453.05 1860.22 1443.36 1864.83 1434.16 1864.8 C 1426.04 1864.78 1417.54 1861.53 1409.51 1860.15 A 190.51 190.51 0 0 0 1353.2 1858.48 C 1365.58 1841.11 1379.3 1821.88 1386.67 1801.81 C 1363.01 1810.21 1338.9 1825.41 1322.46 1844.58 L 1321.53 1844.54 C 1318.86 1836.37 1357.21 1770.2 1360.85 1756.96 L 1358.91 1756.72 C 1337.83 1763.75 1317.72 1787.28 1306.56 1805.65 C 1306.09 1783.76 1290.05 1757.5 1277.22 1740.52 C 1273.18 1735.17 1260.85 1719.42 1254.43 1718.54 C 1253.15 1720.98 1254.06 1724.02 1254.68 1726.56 C 1257.4 1737.8 1262.05 1749.08 1265.59 1760.12 C 1273.96 1786.18 1282.24 1812.04 1288.44 1838.73 C 1264.45 1804.48 1232.38 1782.41 1195.2 1764.67 C 1186.84 1760.68 1179.58 1756.33 1170.5 1753.9 L 1169.5 1754.99 C 1171.6 1759.28 1192.84 1775.04 1198.35 1779.81 C 1214.17 1793.52 1228.81 1808.42 1243.54 1823.28 C 1251.94 1831.77 1260.95 1840.04 1268.46 1849.35 L 1269.37 1850.49 C 1224.36 1836.38 1176.98 1829.89 1129.95 1828.24 C 1105.93 1827.4 1081.95 1828.01 1057.92 1826.84 C 1068.03 1794.17 1078.13 1761.74 1086.88 1728.66 C 1090.83 1713.71 1095.52 1698.39 1097.42 1683.03 C 1104.84 1690.8 1114.33 1701.79 1125.09 1704.63 C 1126.58 1704.31 1127.61 1704.51 1128.51 1703.12 C 1132.56 1696.82 1126.33 1678.58 1124.27 1671.86 C 1120.73 1660.31 1116.84 1648.85 1113.55 1637.23 C 1124.74 1652.12 1140 1672.4 1160.18 1674.72 C 1162.57 1674.99 1163.28 1674.55 1165.33 1673.49 C 1167.28 1669.81 1166.06 1666.23 1164.88 1662.47 C 1151.9 1620.94 1125.64 1586.63 1101.28 1551.44 C 1116.2 1560.71 1143.01 1574.2 1161.13 1569.16 C 1163 1568.64 1163.76 1568.28 1165.01 1566.88 L 1165.13 1564.99 C 1160.88 1560.85 1155.41 1558.38 1150.52 1555.08 C 1145.44 1551.66 1140.72 1547.48 1136.19 1543.38 C 1113.26 1522.67 1097.13 1497.36 1081.63 1470.97 C 1076.67 1462.53 1071.13 1453.89 1067.31 1444.87 z"/>
<path transform="translate(0,0)" fill="rgb(77,131,155)" d="M 967.441 1056.84 C 968.07 1056.94 968.707 1056.99 969.327 1057.14 C 979.141 1059.44 988.988 1064.9 998.917 1067.7 C 1009.31 1070.64 1026.16 1072.45 1035.03 1077.49 C 1040.75 1080.75 1046.17 1085.96 1051.31 1090.08 C 1061.64 1098.35 1071.87 1106.68 1082.64 1114.38 C 1129.81 1148.1 1175.43 1182.96 1221.3 1218.39 C 1284.05 1266.85 1354.72 1316.34 1397.44 1384.44 C 1385.59 1376.52 1374.51 1367.17 1362.83 1358.93 C 1337.33 1340.94 1311.29 1323.51 1285.42 1306.05 A 3063.75 3063.75 0 0 0 1097.72 1188.86 L 1047.75 1159.47 C 1036.99 1153.15 1026.06 1146.07 1014.51 1141.29 C 1028.85 1151.77 1043.99 1160.92 1058.87 1170.59 C 1095.38 1194.32 1132.36 1217.15 1169.14 1240.45 C 1236.69 1283.24 1306.91 1328.04 1372 1374.18 C 1389.76 1386.77 1406.83 1400.37 1424.33 1413.31 C 1464.19 1442.78 1507.42 1471.1 1537.75 1510.92 A 2906.52 2906.52 0 0 0 1439.25 1463.25 C 1422.98 1455.6 1406.23 1448.63 1390.44 1440.02 C 1345.53 1415.52 1302.17 1387.98 1257.95 1362.23 A 11501.8 11501.8 0 0 0 995.534 1213.47 C 986.286 1208.27 928.548 1174.49 922.911 1173.22 C 923.793 1176.79 974.098 1207.48 980.455 1211.48 C 1026.08 1240.21 1073.43 1266.77 1120.17 1293.64 L 1280.49 1387.05 L 1355.75 1431.31 C 1374.04 1441.95 1392.8 1452.14 1410.36 1463.96 C 1436.93 1481.85 1462.51 1502.79 1487.26 1523.11 C 1513.3 1544.49 1537.09 1564.99 1558.61 1591.12 C 1544.48 1583.73 1529.08 1579.34 1514.16 1573.87 A 720.993 720.993 0 0 1 1456.84 1549.81 C 1422.55 1533.36 1390.2 1514.02 1357.09 1495.42 A 2555.37 2555.37 0 0 0 1281.37 1455.44 C 1253.44 1441.37 1224.98 1428.32 1196.94 1414.47 C 1097.82 1365.51 998.623 1315.73 902.954 1260.31 A 2437.13 2437.13 0 0 1 837.949 1221.41 C 827.551 1215.06 816.164 1209.09 806.573 1201.61 C 797.669 1194.66 790.622 1184.63 782.352 1176.84 C 772.786 1167.83 762.082 1160.09 752.638 1150.95 C 792.802 1172.81 835.817 1191.37 882.449 1191.4 C 891.759 1191.41 911.71 1191.49 918.087 1183.72 C 919.852 1181.57 920.316 1178.9 919.927 1176.21 C 917.866 1162 882.48 1136.53 871.029 1127.46 C 896.561 1138.2 923.855 1149.85 951.804 1151.37 C 959.365 1151.78 975.486 1152.14 980.856 1146.12 C 982.609 1144.15 982.855 1142.01 982.582 1139.49 C 981.279 1127.46 950.594 1103.26 940.183 1094.98 C 954.808 1100.02 974.471 1105.08 990.083 1104.73 C 994.519 1104.63 997.859 1103.81 1000.96 1100.43 C 1001.68 1098.51 1002 1097.37 1001.74 1095.27 C 1000.34 1083.85 976.215 1063.9 967.441 1056.84 z"/>
<path transform="translate(0,0)" fill="rgb(234,235,224)" d="M 696.571 1399.24 C 731.708 1410.34 766.763 1420.01 803.074 1426.49 C 813.687 1428.38 824.454 1430.66 835.24 1431.15 C 854.592 1463.81 873.102 1492.88 896.537 1522.89 L 952.674 1593.86 C 964.99 1609.65 977.897 1625.8 988.36 1642.89 C 1011.76 1681.12 992.593 1774.12 982.104 1817.1 C 940.146 1810.68 898.42 1805.12 856.218 1800.52 C 823.097 1796.91 788.249 1792.28 754.992 1796.14 A 799.549 799.549 0 0 1 828.298 1752.35 C 839.666 1746.33 851.67 1741.52 862.751 1734.98 C 815.251 1741.93 766.735 1756.15 730.725 1789.32 C 740.103 1750.59 767.274 1716.87 795.175 1689.44 C 765.877 1704.68 716.015 1742.2 705.783 1774.61 L 703.637 1776.63 C 700.527 1775.31 692.538 1758.33 689.131 1753.95 C 679.215 1741.21 666.01 1734.02 651.806 1726.95 C 660.312 1741.47 683.509 1779.22 677.999 1796.36 C 677.572 1797.69 677.615 1797.31 676.232 1797.88 C 658.071 1772.49 635.335 1760.65 606.106 1751.24 C 624.819 1766.29 640.354 1780.77 656.798 1798.12 A 2085.87 2085.87 0 0 0 503.126 1804.49 C 540.069 1744.48 579.638 1686.15 613.527 1624.28 C 613.23 1633.76 613.505 1648.28 620.012 1655.65 L 621.534 1655.43 A 441.329 441.329 0 0 1 625.392 1637.82 C 626.196 1645.03 626.227 1655.77 630.784 1661.73 L 632.59 1661.87 C 638.715 1655.62 641.647 1637.81 644.141 1629.24 C 647.99 1644.72 648.68 1660.74 652.46 1676.24 C 674.02 1645.47 673.652 1606.5 668.77 1570.79 C 680.887 1588.85 690.425 1608.49 700.676 1627.6 A 156.519 156.519 0 0 0 702.304 1623.93 C 716.527 1591.22 703.233 1554.01 690.923 1522.93 C 698.709 1531.01 710.565 1540.78 721.825 1542.8 C 729.015 1544.08 736.676 1545.53 743.749 1543.11 C 744.146 1542.51 744.86 1542.04 744.941 1541.33 C 745.024 1540.62 724.361 1510.26 720.942 1503.03 C 705.572 1470.53 698.853 1434.88 696.571 1399.24 z"/>
<path transform="translate(0,0)" fill="rgb(144,146,136)" d="M 937.909 0 L 951.629 0 L 1020.02 0 L 1121.15 0 L 1147.64 0 L 1169.12 0 L 1201.27 0 L 1306.6 0 L 1323.62 0 L 1386.23 0 L 1435.71 0 L 1446.65 0 L 1525.53 0 L 1628.92 0 L 1816.82 0 L 1828.94 0 L 1959.93 0 L 1990.7 0 L 2048 0 L 2048 1575.29 L 2048 2048 L 0 2048 L 0 1797.35 C 2.26265 1795.27 3.78701 1793.63 4.37824 1790.53 C 7.18908 1775.81 6.69538 1759.8 7.82412 1744.8 C 10.0493 1715.22 18.4227 1652.36 34.9748 1628.76 C 33.8453 1643.67 31.6601 1658.47 30.8843 1673.41 C 29.5251 1699.6 30.7596 1726.94 32.7972 1753.09 C 32.9202 1752.82 33.0481 1752.55 33.1661 1752.28 C 38.578 1739.78 39.2969 1724.91 43.3523 1711.83 C 57.5636 1665.99 73.5639 1627.01 104.549 1589.56 C 116.711 1574.86 130.086 1561.53 146.725 1551.93 C 121.165 1588.47 99.5243 1625.78 83.6737 1667.66 C 73.374 1694.86 65.3464 1723.12 55.5077 1750.55 L 56.119 1749.67 C 64.3277 1737.6 70.5033 1724.22 78.6894 1712.11 C 108.294 1668.32 150.103 1632.49 196.892 1608.1 C 209.104 1601.73 222.797 1598.7 234.832 1592.31 L 236.22 1593.23 C 229.342 1602.47 221.376 1610.79 214.084 1619.7 A 2843.52 2843.52 0 0 0 153.401 1696.45 C 140.3 1713.62 126.749 1730.54 116.085 1749.39 C 116.372 1749.15 116.661 1748.92 116.946 1748.68 C 129.513 1738.11 139.242 1724.38 151.81 1713.65 C 160.434 1706.28 169.486 1699.4 179.293 1693.68 C 206.562 1677.76 253.33 1660.12 284.355 1656.81 C 244.131 1686.96 204.611 1713.86 171.776 1752.57 C 179.228 1751.87 186.631 1750.08 194.028 1748.89 C 218.089 1745 242.817 1740.48 267.216 1740.39 C 242.575 1752.13 219.527 1766.77 195.691 1779.99 C 213.939 1777.99 237.924 1779.02 253.042 1790.95 C 255.117 1792.58 257.062 1794.34 258.708 1796.41 C 251.073 1798.38 242.801 1800.4 235.699 1803.84 C 217.846 1812.49 202.482 1832.86 192.551 1849.49 C 189.486 1854.62 186.424 1861.19 187.005 1867.26 C 188.243 1868.8 187.777 1868.94 189.438 1869.05 C 198.567 1869.7 206.886 1860.73 214.994 1857.48 C 229.83 1851.52 245.323 1854.67 260.065 1858.84 C 243.917 1873.88 234.473 1890.71 227.906 1911.58 C 226.227 1916.92 224.08 1923.34 223.97 1928.98 C 223.944 1930.28 224.278 1931.26 224.865 1932.4 C 230.412 1933.2 247.44 1919.4 254.008 1916.36 C 260.06 1913.56 266.26 1911.98 272.768 1910.6 C 279.859 1913.84 287.005 1917.23 294.396 1919.74 C 311.844 1915.84 328.751 1909.47 345.747 1903.98 C 383.932 1891.65 422.613 1881.52 462.977 1880.98 C 481.677 1880.73 499.833 1882.96 518.323 1885.39 C 528.597 1886.74 539.327 1888.85 549.707 1888.69 C 561.896 1888.52 567.209 1883.48 576.053 1875.94 C 590.235 1880.56 602.775 1888.98 613.803 1898.97 C 613.597 1878.88 609.097 1858.83 594.263 1844.24 A 47.6077 47.6077 0 0 0 574.833 1832.55 C 553.806 1825.97 514.951 1829.34 490.147 1825.57 L 501.363 1807.39 C 526.393 1801.77 554.936 1802.73 580.545 1801.89 C 607.013 1801.03 633.441 1799.4 659.931 1799.74 C 646.294 1783.33 632.715 1768.55 614.757 1756.79 C 628.964 1761.78 644.02 1767.77 655.636 1777.68 C 660.387 1781.73 671.007 1796.63 676.232 1797.88 C 677.615 1797.31 677.572 1797.69 677.999 1796.36 C 683.509 1779.22 660.312 1741.47 651.806 1726.95 C 666.01 1734.02 679.215 1741.21 689.131 1753.95 C 692.538 1758.33 700.527 1775.31 703.637 1776.63 L 705.783 1774.61 C 711.577 1769.71 715.275 1759.75 720.013 1753.53 C 734.685 1734.27 756.234 1715.13 777.425 1703.32 C 757.355 1731.55 734.634 1757.69 728.362 1792.97 C 765.43 1762.23 801.678 1748.86 848.316 1739.76 C 814.765 1756.62 781.516 1775.38 750.871 1797.14 C 772.641 1799.52 795.435 1797.49 817.445 1798.73 C 836.236 1799.78 855.158 1802.51 873.879 1804.53 C 909.434 1808.38 946.044 1812.22 981.072 1819.43 C 978.076 1828.74 975.373 1835.98 965.991 1840.64 C 946.571 1850.28 924.434 1841.78 904.543 1839.64 C 898.461 1838.99 892.097 1840.18 886.113 1839.14 C 874.964 1837.2 866.221 1832.31 854.399 1832.78 C 845.139 1833.14 838.609 1837.8 830.572 1841.54 C 824.487 1844.38 817.968 1846.22 811.965 1849.26 C 795.287 1857.69 781.832 1874.63 775.561 1892.07 C 772.018 1901.93 771.449 1911.39 771.807 1921.76 C 787.528 1908.93 808.5 1896.72 829.575 1898.68 C 834.912 1899.18 840.095 1900.62 845.115 1902.45 C 827.965 1919.76 817.568 1937.02 817.899 1961.97 C 817.952 1965.91 818.096 1969.74 819.751 1973.36 L 821.047 1973.65 C 837.698 1960.27 856.048 1946.2 878.679 1948.34 C 885.894 1949.02 893.428 1951.82 900.642 1951.35 C 911.862 1950.62 925.302 1943.16 935.678 1938.92 C 954.093 1931.4 972.989 1925.1 991.456 1917.67 C 1005.31 1912.09 1020.46 1903.32 1034.97 1900.35 C 1044.31 1898.43 1054.16 1901.85 1063.51 1902.28 C 1066.14 1902.4 1068.7 1901.94 1071.27 1901.45 C 1076.98 1900.34 1082.83 1898.53 1088.67 1898.56 C 1098.14 1898.61 1107.6 1901.17 1117.08 1900.14 C 1125.22 1899.25 1129.77 1893.69 1136.66 1890.28 C 1153.72 1881.83 1174.09 1889.78 1185.47 1903.78 C 1188.27 1907.23 1190.57 1911.18 1193.19 1914.78 C 1193.57 1893.7 1188.69 1877.59 1173.96 1862.16 C 1158.29 1845.74 1142.16 1842.84 1120.56 1840.51 C 1116.57 1840.08 1112.61 1838.58 1108.62 1838.4 C 1098.3 1837.93 1083.57 1847.28 1073.52 1850.47 C 1065.1 1853.15 1056.95 1854.16 1048.15 1854.66 C 1051.67 1845.45 1055.14 1836.31 1057.92 1826.84 C 1081.95 1828.01 1105.93 1827.4 1129.95 1828.24 C 1176.98 1829.89 1224.36 1836.38 1269.37 1850.49 L 1268.46 1849.35 C 1260.95 1840.04 1251.94 1831.77 1243.54 1823.28 C 1228.81 1808.42 1214.17 1793.52 1198.35 1779.81 C 1192.84 1775.04 1171.6 1759.28 1169.5 1754.99 L 1170.5 1753.9 C 1179.58 1756.33 1186.84 1760.68 1195.2 1764.67 C 1232.38 1782.41 1264.45 1804.48 1288.44 1838.73 C 1282.24 1812.04 1273.96 1786.18 1265.59 1760.12 C 1262.05 1749.08 1257.4 1737.8 1254.68 1726.56 C 1254.06 1724.02 1253.15 1720.98 1254.43 1718.54 C 1260.85 1719.42 1273.18 1735.17 1277.22 1740.52 C 1290.05 1757.5 1306.09 1783.76 1306.56 1805.65 C 1317.72 1787.28 1337.83 1763.75 1358.91 1756.72 L 1360.85 1756.96 C 1357.21 1770.2 1318.86 1836.37 1321.53 1844.54 L 1322.46 1844.58 C 1330.3 1841.72 1338.63 1830.99 1345.57 1825.79 C 1357.17 1817.11 1370.78 1809.68 1384.21 1804.31 C 1374.59 1824.14 1362.56 1844.09 1348.93 1861.47 C 1379.04 1858.06 1406.71 1859.99 1436.06 1867.62 C 1451.02 1862.49 1464.84 1857.41 1480.88 1857.63 A 1210.02 1210.02 0 0 1 1499.71 1873.86 L 1502.78 1876.29 C 1527.26 1894.26 1550.4 1912.39 1577.01 1927.24 C 1632.46 1958.2 1678.33 1963.29 1740.14 1945.69 C 1732.35 1937.95 1722.46 1931.33 1713.77 1924.56 L 1657.47 1881.46 L 1658.44 1881.03 L 1656.83 1880.21 L 1657.01 1879.89 C 1700.13 1906.82 1762.87 1931.92 1813.99 1929.19 C 1854.43 1927.03 1923.61 1906.71 1951.17 1875.85 C 1937.35 1870.32 1922.43 1866.63 1908.15 1862.44 A 1246.87 1246.87 0 0 1 1848.79 1843.93 C 1793.34 1825.34 1741.81 1801.02 1690.36 1773.45 C 1669.42 1762.23 1648.22 1751.24 1628.58 1737.82 C 1632.63 1733.94 1661.57 1710.59 1661.95 1708.07 L 1660.82 1708.26 C 1643.95 1697.7 1625.61 1689.95 1608.47 1679.98 L 1608.12 1678.25 C 1616.12 1669.85 1675.38 1675.71 1690.67 1672.98 C 1703.77 1670.65 1717.08 1661.83 1728.83 1655.69 A 736.201 736.201 0 0 0 1699.77 1627.22 C 1695.66 1623.44 1690.73 1620.43 1686.89 1616.46 C 1685.5 1615.03 1685.38 1614.54 1684.84 1612.62 L 1686.58 1611.64 C 1704.11 1612.98 1721.23 1620.85 1736.25 1629.54 C 1724.41 1598.26 1706.31 1568.66 1689.01 1540.06 C 1684.57 1532.72 1670.46 1514.91 1670.01 1507.32 L 1671.73 1506.3 C 1689.55 1507.9 1727.08 1539.77 1740.9 1553.3 C 1736.83 1533.6 1737.13 1511.86 1735.68 1491.74 C 1732.63 1449.15 1730.02 1406.55 1725.29 1364.11 A 3272.17 3272.17 0 0 0 1688.39 1110.66 C 1680.12 1067.36 1671.19 1023.7 1658.52 981.45 A 1120.72 1120.72 0 0 0 1539 719.346 C 1515.61 681.796 1491.86 641.578 1460.27 610.191 C 1450.63 599.955 1439.63 591.359 1428.3 583.102 C 1413.57 570.161 1397.27 558.631 1381.97 546.323 A 588.789 588.789 0 0 1 1337.22 506.154 C 1325.26 491.931 1312.35 478.524 1300.79 463.949 A 700.072 700.072 0 0 1 1199.99 287.367 C 1181.59 279.466 1164.59 271.081 1147.71 260.192 A 551.796 551.796 0 0 1 958.468 49.4816 C 950.653 33.9247 941.583 17.0652 937.909 0 z"/>
<path transform="translate(0,0)" fill="rgb(100,104,104)" d="M 1743.49 1490.81 C 1743.75 1490.74 1744.02 1490.64 1744.29 1490.61 C 1752.69 1489.6 1788.85 1508.36 1796.34 1513.12 C 1826.99 1532.6 1847.51 1562.67 1866.34 1592.79 C 1870.95 1600.15 1878.39 1607.73 1880.27 1616.35 C 1838.42 1561.29 1816.77 1510.67 1743.53 1492.35 L 1743.49 1490.81 z"/>
<path transform="translate(0,0)" fill="rgb(100,104,104)" d="M 1805.83 1362.57 C 1806.48 1362.54 1807.1 1362.87 1807.73 1363.06 C 1809.63 1368.41 1809.99 1374.52 1812.16 1379.63 C 1821.6 1401.82 1823.05 1426.19 1830.28 1449.12 C 1836.32 1468.25 1842.81 1487.58 1849.98 1506.33 C 1863.57 1541.84 1880.38 1580.64 1886.16 1618.37 C 1882.54 1615.64 1880.12 1601.83 1878.53 1596.9 C 1867.34 1562.34 1853.51 1528.91 1841.75 1494.61 C 1835.54 1476.51 1829.62 1458.09 1824.3 1439.71 C 1820.35 1426.06 1817.81 1411.92 1814.59 1398.08 C 1811.83 1386.2 1808.41 1374.48 1805.83 1362.57 z"/>
<path transform="translate(0,0)" fill="rgb(100,104,104)" d="M 1502.78 1876.29 C 1466.7 1875.24 1430.71 1873.95 1394.6 1874.75 C 1371.29 1875.26 1347.78 1878.11 1324.53 1877.44 C 1291.52 1876.48 1258.33 1871.05 1225.45 1867.82 C 1213.01 1866.6 1189.56 1866.25 1178.89 1861.74 C 1184.92 1859.22 1270.64 1868.65 1283.16 1870.2 C 1298.46 1872.1 1314 1874.58 1329.45 1874.6 C 1349.1 1874.63 1368.89 1872.15 1388.65 1871.95 C 1425.76 1871.58 1462.63 1872.54 1499.71 1873.86 L 1502.78 1876.29 z"/>
<path transform="translate(0,0)" fill="rgb(234,235,224)" d="M 1323.62 0 L 1386.23 0 L 1435.71 0 C 1435.73 69.0232 1450.84 130.022 1418.55 195.547 C 1412.7 207.417 1406.4 219.939 1396.97 229.414 C 1392.7 233.707 1388.08 236.631 1382.81 239.492 C 1377.29 192.641 1363.86 148.055 1354.39 102.1 C 1353.37 93.6989 1350.3 84.5519 1348.05 76.392 C 1340.88 50.4652 1331.29 25.6582 1323.62 0 z"/>
<path transform="translate(0,0)" fill="rgb(234,235,224)" d="M 951.629 0 L 1020.02 0 L 1121.15 0 C 1134.93 76.7635 1160.43 156.773 1184.49 230.918 C 1124.86 206.154 1061.53 153.316 1020.87 103.696 C 997.673 77.18 965.08 32.3386 951.629 0 z"/>
<path transform="translate(0,0)" fill="rgb(234,235,224)" d="M 1828.94 0 L 1959.93 0 C 1959.74 19.9456 1961.1 39.8956 1960.66 59.8423 C 1959 134.5 1948.87 221.543 1929.12 293.32 C 1915.2 280.294 1902.22 265.131 1892.87 248.459 C 1859.13 188.249 1837.32 69.1143 1828.94 0 z"/>
<path transform="translate(0,0)" fill="rgb(234,235,224)" d="M 1147.64 0 L 1169.12 0 L 1201.27 0 L 1306.6 0 C 1315.38 36.3393 1320.33 74.2889 1326.66 111.15 C 1334.43 156.333 1343.23 201.343 1348.92 246.853 C 1357.11 312.237 1360.34 378.06 1362.77 443.853 C 1282.46 366.983 1240.03 278.32 1202.79 174.907 C 1195.48 154.611 1184.31 128.832 1179.78 108.225 C 1171.69 91.003 1165.29 62.0374 1159.51 42.9781 C 1155.26 28.7784 1150.94 14.4539 1147.64 0 z"/>
<path transform="translate(0,0)" fill="rgb(234,235,224)" d="M 1446.65 0 L 1525.53 0 C 1528.69 32.7261 1533.65 65.3969 1537.63 98.0413 L 1567.77 335.842 L 1589.72 509.715 C 1593.67 540.605 1597.2 571.661 1602.24 602.392 C 1578.26 580.408 1553.23 560.553 1525.3 543.806 C 1488.64 521.823 1443.36 501.555 1412.39 472.072 C 1411.36 452.758 1408.45 433.251 1406.54 413.983 C 1404.06 389.051 1402.2 364.036 1399.17 339.163 C 1396.89 320.38 1393.61 301.734 1390.65 283.049 C 1403.75 272.201 1414.27 260.383 1423.65 246.123 C 1472.6 171.688 1463.51 82.6946 1446.65 0 z"/>
<path transform="translate(0,0)" fill="rgb(234,235,224)" d="M 1628.92 0 L 1816.82 0 A 486.07 486.07 0 0 0 1816.87 8.33782 C 1818.13 95.2865 1853.11 267.699 1917.16 329.694 C 1897.37 388.674 1859.74 447.994 1826.2 500.265 C 1809.96 525.585 1792.78 550.186 1779.64 577.367 C 1764.71 608.245 1759.27 640.955 1748.97 673.29 C 1743.85 628.065 1736.08 583.342 1728.3 538.516 L 1689.32 325.002 L 1652.43 127.529 C 1644.68 85.0704 1638.69 42.0522 1628.92 0 z"/>
<path transform="translate(0,0)" fill="rgb(234,235,224)" d="M 1990.7 0 L 2048 0 L 2048 1575.29 C 2045.15 1568.59 2043.33 1561.22 2040.77 1554.36 C 2031.56 1529.62 2021.96 1505.06 2007.91 1482.6 C 2009.71 1436.85 2017.72 1379.73 1999.24 1336.55 C 1998.3 1373.53 1994.57 1412.12 1982.41 1447.27 C 1969.11 1408.9 1953.54 1371.49 1941.32 1332.71 C 1916.59 1254.23 1896.99 1173.87 1875.12 1094.56 C 1849.69 1002.31 1816.83 913.266 1818.14 816.055 C 1818.5 789.271 1818.9 759.822 1824.68 733.709 C 1835.52 684.703 1871.87 618.89 1894.68 573.297 C 1909.93 542.823 1924.29 511.025 1937.1 479.449 C 1974.98 386.125 1999.42 266.712 2003.65 166.549 C 2005.77 116.369 2005.96 47.8331 1990.7 0 z"/>
</svg>